<svg id="_10._head_bump" data-name="10. head bump" xmlns="http://www.w3.org/2000/svg" viewBox="0 0 31.23 13.68"><defs><style>.cls-1{fill:red;}.cls-2{fill:#666;}.cls-3{fill:#d9e021;}.cls-4{fill:blue;}</style></defs><path class="cls-1" d="M755.93,403.51c.61,0,1-.48,1.26-.95s.54-1,.77-1.52a4.12,4.12,0,0,1,.34-.7s.12-.09.12-.1,0,0,0,0l0,0s.06,0,0,0,0,0,0,.07a.41.41,0,0,1,0,.12,1.51,1.51,0,0,1-.06.35c-.07.27-.16.54-.22.81a3.3,3.3,0,0,0,0,2,.53.53,0,0,0,.62.35.52.52,0,0,0,.35-.62,2.47,2.47,0,0,1,0-1.61,2.73,2.73,0,0,0,.15-1.9,1,1,0,0,0-1.7-.14,2.82,2.82,0,0,0-.43.78c-.13.27-.26.55-.4.82s-.32.61-.49.9l-.12.19a.39.39,0,0,1-.09.11l0,.06c-.06.05,0,0,0,0s.06,0,0,0,.11,0,0,0a.51.51,0,0,0-.5.5.5.5,0,0,0,.5.5Z" transform="translate(-747.91 -393.62)"/><path class="cls-1" d="M757.91,400.28c0,.06,0,.12,0,.19,0-.11,0,.08,0,.1l-.09.32c-.07.24-.15.48-.22.73l-.22.72,0,.07c-.05.14,0,.07.22-.2,0,0,0,0,0,0h-.09s-.2,0-.09,0l-.08,0,.12.07.13.22v.07l-.07.26,0-.06a.13.13,0,0,1-.06.07h0c-.06,0-.08,0,0,0s-.09,0,0,0-.09,0,0,0c-.15-.06,0,0,0,0s-.06,0,0,0l0,0c.08.06,0-.07,0,0s.09.17,0,.05l.83-.49-.6-.69a.5.5,0,0,0-.71,0,.52.52,0,0,0,0,.71l.61.69a.48.48,0,0,0,.6.07.49.49,0,0,0,.23-.56,1.18,1.18,0,0,0-1-.83.92.92,0,0,0-.65.24.63.63,0,0,0-.13.84,1.13,1.13,0,0,0,1.45.07,1.65,1.65,0,0,0,.28-.67l.18-.6a5.11,5.11,0,0,0,.33-1.44.51.51,0,0,0-.5-.5.5.5,0,0,0-.5.5Z" transform="translate(-747.91 -393.62)"/><path class="cls-2" d="M753.44,399.8a4.65,4.65,0,0,0-2.36,1.7,5,5,0,0,0-.64,1.21,1.55,1.55,0,0,0,1.31,2.39,6.26,6.26,0,0,0,1.66.22,14.79,14.79,0,0,0,3.62-.58.5.5,0,0,0-.27-1,15.25,15.25,0,0,1-2.85.54,6.88,6.88,0,0,1-1.36-.05,5.78,5.78,0,0,1-.69-.17,1.45,1.45,0,0,1-.57-.24c-.17-.19.06-.71.13-.91a3.38,3.38,0,0,1,.52-.93,3.67,3.67,0,0,1,1.76-1.25c.62-.19.35-1.16-.26-1Z" transform="translate(-747.91 -393.62)"/><path class="cls-2" d="M755.92,399.91a18.52,18.52,0,0,1,3.28-.82c.56-.08,1.12-.14,1.68-.17a1.49,1.49,0,0,1,1.27.36,2.07,2.07,0,0,1-.08,2.52,5.43,5.43,0,0,1-2.26,1.93c-.58.28-.08,1.14.5.86,1.92-.92,4.34-3.57,2.75-5.76-.8-1.1-2.12-.95-3.32-.81a19.69,19.69,0,0,0-4.09.92c-.6.21-.34,1.18.27,1Z" transform="translate(-747.91 -393.62)"/><path class="cls-3" d="M750.08,404.8l.74-3.08-.91.12c.58.88,1.13,1.77,1.66,2.68l.56-.74-1.84-.62-.9-.3a2.49,2.49,0,0,1-.74-.34l-.11.92c1.18-.26,2.35-.56,3.52-.89l-.49-.83c-.85,1-1.72,1.91-2.62,2.84a.5.5,0,0,0,.71.7c.89-.92,1.77-1.87,2.62-2.83a.51.51,0,0,0-.49-.84c-1.16.33-2.34.62-3.52.88a.49.49,0,0,0-.36.42.51.51,0,0,0,.24.49,3,3,0,0,0,.84.4l1,.32,1.91.65a.51.51,0,0,0,.56-.74c-.53-.9-1.08-1.8-1.66-2.67a.5.5,0,0,0-.91.12l-.74,3.07a.52.52,0,0,0,.35.62.5.5,0,0,0,.61-.35Z" transform="translate(-747.91 -393.62)"/><path class="cls-3" d="M761.31,399.19a7.35,7.35,0,0,1,0-.94c0-.15,0-.31,0-.47,0,0,0-.13,0-.06v-.06a2.17,2.17,0,0,1,0-.25l-.84.22c.06.07.12.13.17.2l.08.09s.09.12.05.06,0,.07,0,.08l.08.1.14.2a9.29,9.29,0,0,1,.53.85l.57-.74-2.17-.86v1a14.26,14.26,0,0,1,2.21-.63l-.56-.74-.18.25c.08-.11,0,0,0,0l-.09.12-.37.44a6.14,6.14,0,0,0-.72,1,.5.5,0,0,0,.86.5,4.39,4.39,0,0,1,.32-.51l.09-.12,0,0,.19-.23c.27-.33.54-.65.78-1a.5.5,0,0,0,0-.56A.52.52,0,0,0,762,397a14.07,14.07,0,0,0-2.22.63.53.53,0,0,0-.37.49.55.55,0,0,0,.37.48l2.17.86a.51.51,0,0,0,.57-.74,12.2,12.2,0,0,0-1.26-1.78.5.5,0,0,0-.83.22,7.86,7.86,0,0,0-.13,2.05.51.51,0,0,0,.5.5.5.5,0,0,0,.5-.5Z" transform="translate(-747.91 -393.62)"/><path class="cls-3" d="M761.54,404.8c0-.84,0-1.67,0-2.51l-.85.36a9.19,9.19,0,0,1,.73.67l.16.18,0,0,.07.1a1.18,1.18,0,0,1,.11.19l.06.1s0,0,0,.06,0-.06,0,0l.48-.63a5.07,5.07,0,0,1-.55,0l-.14,0h0l-.27-.05a6.3,6.3,0,0,1-1-.3l.12.91a19,19,0,0,1,1.74-1l-.73-.57c-.17.63-.35,1.25-.55,1.87a.5.5,0,0,0,1,.26c.19-.61.37-1.24.54-1.86a.51.51,0,0,0-.73-.57c-.6.32-1.18.67-1.75,1.05a.49.49,0,0,0-.23.5.48.48,0,0,0,.35.41,6.76,6.76,0,0,0,2.31.44.5.5,0,0,0,.48-.63,4.45,4.45,0,0,0-1.42-1.77.51.51,0,0,0-.55-.1.5.5,0,0,0-.31.45c0,.84-.05,1.67,0,2.51a.51.51,0,0,0,.5.5.51.51,0,0,0,.5-.5Z" transform="translate(-747.91 -393.62)"/><path class="cls-3" d="M749.36,396.58l1.83-.39-.62-.62-.47,1.17a3.66,3.66,0,0,0-.21.55.83.83,0,0,0,.14.66,11.39,11.39,0,0,0,1.4,1.85.49.49,0,0,0,.7,0,.5.5,0,0,0,0-.71,11,11,0,0,1-1.17-1.53s-.09-.2-.13-.22c0,.19,0,.24,0,.16l0-.08c.07-.18.15-.37.23-.55l.42-1c.15-.38-.29-.69-.62-.62l-1.83.39a.5.5,0,0,0,.27,1Z" transform="translate(-747.91 -393.62)"/><path class="cls-3" d="M754.73,394.63c.28,0,.56,0,.85,0h.71a.26.26,0,0,1-.23-.15l-.07-.25c0-.12,0-.14,0-.08l0,.09-.09.18-.17.32-.35.68a.5.5,0,0,0,.3.73l.77.11.37.05.2,0,.15,0-.21-.29v0a.86.86,0,0,1,0,.17l-.07.37c-.05.26-.09.53-.16.77l.13-.22,0,0,.49-.13h0l.3.23,0,0,.05.38h0a.51.51,0,0,0-.35-.62.51.51,0,1,0-.24,1,.55.55,0,0,0,.67-.51c.08-.4.18-.81.25-1.22a.83.83,0,0,0-.17-.73,1,1,0,0,0-.56-.22l-1.26-.18.3.73.48-.94c.19-.35.46-.78.12-1.14s-.67-.22-1-.24-.72,0-1.08,0a.5.5,0,0,0-.5.5.51.51,0,0,0,.5.5Z" transform="translate(-747.91 -393.62)"/><path class="cls-3" d="M764.49,400.16h.62a.5.5,0,0,0,.5-.5l.07-.64,0-.31,0-.13v-.1q0-.11,0,.06l-.18.18,0,0-.25.07h0l.12,0,.24.06.4.12a.64.64,0,0,0,.7-.26,3.43,3.43,0,0,0,.19-.44l.76-1.87a.5.5,0,1,0-1-.26l-.45,1.09-.22.53-.1.25a.67.67,0,0,0-.06.15c0,.06,0,0,0,0l.22-.13c.11,0,.14,0,.07,0l-.08,0-.18-.05-.3-.07c-.33-.07-.69-.11-.89.23a2.1,2.1,0,0,0-.14.83l-.09.78.5-.5h-.62a.5.5,0,0,0-.5.5.51.51,0,0,0,.5.5Z" transform="translate(-747.91 -393.62)"/><path class="cls-4" d="M766.8,402.1c-.83.3-.85,1.32-.89,2.07a4.44,4.44,0,0,0,.37,2.39,1.23,1.23,0,0,0,1,.74c.5,0,.77-.41,1-.8a4.46,4.46,0,0,0,.61-2.39A3,3,0,0,0,767.5,402a.51.51,0,0,0-.71,0,.49.49,0,0,0,0,.7c.48.39,1.05.82,1.07,1.48a3.58,3.58,0,0,1-.62,2.05l-.06.09s0,0,0,0,.06,0,0-.07-.14-.22-.19-.33a3,3,0,0,1-.18-1,8.24,8.24,0,0,1,.06-1.22,2.13,2.13,0,0,1,.07-.44.42.42,0,0,1,.06-.15c0-.09,0,0,0,0a.52.52,0,0,0,.35-.62.52.52,0,0,0-.62-.35Z" transform="translate(-747.91 -393.62)"/><path class="cls-4" d="M768.77,402.41a5.07,5.07,0,0,0,.72,3.34c.36.52,1,1.23,1.66.85s.76-1.27.83-1.94a10.31,10.31,0,0,0,0-2.42.51.51,0,0,0-.5-.5c-.25,0-.54.23-.5.5a10.76,10.76,0,0,1,0,2.27,4.13,4.13,0,0,1-.19,1,1,1,0,0,1-.1.18c-.09.15-.05,0,0,0h.11l0,0-.14-.15a3.85,3.85,0,0,1-.84-3.13.5.5,0,0,0-.5-.5.51.51,0,0,0-.5.5Z" transform="translate(-747.91 -393.62)"/><path class="cls-4" d="M772.86,401.83a5.71,5.71,0,0,0,0,3.2,2.42,2.42,0,0,0,.76,1.22,1.62,1.62,0,0,0,1.46.33c.61-.19.35-1.16-.27-1a.63.63,0,0,1-.65-.21,2,2,0,0,1-.41-.91,4.72,4.72,0,0,1,.06-2.39.5.5,0,0,0-1-.27Z" transform="translate(-747.91 -393.62)"/><path class="cls-4" d="M775,401.66a23,23,0,0,0,.29,3.41.5.5,0,0,0,1-.27,21.69,21.69,0,0,1-.25-3.14.5.5,0,0,0-1,0Z" transform="translate(-747.91 -393.62)"/><path class="cls-4" d="M775.93,403.69h.85a.5.5,0,0,0,.35-.14.51.51,0,0,0-.35-.86h-.85a.53.53,0,0,0-.36.15.52.52,0,0,0-.14.35.48.48,0,0,0,.5.5Z" transform="translate(-747.91 -393.62)"/><path class="cls-4" d="M776.39,401.7a32.78,32.78,0,0,0,.11,4.43.52.52,0,0,0,.5.5.5.5,0,0,0,.5-.5V406a.51.51,0,0,0-.5-.5.5.5,0,0,0-.5.5v.18h1a32.78,32.78,0,0,1-.11-4.43.5.5,0,0,0-1,0Z" transform="translate(-747.91 -393.62)"/><path class="cls-4" d="M777.91,401.46v2.45a.5.5,0,0,0,1,0v-2.45a.5.5,0,1,0-1,0Z" transform="translate(-747.91 -393.62)"/><path class="cls-4" d="M778.65,406.45a.5.5,0,0,0,0-1,.5.5,0,0,0,0,1Z" transform="translate(-747.91 -393.62)"/></svg>