<svg id="_11._MS_new_routes" data-name="11. MS new routes" xmlns="http://www.w3.org/2000/svg" viewBox="0 0 1357.03 1080"><defs><style>.cls-1,.cls-5{fill:#c1272d;}.cls-2{fill:#fff;}.cls-3{fill:#8cca3e;}.cls-4{fill:gray;}.cls-5{font-size:5px;font-family:Montserrat-Regular, Montserrat;}.cls-6{letter-spacing:0em;}.cls-7{letter-spacing:-0.01em;}.cls-8{fill:#ff6319;}.cls-9{fill:#fccc0a;}.cls-10{fill:#0039a6;}</style></defs><path class="cls-1" d="M685,378.68a3.47,3.47,0,0,1,1,3.58c-.37,1.13-1.82,2.52-3.14,2.27-1.62-.31-1.76-3.21-1.49-4.45.41-1.89,2.58-1.17,4-1,1.15.13,1.14-1.67,0-1.8-2.52-.31-5.19-.63-5.75,2.52-.35,2,0,5.51,2.2,6.33s4.5-.65,5.52-2.43a5.23,5.23,0,0,0-1.06-6.29c-.83-.81-2.1.46-1.27,1.27Z"/><path class="cls-1" d="M681.59,377.84c-1.63-.59-2.55.69-3.07,2.07s-1,2.71-1.66,4c-.45.94-1.4,3.56-2.6,1.49a.9.9,0,0,0-1.56.9c4.4,7.57,6.86-7.32,8.41-6.75,1.09.39,1.56-1.35.48-1.74Z"/><path class="cls-1" d="M681,386a58.19,58.19,0,0,1-4,8.32c-.85,1.46-2.21,3-2.57,4.71a7.54,7.54,0,0,0,.25,3.13c.84,4.05,2.38,6.42-.52,10.46-.68.94.88,1.84,1.55.9,2.89-4,2.38-5.73,1.21-10.15-1.47-5.53,3.76-11.72,5.79-16.89.42-1.08-1.32-1.54-1.74-.48Z"/><path class="cls-1" d="M673.7,399.55l-1,2.93c-.44,1.33-.81,1.53-2.08,1.95a23.31,23.31,0,0,0-4.82,2.27c-1,.61-.08,2.16.91,1.55a21.9,21.9,0,0,1,3.59-1.8,16.32,16.32,0,0,0,2.76-.94,2.54,2.54,0,0,0,1-1.37c.54-1.32.91-2.76,1.36-4.11.36-1.1-1.38-1.58-1.74-.48Z"/><path class="cls-1" d="M679.83,392.55a32.22,32.22,0,0,1,4.81,2.67c.48.34.62.43.72,1a5.65,5.65,0,0,1-.15,1.35l-.35,3c-.13,1.15,1.67,1.14,1.8,0,.15-1.34.35-2.69.46-4,.07-.82.17-1.4-.4-2-1.47-1.56-4.08-2.6-6-3.51-1-.5-2,1.05-.9,1.55Z"/><path class="cls-1" d="M679.31,392.67c-.16,2.28-.59,5.08.19,7.29.58,1.62,2.11,2.13,3.67,2.39,1.13.2,1.62-1.54.47-1.73a3.39,3.39,0,0,1-2.32-1,4.41,4.41,0,0,1-.36-2.13,37.38,37.38,0,0,1,.15-4.85c.09-1.16-1.71-1.15-1.8,0Z"/><path class="cls-2" d="M685.31,402.09a48,48,0,0,0,9.42,1.82.7.7,0,0,1,.44.14.62.62,0,0,1,.14.25l1,2.34a4.29,4.29,0,0,1,.4,1.35,3.58,3.58,0,0,1-.08.93,19.81,19.81,0,0,1-1,3.61L684,411.07a64.51,64.51,0,0,0,.89-8.89"/><path class="cls-2" d="M685.23,402.38a49,49,0,0,0,8.9,1.77c.36,0,.69,0,.93.3a5.07,5.07,0,0,1,.49,1.17,9.57,9.57,0,0,1,.84,2.21,6.51,6.51,0,0,1-.35,2.39,21.52,21.52,0,0,1-.73,2.23l.29-.22L684,410.77l.29.38a69,69,0,0,0,.9-9c0-.38-.58-.38-.6,0a66.56,66.56,0,0,1-.88,8.81.3.3,0,0,0,.29.38l11.6,1.46a.31.31,0,0,0,.29-.22,19.51,19.51,0,0,0,.78-2.46,6.54,6.54,0,0,0,.32-2.36,8.19,8.19,0,0,0-.72-2l-.55-1.29a1.59,1.59,0,0,0-.4-.7,1.23,1.23,0,0,0-.59-.18l-1.43-.15c-.93-.11-1.86-.26-2.77-.42a50,50,0,0,1-5.14-1.24.3.3,0,0,0-.16.58Z"/><path d="M684.75,410l10.48,1.77c1.52.25,2.17-2.06.64-2.32l-10.48-1.76c-1.51-.25-2.16,2.06-.64,2.31Z"/><path class="cls-3" d="M686.25,403.81c0-.1.22-.16.34-.2a.9.9,0,0,1,.51-.1c.28,0,.41.36.46.62a1.89,1.89,0,0,1-.13,1.1.81.81,0,0,1-.25.35.7.7,0,0,1-.45.07,2,2,0,0,1-1.06-.51c-.28-.26-.71.16-.42.43a2.61,2.61,0,0,0,1.34.66,1.36,1.36,0,0,0,.82-.09,1.32,1.32,0,0,0,.5-.52,2.49,2.49,0,0,0,.24-1.59,1.17,1.17,0,0,0-1.7-1c-.26.1-.6.22-.72.49a.3.3,0,1,0,.52.3Z"/><path class="cls-3" d="M687.45,405.78a2.4,2.4,0,0,0-.22,1.37c0,.08.12.12.19.1a.15.15,0,0,0,.1-.18,2,2,0,0,1,.18-1.14.15.15,0,0,0-.05-.2.14.14,0,0,0-.2,0Z"/><path class="cls-3" d="M687.51,405.76l.43.54c.08.1.22,0,.26-.06l.39-1.11-.29,0,.17,1.62a.15.15,0,0,0,.15.15.15.15,0,0,0,.15-.15l-.17-1.62a.15.15,0,0,0-.3,0l-.39,1.11.25-.07-.44-.54a.14.14,0,0,0-.21,0,.15.15,0,0,0,0,.21Z"/><path class="cls-3" d="M688.78,405.08a.62.62,0,0,0,.51.09.15.15,0,0,0,.11-.18.16.16,0,0,0-.19-.11h-.1l-.12,0h0l-.09-.05a.14.14,0,0,0-.11,0,.13.13,0,0,0-.09.07.15.15,0,0,0,0,.11.16.16,0,0,0,.07.09Z"/><path class="cls-3" d="M688.72,404.89a1.08,1.08,0,0,0,0,1,.57.57,0,0,0,.36.3.38.38,0,0,0,.42-.25.17.17,0,0,0-.11-.19.15.15,0,0,0-.18.11s0,0,0,0,0,0,0,0,0,0,0,0,0,0,0,0h-.07a.25.25,0,0,1-.1-.08,1.34,1.34,0,0,0-.06-.12.77.77,0,0,1,0-.63.16.16,0,0,0-.05-.21.15.15,0,0,0-.21.06Z"/><path class="cls-3" d="M688.91,405.77l.46-.1a.16.16,0,0,0,.11-.19.15.15,0,0,0-.19-.1l-.46.1a.16.16,0,0,0-.11.19.15.15,0,0,0,.19.1Z"/><path class="cls-3" d="M689.52,405a2.67,2.67,0,0,0,1.09,0,.16.16,0,0,0,.1-.18.15.15,0,0,0-.18-.11,2.24,2.24,0,0,1-.93,0,.15.15,0,0,0-.18.11.14.14,0,0,0,.1.18Z"/><path class="cls-3" d="M689.92,404.91a2.47,2.47,0,0,0-.16,1,.15.15,0,0,0,.15.15.15.15,0,0,0,.15-.15,2.29,2.29,0,0,1,.15-.89.14.14,0,0,0-.11-.18.15.15,0,0,0-.18.1Z"/><path class="cls-3" d="M690.37,405.25l-.12.38a.11.11,0,0,0,0,.11.2.2,0,0,0,.09.07.16.16,0,0,0,.19-.1l.12-.38a.21.21,0,0,0,0-.11.2.2,0,0,0-.09-.07.15.15,0,0,0-.19.1Z"/><path class="cls-3" d="M690.68,405.33l.09,0h0s0,0,0,0h0s0,0,0,0h0s0,0,0,0,0,0,0,0h0s0,0,0,0h0v0h0s0,0,0,0h0s0,0,0,0h-.15a.14.14,0,0,0-.13.1.14.14,0,0,0,0,.16l.07.09,0,0h0l0,0,.13.18a.14.14,0,0,0,.2.05.15.15,0,0,0,.06-.2,4.24,4.24,0,0,0-.31-.4l-.11.25a.69.69,0,0,0,.32,0,.27.27,0,0,0,.17-.25.25.25,0,0,0-.16-.25.5.5,0,0,0-.34,0,.16.16,0,0,0-.11.19.16.16,0,0,0,.19.1Z"/><path class="cls-3" d="M691.14,405a.52.52,0,0,0-.07.38.31.31,0,0,0,.31.22.48.48,0,0,0,.18-.06.4.4,0,0,0,.14-.15.83.83,0,0,0,.07-.13.28.28,0,0,0,0-.13.17.17,0,0,0,0-.12.41.41,0,0,0-.17-.15.79.79,0,0,0-.22-.06s-.08,0-.11,0a.21.21,0,0,0,0,.11.12.12,0,0,0,0,.1l0,0,.08,0h0l.11,0h0l.11.06,0,0,0,0,0,0,0,0,0,0v0s0,0,0,0v0a.56.56,0,0,1-.09.17l0,0-.06.06,0,0,0,0,0,0-.06,0h0l0,0,0,0,0,0,0,0,0,0,0,0,0,0a.09.09,0,0,1,0-.05v0l0-.11v0l0-.07a.15.15,0,0,0,0-.11.13.13,0,0,0-.07-.09.15.15,0,0,0-.21.05Z"/><path class="cls-3" d="M691.89,404.74a1.12,1.12,0,0,0-.11.62.53.53,0,0,0,.13.27.3.3,0,0,0,.35.05.15.15,0,0,0,0-.2.15.15,0,0,0-.2-.05s0,0,0,0h0s0,0,0,0h0s0,0,0,0v0s0,0,0,0,0,0,0,0a.09.09,0,0,0,0,0h0v-.14s0,0,0,0,0,0,0,0a.07.07,0,0,1,0-.05l0-.1,0-.05s0,0,0,0v0a.15.15,0,0,0-.06-.2.15.15,0,0,0-.2.05Z"/><path class="cls-3" d="M692.54,405.53c.07-.21.14-.42.22-.63l-.28,0a1.22,1.22,0,0,1,.17.29s0,0,0,0l0,0a.24.24,0,0,1,0,.08,1,1,0,0,1,0,.16.15.15,0,0,0,.18.11.17.17,0,0,0,.11-.19,1.61,1.61,0,0,0-.3-.65.18.18,0,0,0-.15-.08.15.15,0,0,0-.12.11c-.08.21-.15.42-.22.63a.16.16,0,0,0,.11.19.16.16,0,0,0,.18-.11Z"/><path class="cls-3" d="M692.57,405.53l.11,0h.14l0,0,0-.05a.13.13,0,0,0,0-.06.15.15,0,0,0,0-.11l0,0-.08,0h-.17l-.05,0a.08.08,0,0,0,0,0s0,0,0,0a.13.13,0,0,0,0,.12l0,0,.06,0Z"/><path class="cls-3" d="M693,404.91a2,2,0,0,0-.06.6.17.17,0,0,0,.15.15c.08,0,.16-.07.15-.15v-.28a.13.13,0,0,0,0-.06v-.05a.31.31,0,0,1,0-.13.17.17,0,0,0-.11-.19.14.14,0,0,0-.18.11Z"/><path class="cls-3" d="M693.17,405.16l.05,0h.08l.08,0h0a.08.08,0,0,1,0-.08s0,0,0,0,0,0,0,0l0,0h0l-.2.06a.15.15,0,0,0-.06.25,2.61,2.61,0,0,1,.23.24l.1.12s0,0,0,0l0,0,0,.07a.15.15,0,0,0,.2.05.14.14,0,0,0,.06-.2,3.5,3.5,0,0,0-.47-.54l-.07.25a1.42,1.42,0,0,0,.29-.1.23.23,0,0,0,.13-.29.36.36,0,0,0-.26-.2.58.58,0,0,0-.32,0,.15.15,0,0,0-.1.18.15.15,0,0,0,.18.11Z"/><path class="cls-3" d="M693.93,405.09a4.06,4.06,0,0,0-.2.78.17.17,0,0,0,0,.12.2.2,0,0,0,.09.07c.07,0,.18,0,.19-.11a3.44,3.44,0,0,1,.2-.78.14.14,0,0,0-.1-.18.16.16,0,0,0-.19.1Z"/><path class="cls-3" d="M694.1,405.36s0,0,0,0h0s0,0,0,0l0,0s0,0,0,0v0s0,0,0,0a.06.06,0,0,0,0,0v.08s0,0,0,0v0s0,0,0,0,0,0,0,0l0,.07,0,0h0l0,0s0,0,0,0l0,0h0l-.06,0,0,0a.34.34,0,0,0-.12.12.15.15,0,0,0,.26.15v0h0l0,0h0a.61.61,0,0,0,.14-.07.71.71,0,0,0,.24-.37.51.51,0,0,0,0-.4.41.41,0,0,0-.34-.2.15.15,0,0,0-.15.15.16.16,0,0,0,.15.15Z"/><path class="cls-3" d="M689.34,407.11a2.54,2.54,0,0,1,1.77-.73,10.84,10.84,0,0,1,2.35-.07l0-.3a19.15,19.15,0,0,0-2.81.78.15.15,0,0,0,0,.29,1.58,1.58,0,0,0,.75,0l.4-.05c.08,0,.36-.09.41,0l0-.1v0c0,.19.33.19.3,0s-.36-.24-.58-.21a2.86,2.86,0,0,1-1.16.07v.29a19.15,19.15,0,0,1,2.81-.78c.17,0,.11-.28,0-.29a11.2,11.2,0,0,0-2.59.1,2.54,2.54,0,0,0-1.79.85c-.11.16.15.31.26.15Z"/><path class="cls-3" d="M691.5,407.25a.25.25,0,0,0-.22,0,.35.35,0,0,0-.18.16.29.29,0,0,0,0,.27.34.34,0,0,0,.09.08l.05,0,0,0h0l0,0v0h0v0l0,0h0l0,0,0,0,0,0-.06,0h0a.19.19,0,0,0-.1.05.14.14,0,0,0,0,.1.16.16,0,0,0,0,.11.12.12,0,0,0,.1,0,.33.33,0,0,0,.17,0,.26.26,0,0,0,.12-.15.21.21,0,0,0-.06-.21l-.09-.06,0,0h0l0,0h0l0,0v0h0v0a.14.14,0,0,0,0-.06v0l0-.07,0,0,0,0,0,0,0,0h0l0,0,0,0a.14.14,0,0,0,.11,0,.13.13,0,0,0,.09-.07.14.14,0,0,0,0-.11.16.16,0,0,0-.07-.09Z"/><path class="cls-3" d="M691.49,407.19a1.14,1.14,0,0,0,.14.72.15.15,0,0,0,.21.06.17.17,0,0,0,0-.21l0-.07h0s0,0,0,0a.58.58,0,0,1-.05-.14.64.64,0,0,1,0-.07h0v-.11h0a.06.06,0,0,1,0,0,.16.16,0,0,0-.11-.19.15.15,0,0,0-.18.11Z"/><path class="cls-3" d="M691.49,407.68a.78.78,0,0,0,.4-.21.15.15,0,0,0,0-.1.14.14,0,0,0-.15-.15.15.15,0,0,0-.11,0l0,.05,0,0-.13.07h0l-.14,0s-.07,0-.09.07a.14.14,0,0,0,0,.11.13.13,0,0,0,.07.09l0,0Z"/><path class="cls-3" d="M691.77,407.29a.35.35,0,0,0,.24.36.19.19,0,0,0,.19,0l0-.06a.5.5,0,0,0,.11-.17.66.66,0,0,0,.06-.2.06.06,0,0,0,0-.06.13.13,0,0,0,0-.06.13.13,0,0,0-.09-.06.16.16,0,0,0-.12,0,.16.16,0,0,0-.07.09.75.75,0,0,1,0,.16v0a.71.71,0,0,1-.08.15l0,0-.06.06,0,0h0l0,0h0l0,0,0,0,0,0,0,0,0,0,0-.05,0,0s0,0,0-.06v0a.14.14,0,0,0-.05-.1.12.12,0,0,0-.1-.05.16.16,0,0,0-.11.05.13.13,0,0,0,0,.1Z"/><path class="cls-3" d="M692.55,406.84a.87.87,0,0,0-.06.32l.15-.15h0l0,0a.17.17,0,0,0-.12,0h0s0,0-.06.05a.37.37,0,0,0-.07.25.15.15,0,0,0,.15.15.15.15,0,0,0,.15-.15v0a.64.64,0,0,1,0-.07v0l0-.06-.2.05a.24.24,0,0,0,.18.05.15.15,0,0,0,.11,0,.12.12,0,0,0,0-.11.45.45,0,0,1,0-.11v0a1.09,1.09,0,0,1,.05-.17.21.21,0,0,0,0-.11.2.2,0,0,0-.09-.07.16.16,0,0,0-.12,0l0,0,0,.06Z"/><path class="cls-3" d="M693.05,407.2a.55.55,0,0,0,.23-.27.21.21,0,0,0,0-.23.19.19,0,0,0-.26,0,.55.55,0,0,0-.2.29.53.53,0,0,0,0,.35.51.51,0,0,0,.29.25.14.14,0,0,0,.18-.1.16.16,0,0,0-.1-.19s0,0,0,0h0l0,0,0,0h0l0,0v0s0,0,0,0v0h0v0h0a.13.13,0,0,1,0-.06s0,0,0,0l0,0v0s0,0,0,0l0,0h0c-.09,0-.14,0-.16-.06v0s0,0,0,0v0s0,0,0,0l0,0h0l-.05.05h0l0,0a.15.15,0,0,0-.06.2.16.16,0,0,0,.21.06Z"/><path class="cls-3" d="M693.23,406.83a.37.37,0,0,0,0,.14.25.25,0,0,0,0,.12.15.15,0,0,0,.29,0,.17.17,0,0,1,0-.07v0a.83.83,0,0,1,0-.15l0,0,0,0,0,0,0,0,0,0h0l0,0,0,0,0,0,.07.07,0,0a.37.37,0,0,1,.07.12v0a2.17,2.17,0,0,1,.07.24.15.15,0,0,0,.18.11.15.15,0,0,0,.11-.19,1.09,1.09,0,0,0-.15-.39.48.48,0,0,0-.22-.18.26.26,0,0,0-.3.12.64.64,0,0,0-.07.31l.29,0v0a.09.09,0,0,1,0-.05v0h0a.13.13,0,0,0,0-.12.15.15,0,0,0-.07-.09.14.14,0,0,0-.11,0,.13.13,0,0,0-.09.07Z"/><path class="cls-3" d="M693.81,406.57a.79.79,0,0,0,0,.43l.07.09a.25.25,0,0,0,.12,0,.13.13,0,0,0,.09-.07.11.11,0,0,0,0-.11l0-.14v0a.38.38,0,0,1,0-.15v0s0,0,0-.07a.14.14,0,0,0,0-.11.2.2,0,0,0-.09-.07.13.13,0,0,0-.12,0,.16.16,0,0,0-.07.09Z"/><path class="cls-3" d="M693.7,406.83l.42.14a.15.15,0,0,0,.19-.1.15.15,0,0,0-.11-.18l-.42-.15a.15.15,0,0,0-.18.11.14.14,0,0,0,.1.18Z"/><path class="cls-3" d="M692.56,408l0,.06a.16.16,0,0,0,.09.07h.1a.15.15,0,0,0,.08-.18s0-.08,0-.12v0a1.62,1.62,0,0,1,0-.22v0a.07.07,0,0,1,0-.05v0s0,0,0,0l0,0,0,0,0,0h0l.15,0,0,0h0l0,0h0l0,0h0l0,0h0v0h0v0h0l0,0h0l0,0,0,0,0,0-.09.05h0a.5.5,0,0,1-.13,0,.2.2,0,0,0-.09.07.24.24,0,0,0,0,.12.15.15,0,0,0,.07.09.14.14,0,0,0,.11,0,.7.7,0,0,0,.28-.12.18.18,0,0,0,0-.26.24.24,0,0,0-.16-.07.45.45,0,0,0-.28,0,.23.23,0,0,0-.15.12.37.37,0,0,0,0,.18.93.93,0,0,0,0,.33l.27-.11,0-.06s-.05-.06-.09-.07a.17.17,0,0,0-.12,0,.16.16,0,0,0-.07.09.22.22,0,0,0,0,.11Z"/><path class="cls-3" d="M693.35,407.52a.29.29,0,0,0-.07.16.5.5,0,0,0,0,.21.22.22,0,0,0,.05.08.17.17,0,0,0,.12,0,.23.23,0,0,0,.15-.07l0-.06a.2.2,0,0,1,.06-.07l0,0h0l0,0h-.06l0,0h0l0,0,.06.07.07.07a.15.15,0,1,0,.21-.21l-.09-.1a.25.25,0,0,0-.18-.1.21.21,0,0,0-.13.05l0,.05,0,0,0,0,0,0h0l0,0h.1l0,0h0l0,0h0v0a.11.11,0,0,1,0-.05v0a.19.19,0,0,1,0-.07l0,0,0-.06a.13.13,0,0,0,0-.12.2.2,0,0,0-.07-.09.14.14,0,0,0-.11,0h0s0,0,0,.06Z"/><path class="cls-3" d="M694,407.46a.34.34,0,0,0,0,.2.31.31,0,0,0,.05.1.86.86,0,0,0,.07.1l0,0,0,0,0,0s0,0,0,0v0h0v0l0,0h0l0,0h0l0,0h0a.14.14,0,0,0-.11,0,.2.2,0,0,0-.07.09.15.15,0,0,0,.1.19.22.22,0,0,0,.19,0,.29.29,0,0,0,.07-.16.33.33,0,0,0,0-.13l-.08-.1,0,0,0-.07,0,0,0-.09v0a.16.16,0,0,0-.05-.11.18.18,0,0,0-.1,0,.21.21,0,0,0-.11,0,.17.17,0,0,0,0,.11Z"/><path class="cls-3" d="M694.59,407.45a.29.29,0,0,0,0,.22l.11.12,0,0,0,.05,0,0v0l0,0,0,0,0,0,0,0,0,0,0,0h0l-.07,0a.14.14,0,0,0-.1.18.15.15,0,0,0,.18.11.53.53,0,0,0,.17-.08.22.22,0,0,0,.1-.21.3.3,0,0,0-.08-.18l-.08-.09,0,0,0,0v.06h0a.17.17,0,0,0,0-.12.1.1,0,0,0-.09-.06.15.15,0,0,0-.18.1Z"/><path class="cls-3" d="M685.78,403.88a.63.63,0,0,1,.1.4.16.16,0,0,0,.11.14.15.15,0,0,0,.17-.07.43.43,0,0,1,.21-.23l-.22-.09a2.48,2.48,0,0,1,0,.9c0,.08.08.15.15.15a.15.15,0,0,0,.15-.15,2.93,2.93,0,0,0,0-1,.15.15,0,0,0-.22-.09.75.75,0,0,0-.32.34l.28.08a1,1,0,0,0-.14-.55.16.16,0,0,0-.21-.05.16.16,0,0,0-.05.2Z"/><path class="cls-3" d="M686.37,404.14l.71.11a.15.15,0,0,0,.18-.1.15.15,0,0,0-.1-.19l-.71-.11a.14.14,0,0,0-.18.1.16.16,0,0,0,.1.19Z"/><path class="cls-3" d="M687.09,404.19l.33,1.25a.15.15,0,0,0,.29-.08l-.33-1.25a.15.15,0,0,0-.29.08Z"/><path class="cls-3" d="M685.51,405.18l.09-.17c0-.06.07-.12.09-.17s0,0,0,0l-.13,0s0,0,0,0v0l.05.08.11.17a.15.15,0,0,0,.27,0v0h0v0h0l0,0h0l0,0-.22-.17a1.12,1.12,0,0,0,.06.7.16.16,0,0,0,.21.06.16.16,0,0,0,0-.21s0,0,0,0v0a.14.14,0,0,1,0-.07.64.64,0,0,1,0-.07h0V405s0,0,0,0,0,0,0,0,0-.05,0-.08a.15.15,0,0,0-.22-.17.51.51,0,0,0-.21.27l.28,0-.14-.22a.44.44,0,0,0-.08-.11.19.19,0,0,0-.19-.05c-.1,0-.13.13-.18.22l-.11.23a.15.15,0,0,0,0,.2.14.14,0,0,0,.2-.05Z"/><path class="cls-3" d="M686.34,404.41a1.19,1.19,0,0,0-.06.62.2.2,0,0,0,.07.09.14.14,0,0,0,.11,0,.11.11,0,0,0,.09-.07.14.14,0,0,0,0-.11v0a1.31,1.31,0,0,1,0-.28v0a.86.86,0,0,1,.06-.23.16.16,0,0,0,0-.12.16.16,0,0,0-.09-.07.14.14,0,0,0-.11,0,.13.13,0,0,0-.07.09Z"/><path class="cls-3" d="M686.79,404.59l-.22,1a.15.15,0,1,0,.29.08l.22-1a.16.16,0,0,0-.11-.19.15.15,0,0,0-.18.11Z"/><path class="cls-3" d="M686.24,404.93a8.52,8.52,0,0,0-.26.86.15.15,0,0,0,.11.18.15.15,0,0,0,.18-.1,6.11,6.11,0,0,1,.26-.86.14.14,0,0,0-.1-.18.15.15,0,0,0-.19.1Z"/><path class="cls-3" d="M687,405.3a.78.78,0,0,0,0,.4.16.16,0,0,0,.07.09.15.15,0,0,0,.11,0s.08,0,.09-.07a.17.17,0,0,0,0-.12v0a.43.43,0,0,1,0-.16v0l0-.12a.13.13,0,0,0,0-.12.2.2,0,0,0-.09-.07.17.17,0,0,0-.12,0,.22.22,0,0,0-.07.09Z"/><path class="cls-3" d="M687.18,405.08a.15.15,0,0,0,0-.3.15.15,0,0,0,0,.3Z"/><path class="cls-3" d="M687.75,405.21a.84.84,0,0,0,.07-.71c-.07-.25-.22-.47-.3-.71a.15.15,0,0,0-.19-.1.14.14,0,0,0-.1.18c.07.22.2.42.28.65a.6.6,0,0,1,0,.54.14.14,0,0,0,0,.2.15.15,0,0,0,.21-.05Z"/><path class="cls-3" d="M685.56,405.3l.07,0,0,0,.08.05,0,0,0,0a.16.16,0,0,0,.11.05l.06,0s0,0,0,0a.14.14,0,0,0,0-.1.16.16,0,0,0,0-.11l-.06-.05,0,0-.13,0h-.06l-.05,0,0,0s0,0,0,.05a.17.17,0,0,0,0,.12.2.2,0,0,0,.09.07Z"/><path class="cls-3" d="M685.58,405.21a.15.15,0,0,0,0-.3.15.15,0,0,0,0,.3Z"/><path class="cls-3" d="M687.75,404.8c-.06-.23-.13-.45-.21-.67a.74.74,0,0,0-.42-.46,1.13,1.13,0,0,0-.32-.06l-.34-.05a.5.5,0,0,0-.49.19c-.08.15.12.32.24.19.28-.32.75-.17,1.09-.06s.26-.23.08-.29a1.27,1.27,0,0,0-1.39.13l.24.19s0,0,.09-.05a1.7,1.7,0,0,1,.22,0,1.89,1.89,0,0,1,.52.09c.13.06.18.23.23.36a5.22,5.22,0,0,1,.18.56c0,.19.33.11.28-.08Z"/><path class="cls-3" d="M685.27,410.34a5.9,5.9,0,0,1-.58.44.16.16,0,0,0,0,.24,5.38,5.38,0,0,0,.55.52.15.15,0,1,0,.21-.21c-.19-.16-.37-.34-.55-.52l0,.23a6.28,6.28,0,0,0,.64-.48.16.16,0,0,0,0-.22.15.15,0,0,0-.21,0Z"/><path class="cls-3" d="M686.51,410.45a.71.71,0,0,0-.32.14c-.11.09-.25.21-.23.36a.34.34,0,0,0,.11.18l.16.13.33.27a.15.15,0,0,0,.21-.22l-.27-.22c-.08-.07-.17-.13-.25-.21h0v0s0,0,0,0,0,0,0,0h0l.05-.05,0,0s0,0,0,0l.11-.07h0l.08,0a.15.15,0,0,0,.1-.19.14.14,0,0,0-.18-.1Z"/><path class="cls-3" d="M687.68,410.6l-.35.23-.17.11a1.18,1.18,0,0,0-.18.13.17.17,0,0,0,0,.17.19.19,0,0,0,.09.11l.15.11.34.25a.15.15,0,0,0,.2,0,.15.15,0,0,0-.05-.21l-.25-.18-.12-.09-.06,0,0,0,0,0s0,0,0,.08l0,.08s0,0,0,0l0,0,.08-.06.17-.1.33-.22a.16.16,0,0,0,0-.21.15.15,0,0,0-.2,0Z"/><path class="cls-3" d="M688.26,411.14l-.09.28a.15.15,0,0,0,0,.11.16.16,0,0,0,.09.07.14.14,0,0,0,.11,0,.13.13,0,0,0,.07-.09l.09-.28a.11.11,0,0,0,0-.11.2.2,0,0,0-.09-.07.17.17,0,0,0-.12,0l-.07.09Z"/><path class="cls-3" d="M688.67,411.22l-.07.2a.14.14,0,0,0,0,.14.14.14,0,0,0,.15,0,.21.21,0,0,0,.1-.06l.06-.08a.53.53,0,0,1,.06-.1l0,0,0,0,0,0h0l0,0h0l0,0h0l0,0,0,0,0,0v0l0,.09a.16.16,0,0,0,0,.12.14.14,0,0,0,.08.07.13.13,0,0,0,.12,0,.16.16,0,0,0,.07-.09.19.19,0,0,0,0-.08.33.33,0,0,0,0-.14l0-.05,0,0,0,0a.26.26,0,0,0-.09-.05.25.25,0,0,0-.12,0l0,0h0a.23.23,0,0,0-.1.12l-.06.09,0,0,0,0,0,0,0,0,0,0h0l.18.19.06-.2a.13.13,0,0,0,0-.12.16.16,0,0,0-.09-.07.25.25,0,0,0-.12,0,.15.15,0,0,0-.06.09Z"/><path class="cls-3" d="M689.58,411.2a.22.22,0,0,0-.32.17.29.29,0,0,0,0,.16.57.57,0,0,1,0,.13v0s0,0,0,.05v0s0,0,0,.05l0,0,0,0,0,0h0a.14.14,0,0,0-.18.11.15.15,0,0,0,.1.18.24.24,0,0,0,.2,0,.43.43,0,0,0,.13-.17c0-.11,0-.22,0-.33v0l0,0,0,0,0,0h0l0,0h0l0,0h0a.15.15,0,0,0,.2-.06.15.15,0,0,0,0-.2Z"/><path class="cls-3" d="M689.94,411.67h0l0,0h0l.06,0a.24.24,0,0,0,.1-.14.27.27,0,0,0,0-.2.22.22,0,0,0-.25-.09.45.45,0,0,0-.25.27.39.39,0,0,0,0,.3.41.41,0,0,0,.14.2.29.29,0,0,0,.24,0,.13.13,0,0,0,.09-.07.14.14,0,0,0,0-.11.22.22,0,0,0-.07-.09.17.17,0,0,0-.12,0h0l0,0h0s0,0,0,0,0,0,0-.06v0a.14.14,0,0,1,0-.09v0a.25.25,0,0,1,0-.07v0l0,0h0l0,0s0,0,0,0h-.06s0,0,0-.05v0s0,0,0,0h0a.47.47,0,0,0-.14.14.14.14,0,0,0,.05.2.16.16,0,0,0,.21-.05Z"/><path class="cls-3" d="M690.2,411.4a1.17,1.17,0,0,0-.09.32.13.13,0,0,0,0,.06.14.14,0,0,0,0,.06.16.16,0,0,0,.09.07.25.25,0,0,0,.12,0,.15.15,0,0,0,.06-.09.08.08,0,0,0,0,0v0a.47.47,0,0,1,.05-.1l0,0,0,0,0,0,0,0h-.05a.25.25,0,0,0,.12,0,.16.16,0,0,0,.07-.09.11.11,0,0,0,0-.11.11.11,0,0,0-.09-.07h-.13l0,0a.16.16,0,0,0-.09.07.48.48,0,0,0-.12.22l.28.08a1.38,1.38,0,0,1,.08-.27l0,0v0a.14.14,0,0,0,0-.06s0,0,0-.06a.2.2,0,0,0-.07-.09.13.13,0,0,0-.12,0,.15.15,0,0,0-.09.07Z"/><path class="cls-3" d="M690.8,411.23a1.07,1.07,0,0,0-.15.68.13.13,0,0,0,0,.1.16.16,0,0,0,.11.05.17.17,0,0,0,.15-.15.86.86,0,0,1,0-.16v-.05h0a.12.12,0,0,1,0-.08,1,1,0,0,1,0-.14s0-.05,0,0l0,0a.25.25,0,0,1,0-.07.17.17,0,0,0-.06-.21.14.14,0,0,0-.2.06Z"/><path class="cls-3" d="M690.64,411.69l.44.12a.14.14,0,0,0,.18-.1.16.16,0,0,0-.1-.19l-.44-.12a.16.16,0,0,0-.19.1.15.15,0,0,0,.11.19Z"/><path class="cls-3" d="M691.53,411.36a1.48,1.48,0,0,0-.15.72.15.15,0,0,0,.15.15.15.15,0,0,0,.15-.15v-.2s0-.06,0,0a.17.17,0,0,1,0-.07.83.83,0,0,1,0-.15l0-.08s0,0,0,0l0,0a.16.16,0,0,0,0-.21.16.16,0,0,0-.21.06Z"/><path class="cls-3" d="M691.38,411.74l.38.1a.17.17,0,0,0,.12,0,.16.16,0,0,0,.07-.09.16.16,0,0,0-.11-.18l-.38-.1a.17.17,0,0,0-.12,0,.2.2,0,0,0-.07.09.17.17,0,0,0,.11.19Z"/><path class="cls-3" d="M691.82,411.32a1.83,1.83,0,0,0-.16.62.15.15,0,0,0,.13.14.16.16,0,0,0,.17-.1s0-.06,0-.06h0v0s0,0,0,0h0s0,0,0,0h0s0,0,0,0h0v0s0,0,0,0,0,0,0,0,0,0,0,0V412s0,0,0,0a.25.25,0,0,0,0,.12.15.15,0,0,0,.27,0,.44.44,0,0,0,.05-.28.25.25,0,0,0-.17-.2.27.27,0,0,0-.27.07.46.46,0,0,0-.11.22l.29,0a.15.15,0,0,1,0-.07v0h0v0l0-.13c0-.05,0-.09,0-.13a.14.14,0,0,0,0-.06s0,0,0,0v0a.15.15,0,0,0-.05-.21.16.16,0,0,0-.21.06Z"/><path class="cls-3" d="M692.23,411.79l-.05.15V412a.08.08,0,0,0,0,.05.1.1,0,0,0,0,.05l0,0a.14.14,0,0,0,.11,0l0,0a.13.13,0,0,0,0-.07l0-.15a.06.06,0,0,0,0-.06.09.09,0,0,0,0-.05l0,0s0,0-.05,0a.17.17,0,0,0-.12,0l0,0,0,.06Z"/><path class="cls-3" d="M692.86,411.68h-.07l-.07,0,0,0s0,0,0,0l0,0a.08.08,0,0,0,0,.05.06.06,0,0,0,0,.06.07.07,0,0,0,0,.05l0,0,.05,0a.17.17,0,0,0,.12,0l0,0s0,0,0-.06h0l0,0,0,0,0,0,0,0,0,0h0l.05,0,0-.05a.13.13,0,0,0,0-.06.12.12,0,0,0,0-.1.16.16,0,0,0-.11-.05Z"/><path class="cls-3" d="M693.28,411.82a.59.59,0,0,0,0,.47.15.15,0,0,0,.21.06l.23-.18-.22-.16a.72.72,0,0,0,0,.33.12.12,0,0,0,.07.12.14.14,0,0,0,.15,0,.6.6,0,0,0,.32-.29.14.14,0,0,0,0-.2.15.15,0,0,0-.2,0l0,0v0h0l-.06.06,0,0h0s0,0,0,0h0l-.08,0,.23.13a.85.85,0,0,1,0-.16v0a.31.31,0,0,1,0-.13.15.15,0,0,0-.05-.16l-.07,0a.11.11,0,0,0-.1,0l-.23.17.2.05s0,0,0,0l0,0a.2.2,0,0,1,0-.11v0a.29.29,0,0,1,0-.09.15.15,0,0,0-.11-.18.15.15,0,0,0-.18.1Z"/><path class="cls-3" d="M694.24,412a.34.34,0,0,0-.08.09.37.37,0,0,0,0,.11s0,.08,0,.12a.22.22,0,0,1,0,.08l0,.07a.14.14,0,0,0,.11.07.13.13,0,0,0,.13,0,.47.47,0,0,0,.16-.25l-.25.07,0,0,0,0a.05.05,0,0,1,0,0v0s0,0,0,.05v0a.15.15,0,0,0,0,.11.21.21,0,0,0,.11,0,.14.14,0,0,0,.1,0,.16.16,0,0,0,.05-.11.36.36,0,0,0-.11-.24.18.18,0,0,0-.14,0,.17.17,0,0,0-.11.11v0l0,0-.06.1,0,0-.05.06.23,0h0v0s0,0,0-.06v0a.14.14,0,0,1,0-.07l0,0,0-.05,0,0s0,0,0,0a.13.13,0,0,0,0-.1.15.15,0,0,0,0-.11.12.12,0,0,0-.11,0h0l-.06,0Z"/><path class="cls-3" d="M694.86,412.24l.22-.05-.18-.19a3.58,3.58,0,0,1-.11.35l0,0h0v0l0,.08-.09.16a.16.16,0,0,0,.05.21.15.15,0,0,0,.21-.06,2.51,2.51,0,0,0,.28-.72.15.15,0,0,0-.18-.18l-.22.05a.15.15,0,0,0-.1.19.14.14,0,0,0,.18.1Z"/><path class="cls-4" d="M845,484.24c3.86,0,3.86-6,0-6s-3.87,6,0,6Z"/><path class="cls-4" d="M854.25,475.56c3.86,0,3.86-6,0-6s-3.87,6,0,6Z"/><path class="cls-4" d="M847.27,481a2.61,2.61,0,0,1,.17-.28c.1-.18-.21.2,0-.06s.28-.27.44-.4-.16.11.06,0l.28-.2.51-.34c.88-.61,1.72-1.27,2.53-2,1.48-1.28,2.85-2.68,4.21-4.08a1.5,1.5,0,1,0-2.12-2.12c-1.4,1.44-2.8,2.88-4.33,4.18l-.52.44-.3.23h0l-.12.09c-.39.3-.8.59-1.21.86a6.53,6.53,0,0,0-2.24,2.16,1.5,1.5,0,1,0,2.59,1.52Z"/><text class="cls-5" transform="translate(840.49 492.88)"><tspan class="cls-6">h</tspan><tspan x="3.39" y="0">o</tspan><tspan class="cls-6" x="6.53" y="0">m</tspan><tspan x="11.84" y="0">e</tspan></text><text class="cls-5" transform="translate(595.81 513.88)">s<tspan class="cls-7" x="2.45" y="0">c</tspan><tspan class="cls-6" x="5.22" y="0">h</tspan><tspan x="8.62" y="0">ool</tspan></text><path class="cls-1" d="M845.23,485c3.86,0,3.87-6,0-6s-3.87,6,0,6Z"/><path class="cls-8" d="M827,450.93c4.94,1.76,9.58,4.88,13.81,7.94a21.78,21.78,0,0,1,8.52,12.05,1,1,0,0,0,1.93-.53,23.59,23.59,0,0,0-8.79-12.76c-2.27-1.73-4.72-3.25-7.15-4.75a41.32,41.32,0,0,0-7.79-3.88c-1.22-.43-1.74,1.5-.53,1.93Z"/><path class="cls-9" d="M829,448.93c4.94,1.76,9.58,4.88,13.81,7.94a21.78,21.78,0,0,1,8.52,12.05,1,1,0,0,0,1.93-.53,23.59,23.59,0,0,0-8.79-12.76c-2.27-1.73-4.72-3.25-7.15-4.75a41.32,41.32,0,0,0-7.79-3.88c-1.22-.43-1.74,1.5-.53,1.93Z"/><path class="cls-10" d="M613,531.55c8.7-5.22,7.71-16.49,8.14-25.18a43.2,43.2,0,0,1,3.9-15.16c1-2.34,2.09-4.65,3.1-7a31.25,31.25,0,0,0,2.49-7c.39-2.42-.64-4.36-1.95-6.3a10.29,10.29,0,0,1-2.2-6.6c.28-5.26,3.68-10.15,6.16-14.62q8.18-14.7,16.93-29.09c1.45-2.38,2.9-4.76,4.39-7.12,1.22-1.93,2.7-4,5.2-4.07,2.65-.09,5.1,1.6,7.25,2.95l7.36,4.61L703,435.34c8.31,5.22,17.07,11,27.19,11.42A23.57,23.57,0,0,0,743,443.9a39.05,39.05,0,0,0,5.24-4.18c2.15-1.79,4.92-2.14,7.57-2.73,5.46-1.21,10.9-2.47,16.37-3.62a42.49,42.49,0,0,1,8.25-1.09,21.25,21.25,0,0,1,7.72,1.46,13.79,13.79,0,0,0,7.29.87,16.39,16.39,0,0,1,4-.39,12.9,12.9,0,0,1,4.19,1.24c5,2.33,9.86,5.4,14.65,8.2q3.57,2.1,7.11,4.23a1,1,0,0,0,1-1.72q-7.39-4.47-14.92-8.72c-4.4-2.48-9.12-5.84-14.42-5.12a34.67,34.67,0,0,1-3.93.53,11.79,11.79,0,0,1-4-.9,24.28,24.28,0,0,0-7.75-1.67c-5.42-.15-10.8,1.39-16,2.55l-8.36,1.85a40.43,40.43,0,0,0-7.46,1.91c-2.26,1-3.78,2.9-5.69,4.37a18,18,0,0,1-6.15,3c-10,2.76-19.8-1.9-28.18-7-9.81-5.95-19.47-12.19-29.2-18.29-4.84-3-9.62-6.24-14.57-9.12-2.07-1.21-4.45-2.33-6.91-2.13a7.34,7.34,0,0,0-5.1,3,61.2,61.2,0,0,0-4.17,6.49q-2.22,3.62-4.4,7.24-4.36,7.27-8.58,14.62c-2.84,5-5.66,9.93-8.37,14.95-2.22,4.1-4.47,8.91-3.4,13.69.51,2.3,2,4,3.16,6,1.49,2.58.42,5.06-.59,7.61-1.87,4.73-4.24,9.25-6,14.05-1.85,5.21-2.25,10.41-2.34,15.9-.08,4.85-.27,9.88-2.68,14.22a12,12,0,0,1-4.34,4.62,1,1,0,0,0,1,1.73Z"/><path class="cls-4" d="M611.13,530.38l-2.89-2.59a14.87,14.87,0,0,1-2.42-2.31c-.05-.08-.1-.18-.16-.26-.21-.33,0,.13,0-.07a5.5,5.5,0,0,1-.16-.58c.07.29,0,0,0-.07s0-.22,0-.33,0-.18,0-.27c0,.3,0,0,0-.07a3,3,0,0,1,.09-.32s.13-.38.06-.2.1-.19.09-.19.09-.16.14-.23.23-.32.12-.18.15-.15.14-.15l.2-.18c-.22.2.09,0,.13-.08a1.5,1.5,0,0,0-1.51-2.59,5.41,5.41,0,0,0-2.15,6.42,9.2,9.2,0,0,0,2.71,3.24l3.5,3.13a1.54,1.54,0,0,0,2.12,0,1.51,1.51,0,0,0,0-2.12Z"/><path class="cls-4" d="M606.41,523c3.86,0,3.86-6,0-6s-3.87,6,0,6Z"/><path class="cls-4" d="M610.17,534.87c3.86,0,3.87-6,0-6s-3.87,6,0,6Z"/><path class="cls-1" d="M606.68,523.57c3.86,0,3.86-6,0-6s-3.87,6,0,6Z"/><path class="cls-10" d="M638.7,444.59a18.1,18.1,0,0,1,3.75.1,1,1,0,0,0,.7-.29,1,1,0,0,0,.3-.71,1,1,0,0,0-.3-.71,1.19,1.19,0,0,0-.7-.29,18.1,18.1,0,0,0-3.75-.1,1,1,0,0,0-1,1,1,1,0,0,0,1,1Z"/><path class="cls-10" d="M637.94,443.57l-.2,3.72a11,11,0,0,0,.07,3.43,3.34,3.34,0,0,0,4.83,2,1,1,0,0,0-1-1.73,1.31,1.31,0,0,1-1.3,0,1,1,0,0,1-.47-.47,2.32,2.32,0,0,1-.21-1c0-.92.07-1.86.12-2.78l.17-3.15a1,1,0,1,0-2,0Z"/><path class="cls-10" d="M639.68,448.11h2.56a1,1,0,0,0,0-2h-2.56a1,1,0,0,0,0,2Z"/><path class="cls-9" d="M844.13,448.3a24,24,0,0,0,.63,5.67,1,1,0,0,0,1.23.7,1,1,0,0,0,.7-1.23c-.1-.44-.2-.89-.27-1.34,0-.2-.07-.41-.1-.62s0,.06,0-.15,0-.24,0-.36a21.7,21.7,0,0,1-.13-2.67,1,1,0,0,0-2,0Z"/><path class="cls-9" d="M846.38,449c.11-.12.22-.24.34-.35s.23-.18,0-.05l.2-.13.22-.12c-.12.07-.09,0,0,0a1.55,1.55,0,0,1,.23-.06c.11,0-.2,0,0,0,0,0,.2,0,.22,0s-.15,0-.08,0l.11,0,.11,0c.07,0,0,0-.07,0a1.14,1.14,0,0,1,.19.1l-.08-.07.1.1c.14.11,0-.09,0,0l.06.09c-.05-.12-.06-.15,0-.08a.19.19,0,0,1,0,.1c0,.09,0,.09,0,0s0-.08,0,0v.21l0-.12s0,.17,0,.21a.42.42,0,0,1,0,.1c0,.07,0,.05,0-.07,0,.05-.08.15-.11.19l0,.07q-.09.12,0,0s-.1.1-.13.13l-.09.08,0,0a3.84,3.84,0,0,1-.39.22c.21-.1,0,0-.06,0l-.24.07-.24.06h-.06l-.5,0a1,1,0,0,0-.26,2,11.87,11.87,0,0,1,2.28.64h0l.16.07.24.11.52.27a11,11,0,0,1,1,.65,1,1,0,0,0,1.37-.36,1,1,0,0,0-.36-1.37,11.38,11.38,0,0,0-4.67-1.93l-.27,2a4.52,4.52,0,0,0,2.86-1,2.81,2.81,0,0,0,.88-2.69,2.42,2.42,0,0,0-2.34-1.75,3.41,3.41,0,0,0-2.6,1.3,1,1,0,1,0,1.41,1.41Z"/><path class="cls-8" d="M829.22,458.14a18.65,18.65,0,0,0,.3,5,1,1,0,1,0,1.92-.53c0-.2-.07-.39-.1-.59s0-.21-.05-.32c0,.18,0,0,0-.09q-.06-.57-.09-1.14a16.46,16.46,0,0,1,0-2.33,1,1,0,0,0-1-1,1,1,0,0,0-1,1Z"/><path class="cls-8" d="M829.88,458.65l2.25,2.2a1,1,0,0,0,1,.25,1,1,0,0,0,.7-.7c0-.11.08-.22.13-.33s0-.11,0,0c0-.06.05-.11.07-.16.09-.21.19-.41.29-.6a9.84,9.84,0,0,1,.71-1.17h-1.73l.27.51a2.72,2.72,0,0,0,.11.25s.12.27.08.16,0-.05,0,.05a.87.87,0,0,1,.07.17l.1.25c.06.16.12.33.17.5a13.51,13.51,0,0,1,.5,2.18,1,1,0,0,0,1.23.7,1,1,0,0,0,.69-1.23,13.55,13.55,0,0,0-1.5-4.55,1,1,0,0,0-.86-.5,1,1,0,0,0-.87.5,12.64,12.64,0,0,0-1.4,2.74l1.67-.44-2.25-2.2a1,1,0,0,0-1.41,1.42Z"/></svg>