<svg xmlns="http://www.w3.org/2000/svg" viewBox="0 0 1357.03 1080"><defs><style>.cls-1{fill:#c1272d;}.cls-2,.cls-5{fill:none;stroke-miterlimit:10;}.cls-2{stroke:#fff;stroke-width:0.2px;}.cls-3{fill:#8cc63f;}.cls-4{fill:#f7931e;}.cls-5{stroke:#f7931e;stroke-width:0.5px;stroke-dasharray:0.5;}</style></defs><g id="queens_detail" data-name="queens detail"><path class="cls-1" d="M820.7,442.85c-.29,1.76.4,3.34.81,5a7.07,7.07,0,0,1-.8,5.16c-1.64,3.05-4.48,5.3-5.69,8.61a.5.5,0,0,0,.23.56,58.65,58.65,0,0,0,12.4,4.33c2.16.48,4.34.8,6.53,1.12a3.24,3.24,0,0,1,2.61,1.34c.45.87-.14,1.6-.87,2a13.22,13.22,0,0,1-3.07,1.1L829,473.29a.52.52,0,0,0-.3.74,1.71,1.71,0,0,0,1.49.82,3.69,3.69,0,0,1,2,.57,6.73,6.73,0,0,1,2.11,4,20.48,20.48,0,0,1,.36,6.1A3.47,3.47,0,0,0,835,488a1.78,1.78,0,0,0,1.78.72l-.61-.34a7.84,7.84,0,0,1,.07,3.34.5.5,0,0,0,.35.61c9.37,1.52,17.73-3.71,25.86-7.49a29.5,29.5,0,0,1,3.23-1.37,23.59,23.59,0,0,1,3.43-.76,31.73,31.73,0,0,0,6.37-2c1.54-.65,3.16-1.63,3.43-3.42a5.22,5.22,0,0,0-.52-2.8c-.42-1-.88-2-1.25-3-2.89-8.11-2.25-17-4.75-25.18a30.55,30.55,0,0,0-1-2.91,5.32,5.32,0,0,0-1.54-2.27c-1.43-1.1-3.36-.93-5-.63-2.27.42-4.52.95-6.79,1.37s-4.81.85-7.22,1.21q-7.24,1.08-14.54,1.62c-2.37.18-4.76.34-7.14.41a12.22,12.22,0,0,1-5.2-.68,4.8,4.8,0,0,1-2-1.58c-.37-.52-1.23,0-.86.5,2.08,2.93,6,2.86,9.24,2.72q7.08-.33,14.11-1.14t13.76-2.07c2.25-.42,4.49-.92,6.73-1.36,1.76-.34,4-.53,5,1.21a14,14,0,0,1,1.2,2.85c.33,1,.62,2,.86,3a59.93,59.93,0,0,1,1.13,6.12c.56,4.09.9,8.22,1.75,12.27a35.63,35.63,0,0,0,1.75,5.92c.69,1.72,2.25,4,.63,5.67a6.51,6.51,0,0,1-2.25,1.34c-1,.41-2,.78-3,1.12a24,24,0,0,1-3.23.85,22.12,22.12,0,0,0-3.32.74,51.15,51.15,0,0,0-6.1,2.73c-2,1-4.05,2-6.11,2.95-4.07,1.84-8.43,3.35-13,3.42a19.45,19.45,0,0,1-3.4-.24l.35.61a8.87,8.87,0,0,0-.07-3.87.51.51,0,0,0-.61-.35c-1.1.18-1-1.55-.94-2.19a22.34,22.34,0,0,0,.08-2.59,18,18,0,0,0-.84-5.1,6.7,6.7,0,0,0-2-3.18,3.63,3.63,0,0,0-1.62-.74c-.48-.08-1.44.08-1.69-.43l-.3.74,3.77-1.14a20.64,20.64,0,0,0,3-1c1.59-.78,2.59-2.53,1.28-4.08a4.31,4.31,0,0,0-2.68-1.29c-1.22-.21-2.46-.34-3.68-.55a59.66,59.66,0,0,1-7.36-1.75,56.81,56.81,0,0,1-7.85-3.08l.23.57c1.22-3.35,4.22-5.6,5.78-8.75a8,8,0,0,0,.87-4.72c-.27-1.77-1.27-3.5-1-5.33.1-.63-.86-.9-1-.26Z"/><line class="cls-2" x1="855.28" y1="472.81" x2="849.41" y2="479.33"/><polyline class="cls-2" points="856.44 473.7 850.18 480.02 845.19 475.11"/><line class="cls-2" x1="857.85" y1="475.11" x2="853.63" y2="479.33"/><line class="cls-2" x1="859.25" y1="476.51" x2="855.03" y2="480.73"/><line class="cls-2" x1="860.74" y1="477.22" x2="848" y2="489.18"/><line class="cls-2" x1="861.56" y1="478.62" x2="857.85" y2="482.14"/><polyline class="cls-2" points="862.07 479.33 860.66 482.14 859.25 483.55"/><line class="cls-2" x1="852.22" y1="472.29" x2="861.7" y2="482.14"/><line class="cls-2" x1="848" y1="473.7" x2="859.25" y2="483.55"/><line class="cls-2" x1="848" y1="477.92" x2="853.63" y2="472.29"/><line class="cls-2" x1="848.84" y1="474.44" x2="846.59" y2="476.51"/><polyline class="cls-2" points="848.34 481.44 855.03 484.95 852.62 487.37 852.22 487.77 843.78 479.33"/><polyline class="cls-2" points="848 482.14 849.08 483.37 852.62 487.37"/><line class="cls-2" x1="850.31" y1="482.29" x2="848" y2="483.55"/><line class="cls-2" x1="851.85" y1="483.2" x2="849.41" y2="484.95"/><line class="cls-2" x1="849.37" y1="487.77" x2="842.59" y2="480.38"/><line class="cls-2" x1="841.52" y1="480.73" x2="843.77" y2="484.08"/><path class="cls-2" d="M853.63,470.89a17.86,17.86,0,0,1-2.82,1.4c-2.18.85-2.82.58-4.22,1.41a8.81,8.81,0,0,0-2.81,2.81c-.74,1.13-.5,1.3-1.41,2.82-1,1.75-1.59,1.89-1.68,2.81-.12,1.35.88,2.8,1.68,2.81.33,0,.47-.22,1.4-.87a16.37,16.37,0,0,1,1.4-.88"/><path class="cls-1" d="M842.07,441.9l-2.13.34a.86.86,0,0,0,.39.5,1.1,1.1,0,0,0,1.39-.32l.31.26a1.21,1.21,0,0,1-.39.39,1.73,1.73,0,0,1-.58.2,1.6,1.6,0,0,1-.76-.06,1.19,1.19,0,0,1-.57-.39,1.51,1.51,0,0,1-.29-.67,1.41,1.41,0,0,1,.07-.71,1.21,1.21,0,0,1,.39-.55,1.32,1.32,0,0,1,.65-.28,1.23,1.23,0,0,1,.69.07,1.13,1.13,0,0,1,.54.4,1.48,1.48,0,0,1,.27.68S842.06,441.84,842.07,441.9Zm-2-.59a.85.85,0,0,0-.18.59l1.68-.27a.84.84,0,0,0-.36-.5.89.89,0,0,0-1.14.18Z"/><path class="cls-1" d="M842.34,439.28l.47-.07.58,3.66-.47.08Z"/><path class="cls-1" d="M848,439.74a1.15,1.15,0,0,1,.42.8l.24,1.51-.48.07-.22-1.45a.82.82,0,0,0-.27-.55.66.66,0,0,0-.53-.11.78.78,0,0,0-.54.31.94.94,0,0,0-.11.68l.21,1.35-.47.08L846,441a.82.82,0,0,0-.27-.54.66.66,0,0,0-.53-.12.75.75,0,0,0-.53.32.93.93,0,0,0-.12.68l.22,1.35-.48.07-.41-2.62.45-.07.07.39a1,1,0,0,1,.32-.37,1.63,1.63,0,0,1,.51-.19,1.19,1.19,0,0,1,.57,0,.91.91,0,0,1,.42.3,1,1,0,0,1,.36-.42,1.45,1.45,0,0,1,.57-.22A1.09,1.09,0,0,1,848,439.74Z"/><path class="cls-1" d="M851.33,439.21a1.14,1.14,0,0,1,.43.8l.24,1.51-.48.07-.22-1.45a.8.8,0,0,0-.28-.54.7.7,0,0,0-.55-.12.82.82,0,0,0-.57.33.87.87,0,0,0-.13.67l.22,1.35-.48.08-.57-3.67.47-.07.22,1.42a1.09,1.09,0,0,1,.35-.36,1.33,1.33,0,0,1,.52-.18A1,1,0,0,1,851.33,439.21Z"/><path class="cls-1" d="M854.9,438.38l.42,2.61-.45.07-.06-.39a1.06,1.06,0,0,1-.33.37,1.09,1.09,0,0,1-.5.19,1.14,1.14,0,0,1-.87-.15,1.17,1.17,0,0,1-.43-.81l-.24-1.51.47-.07.23,1.45a.79.79,0,0,0,.28.55.66.66,0,0,0,.55.11.78.78,0,0,0,.56-.32.88.88,0,0,0,.11-.68l-.21-1.35Z"/><path class="cls-1" d="M856.64,438.2a1.21,1.21,0,0,1,.57-.21l.07.46h-.11a.81.81,0,0,0-.56.32.87.87,0,0,0-.12.69l.2,1.31-.47.07-.41-2.62.45-.07.07.44A.81.81,0,0,1,856.64,438.2Z"/><path class="cls-1" d="M858.36,440.46a1.41,1.41,0,0,1-.5-.15l.14-.41a1.33,1.33,0,0,0,.45.14,1.74,1.74,0,0,0,.51,0c.41-.06.6-.22.56-.45a.25.25,0,0,0-.11-.18.69.69,0,0,0-.23-.07h-.37a3.89,3.89,0,0,1-.53,0,.77.77,0,0,1-.38-.17.6.6,0,0,1-.21-.4.66.66,0,0,1,.21-.62,1.34,1.34,0,0,1,.76-.34,2.33,2.33,0,0,1,.53,0,1.41,1.41,0,0,1,.46.11l-.14.4a1.39,1.39,0,0,0-.79-.08.85.85,0,0,0-.45.17.29.29,0,0,0-.11.28.23.23,0,0,0,.12.19.57.57,0,0,0,.24.08l.38,0a3.89,3.89,0,0,1,.53,0,.83.83,0,0,1,.36.16.6.6,0,0,1,.21.39.7.7,0,0,1-.22.62,1.48,1.48,0,0,1-.79.34A2.67,2.67,0,0,1,858.36,440.46Z"/><path class="cls-1" d="M862.15,439.76a.84.84,0,0,1-.23.18,1.11,1.11,0,0,1-.31.09.87.87,0,0,1-.65-.11.84.84,0,0,1-.31-.58l-.23-1.43L860,438l-.06-.39.44-.07-.09-.58.48-.07.09.57.75-.12.06.39-.75.12.22,1.42a.49.49,0,0,0,.16.31.38.38,0,0,0,.32.06.54.54,0,0,0,.35-.18Z"/></g><g id="middle_village" data-name="middle village"><path class="cls-3" d="M840.65,492.5c4.27-1.14,8.61-2.14,12.76-3.68a32,32,0,0,0,5.44-2.53,23.4,23.4,0,0,0,2.47-1.69c.38-.29,1.6-1.55,2.18-1.15.27.19.11,1.06.11,1.36,0,.57,0,1.13.11,1.7a22.73,22.73,0,0,0,.58,3.26,44.25,44.25,0,0,0,2.26,6.5c1.69,4.1,3.38,8.26,6.17,11.75,1.47,1.85,3.12,3.56,4.65,5.36s3.06,3.67,4.5,5.58a12.64,12.64,0,0,1,1.69,2.74c.16.4.5,1.1.21,1.5a5.76,5.76,0,0,1-1.4,1,62.52,62.52,0,0,1-11.87,6.39,26.89,26.89,0,0,0-10.9,6.25,10,10,0,0,1-6.23,1.57,63,63,0,0,0-6.59.09,37.38,37.38,0,0,1-6.43.28,10.7,10.7,0,0,1-3.21-.73,10.94,10.94,0,0,0-2.77-1.09,3.87,3.87,0,0,0-3.63,2.25,12.46,12.46,0,0,0-1,2.27l1,.27a121.72,121.72,0,0,1,5.73-19.73c2.31-6,5.13-12.09,5.45-18.65.19-3.86-.84-7.6-1.1-11.43,0-.64-1-.65-1,0,.23,3.37,1.1,6.68,1.13,10.07a31.2,31.2,0,0,1-1.62,9.53c-1,3.11-2.23,6.12-3.41,9.14-1.25,3.18-2.38,6.4-3.36,9.66q-1.65,5.5-2.79,11.14a.5.5,0,0,0,1,.27c.49-1.42,1.35-3.61,3.08-3.81,1-.11,2,.62,2.91,1a11.43,11.43,0,0,0,2.92.76,30.93,30.93,0,0,0,6.73-.16,57.64,57.64,0,0,1,6.7-.14,11.75,11.75,0,0,0,6.21-1.15c1.84-1,3.24-2.69,5-3.79a39.79,39.79,0,0,1,6.17-2.79,65.29,65.29,0,0,0,6.25-2.87,63.63,63.63,0,0,0,5.88-3.54c.7-.48,1.83-1,2.18-1.82s-.17-2-.55-2.73a31.25,31.25,0,0,0-4-5.47c-1.53-1.9-3.13-3.74-4.75-5.56a33.86,33.86,0,0,1-4.33-5.79,62,62,0,0,1-2.93-6.23c-1.84-4.31-3.71-8.8-3.61-13.57,0-.75-.17-1.52-1-1.69a2.84,2.84,0,0,0-2.05.7,31.6,31.6,0,0,1-5.19,3.37,69.21,69.21,0,0,1-12.42,4.09l-3.56,1a.5.5,0,0,0,.27,1Z"/><path class="cls-3" d="M871,487.91a1.19,1.19,0,0,1,.3.88v1.53h-.63v-1.45a.82.82,0,0,0-.15-.53.54.54,0,0,0-.44-.17.66.66,0,0,0-.51.2.84.84,0,0,0-.19.59v1.36h-.63v-1.45a.82.82,0,0,0-.15-.53.54.54,0,0,0-.44-.17.63.63,0,0,0-.51.2.82.82,0,0,0-.19.59v1.36h-.63v-2.67h.6V488a1.13,1.13,0,0,1,.37-.28,1.39,1.39,0,0,1,.5-.09,1.33,1.33,0,0,1,.54.11,1,1,0,0,1,.37.33,1,1,0,0,1,.42-.32,1.37,1.37,0,0,1,.58-.12A1.08,1.08,0,0,1,871,487.91Z"/><path class="cls-3" d="M872.13,487.1a.34.34,0,0,1-.12-.27.34.34,0,0,1,.12-.26.44.44,0,0,1,.57,0,.33.33,0,0,1,.11.26.37.37,0,0,1-.11.28.4.4,0,0,1-.29.11A.41.41,0,0,1,872.13,487.1Zm0,.55h.62v2.67h-.62Z"/><path class="cls-3" d="M876.16,486.61v3.71h-.6V490a.9.9,0,0,1-.38.29,1.36,1.36,0,0,1-.51.09,1.46,1.46,0,0,1-.69-.16,1.33,1.33,0,0,1-.48-.49,1.42,1.42,0,0,1-.17-.72,1.38,1.38,0,0,1,.17-.71,1.23,1.23,0,0,1,.48-.48,1.47,1.47,0,0,1,.69-.17,1.3,1.3,0,0,1,.49.09,1,1,0,0,1,.38.27v-1.37Zm-1,3.11a.76.76,0,0,0,.29-.3.87.87,0,0,0,.1-.44.92.92,0,0,0-.1-.44.81.81,0,0,0-.29-.29.74.74,0,0,0-.4-.1.8.8,0,0,0-.41.1.78.78,0,0,0-.28.29.92.92,0,0,0-.1.44.87.87,0,0,0,.1.44.74.74,0,0,0,.28.3.8.8,0,0,0,.41.1A.74.74,0,0,0,875.15,489.72Z"/><path class="cls-3" d="M879.59,486.61v3.71H879V490a.9.9,0,0,1-.38.29,1.35,1.35,0,0,1-.5.09,1.41,1.41,0,0,1-.69-.16,1.28,1.28,0,0,1-.49-.49,1.53,1.53,0,0,1-.17-.72,1.49,1.49,0,0,1,.17-.71,1.19,1.19,0,0,1,.49-.48,1.41,1.41,0,0,1,.69-.17,1.21,1.21,0,0,1,.48.09.94.94,0,0,1,.38.27v-1.37Zm-1,3.11a.74.74,0,0,0,.28-.3A.87.87,0,0,0,879,489a.93.93,0,0,0-.11-.44.78.78,0,0,0-.28-.29.8.8,0,0,0-.41-.1.77.77,0,0,0-.4.1.81.81,0,0,0-.29.29.92.92,0,0,0-.1.44.87.87,0,0,0,.1.44.75.75,0,0,0,.69.4A.8.8,0,0,0,878.59,489.72Z"/><path class="cls-3" d="M880.41,486.61H881v3.71h-.63Z"/><path class="cls-3" d="M884.36,489.19h-2.1a.75.75,0,0,0,.29.46.93.93,0,0,0,.58.17.94.94,0,0,0,.72-.29l.34.39a1.09,1.09,0,0,1-.46.32,1.52,1.52,0,0,1-.62.11,1.59,1.59,0,0,1-.77-.17,1.29,1.29,0,0,1-.52-.49,1.47,1.47,0,0,1,0-1.41,1.22,1.22,0,0,1,.49-.49,1.52,1.52,0,0,1,.71-.17,1.48,1.48,0,0,1,.7.17,1.33,1.33,0,0,1,.48.49,1.53,1.53,0,0,1,.17.72A1.58,1.58,0,0,1,884.36,489.19Zm-1.85-.89a.73.73,0,0,0-.25.47h1.51a.7.7,0,0,0-.24-.47.81.81,0,0,0-1,0Z"/><path class="cls-3" d="M870,493.65l-1.14,2.67h-.65L867,493.65h.65l.83,2,.85-2Z"/><path class="cls-3" d="M870.39,493.1a.33.33,0,0,1-.11-.27.33.33,0,0,1,.11-.26.44.44,0,0,1,.57,0,.34.34,0,0,1,.12.26.38.38,0,0,1-.12.28.4.4,0,0,1-.29.11A.41.41,0,0,1,870.39,493.1Zm0,.55H871v2.67h-.63Z"/><path class="cls-3" d="M871.81,492.61h.62v3.71h-.62Z"/><path class="cls-3" d="M873.25,492.61h.63v3.71h-.63Z"/><path class="cls-3" d="M876.62,493.9a1.08,1.08,0,0,1,.31.85v1.57h-.59V496a.68.68,0,0,1-.33.27,1.29,1.29,0,0,1-.51.09,1.21,1.21,0,0,1-.52-.1.82.82,0,0,1-.35-.28.73.73,0,0,1-.12-.41.71.71,0,0,1,.26-.58,1.31,1.31,0,0,1,.85-.22h.69v0a.55.55,0,0,0-.17-.43.73.73,0,0,0-.5-.15,1.31,1.31,0,0,0-.44.07,1.17,1.17,0,0,0-.37.19l-.24-.45a1.47,1.47,0,0,1,.5-.25,2.59,2.59,0,0,1,.63-.08A1.29,1.29,0,0,1,876.62,493.9Zm-.57,1.89a.57.57,0,0,0,.26-.31v-.3h-.65c-.36,0-.54.11-.54.35a.33.33,0,0,0,.14.27.58.58,0,0,0,.37.1A.82.82,0,0,0,876.05,495.79Z"/><path class="cls-3" d="M880.41,493.65v2.26a1.26,1.26,0,0,1-1.44,1.41,2.86,2.86,0,0,1-.73-.09,1.53,1.53,0,0,1-.57-.29l.28-.46a1.4,1.4,0,0,0,.44.23,1.68,1.68,0,0,0,.54.08.94.94,0,0,0,.65-.19.87.87,0,0,0,.2-.62v-.13a1.16,1.16,0,0,1-.39.26,1.35,1.35,0,0,1-.5.09,1.41,1.41,0,0,1-.69-.16,1.21,1.21,0,0,1-.49-.46,1.43,1.43,0,0,1,0-1.35,1.25,1.25,0,0,1,.49-.45,1.56,1.56,0,0,1,1.21-.07,1,1,0,0,1,.4.29v-.35Zm-.85,1.81a.7.7,0,0,0,.23-.56.68.68,0,0,0-.23-.54.81.81,0,0,0-.58-.21.85.85,0,0,0-.59.21.7.7,0,0,0-.22.54.73.73,0,0,0,.22.56.85.85,0,0,0,.59.21A.81.81,0,0,0,879.56,495.46Z"/><path class="cls-3" d="M883.73,495.19h-2.1a.71.71,0,0,0,.29.46.91.91,0,0,0,.58.17.94.94,0,0,0,.72-.29l.34.39a1.09,1.09,0,0,1-.46.32,1.52,1.52,0,0,1-.62.11,1.59,1.59,0,0,1-.77-.17,1.23,1.23,0,0,1-.52-.49A1.39,1.39,0,0,1,881,495a1.51,1.51,0,0,1,.17-.7,1.31,1.31,0,0,1,.5-.49,1.49,1.49,0,0,1,.71-.17,1.41,1.41,0,0,1,.69.17,1.19,1.19,0,0,1,.48.49,1.43,1.43,0,0,1,.18.72S883.73,495.1,883.73,495.19Zm-1.85-.89a.73.73,0,0,0-.25.47h1.51a.79.79,0,0,0-.24-.47.81.81,0,0,0-1,0Z"/></g><g id="_12._new_MV_house" data-name="12. new MV house"><path class="cls-4" d="M849.25,492a.5.5,0,0,0,0-1,.5.5,0,0,0,0,1Z"/><path class="cls-5" d="M848.52,491.5h-3q-2.5-4.5-5-9c1.33-2.33,2.66-4.67,4-7,1.91.4,3.06,1.29,3,2,0,.11-.08.56-1,1"/><path class="cls-4" d="M846.84,479.11a.5.5,0,0,0,0-1,.5.5,0,0,0,0,1Z"/></g></svg>