<svg id="_13._1_MV_MS_commute" data-name="13. (1) MV/MS commute" xmlns="http://www.w3.org/2000/svg" viewBox="0 0 1357.03 1080"><defs><style>.cls-1{font-size:5px;}.cls-1,.cls-4{fill:#c1272d;}.cls-1,.cls-16,.cls-17,.cls-18,.cls-19,.cls-20,.cls-21,.cls-22,.cls-23,.cls-24,.cls-26,.cls-27,.cls-28,.cls-29,.cls-30,.cls-31,.cls-32,.cls-33,.cls-34,.cls-41,.cls-42,.cls-43{font-family:Montserrat-Regular, Montserrat;}.cls-2,.cls-23{letter-spacing:0em;}.cls-17,.cls-18,.cls-3,.cls-48{fill:gray;}.cls-41,.cls-5{fill:#0039a6;}.cls-30,.cls-6{fill:#fccc0a;}.cls-29,.cls-7{fill:#ff6319;}.cls-8{letter-spacing:-0.01em;}.cls-9{fill:#fff;}.cls-10{fill:#8cca3e;}.cls-11{font-size:9px;font-family:Montserrat-Bold, Montserrat;font-weight:700;}.cls-12{letter-spacing:-0.02em;}.cls-13{letter-spacing:-0.02em;}.cls-14,.cls-15{font-family:Montserrat-Medium, Montserrat;font-weight:500;}.cls-15,.cls-34{font-size:7px;}.cls-16,.cls-17,.cls-18,.cls-19,.cls-20,.cls-21,.cls-22,.cls-23,.cls-24,.cls-26,.cls-27,.cls-28,.cls-29,.cls-30,.cls-31,.cls-32,.cls-33,.cls-34,.cls-41,.cls-42,.cls-43{font-weight:400;}.cls-17,.cls-45{letter-spacing:-0.02em;}.cls-19{letter-spacing:-0.01em;}.cls-20{letter-spacing:0.01em;}.cls-21,.cls-46{letter-spacing:-0.02em;}.cls-22,.cls-35{letter-spacing:-0.01em;}.cls-24,.cls-36{letter-spacing:-0.03em;}.cls-25{letter-spacing:0.01em;}.cls-26{letter-spacing:-0.02em;}.cls-27{letter-spacing:0em;}.cls-28,.cls-38{letter-spacing:0em;}.cls-31{letter-spacing:-0.01em;}.cls-32{letter-spacing:0.08em;}.cls-33{letter-spacing:-0.01em;}.cls-37{letter-spacing:-0.02em;}.cls-39{letter-spacing:-0.01em;}.cls-40,.cls-48{letter-spacing:-0.02em;}.cls-42{letter-spacing:0.08em;}.cls-43{letter-spacing:-0.01em;}.cls-44{letter-spacing:-0.01em;}.cls-47{letter-spacing:0.02em;}.cls-49{letter-spacing:-0.01em;}</style></defs><text class="cls-1" transform="translate(852.27 499.9)"><tspan class="cls-2">h</tspan><tspan x="3.39" y="0">o</tspan><tspan class="cls-2" x="6.53" y="0">m</tspan><tspan x="11.84" y="0">e</tspan></text><path class="cls-3" d="M847.25,490.38c-2.74-2.66-4.82-7.16-3.71-11a6.67,6.67,0,0,1,3.66-3.87,15.05,15.05,0,0,1,3.15-1.09c.55-.14,1.11-.26,1.67-.38.23-.05,1.08-.37,1.33-.25a1.55,1.55,0,0,0,2-.54,1.51,1.51,0,0,0-.54-2.05c-1.38-.64-2.72-.26-4.14.05a23.38,23.38,0,0,0-4.1,1.25,10.2,10.2,0,0,0-5.61,5.11,12,12,0,0,0-.08,8,16.06,16.06,0,0,0,4.2,6.92c1.38,1.34,3.51-.78,2.12-2.13Z"/><path class="cls-3" d="M853.85,475.43c3.86,0,3.87-6,0-6s-3.87,6,0,6Z"/><path class="cls-3" d="M848.85,496.43c3.86,0,3.87-6,0-6s-3.87,6,0,6Z"/><path class="cls-4" d="M850,496.08c3.86,0,3.87-6,0-6s-3.87,6,0,6Z"/><path class="cls-3" d="M611.36,530.2l-2.89-2.59a14.47,14.47,0,0,1-2.42-2.31,2.26,2.26,0,0,0-.16-.26c-.21-.33,0,.13,0-.07a4.18,4.18,0,0,1-.16-.58c.07.29,0,0,0-.07s0-.22,0-.33,0-.18,0-.27c0,.3,0,0,0-.07s0-.22.09-.33.13-.37.06-.2.09-.18.09-.18.09-.16.14-.23.23-.32.11-.18.16-.15.15-.15l.2-.18c-.22.2.09-.05.13-.08a1.5,1.5,0,1,0-1.52-2.59A5.41,5.41,0,0,0,603,526a9.15,9.15,0,0,0,2.7,3.23l3.51,3.14a1.54,1.54,0,0,0,2.12,0,1.51,1.51,0,0,0,0-2.12Z"/><path class="cls-3" d="M606.63,522.86c3.87,0,3.87-6,0-6s-3.86,6,0,6Z"/><path class="cls-3" d="M610.4,534.69c3.86,0,3.87-6,0-6s-3.87,6,0,6Z"/><path class="cls-4" d="M606.9,523.39c3.86,0,3.87-6,0-6s-3.86,6,0,6Z"/><path class="cls-5" d="M612.6,531.6c8.7-5.21,7.7-16.49,8.13-25.18a43,43,0,0,1,3.91-15.15c1-2.34,2.09-4.65,3.09-7a30.76,30.76,0,0,0,2.49-7c.39-2.42-.64-4.36-2-6.3a10.34,10.34,0,0,1-2.2-6.6c.29-5.26,3.68-10.16,6.16-14.62q8.19-14.71,16.94-29.09c1.45-2.38,2.89-4.76,4.38-7.12,1.22-1.93,2.7-4,5.21-4.07s5.09,1.6,7.24,2.94l7.36,4.62,29.23,18.34c8.31,5.22,17.07,11,27.19,11.42A23.63,23.63,0,0,0,742.57,444a38.88,38.88,0,0,0,5.23-4.19c2.15-1.78,4.93-2.13,7.57-2.72,5.46-1.21,10.91-2.47,16.37-3.62a41.84,41.84,0,0,1,8.25-1.09,21.41,21.41,0,0,1,7.72,1.45,13.69,13.69,0,0,0,7.29.88,16.44,16.44,0,0,1,4-.39,12.52,12.52,0,0,1,4.19,1.24c5,2.33,9.86,5.4,14.66,8.2,2.38,1.39,4.75,2.81,7.11,4.23,1.1.67,2.11-1.06,1-1.73q-7.4-4.46-14.92-8.71c-4.4-2.48-9.12-5.84-14.43-5.13a30.51,30.51,0,0,1-3.92.53,11.45,11.45,0,0,1-4-.89,24.68,24.68,0,0,0-7.76-1.68c-5.42-.14-10.8,1.39-16,2.56l-8.36,1.85a41.43,41.43,0,0,0-7.46,1.9c-2.26,1-3.77,2.91-5.68,4.38a18,18,0,0,1-6.15,3c-10,2.77-19.81-1.89-28.18-7-9.82-6-19.48-12.19-29.2-18.29-4.85-3-9.63-6.24-14.57-9.12-2.07-1.21-4.46-2.33-6.92-2.13a7.34,7.34,0,0,0-5.1,3,63.43,63.43,0,0,0-4.17,6.49c-1.48,2.4-2.94,4.82-4.4,7.24q-4.36,7.27-8.58,14.62c-2.84,4.95-5.66,9.93-8.37,14.95-2.22,4.1-4.47,8.91-3.4,13.68.52,2.31,2,4,3.16,6,1.49,2.58.42,5-.59,7.61-1.86,4.73-4.24,9.25-5.94,14.05-1.86,5.21-2.26,10.41-2.35,15.9-.08,4.84-.27,9.87-2.67,14.22a12.14,12.14,0,0,1-4.35,4.62,1,1,0,0,0,1,1.72Z"/><path class="cls-6" d="M829.4,449c4.94,1.76,9.58,4.88,13.81,7.94A21.82,21.82,0,0,1,851.73,469a1,1,0,0,0,1.93-.54,23.59,23.59,0,0,0-8.79-12.76c-2.28-1.72-4.72-3.25-7.15-4.75a41.32,41.32,0,0,0-7.79-3.88c-1.22-.43-1.74,1.5-.53,1.93Z"/><path class="cls-7" d="M827.26,450.82c4.94,1.75,9.58,4.88,13.81,7.94a21.72,21.72,0,0,1,8.52,12.05,1,1,0,0,0,1.93-.53,23.65,23.65,0,0,0-8.79-12.77c-2.27-1.72-4.72-3.24-7.15-4.74a41.32,41.32,0,0,0-7.79-3.88c-1.21-.43-1.74,1.5-.53,1.93Z"/><path class="cls-7" d="M829.44,458.06a19.07,19.07,0,0,0,.3,5,1,1,0,0,0,1.23.7,1,1,0,0,0,.7-1.23c0-.2-.07-.39-.1-.59s0-.21-.05-.32c0,.18,0,0,0-.09,0-.38-.08-.76-.1-1.14a18.1,18.1,0,0,1,0-2.33,1,1,0,0,0-1-1,1,1,0,0,0-1,1Z"/><path class="cls-7" d="M830.1,458.57l2.25,2.2a1,1,0,0,0,1,.25,1,1,0,0,0,.7-.7l.12-.33h0l.07-.16c.1-.21.19-.41.3-.6a11.3,11.3,0,0,1,.7-1.17H833.5c.09.17.18.34.26.51a2.72,2.72,0,0,1,.11.25s.12.27.08.16,0-.05,0,0,0,.11.07.17l.09.25.18.5a13.48,13.48,0,0,1,.49,2.18,1,1,0,0,0,1.23.7,1,1,0,0,0,.7-1.23,13.64,13.64,0,0,0-1.51-4.55,1,1,0,0,0-.86-.5,1,1,0,0,0-.86.5,12.21,12.21,0,0,0-1.4,2.74l1.67-.44-2.25-2.2a1,1,0,1,0-1.42,1.42Z"/><path class="cls-6" d="M844.33,448a23.49,23.49,0,0,0,.64,5.67,1,1,0,1,0,1.92-.53c-.1-.44-.19-.89-.27-1.34,0-.2-.07-.41-.1-.62s0,.06,0-.15,0-.24,0-.36a21.7,21.7,0,0,1-.13-2.67,1,1,0,0,0-1-1,1,1,0,0,0-1,1Z"/><path class="cls-6" d="M846.58,448.68a3.89,3.89,0,0,1,.34-.36s.23-.18.05-.05l.2-.13.21-.12c-.12.07-.08,0,0,0l.23-.06c.11,0-.2,0,0,0,0,0,.2,0,.23,0-.13,0-.16,0-.09,0l.11,0,.11,0c.07,0,0,0-.07,0a1.14,1.14,0,0,1,.19.1L848,448l.11.1c.13.11,0-.09,0,0l0,.09c0-.12-.06-.15,0-.08l0,.1c0,.09,0,.09,0,0s0-.08,0,0v.07s0,.1,0,.14l0-.12a1.29,1.29,0,0,0-.05.21l0,.1,0-.07c0,.06-.08.15-.11.2l0,.06c-.07.09-.06.08,0,0,0,0-.1.1-.12.13l-.09.08c.08-.07.1-.08,0,0a3,3,0,0,1-.39.22c.21-.1,0,0-.06,0l-.24.07-.24.06h-.06l-.49,0a1,1,0,0,0-1,.87,1,1,0,0,0,.71,1.09,11.87,11.87,0,0,1,2.28.64h0l.16.07.25.12.51.26a10.43,10.43,0,0,1,1,.65,1,1,0,0,0,1.37-.36,1,1,0,0,0-.36-1.37,11.38,11.38,0,0,0-4.67-1.93l-.26,2a4.51,4.51,0,0,0,2.85-1,2.78,2.78,0,0,0,.88-2.69,2.41,2.41,0,0,0-2.34-1.75,3.44,3.44,0,0,0-2.6,1.3,1,1,0,0,0,0,1.42,1,1,0,0,0,1.41,0Z"/><text class="cls-1" transform="translate(595.31 513.77)">s<tspan class="cls-8" x="2.45" y="0">c</tspan><tspan class="cls-2" x="5.22" y="0">h</tspan><tspan x="8.62" y="0">ool</tspan></text><path class="cls-4" d="M702.34,388a5.27,5.27,0,0,0-5.87,2.49c-1,1.85-.84,4.88,1.09,6.11s5.24-.47,6.62-2c2.06-2.24.14-4.25-1.4-6.09-.74-.89-2,.39-1.27,1.27.93,1.11,2.46,2.26,1.26,3.7-.71.85-3.36,2.34-4.43,1.41s-.79-2.88-.11-3.87a3.45,3.45,0,0,1,3.63-1.31c1.13.25,1.61-1.48.48-1.74Z"/><path class="cls-4" d="M703.42,393.59c1.13.85-9.92,11-1.25,10.64,1.15-.05,1.16-1.85,0-1.8-2.21.1-.49-2.57.06-3.43.71-1.14,1.53-2.19,2.28-3.3.9-1.32,1.21-2.61-.19-3.66-.92-.7-1.82.87-.9,1.55Z"/><path class="cls-4" d="M696.52,396.06a61.69,61.69,0,0,0-4.58,7.38c-.66,1.28-1.11,3.07-2,4.18-1.13,1.43-3.14,2.1-4.83,2.52-4.23,1-5.8,2.38-7.37,6.59-.4,1.08,1.34,1.55,1.74.47,1.38-3.68,3.71-4.61,7.25-5.63a8.5,8.5,0,0,0,3.94-1.91c1.49-1.53,2.14-4,3.13-5.91a61.25,61.25,0,0,1,4.27-6.78c.68-.94-.88-1.84-1.55-.91Z"/><path class="cls-4" d="M689.29,409.39c-1,1.27-3.21,3.13-3.31,4.87a8.82,8.82,0,0,0,.59,2.51,22.35,22.35,0,0,1,.55,4.39c0,1.16,1.84,1.16,1.8,0a23.53,23.53,0,0,0-.62-4.87c-.31-1.27-.66-1.54.11-2.92a22.24,22.24,0,0,1,2.15-2.71c.72-.9-.55-2.18-1.27-1.27Z"/><path class="cls-4" d="M694,400.08c-1.13-.68-2.28-1.33-3.46-1.91-.83-.4-2-1.24-3-1.24-1.76,0-3.73,2.46-5,3.51-.9.74.38,2,1.27,1.27,1.44-1.19,2.86-3.12,4.82-2.45a24.32,24.32,0,0,1,4.44,2.38c1,.6,1.9-1,.91-1.56Z"/><path class="cls-4" d="M692.35,400.63c-1.08.82-2.15,1.64-3.3,2.36a8.42,8.42,0,0,1-1.81,1,2.66,2.66,0,0,1-2.93-1.07c-.79-.85-2.06.42-1.27,1.27,1.27,1.36,2.62,2.31,4.51,1.63a22.88,22.88,0,0,0,5.71-3.64c.91-.69,0-2.25-.91-1.55Z"/><path class="cls-9" d="M670.4,396.75a47.94,47.94,0,0,0,9.42,1.81.73.73,0,0,1,.44.15.65.65,0,0,1,.15.24l1,2.34a4.19,4.19,0,0,1,.41,1.36,3.67,3.67,0,0,1-.09.93,18.74,18.74,0,0,1-1,3.6l-11.6-1.45a66.28,66.28,0,0,0,.9-8.89"/><path class="cls-9" d="M670.32,397a50.09,50.09,0,0,0,8.9,1.77c.36,0,.69,0,.93.29a5.57,5.57,0,0,1,.5,1.17,9.45,9.45,0,0,1,.83,2.22,6.46,6.46,0,0,1-.35,2.38,19.36,19.36,0,0,1-.73,2.23l.29-.22-11.6-1.45.29.38a69.19,69.19,0,0,0,.91-9,.3.3,0,0,0-.6,0,68.65,68.65,0,0,1-.89,8.81.31.31,0,0,0,.29.38l11.6,1.45c.14,0,.25-.11.29-.22a21.18,21.18,0,0,0,.79-2.45,6.56,6.56,0,0,0,.31-2.36,7.67,7.67,0,0,0-.72-2l-.54-1.29a1.65,1.65,0,0,0-.41-.7,1.12,1.12,0,0,0-.59-.19c-.47-.06-1-.09-1.43-.15-.93-.11-1.85-.25-2.77-.42a49.91,49.91,0,0,1-5.14-1.23.3.3,0,0,0-.16.58Z"/><path d="M669.85,404.62l10.48,1.76c1.51.25,2.16-2.06.64-2.31l-10.49-1.76c-1.51-.26-2.16,2.05-.63,2.31Z"/><path class="cls-10" d="M671.34,398.46c0-.09.23-.15.34-.2a1,1,0,0,1,.51-.1c.28,0,.41.37.46.62a1.8,1.8,0,0,1-.12,1.1.86.86,0,0,1-.26.36.69.69,0,0,1-.45.06,1.94,1.94,0,0,1-1.06-.5c-.28-.26-.7.16-.42.42a2.47,2.47,0,0,0,1.34.66,1.43,1.43,0,0,0,.82-.08,1.2,1.2,0,0,0,.5-.52,2.5,2.5,0,0,0,.24-1.59,1.3,1.3,0,0,0-.8-1.08,1.4,1.4,0,0,0-.9.06,1.25,1.25,0,0,0-.72.49.31.31,0,0,0,.11.41.3.3,0,0,0,.41-.11Z"/><path class="cls-10" d="M672.54,400.43a2.32,2.32,0,0,0-.21,1.37.15.15,0,0,0,.18.11.15.15,0,0,0,.1-.19,2,2,0,0,1,.19-1.13.16.16,0,0,0-.06-.21.15.15,0,0,0-.2.05Z"/><path class="cls-10" d="M672.6,400.41l.44.55c.07.09.21,0,.25-.07l.39-1.11-.29,0,.17,1.62a.16.16,0,0,0,.15.15.15.15,0,0,0,.15-.15l-.17-1.62a.15.15,0,0,0-.3,0l-.39,1.11.25-.06-.43-.55a.17.17,0,0,0-.22,0,.15.15,0,0,0,0,.21Z"/><path class="cls-10" d="M673.87,399.74a.66.66,0,0,0,.51.09.16.16,0,0,0,.11-.19.15.15,0,0,0-.19-.1h-.1l-.12,0,0,0a.19.19,0,0,1-.09,0,.18.18,0,0,0-.12,0,.16.16,0,0,0-.09.07.17.17,0,0,0,0,.12.22.22,0,0,0,.07.09Z"/><path class="cls-10" d="M673.81,399.54a1.08,1.08,0,0,0,0,1,.56.56,0,0,0,.36.3.36.36,0,0,0,.42-.25.14.14,0,0,0-.11-.18.15.15,0,0,0-.18.1s0,0,0,0,0,0,0,0,0,0,0,0,0,0,0,0h0s0,0,0,0,0,0,0,0h0a.22.22,0,0,1-.1-.09.47.47,0,0,1-.07-.12.77.77,0,0,1,0-.63.15.15,0,0,0-.05-.2.16.16,0,0,0-.21.05Z"/><path class="cls-10" d="M674,400.43l.47-.11a.14.14,0,0,0,.1-.18.16.16,0,0,0-.18-.11l-.47.11a.15.15,0,0,0-.11.18.18.18,0,0,0,.19.11Z"/><path class="cls-10" d="M674.62,399.67a2.63,2.63,0,0,0,1.08,0,.15.15,0,0,0,.1-.19.14.14,0,0,0-.18-.1,2.38,2.38,0,0,1-.92,0,.16.16,0,0,0-.19.1.17.17,0,0,0,.11.19Z"/><path class="cls-10" d="M675,399.57a2.44,2.44,0,0,0-.16,1,.15.15,0,0,0,.3,0,2.22,2.22,0,0,1,.15-.89.15.15,0,0,0-.1-.19.16.16,0,0,0-.19.11Z"/><path class="cls-10" d="M675.47,399.91l-.13.37a.24.24,0,0,0,0,.12.2.2,0,0,0,.09.07.17.17,0,0,0,.19-.11l.12-.37a.13.13,0,0,0,0-.12.16.16,0,0,0-.09-.07.15.15,0,0,0-.18.11Z"/><path class="cls-10" d="M675.77,400l.1,0h0s0,0,0,0h0s0,0,0,0h0s0,0,0,0v0h0v0s0,0,0,0,0,0,0,0h-.19a.16.16,0,0,0-.14.09.15.15,0,0,0,0,.16l.07.09,0,0s0,0,0,0l0,0c0,.06.09.12.13.19a.15.15,0,0,0,.2,0,.16.16,0,0,0,.06-.21,3.9,3.9,0,0,0-.31-.4l-.1.26a.65.65,0,0,0,.31,0,.27.27,0,0,0,0-.51.45.45,0,0,0-.34,0,.14.14,0,0,0-.1.18.15.15,0,0,0,.18.11Z"/><path class="cls-10" d="M676.23,399.69a.56.56,0,0,0-.06.38.28.28,0,0,0,.31.22.32.32,0,0,0,.18-.06.93.93,0,0,0,.14-.14l.06-.14a.28.28,0,0,0,0-.12.5.5,0,0,0,0-.13.46.46,0,0,0-.17-.14.68.68,0,0,0-.23-.07.18.18,0,0,0-.15.15.16.16,0,0,0,.05.11l0,0a.08.08,0,0,0,.07,0h0a.2.2,0,0,1,.11,0l0,0,.1.06,0,0,0,0,0,0v0l0,0v0s0,0,0,0v0a.51.51,0,0,1-.09.16l0,0-.06.06,0,0,0,0,0,0-.06,0h0l0,0,0,0,0,0,0,0,0,0v0a.43.43,0,0,1,0-.05v0a.19.19,0,0,1,0-.1l0,0,0-.06a.17.17,0,0,0,0-.12.2.2,0,0,0-.07-.09.17.17,0,0,0-.21.05Z"/><path class="cls-10" d="M677,399.4a1,1,0,0,0-.1.62.47.47,0,0,0,.12.27.34.34,0,0,0,.35,0,.15.15,0,0,0,0-.21.15.15,0,0,0-.2-.05h0s0,0,0,0h0s0,0,0,0h0v0s0,0,0,0v0h0s0,0,0,0a.13.13,0,0,1,0-.06s0,0,0,0v0a.34.34,0,0,1,0-.1h0s0,0,0,0a.43.43,0,0,0,0,0l0-.1,0-.05s0,0,0,0,0,0,0,0a.17.17,0,0,0,0-.21.16.16,0,0,0-.21.06Z"/><path class="cls-10" d="M677.63,400.19c.07-.22.14-.42.22-.63l-.27,0a2.75,2.75,0,0,1,.17.29s0,.06,0,0l0,0,0,.07c0,.06,0,.11,0,.17a.15.15,0,0,0,.19.1.14.14,0,0,0,.1-.18,1.65,1.65,0,0,0-.3-.66.13.13,0,0,0-.14-.07.15.15,0,0,0-.13.11c-.07.21-.15.42-.21.63a.14.14,0,0,0,.1.18.14.14,0,0,0,.18-.1Z"/><path class="cls-10" d="M677.67,400.18a.2.2,0,0,0,.11,0h.07l.06,0a.05.05,0,0,0,.05,0l0-.05a.07.07,0,0,0,0-.05.15.15,0,0,0,0-.11l0,0a.11.11,0,0,0-.08,0h0l-.07,0h-.06l-.06,0,0,0,0,.05a.14.14,0,0,0,0,.11l0,0,.07,0Z"/><path class="cls-10" d="M678.07,399.56a1.75,1.75,0,0,0-.05.6.15.15,0,0,0,.15.15.16.16,0,0,0,.15-.15,1.31,1.31,0,0,1,0-.28v-.08h0v0l0-.14a.14.14,0,0,0-.11-.18.15.15,0,0,0-.18.1Z"/><path class="cls-10" d="M678.27,399.81h.12l.09,0s0,0,0,0h0s0,0,0,0a.08.08,0,0,1,0-.08.05.05,0,0,1,0,0h0l0,0h0l-.19.07a.15.15,0,0,0-.07.25,2.5,2.5,0,0,1,.23.23l.11.13h0l0,0a.18.18,0,0,1,0,.07.15.15,0,1,0,.26-.16,4,4,0,0,0-.47-.54l-.06.25c.09,0,.19,0,.28-.09a.26.26,0,0,0,.14-.29.35.35,0,0,0-.27-.2.55.55,0,0,0-.31,0,.16.16,0,0,0-.11.19.16.16,0,0,0,.19.1Z"/><path class="cls-10" d="M679,399.75a3.46,3.46,0,0,0-.21.78.22.22,0,0,0,0,.11.16.16,0,0,0,.09.07.14.14,0,0,0,.18-.1,3.46,3.46,0,0,1,.21-.78.15.15,0,0,0-.11-.19.15.15,0,0,0-.18.11Z"/><path class="cls-10" d="M679.19,400h0s0,0,0,0h0l0,0h0l0,0h0v.12h0v0l0,.05s0,0,0,0l0,.06,0,0s0,0,0,0l0,0s0,0,0,0h-.06l-.05,0,0,0a.34.34,0,0,0-.12.12.16.16,0,0,0,.06.21.15.15,0,0,0,.2-.06v0s0,0,0,0h0s0,0,0,0l.15-.07a.72.72,0,0,0,.23-.36.53.53,0,0,0,0-.41.4.4,0,0,0-.34-.2.15.15,0,0,0,0,.3Z"/><path class="cls-10" d="M674.43,401.77a2.55,2.55,0,0,1,1.77-.74,10.87,10.87,0,0,1,2.35-.07l0-.29a17,17,0,0,0-2.81.78.15.15,0,0,0,0,.29,1.89,1.89,0,0,0,.75,0l.41-.05c.07,0,.35-.1.4,0l0-.11v0c0,.19.33.19.3,0s-.35-.24-.58-.21a3,3,0,0,1-1.16.07v.29a17,17,0,0,1,2.81-.78c.17,0,.12-.29,0-.3a11.22,11.22,0,0,0-2.59.11,2.58,2.58,0,0,0-1.79.85c-.11.15.15.3.26.15Z"/><path class="cls-10" d="M676.59,401.9a.24.24,0,0,0-.22,0,.31.31,0,0,0-.18.16.27.27,0,0,0,0,.26.2.2,0,0,0,.08.08l0,0,0,0h0l0,0h0l0,0h0v-.08a0,0,0,0,1,0,0l0,0v0l0,0h0a.14.14,0,0,0-.11,0,.12.12,0,0,0,0,.11.12.12,0,0,0,0,.1.16.16,0,0,0,.11.05l.16,0a.22.22,0,0,0,.12-.16.21.21,0,0,0,0-.2.53.53,0,0,0-.1-.06l0,0h0l0,0h0v0h0v.06s0,0,0-.05l0,0,0-.06,0,0,0,0,0,0,0,0,0,0h0a.16.16,0,0,0,.12,0,.2.2,0,0,0,.09-.07.25.25,0,0,0,0-.12.15.15,0,0,0-.07-.09Z"/><path class="cls-10" d="M676.58,401.84a1.16,1.16,0,0,0,.14.73.16.16,0,0,0,.21.05.14.14,0,0,0,.05-.2l0-.07s0,0,0,0,0,0,0,0l0-.14s0-.05,0-.07v0s0,0,0,0V402s0,0,0,0v0a.14.14,0,0,0-.1-.18.15.15,0,0,0-.19.1Z"/><path class="cls-10" d="M676.59,402.33a.77.77,0,0,0,.39-.2.15.15,0,0,0,0-.11.13.13,0,0,0,0-.1.16.16,0,0,0-.11-.05.14.14,0,0,0-.1.05l-.06.05,0,0a.57.57,0,0,1-.13.08l0,0a.33.33,0,0,1-.13,0,.13.13,0,0,0-.09.07.16.16,0,0,0,0,.12.2.2,0,0,0,.07.09h.12Z"/><path class="cls-10" d="M676.86,402a.46.46,0,0,0,0,.2.33.33,0,0,0,.19.16.2.2,0,0,0,.19-.06l.06-.05.1-.17a.73.73,0,0,0,.06-.21.13.13,0,0,0,0-.06l0-.05a.2.2,0,0,0-.09-.07.16.16,0,0,0-.19.11.53.53,0,0,1,0,.16l0,0a.67.67,0,0,1-.09.14l0,0-.06.07,0,0h.1l0,0,0,0,0,0,0,0s0,0,0,0v0s0,0,0-.06v0a.21.21,0,0,0,0-.11.15.15,0,0,0-.11,0,.12.12,0,0,0-.1,0,.22.22,0,0,0,0,.11Z"/><path class="cls-10" d="M677.64,401.5a.7.7,0,0,0,0,.32l.15-.15h0l0,0,0,0a.16.16,0,0,0-.12,0l0,0-.06,0a.42.42,0,0,0-.07.24.15.15,0,0,0,.3,0v0s0,0,0-.06v0l0-.06-.2.06a.38.38,0,0,0,.19.05.18.18,0,0,0,.15-.15v-.07a.85.85,0,0,1,0-.17.13.13,0,0,0,0-.12.2.2,0,0,0-.09-.07.17.17,0,0,0-.12,0l0,0a.16.16,0,0,0,0,.07Z"/><path class="cls-10" d="M678.14,401.85a.49.49,0,0,0,.23-.26.23.23,0,0,0,0-.24.2.2,0,0,0-.25,0,.5.5,0,0,0-.2.3.47.47,0,0,0,0,.35.49.49,0,0,0,.28.25.15.15,0,0,0,.19-.11.15.15,0,0,0-.11-.18s0,0,0,0l0,0h0l0,0a0,0,0,0,1,0,0s0,0,0,0a.13.13,0,0,1,0-.05v0s0,0,0,0v0a0,0,0,0,1,0,0h0v0s0,0,0,0a.13.13,0,0,0,0-.06s0,0,0,0v-.05s0,0,0,0l0,0s0,0,0,0h0c-.08,0-.14,0-.16-.07v0h0l0,0h0l-.05,0h0l0,0a.16.16,0,0,0,0,.21.15.15,0,0,0,.2.05Z"/><path class="cls-10" d="M678.32,401.48a.66.66,0,0,0,0,.15.43.43,0,0,0,0,.11.14.14,0,0,0,.16.11.14.14,0,0,0,.13-.15s0,0,0-.06v0a.66.66,0,0,1,0-.15v0l0,0,0,0,0,0,0,0h0l0,0h0l.05,0,0,0,.06.06,0,0a.54.54,0,0,1,.07.13l0,0a.72.72,0,0,1,.07.25.15.15,0,0,0,.19.1.14.14,0,0,0,.1-.18,1,1,0,0,0-.15-.4.41.41,0,0,0-.22-.17.23.23,0,0,0-.29.12.79.79,0,0,0-.08.3l.3,0a0,0,0,0,1,0,0v0a.09.09,0,0,1,0-.05v0s0,0,0-.06v0h0a.14.14,0,0,0,0-.11.16.16,0,0,0-.07-.09.17.17,0,0,0-.12,0,.2.2,0,0,0-.09.07Z"/><path class="cls-10" d="M678.91,401.22a.7.7,0,0,0,0,.43.13.13,0,0,0,.07.09.15.15,0,0,0,.11,0,.22.22,0,0,0,.09-.07.17.17,0,0,0,0-.12.65.65,0,0,1,0-.13v0a.43.43,0,0,1,0-.16v0s0,0,0-.06a.25.25,0,0,0,0-.12.11.11,0,0,0-.09-.06.17.17,0,0,0-.12,0,.15.15,0,0,0-.06.09Z"/><path class="cls-10" d="M678.8,401.49l.42.14a.15.15,0,0,0,.18-.11.15.15,0,0,0-.1-.18l-.42-.14a.15.15,0,0,0-.19.1.16.16,0,0,0,.11.19Z"/><path class="cls-10" d="M677.65,402.61l0,.05s0,.06.09.07a.11.11,0,0,0,.1,0,.14.14,0,0,0,.09-.17l0-.12v0a.89.89,0,0,1,0-.23v0a.43.43,0,0,0,0,0v0l0,0h0l0,0,0,0,0,0H678a.7.7,0,0,1,.14,0h0l0,0h0l0,0h0v0h0v0h0v0h0v0h0l0,0h0l0,0-.1.05,0,0-.12,0a.11.11,0,0,0-.09.07.15.15,0,0,0,0,.11.16.16,0,0,0,.07.09.16.16,0,0,0,.12,0,.6.6,0,0,0,.28-.13.17.17,0,0,0,0-.26.29.29,0,0,0-.16-.07.66.66,0,0,0-.28,0,.26.26,0,0,0-.15.12.58.58,0,0,0,0,.18,1.32,1.32,0,0,0,0,.34l.27-.12,0-.05a.13.13,0,0,0-.09-.07.14.14,0,0,0-.11,0,.13.13,0,0,0-.07.09.16.16,0,0,0,0,.12Z"/><path class="cls-10" d="M678.44,402.17a.37.37,0,0,0-.07.16.5.5,0,0,0,0,.21.41.41,0,0,0,0,.09.26.26,0,0,0,.12.05.2.2,0,0,0,.15-.07l0-.07.06-.06,0,0h-.1l0,0,.06.07.07.08a.16.16,0,0,0,.22-.22l-.1-.09c0-.05-.1-.11-.17-.1a.19.19,0,0,0-.14,0l0,0,0,.05a.1.1,0,0,1,0,.05l0,0h.09l0,0h0l0,0h0l0,0h0v0s0,0,0-.06v0a.09.09,0,0,1,0-.07v0a.14.14,0,0,1,0-.07l0,0a.21.21,0,0,1,0-.06.14.14,0,0,0,0-.11.13.13,0,0,0-.07-.09.14.14,0,0,0-.11,0l0,0a.12.12,0,0,0,0,.05Z"/><path class="cls-10" d="M679.11,402.12a.35.35,0,0,0,0,.2.47.47,0,0,0,.05.1l.08.09,0,0a.05.05,0,0,1,0,0v-.08l0,0h0l0,0h.08a.17.17,0,0,0-.12,0,.16.16,0,0,0-.07.09.15.15,0,0,0,.11.18.18.18,0,0,0,.18-.05.21.21,0,0,0,.07-.15.23.23,0,0,0,0-.14l-.07-.09,0,0a.25.25,0,0,1,0-.07v0a.29.29,0,0,1,0-.09v0a.18.18,0,0,0,0-.11.12.12,0,0,0-.11,0,.15.15,0,0,0-.11,0,.18.18,0,0,0,0,.11Z"/><path class="cls-10" d="M679.68,402.11a.27.27,0,0,0,.05.21c0,.05.07.08.1.13l0,0,0,.05,0,0a0,0,0,0,1,0,0v-.06a0,0,0,0,1,0,0l0,0v0l0,0,0,0,0,0-.05,0,0,0-.08,0a.15.15,0,0,0-.1.19.14.14,0,0,0,.18.1.45.45,0,0,0,.18-.07.28.28,0,0,0,.1-.21.37.37,0,0,0-.09-.19.71.71,0,0,1-.07-.09l0,0,0,0,0,0a0,0,0,0,1,0,0v0s0,0,0,0v0h0a.16.16,0,0,0,0-.12.2.2,0,0,0-.09-.07.15.15,0,0,0-.19.11Z"/><path class="cls-10" d="M670.87,398.54a.6.6,0,0,1,.1.39.16.16,0,0,0,.11.15c.06,0,.15,0,.17-.07a.49.49,0,0,1,.21-.24l-.22-.09a2.54,2.54,0,0,1,0,.91c0,.08.08.15.15.15a.15.15,0,0,0,.15-.15,2.55,2.55,0,0,0-.05-1,.16.16,0,0,0-.22-.09.78.78,0,0,0-.32.35l.28.07a.93.93,0,0,0-.14-.54.15.15,0,0,0-.2-.06.16.16,0,0,0-.06.21Z"/><path class="cls-10" d="M671.46,398.79l.71.12a.16.16,0,0,0,.19-.11c0-.07,0-.17-.11-.18l-.71-.12a.15.15,0,0,0-.18.11.14.14,0,0,0,.1.18Z"/><path class="cls-10" d="M672.18,398.85l.33,1.24a.15.15,0,0,0,.29-.08l-.33-1.24a.15.15,0,0,0-.29.08Z"/><path class="cls-10" d="M670.61,399.83l.09-.17c0-.06.06-.11.08-.17s0,0,0,0l-.14,0,0,0v0l0,.09.11.17a.15.15,0,0,0,.27,0v0s0,0,0,0h0l0,0h0l-.22-.17a1,1,0,0,0,.06.7.15.15,0,0,0,.2.05.15.15,0,0,0,.06-.2s0,0,0,0v0s0,0,0-.06,0-.05,0-.07v0a.06.06,0,0,1,0,0v-.14s0,0,0,0,0,0,0,0a.19.19,0,0,1,0-.07.16.16,0,0,0-.23-.17.49.49,0,0,0-.21.26l.28,0-.14-.22a.28.28,0,0,0-.08-.11.18.18,0,0,0-.18-.05c-.1,0-.14.13-.18.21l-.12.23a.16.16,0,0,0,0,.21.16.16,0,0,0,.21-.06Z"/><path class="cls-10" d="M671.43,399.06a1.19,1.19,0,0,0-.06.62.13.13,0,0,0,.07.09.16.16,0,0,0,.12,0,.2.2,0,0,0,.09-.07.16.16,0,0,0,0-.12v0a1.22,1.22,0,0,1,0-.27v0a1.05,1.05,0,0,1,.06-.24.15.15,0,0,0,0-.11.14.14,0,0,0-.08-.07.16.16,0,0,0-.12,0,.2.2,0,0,0-.07.09Z"/><path class="cls-10" d="M671.88,399.24l-.22,1a.14.14,0,0,0,.1.18.15.15,0,0,0,.19-.1l.22-1a.14.14,0,0,0-.1-.18.15.15,0,0,0-.19.1Z"/><path class="cls-10" d="M671.33,399.59a7.63,7.63,0,0,0-.26.85.17.17,0,0,0,.11.19.15.15,0,0,0,.18-.11,7.63,7.63,0,0,1,.26-.85.15.15,0,0,0-.1-.19.16.16,0,0,0-.19.11Z"/><path class="cls-10" d="M672.1,400a.81.81,0,0,0,0,.41.2.2,0,0,0,.07.09.16.16,0,0,0,.12,0,.15.15,0,0,0,.09-.07.14.14,0,0,0,0-.11v0a.43.43,0,0,1,0-.16v0a.28.28,0,0,1,0-.13.15.15,0,0,0,0-.11.16.16,0,0,0-.09-.07.14.14,0,0,0-.11,0,.15.15,0,0,0-.07.09Z"/><path class="cls-10" d="M672.27,399.74a.15.15,0,0,0,0-.3.15.15,0,0,0,0,.3Z"/><path class="cls-10" d="M672.84,399.87a.86.86,0,0,0,.07-.72c-.07-.25-.22-.46-.3-.7a.16.16,0,0,0-.19-.11.15.15,0,0,0-.1.19c.08.22.21.42.28.64a.57.57,0,0,1,0,.54.16.16,0,0,0,.06.21.16.16,0,0,0,.2-.05Z"/><path class="cls-10" d="M670.66,400l.06,0h0l.07,0,0,0,0,0a.15.15,0,0,0,.1,0h.06l.05,0a.21.21,0,0,0,0-.11.15.15,0,0,0,0-.11l-.07,0,0,0-.12,0s0,0-.06,0l-.06,0a.08.08,0,0,0,0,0l0,0a.11.11,0,0,0,0,.11.16.16,0,0,0,.09.07Z"/><path class="cls-10" d="M670.67,399.86a.15.15,0,0,0,0-.3.15.15,0,0,0,0,.3Z"/><path class="cls-10" d="M672.85,399.46a5.39,5.39,0,0,0-.22-.68.71.71,0,0,0-.42-.46,1.13,1.13,0,0,0-.32-.06l-.34,0a.47.47,0,0,0-.49.19c-.07.14.12.31.24.18.28-.32.75-.17,1.09-.06a.15.15,0,0,0,.08-.29c-.45-.14-1-.27-1.38.14l.23.18a.1.1,0,0,1,.09,0,.81.81,0,0,1,.22,0,1.89,1.89,0,0,1,.52.09.5.5,0,0,1,.23.35q.11.28.18.57a.15.15,0,0,0,.29-.08Z"/><path class="cls-10" d="M670.36,405a6.17,6.17,0,0,1-.57.44.15.15,0,0,0,0,.24,6.63,6.63,0,0,0,.54.52.17.17,0,0,0,.22,0,.15.15,0,0,0,0-.21,5.53,5.53,0,0,1-.55-.53l0,.24a7.57,7.57,0,0,0,.63-.49.14.14,0,0,0,0-.21.15.15,0,0,0-.21,0Z"/><path class="cls-10" d="M671.6,405.1a1,1,0,0,0-.32.15c-.11.08-.25.2-.22.36a.29.29,0,0,0,.11.18l.16.13.32.26a.15.15,0,0,0,.21,0,.15.15,0,0,0,0-.21l-.27-.22-.25-.21h0s0,0,0,0v0s0,0,0,0,0,0,0,0l0,0,0,0s0,0,0,0l.12-.07s0,0,0,0h0l.07,0a.15.15,0,0,0,.11-.18.16.16,0,0,0-.19-.11Z"/><path class="cls-10" d="M672.77,405.25l-.35.23-.17.12a.74.74,0,0,0-.17.12.22.22,0,0,0-.05.17.34.34,0,0,0,.09.12l.16.11.33.25a.16.16,0,0,0,.21-.06.15.15,0,0,0-.06-.2l-.24-.19-.13-.08-.06,0,0,0h0s0,0,0,.08l0,.07h0l0,0,.09-.06.16-.11.33-.22a.15.15,0,0,0,.06-.2.16.16,0,0,0-.21-.06Z"/><path class="cls-10" d="M673.36,405.8l-.09.27a.13.13,0,0,0,0,.12.16.16,0,0,0,.09.07.17.17,0,0,0,.12,0,.22.22,0,0,0,.07-.09l.09-.27a.17.17,0,0,0,0-.12.16.16,0,0,0-.09-.07.2.2,0,0,0-.11,0,.13.13,0,0,0-.07.09Z"/><path class="cls-10" d="M673.76,405.87l-.06.2a.16.16,0,0,0,0,.15.17.17,0,0,0,.15,0l.11-.07a.18.18,0,0,0,0-.07l.06-.1,0,0,0,0,0,0H674l0,0,0,0,0,0,0,0,0,0a0,0,0,0,1,0,0v0a0,0,0,0,1,0,.05v0l0,.09a.15.15,0,0,0,0,.11.11.11,0,0,0,.09.07.14.14,0,0,0,.11,0,.13.13,0,0,0,.07-.09l0-.08a.38.38,0,0,0,0-.15l0,0s0,0,0-.05,0,0,0,0l-.09-.06H674l0,0a.35.35,0,0,0-.1.11.73.73,0,0,1-.05.09l0,0,0,0,0,0h0l.19.18.06-.2a.15.15,0,0,0,0-.11.16.16,0,0,0-.09-.07.14.14,0,0,0-.11,0,.18.18,0,0,0-.07.09Z"/><path class="cls-10" d="M674.67,405.85a.23.23,0,0,0-.32.17.92.92,0,0,0,0,.16.62.62,0,0,1,0,.13v0a.13.13,0,0,1,0,.06v0s0,0,0,0l0,0,0,0,0,0,0,0,0,0h0a.15.15,0,0,0-.18.1.14.14,0,0,0,.1.18.24.24,0,0,0,.2,0,.37.37,0,0,0,.13-.17,1.22,1.22,0,0,0,0-.33v0a0,0,0,0,1,0,0l0,0,0,0,0,0a0,0,0,0,0,0,0l0,0h-.09a.15.15,0,0,0,.21-.05.16.16,0,0,0-.06-.21Z"/><path class="cls-10" d="M675,406.33s0,0,0,0,0,0,0,0l0,0h0l.05,0a.25.25,0,0,0,.1-.15.25.25,0,0,0,0-.19.2.2,0,0,0-.24-.09.44.44,0,0,0-.26.26.47.47,0,0,0,0,.31.4.4,0,0,0,.15.19.24.24,0,0,0,.23,0s.07,0,.09-.07a.16.16,0,0,0,0-.12.15.15,0,0,0-.07-.09s-.08,0-.11,0h0s0,0,0,0h0s0,0,0,0h0v0s0,0,0,0l0,0h0s0,0,0,0l0-.05v0a.27.27,0,0,1,0-.09v0a.64.64,0,0,1,0-.07s0,0,0,0h0l0,0h0l0,0H675s0,0,0,0,0,0,0,0h0v0s0,0,0,0h0s0,0,0,0h0s0,0,0,0a.67.67,0,0,0-.15.14.15.15,0,0,0,.06.21.15.15,0,0,0,.2-.05Z"/><path class="cls-10" d="M675.3,406.05a.91.91,0,0,0-.1.33.06.06,0,0,0,0,.06.09.09,0,0,0,0,.05.2.2,0,0,0,.09.07.17.17,0,0,0,.12,0l.07-.09s0,0,0,0v0a.31.31,0,0,1,0-.1l0,0,0,0,0,0,0,0,0,0h0a.14.14,0,0,0,.11,0,.2.2,0,0,0,.07-.09.16.16,0,0,0,0-.12.16.16,0,0,0-.09-.07h-.14l-.05,0-.09.07a.63.63,0,0,0-.12.23l.29.08a.83.83,0,0,1,.07-.27v0a.09.09,0,0,0,0-.05.06.06,0,0,0,0-.06.13.13,0,0,0-.07-.09.14.14,0,0,0-.11,0,.13.13,0,0,0-.09.07Z"/><path class="cls-10" d="M675.89,405.88a1.17,1.17,0,0,0-.15.68.15.15,0,0,0,0,.11.21.21,0,0,0,.11,0,.15.15,0,0,0,.15-.15.38.38,0,0,1,0-.15v-.06h0s0-.05,0-.07,0-.1,0-.14,0,0,0,0v0a.3.3,0,0,1,0-.08.14.14,0,0,0-.06-.2.15.15,0,0,0-.2.05Z"/><path class="cls-10" d="M675.73,406.34l.44.13a.16.16,0,0,0,.19-.11.16.16,0,0,0-.11-.18l-.44-.13a.16.16,0,0,0-.19.11.16.16,0,0,0,.11.18Z"/><path class="cls-10" d="M676.63,406a1.55,1.55,0,0,0-.16.73.17.17,0,0,0,.15.15c.08,0,.16-.07.15-.15v-.22s0,0,0-.08,0-.1,0-.15l0-.08s0,0,0,0v0a.14.14,0,0,0,0-.2.14.14,0,0,0-.2.05Z"/><path class="cls-10" d="M676.47,406.39l.39.1a.14.14,0,0,0,.11,0,.2.2,0,0,0,.07-.09.15.15,0,0,0-.1-.19l-.39-.1a.14.14,0,0,0-.11,0,.16.16,0,0,0-.07.09.14.14,0,0,0,.1.18Z"/><path class="cls-10" d="M676.92,406a1.69,1.69,0,0,0-.17.62.16.16,0,0,0,.13.15.16.16,0,0,0,.17-.11.14.14,0,0,1,0-.06s0,0,0,0h0l0,0h0s0,0,0,0h0s0,0,0,0h0s0,0,0,0,0,0,0,0,0,0,0,0,0,0,0,0v0h0a.21.21,0,0,0,0,.11.13.13,0,0,0,.07.09.14.14,0,0,0,.2-.05.55.55,0,0,0,.06-.28.29.29,0,0,0-.18-.21.29.29,0,0,0-.26.08.35.35,0,0,0-.12.21l.29,0a.15.15,0,0,0,0-.07h0v0a.69.69,0,0,1,0-.13s0-.08,0-.13a.08.08,0,0,1,0-.05h0v0l0,0a.15.15,0,0,0-.06-.2.15.15,0,0,0-.2.05Z"/><path class="cls-10" d="M677.33,406.45l-.05.14a.13.13,0,0,0,0,.06s0,0,0,.06a.08.08,0,0,0,0,0l0,0a.13.13,0,0,0,.12,0l0,0a.16.16,0,0,0,0-.07l0-.14a.13.13,0,0,0,0-.06.14.14,0,0,0,0-.06s0,0,0,0l0,0a.25.25,0,0,0-.12,0l0,0a.15.15,0,0,0,0,.07Z"/><path class="cls-10" d="M678,406.34h-.06l-.08,0,0,0,0,0,0,0s0,0,0,.05,0,0,0,.06a.14.14,0,0,0,0,.06.08.08,0,0,0,0,0l.05,0a.15.15,0,0,0,.11,0l0,0a.16.16,0,0,0,0-.07h0v0l0,0,0,0,0,0,0,0,0,0h0l.06,0a.05.05,0,0,0,0,0l0,0a.13.13,0,0,0,0-.06.15.15,0,0,0,0-.11s-.07-.05-.11,0Z"/><path class="cls-10" d="M678.37,406.48a.6.6,0,0,0,0,.47.15.15,0,0,0,.2.05l.23-.17-.22-.17a.91.91,0,0,0,0,.33.18.18,0,0,0,.08.13.16.16,0,0,0,.15,0,.75.75,0,0,0,.32-.29.15.15,0,0,0-.06-.21.15.15,0,0,0-.2.05l0,0v0h0l-.06.07h0l0,0-.08,0,.22.13v-.11l0-.14a.16.16,0,0,0,0-.16l-.07,0a.18.18,0,0,0-.1,0l-.23.17.21.06,0-.05,0,0a.45.45,0,0,1,0-.11v0a.24.24,0,0,1,0-.12v0a.31.31,0,0,1,0-.08.15.15,0,0,0-.1-.19.16.16,0,0,0-.19.11Z"/><path class="cls-10" d="M679.33,406.68a.39.39,0,0,0-.08.1.36.36,0,0,0,0,.11.24.24,0,0,0,0,.12.17.17,0,0,0,0,.07s0,.05,0,.08a.14.14,0,0,0,.11.07.13.13,0,0,0,.12,0,.54.54,0,0,0,.16-.26l-.25.07,0,0,0,0,0,0,0,0a.06.06,0,0,1,0,0v0a.13.13,0,0,0,0,.1.14.14,0,0,0,.21,0,.14.14,0,0,0,.05-.1.35.35,0,0,0-.1-.24.17.17,0,0,0-.15,0,.13.13,0,0,0-.1.1l0,0,0,0a.53.53,0,0,1-.06.1l0,0-.06.06.24,0h0l0,0a.08.08,0,0,1,0,0v0a.08.08,0,0,1,0-.07v0a.64.64,0,0,0,0-.07v0a.05.05,0,0,1,0,0l0,0,0,0a.15.15,0,0,0,0-.22.18.18,0,0,0-.1,0h0a.15.15,0,0,0-.07,0Z"/><path class="cls-10" d="M680,406.9l.21-.06-.18-.18c0,.12-.07.23-.11.35l0,0h0v0a.59.59,0,0,0,0,.08l-.09.17a.14.14,0,0,0,.06.2.15.15,0,0,0,.2-.05,2.79,2.79,0,0,0,.29-.72.15.15,0,0,0-.19-.18l-.21.05a.15.15,0,0,0-.11.18.16.16,0,0,0,.19.11Z"/><path class="cls-5" d="M633.35,454.2a18.08,18.08,0,0,1,3.75.09,1,1,0,0,0,.71-.29,1,1,0,0,0,0-1.41,1.17,1.17,0,0,0-.71-.3,18.08,18.08,0,0,0-3.75-.09,1,1,0,0,0,0,2Z"/><path class="cls-5" d="M632.59,453.18l-.2,3.72a11.2,11.2,0,0,0,.07,3.42,3.34,3.34,0,0,0,4.83,2,1,1,0,0,0-1-1.73,1.29,1.29,0,0,1-1.29,0,1,1,0,0,1-.48-.47,2.35,2.35,0,0,1-.21-1c0-.93.07-1.87.12-2.79l.17-3.14a1,1,0,1,0-2,0Z"/><path class="cls-5" d="M634.33,457.72h2.56a1,1,0,1,0,0-2h-2.56a1,1,0,0,0,0,2Z"/><text class="cls-11" transform="translate(897.29 349.88)"><tspan class="cls-12">C</tspan><tspan x="6.43" y="0">ommu</tspan><tspan class="cls-13" x="37.39" y="0">t</tspan><tspan x="41.15" y="0">e Options:</tspan><tspan class="cls-14"><tspan x="0" y="10.8">1) ~ 1hr 12 min </tspan></tspan><tspan class="cls-15"><tspan x="6" y="19.2">1.</tspan><tspan class="cls-16" x="10.18" y="19.2"> </tspan><tspan class="cls-17" x="12.01" y="19.2">w</tspan><tspan class="cls-18" x="18.05" y="19.2">alk</tspan><tspan class="cls-16" x="28.27" y="19.2"> </tspan><tspan class="cls-19" x="30.11" y="19.2">0</tspan><tspan class="cls-20" x="34.67" y="19.2">.</tspan><tspan class="cls-16" x="36.22" y="19.2">8mi </tspan><tspan class="cls-21" x="51.83" y="19.2">t</tspan><tspan class="cls-16" x="54.54" y="19.2">o G</tspan><tspan class="cls-22" x="66.17" y="19.2">r</tspan><tspan class="cls-16" x="68.92" y="19.2">a</tspan><tspan class="cls-23" x="73.04" y="19.2">n</tspan><tspan class="cls-16" x="77.8" y="19.2">d </tspan><tspan class="cls-24" x="84.38" y="19.2">A</tspan><tspan class="cls-16" x="89.21" y="19.2">v station</tspan><tspan class="cls-25" x="6" y="27.6">2</tspan><tspan x="10.09" y="27.6">. </tspan><tspan class="cls-16" x="13.56" y="27.6">ta</tspan><tspan class="cls-26" x="20.53" y="27.6">k</tspan><tspan class="cls-27" x="24.59" y="27.6">e t</tspan><tspan class="cls-28" x="33.49" y="27.6">h</tspan><tspan class="cls-16" x="38.25" y="27.6">e </tspan><tspan class="cls-29" x="44.31" y="27.6">M</tspan><tspan class="cls-16" x="50.99" y="27.6" xml:space="preserve"> or </tspan><tspan class="cls-30" x="61.86" y="27.6">R</tspan><tspan class="cls-16" x="66.92" y="27.6"> </tspan><tspan class="cls-31" x="68.75" y="27.6">f</tspan><tspan class="cls-16" x="71.06" y="27.6">or 2 s</tspan><tspan class="cls-21" x="89.32" y="27.6">t</tspan><tspan class="cls-16" x="92.03" y="27.6">ops </tspan><tspan class="cls-32" x="106.42" y="27.6">f</tspan><tspan class="cls-33" x="109.36" y="27.6">r</tspan><tspan class="cls-16" x="112.07" y="27.6">om </tspan></tspan><tspan class="cls-34"><tspan x="6" y="36">G</tspan><tspan class="cls-35" x="11.41" y="36">r</tspan><tspan x="14.16" y="36">a</tspan><tspan class="cls-2" x="18.29" y="36">n</tspan><tspan x="23.04" y="36">d </tspan><tspan class="cls-36" x="29.62" y="36">A</tspan><tspan x="34.46" y="36">v </tspan><tspan class="cls-37" x="40.08" y="36">t</tspan><tspan x="42.79" y="36">o J</tspan><tspan class="cls-38" x="52.52" y="36">a</tspan><tspan class="cls-39" x="56.67" y="36">c</tspan><tspan class="cls-40" x="60.55" y="36">k</tspan><tspan x="64.64" y="36">son Heights</tspan></tspan><tspan class="cls-15"><tspan x="6" y="44.4">3.</tspan><tspan class="cls-16" x="11.59" y="44.4" xml:space="preserve"> t</tspan><tspan class="cls-22" x="16.27" y="44.4">r</tspan><tspan class="cls-16" x="19.01" y="44.4">ans</tspan><tspan class="cls-31" x="31.3" y="44.4">f</tspan><tspan class="cls-16" x="33.61" y="44.4">er </tspan><tspan class="cls-21" x="42.48" y="44.4">t</tspan><tspan class="cls-16" x="45.19" y="44.4">o t</tspan><tspan class="cls-23" x="54.26" y="44.4">h</tspan><tspan class="cls-16" x="59.01" y="44.4">e </tspan><tspan class="cls-41" x="65.07" y="44.4">E</tspan><tspan class="cls-16" x="69.75" y="44.4" xml:space="preserve"> t</tspan><tspan class="cls-22" x="74.43" y="44.4">r</tspan><tspan class="cls-16" x="77.17" y="44.4">ain </tspan><tspan class="cls-42" x="89.76" y="44.4">f</tspan><tspan class="cls-43" x="92.69" y="44.4">r</tspan><tspan class="cls-16" x="95.41" y="44.4">om </tspan></tspan><tspan class="cls-34"><tspan x="6" y="52.8">J</tspan><tspan class="cls-2" x="9.51" y="52.8">a</tspan><tspan class="cls-44" x="13.65" y="52.8">c</tspan><tspan class="cls-45" x="17.54" y="52.8">k</tspan><tspan x="21.63" y="52.8">son Heights </tspan><tspan class="cls-46" x="65.46" y="52.8">t</tspan><tspan x="68.17" y="52.8">o Chamber St</tspan><tspan class="cls-47" x="6" y="61.2">4</tspan><tspan x="10.77" y="61.2">. </tspan><tspan class="cls-48" x="14.08" y="61.2">w</tspan><tspan class="cls-3" x="20.13" y="61.2">alk</tspan><tspan x="30.35" y="61.2"> </tspan><tspan class="cls-49" x="32.18" y="61.2">0</tspan><tspan x="36.74" y="61.2">.5mi </tspan><tspan class="cls-46" x="53.33" y="61.2">t</tspan><tspan x="56.04" y="61.2">o s</tspan><tspan class="cls-39" x="65.68" y="61.2">c</tspan><tspan class="cls-38" x="69.57" y="61.2">h</tspan><tspan x="74.32" y="61.2">ool</tspan></tspan></text></svg>