<svg id="_13._1_MV_MS_commute" data-name="13. (1) MV/MS commute" xmlns="http://www.w3.org/2000/svg" viewBox="0 0 1357.03 1080"><defs><style>.cls-1{fill:#c1272d;}.cls-2{fill:gray;}.cls-3{fill:#0039a6;}.cls-4{fill:#fccc0a;}.cls-5{fill:#ff6319;}.cls-6{fill:#fff;}.cls-7{fill:#8cca3e;}</style></defs><path class="cls-1" d="M854.89,497.53a1.14,1.14,0,0,1,.29.84v1.53h-.35v-1.49a.86.86,0,0,0-.21-.63.76.76,0,0,0-.58-.21.87.87,0,0,0-.67.25.94.94,0,0,0-.25.7v1.38h-.36v-3.71h.36v1.54a.88.88,0,0,1,.4-.36,1.34,1.34,0,0,1,.58-.12A1.08,1.08,0,0,1,854.89,497.53Z"/><path class="cls-1" d="M856.55,499.75a1.23,1.23,0,0,1-.48-.48,1.41,1.41,0,0,1,0-1.38,1.15,1.15,0,0,1,.48-.47,1.3,1.3,0,0,1,.68-.17,1.33,1.33,0,0,1,.69.17,1.18,1.18,0,0,1,.47.47,1.41,1.41,0,0,1,0,1.38,1.27,1.27,0,0,1-.47.48,1.44,1.44,0,0,1-.69.17A1.4,1.4,0,0,1,856.55,499.75Zm1.18-.27a.93.93,0,0,0,.35-.36,1.08,1.08,0,0,0,.13-.54,1,1,0,0,0-.13-.53.89.89,0,0,0-.35-.37,1,1,0,0,0-.5-.12,1,1,0,0,0-.5.12.89.89,0,0,0-.35.37,1,1,0,0,0-.13.53,1.08,1.08,0,0,0,.13.54.93.93,0,0,0,.35.36,1,1,0,0,0,.5.13A1,1,0,0,0,857.73,499.48Z"/><path class="cls-1" d="M863.35,497.53a1.14,1.14,0,0,1,.28.84v1.53h-.35v-1.49a.9.9,0,0,0-.2-.63.73.73,0,0,0-.56-.21.81.81,0,0,0-.64.25,1,1,0,0,0-.24.7v1.38h-.35v-1.49a.9.9,0,0,0-.2-.63.73.73,0,0,0-.56-.21.85.85,0,0,0-.65.25,1,1,0,0,0-.23.7v1.38h-.36v-2.63h.34v.48a1,1,0,0,1,.39-.37,1.21,1.21,0,0,1,.58-.13,1,1,0,0,1,.57.14.85.85,0,0,1,.36.41,1.1,1.1,0,0,1,.42-.41,1.26,1.26,0,0,1,.62-.14A1.05,1.05,0,0,1,863.35,497.53Z"/><path class="cls-1" d="M866.9,498.69h-2.2a.94.94,0,0,0,.31.66,1,1,0,0,0,.72.26,1.13,1.13,0,0,0,.45-.09,1,1,0,0,0,.36-.26l.2.23a1.16,1.16,0,0,1-.44.32,1.58,1.58,0,0,1-.58.11,1.53,1.53,0,0,1-.72-.17,1.3,1.3,0,0,1-.48-.48,1.31,1.31,0,0,1-.18-.69,1.41,1.41,0,0,1,.17-.69,1.16,1.16,0,0,1,.46-.47,1.35,1.35,0,0,1,1.31,0,1.22,1.22,0,0,1,.46.47,1.41,1.41,0,0,1,.16.69Zm-1.91-.9a1,1,0,0,0-.29.64h1.86a1,1,0,0,0-.29-.64.91.91,0,0,0-.64-.24A.89.89,0,0,0,865,497.79Z"/><path class="cls-2" d="M847.25,490.38c-2.74-2.66-4.82-7.16-3.71-11a6.67,6.67,0,0,1,3.66-3.87,15.05,15.05,0,0,1,3.15-1.09c.55-.14,1.11-.26,1.67-.38.23-.05,1.08-.37,1.33-.25a1.55,1.55,0,0,0,2-.54,1.51,1.51,0,0,0-.54-2.05c-1.38-.64-2.72-.26-4.14.05a23.38,23.38,0,0,0-4.1,1.25,10.2,10.2,0,0,0-5.61,5.11,12,12,0,0,0-.08,8,16.06,16.06,0,0,0,4.2,6.92c1.38,1.34,3.51-.78,2.12-2.13Z"/><path class="cls-2" d="M853.85,475.43c3.86,0,3.87-6,0-6s-3.87,6,0,6Z"/><path class="cls-2" d="M848.85,496.43c3.86,0,3.87-6,0-6s-3.87,6,0,6Z"/><path class="cls-1" d="M850,496.08c3.86,0,3.87-6,0-6s-3.87,6,0,6Z"/><path class="cls-2" d="M611.36,530.2l-2.89-2.59a14.47,14.47,0,0,1-2.42-2.31,2.26,2.26,0,0,0-.16-.26c-.21-.33,0,.13,0-.07a4.18,4.18,0,0,1-.16-.58c.07.29,0,0,0-.07s0-.22,0-.33,0-.18,0-.27c0,.3,0,0,0-.07s0-.22.09-.33.13-.37.06-.2.09-.18.09-.18.09-.16.14-.23.23-.32.11-.18.16-.15.15-.15l.2-.18c-.22.2.09-.05.13-.08a1.5,1.5,0,1,0-1.52-2.59A5.41,5.41,0,0,0,603,526a9.15,9.15,0,0,0,2.7,3.23l3.51,3.14a1.54,1.54,0,0,0,2.12,0,1.51,1.51,0,0,0,0-2.12Z"/><path class="cls-2" d="M606.63,522.86c3.87,0,3.87-6,0-6s-3.86,6,0,6Z"/><path class="cls-2" d="M610.4,534.69c3.86,0,3.87-6,0-6s-3.87,6,0,6Z"/><path class="cls-1" d="M606.9,523.39c3.86,0,3.87-6,0-6s-3.86,6,0,6Z"/><path class="cls-3" d="M612.6,531.6c8.7-5.21,7.7-16.49,8.13-25.18a43,43,0,0,1,3.91-15.15c1-2.34,2.09-4.65,3.09-7a30.76,30.76,0,0,0,2.49-7c.39-2.42-.64-4.36-2-6.3a10.34,10.34,0,0,1-2.2-6.6c.29-5.26,3.68-10.16,6.16-14.62q8.19-14.71,16.94-29.09c1.45-2.38,2.89-4.76,4.38-7.12,1.22-1.93,2.7-4,5.21-4.07s5.09,1.6,7.24,2.94l7.36,4.62,29.23,18.34c8.31,5.22,17.07,11,27.19,11.42A23.63,23.63,0,0,0,742.57,444a38.88,38.88,0,0,0,5.23-4.19c2.15-1.78,4.93-2.13,7.57-2.72,5.46-1.21,10.91-2.47,16.37-3.62a41.84,41.84,0,0,1,8.25-1.09,21.41,21.41,0,0,1,7.72,1.45,13.69,13.69,0,0,0,7.29.88,16.44,16.44,0,0,1,4-.39,12.52,12.52,0,0,1,4.19,1.24c5,2.33,9.86,5.4,14.66,8.2,2.38,1.39,4.75,2.81,7.11,4.23,1.1.67,2.11-1.06,1-1.73q-7.4-4.46-14.92-8.71c-4.4-2.48-9.12-5.84-14.43-5.13a30.51,30.51,0,0,1-3.92.53,11.45,11.45,0,0,1-4-.89,24.68,24.68,0,0,0-7.76-1.68c-5.42-.14-10.8,1.39-16,2.56l-8.36,1.85a41.43,41.43,0,0,0-7.46,1.9c-2.26,1-3.77,2.91-5.68,4.38a18,18,0,0,1-6.15,3c-10,2.77-19.81-1.89-28.18-7-9.82-6-19.48-12.19-29.2-18.29-4.85-3-9.63-6.24-14.57-9.12-2.07-1.21-4.46-2.33-6.92-2.13a7.34,7.34,0,0,0-5.1,3,63.43,63.43,0,0,0-4.17,6.49c-1.48,2.4-2.94,4.82-4.4,7.24q-4.36,7.27-8.58,14.62c-2.84,4.95-5.66,9.93-8.37,14.95-2.22,4.1-4.47,8.91-3.4,13.68.52,2.31,2,4,3.16,6,1.49,2.58.42,5-.59,7.61-1.86,4.73-4.24,9.25-5.94,14.05-1.86,5.21-2.26,10.41-2.35,15.9-.08,4.84-.27,9.87-2.67,14.22a12.14,12.14,0,0,1-4.35,4.62,1,1,0,0,0,1,1.72Z"/><path class="cls-4" d="M829.4,449c4.94,1.76,9.58,4.88,13.81,7.94A21.82,21.82,0,0,1,851.73,469a1,1,0,0,0,1.93-.54,23.59,23.59,0,0,0-8.79-12.76c-2.28-1.72-4.72-3.25-7.15-4.75a41.32,41.32,0,0,0-7.79-3.88c-1.22-.43-1.74,1.5-.53,1.93Z"/><path class="cls-5" d="M827.26,450.82c4.94,1.75,9.58,4.88,13.81,7.94a21.72,21.72,0,0,1,8.52,12.05,1,1,0,0,0,1.93-.53,23.65,23.65,0,0,0-8.79-12.77c-2.27-1.72-4.72-3.24-7.15-4.74a41.32,41.32,0,0,0-7.79-3.88c-1.21-.43-1.74,1.5-.53,1.93Z"/><path class="cls-5" d="M829.44,458.06a19.07,19.07,0,0,0,.3,5,1,1,0,0,0,1.23.7,1,1,0,0,0,.7-1.23c0-.2-.07-.39-.1-.59s0-.21-.05-.32c0,.18,0,0,0-.09,0-.38-.08-.76-.1-1.14a18.1,18.1,0,0,1,0-2.33,1,1,0,0,0-1-1,1,1,0,0,0-1,1Z"/><path class="cls-5" d="M830.1,458.57l2.25,2.2a1,1,0,0,0,1,.25,1,1,0,0,0,.7-.7l.12-.33h0l.07-.16c.1-.21.19-.41.3-.6a11.3,11.3,0,0,1,.7-1.17H833.5c.09.17.18.34.26.51a2.72,2.72,0,0,1,.11.25s.12.27.08.16,0-.05,0,0,0,.11.07.17l.09.25.18.5a13.48,13.48,0,0,1,.49,2.18,1,1,0,0,0,1.23.7,1,1,0,0,0,.7-1.23,13.64,13.64,0,0,0-1.51-4.55,1,1,0,0,0-.86-.5,1,1,0,0,0-.86.5,12.21,12.21,0,0,0-1.4,2.74l1.67-.44-2.25-2.2a1,1,0,1,0-1.42,1.42Z"/><path class="cls-4" d="M844.33,448a23.49,23.49,0,0,0,.64,5.67,1,1,0,1,0,1.92-.53c-.1-.44-.19-.89-.27-1.34,0-.2-.07-.41-.1-.62s0,.06,0-.15,0-.24,0-.36a21.7,21.7,0,0,1-.13-2.67,1,1,0,0,0-1-1,1,1,0,0,0-1,1Z"/><path class="cls-4" d="M846.58,448.68a3.89,3.89,0,0,1,.34-.36s.23-.18.05-.05l.2-.13.21-.12c-.12.07-.08,0,0,0l.23-.06c.11,0-.2,0,0,0,0,0,.2,0,.23,0-.13,0-.16,0-.09,0l.11,0,.11,0c.07,0,0,0-.07,0a1.14,1.14,0,0,1,.19.1L848,448l.11.1c.13.11,0-.09,0,0l0,.09c0-.12-.06-.15,0-.08l0,.1c0,.09,0,.09,0,0s0-.08,0,0v.07s0,.1,0,.14l0-.12a1.29,1.29,0,0,0-.05.21l0,.1,0-.07c0,.06-.08.15-.11.2l0,.06c-.07.09-.06.08,0,0,0,0-.1.1-.12.13l-.09.08c.08-.07.1-.08,0,0a3,3,0,0,1-.39.22c.21-.1,0,0-.06,0l-.24.07-.24.06h-.06l-.49,0a1,1,0,0,0-1,.87,1,1,0,0,0,.71,1.09,11.87,11.87,0,0,1,2.28.64h0l.16.07.25.12.51.26a10.43,10.43,0,0,1,1,.65,1,1,0,0,0,1.37-.36,1,1,0,0,0-.36-1.37,11.38,11.38,0,0,0-4.67-1.93l-.26,2a4.51,4.51,0,0,0,2.85-1,2.78,2.78,0,0,0,.88-2.69,2.41,2.41,0,0,0-2.34-1.75,3.44,3.44,0,0,0-2.6,1.3,1,1,0,0,0,0,1.42,1,1,0,0,0,1.41,0Z"/><path class="cls-1" d="M595.9,513.7a1.41,1.41,0,0,1-.46-.23l.16-.28a1.18,1.18,0,0,0,.42.21,1.53,1.53,0,0,0,.52.08.93.93,0,0,0,.53-.11.34.34,0,0,0,.17-.31.29.29,0,0,0-.09-.23.7.7,0,0,0-.24-.13l-.39-.08-.51-.12a.72.72,0,0,1-.33-.21.56.56,0,0,1-.14-.42.65.65,0,0,1,.27-.54,1.26,1.26,0,0,1,.77-.21,1.79,1.79,0,0,1,.51.07,1.16,1.16,0,0,1,.42.18l-.16.28a1.3,1.3,0,0,0-.77-.23.87.87,0,0,0-.51.12.37.37,0,0,0-.18.32.33.33,0,0,0,.1.24.7.7,0,0,0,.24.13l.4.09.51.12a.75.75,0,0,1,.32.21.55.55,0,0,1,.14.39.64.64,0,0,1-.29.55,1.34,1.34,0,0,1-.8.2A2.1,2.1,0,0,1,595.9,513.7Z"/><path class="cls-1" d="M598.65,513.62a1.23,1.23,0,0,1-.49-.47,1.47,1.47,0,0,1-.17-.69,1.41,1.41,0,0,1,.17-.69,1.19,1.19,0,0,1,.49-.48,1.41,1.41,0,0,1,.69-.17,1.33,1.33,0,0,1,.61.13,1,1,0,0,1,.42.39l-.26.18a.83.83,0,0,0-.33-.29.92.92,0,0,0-.44-.1,1,1,0,0,0-.51.13.81.81,0,0,0-.35.36,1.05,1.05,0,0,0-.13.54,1,1,0,0,0,.13.53.81.81,0,0,0,.35.36,1,1,0,0,0,.51.13,1,1,0,0,0,.44-.09.91.91,0,0,0,.33-.29l.26.17a1,1,0,0,1-.42.39,1.33,1.33,0,0,1-.61.13A1.31,1.31,0,0,1,598.65,513.62Z"/><path class="cls-1" d="M603.16,511.41a1.14,1.14,0,0,1,.29.84v1.52h-.36v-1.49a.88.88,0,0,0-.2-.63.79.79,0,0,0-.59-.21.9.9,0,0,0-.67.25,1,1,0,0,0-.25.7v1.38H601v-3.71h.35v1.54a1,1,0,0,1,.4-.35,1.25,1.25,0,0,1,.59-.13A1.1,1.1,0,0,1,603.16,511.41Z"/><path class="cls-1" d="M604.81,513.62a1.27,1.27,0,0,1-.48-.47,1.47,1.47,0,0,1-.17-.69,1.41,1.41,0,0,1,.17-.69,1.23,1.23,0,0,1,.48-.48,1.47,1.47,0,0,1,.69-.17,1.4,1.4,0,0,1,.68.17,1.11,1.11,0,0,1,.48.48,1.31,1.31,0,0,1,.17.69,1.36,1.36,0,0,1-.17.69,1.15,1.15,0,0,1-.48.47,1.3,1.3,0,0,1-.68.17A1.36,1.36,0,0,1,604.81,513.62Zm1.19-.27a.81.81,0,0,0,.35-.36,1.18,1.18,0,0,0,.12-.53,1.16,1.16,0,0,0-.12-.54.81.81,0,0,0-.35-.36.93.93,0,0,0-.5-.13.91.91,0,0,0-.5.13.81.81,0,0,0-.35.36,1.05,1.05,0,0,0-.13.54,1.07,1.07,0,0,0,.13.53.81.81,0,0,0,.35.36.91.91,0,0,0,.5.13A.93.93,0,0,0,606,513.35Z"/><path class="cls-1" d="M608,513.62a1.21,1.21,0,0,1-.48-.47,1.37,1.37,0,0,1-.18-.69,1.31,1.31,0,0,1,.18-.69,1.17,1.17,0,0,1,.48-.48,1.47,1.47,0,0,1,1.37,0,1.23,1.23,0,0,1,.48.48,1.41,1.41,0,0,1,.17.69,1.47,1.47,0,0,1-.17.69,1.27,1.27,0,0,1-.48.47,1.47,1.47,0,0,1-1.37,0Zm1.19-.27a.85.85,0,0,0,.34-.36,1.07,1.07,0,0,0,.13-.53,1.05,1.05,0,0,0-.13-.54.85.85,0,0,0-.34-.36,1,1,0,0,0-.51-.13,1,1,0,0,0-.5.13.87.87,0,0,0-.35.36,1.16,1.16,0,0,0-.13.54,1.19,1.19,0,0,0,.13.53.87.87,0,0,0,.35.36,1,1,0,0,0,.5.13A1,1,0,0,0,609.14,513.35Z"/><path class="cls-1" d="M610.69,510.06h.36v3.71h-.36Z"/><path class="cls-1" d="M702.34,388a5.27,5.27,0,0,0-5.87,2.49c-1,1.85-.84,4.88,1.09,6.11s5.24-.47,6.62-2c2.06-2.24.14-4.25-1.4-6.09-.74-.89-2,.39-1.27,1.27.93,1.11,2.46,2.26,1.26,3.7-.71.85-3.36,2.34-4.43,1.41s-.79-2.88-.11-3.87a3.45,3.45,0,0,1,3.63-1.31c1.13.25,1.61-1.48.48-1.74Z"/><path class="cls-1" d="M703.42,393.59c1.13.85-9.92,11-1.25,10.64,1.15-.05,1.16-1.85,0-1.8-2.21.1-.49-2.57.06-3.43.71-1.14,1.53-2.19,2.28-3.3.9-1.32,1.21-2.61-.19-3.66-.92-.7-1.82.87-.9,1.55Z"/><path class="cls-1" d="M696.52,396.06a61.69,61.69,0,0,0-4.58,7.38c-.66,1.28-1.11,3.07-2,4.18-1.13,1.43-3.14,2.1-4.83,2.52-4.23,1-5.8,2.38-7.37,6.59-.4,1.08,1.34,1.55,1.74.47,1.38-3.68,3.71-4.61,7.25-5.63a8.5,8.5,0,0,0,3.94-1.91c1.49-1.53,2.14-4,3.13-5.91a61.25,61.25,0,0,1,4.27-6.78c.68-.94-.88-1.84-1.55-.91Z"/><path class="cls-1" d="M689.29,409.39c-1,1.27-3.21,3.13-3.31,4.87a8.82,8.82,0,0,0,.59,2.51,22.35,22.35,0,0,1,.55,4.39c0,1.16,1.84,1.16,1.8,0a23.53,23.53,0,0,0-.62-4.87c-.31-1.27-.66-1.54.11-2.92a22.24,22.24,0,0,1,2.15-2.71c.72-.9-.55-2.18-1.27-1.27Z"/><path class="cls-1" d="M694,400.08c-1.13-.68-2.28-1.33-3.46-1.91-.83-.4-2-1.24-3-1.24-1.76,0-3.73,2.46-5,3.51-.9.74.38,2,1.27,1.27,1.44-1.19,2.86-3.12,4.82-2.45a24.32,24.32,0,0,1,4.44,2.38c1,.6,1.9-1,.91-1.56Z"/><path class="cls-1" d="M692.35,400.63c-1.08.82-2.15,1.64-3.3,2.36a8.42,8.42,0,0,1-1.81,1,2.66,2.66,0,0,1-2.93-1.07c-.79-.85-2.06.42-1.27,1.27,1.27,1.36,2.62,2.31,4.51,1.63a22.88,22.88,0,0,0,5.71-3.64c.91-.69,0-2.25-.91-1.55Z"/><path class="cls-6" d="M670.4,396.75a47.94,47.94,0,0,0,9.42,1.81.73.73,0,0,1,.44.15.65.65,0,0,1,.15.24l1,2.34a4.19,4.19,0,0,1,.41,1.36,3.67,3.67,0,0,1-.09.93,18.74,18.74,0,0,1-1,3.6l-11.6-1.45a66.28,66.28,0,0,0,.9-8.89"/><path class="cls-6" d="M670.32,397a50.09,50.09,0,0,0,8.9,1.77c.36,0,.69,0,.93.29a5.57,5.57,0,0,1,.5,1.17,9.45,9.45,0,0,1,.83,2.22,6.46,6.46,0,0,1-.35,2.38,19.36,19.36,0,0,1-.73,2.23l.29-.22-11.6-1.45.29.38a69.19,69.19,0,0,0,.91-9,.3.3,0,0,0-.6,0,68.65,68.65,0,0,1-.89,8.81.31.31,0,0,0,.29.38l11.6,1.45c.14,0,.25-.11.29-.22a21.18,21.18,0,0,0,.79-2.45,6.56,6.56,0,0,0,.31-2.36,7.67,7.67,0,0,0-.72-2l-.54-1.29a1.65,1.65,0,0,0-.41-.7,1.12,1.12,0,0,0-.59-.19c-.47-.06-1-.09-1.43-.15-.93-.11-1.85-.25-2.77-.42a49.91,49.91,0,0,1-5.14-1.23.3.3,0,0,0-.16.58Z"/><path d="M669.85,404.62l10.48,1.76c1.51.25,2.16-2.06.64-2.31l-10.49-1.76c-1.51-.26-2.16,2.05-.63,2.31Z"/><path class="cls-7" d="M671.34,398.46c0-.09.23-.15.34-.2a1,1,0,0,1,.51-.1c.28,0,.41.37.46.62a1.8,1.8,0,0,1-.12,1.1.86.86,0,0,1-.26.36.69.69,0,0,1-.45.06,1.94,1.94,0,0,1-1.06-.5c-.28-.26-.7.16-.42.42a2.47,2.47,0,0,0,1.34.66,1.43,1.43,0,0,0,.82-.08,1.2,1.2,0,0,0,.5-.52,2.5,2.5,0,0,0,.24-1.59,1.3,1.3,0,0,0-.8-1.08,1.4,1.4,0,0,0-.9.06,1.25,1.25,0,0,0-.72.49.31.31,0,0,0,.11.41.3.3,0,0,0,.41-.11Z"/><path class="cls-7" d="M672.54,400.43a2.32,2.32,0,0,0-.21,1.37.15.15,0,0,0,.18.11.15.15,0,0,0,.1-.19,2,2,0,0,1,.19-1.13.16.16,0,0,0-.06-.21.15.15,0,0,0-.2.05Z"/><path class="cls-7" d="M672.6,400.41l.44.55c.07.09.21,0,.25-.07l.39-1.11-.29,0,.17,1.62a.16.16,0,0,0,.15.15.15.15,0,0,0,.15-.15l-.17-1.62a.15.15,0,0,0-.3,0l-.39,1.11.25-.06-.43-.55a.17.17,0,0,0-.22,0,.15.15,0,0,0,0,.21Z"/><path class="cls-7" d="M673.87,399.74a.66.66,0,0,0,.51.09.16.16,0,0,0,.11-.19.15.15,0,0,0-.19-.1h-.1l-.12,0,0,0a.19.19,0,0,1-.09,0,.18.18,0,0,0-.12,0,.16.16,0,0,0-.09.07.17.17,0,0,0,0,.12.22.22,0,0,0,.07.09Z"/><path class="cls-7" d="M673.81,399.54a1.08,1.08,0,0,0,0,1,.56.56,0,0,0,.36.3.36.36,0,0,0,.42-.25.14.14,0,0,0-.11-.18.15.15,0,0,0-.18.1s0,0,0,0,0,0,0,0,0,0,0,0,0,0,0,0h0s0,0,0,0,0,0,0,0h0a.22.22,0,0,1-.1-.09.47.47,0,0,1-.07-.12.77.77,0,0,1,0-.63.15.15,0,0,0-.05-.2.16.16,0,0,0-.21.05Z"/><path class="cls-7" d="M674,400.43l.47-.11a.14.14,0,0,0,.1-.18.16.16,0,0,0-.18-.11l-.47.11a.15.15,0,0,0-.11.18.18.18,0,0,0,.19.11Z"/><path class="cls-7" d="M674.62,399.67a2.63,2.63,0,0,0,1.08,0,.15.15,0,0,0,.1-.19.14.14,0,0,0-.18-.1,2.38,2.38,0,0,1-.92,0,.16.16,0,0,0-.19.1.17.17,0,0,0,.11.19Z"/><path class="cls-7" d="M675,399.57a2.44,2.44,0,0,0-.16,1,.15.15,0,0,0,.3,0,2.22,2.22,0,0,1,.15-.89.15.15,0,0,0-.1-.19.16.16,0,0,0-.19.11Z"/><path class="cls-7" d="M675.47,399.91l-.13.37a.24.24,0,0,0,0,.12.2.2,0,0,0,.09.07.17.17,0,0,0,.19-.11l.12-.37a.13.13,0,0,0,0-.12.16.16,0,0,0-.09-.07.15.15,0,0,0-.18.11Z"/><path class="cls-7" d="M675.77,400l.1,0h0s0,0,0,0h0s0,0,0,0h0s0,0,0,0v0h0v0s0,0,0,0,0,0,0,0h-.19a.16.16,0,0,0-.14.09.15.15,0,0,0,0,.16l.07.09,0,0s0,0,0,0l0,0c0,.06.09.12.13.19a.15.15,0,0,0,.2,0,.16.16,0,0,0,.06-.21,3.9,3.9,0,0,0-.31-.4l-.1.26a.65.65,0,0,0,.31,0,.27.27,0,0,0,0-.51.45.45,0,0,0-.34,0,.14.14,0,0,0-.1.18.15.15,0,0,0,.18.11Z"/><path class="cls-7" d="M676.23,399.69a.56.56,0,0,0-.06.38.28.28,0,0,0,.31.22.32.32,0,0,0,.18-.06.93.93,0,0,0,.14-.14l.06-.14a.28.28,0,0,0,0-.12.5.5,0,0,0,0-.13.46.46,0,0,0-.17-.14.68.68,0,0,0-.23-.07.18.18,0,0,0-.15.15.16.16,0,0,0,.05.11l0,0a.08.08,0,0,0,.07,0h0a.2.2,0,0,1,.11,0l0,0,.1.06,0,0,0,0,0,0v0l0,0v0s0,0,0,0v0a.51.51,0,0,1-.09.16l0,0-.06.06,0,0,0,0,0,0-.06,0h0l0,0,0,0,0,0,0,0,0,0v0a.43.43,0,0,1,0-.05v0a.19.19,0,0,1,0-.1l0,0,0-.06a.17.17,0,0,0,0-.12.2.2,0,0,0-.07-.09.17.17,0,0,0-.21.05Z"/><path class="cls-7" d="M677,399.4a1,1,0,0,0-.1.62.47.47,0,0,0,.12.27.34.34,0,0,0,.35,0,.15.15,0,0,0,0-.21.15.15,0,0,0-.2-.05h0s0,0,0,0h0s0,0,0,0h0v0s0,0,0,0v0h0s0,0,0,0a.13.13,0,0,1,0-.06s0,0,0,0v0a.34.34,0,0,1,0-.1h0s0,0,0,0a.43.43,0,0,0,0,0l0-.1,0-.05s0,0,0,0,0,0,0,0a.17.17,0,0,0,0-.21.16.16,0,0,0-.21.06Z"/><path class="cls-7" d="M677.63,400.19c.07-.22.14-.42.22-.63l-.27,0a2.75,2.75,0,0,1,.17.29s0,.06,0,0l0,0,0,.07c0,.06,0,.11,0,.17a.15.15,0,0,0,.19.1.14.14,0,0,0,.1-.18,1.65,1.65,0,0,0-.3-.66.13.13,0,0,0-.14-.07.15.15,0,0,0-.13.11c-.07.21-.15.42-.21.63a.14.14,0,0,0,.1.18.14.14,0,0,0,.18-.1Z"/><path class="cls-7" d="M677.67,400.18a.2.2,0,0,0,.11,0h.07l.06,0a.05.05,0,0,0,.05,0l0-.05a.07.07,0,0,0,0-.05.15.15,0,0,0,0-.11l0,0a.11.11,0,0,0-.08,0h0l-.07,0h-.06l-.06,0,0,0,0,.05a.14.14,0,0,0,0,.11l0,0,.07,0Z"/><path class="cls-7" d="M678.07,399.56a1.75,1.75,0,0,0-.05.6.15.15,0,0,0,.15.15.16.16,0,0,0,.15-.15,1.31,1.31,0,0,1,0-.28v-.08h0v0l0-.14a.14.14,0,0,0-.11-.18.15.15,0,0,0-.18.1Z"/><path class="cls-7" d="M678.27,399.81h.12l.09,0s0,0,0,0h0s0,0,0,0a.08.08,0,0,1,0-.08.05.05,0,0,1,0,0h0l0,0h0l-.19.07a.15.15,0,0,0-.07.25,2.5,2.5,0,0,1,.23.23l.11.13h0l0,0a.18.18,0,0,1,0,.07.15.15,0,1,0,.26-.16,4,4,0,0,0-.47-.54l-.06.25c.09,0,.19,0,.28-.09a.26.26,0,0,0,.14-.29.35.35,0,0,0-.27-.2.55.55,0,0,0-.31,0,.16.16,0,0,0-.11.19.16.16,0,0,0,.19.1Z"/><path class="cls-7" d="M679,399.75a3.46,3.46,0,0,0-.21.78.22.22,0,0,0,0,.11.16.16,0,0,0,.09.07.14.14,0,0,0,.18-.1,3.46,3.46,0,0,1,.21-.78.15.15,0,0,0-.11-.19.15.15,0,0,0-.18.11Z"/><path class="cls-7" d="M679.19,400h0s0,0,0,0h0l0,0h0l0,0h0v.12h0v0l0,.05s0,0,0,0l0,.06,0,0s0,0,0,0l0,0s0,0,0,0h-.06l-.05,0,0,0a.34.34,0,0,0-.12.12.16.16,0,0,0,.06.21.15.15,0,0,0,.2-.06v0s0,0,0,0h0s0,0,0,0l.15-.07a.72.72,0,0,0,.23-.36.53.53,0,0,0,0-.41.4.4,0,0,0-.34-.2.15.15,0,0,0,0,.3Z"/><path class="cls-7" d="M674.43,401.77a2.55,2.55,0,0,1,1.77-.74,10.87,10.87,0,0,1,2.35-.07l0-.29a17,17,0,0,0-2.81.78.15.15,0,0,0,0,.29,1.89,1.89,0,0,0,.75,0l.41-.05c.07,0,.35-.1.4,0l0-.11v0c0,.19.33.19.3,0s-.35-.24-.58-.21a3,3,0,0,1-1.16.07v.29a17,17,0,0,1,2.81-.78c.17,0,.12-.29,0-.3a11.22,11.22,0,0,0-2.59.11,2.58,2.58,0,0,0-1.79.85c-.11.15.15.3.26.15Z"/><path class="cls-7" d="M676.59,401.9a.24.24,0,0,0-.22,0,.31.31,0,0,0-.18.16.27.27,0,0,0,0,.26.2.2,0,0,0,.08.08l0,0,0,0h0l0,0h0l0,0h0v-.08a0,0,0,0,1,0,0l0,0v0l0,0h0a.14.14,0,0,0-.11,0,.12.12,0,0,0,0,.11.12.12,0,0,0,0,.1.16.16,0,0,0,.11.05l.16,0a.22.22,0,0,0,.12-.16.21.21,0,0,0,0-.2.53.53,0,0,0-.1-.06l0,0h0l0,0h0v0h0v.06s0,0,0-.05l0,0,0-.06,0,0,0,0,0,0,0,0,0,0h0a.16.16,0,0,0,.12,0,.2.2,0,0,0,.09-.07.25.25,0,0,0,0-.12.15.15,0,0,0-.07-.09Z"/><path class="cls-7" d="M676.58,401.84a1.16,1.16,0,0,0,.14.73.16.16,0,0,0,.21.05.14.14,0,0,0,.05-.2l0-.07s0,0,0,0,0,0,0,0l0-.14s0-.05,0-.07v0s0,0,0,0V402s0,0,0,0v0a.14.14,0,0,0-.1-.18.15.15,0,0,0-.19.1Z"/><path class="cls-7" d="M676.59,402.33a.77.77,0,0,0,.39-.2.15.15,0,0,0,0-.11.13.13,0,0,0,0-.1.16.16,0,0,0-.11-.05.14.14,0,0,0-.1.05l-.06.05,0,0a.57.57,0,0,1-.13.08l0,0a.33.33,0,0,1-.13,0,.13.13,0,0,0-.09.07.16.16,0,0,0,0,.12.2.2,0,0,0,.07.09h.12Z"/><path class="cls-7" d="M676.86,402a.46.46,0,0,0,0,.2.33.33,0,0,0,.19.16.2.2,0,0,0,.19-.06l.06-.05.1-.17a.73.73,0,0,0,.06-.21.13.13,0,0,0,0-.06l0-.05a.2.2,0,0,0-.09-.07.16.16,0,0,0-.19.11.53.53,0,0,1,0,.16l0,0a.67.67,0,0,1-.09.14l0,0-.06.07,0,0h.1l0,0,0,0,0,0,0,0s0,0,0,0v0s0,0,0-.06v0a.21.21,0,0,0,0-.11.15.15,0,0,0-.11,0,.12.12,0,0,0-.1,0,.22.22,0,0,0,0,.11Z"/><path class="cls-7" d="M677.64,401.5a.7.7,0,0,0,0,.32l.15-.15h0l0,0,0,0a.16.16,0,0,0-.12,0l0,0-.06,0a.42.42,0,0,0-.07.24.15.15,0,0,0,.3,0v0s0,0,0-.06v0l0-.06-.2.06a.38.38,0,0,0,.19.05.18.18,0,0,0,.15-.15v-.07a.85.85,0,0,1,0-.17.13.13,0,0,0,0-.12.2.2,0,0,0-.09-.07.17.17,0,0,0-.12,0l0,0a.16.16,0,0,0,0,.07Z"/><path class="cls-7" d="M678.14,401.85a.49.49,0,0,0,.23-.26.23.23,0,0,0,0-.24.2.2,0,0,0-.25,0,.5.5,0,0,0-.2.3.47.47,0,0,0,0,.35.49.49,0,0,0,.28.25.15.15,0,0,0,.19-.11.15.15,0,0,0-.11-.18s0,0,0,0l0,0h0l0,0a0,0,0,0,1,0,0s0,0,0,0a.13.13,0,0,1,0-.05v0s0,0,0,0v0a0,0,0,0,1,0,0h0v0s0,0,0,0a.13.13,0,0,0,0-.06s0,0,0,0v-.05s0,0,0,0l0,0s0,0,0,0h0c-.08,0-.14,0-.16-.07v0h0l0,0h0l-.05,0h0l0,0a.16.16,0,0,0,0,.21.15.15,0,0,0,.2.05Z"/><path class="cls-7" d="M678.32,401.48a.66.66,0,0,0,0,.15.43.43,0,0,0,0,.11.14.14,0,0,0,.16.11.14.14,0,0,0,.13-.15s0,0,0-.06v0a.66.66,0,0,1,0-.15v0l0,0,0,0,0,0,0,0h0l0,0h0l.05,0,0,0,.06.06,0,0a.54.54,0,0,1,.07.13l0,0a.72.72,0,0,1,.07.25.15.15,0,0,0,.19.1.14.14,0,0,0,.1-.18,1,1,0,0,0-.15-.4.41.41,0,0,0-.22-.17.23.23,0,0,0-.29.12.79.79,0,0,0-.08.3l.3,0a0,0,0,0,1,0,0v0a.09.09,0,0,1,0-.05v0s0,0,0-.06v0h0a.14.14,0,0,0,0-.11.16.16,0,0,0-.07-.09.17.17,0,0,0-.12,0,.2.2,0,0,0-.09.07Z"/><path class="cls-7" d="M678.91,401.22a.7.7,0,0,0,0,.43.13.13,0,0,0,.07.09.15.15,0,0,0,.11,0,.22.22,0,0,0,.09-.07.17.17,0,0,0,0-.12.65.65,0,0,1,0-.13v0a.43.43,0,0,1,0-.16v0s0,0,0-.06a.25.25,0,0,0,0-.12.11.11,0,0,0-.09-.06.17.17,0,0,0-.12,0,.15.15,0,0,0-.06.09Z"/><path class="cls-7" d="M678.8,401.49l.42.14a.15.15,0,0,0,.18-.11.15.15,0,0,0-.1-.18l-.42-.14a.15.15,0,0,0-.19.1.16.16,0,0,0,.11.19Z"/><path class="cls-7" d="M677.65,402.61l0,.05s0,.06.09.07a.11.11,0,0,0,.1,0,.14.14,0,0,0,.09-.17l0-.12v0a.89.89,0,0,1,0-.23v0a.43.43,0,0,0,0,0v0l0,0h0l0,0,0,0,0,0H678a.7.7,0,0,1,.14,0h0l0,0h0l0,0h0v0h0v0h0v0h0v0h0l0,0h0l0,0-.1.05,0,0-.12,0a.11.11,0,0,0-.09.07.15.15,0,0,0,0,.11.16.16,0,0,0,.07.09.16.16,0,0,0,.12,0,.6.6,0,0,0,.28-.13.17.17,0,0,0,0-.26.29.29,0,0,0-.16-.07.66.66,0,0,0-.28,0,.26.26,0,0,0-.15.12.58.58,0,0,0,0,.18,1.32,1.32,0,0,0,0,.34l.27-.12,0-.05a.13.13,0,0,0-.09-.07.14.14,0,0,0-.11,0,.13.13,0,0,0-.07.09.16.16,0,0,0,0,.12Z"/><path class="cls-7" d="M678.44,402.17a.37.37,0,0,0-.07.16.5.5,0,0,0,0,.21.41.41,0,0,0,0,.09.26.26,0,0,0,.12.05.2.2,0,0,0,.15-.07l0-.07.06-.06,0,0h-.1l0,0,.06.07.07.08a.16.16,0,0,0,.22-.22l-.1-.09c0-.05-.1-.11-.17-.1a.19.19,0,0,0-.14,0l0,0,0,.05a.1.1,0,0,1,0,.05l0,0h.09l0,0h0l0,0h0l0,0h0v0s0,0,0-.06v0a.09.09,0,0,1,0-.07v0a.14.14,0,0,1,0-.07l0,0a.21.21,0,0,1,0-.06.14.14,0,0,0,0-.11.13.13,0,0,0-.07-.09.14.14,0,0,0-.11,0l0,0a.12.12,0,0,0,0,.05Z"/><path class="cls-7" d="M679.11,402.12a.35.35,0,0,0,0,.2.47.47,0,0,0,.05.1l.08.09,0,0a.05.05,0,0,1,0,0v-.08l0,0h0l0,0h.08a.17.17,0,0,0-.12,0,.16.16,0,0,0-.07.09.15.15,0,0,0,.11.18.18.18,0,0,0,.18-.05.21.21,0,0,0,.07-.15.23.23,0,0,0,0-.14l-.07-.09,0,0a.25.25,0,0,1,0-.07v0a.29.29,0,0,1,0-.09v0a.18.18,0,0,0,0-.11.12.12,0,0,0-.11,0,.15.15,0,0,0-.11,0,.18.18,0,0,0,0,.11Z"/><path class="cls-7" d="M679.68,402.11a.27.27,0,0,0,.05.21c0,.05.07.08.1.13l0,0,0,.05,0,0a0,0,0,0,1,0,0v-.06a0,0,0,0,1,0,0l0,0v0l0,0,0,0,0,0-.05,0,0,0-.08,0a.15.15,0,0,0-.1.19.14.14,0,0,0,.18.1.45.45,0,0,0,.18-.07.28.28,0,0,0,.1-.21.37.37,0,0,0-.09-.19.71.71,0,0,1-.07-.09l0,0,0,0,0,0a0,0,0,0,1,0,0v0s0,0,0,0v0h0a.16.16,0,0,0,0-.12.2.2,0,0,0-.09-.07.15.15,0,0,0-.19.11Z"/><path class="cls-7" d="M670.87,398.54a.6.6,0,0,1,.1.39.16.16,0,0,0,.11.15c.06,0,.15,0,.17-.07a.49.49,0,0,1,.21-.24l-.22-.09a2.54,2.54,0,0,1,0,.91c0,.08.08.15.15.15a.15.15,0,0,0,.15-.15,2.55,2.55,0,0,0-.05-1,.16.16,0,0,0-.22-.09.78.78,0,0,0-.32.35l.28.07a.93.93,0,0,0-.14-.54.15.15,0,0,0-.2-.06.16.16,0,0,0-.06.21Z"/><path class="cls-7" d="M671.46,398.79l.71.12a.16.16,0,0,0,.19-.11c0-.07,0-.17-.11-.18l-.71-.12a.15.15,0,0,0-.18.11.14.14,0,0,0,.1.18Z"/><path class="cls-7" d="M672.18,398.85l.33,1.24a.15.15,0,0,0,.29-.08l-.33-1.24a.15.15,0,0,0-.29.08Z"/><path class="cls-7" d="M670.61,399.83l.09-.17c0-.06.06-.11.08-.17s0,0,0,0l-.14,0,0,0v0l0,.09.11.17a.15.15,0,0,0,.27,0v0s0,0,0,0h0l0,0h0l-.22-.17a1,1,0,0,0,.06.7.15.15,0,0,0,.2.05.15.15,0,0,0,.06-.2s0,0,0,0v0s0,0,0-.06,0-.05,0-.07v0a.06.06,0,0,1,0,0v-.14s0,0,0,0,0,0,0,0a.19.19,0,0,1,0-.07.16.16,0,0,0-.23-.17.49.49,0,0,0-.21.26l.28,0-.14-.22a.28.28,0,0,0-.08-.11.18.18,0,0,0-.18-.05c-.1,0-.14.13-.18.21l-.12.23a.16.16,0,0,0,0,.21.16.16,0,0,0,.21-.06Z"/><path class="cls-7" d="M671.43,399.06a1.19,1.19,0,0,0-.06.62.13.13,0,0,0,.07.09.16.16,0,0,0,.12,0,.2.2,0,0,0,.09-.07.16.16,0,0,0,0-.12v0a1.22,1.22,0,0,1,0-.27v0a1.05,1.05,0,0,1,.06-.24.15.15,0,0,0,0-.11.14.14,0,0,0-.08-.07.16.16,0,0,0-.12,0,.2.2,0,0,0-.07.09Z"/><path class="cls-7" d="M671.88,399.24l-.22,1a.14.14,0,0,0,.1.18.15.15,0,0,0,.19-.1l.22-1a.14.14,0,0,0-.1-.18.15.15,0,0,0-.19.1Z"/><path class="cls-7" d="M671.33,399.59a7.63,7.63,0,0,0-.26.85.17.17,0,0,0,.11.19.15.15,0,0,0,.18-.11,7.63,7.63,0,0,1,.26-.85.15.15,0,0,0-.1-.19.16.16,0,0,0-.19.11Z"/><path class="cls-7" d="M672.1,400a.81.81,0,0,0,0,.41.2.2,0,0,0,.07.09.16.16,0,0,0,.12,0,.15.15,0,0,0,.09-.07.14.14,0,0,0,0-.11v0a.43.43,0,0,1,0-.16v0a.28.28,0,0,1,0-.13.15.15,0,0,0,0-.11.16.16,0,0,0-.09-.07.14.14,0,0,0-.11,0,.15.15,0,0,0-.07.09Z"/><path class="cls-7" d="M672.27,399.74a.15.15,0,0,0,0-.3.15.15,0,0,0,0,.3Z"/><path class="cls-7" d="M672.84,399.87a.86.86,0,0,0,.07-.72c-.07-.25-.22-.46-.3-.7a.16.16,0,0,0-.19-.11.15.15,0,0,0-.1.19c.08.22.21.42.28.64a.57.57,0,0,1,0,.54.16.16,0,0,0,.06.21.16.16,0,0,0,.2-.05Z"/><path class="cls-7" d="M670.66,400l.06,0h0l.07,0,0,0,0,0a.15.15,0,0,0,.1,0h.06l.05,0a.21.21,0,0,0,0-.11.15.15,0,0,0,0-.11l-.07,0,0,0-.12,0s0,0-.06,0l-.06,0a.08.08,0,0,0,0,0l0,0a.11.11,0,0,0,0,.11.16.16,0,0,0,.09.07Z"/><path class="cls-7" d="M670.67,399.86a.15.15,0,0,0,0-.3.15.15,0,0,0,0,.3Z"/><path class="cls-7" d="M672.85,399.46a5.39,5.39,0,0,0-.22-.68.71.71,0,0,0-.42-.46,1.13,1.13,0,0,0-.32-.06l-.34,0a.47.47,0,0,0-.49.19c-.07.14.12.31.24.18.28-.32.75-.17,1.09-.06a.15.15,0,0,0,.08-.29c-.45-.14-1-.27-1.38.14l.23.18a.1.1,0,0,1,.09,0,.81.81,0,0,1,.22,0,1.89,1.89,0,0,1,.52.09.5.5,0,0,1,.23.35q.11.28.18.57a.15.15,0,0,0,.29-.08Z"/><path class="cls-7" d="M670.36,405a6.17,6.17,0,0,1-.57.44.15.15,0,0,0,0,.24,6.63,6.63,0,0,0,.54.52.17.17,0,0,0,.22,0,.15.15,0,0,0,0-.21,5.53,5.53,0,0,1-.55-.53l0,.24a7.57,7.57,0,0,0,.63-.49.14.14,0,0,0,0-.21.15.15,0,0,0-.21,0Z"/><path class="cls-7" d="M671.6,405.1a1,1,0,0,0-.32.15c-.11.08-.25.2-.22.36a.29.29,0,0,0,.11.18l.16.13.32.26a.15.15,0,0,0,.21,0,.15.15,0,0,0,0-.21l-.27-.22-.25-.21h0s0,0,0,0v0s0,0,0,0,0,0,0,0l0,0,0,0s0,0,0,0l.12-.07s0,0,0,0h0l.07,0a.15.15,0,0,0,.11-.18.16.16,0,0,0-.19-.11Z"/><path class="cls-7" d="M672.77,405.25l-.35.23-.17.12a.74.74,0,0,0-.17.12.22.22,0,0,0-.05.17.34.34,0,0,0,.09.12l.16.11.33.25a.16.16,0,0,0,.21-.06.15.15,0,0,0-.06-.2l-.24-.19-.13-.08-.06,0,0,0h0s0,0,0,.08l0,.07h0l0,0,.09-.06.16-.11.33-.22a.15.15,0,0,0,.06-.2.16.16,0,0,0-.21-.06Z"/><path class="cls-7" d="M673.36,405.8l-.09.27a.13.13,0,0,0,0,.12.16.16,0,0,0,.09.07.17.17,0,0,0,.12,0,.22.22,0,0,0,.07-.09l.09-.27a.17.17,0,0,0,0-.12.16.16,0,0,0-.09-.07.2.2,0,0,0-.11,0,.13.13,0,0,0-.07.09Z"/><path class="cls-7" d="M673.76,405.87l-.06.2a.16.16,0,0,0,0,.15.17.17,0,0,0,.15,0l.11-.07a.18.18,0,0,0,0-.07l.06-.1,0,0,0,0,0,0H674l0,0,0,0,0,0,0,0,0,0a0,0,0,0,1,0,0v0a0,0,0,0,1,0,.05v0l0,.09a.15.15,0,0,0,0,.11.11.11,0,0,0,.09.07.14.14,0,0,0,.11,0,.13.13,0,0,0,.07-.09l0-.08a.38.38,0,0,0,0-.15l0,0s0,0,0-.05,0,0,0,0l-.09-.06H674l0,0a.35.35,0,0,0-.1.11.73.73,0,0,1-.05.09l0,0,0,0,0,0h0l.19.18.06-.2a.15.15,0,0,0,0-.11.16.16,0,0,0-.09-.07.14.14,0,0,0-.11,0,.18.18,0,0,0-.07.09Z"/><path class="cls-7" d="M674.67,405.85a.23.23,0,0,0-.32.17.92.92,0,0,0,0,.16.62.62,0,0,1,0,.13v0a.13.13,0,0,1,0,.06v0s0,0,0,0l0,0,0,0,0,0,0,0,0,0h0a.15.15,0,0,0-.18.1.14.14,0,0,0,.1.18.24.24,0,0,0,.2,0,.37.37,0,0,0,.13-.17,1.22,1.22,0,0,0,0-.33v0a0,0,0,0,1,0,0l0,0,0,0,0,0a0,0,0,0,0,0,0l0,0h-.09a.15.15,0,0,0,.21-.05.16.16,0,0,0-.06-.21Z"/><path class="cls-7" d="M675,406.33s0,0,0,0,0,0,0,0l0,0h0l.05,0a.25.25,0,0,0,.1-.15.25.25,0,0,0,0-.19.2.2,0,0,0-.24-.09.44.44,0,0,0-.26.26.47.47,0,0,0,0,.31.4.4,0,0,0,.15.19.24.24,0,0,0,.23,0s.07,0,.09-.07a.16.16,0,0,0,0-.12.15.15,0,0,0-.07-.09s-.08,0-.11,0h0s0,0,0,0h0s0,0,0,0h0v0s0,0,0,0l0,0h0s0,0,0,0l0-.05v0a.27.27,0,0,1,0-.09v0a.64.64,0,0,1,0-.07s0,0,0,0h0l0,0h0l0,0H675s0,0,0,0,0,0,0,0h0v0s0,0,0,0h0s0,0,0,0h0s0,0,0,0a.67.67,0,0,0-.15.14.15.15,0,0,0,.06.21.15.15,0,0,0,.2-.05Z"/><path class="cls-7" d="M675.3,406.05a.91.91,0,0,0-.1.33.06.06,0,0,0,0,.06.09.09,0,0,0,0,.05.2.2,0,0,0,.09.07.17.17,0,0,0,.12,0l.07-.09s0,0,0,0v0a.31.31,0,0,1,0-.1l0,0,0,0,0,0,0,0,0,0h0a.14.14,0,0,0,.11,0,.2.2,0,0,0,.07-.09.16.16,0,0,0,0-.12.16.16,0,0,0-.09-.07h-.14l-.05,0-.09.07a.63.63,0,0,0-.12.23l.29.08a.83.83,0,0,1,.07-.27v0a.09.09,0,0,0,0-.05.06.06,0,0,0,0-.06.13.13,0,0,0-.07-.09.14.14,0,0,0-.11,0,.13.13,0,0,0-.09.07Z"/><path class="cls-7" d="M675.89,405.88a1.17,1.17,0,0,0-.15.68.15.15,0,0,0,0,.11.21.21,0,0,0,.11,0,.15.15,0,0,0,.15-.15.38.38,0,0,1,0-.15v-.06h0s0-.05,0-.07,0-.1,0-.14,0,0,0,0v0a.3.3,0,0,1,0-.08.14.14,0,0,0-.06-.2.15.15,0,0,0-.2.05Z"/><path class="cls-7" d="M675.73,406.34l.44.13a.16.16,0,0,0,.19-.11.16.16,0,0,0-.11-.18l-.44-.13a.16.16,0,0,0-.19.11.16.16,0,0,0,.11.18Z"/><path class="cls-7" d="M676.63,406a1.55,1.55,0,0,0-.16.73.17.17,0,0,0,.15.15c.08,0,.16-.07.15-.15v-.22s0,0,0-.08,0-.1,0-.15l0-.08s0,0,0,0v0a.14.14,0,0,0,0-.2.14.14,0,0,0-.2.05Z"/><path class="cls-7" d="M676.47,406.39l.39.1a.14.14,0,0,0,.11,0,.2.2,0,0,0,.07-.09.15.15,0,0,0-.1-.19l-.39-.1a.14.14,0,0,0-.11,0,.16.16,0,0,0-.07.09.14.14,0,0,0,.1.18Z"/><path class="cls-7" d="M676.92,406a1.69,1.69,0,0,0-.17.62.16.16,0,0,0,.13.15.16.16,0,0,0,.17-.11.14.14,0,0,1,0-.06s0,0,0,0h0l0,0h0s0,0,0,0h0s0,0,0,0h0s0,0,0,0,0,0,0,0,0,0,0,0,0,0,0,0v0h0a.21.21,0,0,0,0,.11.13.13,0,0,0,.07.09.14.14,0,0,0,.2-.05.55.55,0,0,0,.06-.28.29.29,0,0,0-.18-.21.29.29,0,0,0-.26.08.35.35,0,0,0-.12.21l.29,0a.15.15,0,0,0,0-.07h0v0a.69.69,0,0,1,0-.13s0-.08,0-.13a.08.08,0,0,1,0-.05h0v0l0,0a.15.15,0,0,0-.06-.2.15.15,0,0,0-.2.05Z"/><path class="cls-7" d="M677.33,406.45l-.05.14a.13.13,0,0,0,0,.06s0,0,0,.06a.08.08,0,0,0,0,0l0,0a.13.13,0,0,0,.12,0l0,0a.16.16,0,0,0,0-.07l0-.14a.13.13,0,0,0,0-.06.14.14,0,0,0,0-.06s0,0,0,0l0,0a.25.25,0,0,0-.12,0l0,0a.15.15,0,0,0,0,.07Z"/><path class="cls-7" d="M678,406.34h-.06l-.08,0,0,0,0,0,0,0s0,0,0,.05,0,0,0,.06a.14.14,0,0,0,0,.06.08.08,0,0,0,0,0l.05,0a.15.15,0,0,0,.11,0l0,0a.16.16,0,0,0,0-.07h0v0l0,0,0,0,0,0,0,0,0,0h0l.06,0a.05.05,0,0,0,0,0l0,0a.13.13,0,0,0,0-.06.15.15,0,0,0,0-.11s-.07-.05-.11,0Z"/><path class="cls-7" d="M678.37,406.48a.6.6,0,0,0,0,.47.15.15,0,0,0,.2.05l.23-.17-.22-.17a.91.91,0,0,0,0,.33.18.18,0,0,0,.08.13.16.16,0,0,0,.15,0,.75.75,0,0,0,.32-.29.15.15,0,0,0-.06-.21.15.15,0,0,0-.2.05l0,0v0h0l-.06.07h0l0,0-.08,0,.22.13v-.11l0-.14a.16.16,0,0,0,0-.16l-.07,0a.18.18,0,0,0-.1,0l-.23.17.21.06,0-.05,0,0a.45.45,0,0,1,0-.11v0a.24.24,0,0,1,0-.12v0a.31.31,0,0,1,0-.08.15.15,0,0,0-.1-.19.16.16,0,0,0-.19.11Z"/><path class="cls-7" d="M679.33,406.68a.39.39,0,0,0-.08.1.36.36,0,0,0,0,.11.24.24,0,0,0,0,.12.17.17,0,0,0,0,.07s0,.05,0,.08a.14.14,0,0,0,.11.07.13.13,0,0,0,.12,0,.54.54,0,0,0,.16-.26l-.25.07,0,0,0,0,0,0,0,0a.06.06,0,0,1,0,0v0a.13.13,0,0,0,0,.1.14.14,0,0,0,.21,0,.14.14,0,0,0,.05-.1.35.35,0,0,0-.1-.24.17.17,0,0,0-.15,0,.13.13,0,0,0-.1.1l0,0,0,0a.53.53,0,0,1-.06.1l0,0-.06.06.24,0h0l0,0a.08.08,0,0,1,0,0v0a.08.08,0,0,1,0-.07v0a.64.64,0,0,0,0-.07v0a.05.05,0,0,1,0,0l0,0,0,0a.15.15,0,0,0,0-.22.18.18,0,0,0-.1,0h0a.15.15,0,0,0-.07,0Z"/><path class="cls-7" d="M680,406.9l.21-.06-.18-.18c0,.12-.07.23-.11.35l0,0h0v0a.59.59,0,0,0,0,.08l-.09.17a.14.14,0,0,0,.06.2.15.15,0,0,0,.2-.05,2.79,2.79,0,0,0,.29-.72.15.15,0,0,0-.19-.18l-.21.05a.15.15,0,0,0-.11.18.16.16,0,0,0,.19.11Z"/><path class="cls-3" d="M633.35,454.2a18.08,18.08,0,0,1,3.75.09,1,1,0,0,0,.71-.29,1,1,0,0,0,0-1.41,1.17,1.17,0,0,0-.71-.3,18.08,18.08,0,0,0-3.75-.09,1,1,0,0,0,0,2Z"/><path class="cls-3" d="M632.59,453.18l-.2,3.72a11.2,11.2,0,0,0,.07,3.42,3.34,3.34,0,0,0,4.83,2,1,1,0,0,0-1-1.73,1.29,1.29,0,0,1-1.29,0,1,1,0,0,1-.48-.47,2.35,2.35,0,0,1-.21-1c0-.93.07-1.87.12-2.79l.17-3.14a1,1,0,1,0-2,0Z"/><path class="cls-3" d="M634.33,457.72h2.56a1,1,0,1,0,0-2h-2.56a1,1,0,0,0,0,2Z"/><path d="M899.31,349.57a3.19,3.19,0,0,1-1.23-1.16,3.29,3.29,0,0,1-.44-1.68,3.24,3.24,0,0,1,.44-1.68,3.12,3.12,0,0,1,1.23-1.16,3.62,3.62,0,0,1,1.75-.42,3.72,3.72,0,0,1,1.48.29,3,3,0,0,1,1.11.83l-.94.86a2,2,0,0,0-1.58-.74,2.08,2.08,0,0,0-1,.26,1.82,1.82,0,0,0-.72.71,2.15,2.15,0,0,0-.26,1.05,2.08,2.08,0,0,0,.26,1,1.78,1.78,0,0,0,.72.72,2.08,2.08,0,0,0,1,.25,2,2,0,0,0,1.58-.74l.94.86a2.84,2.84,0,0,1-1.12.84,3.72,3.72,0,0,1-1.48.29A3.61,3.61,0,0,1,899.31,349.57Z"/><path d="M905.29,349.63a2.4,2.4,0,0,1-.95-.89,2.47,2.47,0,0,1-.34-1.28,2.53,2.53,0,0,1,.34-1.29,2.47,2.47,0,0,1,.95-.89,3,3,0,0,1,1.38-.32,2.9,2.9,0,0,1,1.36.32,2.47,2.47,0,0,1,1,.89,2.44,2.44,0,0,1,.34,1.29,2.38,2.38,0,0,1-1.29,2.17,2.9,2.9,0,0,1-1.36.32A3,3,0,0,1,905.29,349.63Zm2.26-1.2a1.34,1.34,0,0,0,.35-1,1.37,1.37,0,0,0-.35-1,1.18,1.18,0,0,0-.88-.36,1.21,1.21,0,0,0-.9.36,1.37,1.37,0,0,0-.35,1,1.34,1.34,0,0,0,.35,1,1.18,1.18,0,0,0,.9.37A1.15,1.15,0,0,0,907.55,348.43Z"/><path d="M917.9,345.5a2.17,2.17,0,0,1,.54,1.61v2.77H917v-2.56a1.32,1.32,0,0,0-.24-.86.83.83,0,0,0-.68-.28,1,1,0,0,0-.78.32,1.38,1.38,0,0,0-.29.95v2.43h-1.4v-2.56c0-.76-.31-1.14-.92-1.14a1,1,0,0,0-.77.32,1.34,1.34,0,0,0-.29.95v2.43h-1.4V345h1.34v.55a1.71,1.71,0,0,1,.66-.46,2.2,2.2,0,0,1,.86-.17,2,2,0,0,1,.92.21,1.59,1.59,0,0,1,.67.59,2,2,0,0,1,.75-.59,2.36,2.36,0,0,1,1-.21A2,2,0,0,1,917.9,345.5Z"/><path d="M927.34,345.5a2.17,2.17,0,0,1,.54,1.61v2.77h-1.41v-2.56a1.38,1.38,0,0,0-.23-.86.84.84,0,0,0-.68-.28,1,1,0,0,0-.79.32,1.38,1.38,0,0,0-.29.95v2.43h-1.4v-2.56c0-.76-.31-1.14-.92-1.14a1,1,0,0,0-.77.32,1.38,1.38,0,0,0-.29.95v2.43h-1.4V345H921v.55a1.71,1.71,0,0,1,.66-.46,2.2,2.2,0,0,1,.86-.17,2.05,2.05,0,0,1,.93.21,1.63,1.63,0,0,1,.66.59,2,2,0,0,1,.75-.59,2.39,2.39,0,0,1,1-.21A1.93,1.93,0,0,1,927.34,345.5Z"/><path d="M934,345v4.84h-1.34v-.58a1.76,1.76,0,0,1-.66.48,2.14,2.14,0,0,1-.84.17,2,2,0,0,1-1.51-.55,2.19,2.19,0,0,1-.56-1.63V345h1.41v2.52c0,.79.32,1.17,1,1.17a1.06,1.06,0,0,0,.81-.32,1.42,1.42,0,0,0,.3-1V345Z"/><path d="M938.44,349.64a1.22,1.22,0,0,1-.5.23,2.74,2.74,0,0,1-.64.08,1.91,1.91,0,0,1-1.34-.44,1.72,1.72,0,0,1-.47-1.3v-2h-.74v-1.08h.74V344h1.41v1.18h1.2v1.08h-1.2v2a.69.69,0,0,0,.15.48.61.61,0,0,0,.45.16.92.92,0,0,0,.57-.18Z"/><path d="M943.8,347.85h-3.66a1.12,1.12,0,0,0,.46.71,1.54,1.54,0,0,0,.92.26,1.75,1.75,0,0,0,.67-.11,1.56,1.56,0,0,0,.55-.35l.74.81a2.5,2.5,0,0,1-2,.78,3.19,3.19,0,0,1-1.45-.32,2.35,2.35,0,0,1-1-.89,2.6,2.6,0,0,1,0-2.57,2.41,2.41,0,0,1,.93-.89,2.84,2.84,0,0,1,2.6,0,2.2,2.2,0,0,1,.91.88,2.6,2.6,0,0,1,.33,1.33S943.82,347.62,943.8,347.85Zm-3.29-1.55a1.16,1.16,0,0,0-.39.73h2.38a1.19,1.19,0,0,0-.39-.73,1.21,1.21,0,0,0-.8-.27A1.23,1.23,0,0,0,940.51,346.3Z"/><path d="M948.69,349.56a3.13,3.13,0,0,1-1.23-1.16,3.32,3.32,0,0,1,0-3.34,3.08,3.08,0,0,1,1.23-1.17,3.92,3.92,0,0,1,3.53,0,3.17,3.17,0,0,1,1.24,1.17,3.2,3.2,0,0,1-1.24,4.5,3.84,3.84,0,0,1-3.53,0Zm2.78-1.07a1.8,1.8,0,0,0,.7-.72,2.08,2.08,0,0,0,.26-1,2.15,2.15,0,0,0-.26-1.05,1.84,1.84,0,0,0-.7-.71,2.09,2.09,0,0,0-2,0,1.93,1.93,0,0,0-.71.71,2.14,2.14,0,0,0-.25,1.05,2.08,2.08,0,0,0,.25,1,1.89,1.89,0,0,0,.71.72,2.17,2.17,0,0,0,2,0Z"/><path d="M959,345.27a2.23,2.23,0,0,1,.87.88,2.62,2.62,0,0,1,.32,1.31,2.65,2.65,0,0,1-.32,1.31,2.27,2.27,0,0,1-.87.87,2.41,2.41,0,0,1-1.22.31,1.87,1.87,0,0,1-1.46-.59v2.26H954.9V345h1.35v.55a1.84,1.84,0,0,1,1.52-.63A2.51,2.51,0,0,1,959,345.27Zm-.58,3.16a1.34,1.34,0,0,0,.35-1,1.37,1.37,0,0,0-.35-1,1.18,1.18,0,0,0-.89-.36,1.16,1.16,0,0,0-.88.36,1.37,1.37,0,0,0-.35,1,1.34,1.34,0,0,0,.35,1,1.13,1.13,0,0,0,.88.37A1.16,1.16,0,0,0,958.41,348.43Z"/><path d="M964.24,349.64a1.33,1.33,0,0,1-.51.23,2.61,2.61,0,0,1-.64.08,1.89,1.89,0,0,1-1.33-.44,1.69,1.69,0,0,1-.47-1.3v-2h-.75v-1.08h.75V344h1.4v1.18h1.2v1.08h-1.2v2a.65.65,0,0,0,.16.48.57.57,0,0,0,.44.16.92.92,0,0,0,.57-.18Z"/><path d="M965.1,344.14a.77.77,0,0,1,0-1.12.89.89,0,0,1,.63-.23.93.93,0,0,1,.63.22.68.68,0,0,1,.24.54.75.75,0,0,1-.24.58,1,1,0,0,1-1.26,0Zm-.07.9h1.4v4.84H965Z"/><path d="M968.67,349.63a2.33,2.33,0,0,1-.95-.89,2.38,2.38,0,0,1-.34-1.28,2.44,2.44,0,0,1,.34-1.29,2.4,2.4,0,0,1,.95-.89,3.09,3.09,0,0,1,2.74,0,2.37,2.37,0,0,1,.94.89,2.45,2.45,0,0,1,.35,1.29,2.39,2.39,0,0,1-.35,1.28,2.31,2.31,0,0,1-.94.89,3.09,3.09,0,0,1-2.74,0Zm2.26-1.2a1.34,1.34,0,0,0,.34-1,1.36,1.36,0,0,0-.34-1,1.28,1.28,0,0,0-1.78,0,1.37,1.37,0,0,0-.35,1,1.34,1.34,0,0,0,.35,1,1.26,1.26,0,0,0,1.78,0Z"/><path d="M978,345.5a2.15,2.15,0,0,1,.55,1.61v2.77h-1.4v-2.56a1.32,1.32,0,0,0-.25-.86.92.92,0,0,0-.73-.28,1.11,1.11,0,0,0-.85.33,1.35,1.35,0,0,0-.31,1v2.4h-1.41V345H975v.56a1.92,1.92,0,0,1,.7-.47,2.42,2.42,0,0,1,.91-.17A2,2,0,0,1,978,345.5Z"/><path d="M980.3,349.8a3.2,3.2,0,0,1-.92-.37l.47-1a3.11,3.11,0,0,0,.78.34,3.62,3.62,0,0,0,.9.13c.6,0,.89-.15.89-.44a.31.31,0,0,0-.24-.3,3.48,3.48,0,0,0-.74-.15,7,7,0,0,1-1-.21,1.67,1.67,0,0,1-.67-.41,1.18,1.18,0,0,1-.28-.85,1.28,1.28,0,0,1,.27-.81,1.63,1.63,0,0,1,.77-.56,3.35,3.35,0,0,1,1.2-.2,4.44,4.44,0,0,1,1,.12,2.5,2.5,0,0,1,.84.31l-.46,1a2.81,2.81,0,0,0-1.4-.36,1.46,1.46,0,0,0-.67.12.38.38,0,0,0-.23.33.32.32,0,0,0,.24.31,4.11,4.11,0,0,0,.78.17c.39.07.72.14,1,.21a1.53,1.53,0,0,1,.66.41,1.21,1.21,0,0,1,.28.83,1.27,1.27,0,0,1-.27.8,1.73,1.73,0,0,1-.79.55,3.53,3.53,0,0,1-1.23.19A4.66,4.66,0,0,1,980.3,349.8Z"/><path d="M984.54,346.47a.85.85,0,0,1-.25-.63.82.82,0,0,1,.25-.63.88.88,0,0,1,.62-.24.86.86,0,0,1,.62.24.82.82,0,0,1,.25.63.85.85,0,0,1-.25.63.87.87,0,0,1-.62.25A.89.89,0,0,1,984.54,346.47Zm0,3.23a.85.85,0,0,1-.25-.63.82.82,0,0,1,.25-.63.88.88,0,0,1,.62-.24.86.86,0,0,1,.62.24.82.82,0,0,1,.25.63.85.85,0,0,1-.25.63.83.83,0,0,1-.62.25A.84.84,0,0,1,984.54,349.7Z"/><path d="M899.67,354.38v6.3h-.89v-5.52h-1.42v-.78Z"/><path d="M900.91,362.42a7.66,7.66,0,0,0,.79-2,9.69,9.69,0,0,0,0-4.46,7.66,7.66,0,0,0-.79-2h.81a6.5,6.5,0,0,1,.81,1.89,10.1,10.1,0,0,1,0,4.64,6.5,6.5,0,0,1-.81,1.89Z"/><path d="M909.05,358.16a3.27,3.27,0,0,1-.54-.37,2.75,2.75,0,0,0-.37-.28.62.62,0,0,0-.32-.09.53.53,0,0,0-.46.22,1,1,0,0,0-.19.59h-.57a1.72,1.72,0,0,1,.34-1.1,1.07,1.07,0,0,1,.85-.38,1.22,1.22,0,0,1,.56.13,3.55,3.55,0,0,1,.54.39,3.58,3.58,0,0,0,.38.27.56.56,0,0,0,.31.09.56.56,0,0,0,.46-.22,1,1,0,0,0,.19-.6h.57a1.81,1.81,0,0,1-.34,1.11,1.06,1.06,0,0,1-.85.37A1.13,1.13,0,0,1,909.05,358.16Z"/><path d="M916.12,354.38v6.3h-.89v-5.52h-1.42v-.78Z"/><path d="M921.88,356.39a2.06,2.06,0,0,1,.54,1.54v2.75h-.87V358a1.46,1.46,0,0,0-.33-1,1.23,1.23,0,0,0-1-.35,1.46,1.46,0,0,0-1.1.41,1.59,1.59,0,0,0-.41,1.17v2.46h-.86V354h.86v2.58a1.92,1.92,0,0,1,.71-.53,2.55,2.55,0,0,1,1-.19A2,2,0,0,1,921.88,356.39Z"/><path d="M925.51,356.08a2.46,2.46,0,0,1,1.07-.22v.84h-.2a1.46,1.46,0,0,0-1.1.42,1.65,1.65,0,0,0-.4,1.19v2.38H924v-4.77h.83v.8A1.44,1.44,0,0,1,925.51,356.08Z"/><path d="M931.69,354.38v6.3h-.89v-5.52h-1.42v-.78Z"/><path d="M937.5,359.9v.78H933v-.61l2.57-2.48a3.14,3.14,0,0,0,.63-.78,1.6,1.6,0,0,0,.16-.66.93.93,0,0,0-.35-.77,1.58,1.58,0,0,0-1-.27,2,2,0,0,0-1.61.68l-.62-.53a2.5,2.5,0,0,1,1-.7,3.4,3.4,0,0,1,1.34-.25,2.39,2.39,0,0,1,1.57.47,1.55,1.55,0,0,1,.59,1.28,2.11,2.11,0,0,1-.22,1,3.53,3.53,0,0,1-.82,1l-1.92,1.86Z"/><path d="M948.44,356.39a2.07,2.07,0,0,1,.52,1.54v2.75h-.86V358a1.5,1.5,0,0,0-.32-1,1.15,1.15,0,0,0-.91-.35,1.36,1.36,0,0,0-1,.41,1.66,1.66,0,0,0-.38,1.17v2.46h-.87V358a1.46,1.46,0,0,0-.32-1,1.13,1.13,0,0,0-.91-.35,1.32,1.32,0,0,0-1,.41,1.62,1.62,0,0,0-.39,1.17v2.46H941v-4.77h.83v.71a1.65,1.65,0,0,1,.69-.56,2.26,2.26,0,0,1,1-.2,2.13,2.13,0,0,1,1,.23,1.58,1.58,0,0,1,.67.66,1.76,1.76,0,0,1,.75-.65,2.38,2.38,0,0,1,1.08-.24A1.94,1.94,0,0,1,948.44,356.39Z"/><path d="M950.57,354.83a.54.54,0,0,1-.17-.4.56.56,0,0,1,.59-.56.6.6,0,0,1,.42.15.53.53,0,0,1,.16.39.54.54,0,0,1-.16.41.54.54,0,0,1-.42.17A.57.57,0,0,1,950.57,354.83Zm0,1.08h.86v4.77h-.86Z"/><path d="M957.06,356.39a2.06,2.06,0,0,1,.53,1.54v2.75h-.86V358a1.46,1.46,0,0,0-.33-1,1.23,1.23,0,0,0-1-.35,1.46,1.46,0,0,0-1.1.41,1.59,1.59,0,0,0-.41,1.17v2.46h-.86v-4.77h.83v.72a1.64,1.64,0,0,1,.7-.57,2.54,2.54,0,0,1,1-.2A2,2,0,0,1,957.06,356.39Z"/><path d="M905.14,364.18v4.9h-.69v-4.29h-1.11v-.61Z"/><path d="M906.34,369a.48.48,0,0,1,0-.68.47.47,0,0,1,.66,0,.48.48,0,0,1,.14.35.46.46,0,0,1-.14.34.46.46,0,0,1-.66,0Z"/><path class="cls-2" d="M915.4,365.4l-1.4,3.68h-.46l-1.17-3-1.16,3h-.47l-1.38-3.68h.47l1.16,3.12,1.18-3.12h.43l1.17,3.12,1.17-3.12Z"/><path class="cls-2" d="M918.43,365.73a1.41,1.41,0,0,1,.38,1.07v2.28h-.47v-.58a1.15,1.15,0,0,1-.5.45,1.65,1.65,0,0,1-.77.16,1.49,1.49,0,0,1-1-.29,1,1,0,0,1-.36-.78.92.92,0,0,1,.34-.75,1.59,1.59,0,0,1,1.08-.29h1.17v-.23a.94.94,0,0,0-.27-.72,1.14,1.14,0,0,0-.78-.25,1.93,1.93,0,0,0-.67.12,1.5,1.5,0,0,0-.55.32l-.23-.37a1.86,1.86,0,0,1,.68-.37,2.47,2.47,0,0,1,.82-.13A1.58,1.58,0,0,1,918.43,365.73Zm-.56,2.8a1.2,1.2,0,0,0,.45-.56v-.6h-1.16c-.63,0-.94.22-.94.66a.63.63,0,0,0,.24.51,1.13,1.13,0,0,0,.69.18A1.29,1.29,0,0,0,917.87,368.53Z"/><path class="cls-2" d="M920.16,363.88h.5v5.2h-.5Z"/><path class="cls-2" d="M923.41,367.23l-.87.8v1.05h-.49v-5.2h.49v3.53l2.2-2h.62l-1.58,1.5,1.72,2.18h-.6Z"/><path d="M928.7,368.82A1.89,1.89,0,0,1,928,368a3.14,3.14,0,0,1-.25-1.32,3.22,3.22,0,0,1,.25-1.33,1.92,1.92,0,0,1,.69-.86,1.76,1.76,0,0,1,1-.3,1.74,1.74,0,0,1,1,.3,2,2,0,0,1,.7.86,3.22,3.22,0,0,1,.25,1.33,3.14,3.14,0,0,1-.25,1.32,2,2,0,0,1-.7.87,1.74,1.74,0,0,1-1,.3A1.76,1.76,0,0,1,928.7,368.82Zm1.76-.4a1.53,1.53,0,0,0,.51-.69,3,3,0,0,0,.18-1.1,3,3,0,0,0-.18-1.1,1.47,1.47,0,0,0-.51-.69,1.2,1.2,0,0,0-.75-.24,1.24,1.24,0,0,0-.75.24,1.47,1.47,0,0,0-.51.69,3,3,0,0,0-.18,1.1,3,3,0,0,0,.18,1.1,1.53,1.53,0,0,0,.51.69,1.24,1.24,0,0,0,.75.24A1.2,1.2,0,0,0,930.46,368.42Z"/><path d="M932.43,369a.39.39,0,0,1,0-.54.36.36,0,0,1,.26-.11.37.37,0,0,1,.27.11.38.38,0,0,1-.27.65A.33.33,0,0,1,932.43,369Z"/><path d="M937.39,367a1.18,1.18,0,0,1,.25.74,1.26,1.26,0,0,1-.23.75,1.56,1.56,0,0,1-.67.49,2.77,2.77,0,0,1-1,.17,2.24,2.24,0,0,1-1.38-.38,1.2,1.2,0,0,1-.51-1,1.15,1.15,0,0,1,.24-.74,1.4,1.4,0,0,1,.71-.46,1.29,1.29,0,0,1-.58-.42,1.14,1.14,0,0,1-.19-.66,1.1,1.1,0,0,1,.46-.94,2,2,0,0,1,1.25-.35,2.52,2.52,0,0,1,.91.15,1.34,1.34,0,0,1,.6.46,1.07,1.07,0,0,1,.22.68,1.14,1.14,0,0,1-.2.66,1.34,1.34,0,0,1-.58.42A1.57,1.57,0,0,1,937.39,367Zm-.64,1.46a.84.84,0,0,0,.37-.72.82.82,0,0,0-.37-.72,2.11,2.11,0,0,0-2,0,.84.84,0,0,0-.37.72.83.83,0,0,0,.37.72,1.66,1.66,0,0,0,1,.26A1.77,1.77,0,0,0,936.75,368.43Zm-1.91-2.34a1.47,1.47,0,0,0,.89.24,1.45,1.45,0,0,0,.89-.24.75.75,0,0,0,.33-.64.77.77,0,0,0-.33-.65,1.49,1.49,0,0,0-.89-.24,1.44,1.44,0,0,0-.88.24.75.75,0,0,0-.33.65A.76.76,0,0,0,934.84,366.09Z"/><path d="M944.34,365.77a1.57,1.57,0,0,1,.4,1.17v2.14h-.5V367a1.26,1.26,0,0,0-.27-.87,1,1,0,0,0-.78-.3,1.16,1.16,0,0,0-.91.35,1.38,1.38,0,0,0-.32,1v1.93h-.5V367a1.21,1.21,0,0,0-.28-.87,1,1,0,0,0-.79-.3,1.18,1.18,0,0,0-.9.35,1.38,1.38,0,0,0-.33,1v1.93h-.49V365.4h.47v.67a1.26,1.26,0,0,1,.55-.52,1.71,1.71,0,0,1,.8-.18,1.55,1.55,0,0,1,.8.19,1.19,1.19,0,0,1,.51.59,1.47,1.47,0,0,1,.58-.58,1.93,1.93,0,0,1,.88-.2A1.43,1.43,0,0,1,944.34,365.77Z"/><path d="M946.08,364.49a.35.35,0,0,1-.1-.26.33.33,0,0,1,.1-.24.36.36,0,0,1,.26-.11.35.35,0,0,1,.26.11.3.3,0,0,1,.11.24.36.36,0,0,1-.11.26.34.34,0,0,1-.26.1A.35.35,0,0,1,946.08,364.49Zm0,.91h.5v3.68h-.5Z"/><path d="M951.75,368.85a1,1,0,0,1-.35.2,1.54,1.54,0,0,1-.43.06,1.07,1.07,0,0,1-.8-.28,1.09,1.09,0,0,1-.28-.79v-2.22h-.66v-.42h.66v-.81h.5v.81h1.12v.42h-1.12V368a.68.68,0,0,0,.16.5.62.62,0,0,0,.48.18.93.93,0,0,0,.29-.05.86.86,0,0,0,.25-.14Z"/><path d="M953.06,368.87a1.73,1.73,0,0,1-.67-.67,1.9,1.9,0,0,1-.24-1,2,2,0,0,1,.24-1,1.7,1.7,0,0,1,.67-.66,2,2,0,0,1,1-.24,1.9,1.9,0,0,1,1,.24,1.64,1.64,0,0,1,.67.66,2,2,0,0,1,.24,1,1.9,1.9,0,0,1-.24,1,1.66,1.66,0,0,1-.67.67,1.9,1.9,0,0,1-1,.24A2,2,0,0,1,953.06,368.87Zm1.67-.38a1.22,1.22,0,0,0,.48-.5,1.65,1.65,0,0,0,0-1.5,1.24,1.24,0,0,0-.48-.51,1.41,1.41,0,0,0-.71-.18,1.38,1.38,0,0,0-.7.18,1.27,1.27,0,0,0-.49.51,1.65,1.65,0,0,0,0,1.5,1.24,1.24,0,0,0,.49.5,1.38,1.38,0,0,0,.7.18A1.41,1.41,0,0,0,954.73,368.49Z"/><path d="M962.3,366.63h.49v1.87a2.48,2.48,0,0,1-.81.46,2.94,2.94,0,0,1-1,.16,2.74,2.74,0,0,1-1.32-.32,2.39,2.39,0,0,1-.92-.89,2.58,2.58,0,0,1,0-2.56,2.32,2.32,0,0,1,.92-.89,2.67,2.67,0,0,1,1.33-.32,3.09,3.09,0,0,1,1,.17,2.08,2.08,0,0,1,.79.53l-.32.33a2,2,0,0,0-1.48-.57,2.23,2.23,0,0,0-1.07.26,2,2,0,0,0-1,1.77,1.9,1.9,0,0,0,.28,1,2,2,0,0,0,.74.73,2.32,2.32,0,0,0,2.36-.11Z"/><path d="M965.15,365.56a1.74,1.74,0,0,1,.86-.19v.48h-.12a1.17,1.17,0,0,0-.91.36,1.42,1.42,0,0,0-.33,1v1.88h-.5V365.4h.48v.72A1.14,1.14,0,0,1,965.15,365.56Z"/><path d="M969.29,365.73a1.37,1.37,0,0,1,.38,1.07v2.28h-.47v-.58a1.13,1.13,0,0,1-.49.45,1.73,1.73,0,0,1-.78.16,1.49,1.49,0,0,1-1-.29,1,1,0,0,1-.36-.78.92.92,0,0,1,.34-.75A1.59,1.59,0,0,1,968,367h1.17v-.23a.94.94,0,0,0-.27-.72,1.14,1.14,0,0,0-.78-.25,1.93,1.93,0,0,0-.67.12,1.5,1.5,0,0,0-.55.32l-.22-.37a1.82,1.82,0,0,1,.67-.37,2.47,2.47,0,0,1,.82-.13A1.58,1.58,0,0,1,969.29,365.73Zm-.56,2.8a1.2,1.2,0,0,0,.45-.56v-.6H968c-.63,0-.94.22-.94.66a.63.63,0,0,0,.24.51,1.16,1.16,0,0,0,.69.18A1.29,1.29,0,0,0,968.73,368.53Z"/><path d="M974,365.77a1.55,1.55,0,0,1,.41,1.17v2.14h-.49V367a1.22,1.22,0,0,0-.29-.87,1.07,1.07,0,0,0-.82-.3,1.23,1.23,0,0,0-.94.35,1.35,1.35,0,0,0-.35,1v1.93H971V365.4h.47v.68a1.43,1.43,0,0,1,.56-.53,1.86,1.86,0,0,1,.84-.18A1.49,1.49,0,0,1,974,365.77Z"/><path d="M979.14,363.88v5.2h-.48v-.73a1.47,1.47,0,0,1-.59.57,1.72,1.72,0,0,1-.83.19,2,2,0,0,1-.94-.23,1.77,1.77,0,0,1-.66-.67,2,2,0,0,1-.23-1,2.08,2.08,0,0,1,.23-1,1.74,1.74,0,0,1,.66-.66,2,2,0,0,1,.94-.23,1.79,1.79,0,0,1,.81.18,1.56,1.56,0,0,1,.59.55v-2.22ZM978,368.49a1.24,1.24,0,0,0,.49-.5,1.65,1.65,0,0,0,0-1.5A1.27,1.27,0,0,0,978,366a1.45,1.45,0,0,0-1.4,0,1.27,1.27,0,0,0-.49.51,1.65,1.65,0,0,0,0,1.5,1.24,1.24,0,0,0,.49.5,1.45,1.45,0,0,0,1.4,0Z"/><path d="M985.54,367.77h-2.73l-.59,1.31h-.54l2.24-4.9h.51l2.24,4.9h-.55Zm-.19-.42-1.18-2.63L983,367.35Z"/><path d="M990.29,365.4l-1.64,3.68h-.51l-1.63-3.68H987l1.38,3.13,1.39-3.13Z"/><path d="M993,369a1.82,1.82,0,0,1-.64-.32l.23-.39a1.66,1.66,0,0,0,.58.29,2.18,2.18,0,0,0,.72.12,1.35,1.35,0,0,0,.75-.16.49.49,0,0,0,.24-.44.39.39,0,0,0-.13-.32.85.85,0,0,0-.34-.18,5,5,0,0,0-.54-.11l-.72-.17a1.08,1.08,0,0,1-.46-.3.81.81,0,0,1-.19-.58.91.91,0,0,1,.38-.76,1.77,1.77,0,0,1,1.07-.29,3,3,0,0,1,.72.09,2.24,2.24,0,0,1,.58.25l-.21.4a1.89,1.89,0,0,0-1.09-.32,1.27,1.27,0,0,0-.72.17.53.53,0,0,0-.24.44.44.44,0,0,0,.14.34.86.86,0,0,0,.34.19,4.65,4.65,0,0,0,.56.12,4.49,4.49,0,0,1,.7.17,1,1,0,0,1,.46.28.79.79,0,0,1,.19.56.91.91,0,0,1-.4.77,1.91,1.91,0,0,1-1.12.28A2.76,2.76,0,0,1,993,369Z"/><path d="M998.18,368.85a.88.88,0,0,1-.34.2,1.54,1.54,0,0,1-.43.06,1.07,1.07,0,0,1-.8-.28,1,1,0,0,1-.28-.79v-2.22h-.66v-.42h.66v-.81h.5v.81H998v.42h-1.12V368a.68.68,0,0,0,.16.5.61.61,0,0,0,.47.18.94.94,0,0,0,.3-.05.86.86,0,0,0,.25-.14Z"/><path d="M1001.48,365.73a1.38,1.38,0,0,1,.39,1.07v2.28h-.48v-.58a1.13,1.13,0,0,1-.49.45,1.73,1.73,0,0,1-.78.16,1.51,1.51,0,0,1-1-.29,1,1,0,0,1-.36-.78.92.92,0,0,1,.34-.75,1.62,1.62,0,0,1,1.08-.29h1.17v-.23a.94.94,0,0,0-.27-.72,1.1,1.1,0,0,0-.77-.25,2,2,0,0,0-.68.12,1.59,1.59,0,0,0-.55.32l-.22-.37a1.82,1.82,0,0,1,.67-.37,2.53,2.53,0,0,1,.83-.13A1.55,1.55,0,0,1,1001.48,365.73Zm-.56,2.8a1.2,1.2,0,0,0,.45-.56v-.6h-1.16c-.63,0-.94.22-.94.66a.63.63,0,0,0,.24.51,1.18,1.18,0,0,0,.69.18A1.29,1.29,0,0,0,1000.92,368.53Z"/><path d="M1005.16,368.85a1,1,0,0,1-.35.2,1.54,1.54,0,0,1-.43.06,1.07,1.07,0,0,1-.8-.28,1,1,0,0,1-.28-.79v-2.22h-.66v-.42h.66v-.81h.5v.81h1.12v.42h-1.12V368a.68.68,0,0,0,.16.5.62.62,0,0,0,.48.18.93.93,0,0,0,.29-.05.86.86,0,0,0,.25-.14Z"/><path d="M1006.05,364.49a.35.35,0,0,1-.1-.26.33.33,0,0,1,.1-.24.36.36,0,0,1,.52,0,.3.3,0,0,1,.1.24.37.37,0,0,1-.62.26Zm0,.91h.5v3.68h-.5Z"/><path d="M1008.49,368.87a1.66,1.66,0,0,1-.67-.67,1.81,1.81,0,0,1-.25-1,1.87,1.87,0,0,1,.25-1,1.64,1.64,0,0,1,.67-.66,1.9,1.9,0,0,1,1-.24,2,2,0,0,1,1,.24,1.68,1.68,0,0,1,.66.66,1.87,1.87,0,0,1,.25,1,1.81,1.81,0,0,1-.25,1,1.7,1.7,0,0,1-.66.67,2,2,0,0,1-1,.24A1.9,1.9,0,0,1,1008.49,368.87Zm1.66-.38a1.24,1.24,0,0,0,.49-.5,1.74,1.74,0,0,0,0-1.5,1.27,1.27,0,0,0-.49-.51,1.38,1.38,0,0,0-.7-.18,1.41,1.41,0,0,0-.71.18,1.34,1.34,0,0,0-.49.51,1.74,1.74,0,0,0,0,1.5,1.31,1.31,0,0,0,.49.5,1.41,1.41,0,0,0,.71.18A1.38,1.38,0,0,0,1010.15,368.49Z"/><path d="M1015.31,365.77a1.59,1.59,0,0,1,.41,1.17v2.14h-.5V367a1.17,1.17,0,0,0-.29-.87,1.06,1.06,0,0,0-.81-.3,1.27,1.27,0,0,0-1,.35,1.34,1.34,0,0,0-.34,1v1.93h-.5V365.4h.48v.68a1.36,1.36,0,0,1,.56-.53,1.86,1.86,0,0,1,.84-.18A1.49,1.49,0,0,1,1015.31,365.77Z"/><path d="M907.07,376.87v.61h-3.52V377l2-1.92a2.48,2.48,0,0,0,.49-.61,1.07,1.07,0,0,0,.13-.51.72.72,0,0,0-.27-.6,1.25,1.25,0,0,0-.78-.21,1.52,1.52,0,0,0-1.25.53l-.48-.42a2,2,0,0,1,.76-.54,2.64,2.64,0,0,1,1-.2,1.85,1.85,0,0,1,1.22.37,1.2,1.2,0,0,1,.46,1,1.71,1.71,0,0,1-.17.74,3.08,3.08,0,0,1-.64.8l-1.5,1.44Z"/><path d="M907.84,377.38a.48.48,0,0,1,0-.68.45.45,0,0,1,.33-.14.49.49,0,0,1,.33.13.48.48,0,0,1,.13.35.46.46,0,0,1-.79.34Z"/><path d="M913.48,377.25a.92.92,0,0,1-.35.2,1.54,1.54,0,0,1-.43.06,1,1,0,0,1-1.08-1.07v-2.22H911v-.42h.65V373h.5v.81h1.12v.42h-1.12v2.19a.69.69,0,0,0,.17.5.58.58,0,0,0,.47.18,1,1,0,0,0,.3,0,1,1,0,0,0,.24-.14Z"/><path d="M916.78,374.13a1.41,1.41,0,0,1,.38,1.07v2.28h-.48v-.58a1.07,1.07,0,0,1-.49.45,1.68,1.68,0,0,1-.77.16,1.49,1.49,0,0,1-1-.29,1,1,0,0,1,0-1.53,1.62,1.62,0,0,1,1.08-.29h1.17v-.23a.94.94,0,0,0-.26-.72,1.14,1.14,0,0,0-.78-.25,1.89,1.89,0,0,0-.67.12,1.43,1.43,0,0,0-.55.32l-.23-.37a1.9,1.9,0,0,1,.67-.37,2.53,2.53,0,0,1,.83-.13A1.58,1.58,0,0,1,916.78,374.13Zm-.56,2.8a1.12,1.12,0,0,0,.44-.56v-.6h-1.15c-.63,0-1,.22-1,.66a.63.63,0,0,0,.25.51,1.12,1.12,0,0,0,.68.18A1.35,1.35,0,0,0,916.22,376.93Z"/><path d="M919.88,375.63l-.87.8v1.05h-.5v-5.2h.5v3.53l2.2-2h.61l-1.57,1.5,1.72,2.18h-.61Z"/><path d="M925.78,375.79H922.7a1.33,1.33,0,0,0,.44.93,1.49,1.49,0,0,0,1,.35,1.61,1.61,0,0,0,.63-.12,1.33,1.33,0,0,0,.49-.36l.28.32a1.46,1.46,0,0,1-.61.45,2.09,2.09,0,0,1-.81.15,2,2,0,0,1-1-.24,1.69,1.69,0,0,1-.68-.67,1.81,1.81,0,0,1-.25-1,2,2,0,0,1,.24-1,1.63,1.63,0,0,1,.64-.66,1.88,1.88,0,0,1,1.84,0,1.6,1.6,0,0,1,.63.66,1.91,1.91,0,0,1,.24,1Zm-2.67-1.26a1.35,1.35,0,0,0-.41.89h2.61a1.35,1.35,0,0,0-.41-.89,1.35,1.35,0,0,0-1.79,0Z"/><path d="M930.57,377.25a.92.92,0,0,1-.35.2,1.49,1.49,0,0,1-.43.06,1,1,0,0,1-1.07-1.07v-2.22h-.66v-.42h.66V373h.49v.81h1.12v.42h-1.12v2.19a.69.69,0,0,0,.17.5.61.61,0,0,0,.47.18,1,1,0,0,0,.3,0,1,1,0,0,0,.25-.14Z"/><path d="M934.45,374.17a1.55,1.55,0,0,1,.41,1.17v2.14h-.49v-2.09a1.22,1.22,0,0,0-.29-.87,1.09,1.09,0,0,0-.82-.3,1.23,1.23,0,0,0-.94.35,1.35,1.35,0,0,0-.35,1v1.93h-.5v-5.2h.5v2.16a1.43,1.43,0,0,1,.56-.5,1.94,1.94,0,0,1,.82-.17A1.49,1.49,0,0,1,934.45,374.17Z"/><path d="M939.43,375.79h-3.08a1.37,1.37,0,0,0,.44.93,1.51,1.51,0,0,0,1,.35,1.61,1.61,0,0,0,.63-.12,1.36,1.36,0,0,0,.5-.36l.28.32a1.52,1.52,0,0,1-.61.45,2.16,2.16,0,0,1-.81.15,2.09,2.09,0,0,1-1-.24,1.75,1.75,0,0,1-.68-.67,1.9,1.9,0,0,1-.24-1,2.07,2.07,0,0,1,.23-1,1.65,1.65,0,0,1,.65-.66,1.78,1.78,0,0,1,.92-.24,1.74,1.74,0,0,1,.91.24,1.63,1.63,0,0,1,.64.66,2,2,0,0,1,.23,1Zm-2.67-1.26a1.4,1.4,0,0,0-.41.89H939a1.34,1.34,0,0,0-.4-.89,1.36,1.36,0,0,0-1.8,0Z"/><path class="cls-5" d="M947.48,372.58v4.9H947v-3.92l-1.93,3.29h-.24l-1.93-3.27v3.9h-.5v-4.9h.43l2.13,3.63,2.11-3.63Z"/><path d="M951.35,377.27a1.8,1.8,0,0,1-.67-.67,1.9,1.9,0,0,1-.24-1,2,2,0,0,1,.24-1,1.77,1.77,0,0,1,.67-.66,2,2,0,0,1,1-.24,1.9,1.9,0,0,1,1,.24,1.64,1.64,0,0,1,.67.66,2,2,0,0,1,.24,1,1.9,1.9,0,0,1-.24,1,1.66,1.66,0,0,1-.67.67,1.9,1.9,0,0,1-1,.24A2,2,0,0,1,951.35,377.27Zm1.67-.38a1.22,1.22,0,0,0,.48-.5,1.65,1.65,0,0,0,0-1.5,1.24,1.24,0,0,0-.48-.51,1.41,1.41,0,0,0-.71-.18,1.38,1.38,0,0,0-.7.18,1.27,1.27,0,0,0-.49.51,1.65,1.65,0,0,0,0,1.5,1.24,1.24,0,0,0,.49.5,1.38,1.38,0,0,0,.7.18A1.41,1.41,0,0,0,953,376.89Z"/><path d="M956.19,374a1.76,1.76,0,0,1,.86-.19v.48h-.12a1.18,1.18,0,0,0-.91.36,1.42,1.42,0,0,0-.33,1v1.88h-.49V373.8h.47v.72A1.18,1.18,0,0,1,956.19,374Z"/><path class="cls-4" d="M963.29,377.48l-1.12-1.58a2.55,2.55,0,0,1-.39,0h-1.32v1.56h-.52v-4.9h1.84a2.23,2.23,0,0,1,1.47.45,1.52,1.52,0,0,1,.53,1.23,1.64,1.64,0,0,1-.29,1,1.68,1.68,0,0,1-.83.57l1.2,1.68Zm-.41-2.32a1.11,1.11,0,0,0,.38-.9,1.16,1.16,0,0,0-.38-.92,1.74,1.74,0,0,0-1.12-.31h-1.3v2.45h1.3A1.68,1.68,0,0,0,962.88,375.16Z"/><path d="M967.46,372.84a.74.74,0,0,0-.16.52v.44h1.13v.42h-1.12v3.26h-.49v-3.26h-.66v-.42h.66v-.46a1.07,1.07,0,0,1,.29-.8,1.11,1.11,0,0,1,.82-.29,1.34,1.34,0,0,1,.4.06.85.85,0,0,1,.33.17l-.16.37a.85.85,0,0,0-.55-.18A.68.68,0,0,0,967.46,372.84Z"/><path d="M969.59,377.27a1.66,1.66,0,0,1-.67-.67,1.81,1.81,0,0,1-.25-1,1.87,1.87,0,0,1,.25-1,1.64,1.64,0,0,1,.67-.66,1.9,1.9,0,0,1,1-.24,2,2,0,0,1,1,.24,1.68,1.68,0,0,1,.66.66,2,2,0,0,1,.25,1,1.91,1.91,0,0,1-.25,1,1.7,1.7,0,0,1-.66.67,2,2,0,0,1-1,.24A1.9,1.9,0,0,1,969.59,377.27Zm1.66-.38a1.24,1.24,0,0,0,.49-.5,1.74,1.74,0,0,0,0-1.5,1.27,1.27,0,0,0-.49-.51,1.38,1.38,0,0,0-.7-.18,1.41,1.41,0,0,0-.71.18,1.34,1.34,0,0,0-.49.51,1.65,1.65,0,0,0,0,1.5,1.31,1.31,0,0,0,.49.5,1.41,1.41,0,0,0,.71.18A1.38,1.38,0,0,0,971.25,376.89Z"/><path d="M974.43,374a1.71,1.71,0,0,1,.86-.19v.48h-.12a1.17,1.17,0,0,0-.91.36,1.42,1.42,0,0,0-.33,1v1.88h-.5V373.8h.48v.72A1.14,1.14,0,0,1,974.43,374Z"/><path d="M981.09,377v.45h-3.44v-.36l2-2a2.82,2.82,0,0,0,.52-.66,1.25,1.25,0,0,0,.14-.55.83.83,0,0,0-.3-.68,1.32,1.32,0,0,0-.85-.24,1.69,1.69,0,0,0-1.34.54l-.36-.3a1.88,1.88,0,0,1,.74-.52,2.62,2.62,0,0,1,1-.18,1.83,1.83,0,0,1,1.19.35,1.17,1.17,0,0,1,.43,1,1.72,1.72,0,0,1-.16.73,3.31,3.31,0,0,1-.64.8L978.39,377Z"/><path d="M984,377.38a1.74,1.74,0,0,1-.64-.32l.22-.39a1.85,1.85,0,0,0,.58.29,2.28,2.28,0,0,0,.73.12,1.35,1.35,0,0,0,.75-.16.49.49,0,0,0,.24-.44.43.43,0,0,0-.13-.32.85.85,0,0,0-.34-.18,5,5,0,0,0-.54-.11c-.3-.06-.54-.12-.72-.17a1,1,0,0,1-.46-.3.82.82,0,0,1-.2-.58.92.92,0,0,1,.39-.76,1.75,1.75,0,0,1,1.07-.29,2.88,2.88,0,0,1,.71.09,2.18,2.18,0,0,1,.59.25l-.22.4a1.84,1.84,0,0,0-1.08-.32,1.27,1.27,0,0,0-.72.17.53.53,0,0,0-.24.44.41.41,0,0,0,.14.34.86.86,0,0,0,.34.19,4.65,4.65,0,0,0,.56.12,4.49,4.49,0,0,1,.7.17,1,1,0,0,1,.46.28.84.84,0,0,1,.19.56.89.89,0,0,1-.41.77,1.88,1.88,0,0,1-1.11.28A2.71,2.71,0,0,1,984,377.38Z"/><path d="M989.24,377.25a1,1,0,0,1-.34.2,1.59,1.59,0,0,1-.43.06,1,1,0,0,1-1.08-1.07v-2.22h-.66v-.42h.66V373h.49v.81H989v.42h-1.12v2.19a.69.69,0,0,0,.17.5.61.61,0,0,0,.47.18,1,1,0,0,0,.3,0,1,1,0,0,0,.25-.14Z"/><path d="M990.56,377.27a1.66,1.66,0,0,1-.67-.67,1.81,1.81,0,0,1-.25-1,1.87,1.87,0,0,1,.25-1,1.64,1.64,0,0,1,.67-.66,1.9,1.9,0,0,1,1-.24,2,2,0,0,1,1,.24,1.68,1.68,0,0,1,.66.66,1.87,1.87,0,0,1,.25,1,1.81,1.81,0,0,1-.25,1,1.7,1.7,0,0,1-.66.67,2,2,0,0,1-1,.24A1.9,1.9,0,0,1,990.56,377.27Zm1.66-.38a1.24,1.24,0,0,0,.49-.5,1.74,1.74,0,0,0,0-1.5,1.27,1.27,0,0,0-.49-.51,1.38,1.38,0,0,0-.7-.18,1.41,1.41,0,0,0-.71.18,1.34,1.34,0,0,0-.49.51,1.74,1.74,0,0,0,0,1.5,1.31,1.31,0,0,0,.49.5,1.41,1.41,0,0,0,.71.18A1.38,1.38,0,0,0,992.22,376.89Z"/><path d="M997.24,374a1.65,1.65,0,0,1,.65.66,2.12,2.12,0,0,1,0,2,1.65,1.65,0,0,1-.65.66,1.85,1.85,0,0,1-.94.23,1.79,1.79,0,0,1-.81-.18,1.61,1.61,0,0,1-.59-.54v2h-.5v-5h.48v.72a1.51,1.51,0,0,1,.59-.56,1.72,1.72,0,0,1,.83-.19A2,2,0,0,1,997.24,374Zm-.28,2.89a1.27,1.27,0,0,0,.5-.5,1.74,1.74,0,0,0,0-1.5,1.36,1.36,0,0,0-.5-.51,1.45,1.45,0,0,0-1.4,0,1.33,1.33,0,0,0-.49.51,1.65,1.65,0,0,0,0,1.5,1.24,1.24,0,0,0,.49.5,1.45,1.45,0,0,0,1.4,0Z"/><path d="M999.28,377.38a1.66,1.66,0,0,1-.64-.32l.22-.39a1.75,1.75,0,0,0,.58.29,2.24,2.24,0,0,0,.73.12,1.39,1.39,0,0,0,.75-.16.49.49,0,0,0,.24-.44.4.4,0,0,0-.14-.32.88.88,0,0,0-.33-.18c-.14,0-.32-.07-.54-.11s-.54-.12-.72-.17a1.12,1.12,0,0,1-.47-.3.81.81,0,0,1-.19-.58.93.93,0,0,1,.38-.76,1.8,1.8,0,0,1,1.08-.29,2.94,2.94,0,0,1,.71.09,2.33,2.33,0,0,1,.59.25l-.22.4a1.84,1.84,0,0,0-1.08-.32,1.27,1.27,0,0,0-.72.17.53.53,0,0,0-.24.44.44.44,0,0,0,.13.34.94.94,0,0,0,.34.19,5.14,5.14,0,0,0,.56.12,4.66,4.66,0,0,1,.71.17,1,1,0,0,1,.45.28.79.79,0,0,1,.19.56.88.88,0,0,1-.4.77,1.91,1.91,0,0,1-1.12.28A2.65,2.65,0,0,1,999.28,377.38Z"/><path d="M1005.14,372.84a.74.74,0,0,0-.17.52v.44h1.13v.42H1005v3.26h-.5v-3.26h-.66v-.42h.66v-.46a1.07,1.07,0,0,1,.29-.8,1.12,1.12,0,0,1,.82-.29,1.4,1.4,0,0,1,.41.06,1,1,0,0,1,.33.17l-.17.37a.85.85,0,0,0-.55-.18A.65.65,0,0,0,1005.14,372.84Z"/><path d="M1008.33,374a1.76,1.76,0,0,1,.86-.19v.48h-.12a1.18,1.18,0,0,0-.91.36,1.42,1.42,0,0,0-.33,1v1.88h-.49V373.8h.47v.72A1.18,1.18,0,0,1,1008.33,374Z"/><path d="M1010.6,377.27a1.66,1.66,0,0,1-.67-.67,1.81,1.81,0,0,1-.25-1,1.87,1.87,0,0,1,.25-1,1.64,1.64,0,0,1,.67-.66,1.9,1.9,0,0,1,1-.24,2,2,0,0,1,1,.24,1.68,1.68,0,0,1,.66.66,1.87,1.87,0,0,1,.25,1,1.81,1.81,0,0,1-.25,1,1.7,1.7,0,0,1-.66.67,2,2,0,0,1-1,.24A1.9,1.9,0,0,1,1010.6,377.27Zm1.66-.38a1.24,1.24,0,0,0,.49-.5,1.74,1.74,0,0,0,0-1.5,1.27,1.27,0,0,0-.49-.51,1.38,1.38,0,0,0-.7-.18,1.41,1.41,0,0,0-.71.18,1.34,1.34,0,0,0-.49.51,1.74,1.74,0,0,0,0,1.5,1.31,1.31,0,0,0,.49.5,1.41,1.41,0,0,0,.71.18A1.38,1.38,0,0,0,1012.26,376.89Z"/><path d="M1020.12,374.17a1.61,1.61,0,0,1,.4,1.17v2.14h-.5v-2.09a1.21,1.21,0,0,0-.28-.87,1,1,0,0,0-.78-.3,1.15,1.15,0,0,0-.9.35,1.38,1.38,0,0,0-.33,1v1.93h-.5v-2.09a1.26,1.26,0,0,0-.27-.87,1,1,0,0,0-.79-.3,1.15,1.15,0,0,0-.9.35,1.38,1.38,0,0,0-.33,1v1.93h-.5V373.8h.48v.67a1.29,1.29,0,0,1,.54-.52,1.76,1.76,0,0,1,.81-.18,1.58,1.58,0,0,1,.8.19,1.26,1.26,0,0,1,.51.58,1.45,1.45,0,0,1,.58-.57,1.92,1.92,0,0,1,.87-.2A1.43,1.43,0,0,1,1020.12,374.17Z"/><path d="M907.54,383.43H908v1.87a2.48,2.48,0,0,1-.81.46,2.94,2.94,0,0,1-1,.16,2.74,2.74,0,0,1-1.32-.32,2.39,2.39,0,0,1-.92-.89,2.58,2.58,0,0,1,0-2.56,2.32,2.32,0,0,1,.92-.89,2.67,2.67,0,0,1,1.33-.32,3.09,3.09,0,0,1,1,.17,2.08,2.08,0,0,1,.79.53l-.32.33a2,2,0,0,0-1.48-.57,2.26,2.26,0,0,0-1.07.26,2,2,0,0,0-1,1.77,1.9,1.9,0,0,0,.28,1,2,2,0,0,0,.74.73,2.32,2.32,0,0,0,2.36-.11Z"/><path d="M910.39,382.36a1.74,1.74,0,0,1,.86-.19v.48h-.12a1.17,1.17,0,0,0-.91.36,1.42,1.42,0,0,0-.33,1v1.88h-.5V382.2h.48v.72A1.14,1.14,0,0,1,910.39,382.36Z"/><path d="M914.53,382.53a1.37,1.37,0,0,1,.38,1.07v2.28h-.47v-.58a1.13,1.13,0,0,1-.49.45,1.73,1.73,0,0,1-.78.16,1.55,1.55,0,0,1-1-.29,1,1,0,0,1-.36-.78.92.92,0,0,1,.34-.75,1.59,1.59,0,0,1,1.08-.29h1.17v-.23a.94.94,0,0,0-.27-.72,1.14,1.14,0,0,0-.78-.25,1.93,1.93,0,0,0-.67.12,1.5,1.5,0,0,0-.55.32l-.22-.37a1.82,1.82,0,0,1,.67-.37,2.47,2.47,0,0,1,.82-.13A1.58,1.58,0,0,1,914.53,382.53Zm-.56,2.8a1.2,1.2,0,0,0,.45-.56v-.6h-1.16c-.63,0-.94.22-.94.66a.63.63,0,0,0,.24.51,1.16,1.16,0,0,0,.69.18A1.29,1.29,0,0,0,914,385.33Z"/><path d="M919.24,382.57a1.55,1.55,0,0,1,.41,1.17v2.14h-.49v-2.09a1.22,1.22,0,0,0-.29-.87,1.07,1.07,0,0,0-.82-.3,1.23,1.23,0,0,0-.94.35,1.35,1.35,0,0,0-.35,1v1.93h-.49V382.2h.47v.68a1.43,1.43,0,0,1,.56-.53,1.86,1.86,0,0,1,.84-.18A1.49,1.49,0,0,1,919.24,382.57Z"/><path d="M924.38,380.68v5.2h-.48v-.73a1.47,1.47,0,0,1-.59.57,1.72,1.72,0,0,1-.83.19,1.88,1.88,0,0,1-.94-.24,1.68,1.68,0,0,1-.66-.66,2,2,0,0,1-.23-1,2.08,2.08,0,0,1,.23-1,1.74,1.74,0,0,1,.66-.66,2,2,0,0,1,.94-.23,1.79,1.79,0,0,1,.81.18,1.56,1.56,0,0,1,.59.55v-2.22Zm-1.16,4.61a1.24,1.24,0,0,0,.49-.5,1.65,1.65,0,0,0,0-1.5,1.27,1.27,0,0,0-.49-.51,1.45,1.45,0,0,0-1.4,0,1.27,1.27,0,0,0-.49.51,1.65,1.65,0,0,0,0,1.5,1.24,1.24,0,0,0,.49.5,1.45,1.45,0,0,0,1.4,0Z"/><path d="M930.78,384.57h-2.73l-.59,1.31h-.54l2.24-4.9h.51l2.24,4.9h-.55Zm-.19-.42-1.18-2.63-1.17,2.63Z"/><path d="M935.53,382.2l-1.64,3.68h-.51l-1.63-3.68h.52l1.38,3.13L935,382.2Z"/><path d="M940,385.65a1,1,0,0,1-.34.2,1.59,1.59,0,0,1-.43.06,1,1,0,0,1-1.08-1.07v-2.22h-.66v-.42h.66v-.81h.49v.81h1.12v.42h-1.12v2.19a.69.69,0,0,0,.17.5.61.61,0,0,0,.47.18,1,1,0,0,0,.3-.05,1,1,0,0,0,.25-.14Z"/><path d="M941.32,385.67a1.66,1.66,0,0,1-.67-.67,1.81,1.81,0,0,1-.25-1,1.87,1.87,0,0,1,.25-1,1.64,1.64,0,0,1,.67-.66,1.9,1.9,0,0,1,1-.24,2,2,0,0,1,1,.24,1.68,1.68,0,0,1,.66.66,2,2,0,0,1,.25,1,1.91,1.91,0,0,1-.25,1,1.7,1.7,0,0,1-.66.67,2,2,0,0,1-1,.24A1.9,1.9,0,0,1,941.32,385.67Zm1.66-.38a1.24,1.24,0,0,0,.49-.5,1.74,1.74,0,0,0,0-1.5,1.27,1.27,0,0,0-.49-.51,1.47,1.47,0,0,0-1.41,0,1.34,1.34,0,0,0-.49.51,1.65,1.65,0,0,0,0,1.5,1.31,1.31,0,0,0,.49.5,1.47,1.47,0,0,0,1.41,0Z"/><path d="M946.85,385.74a1.53,1.53,0,0,1-.58-.52l.3-.35a1.24,1.24,0,0,0,1.06.6c.61,0,.91-.36.91-1.08v-3h-1.79V381h2.3v3.39a1.65,1.65,0,0,1-.36,1.16,1.39,1.39,0,0,1-1.07.39A1.65,1.65,0,0,1,946.85,385.74Z"/><path d="M952.89,382.53a1.38,1.38,0,0,1,.39,1.07v2.28h-.48v-.58a1.07,1.07,0,0,1-.49.45,1.71,1.71,0,0,1-.77.16,1.55,1.55,0,0,1-1-.29,1,1,0,0,1,0-1.53,1.62,1.62,0,0,1,1.08-.29h1.17v-.23a1,1,0,0,0-.26-.72,1.14,1.14,0,0,0-.78-.25,1.89,1.89,0,0,0-.67.12,1.55,1.55,0,0,0-.56.32l-.22-.37a1.9,1.9,0,0,1,.67-.37,2.53,2.53,0,0,1,.83-.13A1.53,1.53,0,0,1,952.89,382.53Zm-.56,2.8a1.14,1.14,0,0,0,.45-.56v-.6h-1.15c-.63,0-1,.22-1,.66a.61.61,0,0,0,.25.51,1.12,1.12,0,0,0,.68.18A1.29,1.29,0,0,0,952.33,385.33Z"/><path d="M955.19,385.67a1.7,1.7,0,0,1-.67-.66,2,2,0,0,1,0-1.94,1.7,1.7,0,0,1,.67-.66,2,2,0,0,1,1-.24,1.93,1.93,0,0,1,.85.18,1.42,1.42,0,0,1,.59.55l-.37.25a1.13,1.13,0,0,0-.46-.41,1.4,1.4,0,0,0-.61-.14,1.48,1.48,0,0,0-.72.18,1.27,1.27,0,0,0-.49.51,1.65,1.65,0,0,0,0,1.5,1.24,1.24,0,0,0,.49.5,1.48,1.48,0,0,0,.72.18,1.39,1.39,0,0,0,.61-.13,1.13,1.13,0,0,0,.46-.41l.37.26a1.47,1.47,0,0,1-.59.54,2,2,0,0,1-.85.18A2,2,0,0,1,955.19,385.67Z"/><path d="M959.89,384l-.86.8v1.05h-.5v-5.2h.5v3.53l2.19-2h.62l-1.58,1.5,1.73,2.18h-.61Z"/><path d="M962.75,385.78a1.82,1.82,0,0,1-.64-.32l.23-.39a1.75,1.75,0,0,0,.58.29,2.19,2.19,0,0,0,.73.12,1.33,1.33,0,0,0,.74-.16.49.49,0,0,0,.24-.44.39.39,0,0,0-.13-.32.88.88,0,0,0-.33-.18c-.14,0-.32-.07-.54-.11l-.73-.17a1.08,1.08,0,0,1-.46-.3.81.81,0,0,1-.19-.58.91.91,0,0,1,.38-.76,1.79,1.79,0,0,1,1.07-.29,3,3,0,0,1,.72.09,2.24,2.24,0,0,1,.58.25l-.21.4a1.89,1.89,0,0,0-1.09-.32,1.24,1.24,0,0,0-.71.17.51.51,0,0,0-.25.44.44.44,0,0,0,.14.34.86.86,0,0,0,.34.19,4.65,4.65,0,0,0,.56.12,5,5,0,0,1,.71.17,1,1,0,0,1,.45.28.78.78,0,0,1,.19.56.88.88,0,0,1-.4.77,1.91,1.91,0,0,1-1.12.28A2.76,2.76,0,0,1,962.75,385.78Z"/><path d="M966.59,385.67a1.73,1.73,0,0,1-.67-.67,1.9,1.9,0,0,1-.24-1,2,2,0,0,1,.24-1,1.7,1.7,0,0,1,.67-.66,2,2,0,0,1,1-.24,1.9,1.9,0,0,1,1,.24,1.64,1.64,0,0,1,.67.66,2,2,0,0,1,.24,1,1.9,1.9,0,0,1-.24,1,1.66,1.66,0,0,1-.67.67,1.9,1.9,0,0,1-1,.24A2,2,0,0,1,966.59,385.67Zm1.67-.38a1.22,1.22,0,0,0,.48-.5,1.65,1.65,0,0,0,0-1.5,1.24,1.24,0,0,0-.48-.51,1.41,1.41,0,0,0-.71-.18,1.38,1.38,0,0,0-.7.18,1.27,1.27,0,0,0-.49.51,1.65,1.65,0,0,0,0,1.5,1.24,1.24,0,0,0,.49.5,1.38,1.38,0,0,0,.7.18A1.41,1.41,0,0,0,968.26,385.29Z"/><path d="M973.42,382.57a1.58,1.58,0,0,1,.4,1.17v2.14h-.49v-2.09a1.22,1.22,0,0,0-.29-.87,1.07,1.07,0,0,0-.82-.3,1.23,1.23,0,0,0-.94.35,1.35,1.35,0,0,0-.35,1v1.93h-.49V382.2h.47v.68a1.46,1.46,0,0,1,.57-.53,1.84,1.84,0,0,1,.83-.18A1.53,1.53,0,0,1,973.42,382.57Z"/><path d="M981.21,381v4.9h-.51v-2.26h-3.07v2.26h-.52V381h.52v2.18h3.07V381Z"/><path d="M985.91,384.19h-3.08a1.29,1.29,0,0,0,.44.93,1.48,1.48,0,0,0,1,.35,1.68,1.68,0,0,0,.63-.12,1.33,1.33,0,0,0,.49-.36l.28.32a1.46,1.46,0,0,1-.61.45,2.09,2.09,0,0,1-.81.15,2,2,0,0,1-1-.24,1.69,1.69,0,0,1-.68-.67,1.81,1.81,0,0,1-.25-1,2.07,2.07,0,0,1,.23-1,1.72,1.72,0,0,1,.65-.66,1.88,1.88,0,0,1,1.84,0,1.6,1.6,0,0,1,.63.66,1.91,1.91,0,0,1,.23,1Zm-2.67-1.26a1.35,1.35,0,0,0-.41.89h2.61a1.35,1.35,0,0,0-.41-.89,1.29,1.29,0,0,0-.9-.34A1.26,1.26,0,0,0,983.24,382.93Z"/><path d="M986.92,381.29a.35.35,0,0,1-.1-.26.33.33,0,0,1,.1-.24.36.36,0,0,1,.52,0,.3.3,0,0,1,.1.24.37.37,0,0,1-.62.26Zm0,.91h.5v3.68h-.5Z"/><path d="M992.22,382.2v3.23a1.85,1.85,0,0,1-.46,1.39,1.88,1.88,0,0,1-1.38.45,3.08,3.08,0,0,1-1-.15,2,2,0,0,1-.75-.42l.26-.37a2,2,0,0,0,.64.37,2.41,2.41,0,0,0,.81.13,1.39,1.39,0,0,0,1-.33,1.35,1.35,0,0,0,.33-1V385a1.49,1.49,0,0,1-.6.54,1.9,1.9,0,0,1-.83.18,2,2,0,0,1-.94-.23,1.59,1.59,0,0,1-.67-.64,1.9,1.9,0,0,1,0-1.85,1.67,1.67,0,0,1,.66-.63,2,2,0,0,1,.95-.22,1.79,1.79,0,0,1,.84.19,1.45,1.45,0,0,1,.61.54v-.7Zm-1.16,2.93a1.36,1.36,0,0,0,.5-.48,1.38,1.38,0,0,0,.18-.7,1.33,1.33,0,0,0-.18-.7,1.36,1.36,0,0,0-.5-.48,1.61,1.61,0,0,0-1.44,0,1.22,1.22,0,0,0-.5.48,1.33,1.33,0,0,0-.18.7,1.38,1.38,0,0,0,.18.7,1.36,1.36,0,0,0,.5.48,1.53,1.53,0,0,0,.72.17A1.59,1.59,0,0,0,991.06,385.13Z"/><path d="M996.59,382.57a1.59,1.59,0,0,1,.41,1.17v2.14h-.5v-2.09a1.21,1.21,0,0,0-.28-.87,1.09,1.09,0,0,0-.82-.3,1.23,1.23,0,0,0-.94.35,1.35,1.35,0,0,0-.35,1v1.93h-.5v-5.2h.5v2.16a1.43,1.43,0,0,1,.56-.5,1.94,1.94,0,0,1,.82-.17A1.49,1.49,0,0,1,996.59,382.57Z"/><path d="M1000.29,385.65a.92.92,0,0,1-.35.2,1.49,1.49,0,0,1-.43.06,1,1,0,0,1-1.07-1.07v-2.22h-.66v-.42h.66v-.81h.49v.81h1.12v.42h-1.12v2.19a.69.69,0,0,0,.17.5.61.61,0,0,0,.47.18,1,1,0,0,0,.3-.05,1,1,0,0,0,.25-.14Z"/><path d="M1001.32,385.78a1.82,1.82,0,0,1-.64-.32l.23-.39a1.66,1.66,0,0,0,.58.29,2.19,2.19,0,0,0,.73.12,1.33,1.33,0,0,0,.74-.16.49.49,0,0,0,.24-.44.39.39,0,0,0-.13-.32.85.85,0,0,0-.34-.18,5.26,5.26,0,0,0-.53-.11l-.73-.17a1.08,1.08,0,0,1-.46-.3.81.81,0,0,1-.19-.58.91.91,0,0,1,.38-.76,1.77,1.77,0,0,1,1.07-.29,3,3,0,0,1,.72.09,2.24,2.24,0,0,1,.58.25l-.21.4a1.89,1.89,0,0,0-1.09-.32,1.3,1.3,0,0,0-.72.17.53.53,0,0,0-.24.44.44.44,0,0,0,.14.34.86.86,0,0,0,.34.19,4.65,4.65,0,0,0,.56.12,5,5,0,0,1,.71.17,1.07,1.07,0,0,1,.45.28.78.78,0,0,1,.19.56.88.88,0,0,1-.4.77,1.91,1.91,0,0,1-1.12.28A2.76,2.76,0,0,1,1001.32,385.78Z"/><path d="M906.6,391.88a1.3,1.3,0,0,1,.38,1,1.43,1.43,0,0,1-.21.76,1.45,1.45,0,0,1-.63.53,2.26,2.26,0,0,1-1,.2,3.43,3.43,0,0,1-1-.15,2.23,2.23,0,0,1-.79-.44l.32-.55a2,2,0,0,0,.65.38,2.54,2.54,0,0,0,.83.14,1.39,1.39,0,0,0,.85-.23.77.77,0,0,0,.31-.64.74.74,0,0,0-.3-.63,1.55,1.55,0,0,0-.91-.22h-.4v-.49l1.24-1.51h-2.36v-.61h3.23v.47l-1.28,1.59A1.71,1.71,0,0,1,906.6,391.88Z"/><path d="M907.75,394.18a.48.48,0,0,1,0-.68.49.49,0,0,1,.34-.14.49.49,0,0,1,.33.13.48.48,0,0,1,.13.35.42.42,0,0,1-.14.34.45.45,0,0,1-.32.14A.49.49,0,0,1,907.75,394.18Z"/><path d="M913.35,394.05a1,1,0,0,1-.35.2,1.54,1.54,0,0,1-.43.06,1.07,1.07,0,0,1-.8-.28,1,1,0,0,1-.28-.79V391h-.66v-.42h.66v-.81h.5v.81h1.12V391H912v2.19a.68.68,0,0,0,.16.5.61.61,0,0,0,.47.18.94.94,0,0,0,.3-.05.86.86,0,0,0,.25-.14Z"/><path d="M915.25,390.76a1.7,1.7,0,0,1,.85-.19v.48H916a1.18,1.18,0,0,0-.91.36,1.46,1.46,0,0,0-.32,1v1.88h-.5V390.6h.47v.72A1.2,1.2,0,0,1,915.25,390.76Z"/><path d="M919.39,390.93a1.41,1.41,0,0,1,.38,1.07v2.28h-.47v-.58a1.15,1.15,0,0,1-.5.45,1.68,1.68,0,0,1-.77.16,1.49,1.49,0,0,1-1-.29,1,1,0,0,1-.37-.78,1,1,0,0,1,.34-.75,1.63,1.63,0,0,1,1.09-.29h1.16V392a1,1,0,0,0-.26-.73,1.14,1.14,0,0,0-.78-.25,1.89,1.89,0,0,0-.67.12,1.43,1.43,0,0,0-.55.32l-.23-.37a1.86,1.86,0,0,1,.68-.37,2.47,2.47,0,0,1,.82-.13A1.58,1.58,0,0,1,919.39,390.93Zm-.56,2.8a1.08,1.08,0,0,0,.44-.56v-.6h-1.15c-.63,0-1,.22-1,.66a.63.63,0,0,0,.25.51,1.13,1.13,0,0,0,.69.18A1.29,1.29,0,0,0,918.83,393.73Z"/><path d="M924.1,391a1.59,1.59,0,0,1,.41,1.17v2.14H924v-2.09a1.21,1.21,0,0,0-.28-.87,1.09,1.09,0,0,0-.82-.3,1.23,1.23,0,0,0-.94.35,1.35,1.35,0,0,0-.35,1v1.93h-.5V390.6h.48v.68a1.36,1.36,0,0,1,.56-.53,1.86,1.86,0,0,1,.84-.18A1.49,1.49,0,0,1,924.1,391Z"/><path d="M926,394.18a1.74,1.74,0,0,1-.64-.32l.23-.39a1.66,1.66,0,0,0,.58.29,2.18,2.18,0,0,0,.72.12,1.35,1.35,0,0,0,.75-.16.49.49,0,0,0,.24-.44.39.39,0,0,0-.13-.32.85.85,0,0,0-.34-.18,5,5,0,0,0-.54-.11,6.53,6.53,0,0,1-.72-.17,1,1,0,0,1-.46-.3.82.82,0,0,1-.2-.58.92.92,0,0,1,.39-.76,1.77,1.77,0,0,1,1.07-.29,2.82,2.82,0,0,1,.71.09,2.18,2.18,0,0,1,.59.25l-.21.4a1.89,1.89,0,0,0-1.09-.31,1.28,1.28,0,0,0-.72.16.53.53,0,0,0-.24.44.44.44,0,0,0,.14.34.86.86,0,0,0,.34.19,4.65,4.65,0,0,0,.56.12,4.49,4.49,0,0,1,.7.17,1,1,0,0,1,.46.28.84.84,0,0,1,.19.56.91.91,0,0,1-.4.77,1.91,1.91,0,0,1-1.12.28A2.71,2.71,0,0,1,926,394.18Z"/><path d="M930,389.64a.74.74,0,0,0-.17.52v.44H931V391h-1.12v3.26h-.5V391h-.66v-.42h.66v-.46a1,1,0,0,1,1.11-1.09,1.4,1.4,0,0,1,.41.06,1,1,0,0,1,.33.17l-.17.37a.85.85,0,0,0-.55-.18A.65.65,0,0,0,930,389.64Z"/><path d="M934.8,392.59h-3.08a1.37,1.37,0,0,0,.44.93,1.49,1.49,0,0,0,1,.35,1.61,1.61,0,0,0,.63-.12,1.36,1.36,0,0,0,.5-.36l.28.32a1.55,1.55,0,0,1-.62.45,2.23,2.23,0,0,1-1.81-.09,1.69,1.69,0,0,1-.68-.67,1.81,1.81,0,0,1-.25-1,2,2,0,0,1,.24-1,1.63,1.63,0,0,1,.64-.66,1.88,1.88,0,0,1,1.84,0,1.69,1.69,0,0,1,.64.66,2,2,0,0,1,.23,1Zm-2.67-1.26a1.35,1.35,0,0,0-.41.89h2.61a1.35,1.35,0,0,0-.41-.89,1.38,1.38,0,0,0-1.79,0Z"/><path d="M936.82,390.76a1.74,1.74,0,0,1,.86-.19v.48h-.12a1.17,1.17,0,0,0-.91.36,1.42,1.42,0,0,0-.33,1v1.88h-.5V390.6h.48v.72A1.14,1.14,0,0,1,936.82,390.76Z"/><path d="M942.4,394.05a.92.92,0,0,1-.35.2,1.49,1.49,0,0,1-.43.06,1,1,0,0,1-1.07-1.07V391h-.66v-.42h.66v-.81H941v.81h1.12V391H941v2.19a.69.69,0,0,0,.17.5.61.61,0,0,0,.47.18,1,1,0,0,0,.3-.05,1,1,0,0,0,.25-.14Z"/><path d="M943.72,394.07a1.66,1.66,0,0,1-.67-.67,1.81,1.81,0,0,1-.25-1,1.87,1.87,0,0,1,.25-1,1.64,1.64,0,0,1,.67-.66,1.9,1.9,0,0,1,1-.24,2,2,0,0,1,1,.24,1.68,1.68,0,0,1,.66.66,2,2,0,0,1,.25,1,1.91,1.91,0,0,1-.25,1,1.7,1.7,0,0,1-.66.67,2,2,0,0,1-1,.24A1.9,1.9,0,0,1,943.72,394.07Zm1.66-.38a1.24,1.24,0,0,0,.49-.5,1.74,1.74,0,0,0,0-1.5,1.27,1.27,0,0,0-.49-.51,1.38,1.38,0,0,0-.7-.18,1.41,1.41,0,0,0-.71.18,1.34,1.34,0,0,0-.49.51,1.65,1.65,0,0,0,0,1.5,1.31,1.31,0,0,0,.49.5,1.41,1.41,0,0,0,.71.18A1.38,1.38,0,0,0,945.38,393.69Z"/><path d="M951.33,394.05a1,1,0,0,1-.34.2,1.54,1.54,0,0,1-.43.06,1,1,0,0,1-1.08-1.07V391h-.66v-.42h.66v-.81h.5v.81h1.11V391H950v2.19a.68.68,0,0,0,.16.5.61.61,0,0,0,.47.18,1,1,0,0,0,.3-.05,1,1,0,0,0,.25-.14Z"/><path d="M955.21,391a1.55,1.55,0,0,1,.41,1.17v2.14h-.49v-2.09a1.22,1.22,0,0,0-.29-.87,1.07,1.07,0,0,0-.82-.3,1.23,1.23,0,0,0-.94.35,1.35,1.35,0,0,0-.35,1v1.93h-.49v-5.2h.49v2.16a1.43,1.43,0,0,1,.56-.5,1.94,1.94,0,0,1,.82-.17A1.49,1.49,0,0,1,955.21,391Z"/><path d="M960.2,392.59h-3.08a1.29,1.29,0,0,0,.44.93,1.47,1.47,0,0,0,1,.35,1.61,1.61,0,0,0,.63-.12,1.36,1.36,0,0,0,.5-.36l.28.32a1.52,1.52,0,0,1-.61.45,2.16,2.16,0,0,1-.81.15,2.09,2.09,0,0,1-1-.24,1.75,1.75,0,0,1-.68-.67,1.9,1.9,0,0,1-.24-1,2.07,2.07,0,0,1,.23-1,1.65,1.65,0,0,1,.65-.66,1.78,1.78,0,0,1,.92-.24,1.74,1.74,0,0,1,.91.24,1.63,1.63,0,0,1,.64.66,2,2,0,0,1,.23,1Zm-2.68-1.26a1.34,1.34,0,0,0-.4.89h2.61a1.4,1.4,0,0,0-.41-.89,1.39,1.39,0,0,0-1.8,0Z"/><path class="cls-3" d="M966.62,393.83v.45h-3.46v-4.9h3.36v.45h-2.85v1.74h2.54V392h-2.54v1.82Z"/><path d="M971.51,394.05a1,1,0,0,1-.35.2,1.54,1.54,0,0,1-.43.06,1.07,1.07,0,0,1-.8-.28,1,1,0,0,1-.28-.79V391H969v-.42h.66v-.81h.5v.81h1.12V391h-1.12v2.19a.68.68,0,0,0,.16.5.62.62,0,0,0,.48.18.93.93,0,0,0,.29-.05.86.86,0,0,0,.25-.14Z"/><path d="M973.41,390.76a1.7,1.7,0,0,1,.85-.19v.48h-.12a1.18,1.18,0,0,0-.91.36,1.46,1.46,0,0,0-.32,1v1.88h-.5V390.6h.47v.72A1.2,1.2,0,0,1,973.41,390.76Z"/><path d="M977.55,390.93a1.41,1.41,0,0,1,.38,1.07v2.28h-.47v-.58a1.15,1.15,0,0,1-.5.45,1.65,1.65,0,0,1-.77.16,1.49,1.49,0,0,1-1-.29,1,1,0,0,1-.37-.78,1,1,0,0,1,.34-.75,1.63,1.63,0,0,1,1.09-.29h1.16V392a1,1,0,0,0-.26-.73,1.14,1.14,0,0,0-.78-.25,1.89,1.89,0,0,0-.67.12,1.43,1.43,0,0,0-.55.32l-.23-.37a1.86,1.86,0,0,1,.68-.37,2.47,2.47,0,0,1,.82-.13A1.58,1.58,0,0,1,977.55,390.93Zm-.56,2.8a1.08,1.08,0,0,0,.44-.56v-.6h-1.15c-.63,0-.95.22-.95.66a.63.63,0,0,0,.25.51,1.13,1.13,0,0,0,.69.18A1.29,1.29,0,0,0,977,393.73Z"/><path d="M979.28,389.69a.36.36,0,0,1-.11-.26.34.34,0,0,1,.11-.24.35.35,0,0,1,.26-.11.34.34,0,0,1,.25.11.3.3,0,0,1,.11.24.36.36,0,0,1-.11.26.33.33,0,0,1-.25.1A.34.34,0,0,1,979.28,389.69Zm0,.91h.5v3.68h-.5Z"/><path d="M984.14,391a1.55,1.55,0,0,1,.41,1.17v2.14h-.49v-2.09a1.22,1.22,0,0,0-.29-.87,1.07,1.07,0,0,0-.82-.3,1.23,1.23,0,0,0-.94.35,1.35,1.35,0,0,0-.35,1v1.93h-.49V390.6h.47v.68a1.39,1.39,0,0,1,.57-.53,1.81,1.81,0,0,1,.83-.18A1.49,1.49,0,0,1,984.14,391Z"/><path d="M988.47,389.64a.74.74,0,0,0-.16.52v.44h1.13V391h-1.12v3.26h-.5V391h-.65v-.42h.65v-.46a1.12,1.12,0,0,1,.29-.8,1.15,1.15,0,0,1,.83-.29,1.34,1.34,0,0,1,.4.06,1,1,0,0,1,.33.17l-.17.37a.8.8,0,0,0-.54-.18A.66.66,0,0,0,988.47,389.64Z"/><path d="M991.67,390.76a1.74,1.74,0,0,1,.86-.19v.48h-.12a1.17,1.17,0,0,0-.91.36,1.42,1.42,0,0,0-.33,1v1.88h-.5V390.6h.48v.72A1.14,1.14,0,0,1,991.67,390.76Z"/><path d="M993.93,394.07a1.73,1.73,0,0,1-.67-.67,1.9,1.9,0,0,1-.24-1,2,2,0,0,1,.24-1,1.7,1.7,0,0,1,.67-.66,2,2,0,0,1,1-.24,1.9,1.9,0,0,1,1,.24,1.64,1.64,0,0,1,.67.66,2,2,0,0,1,.24,1,1.9,1.9,0,0,1-.24,1,1.66,1.66,0,0,1-.67.67,1.9,1.9,0,0,1-1,.24A2,2,0,0,1,993.93,394.07Zm1.67-.38a1.22,1.22,0,0,0,.48-.5,1.65,1.65,0,0,0,0-1.5,1.24,1.24,0,0,0-.48-.51,1.41,1.41,0,0,0-.71-.18,1.38,1.38,0,0,0-.7.18,1.27,1.27,0,0,0-.49.51,1.65,1.65,0,0,0,0,1.5,1.24,1.24,0,0,0,.49.5,1.38,1.38,0,0,0,.7.18A1.41,1.41,0,0,0,995.6,393.69Z"/><path d="M1003.46,391a1.6,1.6,0,0,1,.39,1.17v2.14h-.49v-2.09a1.26,1.26,0,0,0-.28-.87,1,1,0,0,0-.78-.3,1.18,1.18,0,0,0-.91.35,1.43,1.43,0,0,0-.32,1v1.93h-.5v-2.09a1.21,1.21,0,0,0-.28-.87,1,1,0,0,0-.79-.3,1.15,1.15,0,0,0-.89.35,1.34,1.34,0,0,0-.34,1v1.93h-.49V390.6h.47v.67a1.26,1.26,0,0,1,.55-.52,1.71,1.71,0,0,1,.8-.18,1.55,1.55,0,0,1,.8.19,1.23,1.23,0,0,1,.51.59,1.43,1.43,0,0,1,.59-.58,1.86,1.86,0,0,1,.87-.2A1.46,1.46,0,0,1,1003.46,391Z"/><path d="M903.83,402.54a1.53,1.53,0,0,1-.58-.52l.31-.35a1.23,1.23,0,0,0,1.06.6c.6,0,.91-.36.91-1.08v-3h-1.79v-.45H906v3.39a1.65,1.65,0,0,1-.36,1.16,1.39,1.39,0,0,1-1.07.39A1.72,1.72,0,0,1,903.83,402.54Z"/><path d="M909.88,399.33a1.38,1.38,0,0,1,.39,1.07v2.28h-.48v-.58a1.13,1.13,0,0,1-.49.45,1.73,1.73,0,0,1-.78.16,1.51,1.51,0,0,1-1-.29,1,1,0,0,1-.36-.78.92.92,0,0,1,.34-.75,1.62,1.62,0,0,1,1.08-.29h1.17v-.22a1,1,0,0,0-.27-.73,1.1,1.1,0,0,0-.77-.25,2,2,0,0,0-.68.12,1.59,1.59,0,0,0-.55.32l-.22-.37a1.82,1.82,0,0,1,.67-.37,2.53,2.53,0,0,1,.83-.13A1.55,1.55,0,0,1,909.88,399.33Zm-.56,2.8a1.2,1.2,0,0,0,.45-.56V401h-1.16c-.63,0-.94.22-.94.66a.63.63,0,0,0,.24.51,1.18,1.18,0,0,0,.69.18A1.29,1.29,0,0,0,909.32,402.13Z"/><path d="M912.18,402.48a1.82,1.82,0,0,1-.68-.67,2.08,2.08,0,0,1,0-1.94,1.73,1.73,0,0,1,.68-.66,2.11,2.11,0,0,1,1.83-.06,1.49,1.49,0,0,1,.59.55l-.37.25a1.2,1.2,0,0,0-.46-.41,1.4,1.4,0,0,0-.61-.14,1.43,1.43,0,0,0-.72.18,1.29,1.29,0,0,0-.5.51,1.65,1.65,0,0,0,0,1.5,1.27,1.27,0,0,0,.5.5,1.43,1.43,0,0,0,.72.18,1.39,1.39,0,0,0,.61-.13,1.13,1.13,0,0,0,.46-.41l.37.26a1.5,1.5,0,0,1-.6.54,1.92,1.92,0,0,1-.84.18A2.08,2.08,0,0,1,912.18,402.48Z"/><path d="M916.88,400.83l-.87.8v1.05h-.49v-5.2H916V401l2.2-2h.62l-1.58,1.5,1.72,2.18h-.6Z"/><path d="M919.74,402.58a1.74,1.74,0,0,1-.64-.32l.22-.39a1.81,1.81,0,0,0,.59.29,2.18,2.18,0,0,0,.72.12,1.35,1.35,0,0,0,.75-.16.49.49,0,0,0,.24-.44.39.39,0,0,0-.13-.32.85.85,0,0,0-.34-.18,5,5,0,0,0-.54-.11,6.53,6.53,0,0,1-.72-.17,1,1,0,0,1-.46-.3.82.82,0,0,1-.2-.58.92.92,0,0,1,.39-.76,1.75,1.75,0,0,1,1.07-.29,2.82,2.82,0,0,1,.71.09,2.18,2.18,0,0,1,.59.25l-.22.4a1.83,1.83,0,0,0-1.08-.31,1.28,1.28,0,0,0-.72.16.53.53,0,0,0-.24.44.44.44,0,0,0,.14.34.86.86,0,0,0,.34.19,4.65,4.65,0,0,0,.56.12,4.49,4.49,0,0,1,.7.17,1,1,0,0,1,.46.28.84.84,0,0,1,.19.56.89.89,0,0,1-.41.77,1.88,1.88,0,0,1-1.11.28A2.71,2.71,0,0,1,919.74,402.58Z"/><path d="M923.58,402.47a1.66,1.66,0,0,1-.67-.67,1.81,1.81,0,0,1-.25-1,1.87,1.87,0,0,1,.25-1,1.64,1.64,0,0,1,.67-.66,1.9,1.9,0,0,1,1-.24,2,2,0,0,1,1,.24,1.77,1.77,0,0,1,.67.66,2,2,0,0,1,.24,1,1.9,1.9,0,0,1-.24,1,1.8,1.8,0,0,1-.67.67,2,2,0,0,1-1,.24A1.9,1.9,0,0,1,923.58,402.47Zm1.66-.38a1.24,1.24,0,0,0,.49-.5,1.74,1.74,0,0,0,0-1.5,1.27,1.27,0,0,0-.49-.51,1.38,1.38,0,0,0-.7-.18,1.41,1.41,0,0,0-.71.18,1.24,1.24,0,0,0-.48.51,1.65,1.65,0,0,0,0,1.5,1.22,1.22,0,0,0,.48.5,1.41,1.41,0,0,0,.71.18A1.38,1.38,0,0,0,925.24,402.09Z"/><path d="M930.4,399.37a1.59,1.59,0,0,1,.41,1.17v2.14h-.5v-2.09a1.21,1.21,0,0,0-.28-.87,1.1,1.1,0,0,0-.82-.3,1.23,1.23,0,0,0-.94.35,1.35,1.35,0,0,0-.35,1v1.93h-.5V399h.48v.68a1.36,1.36,0,0,1,.56-.53,1.86,1.86,0,0,1,.84-.18A1.49,1.49,0,0,1,930.4,399.37Z"/><path d="M938.2,397.78v4.9h-.52v-2.26h-3.06v2.26h-.52v-4.9h.52V400h3.06v-2.18Z"/><path d="M942.89,401h-3.08a1.37,1.37,0,0,0,.44.93,1.51,1.51,0,0,0,1,.35,1.61,1.61,0,0,0,.63-.12,1.36,1.36,0,0,0,.5-.36l.28.32a1.52,1.52,0,0,1-.61.45,2.16,2.16,0,0,1-.81.15,2.09,2.09,0,0,1-1-.24,1.69,1.69,0,0,1-.68-.67,1.9,1.9,0,0,1-.24-1,2,2,0,0,1,.23-1,1.69,1.69,0,0,1,.64-.66,1.81,1.81,0,0,1,.93-.24,1.74,1.74,0,0,1,.91.24,1.63,1.63,0,0,1,.64.66,2,2,0,0,1,.23,1Zm-2.67-1.26a1.4,1.4,0,0,0-.41.89h2.61a1.35,1.35,0,0,0-.41-.89,1.38,1.38,0,0,0-1.79,0Z"/><path d="M943.91,398.09a.36.36,0,0,1-.11-.26.34.34,0,0,1,.11-.24.35.35,0,0,1,.26-.11.36.36,0,0,1,.26.11.3.3,0,0,1,.1.24.34.34,0,0,1-.36.36A.34.34,0,0,1,943.91,398.09Zm0,.91h.49v3.68h-.49Z"/><path d="M949.21,399v3.23a1.89,1.89,0,0,1-.46,1.39,1.91,1.91,0,0,1-1.38.45,3,3,0,0,1-1-.15,1.94,1.94,0,0,1-.75-.42l.25-.37a2.16,2.16,0,0,0,.65.37,2.36,2.36,0,0,0,.8.13,1.4,1.4,0,0,0,1-.33,1.35,1.35,0,0,0,.33-1v-.47a1.52,1.52,0,0,1-.61.54,1.87,1.87,0,0,1-.83.18,2,2,0,0,1-.94-.23,1.63,1.63,0,0,1-.66-.64,1.9,1.9,0,0,1,0-1.85,1.67,1.67,0,0,1,.66-.63,2,2,0,0,1,.94-.22,1.8,1.8,0,0,1,.85.19,1.52,1.52,0,0,1,.61.54V399ZM948,401.93a1.22,1.22,0,0,0,.5-.48,1.38,1.38,0,0,0,.18-.7,1.33,1.33,0,0,0-.18-.7,1.26,1.26,0,0,0-.49-.48,1.57,1.57,0,0,0-.73-.17,1.52,1.52,0,0,0-.71.17,1.16,1.16,0,0,0-.5.48,1.33,1.33,0,0,0-.18.7,1.38,1.38,0,0,0,.18.7,1.28,1.28,0,0,0,.5.48,1.59,1.59,0,0,0,1.43,0Z"/><path d="M953.58,399.37a1.59,1.59,0,0,1,.41,1.17v2.14h-.5v-2.09a1.22,1.22,0,0,0-.29-.87,1.07,1.07,0,0,0-.82-.3,1.24,1.24,0,0,0-.94.35,1.34,1.34,0,0,0-.34,1v1.93h-.5v-5.2h.5v2.16a1.36,1.36,0,0,1,.56-.5,1.9,1.9,0,0,1,.82-.17A1.5,1.5,0,0,1,953.58,399.37Z"/><path d="M957.28,402.45a1,1,0,0,1-.35.2,1.54,1.54,0,0,1-.43.06,1,1,0,0,1-1.08-1.07v-2.22h-.66V399h.66v-.81h.5V399H957v.42h-1.12v2.19a.68.68,0,0,0,.16.5.62.62,0,0,0,.48.18.93.93,0,0,0,.29-.05.86.86,0,0,0,.25-.14Z"/><path d="M958.31,402.58a1.74,1.74,0,0,1-.64-.32l.22-.39a1.85,1.85,0,0,0,.58.29,2.28,2.28,0,0,0,.73.12,1.35,1.35,0,0,0,.75-.16.49.49,0,0,0,.24-.44.43.43,0,0,0-.13-.32.85.85,0,0,0-.34-.18c-.14,0-.31-.07-.54-.11a6.53,6.53,0,0,1-.72-.17,1,1,0,0,1-.46-.3.82.82,0,0,1-.2-.58.92.92,0,0,1,.39-.76,1.75,1.75,0,0,1,1.07-.29,2.88,2.88,0,0,1,.71.09,2.18,2.18,0,0,1,.59.25l-.22.4a1.83,1.83,0,0,0-1.08-.31,1.28,1.28,0,0,0-.72.16.53.53,0,0,0-.24.44.41.41,0,0,0,.14.34.86.86,0,0,0,.34.19,4.88,4.88,0,0,0,.55.12,4.38,4.38,0,0,1,.71.17,1,1,0,0,1,.46.28.84.84,0,0,1,.19.56.89.89,0,0,1-.41.77,1.88,1.88,0,0,1-1.11.28A2.71,2.71,0,0,1,958.31,402.58Z"/><path d="M965.38,402.45a1,1,0,0,1-.35.2,1.54,1.54,0,0,1-.43.06,1.07,1.07,0,0,1-.8-.28,1,1,0,0,1-.28-.79v-2.22h-.66V399h.66v-.81h.5V399h1.12v.42H964v2.19a.68.68,0,0,0,.16.5.62.62,0,0,0,.48.18.93.93,0,0,0,.29-.05.86.86,0,0,0,.25-.14Z"/><path d="M966.69,402.47a1.73,1.73,0,0,1-.67-.67,1.9,1.9,0,0,1-.24-1,2,2,0,0,1,.24-1,1.7,1.7,0,0,1,.67-.66,2,2,0,0,1,1-.24,1.9,1.9,0,0,1,1,.24,1.7,1.7,0,0,1,.67.66,2,2,0,0,1,.24,1,1.9,1.9,0,0,1-.24,1,1.73,1.73,0,0,1-.67.67,1.9,1.9,0,0,1-1,.24A2,2,0,0,1,966.69,402.47Zm1.66-.38a1.24,1.24,0,0,0,.49-.5,1.65,1.65,0,0,0,0-1.5,1.27,1.27,0,0,0-.49-.51,1.35,1.35,0,0,0-.7-.18,1.38,1.38,0,0,0-.7.18,1.27,1.27,0,0,0-.49.51,1.65,1.65,0,0,0,0,1.5,1.24,1.24,0,0,0,.49.5,1.38,1.38,0,0,0,.7.18A1.35,1.35,0,0,0,968.35,402.09Z"/><path d="M973.29,402.4a2.39,2.39,0,0,1-.92-.89,2.65,2.65,0,0,1,0-2.56,2.32,2.32,0,0,1,.92-.89,2.63,2.63,0,0,1,1.32-.32,2.79,2.79,0,0,1,1,.18,2.12,2.12,0,0,1,.78.53l-.33.33a1.93,1.93,0,0,0-1.45-.58,2.18,2.18,0,0,0-1,.26,2,2,0,0,0-.75.73,2,2,0,0,0-.27,1,2,2,0,0,0,.27,1,2,2,0,0,0,.75.73,2.08,2.08,0,0,0,1,.27,1.94,1.94,0,0,0,1.45-.59l.33.33a2.08,2.08,0,0,1-.79.53,2.56,2.56,0,0,1-1,.19A2.73,2.73,0,0,1,973.29,402.4Z"/><path d="M980.38,399.37a1.59,1.59,0,0,1,.41,1.17v2.14h-.5v-2.09a1.21,1.21,0,0,0-.28-.87,1.1,1.1,0,0,0-.82-.3,1.23,1.23,0,0,0-.94.35,1.31,1.31,0,0,0-.35,1v1.93h-.5v-5.2h.5v2.16a1.36,1.36,0,0,1,.56-.5,1.94,1.94,0,0,1,.82-.17A1.49,1.49,0,0,1,980.38,399.37Z"/><path d="M984.54,399.33a1.41,1.41,0,0,1,.38,1.07v2.28h-.48v-.58a1.07,1.07,0,0,1-.49.45,1.68,1.68,0,0,1-.77.16,1.49,1.49,0,0,1-1-.29,1,1,0,0,1,0-1.53,1.62,1.62,0,0,1,1.08-.29h1.17v-.22a1,1,0,0,0-.26-.73,1.14,1.14,0,0,0-.78-.25,1.89,1.89,0,0,0-.67.12,1.43,1.43,0,0,0-.55.32l-.23-.37a1.9,1.9,0,0,1,.67-.37,2.53,2.53,0,0,1,.83-.13A1.58,1.58,0,0,1,984.54,399.33Zm-.56,2.8a1.12,1.12,0,0,0,.44-.56V401h-1.15c-.63,0-.95.22-.95.66a.63.63,0,0,0,.25.51,1.12,1.12,0,0,0,.68.18A1.35,1.35,0,0,0,984,402.13Z"/><path d="M992,399.37a1.61,1.61,0,0,1,.4,1.17v2.14h-.5v-2.09a1.21,1.21,0,0,0-.28-.87,1,1,0,0,0-.78-.3,1.15,1.15,0,0,0-.9.35,1.38,1.38,0,0,0-.33,1v1.93h-.5v-2.09a1.26,1.26,0,0,0-.27-.87,1,1,0,0,0-.79-.3,1.15,1.15,0,0,0-.9.35,1.38,1.38,0,0,0-.33,1v1.93h-.5V399h.48v.67a1.29,1.29,0,0,1,.54-.52,1.76,1.76,0,0,1,.81-.18,1.58,1.58,0,0,1,.8.19,1.24,1.24,0,0,1,.51.59,1.41,1.41,0,0,1,.58-.58,1.92,1.92,0,0,1,.87-.2A1.43,1.43,0,0,1,992,399.37Z"/><path d="M996.53,399.2a1.74,1.74,0,0,1,.66.66,2,2,0,0,1,.24,1,1.94,1.94,0,0,1-.24,1,1.77,1.77,0,0,1-.66.67,2,2,0,0,1-.94.23,1.71,1.71,0,0,1-.82-.19,1.49,1.49,0,0,1-.6-.57v.73h-.47v-5.2h.5v2.22a1.56,1.56,0,0,1,.59-.55,1.77,1.77,0,0,1,.8-.18A2,2,0,0,1,996.53,399.2Zm-.27,2.89a1.24,1.24,0,0,0,.49-.5,1.65,1.65,0,0,0,0-1.5,1.27,1.27,0,0,0-.49-.51,1.38,1.38,0,0,0-.7-.18,1.35,1.35,0,0,0-.7.18,1.27,1.27,0,0,0-.49.51,1.65,1.65,0,0,0,0,1.5,1.24,1.24,0,0,0,.49.5,1.35,1.35,0,0,0,.7.18A1.38,1.38,0,0,0,996.26,402.09Z"/><path d="M1001.65,401h-3.08a1.37,1.37,0,0,0,.44.93,1.49,1.49,0,0,0,1,.35,1.61,1.61,0,0,0,.63-.12,1.36,1.36,0,0,0,.5-.36l.28.32a1.55,1.55,0,0,1-.62.45,2.09,2.09,0,0,1-.81.15,2.05,2.05,0,0,1-1-.24,1.69,1.69,0,0,1-.68-.67,1.81,1.81,0,0,1-.25-1,2,2,0,0,1,.24-1,1.63,1.63,0,0,1,.64-.66,1.88,1.88,0,0,1,1.84,0,1.69,1.69,0,0,1,.64.66,2,2,0,0,1,.23,1ZM999,399.73a1.35,1.35,0,0,0-.41.89h2.61a1.35,1.35,0,0,0-.41-.89,1.38,1.38,0,0,0-1.79,0Z"/><path d="M1003.67,399.16a1.74,1.74,0,0,1,.86-.19v.48h-.12a1.17,1.17,0,0,0-.91.36,1.42,1.42,0,0,0-.33,1v1.88h-.5V399h.48v.72A1.14,1.14,0,0,1,1003.67,399.16Z"/><path d="M1007.72,402.55a2,2,0,0,1-.77-.47l.2-.4a1.78,1.78,0,0,0,.71.43,2.58,2.58,0,0,0,.91.17,1.63,1.63,0,0,0,1-.24.74.74,0,0,0,.33-.63.68.68,0,0,0-.17-.47,1.48,1.48,0,0,0-.44-.27,7.28,7.28,0,0,0-.72-.2c-.37-.1-.67-.19-.88-.27a1.51,1.51,0,0,1-.57-.4,1.09,1.09,0,0,1-.23-.72,1.25,1.25,0,0,1,.19-.68,1.31,1.31,0,0,1,.61-.48,2.45,2.45,0,0,1,1-.18,2.91,2.91,0,0,1,.83.11,2.59,2.59,0,0,1,.69.32l-.17.41a2.8,2.8,0,0,0-.66-.3,2.35,2.35,0,0,0-.69-.1,1.56,1.56,0,0,0-1,.25.76.76,0,0,0-.32.64.64.64,0,0,0,.18.47,1.13,1.13,0,0,0,.45.27c.17.06.42.13.72.21a6.78,6.78,0,0,1,.87.26,1.49,1.49,0,0,1,.56.39,1,1,0,0,1,.23.71,1.22,1.22,0,0,1-.19.68,1.4,1.4,0,0,1-.62.48,2.5,2.5,0,0,1-1,.18A3.35,3.35,0,0,1,1007.72,402.55Z"/><path d="M1013.56,402.45a1,1,0,0,1-.35.2,1.54,1.54,0,0,1-.43.06,1.07,1.07,0,0,1-.8-.28,1,1,0,0,1-.28-.79v-2.22H1011V399h.66v-.81h.5V399h1.12v.42h-1.12v2.19a.68.68,0,0,0,.16.5.61.61,0,0,0,.47.18.94.94,0,0,0,.3-.05.86.86,0,0,0,.25-.14Z"/><path d="M907.82,409.79h-1v1.29h-.51v-1.29h-2.76v-.36l2.59-3.25h.56l-2.5,3.16h2.13v-1.13h.49v1.13h1Z"/><path d="M908.53,411a.39.39,0,0,1,0-.54.39.39,0,0,1,.27-.11.36.36,0,0,1,.26.11.39.39,0,0,1,0,.54.33.33,0,0,1-.26.11A.35.35,0,0,1,908.53,411Z"/><path class="cls-2" d="M917.47,407.4l-1.39,3.68h-.47l-1.16-3-1.17,3h-.47l-1.38-3.68h.47l1.16,3.12,1.18-3.12h.43l1.17,3.12L917,407.4Z"/><path class="cls-2" d="M920.5,407.73a1.38,1.38,0,0,1,.39,1.07v2.28h-.48v-.58a1.13,1.13,0,0,1-.49.45,1.73,1.73,0,0,1-.78.16,1.51,1.51,0,0,1-1-.29,1,1,0,0,1-.36-.78.92.92,0,0,1,.34-.75,1.62,1.62,0,0,1,1.08-.29h1.17v-.23a.94.94,0,0,0-.27-.72,1.1,1.1,0,0,0-.77-.25,2,2,0,0,0-.68.12,1.59,1.59,0,0,0-.55.32l-.22-.37a1.82,1.82,0,0,1,.67-.37,2.53,2.53,0,0,1,.83-.13A1.55,1.55,0,0,1,920.5,407.73Zm-.56,2.8a1.2,1.2,0,0,0,.45-.56v-.6h-1.16c-.63,0-.94.22-.94.66a.63.63,0,0,0,.24.51,1.18,1.18,0,0,0,.69.18A1.29,1.29,0,0,0,919.94,410.53Z"/><path class="cls-2" d="M922.24,405.88h.49v5.2h-.49Z"/><path class="cls-2" d="M925.48,409.23l-.86.8v1.05h-.5v-5.2h.5v3.53l2.19-2h.62l-1.57,1.5,1.72,2.18H927Z"/><path d="M930.77,410.82a2,2,0,0,1-.69-.87,3.31,3.31,0,0,1-.25-1.32,3.39,3.39,0,0,1,.25-1.33,2.06,2.06,0,0,1,.69-.86,1.87,1.87,0,0,1,2,0,2,2,0,0,1,.69.86,3.22,3.22,0,0,1,.26,1.33,3.14,3.14,0,0,1-.26,1.32,2,2,0,0,1-.69.87,1.87,1.87,0,0,1-2,0Zm1.77-.4a1.59,1.59,0,0,0,.5-.69,2.81,2.81,0,0,0,.19-1.1,2.78,2.78,0,0,0-.19-1.1,1.53,1.53,0,0,0-.5-.69,1.31,1.31,0,0,0-1.51,0,1.62,1.62,0,0,0-.51.69,3,3,0,0,0-.18,1.1,3,3,0,0,0,.18,1.1,1.69,1.69,0,0,0,.51.69,1.31,1.31,0,0,0,1.51,0Z"/><path d="M934.5,411a.41.41,0,0,1,0-.54.39.39,0,0,1,.27-.11.36.36,0,0,1,.26.11.39.39,0,0,1,0,.54.33.33,0,0,1-.26.11A.35.35,0,0,1,934.5,411Z"/><path d="M938.71,408.57a1.26,1.26,0,0,1,.49,1.07,1.49,1.49,0,0,1-.2.76,1.36,1.36,0,0,1-.6.53,2.23,2.23,0,0,1-1,.19,3,3,0,0,1-1-.17,2.17,2.17,0,0,1-.76-.46l.25-.4a1.72,1.72,0,0,0,.64.41,2.23,2.23,0,0,0,.86.16,1.44,1.44,0,0,0,.94-.27,1,1,0,0,0,0-1.5,2.34,2.34,0,0,0-1.26-.25h-1l.25-2.46h2.68v.45H936.7l-.17,1.56h.63A2.47,2.47,0,0,1,938.71,408.57Z"/><path d="M945.84,407.77a1.57,1.57,0,0,1,.4,1.17v2.14h-.5V409a1.26,1.26,0,0,0-.27-.87,1,1,0,0,0-.78-.3,1.16,1.16,0,0,0-.91.35,1.38,1.38,0,0,0-.33,1v1.93H943V409a1.26,1.26,0,0,0-.28-.87,1,1,0,0,0-.79-.3,1.15,1.15,0,0,0-.9.35,1.38,1.38,0,0,0-.33,1v1.93h-.5V407.4h.48v.67a1.26,1.26,0,0,1,.55-.52,1.71,1.71,0,0,1,.8-.18,1.55,1.55,0,0,1,.8.19,1.19,1.19,0,0,1,.51.59,1.41,1.41,0,0,1,.58-.58,1.93,1.93,0,0,1,.88-.2A1.43,1.43,0,0,1,945.84,407.77Z"/><path d="M947.58,406.49a.35.35,0,0,1-.1-.26.33.33,0,0,1,.1-.24.36.36,0,0,1,.26-.11.35.35,0,0,1,.26.11.3.3,0,0,1,.11.24.36.36,0,0,1-.11.26.34.34,0,0,1-.26.1A.35.35,0,0,1,947.58,406.49Zm0,.91h.5v3.68h-.5Z"/><path d="M953.25,410.85a1,1,0,0,1-.35.2,1.54,1.54,0,0,1-.43.06,1.07,1.07,0,0,1-.8-.28,1,1,0,0,1-.28-.79v-2.22h-.66v-.42h.66v-.81h.5v.81H953v.42h-1.12V410a.68.68,0,0,0,.16.5.62.62,0,0,0,.48.18.93.93,0,0,0,.29-.05.86.86,0,0,0,.25-.14Z"/><path d="M954.56,410.87a1.73,1.73,0,0,1-.67-.67,1.9,1.9,0,0,1-.24-1,2,2,0,0,1,.24-1,1.7,1.7,0,0,1,.67-.66,2,2,0,0,1,1-.24,1.9,1.9,0,0,1,1,.24,1.7,1.7,0,0,1,.67.66,2,2,0,0,1,.24,1,1.9,1.9,0,0,1-.24,1,1.73,1.73,0,0,1-.67.67,1.9,1.9,0,0,1-1,.24A2,2,0,0,1,954.56,410.87Zm1.66-.38a1.24,1.24,0,0,0,.49-.5,1.65,1.65,0,0,0,0-1.5,1.27,1.27,0,0,0-.49-.51,1.35,1.35,0,0,0-.7-.18,1.38,1.38,0,0,0-.7.18,1.27,1.27,0,0,0-.49.51,1.65,1.65,0,0,0,0,1.5,1.24,1.24,0,0,0,.49.5,1.38,1.38,0,0,0,.7.18A1.35,1.35,0,0,0,956.22,410.49Z"/><path d="M960.37,411a1.74,1.74,0,0,1-.64-.32l.22-.39a1.85,1.85,0,0,0,.58.29,2.28,2.28,0,0,0,.73.12,1.35,1.35,0,0,0,.75-.16.49.49,0,0,0,.24-.44.43.43,0,0,0-.13-.32.92.92,0,0,0-.34-.18c-.14,0-.32-.07-.54-.11s-.54-.12-.72-.17a1.12,1.12,0,0,1-.47-.3.81.81,0,0,1-.19-.58.92.92,0,0,1,.39-.76,1.75,1.75,0,0,1,1.07-.29,2.94,2.94,0,0,1,.71.09,2.33,2.33,0,0,1,.59.25l-.22.4a1.84,1.84,0,0,0-1.08-.32,1.27,1.27,0,0,0-.72.17.53.53,0,0,0-.24.44.44.44,0,0,0,.13.34.94.94,0,0,0,.34.19l.56.12a4.66,4.66,0,0,1,.71.17,1,1,0,0,1,.46.28.84.84,0,0,1,.19.56.89.89,0,0,1-.41.77,1.9,1.9,0,0,1-1.11.28A2.71,2.71,0,0,1,960.37,411Z"/><path d="M964.21,410.88a1.73,1.73,0,0,1-.67-.67,2,2,0,0,1,0-1.94,1.64,1.64,0,0,1,.67-.66,2.11,2.11,0,0,1,1.83-.06,1.42,1.42,0,0,1,.59.55l-.37.25a1.2,1.2,0,0,0-.46-.41,1.4,1.4,0,0,0-.61-.14,1.43,1.43,0,0,0-.72.18,1.29,1.29,0,0,0-.5.51,1.65,1.65,0,0,0,0,1.5,1.27,1.27,0,0,0,.5.5,1.43,1.43,0,0,0,.72.18,1.39,1.39,0,0,0,.61-.13,1.2,1.2,0,0,0,.46-.41l.37.26a1.47,1.47,0,0,1-.59.54,2,2,0,0,1-.85.18A2.08,2.08,0,0,1,964.21,410.88Z"/><path d="M970.53,407.77a1.58,1.58,0,0,1,.4,1.17v2.14h-.49V409a1.22,1.22,0,0,0-.29-.87,1.07,1.07,0,0,0-.82-.3,1.23,1.23,0,0,0-.94.35,1.35,1.35,0,0,0-.35,1v1.93h-.49v-5.2H968V408a1.5,1.5,0,0,1,.56-.5,1.94,1.94,0,0,1,.82-.17A1.53,1.53,0,0,1,970.53,407.77Z"/><path d="M972.85,410.87a1.75,1.75,0,0,1-.68-.67,1.9,1.9,0,0,1-.24-1,2,2,0,0,1,.24-1,1.73,1.73,0,0,1,.68-.66,2,2,0,0,1,1.91,0,1.64,1.64,0,0,1,.67.66,2,2,0,0,1,.24,1,1.9,1.9,0,0,1-.24,1,1.66,1.66,0,0,1-.67.67,2,2,0,0,1-1.91,0Zm1.66-.38a1.24,1.24,0,0,0,.49-.5,1.74,1.74,0,0,0,0-1.5,1.27,1.27,0,0,0-.49-.51,1.47,1.47,0,0,0-1.41,0,1.27,1.27,0,0,0-.49.51,1.65,1.65,0,0,0,0,1.5,1.24,1.24,0,0,0,.49.5,1.47,1.47,0,0,0,1.41,0Z"/><path d="M977.24,410.87a1.75,1.75,0,0,1-.68-.67,1.9,1.9,0,0,1-.24-1,2,2,0,0,1,.24-1,1.73,1.73,0,0,1,.68-.66,2,2,0,0,1,1.91,0,1.64,1.64,0,0,1,.67.66,2,2,0,0,1,.24,1,1.9,1.9,0,0,1-.24,1,1.66,1.66,0,0,1-.67.67,2,2,0,0,1-1.91,0Zm1.66-.38a1.16,1.16,0,0,0,.48-.5,1.65,1.65,0,0,0,0-1.5,1.18,1.18,0,0,0-.48-.51,1.47,1.47,0,0,0-1.41,0,1.27,1.27,0,0,0-.49.51,1.65,1.65,0,0,0,0,1.5,1.24,1.24,0,0,0,.49.5,1.47,1.47,0,0,0,1.41,0Z"/><path d="M981.08,405.88h.5v5.2h-.5Z"/></svg>