<svg id="_14._2_MV_MS_commute" data-name="14. (2) MV/MS commute" xmlns="http://www.w3.org/2000/svg" viewBox="0 0 1357.03 1080"><defs><style>.cls-1{font-size:5px;}.cls-1,.cls-4{fill:#c1272d;}.cls-1,.cls-17,.cls-18,.cls-19,.cls-20,.cls-21,.cls-22,.cls-23,.cls-24,.cls-25,.cls-27,.cls-28,.cls-29,.cls-30,.cls-31,.cls-32,.cls-33,.cls-34,.cls-35,.cls-42,.cls-43,.cls-44,.cls-51,.cls-52,.cls-53{font-family:Montserrat-Regular, Montserrat;}.cls-2,.cls-24{letter-spacing:0em;}.cls-18,.cls-19,.cls-3,.cls-49{fill:gray;}.cls-42,.cls-5{fill:#0039a6;}.cls-31,.cls-6{fill:#fccc0a;}.cls-30,.cls-7{fill:#ff6319;}.cls-8{letter-spacing:-0.01em;}.cls-9{fill:#fff;}.cls-10{fill:#8cca3e;}.cls-11,.cls-51{fill:#a67c52;}.cls-12{font-size:9px;font-family:Montserrat-Bold, Montserrat;font-weight:700;}.cls-13{letter-spacing:-0.02em;}.cls-14{letter-spacing:-0.02em;}.cls-15,.cls-16{font-family:Montserrat-Medium, Montserrat;font-weight:500;}.cls-16,.cls-35{font-size:7px;}.cls-17,.cls-18,.cls-19,.cls-20,.cls-21,.cls-22,.cls-23,.cls-24,.cls-25,.cls-27,.cls-28,.cls-29,.cls-30,.cls-31,.cls-32,.cls-33,.cls-34,.cls-35,.cls-42,.cls-43,.cls-44,.cls-51,.cls-52,.cls-53{font-weight:400;}.cls-18,.cls-46{letter-spacing:-0.02em;}.cls-20{letter-spacing:-0.01em;}.cls-21{letter-spacing:0.01em;}.cls-22,.cls-47{letter-spacing:-0.02em;}.cls-23,.cls-36{letter-spacing:-0.01em;}.cls-25,.cls-37{letter-spacing:-0.03em;}.cls-26{letter-spacing:0.01em;}.cls-27{letter-spacing:-0.02em;}.cls-28{letter-spacing:0em;}.cls-29,.cls-39{letter-spacing:0em;}.cls-32{letter-spacing:-0.01em;}.cls-33{letter-spacing:0.08em;}.cls-34{letter-spacing:-0.01em;}.cls-38,.cls-52{letter-spacing:-0.02em;}.cls-40{letter-spacing:-0.01em;}.cls-41,.cls-49{letter-spacing:-0.02em;}.cls-43{letter-spacing:0.08em;}.cls-44{letter-spacing:-0.01em;}.cls-45,.cls-53{letter-spacing:-0.01em;}.cls-48{letter-spacing:0.02em;}.cls-50{letter-spacing:-0.01em;}</style></defs><text class="cls-1" transform="translate(852.49 499.85)"><tspan class="cls-2">h</tspan><tspan x="3.39" y="0">o</tspan><tspan class="cls-2" x="6.53" y="0">m</tspan><tspan x="11.84" y="0">e</tspan></text><path class="cls-3" d="M840.74,485.48a3,3,0,0,1,.15-.51c-.1.24.05-.06.09-.13s.28-.33.08-.13l.19-.2c.28-.24.1-.18-.56.21l-.75-.21c.07,0,.2.08.06,0a1.24,1.24,0,0,1,.22.18c.14.13.28.26.41.4s.25.28.37.42l0,0,.17.23c.47.68.87,1.4,1.29,2.11l2.8,4.78a1.5,1.5,0,0,0,2.59-1.52l-2.07-3.53c-.62-1.06-1.21-2.15-1.9-3.17a11.91,11.91,0,0,0-1.16-1.49,3.29,3.29,0,0,0-2.06-1.24c-1.5-.05-2.55,1.67-2.85,3a1.5,1.5,0,0,0,2.9.79Z"/><path class="cls-3" d="M839.07,488.38c3.86,0,3.87-6,0-6s-3.87,6,0,6Z"/><path class="cls-3" d="M849.07,496.38c3.86,0,3.87-6,0-6s-3.87,6,0,6Z"/><path class="cls-4" d="M850.23,496c3.86,0,3.86-6,0-6s-3.87,6,0,6Z"/><path class="cls-3" d="M611.58,530.15l-2.9-2.59a14,14,0,0,1-2.41-2.31c-.06-.08-.1-.17-.16-.26-.21-.33,0,.13,0-.07a3.83,3.83,0,0,1-.16-.58c.06.29,0,0,0-.07s0-.22,0-.33,0-.18,0-.27c0,.3,0,0,0-.07l.08-.32s.14-.38.07-.2.09-.19.09-.19.09-.15.14-.23.23-.31.11-.17.16-.16.15-.15a1.12,1.12,0,0,1,.2-.18c-.22.19.09-.06.13-.09a1.5,1.5,0,1,0-1.52-2.59,5.4,5.4,0,0,0-2.14,6.42,9.27,9.27,0,0,0,2.7,3.24l3.51,3.13a1.5,1.5,0,0,0,2.12-2.12Z"/><path class="cls-3" d="M606.85,522.81c3.86,0,3.87-6,0-6s-3.86,6,0,6Z"/><path class="cls-3" d="M610.62,534.64c3.86,0,3.87-6,0-6s-3.87,6,0,6Z"/><path class="cls-4" d="M607.12,523.35c3.86,0,3.87-6,0-6s-3.86,6,0,6Z"/><path class="cls-5" d="M612.82,531.56c8.69-5.22,7.7-16.49,8.13-25.18a43.2,43.2,0,0,1,3.9-15.16c1-2.34,2.1-4.65,3.1-7a31.25,31.25,0,0,0,2.49-7c.39-2.42-.64-4.36-2-6.3a10.34,10.34,0,0,1-2.2-6.6c.28-5.26,3.68-10.15,6.16-14.62q8.17-14.7,16.94-29.09c1.44-2.38,2.89-4.76,4.38-7.12,1.22-1.93,2.7-4,5.21-4.07s5.09,1.6,7.24,2.95l7.36,4.61,29.23,18.34c8.31,5.22,17.07,11,27.19,11.42a23.63,23.63,0,0,0,12.79-2.86,39.61,39.61,0,0,0,5.23-4.18c2.15-1.79,4.93-2.14,7.57-2.73,5.46-1.21,10.9-2.47,16.37-3.62a42.6,42.6,0,0,1,8.25-1.09,21.21,21.21,0,0,1,7.72,1.46,13.79,13.79,0,0,0,7.29.87,16.44,16.44,0,0,1,4-.39,12.75,12.75,0,0,1,4.19,1.24c5.05,2.33,9.86,5.4,14.66,8.2q3.57,2.1,7.11,4.23a1,1,0,0,0,1-1.72q-7.4-4.47-14.92-8.72c-4.41-2.48-9.12-5.84-14.43-5.12a34.5,34.5,0,0,1-3.92.53,11.79,11.79,0,0,1-4-.9,24.28,24.28,0,0,0-7.75-1.67c-5.42-.15-10.8,1.39-16,2.55l-8.36,1.85a40.63,40.63,0,0,0-7.46,1.91c-2.26,1-3.77,2.9-5.68,4.37a18.17,18.17,0,0,1-6.15,3c-10,2.76-19.81-1.9-28.18-7-9.82-5.95-19.48-12.19-29.21-18.29-4.84-3-9.62-6.24-14.56-9.12-2.07-1.21-4.46-2.33-6.92-2.13a7.34,7.34,0,0,0-5.1,3A61.2,61.2,0,0,0,649.3,417c-1.48,2.41-2.94,4.82-4.4,7.24q-4.36,7.28-8.58,14.62c-2.84,5-5.66,9.93-8.37,14.95-2.22,4.1-4.47,8.91-3.4,13.69.52,2.3,2,4,3.16,6,1.49,2.58.42,5.06-.59,7.61-1.86,4.73-4.24,9.25-5.94,14-1.86,5.21-2.26,10.41-2.35,15.9-.08,4.85-.27,9.88-2.67,14.22a12.15,12.15,0,0,1-4.35,4.62,1,1,0,0,0,1,1.73Z"/><path class="cls-6" d="M829.61,449c4.95,1.75,9.59,4.88,13.82,7.94A21.76,21.76,0,0,1,852,469a1,1,0,0,0,1.93-.53,23.63,23.63,0,0,0-8.79-12.77c-2.28-1.72-4.72-3.25-7.15-4.74a40.15,40.15,0,0,0-7.79-3.88c-1.22-.43-1.74,1.5-.54,1.93Z"/><path class="cls-7" d="M827.48,450.77c4.94,1.76,9.58,4.88,13.81,7.94a21.78,21.78,0,0,1,8.52,12.05,1,1,0,0,0,1.93-.53A23.59,23.59,0,0,0,843,457.47c-2.27-1.73-4.72-3.25-7.15-4.75a41.32,41.32,0,0,0-7.79-3.88c-1.22-.43-1.74,1.5-.53,1.93Z"/><path class="cls-7" d="M829.66,458a18.65,18.65,0,0,0,.3,5,1,1,0,0,0,1.23.7,1,1,0,0,0,.7-1.23c0-.2-.07-.39-.1-.59s0-.21,0-.31c0,.18,0,0,0-.1-.05-.38-.08-.76-.1-1.14a18.1,18.1,0,0,1,0-2.33,1,1,0,0,0-1-1,1,1,0,0,0-1,1Z"/><path class="cls-7" d="M830.32,458.52l2.25,2.2a1,1,0,0,0,1,.26,1.05,1.05,0,0,0,.69-.7c0-.11.09-.22.13-.33s0-.11,0,0a1.11,1.11,0,0,0,.07-.16c.09-.2.19-.4.29-.6.22-.4.45-.79.71-1.17h-1.72c.09.17.18.34.26.52a2.56,2.56,0,0,1,.11.24s.12.27.08.17,0-.05,0,0l.06.17a2.6,2.6,0,0,1,.1.25c.06.17.12.34.17.51a12.63,12.63,0,0,1,.5,2.17,1,1,0,0,0,1.23.7,1,1,0,0,0,.7-1.23,13.87,13.87,0,0,0-1.51-4.55,1,1,0,0,0-.86-.5,1,1,0,0,0-.86.5,11.88,11.88,0,0,0-1.4,2.75l1.67-.45-2.26-2.19a1,1,0,0,0-1.41,0,1,1,0,0,0,0,1.41Z"/><path class="cls-6" d="M844.55,447.93a24,24,0,0,0,.63,5.67,1,1,0,0,0,1.93-.53c-.1-.44-.19-.88-.27-1.33,0-.21-.07-.42-.1-.62s0,.05,0-.15,0-.25,0-.37a21.51,21.51,0,0,1-.13-2.67,1,1,0,0,0-1-1,1,1,0,0,0-1,1Z"/><path class="cls-6" d="M846.8,448.63c.11-.12.22-.24.34-.35s.23-.18.05,0l.2-.14.21-.11c-.12.06-.08,0,0,0l.23-.06c.11,0-.2,0,0,0,0,0,.2,0,.22,0H848l.11,0,.11,0-.07,0,.19.1-.08-.07.11.1c.13.11,0-.09,0,0a.41.41,0,0,0,0,.09c0-.12-.06-.15,0-.08l0,.1c0,.09,0,.09,0,0s0-.09,0,0v.07a.75.75,0,0,1,0,.15l0-.13s0,.17,0,.21l0,.11,0-.07c0,.05-.08.15-.11.19l0,.06q-.09.14,0,0s-.1.11-.13.13l-.08.08,0,0-.39.22c.21-.1,0,0-.06,0l-.24.07-.24,0s-.3,0-.06,0l-.49,0a1,1,0,0,0-1,.87,1,1,0,0,0,.72,1.1,11.19,11.19,0,0,1,2.28.64c.07,0,.06,0,0,0l.16.07.25.12q.25.12.51.27a9.71,9.71,0,0,1,1,.64,1,1,0,0,0,1.37-.36,1,1,0,0,0-.36-1.36,11.11,11.11,0,0,0-4.67-1.93l-.26,2a4.51,4.51,0,0,0,2.85-1,2.77,2.77,0,0,0,.88-2.68,2.4,2.4,0,0,0-2.34-1.76,3.44,3.44,0,0,0-2.6,1.3,1,1,0,0,0,0,1.42,1,1,0,0,0,1.41,0Z"/><text class="cls-1" transform="translate(595.53 513.72)">s<tspan class="cls-8" x="2.45" y="0">c</tspan><tspan class="cls-2" x="5.22" y="0">h</tspan><tspan x="8.62" y="0">ool</tspan></text><path class="cls-4" d="M702.56,388a5.25,5.25,0,0,0-5.87,2.48c-1,1.85-.84,4.88,1.09,6.11s5.24-.46,6.62-2c2.06-2.25.14-4.26-1.4-6.1-.75-.89-2,.39-1.27,1.27.93,1.12,2.46,2.26,1.26,3.7-.71.85-3.36,2.35-4.43,1.41s-.79-2.87-.11-3.87a3.45,3.45,0,0,1,3.63-1.31c1.13.26,1.61-1.48.48-1.73Z"/><path class="cls-4" d="M703.63,393.55c1.14.85-9.91,11-1.24,10.63,1.15-.05,1.16-1.85,0-1.8-2.21.1-.49-2.57.06-3.43.71-1.14,1.53-2.19,2.28-3.29.9-1.33,1.21-2.62-.19-3.67-.92-.69-1.82.87-.91,1.56Z"/><path class="cls-4" d="M696.74,396a60.79,60.79,0,0,0-4.58,7.37c-.66,1.28-1.11,3.07-2,4.19-1.13,1.42-3.15,2.1-4.83,2.51-4.23,1-5.8,2.39-7.37,6.59-.4,1.08,1.34,1.55,1.74.48,1.38-3.69,3.71-4.61,7.25-5.64a8.5,8.5,0,0,0,3.94-1.91c1.49-1.52,2.14-4,3.13-5.9a60.46,60.46,0,0,1,4.27-6.79c.68-.94-.88-1.84-1.55-.9Z"/><path class="cls-4" d="M689.51,409.34c-1,1.28-3.22,3.14-3.32,4.87a9.19,9.19,0,0,0,.6,2.51,22.44,22.44,0,0,1,.55,4.39c0,1.16,1.84,1.17,1.8,0a24.23,24.23,0,0,0-.62-4.87c-.31-1.27-.66-1.54.11-2.92a22.24,22.24,0,0,1,2.15-2.71c.72-.89-.55-2.18-1.27-1.27Z"/><path class="cls-4" d="M694.19,400c-1.13-.69-2.28-1.33-3.46-1.92-.83-.4-2-1.24-3-1.24-1.75,0-3.72,2.46-5,3.51-.9.74.38,2,1.27,1.27,1.44-1.19,2.86-3.12,4.82-2.45a24.32,24.32,0,0,1,4.44,2.38.9.9,0,0,0,.91-1.55Z"/><path class="cls-4" d="M692.57,400.58c-1.08.82-2.15,1.64-3.3,2.36a8,8,0,0,1-1.81,1,2.66,2.66,0,0,1-2.93-1.07c-.79-.85-2.06.42-1.27,1.27,1.27,1.37,2.62,2.31,4.51,1.63a22.84,22.84,0,0,0,5.71-3.63c.91-.7,0-2.26-.91-1.56Z"/><path class="cls-9" d="M670.62,396.7a48,48,0,0,0,9.42,1.82.66.66,0,0,1,.44.14.65.65,0,0,1,.15.24l1,2.34a4.19,4.19,0,0,1,.41,1.36,3.63,3.63,0,0,1-.09.93,18.74,18.74,0,0,1-1,3.6l-11.6-1.45a64.67,64.67,0,0,0,.89-8.89"/><path class="cls-9" d="M670.54,397a49.21,49.21,0,0,0,8.9,1.77c.36,0,.69,0,.93.29a5.26,5.26,0,0,1,.49,1.17,9.06,9.06,0,0,1,.84,2.22,6.54,6.54,0,0,1-.35,2.39,19.86,19.86,0,0,1-.73,2.22l.29-.22-11.6-1.45.29.38a67.47,67.47,0,0,0,.9-9c0-.38-.58-.38-.6,0a66.56,66.56,0,0,1-.88,8.81.3.3,0,0,0,.29.38l11.6,1.45a.29.29,0,0,0,.29-.22,19.37,19.37,0,0,0,.78-2.45,6.54,6.54,0,0,0,.32-2.36,7.67,7.67,0,0,0-.72-2L681,399.1a1.59,1.59,0,0,0-.4-.7,1.11,1.11,0,0,0-.59-.18c-.47-.07-1-.1-1.43-.15-.93-.12-1.85-.26-2.77-.43a47.44,47.44,0,0,1-5.14-1.23.3.3,0,0,0-.16.58Z"/><path d="M670.07,404.57l10.48,1.76c1.51.26,2.16-2.06.64-2.31l-10.49-1.76c-1.51-.26-2.16,2.06-.63,2.31Z"/><path class="cls-10" d="M671.56,398.42c0-.1.23-.16.34-.2a1,1,0,0,1,.51-.11c.28.05.41.37.46.63a1.81,1.81,0,0,1-.12,1.1.83.83,0,0,1-.26.35.64.64,0,0,1-.45.06,1.87,1.87,0,0,1-1.06-.5c-.28-.26-.7.16-.42.43a2.61,2.61,0,0,0,1.34.66,1.36,1.36,0,0,0,.82-.09,1.25,1.25,0,0,0,.5-.52,2.49,2.49,0,0,0,.24-1.59,1.17,1.17,0,0,0-1.7-1c-.25.1-.59.21-.72.48a.3.3,0,0,0,.52.31Z"/><path class="cls-10" d="M672.76,400.39a2.4,2.4,0,0,0-.22,1.37.16.16,0,0,0,.19.1.15.15,0,0,0,.1-.18,2,2,0,0,1,.19-1.14.16.16,0,0,0-.06-.21.14.14,0,0,0-.2.06Z"/><path class="cls-10" d="M672.82,400.37l.44.54c.07.1.21,0,.25-.07l.39-1.11-.29,0,.17,1.62a.15.15,0,0,0,.15.15.14.14,0,0,0,.15-.15l-.17-1.62a.16.16,0,0,0-.3,0l-.39,1.11.25-.06-.44-.55a.15.15,0,0,0-.21,0,.17.17,0,0,0,0,.22Z"/><path class="cls-10" d="M674.09,399.69a.66.66,0,0,0,.51.09.15.15,0,0,0,.11-.18.16.16,0,0,0-.19-.11h-.1l-.12,0h0l-.09-.05a.14.14,0,0,0-.11,0,.13.13,0,0,0-.09.07.14.14,0,0,0,0,.11.22.22,0,0,0,.07.09Z"/><path class="cls-10" d="M674,399.49a1.08,1.08,0,0,0,0,1,.52.52,0,0,0,.36.3.35.35,0,0,0,.42-.25.15.15,0,0,0-.11-.18.15.15,0,0,0-.18.1s0,0,0,0,0,0,0,0h-.09a.34.34,0,0,1-.09-.08l-.07-.12a.79.79,0,0,1,0-.64.15.15,0,0,0,0-.2.16.16,0,0,0-.21.05Z"/><path class="cls-10" d="M674.22,400.38l.47-.1a.15.15,0,0,0,.1-.19.14.14,0,0,0-.18-.1l-.47.1a.15.15,0,0,0-.11.18.16.16,0,0,0,.19.11Z"/><path class="cls-10" d="M674.84,399.62a2.63,2.63,0,0,0,1.08,0,.15.15,0,0,0,.1-.19.14.14,0,0,0-.18-.1,2.38,2.38,0,0,1-.92,0,.16.16,0,0,0-.19.11c0,.07,0,.17.11.18Z"/><path class="cls-10" d="M675.23,399.52a2.47,2.47,0,0,0-.16,1,.15.15,0,0,0,.15.15.16.16,0,0,0,.15-.15,2.25,2.25,0,0,1,.15-.89.15.15,0,1,0-.29-.08Z"/><path class="cls-10" d="M675.68,399.86l-.12.37a.24.24,0,0,0,0,.12.2.2,0,0,0,.09.07.16.16,0,0,0,.19-.11l.12-.37a.13.13,0,0,0,0-.12.13.13,0,0,0-.09-.06.16.16,0,0,0-.19.1Z"/><path class="cls-10" d="M676,399.94l.1,0h0s0,0,0,0h0s0,0,0,0h0v0h0s0,0,0,0h-.19a.16.16,0,0,0-.14.09.17.17,0,0,0,0,.17l.07.08,0,0h0l0,0,.13.19a.15.15,0,0,0,.2.05.15.15,0,0,0,.06-.2,4.24,4.24,0,0,0-.31-.4l-.1.25a.65.65,0,0,0,.31,0,.3.3,0,0,0,.18-.25.27.27,0,0,0-.17-.25.45.45,0,0,0-.34,0,.16.16,0,0,0-.1.19.14.14,0,0,0,.18.1Z"/><path class="cls-10" d="M676.45,399.65a.62.62,0,0,0-.07.38.3.3,0,0,0,.32.21.32.32,0,0,0,.18-.06A.35.35,0,0,0,677,400a.83.83,0,0,0,.07-.13.21.21,0,0,0,0-.13.28.28,0,0,0,0-.13.55.55,0,0,0-.17-.14.65.65,0,0,0-.23-.06s-.08,0-.11,0a.21.21,0,0,0,0,.11.14.14,0,0,0,0,.1l0,0,.08,0h0l.11,0h0a.27.27,0,0,1,.1.06l0,0,0,0,0,0a0,0,0,0,0,0,0l0,0v0s0,0,0,0v0a.56.56,0,0,1-.09.17l0,0-.06.05,0,0-.05,0,0,0-.06,0h0l0,0,0,0,0,0a.08.08,0,0,1,0,0v0a.11.11,0,0,1,0-.05v0a.19.19,0,0,1,0-.1l0,0,0-.07a.17.17,0,0,0,0-.12.2.2,0,0,0-.07-.09.16.16,0,0,0-.21.06Z"/><path class="cls-10" d="M677.2,399.35a1.11,1.11,0,0,0-.11.62.53.53,0,0,0,.13.27.3.3,0,0,0,.35.05.15.15,0,0,0,0-.2.15.15,0,0,0-.2-.06h0v0h0s0,0,0,0,0,0,0-.05h0v0a.41.41,0,0,1,0-.11h0s0,0,0,0a.43.43,0,0,1,0-.05l0-.11,0-.05s0,0,0,0,0,0,0,0a.16.16,0,0,0-.05-.2.15.15,0,0,0-.21.05Z"/><path class="cls-10" d="M677.85,400.14c.07-.21.14-.42.22-.63l-.27,0a2,2,0,0,1,.17.29s0,.05,0,0l0,0,0,.07c0,.06,0,.12,0,.17a.15.15,0,0,0,.18.11.16.16,0,0,0,.11-.19,1.71,1.71,0,0,0-.3-.66.14.14,0,0,0-.15-.07.15.15,0,0,0-.12.11c-.08.21-.15.42-.22.63a.15.15,0,0,0,.11.18.14.14,0,0,0,.18-.1Z"/><path class="cls-10" d="M677.89,400.13a.35.35,0,0,0,.11,0h.13l0,0,0,0a.13.13,0,0,0,0-.06.15.15,0,0,0,0-.11l0,0a.12.12,0,0,0-.08,0h-.16l-.06,0,0,0,0,.05a.17.17,0,0,0,0,.12l0,0a.15.15,0,0,0,.07,0Z"/><path class="cls-10" d="M678.29,399.51a1.75,1.75,0,0,0,0,.6.14.14,0,0,0,.15.15.15.15,0,0,0,.15-.15,1.22,1.22,0,0,1,0-.27v-.11l0-.14a.15.15,0,0,0-.11-.18.15.15,0,0,0-.18.1Z"/><path class="cls-10" d="M678.49,399.77l0,0h.06s0,0,0,0l.08,0h0s0,0,0,0a.08.08,0,0,1,0-.08l0,0h0l0,0h0l-.19.06a.15.15,0,0,0-.07.25,1.75,1.75,0,0,1,.23.24l.1.12s0,0,0,0l0,0,.05.07a.16.16,0,0,0,.21.05.15.15,0,0,0,.05-.2,3,3,0,0,0-.47-.54l-.07.25.29-.1a.25.25,0,0,0,.14-.29.37.37,0,0,0-.27-.2.55.55,0,0,0-.31,0,.15.15,0,0,0-.11.18c0,.07.11.14.19.11Z"/><path class="cls-10" d="M679.25,399.7a3.46,3.46,0,0,0-.21.78s0,.08,0,.11a.1.1,0,0,0,.09.07.14.14,0,0,0,.18-.1,3.46,3.46,0,0,1,.21-.78.16.16,0,0,0-.11-.19.15.15,0,0,0-.18.11Z"/><path class="cls-10" d="M679.41,400h0s0,0,0,0,0,0,0,0,0,0,0,0l0,0h0l0,0h0s0,0,0,0h0v.07h0v0s0,0,0,0,0,0,0,0a.25.25,0,0,1,0,.07l0,0h0l0,0h0l0,0h0s0,0,0,0l-.05,0,0,0a.34.34,0,0,0-.12.12.16.16,0,0,0,.06.21.16.16,0,0,0,.2-.05v0h0l0,0h0a.55.55,0,0,0,.15-.08.68.68,0,0,0,.23-.36.51.51,0,0,0,0-.4.43.43,0,0,0-.34-.21.15.15,0,0,0,0,.3Z"/><path class="cls-10" d="M674.65,401.72a2.54,2.54,0,0,1,1.77-.73,10.28,10.28,0,0,1,2.35-.08l0-.29a19.15,19.15,0,0,0-2.81.78.15.15,0,0,0,0,.29,1.73,1.73,0,0,0,.75,0l.41-.05c.07,0,.35-.09.4,0l0-.1v0c0,.19.33.19.3,0s-.36-.24-.58-.21a3,3,0,0,1-1.16.07v.29a19.15,19.15,0,0,1,2.81-.78c.17,0,.12-.28,0-.3a11.22,11.22,0,0,0-2.59.11,2.58,2.58,0,0,0-1.79.85c-.11.16.15.31.26.15Z"/><path class="cls-10" d="M676.81,401.85a.28.28,0,0,0-.22,0,.35.35,0,0,0-.18.16.27.27,0,0,0,0,.26.2.2,0,0,0,.08.08l0,0,0,0h0l0,0h0v0h0v-.05l0,0h0l0,0h0c-.05,0-.08,0-.11,0a.12.12,0,0,0,0,.11.15.15,0,0,0,0,.11s.07.05.11,0a.42.42,0,0,0,.16,0,.22.22,0,0,0,.12-.15.21.21,0,0,0-.06-.21s-.06,0-.09-.06l0,0h0l0,0h0v.06h0v0a.14.14,0,0,1,0-.06l0,0a.16.16,0,0,1,0-.07l0,0,0,0,0,0h0l0,0h0a.13.13,0,0,0,.12,0,.14.14,0,0,0,.08-.07.16.16,0,0,0,0-.12.28.28,0,0,0-.07-.09Z"/><path class="cls-10" d="M676.8,401.79a1.16,1.16,0,0,0,.14.73.16.16,0,0,0,.21.06.16.16,0,0,0,.05-.21l0-.07s0,0,0,0l0,0,0-.14s0-.05,0-.07v0h0s0,0,0,0v-.08s0,0,0-.05a.15.15,0,0,0-.1-.18.15.15,0,0,0-.19.1Z"/><path class="cls-10" d="M676.81,402.29a.79.79,0,0,0,.39-.21.14.14,0,0,0,0-.1.14.14,0,0,0,0-.11.12.12,0,0,0-.11,0,.13.13,0,0,0-.1,0l-.06.05,0,0-.13.07h0l-.13,0a.12.12,0,0,0-.09.06.17.17,0,0,0,0,.12.16.16,0,0,0,.07.09l0,0Z"/><path class="cls-10" d="M677.08,401.9a.46.46,0,0,0,0,.2.33.33,0,0,0,.19.16.19.19,0,0,0,.19-.05l.06-.06a1,1,0,0,0,.1-.17.66.66,0,0,0,.06-.2.13.13,0,0,0,0-.06s0,0,0-.06a.2.2,0,0,0-.09-.07.17.17,0,0,0-.12,0,.16.16,0,0,0-.07.09.47.47,0,0,1,0,.16v0a1.09,1.09,0,0,1-.08.15l0,0-.05.06,0,0h.1l0,0,0,0,0,0,0,0a.09.09,0,0,1,0-.05v0a.13.13,0,0,1,0-.06v0a.14.14,0,0,0-.15-.15.15.15,0,0,0-.11,0,.21.21,0,0,0,0,.11Z"/><path class="cls-10" d="M677.86,401.45a.7.7,0,0,0-.05.32l.15-.15h0l0,0,0,0,0,0a.16.16,0,0,0-.12,0l0,0-.06.05a.43.43,0,0,0-.07.25.15.15,0,0,0,.15.15.16.16,0,0,0,.15-.15v0a.15.15,0,0,1,0-.07v0l0-.06-.2.06a.25.25,0,0,0,.19.05.13.13,0,0,0,.1,0,.16.16,0,0,0,.05-.11v-.07a.47.47,0,0,1,0-.17.13.13,0,0,0,0-.12.13.13,0,0,0-.09-.06.17.17,0,0,0-.12,0l0,0a.25.25,0,0,0,0,.07Z"/><path class="cls-10" d="M678.36,401.8a.45.45,0,0,0,.23-.26.21.21,0,0,0,0-.23.18.18,0,0,0-.25,0,.51.51,0,0,0-.21.29.6.6,0,0,0,0,.35.55.55,0,0,0,.29.25.15.15,0,1,0,.08-.29s0,0,0,0l0,0h0l0,0,0,0h0a.08.08,0,0,1,0,0h0s0,0,0,0v-.06h0v0s0,0,0,0,0,0,0-.06,0,0,0,0l0,0v0s0,0,0,0l0,0h0c-.08,0-.14,0-.16-.07h0v0s0,0,0,0l0,0h0a.1.1,0,0,1,0,0s0,0,0,0l0,0a.15.15,0,0,0-.05.2.14.14,0,0,0,.2.05Z"/><path class="cls-10" d="M678.54,401.43a.83.83,0,0,0,0,.15.5.5,0,0,0,0,.12.14.14,0,0,0,.16.1.14.14,0,0,0,.13-.14.15.15,0,0,1,0-.07v0a.83.83,0,0,1,0-.15v0a.05.05,0,0,1,0,0l0,0,0,0,0,0h0l0,0h0l.05,0,0,0,.06.07,0,0,.07.12,0,0a2.33,2.33,0,0,1,.07.25.16.16,0,0,0,.19.11.15.15,0,0,0,.1-.19,1,1,0,0,0-.15-.4.52.52,0,0,0-.22-.17.25.25,0,0,0-.3.12,1,1,0,0,0-.07.31l.3,0a0,0,0,0,1,0,0v0a.43.43,0,0,1,0-.05v0h0a.17.17,0,0,0,0-.12.2.2,0,0,0-.07-.09.13.13,0,0,0-.12,0,.18.18,0,0,0-.09.06Z"/><path class="cls-10" d="M679.13,401.17a.7.7,0,0,0,0,.43.13.13,0,0,0,.07.09.15.15,0,0,0,.11,0,.16.16,0,0,0,.09-.07.16.16,0,0,0,0-.12.5.5,0,0,1,0-.13v0a.43.43,0,0,1,0-.16v0a.13.13,0,0,0,0-.06.14.14,0,0,0,0-.11.16.16,0,0,0-.09-.07.17.17,0,0,0-.12,0,.11.11,0,0,0-.06.09Z"/><path class="cls-10" d="M679,401.44l.42.14a.15.15,0,0,0,.19-.1.16.16,0,0,0-.11-.19l-.42-.14a.15.15,0,0,0-.18.11.16.16,0,0,0,.1.18Z"/><path class="cls-10" d="M677.87,402.56l0,.06s.05.06.09.06h.1a.16.16,0,0,0,.09-.18l0-.12v0a.81.81,0,0,1,0-.22v0a.43.43,0,0,1,0-.05v0a0,0,0,0,1,0,0l0,0,0,0,0,0h.05l.14,0h0l0,0h0l0,0h0v0h0v0h0v0h0v0h0l0,0h0l0,0-.09,0,0,0-.12,0a.13.13,0,0,0-.09.07.16.16,0,0,0,0,.12.2.2,0,0,0,.07.09.16.16,0,0,0,.12,0,.77.77,0,0,0,.28-.12.19.19,0,0,0,0-.27.28.28,0,0,0-.16-.06.53.53,0,0,0-.28,0,.32.32,0,0,0-.15.13.47.47,0,0,0,0,.17,1.27,1.27,0,0,0,0,.34l.27-.12,0,0a.16.16,0,0,0-.09-.07.15.15,0,0,0-.11,0,.13.13,0,0,0-.07.09.14.14,0,0,0,0,.11Z"/><path class="cls-10" d="M678.66,402.12a.37.37,0,0,0-.07.16.49.49,0,0,0,0,.21.26.26,0,0,0,0,.09.18.18,0,0,0,.12.05.21.21,0,0,0,.15-.07.18.18,0,0,0,.05-.07l.06-.06,0,0h-.1l0,0,.06.07.07.07a.15.15,0,1,0,.21-.21l-.09-.1a.23.23,0,0,0-.17-.1.22.22,0,0,0-.14.05l0,0,0,.05,0,0,0,0h0l0,0h.07l0,0h0l0,0h0l0,0h0v0s0,0,0-.06v0a.17.17,0,0,1,0-.07v0a.19.19,0,0,1,0-.07l0,0a.1.1,0,0,1,0-.05.17.17,0,0,0,0-.12.15.15,0,0,0-.07-.09.11.11,0,0,0-.11,0h0l-.05.05Z"/><path class="cls-10" d="M679.33,402.07a.34.34,0,0,0,0,.2.31.31,0,0,0,0,.1s.05.06.07.1l0,0s0,0,0,0v-.05h0v0l0,0v0l0,0h0l0,0h.06a.25.25,0,0,0-.12,0,.16.16,0,0,0-.07.09.14.14,0,0,0,.11.18.18.18,0,0,0,.18-.05.21.21,0,0,0,.07-.15.33.33,0,0,0,0-.14l-.08-.09,0,0a.16.16,0,0,1,0-.07v0a.3.3,0,0,1,0-.1v0a.14.14,0,0,0-.15-.15.15.15,0,0,0-.11,0,.21.21,0,0,0,0,.11Z"/><path class="cls-10" d="M679.9,402.06a.31.31,0,0,0,0,.21l.11.13,0,0,0,.05,0,0a0,0,0,0,1,0,0v0a0,0,0,0,1,0,0v0l0,0a0,0,0,0,0,0,0l0,0s0,0,0,0l0,0-.05,0,0,0-.08,0a.14.14,0,0,0-.1.18.16.16,0,0,0,.18.11.53.53,0,0,0,.17-.08.23.23,0,0,0,.1-.21.25.25,0,0,0-.08-.18l-.08-.09,0,0,0-.05,0,0a0,0,0,0,1,0,0v.06h0a.17.17,0,0,0,0-.12.2.2,0,0,0-.09-.07.17.17,0,0,0-.19.11Z"/><path class="cls-10" d="M671.09,398.49a.6.6,0,0,1,.1.39.15.15,0,0,0,.28.08.43.43,0,0,1,.21-.23l-.22-.09a2.47,2.47,0,0,1,0,.9c0,.08.08.15.15.15a.15.15,0,0,0,.15-.15,2.49,2.49,0,0,0,0-1,.15.15,0,0,0-.22-.09.71.71,0,0,0-.32.34l.28.07a.93.93,0,0,0-.14-.54.15.15,0,0,0-.2,0,.15.15,0,0,0-.06.2Z"/><path class="cls-10" d="M671.68,398.74l.71.12a.16.16,0,0,0,.19-.11c0-.07,0-.17-.11-.18l-.71-.12a.15.15,0,0,0-.18.11.14.14,0,0,0,.1.18Z"/><path class="cls-10" d="M672.4,398.8l.33,1.25A.15.15,0,0,0,673,400l-.33-1.25a.15.15,0,0,0-.29.08Z"/><path class="cls-10" d="M670.83,399.79l.09-.18c0-.05.06-.11.08-.17s0,0,0,0l-.14,0,0,0v0l0,.09.11.17a.15.15,0,0,0,.27,0v0s0,0,0,0h0v0h0l0,0s0,0,0,0l0,0-.23-.17a1.05,1.05,0,0,0,.07.7.15.15,0,0,0,.26-.15s0,0,0,0v0s0-.05,0-.07,0,0,0-.07v0a.06.06,0,0,1,0,0v-.14s0,0,0,0,0,0,0,0,0,0,0-.08a.15.15,0,0,0-.22-.17.51.51,0,0,0-.21.27l.28,0-.14-.22a.28.28,0,0,0-.08-.11.19.19,0,0,0-.19-.05c-.1,0-.13.13-.18.22l-.11.23a.15.15,0,0,0,0,.2.16.16,0,0,0,.21,0Z"/><path class="cls-10" d="M671.65,399a1.18,1.18,0,0,0-.06.62.2.2,0,0,0,.07.09.24.24,0,0,0,.12,0,.15.15,0,0,0,.09-.07.14.14,0,0,0,0-.11v0a1.31,1.31,0,0,1,0-.28v0a.86.86,0,0,1,.06-.23.16.16,0,0,0,0-.12.13.13,0,0,0-.09-.07.11.11,0,0,0-.11,0,.13.13,0,0,0-.07.09Z"/><path class="cls-10" d="M672.1,399.2l-.22,1a.14.14,0,0,0,.1.18.15.15,0,0,0,.19-.1l.22-1a.15.15,0,0,0-.1-.19.16.16,0,0,0-.19.11Z"/><path class="cls-10" d="M671.55,399.54a8.34,8.34,0,0,0-.26.85.17.17,0,0,0,.11.19.14.14,0,0,0,.18-.11,8.34,8.34,0,0,1,.26-.85.15.15,0,0,0-.1-.19.16.16,0,0,0-.19.11Z"/><path class="cls-10" d="M672.32,399.91a.77.77,0,0,0,0,.4.2.2,0,0,0,.07.09.13.13,0,0,0,.12,0,.18.18,0,0,0,.09-.06.17.17,0,0,0,0-.12v0a.43.43,0,0,1,0-.16v0a.56.56,0,0,1,0-.12.16.16,0,0,0,0-.12.16.16,0,0,0-.09-.07.11.11,0,0,0-.11,0,.13.13,0,0,0-.07.09Z"/><path class="cls-10" d="M672.49,399.69a.15.15,0,0,0,0-.3.15.15,0,0,0,0,.3Z"/><path class="cls-10" d="M673.06,399.82a.86.86,0,0,0,.07-.72c-.07-.24-.22-.46-.3-.7a.16.16,0,0,0-.19-.11.15.15,0,0,0-.1.19c.08.22.21.42.28.64a.59.59,0,0,1,0,.55.15.15,0,0,0,.06.2.14.14,0,0,0,.2-.05Z"/><path class="cls-10" d="M670.88,399.9l.06,0h0l.07,0,0,0,0,0a.15.15,0,0,0,.11,0h.06l.05,0a.21.21,0,0,0,0-.11.12.12,0,0,0,0-.1l-.07-.06,0,0-.12-.05h-.06l-.06,0a.08.08,0,0,0,0,0s0,0,0,.05a.13.13,0,0,0,0,.12.11.11,0,0,0,.09.06Z"/><path class="cls-10" d="M670.89,399.82a.15.15,0,0,0,0-.3.15.15,0,0,0,0,.3Z"/><path class="cls-10" d="M673.07,399.41a4.78,4.78,0,0,0-.22-.67.73.73,0,0,0-.42-.47,3,3,0,0,0-.32-.06l-.34,0a.49.49,0,0,0-.49.19c-.07.15.12.32.24.18.28-.31.75-.16,1.09-.06a.15.15,0,1,0,.08-.28,1.26,1.26,0,0,0-1.38.13l.23.18s0,0,.09,0a.81.81,0,0,1,.22,0,1.89,1.89,0,0,1,.52.09c.14.06.18.23.23.36a5.22,5.22,0,0,1,.18.56.15.15,0,0,0,.29-.08Z"/><path class="cls-10" d="M670.58,405a6.17,6.17,0,0,1-.57.44.16.16,0,0,0,0,.24c.18.18.36.36.55.52a.17.17,0,0,0,.22,0,.15.15,0,0,0,0-.21,5.44,5.44,0,0,1-.55-.52l0,.23a5.91,5.91,0,0,0,.63-.49.14.14,0,0,0,0-.21.15.15,0,0,0-.21,0Z"/><path class="cls-10" d="M671.82,405.05a.94.94,0,0,0-.32.15c-.11.09-.25.2-.23.36a.31.31,0,0,0,.12.18l.15.13.33.26a.14.14,0,0,0,.21,0,.15.15,0,0,0,0-.21l-.27-.22c-.08-.07-.17-.13-.25-.21h0v.06h0s0,0,0,0l0,0,0,0h0l.12-.07h0l.08,0a.15.15,0,0,0,.11-.18.18.18,0,0,0-.19-.11Z"/><path class="cls-10" d="M673,405.21l-.35.22-.17.12a.55.55,0,0,0-.17.13.18.18,0,0,0,0,.16.27.27,0,0,0,.09.12l.16.11.33.25a.16.16,0,0,0,.21-.06.15.15,0,0,0-.06-.2l-.25-.18-.12-.09-.06-.05h0l0,0s0,0,0,.08l0,.08s0,0,0,0l0,0,.09-.06.16-.11.33-.22a.15.15,0,0,0-.15-.25Z"/><path class="cls-10" d="M673.58,405.75l-.1.28a.15.15,0,0,0,0,.11.16.16,0,0,0,.09.07.17.17,0,0,0,.12,0,.24.24,0,0,0,.06-.09l.1-.28a.15.15,0,0,0,0-.11.16.16,0,0,0-.09-.07.14.14,0,0,0-.11,0,.13.13,0,0,0-.07.09Z"/><path class="cls-10" d="M674,405.83l-.07.2a.18.18,0,0,0,0,.14.14.14,0,0,0,.15,0,.3.3,0,0,0,.11-.06.35.35,0,0,0,0-.08l.06-.1,0,0,0,0,0,0h0l0,0h0l0,0h0l0,0,0,0,0,0,0,0,0,0s0,0,0,0v0a0,0,0,0,1,0,.05v0l0,.09a.16.16,0,0,0,0,.12.16.16,0,0,0,.09.07.2.2,0,0,0,.11,0,.13.13,0,0,0,.07-.09l0-.08a.38.38,0,0,0,0-.15l0,0a.05.05,0,0,0,0,0l0-.05a.16.16,0,0,0-.09,0,.17.17,0,0,0-.12,0h0l0,0a.29.29,0,0,0-.1.12.47.47,0,0,1-.06.09l0,0,0,0,0,0h0l.18.19.07-.2a.16.16,0,0,0,0-.12.16.16,0,0,0-.09-.07.14.14,0,0,0-.11,0,.13.13,0,0,0-.07.09Z"/><path class="cls-10" d="M674.89,405.81c-.13-.09-.29,0-.32.16a1,1,0,0,0,0,.17.53.53,0,0,1,0,.13v0a.43.43,0,0,0,0,0v0s0,0,0,.05l0,0,0,0,0,0h0l0,0h0a.15.15,0,0,0-.18.1.15.15,0,0,0,.1.19.28.28,0,0,0,.2,0,.37.37,0,0,0,.13-.17c0-.1,0-.21,0-.32v0l0,0,0,0,0,0,0,0h0l0,0h0l0,0h0A.16.16,0,0,0,675,406a.16.16,0,0,0-.06-.2Z"/><path class="cls-10" d="M675.25,406.28h0s0,0,0,0l0,0h0l.05,0a.27.27,0,0,0,.08-.34.21.21,0,0,0-.24-.09.44.44,0,0,0-.26.27.44.44,0,0,0,0,.3.43.43,0,0,0,.15.2.27.27,0,0,0,.23,0,.13.13,0,0,0,.09-.07.15.15,0,0,0,0-.11.16.16,0,0,0-.07-.09.16.16,0,0,0-.12,0h0s0,0,0,0h0l0,0h0s0,0,0,0a.14.14,0,0,1,0-.06v0a.14.14,0,0,1,0-.09v0s0-.05,0-.07v0l0,0s0,0,0,0h0l0,0h-.07s0,0,0,0,0,0,0,0h0v0s0,0,0,0v0h0s0,0,0,0h0l0,0h0a.62.62,0,0,0-.14.14.15.15,0,0,0,0,.2.16.16,0,0,0,.21-.05Z"/><path class="cls-10" d="M675.52,406a1,1,0,0,0-.1.33.13.13,0,0,0,0,.06s0,0,0,.05a.12.12,0,0,0,.09.07.17.17,0,0,0,.12,0,.22.22,0,0,0,.07-.09s0,0,0-.05v0l0-.1,0,0,0,0,0,0,0,0,0,0h0a.14.14,0,0,0,.11,0,.2.2,0,0,0,.07-.09.17.17,0,0,0,0-.12.2.2,0,0,0-.09-.07h-.14l0,0a.2.2,0,0,0-.09.07.48.48,0,0,0-.12.22l.29.08a.9.9,0,0,1,.07-.27l0,0,0,0a.07.07,0,0,0,0,0,.06.06,0,0,0,0-.06.16.16,0,0,0-.07-.09.15.15,0,0,0-.11,0s-.08,0-.09.07Z"/><path class="cls-10" d="M676.11,405.83a1.19,1.19,0,0,0-.15.69.13.13,0,0,0,0,.1.16.16,0,0,0,.11.05c.07,0,.16-.07.15-.15a.92.92,0,0,1,0-.16v-.05h0s0-.05,0-.07a.74.74,0,0,1,0-.14s0-.05,0,0a0,0,0,0,1,0,0,.16.16,0,0,1,0-.07.15.15,0,0,0-.06-.21.15.15,0,0,0-.2.05Z"/><path class="cls-10" d="M676,406.3l.44.12a.16.16,0,0,0,.19-.11.16.16,0,0,0-.11-.18L676,406a.15.15,0,0,0-.19.1.18.18,0,0,0,.11.19Z"/><path class="cls-10" d="M676.84,406a1.61,1.61,0,0,0-.15.72.16.16,0,0,0,.15.15.15.15,0,0,0,.15-.15v-.22s0-.05,0-.07,0-.11,0-.16l0-.07s0,0,0,0l0,0a.15.15,0,0,0-.05-.21.16.16,0,0,0-.21.06Z"/><path class="cls-10" d="M676.69,406.35l.38.1a.16.16,0,0,0,.12,0,.16.16,0,0,0,.07-.09.14.14,0,0,0-.11-.18l-.38-.1a.14.14,0,0,0-.11,0,.12.12,0,0,0-.07.09.15.15,0,0,0,.1.19Z"/><path class="cls-10" d="M677.14,405.93a1.64,1.64,0,0,0-.17.61.15.15,0,0,0,.13.15.15.15,0,0,0,.17-.11s0-.05,0-.05,0,0,0,0h0l0,0h0s0,0,0,0h0s0,0,0,0h0s0,0,0,0,0,0,0,0,0,0,0,0v.05h0s0,0,0,0a.24.24,0,0,0,0,.12.2.2,0,0,0,.07.09.15.15,0,0,0,.2-.06.55.55,0,0,0,.06-.28.28.28,0,0,0-.18-.2.27.27,0,0,0-.27.07.47.47,0,0,0-.11.21l.29,0a.13.13,0,0,0,0-.06v0h0s0,0,0,0a.51.51,0,0,1,0-.13.93.93,0,0,0,0-.13l0-.06h0v0l0,0a.16.16,0,0,0-.06-.21.15.15,0,0,0-.2.06Z"/><path class="cls-10" d="M677.54,406.4l0,.15a.13.13,0,0,0,0,.06.08.08,0,0,0,0,.05l0,0a.05.05,0,0,0,.05,0,.17.17,0,0,0,.12,0l0,0a.21.21,0,0,0,0-.06l0-.15a.13.13,0,0,0,0-.06.08.08,0,0,0,0-.05.1.1,0,0,0,0-.05l0,0a.17.17,0,0,0-.12,0l0,0s0,0,0,.06Z"/><path class="cls-10" d="M678.17,406.29h-.07l-.07,0,0,0,0,0,0,0s0,0,0,.05a.06.06,0,0,0,0,.06.06.06,0,0,0,0,.05l0,0,.06,0a.14.14,0,0,0,.11,0l0,0,0-.06h0v0l0,0,0,0,0,0h0l0,0,0-.05a.13.13,0,0,0,0-.06.15.15,0,0,0,0-.11.21.21,0,0,0-.11,0Z"/><path class="cls-10" d="M678.59,406.43a.6.6,0,0,0,0,.47.15.15,0,0,0,.2.06l.23-.18-.22-.17a.93.93,0,0,0,0,.33.17.17,0,0,0,.08.13.16.16,0,0,0,.15,0,.81.81,0,0,0,.32-.29.16.16,0,0,0-.06-.21.15.15,0,0,0-.2.06l0,0h0s0,0,0,0l-.06.07h0s0,0,0,0,0,0,0,0h0l-.08,0,.22.13v-.11a.7.7,0,0,1,0-.14.14.14,0,0,0,0-.15.11.11,0,0,0-.07,0,.12.12,0,0,0-.1,0l-.23.18.2.05,0,0,0,0a.2.2,0,0,1,0-.11v0a.29.29,0,0,1,0-.09.14.14,0,0,0-.1-.18.15.15,0,0,0-.19.1Z"/><path class="cls-10" d="M679.55,406.64a.34.34,0,0,0-.08.09.36.36,0,0,0,0,.11.49.49,0,0,0,0,.2.11.11,0,0,0,0,.07.11.11,0,0,0,.11.07.15.15,0,0,0,.12,0,.56.56,0,0,0,.16-.25l-.25.06,0,0,0,0s0,0,0,.05v0s0,0,0,.05v0a.12.12,0,0,0,0,.1.16.16,0,0,0,.11.05.18.18,0,0,0,.15-.15.35.35,0,0,0-.1-.24.17.17,0,0,0-.15,0,.2.2,0,0,0-.11.11v0l0,0-.06.1,0,0,0,.06.23,0h0l0,0a.14.14,0,0,1,0-.06v0a.08.08,0,0,1,0-.07v0a.14.14,0,0,1,0-.06l0,0,0-.05,0,0,0,0a.14.14,0,0,0,0-.11.18.18,0,0,0-.15-.15h0l-.07,0Z"/><path class="cls-10" d="M680.18,406.85l.21-.05-.18-.19a3.58,3.58,0,0,1-.11.35l0,0h0v0a.25.25,0,0,0,0,.07l-.09.17a.15.15,0,0,0,.06.21.16.16,0,0,0,.2-.06,2.65,2.65,0,0,0,.29-.72.15.15,0,0,0-.19-.18l-.21.05a.16.16,0,0,0-.11.19.16.16,0,0,0,.19.1Z"/><path class="cls-5" d="M633.57,454.15a17.41,17.41,0,0,1,3.75.1,1,1,0,0,0,1-1,1,1,0,0,0-.3-.71,1.11,1.11,0,0,0-.7-.29,17.41,17.41,0,0,0-3.75-.1,1,1,0,0,0-1,1,1,1,0,0,0,1,1Z"/><path class="cls-5" d="M632.81,453.13l-.2,3.72a11.26,11.26,0,0,0,.07,3.43,3.33,3.33,0,0,0,4.83,2,1,1,0,0,0-1-1.72,1.29,1.29,0,0,1-1.29,0,1,1,0,0,1-.48-.47,2.32,2.32,0,0,1-.21-1c0-.92.07-1.86.12-2.79l.17-3.14a1,1,0,0,0-2,0Z"/><path class="cls-5" d="M634.55,457.67h2.56a1,1,0,0,0,0-2h-2.56a1,1,0,0,0,0,2Z"/><path class="cls-11" d="M853.15,470c-2.79,1.51-5.85,2.83-8.15,5.07a53.07,53.07,0,0,0-5.7,7.39c-.75,1.05,1,2.05,1.72,1a50.28,50.28,0,0,1,5.4-7c2.16-2.11,5.11-3.34,7.74-4.76,1.13-.61.12-2.34-1-1.72Z"/><path class="cls-11" d="M852,476.27a2.31,2.31,0,0,0-2,.92,3.56,3.56,0,0,0-.68,2.07,4.07,4.07,0,0,0,1.72,3.51,3.26,3.26,0,0,0,3.66,0,3.14,3.14,0,0,0,1.18-1.6,3.27,3.27,0,0,0-.21-2.2,5.6,5.6,0,0,0-3.21-2.94A1,1,0,0,0,852,478l.16.06s-.18-.09,0,0l.26.13.29.18.1.08c-.18-.12,0,0,.06.05a5.51,5.51,0,0,1,.43.41c.08.08.15.17.22.25s0,0,0,0l.13.19a2.62,2.62,0,0,1,.33.59c-.07-.19,0,.14,0,.18l0,.13c0,.11,0-.15,0,0s0,.39,0,.17c0,.09,0,.17-.06.25s.08-.15,0,0a.83.83,0,0,1-.07.13l-.06.09c-.11.2.14-.13,0,0l-.18.19c-.09.1.14-.09,0,0l-.1.06a.68.68,0,0,1-.26.15s.22-.07,0,0l-.18,0s-.2,0-.06,0,0,0,0,0-.26,0-.32,0,.23,0,0,0l-.16,0c-.07,0-.33-.12-.14,0a2.69,2.69,0,0,1-.29-.16l-.14-.08s-.12-.1,0,0,0,0-.05-.06l-.12-.11-.08-.09c-.17-.19.09.16-.05-.06l-.15-.25c0-.07-.12-.28-.06-.11,0-.1-.07-.21-.1-.32a.75.75,0,0,1,0-.16s0-.26,0-.12,0,0,0,0a2.11,2.11,0,0,1,0-.25c0-.12,0-.23,0-.34s0,0,0,0a2.25,2.25,0,0,1,0-.22,1,1,0,0,1,0-.17c0-.08.07-.19,0-.06a1.09,1.09,0,0,1,.08-.15s.16-.22.07-.12,0,0,0,0l.09-.08c0-.05,0,0,0,0l.1-.06c.1-.08-.13.1,0,0l.07,0h-.11a.65.65,0,0,1,.24,0,1,1,0,0,0,0-2Z"/><path class="cls-11" d="M855.86,476.22a8.39,8.39,0,0,0,0,1.12,2.38,2.38,0,0,0,.37,1.31c.64.82,1.74.51,2.6.31h-.07s.08,0,.1,0h.22a1.34,1.34,0,0,0,.2,0s-.22,0-.11,0a.53.53,0,0,1,.12,0l.12,0-.1,0s.07,0,.08,0-.07,0-.08-.07a.8.8,0,0,0,.13.13c-.15-.12-.11-.16-.06-.08s0-.07,0-.1,0,.11,0,.15,0-.24,0,0c0,0,0,.23,0,.05s0,.07,0,.11,0,.06,0,.08.1-.2,0-.12a1.09,1.09,0,0,0-.08.15c-.11.19.12-.12,0,0a1.66,1.66,0,0,0-.14.13c-.06.07.09-.07.1-.07s-.1.07-.14.09l-.09.05c-.13.06,0,0,.05,0a.81.81,0,0,0-.25.08l-.1,0c-.13,0,.19,0,.06,0a2.9,2.9,0,0,1-.51,0h-.1c-.14,0,.25,0,0,0l-.26-.06a1,1,0,0,0-1.23.7,1,1,0,0,0,.69,1.23,3.91,3.91,0,0,0,2.55-.17,2.44,2.44,0,0,0,1.37-1.73,2.07,2.07,0,0,0-1-2.24,3.48,3.48,0,0,0-2.52-.16l-.34.07s-.15,0,0,0h-.08s-.12,0,0,0a.77.77,0,0,1,.44.28s0,.19,0,.1,0-.1,0-.15,0,.22,0,0,0-.11,0-.17,0-.22,0-.33,0-.49,0-.74a1,1,0,0,0-1-1,1,1,0,0,0-1,1Z"/><path class="cls-11" d="M857.35,476.83a7.58,7.58,0,0,0,3.07-.23,1,1,0,0,0,.69-1.23,1,1,0,0,0-1.23-.7,6.42,6.42,0,0,1-1,.2l.27,0a6.6,6.6,0,0,1-1.83,0,1,1,0,0,0-.71.3,1,1,0,0,0-.29.7,1,1,0,0,0,.29.71l.2.16a1,1,0,0,0,.51.13Z"/><path class="cls-11" d="M864.65,473.35a2.77,2.77,0,0,0-2.85,2.88,1.84,1.84,0,0,0,.6,1.27,2.85,2.85,0,0,0,1.26.51,5,5,0,0,1,.52.14l.21.06c.29.09-.11-.07.16.07a1.76,1.76,0,0,1,.44.26s-.11-.1,0,0l.14.14c.06.08.08.09,0,0s.14.36.08.15c0,0,0,.3,0,.09v.17c0-.23,0,0,0,.06s.1-.16,0,0-.18.23,0,.08l-.18.17c.18-.15-.31.12-.08,0l-.16.05c-.22.08.18,0-.08,0h-.18c.23,0-.06,0-.09,0s-.17-.07,0,0a1.56,1.56,0,0,1-.28-.16c-.14-.08.15.16,0,0l-.14-.13c-.19-.17.07.13-.07-.08l-.09-.16c-.12-.2,0,.05-.07-.17s0-.1,0,0v-.11c0,.12,0,.13,0,0l0-.08c0,.12,0,.12,0,0s.15-.21.06-.1.09-.09.09-.09l.32-.29c.15-.12,0,0,0,0l.21-.16.53-.41a6.16,6.16,0,0,0,.87-.82,2.62,2.62,0,0,0,.74-1.3,1.78,1.78,0,0,0-1.69-1.83,1,1,0,0,0-1.23.7,1,1,0,0,0,.7,1.23,2.79,2.79,0,0,1,.39.1c-.23-.07,0,0,0,0-.13-.05-.09-.1,0,0a.7.7,0,0,1-.15-.51c0-.15,0,0,0,0,.14-.1-.08.09-.1.11l-.2.24-.37.36-.2.18-.08.07c-.3.23-.61.44-.9.69a2.61,2.61,0,0,0-1,1.92,2.88,2.88,0,0,0,1.1,2.18,2.93,2.93,0,0,0,2.42.65,2.64,2.64,0,0,0,1.77-1.35,2.45,2.45,0,0,0-.09-2.36,3.64,3.64,0,0,0-2-1.49,7.16,7.16,0,0,0-1.23-.32c-.09,0-.09-.08,0,0a.34.34,0,0,1,.09.12c0,.08,0,.08,0,0l0-.05c0,.1,0,.1,0,0s0-.11,0,0V476s.11-.29,0-.08l.12-.23c.13-.21-.08.06,0,0s.26-.23.08-.1l.15-.1.15-.08c-.11.05-.11.05,0,0l.16,0c-.23.06.09,0,.16,0a1,1,0,0,0,1-1,1,1,0,0,0-1-1Z"/><path class="cls-11" d="M867.4,472.45a85,85,0,0,1-.24,10.34,1,1,0,1,0,2,0,85,85,0,0,0,.24-10.34c0-1.28-2-1.29-2,0Z"/><path class="cls-11" d="M872.8,473.81a2.3,2.3,0,0,0-1.95.92,3.49,3.49,0,0,0-.68,2.07,4,4,0,0,0,1.72,3.51,3.22,3.22,0,0,0,3.65,0,3.08,3.08,0,0,0,1.18-1.59,3.16,3.16,0,0,0-.21-2.2,5.61,5.61,0,0,0-3.2-2.94,1,1,0,0,0-.54,1.93l.16.06s-.17-.09,0,0l.26.13.29.18.1.08c-.18-.12,0,0,.06.05a3.35,3.35,0,0,1,.43.41c.08.08.15.17.22.25s0,0,0,0l.13.19a3.74,3.74,0,0,1,.33.59c-.08-.19,0,.14,0,.18s0,.09,0,.13,0-.15,0,0,0,.39,0,.17a1.83,1.83,0,0,1-.06.25c0,.13.09-.15,0,0l-.07.13a.41.41,0,0,1-.05.09c-.12.2.13-.13,0,0s-.13.12-.19.19.15-.09,0,0l-.09.06c-.07,0-.18.14-.26.15s.22-.07,0,0l-.18.05h0c.13,0,0,0,0,0a.69.69,0,0,1-.32,0s.23.05,0,0l-.16,0c-.07,0-.34-.12-.15,0a2,2,0,0,1-.29-.15l-.13-.08s-.12-.1,0,0l-.06-.06-.12-.11-.08-.09c-.17-.19.09.16-.05-.06l-.15-.25c0-.07-.12-.29,0-.11a3,3,0,0,1-.11-.32l0-.16s-.05-.26,0-.12,0,0,0,0a2.18,2.18,0,0,1,0-.25c0-.12,0-.23,0-.34s0,0,0,0a1.7,1.7,0,0,1,0-.22c0-.06,0-.12,0-.17s.07-.19,0-.06a.8.8,0,0,0,.08-.16s.16-.21.07-.11,0,0,0,0l.09-.09c.05,0,0,0,0,0l.1-.06c.1-.08-.14.1,0,0l.08,0h-.11a.6.6,0,0,1,.23,0,1,1,0,0,0,0-2Z"/><path class="cls-11" d="M877.6,474.25a13.08,13.08,0,0,0,0,1.4,2.54,2.54,0,0,0,.42,1.62,1.34,1.34,0,0,0,1,.39h.24c.12,0,.21,0,0,0l.3.07c.2,0-.14-.08,0,0l.21.11.13.09,0,0c.13.12.25.24.37.37-.15-.18,0,0,0,.05s.09.17.13.25,0,0,0-.06a.78.78,0,0,1,0,.14,1.55,1.55,0,0,0,.06.23c-.07-.2,0,0,0,.05a.43.43,0,0,1,0,.16v0c.05-.1.15-.42.3-.37-.05,0-.24.07-.29.09l-.3.07-.2,0h-.14l-.2,0h-.62s-.41,0-.24,0a1,1,0,0,0-1.23.69,1,1,0,0,0,.7,1.23,6.39,6.39,0,0,0,1.69.07,4.65,4.65,0,0,0,1.76-.43c1.09-.62.86-2.17.35-3.09a3.49,3.49,0,0,0-2.21-1.69,3.65,3.65,0,0,0-.74-.08H879c.43.1.65.31.65.64,0-.15,0-.29,0-.43a14.59,14.59,0,0,1,0-1.62,1,1,0,0,0-1-1,1,1,0,0,0-1,1Z"/><path class="cls-11" d="M878.6,475.28l3.28-.11a1,1,0,0,0,0-2l-3.28.11a1,1,0,0,0,0,2Z"/><path class="cls-11" d="M886.64,473.56a3.05,3.05,0,0,0-3.42,1.21,2.24,2.24,0,0,0,.76,3,2.65,2.65,0,0,0,2.93-.05,3.67,3.67,0,0,0,1.42-3h-2l.18,6.05a1,1,0,0,0,1,1,1,1,0,0,0,1-1l-.18-6.05a1,1,0,1,0-2,0c0,.09,0,.17,0,.26s0-.06,0,.05-.06.29-.11.43-.08.18,0,.05l-.12.24-.08.11c.08-.1-.07.08-.09.1s-.2.16-.1.09-.09,0-.11.07c-.19.12.13,0-.06,0,0,0-.25.06-.09,0s-.06,0-.1,0-.25,0-.1,0l-.09,0c-.08,0-.22-.12,0,0a.65.65,0,0,0-.16-.09c-.1,0,.11.12,0,0L885,476c.1.1,0,0-.05-.07s0-.09,0,0,0,.07,0,0l0-.07c0,.13,0,.16,0,.07s0,.14,0-.05,0,.07,0-.05.12-.17,0-.06a1.19,1.19,0,0,1,.19-.2c-.11.09,0,0,.07,0s0,0,0,0l.1,0a1.8,1.8,0,0,1,.8,0,1,1,0,0,0,.53-1.93Z"/><path class="cls-11" d="M857,481.68a33.86,33.86,0,0,1-2.89-2l.2.16-.34-.26a1.08,1.08,0,0,0-.7-.29,1,1,0,0,0-.71.29,1,1,0,0,0-.29.71,1,1,0,0,0,.29.7A35.36,35.36,0,0,0,856,483.4a1,1,0,1,0,1-1.72Z"/><path class="cls-11" d="M877.63,480.48l-3.45-3.09a1,1,0,1,0-1.41,1.42l3.45,3.08a1,1,0,0,0,1.41-1.41Z"/><text class="cls-12" transform="translate(897.12 349.86)"><tspan class="cls-13">C</tspan><tspan x="6.43" y="0">ommu</tspan><tspan class="cls-14" x="37.39" y="0">t</tspan><tspan x="41.15" y="0">e Options:</tspan><tspan class="cls-15"><tspan x="0" y="10.8">1) ~ 1hr 12 min </tspan></tspan><tspan class="cls-16"><tspan x="6" y="19.2">1.</tspan><tspan class="cls-17" x="10.18" y="19.2"> </tspan><tspan class="cls-18" x="12.01" y="19.2">w</tspan><tspan class="cls-19" x="18.05" y="19.2">alk</tspan><tspan class="cls-17" x="28.27" y="19.2"> </tspan><tspan class="cls-20" x="30.11" y="19.2">0</tspan><tspan class="cls-21" x="34.67" y="19.2">.</tspan><tspan class="cls-17" x="36.22" y="19.2">8mi </tspan><tspan class="cls-22" x="51.83" y="19.2">t</tspan><tspan class="cls-17" x="54.54" y="19.2">o G</tspan><tspan class="cls-23" x="66.17" y="19.2">r</tspan><tspan class="cls-17" x="68.92" y="19.2">a</tspan><tspan class="cls-24" x="73.04" y="19.2">n</tspan><tspan class="cls-17" x="77.8" y="19.2">d </tspan><tspan class="cls-25" x="84.38" y="19.2">A</tspan><tspan class="cls-17" x="89.21" y="19.2">v station</tspan><tspan class="cls-26" x="6" y="27.6">2</tspan><tspan x="10.09" y="27.6">. </tspan><tspan class="cls-17" x="13.56" y="27.6">ta</tspan><tspan class="cls-27" x="20.53" y="27.6">k</tspan><tspan class="cls-28" x="24.59" y="27.6">e t</tspan><tspan class="cls-29" x="33.49" y="27.6">h</tspan><tspan class="cls-17" x="38.25" y="27.6">e </tspan><tspan class="cls-30" x="44.31" y="27.6">M</tspan><tspan class="cls-17" x="50.99" y="27.6" xml:space="preserve"> or </tspan><tspan class="cls-31" x="61.86" y="27.6">R</tspan><tspan class="cls-17" x="66.92" y="27.6"> </tspan><tspan class="cls-32" x="68.75" y="27.6">f</tspan><tspan class="cls-17" x="71.06" y="27.6">or 2 s</tspan><tspan class="cls-22" x="89.32" y="27.6">t</tspan><tspan class="cls-17" x="92.03" y="27.6">ops </tspan><tspan class="cls-33" x="106.42" y="27.6">f</tspan><tspan class="cls-34" x="109.36" y="27.6">r</tspan><tspan class="cls-17" x="112.07" y="27.6">om </tspan></tspan><tspan class="cls-35"><tspan x="6" y="36">G</tspan><tspan class="cls-36" x="11.41" y="36">r</tspan><tspan x="14.16" y="36">a</tspan><tspan class="cls-2" x="18.29" y="36">n</tspan><tspan x="23.04" y="36">d </tspan><tspan class="cls-37" x="29.62" y="36">A</tspan><tspan x="34.46" y="36">v </tspan><tspan class="cls-38" x="40.08" y="36">t</tspan><tspan x="42.79" y="36">o J</tspan><tspan class="cls-39" x="52.52" y="36">a</tspan><tspan class="cls-40" x="56.67" y="36">c</tspan><tspan class="cls-41" x="60.55" y="36">k</tspan><tspan x="64.64" y="36">son Heights</tspan></tspan><tspan class="cls-16"><tspan x="6" y="44.4">3.</tspan><tspan class="cls-17" x="11.59" y="44.4" xml:space="preserve"> t</tspan><tspan class="cls-23" x="16.27" y="44.4">r</tspan><tspan class="cls-17" x="19.01" y="44.4">ans</tspan><tspan class="cls-32" x="31.3" y="44.4">f</tspan><tspan class="cls-17" x="33.61" y="44.4">er </tspan><tspan class="cls-22" x="42.48" y="44.4">t</tspan><tspan class="cls-17" x="45.19" y="44.4">o t</tspan><tspan class="cls-24" x="54.26" y="44.4">h</tspan><tspan class="cls-17" x="59.01" y="44.4">e </tspan><tspan class="cls-42" x="65.07" y="44.4">E</tspan><tspan class="cls-17" x="69.75" y="44.4" xml:space="preserve"> t</tspan><tspan class="cls-23" x="74.43" y="44.4">r</tspan><tspan class="cls-17" x="77.17" y="44.4">ain </tspan><tspan class="cls-43" x="89.76" y="44.4">f</tspan><tspan class="cls-44" x="92.69" y="44.4">r</tspan><tspan class="cls-17" x="95.41" y="44.4">om </tspan></tspan><tspan class="cls-35"><tspan x="6" y="52.8">J</tspan><tspan class="cls-2" x="9.51" y="52.8">a</tspan><tspan class="cls-45" x="13.65" y="52.8">c</tspan><tspan class="cls-46" x="17.54" y="52.8">k</tspan><tspan x="21.63" y="52.8">son Heights </tspan><tspan class="cls-47" x="65.46" y="52.8">t</tspan><tspan x="68.17" y="52.8">o Chamber St</tspan><tspan class="cls-48" x="6" y="61.2">4</tspan><tspan x="10.77" y="61.2">. </tspan><tspan class="cls-49" x="14.08" y="61.2">w</tspan><tspan class="cls-3" x="20.13" y="61.2">alk</tspan><tspan x="30.35" y="61.2"> </tspan><tspan class="cls-50" x="32.18" y="61.2">0</tspan><tspan x="36.74" y="61.2">.5mi </tspan><tspan class="cls-47" x="53.33" y="61.2">t</tspan><tspan x="56.04" y="61.2">o s</tspan><tspan class="cls-40" x="65.68" y="61.2">c</tspan><tspan class="cls-39" x="69.57" y="61.2">h</tspan><tspan x="74.32" y="61.2">ool</tspan></tspan><tspan class="cls-15"><tspan x="0" y="72">2) ~ 1hr 9 min </tspan></tspan><tspan class="cls-16"><tspan x="6" y="80.4">1.</tspan><tspan class="cls-17" x="10.18" y="80.4"> </tspan><tspan class="cls-18" x="12.01" y="80.4">w</tspan><tspan class="cls-19" x="18.05" y="80.4">alk</tspan><tspan class="cls-17" x="28.27" y="80.4"> </tspan><tspan class="cls-20" x="30.11" y="80.4">0.</tspan><tspan class="cls-17" x="36.07" y="80.4">6mi </tspan><tspan class="cls-22" x="51.48" y="80.4">t</tspan><tspan class="cls-17" x="54.19" y="80.4">o bus s</tspan><tspan class="cls-22" x="78.55" y="80.4">t</tspan><tspan class="cls-17" x="81.26" y="80.4">op</tspan><tspan class="cls-26" x="6" y="88.8">2</tspan><tspan x="10.09" y="88.8">.</tspan><tspan class="cls-17" x="11.68" y="88.8" xml:space="preserve"> ta</tspan><tspan class="cls-27" x="20.48" y="88.8">k</tspan><tspan class="cls-28" x="24.54" y="88.8">e t</tspan><tspan class="cls-29" x="33.45" y="88.8">h</tspan><tspan class="cls-17" x="38.2" y="88.8">e </tspan><tspan class="cls-51" x="44.26" y="88.8">Q58</tspan><tspan class="cls-17" x="58.56" y="88.8" xml:space="preserve"> or </tspan><tspan class="cls-51" x="69.42" y="88.8">Q59</tspan><tspan class="cls-17" x="83.52" y="88.8"> </tspan><tspan class="cls-22" x="85.36" y="88.8">t</tspan><tspan class="cls-17" x="88.07" y="88.8">o </tspan></tspan><tspan class="cls-35"><tspan x="6" y="97.2">G</tspan><tspan class="cls-36" x="11.41" y="97.2">r</tspan><tspan x="14.16" y="97.2">a</tspan><tspan class="cls-2" x="18.29" y="97.2">n</tspan><tspan x="23.04" y="97.2">d </tspan><tspan class="cls-37" x="29.62" y="97.2">A</tspan><tspan x="34.46" y="97.2">v Station</tspan></tspan><tspan class="cls-16"><tspan x="6" y="105.6">3.</tspan><tspan class="cls-17" x="11.59" y="105.6" xml:space="preserve"> ta</tspan><tspan class="cls-27" x="20.4" y="105.6">k</tspan><tspan class="cls-28" x="24.46" y="105.6">e t</tspan><tspan class="cls-29" x="33.36" y="105.6">h</tspan><tspan class="cls-17" x="38.12" y="105.6">e </tspan><tspan class="cls-30" x="44.18" y="105.6">M</tspan><tspan class="cls-17" x="50.86" y="105.6" xml:space="preserve"> or </tspan><tspan class="cls-31" x="61.72" y="105.6">R</tspan><tspan class="cls-17" x="66.79" y="105.6"> </tspan><tspan class="cls-32" x="68.62" y="105.6">f</tspan><tspan class="cls-17" x="70.93" y="105.6">or 2 s</tspan><tspan class="cls-22" x="89.19" y="105.6">t</tspan><tspan class="cls-17" x="91.9" y="105.6">ops </tspan><tspan class="cls-33" x="106.29" y="105.6">f</tspan><tspan class="cls-34" x="109.22" y="105.6">r</tspan><tspan class="cls-17" x="111.94" y="105.6">om </tspan></tspan><tspan class="cls-35"><tspan x="6" y="114">G</tspan><tspan class="cls-36" x="11.41" y="114">r</tspan><tspan x="14.16" y="114">a</tspan><tspan class="cls-2" x="18.29" y="114">n</tspan><tspan x="23.04" y="114">d </tspan><tspan class="cls-37" x="29.62" y="114">A</tspan><tspan x="34.46" y="114">v </tspan><tspan class="cls-38" x="40.08" y="114">t</tspan><tspan x="42.79" y="114">o J</tspan><tspan class="cls-39" x="52.52" y="114">a</tspan><tspan class="cls-40" x="56.67" y="114">c</tspan><tspan class="cls-41" x="60.55" y="114">k</tspan><tspan x="64.64" y="114">son Heights</tspan></tspan><tspan class="cls-16"><tspan class="cls-48" x="6" y="122.4">4</tspan><tspan x="10.82" y="122.4">.</tspan><tspan class="cls-17" x="12.41" y="122.4" xml:space="preserve"> t</tspan><tspan class="cls-23" x="17.09" y="122.4">r</tspan><tspan class="cls-17" x="19.83" y="122.4">ans</tspan><tspan class="cls-32" x="32.12" y="122.4">f</tspan><tspan class="cls-17" x="34.43" y="122.4">er </tspan><tspan class="cls-22" x="43.3" y="122.4">t</tspan><tspan class="cls-17" x="46.01" y="122.4">o t</tspan><tspan class="cls-24" x="55.07" y="122.4">h</tspan><tspan class="cls-17" x="59.83" y="122.4">e </tspan><tspan class="cls-42" x="65.89" y="122.4">E</tspan><tspan class="cls-17" x="70.57" y="122.4" xml:space="preserve"> t</tspan><tspan class="cls-23" x="75.25" y="122.4">r</tspan><tspan class="cls-17" x="77.99" y="122.4">ain </tspan><tspan class="cls-43" x="90.58" y="122.4">f</tspan><tspan class="cls-44" x="93.51" y="122.4">r</tspan><tspan class="cls-17" x="96.23" y="122.4">om </tspan></tspan><tspan class="cls-35"><tspan x="6" y="130.8">J</tspan><tspan class="cls-2" x="9.51" y="130.8">a</tspan><tspan class="cls-45" x="13.65" y="130.8">c</tspan><tspan class="cls-46" x="17.54" y="130.8">k</tspan><tspan x="21.63" y="130.8">son Heights </tspan><tspan class="cls-47" x="65.46" y="130.8">t</tspan><tspan x="68.17" y="130.8">o Chamber St</tspan></tspan><tspan class="cls-16"><tspan x="6" y="139.2">5.</tspan><tspan class="cls-17" x="11.61" y="139.2"> </tspan><tspan class="cls-18" x="13.44" y="139.2">w</tspan><tspan class="cls-19" x="19.48" y="139.2">alk</tspan><tspan class="cls-17" x="29.7" y="139.2"> </tspan><tspan class="cls-20" x="31.54" y="139.2">0</tspan><tspan class="cls-17" x="36.09" y="139.2">.5mi </tspan><tspan class="cls-52" x="52.68" y="139.2">t</tspan><tspan class="cls-17" x="55.39" y="139.2">o s</tspan><tspan class="cls-53" x="65.04" y="139.2">c</tspan><tspan class="cls-24" x="68.92" y="139.2">h</tspan><tspan class="cls-17" x="73.67" y="139.2">ool</tspan></tspan></text></svg>