<svg id="_15._3_MV_MS_commute" data-name="15. (3) MV/MS commute" xmlns="http://www.w3.org/2000/svg" viewBox="0 0 1357.03 1080"><defs><style>.cls-1{font-size:5px;}.cls-1,.cls-3{fill:#c1272d;}.cls-1,.cls-14,.cls-15,.cls-16,.cls-17,.cls-18,.cls-19,.cls-20,.cls-21,.cls-22,.cls-24,.cls-25,.cls-26,.cls-27,.cls-28,.cls-29,.cls-30,.cls-31,.cls-32,.cls-39,.cls-40,.cls-41,.cls-48,.cls-49,.cls-50,.cls-51,.cls-52,.cls-53,.cls-56{font-family:Montserrat-Regular, Montserrat;}.cls-2,.cls-21{letter-spacing:0em;}.cls-15,.cls-16,.cls-4,.cls-46{fill:gray;}.cls-39,.cls-5{fill:#0039a6;}.cls-6{letter-spacing:-0.01em;}.cls-7{fill:#fff;}.cls-8{fill:#8cca3e;}.cls-9{font-size:9px;font-family:Montserrat-Bold, Montserrat;font-weight:700;}.cls-10{letter-spacing:-0.02em;}.cls-11{letter-spacing:-0.02em;}.cls-12,.cls-13{font-family:Montserrat-Medium, Montserrat;font-weight:500;}.cls-13,.cls-32{font-size:7px;}.cls-14,.cls-15,.cls-16,.cls-17,.cls-18,.cls-19,.cls-20,.cls-21,.cls-22,.cls-24,.cls-25,.cls-26,.cls-27,.cls-28,.cls-29,.cls-30,.cls-31,.cls-32,.cls-39,.cls-40,.cls-41,.cls-48,.cls-49,.cls-50,.cls-51,.cls-52,.cls-53,.cls-56{font-weight:400;}.cls-15,.cls-43,.cls-56{letter-spacing:-0.02em;}.cls-17{letter-spacing:-0.01em;}.cls-18{letter-spacing:0.01em;}.cls-19,.cls-44{letter-spacing:-0.02em;}.cls-20,.cls-33{letter-spacing:-0.01em;}.cls-22,.cls-34{letter-spacing:-0.03em;}.cls-23{letter-spacing:0.01em;}.cls-24{letter-spacing:-0.02em;}.cls-25{letter-spacing:0em;}.cls-26,.cls-36{letter-spacing:0em;}.cls-27{fill:#ff6319;}.cls-28{fill:#fccc0a;}.cls-29{letter-spacing:-0.01em;}.cls-30{letter-spacing:0.08em;}.cls-31{letter-spacing:-0.01em;}.cls-35,.cls-49{letter-spacing:-0.02em;}.cls-37,.cls-52{letter-spacing:-0.01em;}.cls-38,.cls-46,.cls-53{letter-spacing:-0.02em;}.cls-40{letter-spacing:0.08em;}.cls-41{letter-spacing:-0.01em;}.cls-42,.cls-50{letter-spacing:-0.01em;}.cls-45{letter-spacing:0.02em;}.cls-47{letter-spacing:-0.01em;}.cls-48,.cls-51,.cls-57{fill:#a67c52;}.cls-51{letter-spacing:-0.05em;}.cls-54{letter-spacing:-0.07em;}.cls-55{letter-spacing:0em;}</style></defs><text class="cls-1" transform="translate(852.14 500.06)"><tspan class="cls-2">h</tspan><tspan x="3.39" y="0">o</tspan><tspan class="cls-2" x="6.53" y="0">m</tspan><tspan x="11.84" y="0">e</tspan></text><path class="cls-3" d="M849.88,496.24c3.86,0,3.87-6,0-6s-3.87,6,0,6Z"/><path class="cls-4" d="M611.23,530.36l-2.9-2.59a14.39,14.39,0,0,1-2.41-2.31,2.26,2.26,0,0,0-.16-.26c-.21-.33,0,.13,0-.07a4.18,4.18,0,0,1-.16-.58c.06.29,0,0,0-.07s0-.22,0-.33,0-.18,0-.27c0,.3,0,0,0-.07s0-.22.08-.32.14-.38.07-.2.09-.19.09-.19a1.76,1.76,0,0,1,.14-.23s.23-.32.11-.18.16-.15.15-.15l.2-.18c-.22.2.09-.05.13-.08a1.5,1.5,0,1,0-1.52-2.59,5.41,5.41,0,0,0-2.14,6.42,9.27,9.27,0,0,0,2.7,3.24l3.51,3.13a1.54,1.54,0,0,0,2.12,0,1.52,1.52,0,0,0,0-2.12Z"/><path class="cls-4" d="M606.5,523c3.86,0,3.87-6,0-6s-3.86,6,0,6Z"/><path class="cls-4" d="M610.27,534.85c3.86,0,3.87-6,0-6s-3.87,6,0,6Z"/><path class="cls-3" d="M606.77,523.55c3.86,0,3.87-6,0-6s-3.86,6,0,6Z"/><path class="cls-5" d="M612.47,531.76c8.69-5.21,7.7-16.48,8.13-25.18a43.15,43.15,0,0,1,3.9-15.15c1-2.34,2.1-4.65,3.1-7a31.25,31.25,0,0,0,2.49-7c.39-2.42-.64-4.36-2-6.3a10.34,10.34,0,0,1-2.2-6.6c.29-5.26,3.68-10.16,6.16-14.62q8.17-14.71,16.94-29.09c1.44-2.38,2.89-4.76,4.38-7.12,1.22-1.93,2.7-4,5.21-4.07s5.09,1.6,7.24,2.94l7.36,4.62,29.23,18.34c8.31,5.22,17.07,11,27.19,11.42a23.63,23.63,0,0,0,12.79-2.86,39.61,39.61,0,0,0,5.23-4.18c2.15-1.79,4.93-2.14,7.57-2.73,5.46-1.21,10.9-2.47,16.37-3.62a41.84,41.84,0,0,1,8.25-1.09,21.41,21.41,0,0,1,7.72,1.45,13.69,13.69,0,0,0,7.29.88,16.44,16.44,0,0,1,4-.39,12.52,12.52,0,0,1,4.19,1.24c5,2.33,9.86,5.4,14.66,8.2,2.38,1.39,4.75,2.81,7.11,4.23,1.1.67,2.11-1.06,1-1.73q-7.4-4.45-14.92-8.71c-4.41-2.48-9.12-5.84-14.43-5.12a32.36,32.36,0,0,1-3.92.52,11.56,11.56,0,0,1-4.05-.89,24.56,24.56,0,0,0-7.75-1.68c-5.42-.14-10.8,1.39-16,2.56l-8.36,1.85a41.43,41.43,0,0,0-7.46,1.9c-2.26,1-3.77,2.91-5.68,4.38a18,18,0,0,1-6.15,3c-10,2.77-19.81-1.89-28.18-7-9.82-6-19.48-12.19-29.21-18.29-4.84-3-9.62-6.24-14.56-9.12-2.07-1.21-4.46-2.33-6.92-2.13a7.34,7.34,0,0,0-5.1,3,64.54,64.54,0,0,0-4.17,6.49c-1.48,2.4-2.94,4.82-4.4,7.24Q640.18,431.68,636,439c-2.84,5-5.66,9.93-8.37,15-2.22,4.1-4.47,8.91-3.4,13.68.52,2.31,2,4,3.16,6,1.49,2.58.42,5.05-.59,7.61-1.86,4.73-4.24,9.25-5.94,14.05-1.86,5.21-2.26,10.41-2.35,15.9-.08,4.85-.27,9.88-2.67,14.22a12.15,12.15,0,0,1-4.35,4.62,1,1,0,0,0,1,1.72Z"/><text class="cls-1" transform="translate(595.18 513.93)">s<tspan class="cls-6" x="2.45" y="0">c</tspan><tspan class="cls-2" x="5.22" y="0">h</tspan><tspan x="8.62" y="0">ool</tspan></text><path class="cls-3" d="M702.21,388.19a5.27,5.27,0,0,0-5.87,2.49c-1,1.85-.84,4.88,1.09,6.11s5.24-.47,6.62-2c2.06-2.25.14-4.26-1.4-6.1-.75-.89-2,.39-1.27,1.27.93,1.11,2.46,2.26,1.26,3.7-.71.85-3.36,2.34-4.43,1.41s-.79-2.88-.11-3.87a3.45,3.45,0,0,1,3.63-1.31c1.13.25,1.61-1.48.48-1.74Z"/><path class="cls-3" d="M703.28,393.75c1.14.85-9.91,11-1.24,10.64,1.15-.05,1.16-1.85,0-1.8-2.21.1-.49-2.57.06-3.43.71-1.14,1.53-2.19,2.28-3.3.9-1.32,1.21-2.61-.19-3.66-.92-.7-1.82.87-.91,1.55Z"/><path class="cls-3" d="M696.39,396.22a61.69,61.69,0,0,0-4.58,7.38c-.66,1.28-1.11,3.07-2,4.18-1.13,1.43-3.15,2.1-4.83,2.52-4.23,1-5.8,2.38-7.37,6.59-.4,1.08,1.34,1.55,1.74.47,1.38-3.68,3.71-4.61,7.25-5.63a8.5,8.5,0,0,0,3.94-1.91c1.49-1.53,2.14-4,3.13-5.9a60.46,60.46,0,0,1,4.27-6.79c.68-.94-.88-1.84-1.55-.91Z"/><path class="cls-3" d="M689.16,409.55c-1,1.27-3.22,3.13-3.32,4.87a9.19,9.19,0,0,0,.6,2.51,22.35,22.35,0,0,1,.55,4.39c0,1.16,1.84,1.16,1.8,0a24.23,24.23,0,0,0-.62-4.87c-.31-1.27-.66-1.54.11-2.92a22.24,22.24,0,0,1,2.15-2.71c.72-.9-.55-2.18-1.27-1.27Z"/><path class="cls-3" d="M693.84,400.25c-1.13-.69-2.28-1.33-3.46-1.92-.83-.4-2-1.24-3-1.24-1.75,0-3.72,2.46-5,3.51-.9.74.38,2,1.27,1.27,1.44-1.19,2.86-3.12,4.82-2.45a24.32,24.32,0,0,1,4.44,2.38.9.9,0,0,0,.91-1.55Z"/><path class="cls-3" d="M692.22,400.79c-1.08.82-2.15,1.64-3.3,2.36a8.42,8.42,0,0,1-1.81,1,2.66,2.66,0,0,1-2.93-1.07c-.79-.85-2.06.42-1.27,1.27,1.27,1.36,2.62,2.31,4.51,1.63a22.88,22.88,0,0,0,5.71-3.64c.91-.69,0-2.25-.91-1.55Z"/><path class="cls-7" d="M670.27,396.91a47.22,47.22,0,0,0,9.42,1.81.73.73,0,0,1,.44.15.65.65,0,0,1,.15.24l1,2.34a4.19,4.19,0,0,1,.41,1.36,3.67,3.67,0,0,1-.09.93,18.74,18.74,0,0,1-1,3.6L669,405.89a66.28,66.28,0,0,0,.9-8.89"/><path class="cls-7" d="M670.19,397.2a50.09,50.09,0,0,0,8.9,1.77c.36,0,.69,0,.93.29a5.57,5.57,0,0,1,.5,1.17,9.45,9.45,0,0,1,.83,2.22A6.46,6.46,0,0,1,681,405a19.36,19.36,0,0,1-.73,2.23l.29-.22L669,405.59l.29.38a69.19,69.19,0,0,0,.91-9,.3.3,0,0,0-.6,0,68.65,68.65,0,0,1-.89,8.81.31.31,0,0,0,.29.38l11.6,1.45c.14,0,.25-.11.29-.22a19.37,19.37,0,0,0,.78-2.45,6.33,6.33,0,0,0,.32-2.36,7.67,7.67,0,0,0-.72-2l-.55-1.29a1.53,1.53,0,0,0-.4-.7,1.12,1.12,0,0,0-.59-.19c-.47-.06-1-.09-1.43-.15-.93-.11-1.85-.25-2.77-.42a47.44,47.44,0,0,1-5.14-1.23.3.3,0,0,0-.16.58Z"/><path d="M669.72,404.78l10.48,1.76c1.51.26,2.16-2.06.64-2.31l-10.49-1.76c-1.51-.26-2.16,2-.63,2.31Z"/><path class="cls-8" d="M671.21,398.62c0-.09.23-.15.34-.2a1,1,0,0,1,.51-.1c.28.05.41.37.46.62a1.8,1.8,0,0,1-.12,1.1.8.8,0,0,1-.26.36.64.64,0,0,1-.45.06,1.94,1.94,0,0,1-1.06-.5c-.28-.26-.7.16-.42.42a2.47,2.47,0,0,0,1.34.66,1.43,1.43,0,0,0,.82-.08,1.2,1.2,0,0,0,.5-.52,2.5,2.5,0,0,0,.24-1.59,1.17,1.17,0,0,0-1.7-1c-.25.1-.59.21-.72.48a.31.31,0,0,0,.11.41.3.3,0,0,0,.41-.11Z"/><path class="cls-8" d="M672.41,400.59a2.4,2.4,0,0,0-.22,1.37.16.16,0,0,0,.19.11c.09,0,.11-.1.1-.19a2,2,0,0,1,.19-1.13.16.16,0,0,0-.06-.21.15.15,0,0,0-.2,0Z"/><path class="cls-8" d="M672.47,400.57l.44.55c.07.09.21,0,.25-.07l.39-1.11-.29,0,.17,1.62a.16.16,0,0,0,.15.15.15.15,0,0,0,.15-.15l-.17-1.62a.15.15,0,0,0-.3,0l-.39,1.11.25-.06-.43-.55a.17.17,0,0,0-.22,0,.15.15,0,0,0,0,.21Z"/><path class="cls-8" d="M673.74,399.9a.66.66,0,0,0,.51.09.15.15,0,1,0-.08-.29h-.1l-.12,0,0,0-.09-.05a.22.22,0,0,0-.11,0,.16.16,0,0,0-.09.07.17.17,0,0,0,0,.12.22.22,0,0,0,.07.09Z"/><path class="cls-8" d="M673.68,399.7a1.08,1.08,0,0,0,0,1,.54.54,0,0,0,.36.3.35.35,0,0,0,.42-.25.15.15,0,0,0-.11-.18.15.15,0,0,0-.18.1s0,0,0,0,0,0,0,0h-.06s0,0,0,0h0a.34.34,0,0,1-.09-.08.83.83,0,0,1-.07-.13.77.77,0,0,1,0-.63.15.15,0,0,0-.05-.2.16.16,0,0,0-.21.05Z"/><path class="cls-8" d="M673.87,400.59l.47-.11a.14.14,0,0,0,.1-.18.16.16,0,0,0-.18-.11l-.47.11a.15.15,0,0,0-.11.18.18.18,0,0,0,.19.11Z"/><path class="cls-8" d="M674.49,399.83a2.63,2.63,0,0,0,1.08,0,.15.15,0,0,0,.1-.19.14.14,0,0,0-.18-.1,2.38,2.38,0,0,1-.92,0,.16.16,0,0,0-.19.1.16.16,0,0,0,.11.19Z"/><path class="cls-8" d="M674.88,399.73a2.44,2.44,0,0,0-.16,1,.15.15,0,1,0,.3,0,2.22,2.22,0,0,1,.15-.89.15.15,0,0,0-.1-.19.16.16,0,0,0-.19.11Z"/><path class="cls-8" d="M675.33,400.07l-.12.37a.24.24,0,0,0,0,.12.2.2,0,0,0,.09.07.16.16,0,0,0,.19-.11l.12-.37a.13.13,0,0,0,0-.12.2.2,0,0,0-.09-.07.16.16,0,0,0-.19.11Z"/><path class="cls-8" d="M675.64,400.15l.1,0h0s0,0,0,0h0s0,0,0,0v0h0v0h0s0,0,0,0h0s0,0,0,0h-.18a.16.16,0,0,0-.14.09.17.17,0,0,0,0,.17.27.27,0,0,1,.07.08l0,0s0,0,0,0l0,0c0,.06.09.12.13.19a.15.15,0,0,0,.2.05.15.15,0,0,0,.06-.2,4,4,0,0,0-.31-.41l-.1.26a.65.65,0,0,0,.31,0,.31.31,0,0,0,.18-.26.3.3,0,0,0-.17-.25.45.45,0,0,0-.34,0,.14.14,0,0,0-.1.18.15.15,0,0,0,.18.11Z"/><path class="cls-8" d="M676.1,399.86a.59.59,0,0,0-.07.37.3.3,0,0,0,.32.22.32.32,0,0,0,.18-.06.57.57,0,0,0,.13-.14.91.91,0,0,0,.07-.14.18.18,0,0,0,0-.12.28.28,0,0,0,0-.13.55.55,0,0,0-.17-.14.68.68,0,0,0-.23-.07.18.18,0,0,0-.11.05.18.18,0,0,0,0,.1.15.15,0,0,0,0,.11l0,0a.12.12,0,0,0,.08,0h0a.35.35,0,0,1,.11,0h0l.1,0,0,0,0,0,0,0v0l0,0v0s0,0,0,0v0a.56.56,0,0,1-.09.17l0,0-.06,0,0,0,0,0,0,0-.06,0h0l0,0,0,0,0,0,0,0,0,0v0s0,0,0-.06v0a.19.19,0,0,1,0-.1l0,0,0-.06a.17.17,0,0,0,0-.12.2.2,0,0,0-.07-.09.16.16,0,0,0-.21.06Z"/><path class="cls-8" d="M676.85,399.56a1.11,1.11,0,0,0-.11.62.53.53,0,0,0,.13.27.3.3,0,0,0,.35.05.15.15,0,0,0,0-.2.15.15,0,0,0-.2-.06h0s0,0,0,0h0s0,0,0,0h0v0s0,0,0,0v0h0s0,0,0,0,0,0,0-.05,0,0,0,0v0a.34.34,0,0,1,0-.1h0s0,0,0,0a.43.43,0,0,0,0-.05l0-.1,0-.05s0,0,0,0,0,0,0,0a.17.17,0,0,0-.05-.21.16.16,0,0,0-.21.06Z"/><path class="cls-8" d="M677.5,400.35c.07-.21.14-.42.22-.63l-.27,0a2.75,2.75,0,0,1,.17.29s0,.06,0,0,0,0,0,0l0,.07c0,.06,0,.11,0,.17a.15.15,0,0,0,.19.1.14.14,0,0,0,.1-.18,1.65,1.65,0,0,0-.3-.66.14.14,0,0,0-.15-.07.15.15,0,0,0-.12.11c-.08.21-.15.42-.22.63a.15.15,0,0,0,.11.18.14.14,0,0,0,.18-.1Z"/><path class="cls-8" d="M677.54,400.34a.35.35,0,0,0,.11,0h.07l.06,0a.05.05,0,0,0,.05,0l0-.05a.07.07,0,0,0,0,0,.15.15,0,0,0,0-.11l0,0a.12.12,0,0,0-.08,0h0l-.06,0h-.06l-.06,0a.08.08,0,0,0,0,0l0,.05a.14.14,0,0,0,0,.11l0,0a.1.1,0,0,0,.07,0Z"/><path class="cls-8" d="M677.94,399.72a1.75,1.75,0,0,0-.05.6.14.14,0,0,0,.15.15.16.16,0,0,0,.15-.15,1.31,1.31,0,0,1,0-.28V400s0,0,0,0v0l0-.14a.15.15,0,0,0-.11-.18.15.15,0,0,0-.18.1Z"/><path class="cls-8" d="M678.14,400h.12s.06,0,.08,0h0s0,0,0,0a.08.08,0,0,1,0-.08.05.05,0,0,1,0,0h0l0,0h0l-.19.07a.15.15,0,0,0-.07.25,2.5,2.5,0,0,1,.23.23l.11.13s0,0,0,0l0,0,0,.07a.15.15,0,0,0,.26-.16,4,4,0,0,0-.47-.54l-.06.26.28-.1a.26.26,0,0,0,.14-.29.37.37,0,0,0-.27-.2.55.55,0,0,0-.31,0,.15.15,0,0,0-.11.18.16.16,0,0,0,.19.1Z"/><path class="cls-8" d="M678.9,399.91a3.46,3.46,0,0,0-.21.78s0,.07,0,.11a.13.13,0,0,0,.09.07.14.14,0,0,0,.18-.1,3.46,3.46,0,0,1,.21-.78.16.16,0,0,0-.11-.19.15.15,0,0,0-.18.11Z"/><path class="cls-8" d="M679.06,400.17h0s0,0,0,0h0l0,0s0,0,0,0,0,0,0,0h0v.12h0v0l0,0s0,0,0,0l0,.07,0,0s0,0,0,0l0,0s0,0,0,0h0s0,0,0,0h0l-.05,0,0,0a.34.34,0,0,0-.12.12.16.16,0,0,0,.06.21.15.15,0,0,0,.2-.06h0s0,0,0,0l.15-.07a.72.72,0,0,0,.23-.36.53.53,0,0,0,0-.41.4.4,0,0,0-.34-.2.15.15,0,0,0-.15.15.16.16,0,0,0,.15.15Z"/><path class="cls-8" d="M674.3,401.93a2.55,2.55,0,0,1,1.77-.74,10.87,10.87,0,0,1,2.35-.07l0-.29a18,18,0,0,0-2.81.78.15.15,0,0,0,0,.29,1.89,1.89,0,0,0,.75,0l.41,0c.07,0,.35-.09.4,0l0-.11v0c0,.19.33.19.3,0s-.35-.24-.58-.21a3,3,0,0,1-1.16.07v.29a17,17,0,0,1,2.81-.78c.17,0,.12-.29,0-.3a11.22,11.22,0,0,0-2.59.11,2.58,2.58,0,0,0-1.79.85c-.11.15.15.3.26.15Z"/><path class="cls-8" d="M676.46,402.06a.24.24,0,0,0-.22,0,.31.31,0,0,0-.18.16.27.27,0,0,0,0,.26.2.2,0,0,0,.08.08l0,0,0,0h0l0,0h0v0h0v-.08s0,0,0,0l0,0h0l0,0h0a.14.14,0,0,0-.11,0,.12.12,0,0,0,0,.11.12.12,0,0,0,0,.1.16.16,0,0,0,.11.05l.16,0a.22.22,0,0,0,.12-.16.19.19,0,0,0-.06-.2s-.06,0-.09-.06l0,0h0l0,0h0v0h0v.06s0,0,0-.05l0,0,0-.06,0,0,0,0,0,0,0,0,0,0h0l0,0h0a.16.16,0,0,0,.12,0,.2.2,0,0,0,.09-.07.25.25,0,0,0,0-.12s0-.06-.07-.09Z"/><path class="cls-8" d="M676.45,402a1.16,1.16,0,0,0,.14.73.15.15,0,0,0,.21,0,.14.14,0,0,0,.05-.2l0-.07s0,0,0,0,0,0,0,0l0-.14s0-.05,0-.07v0h0s0,0,0,0v-.1h0v0a.14.14,0,0,0-.1-.18.15.15,0,0,0-.19.1Z"/><path class="cls-8" d="M676.46,402.49a.77.77,0,0,0,.39-.2.15.15,0,0,0,0-.11.13.13,0,0,0,0-.1.16.16,0,0,0-.11-.05.19.19,0,0,0-.1.05l-.06.05,0,0a.57.57,0,0,1-.13.08h0l-.13,0a.13.13,0,0,0-.09.07.16.16,0,0,0,0,.12.2.2,0,0,0,.07.09h.12Z"/><path class="cls-8" d="M676.73,402.11a.46.46,0,0,0,0,.2.33.33,0,0,0,.19.16.22.22,0,0,0,.19-.05l.06-.06.1-.17a.76.76,0,0,0,.06-.2.13.13,0,0,0,0-.06s0,0,0-.06a.2.2,0,0,0-.09-.07.13.13,0,0,0-.12,0,.16.16,0,0,0-.07.09.53.53,0,0,1,0,.16l0,0a.67.67,0,0,1-.09.14l0,0a.18.18,0,0,1,0,.07l0,0h.1a.05.05,0,0,1,0,0l0,0s0,0,0,0l0,0a.05.05,0,0,1,0,0v0a.13.13,0,0,1,0-.06v0a.14.14,0,0,0-.15-.15.15.15,0,0,0-.11,0,.21.21,0,0,0,0,.11Z"/><path class="cls-8" d="M677.51,401.66a.7.7,0,0,0,0,.32l.15-.15h0l0,0,0,0a.16.16,0,0,0-.12,0l0,0-.06.05a.43.43,0,0,0-.07.25.15.15,0,1,0,.3,0v0a.13.13,0,0,1,0-.06v0l0-.06-.2.06a.38.38,0,0,0,.19.05.12.12,0,0,0,.1,0,.16.16,0,0,0,0-.11v-.07a.85.85,0,0,1,0-.17.13.13,0,0,0,0-.12.2.2,0,0,0-.09-.07.17.17,0,0,0-.12,0l0,0a.16.16,0,0,0,0,.07Z"/><path class="cls-8" d="M678,402a.49.49,0,0,0,.23-.26.24.24,0,0,0,0-.24.2.2,0,0,0-.25,0,.57.57,0,0,0-.21.3.6.6,0,0,0,0,.35.55.55,0,0,0,.29.25.15.15,0,0,0,.19-.1.16.16,0,0,0-.11-.19s0,0,0,0l0,0h0l0,0h0s0,0,0-.05v0s0,0,0,0v-.05h0v0s0,0,0,0,0,0,0-.06,0,0,0,0l0,0v0s0,0,0,0l0,0h0c-.08,0-.14,0-.16-.07v0h0l0,0h0l-.05,0h0l0,0a.16.16,0,0,0-.05.21.15.15,0,0,0,.2.05Z"/><path class="cls-8" d="M678.19,401.64a.66.66,0,0,0,0,.15.36.36,0,0,0,0,.11.14.14,0,0,0,.16.11.14.14,0,0,0,.13-.15s0,0,0-.06v0a.83.83,0,0,1,0-.15v0s0,0,0,0l0,0s0,0,0,0l0,0h0l0,0h0l.05,0,0,0,.06.06,0,0s0,.08.07.13l0,0a2.33,2.33,0,0,1,.07.25.15.15,0,1,0,.29-.08,1,1,0,0,0-.15-.4.41.41,0,0,0-.22-.17.23.23,0,0,0-.29.12.79.79,0,0,0-.08.3l.3,0a0,0,0,0,1,0,0v0a.43.43,0,0,1,0-.05v0h0a.14.14,0,0,0,0-.11.16.16,0,0,0-.07-.09.17.17,0,0,0-.12,0,.2.2,0,0,0-.09.07Z"/><path class="cls-8" d="M678.78,401.38a.7.7,0,0,0,0,.43.13.13,0,0,0,.07.09.15.15,0,0,0,.11,0,.22.22,0,0,0,.09-.07.17.17,0,0,0,0-.12.65.65,0,0,1,0-.13v0a.43.43,0,0,1,0-.16v0a.13.13,0,0,0,0-.06.14.14,0,0,0,0-.11.11.11,0,0,0-.09-.07.17.17,0,0,0-.12,0,.11.11,0,0,0-.06.09Z"/><path class="cls-8" d="M678.67,401.65l.42.14a.15.15,0,0,0,.18-.1.16.16,0,0,0-.11-.19l-.42-.14a.15.15,0,0,0-.18.1.16.16,0,0,0,.11.19Z"/><path class="cls-8" d="M677.52,402.77l0,.05s.05.06.09.07h.1a.16.16,0,0,0,.09-.18l0-.12v0a.89.89,0,0,1,0-.23v0a.43.43,0,0,0,0-.05v0s0,0,0,0l0,0h0l0,0h.05l.14,0h0l0,0h0l0,0h0v0h0v0h0v0h0v0h0l0,0h0l0,0-.09.05,0,0-.12,0a.13.13,0,0,0-.09.07.15.15,0,0,0,0,.11.16.16,0,0,0,.07.09.16.16,0,0,0,.12,0,.6.6,0,0,0,.28-.13.18.18,0,0,0,0-.26.29.29,0,0,0-.16-.07.66.66,0,0,0-.28,0,.26.26,0,0,0-.15.12.58.58,0,0,0,0,.18,1.32,1.32,0,0,0,0,.34l.27-.12,0-.05a.13.13,0,0,0-.09-.07.14.14,0,0,0-.11,0,.13.13,0,0,0-.07.09.16.16,0,0,0,0,.12Z"/><path class="cls-8" d="M678.31,402.33a.37.37,0,0,0-.07.16.5.5,0,0,0,0,.21.41.41,0,0,0,0,.09.26.26,0,0,0,.12,0,.21.21,0,0,0,.15-.07l0-.07.06-.06,0,0h-.1l0,0,.06.06.07.08a.15.15,0,0,0,.21,0,.16.16,0,0,0,0-.22l-.09-.09a.23.23,0,0,0-.17-.1.22.22,0,0,0-.14.05s0,0,0,0l0,0a.1.1,0,0,1,0,.05l0,0h0l0,0h.06l0,0h0l0,0h0l0,0h0v0s0,0,0-.06v0a.17.17,0,0,1,0-.07v0a.14.14,0,0,1,0-.07l0,0a.21.21,0,0,1,0-.06.14.14,0,0,0,0-.11.13.13,0,0,0-.07-.09.14.14,0,0,0-.11,0l0,0-.05.05Z"/><path class="cls-8" d="M679,402.28a.35.35,0,0,0,0,.2l0,.1.07.09,0,0a.05.05,0,0,1,0,0v-.09h0l0,0h0l0,0h.08a.17.17,0,0,0-.12,0,.16.16,0,0,0-.07.09.15.15,0,0,0,.11.18.18.18,0,0,0,.18,0,.21.21,0,0,0,.07-.15.33.33,0,0,0,0-.14l-.08-.09,0,0a.25.25,0,0,1,0-.07v0a.24.24,0,0,1,0-.09v0a.21.21,0,0,0,0-.11.12.12,0,0,0-.11,0,.15.15,0,0,0-.11,0,.18.18,0,0,0,0,.11Z"/><path class="cls-8" d="M679.55,402.27a.31.31,0,0,0,0,.21l.11.13,0,0,0,.05,0,0a0,0,0,0,1,0,0v0s0,0,0,0v0a0,0,0,0,1,0,0l0,0v0l0,0,0,0,0,0-.05,0,0,0-.08,0a.15.15,0,0,0-.1.19.14.14,0,0,0,.18.1.36.36,0,0,0,.17-.07.26.26,0,0,0,.11-.21.37.37,0,0,0-.09-.19l-.08-.09,0,0,0,0,0,0a0,0,0,0,1,0,0v.06h0a.17.17,0,0,0,0-.12.2.2,0,0,0-.09-.07.15.15,0,0,0-.19.11Z"/><path class="cls-8" d="M670.74,398.7a.6.6,0,0,1,.1.39.16.16,0,0,0,.11.15c.06,0,.15,0,.17-.07a.49.49,0,0,1,.21-.24l-.22-.09a2.54,2.54,0,0,1,0,.91c0,.08.08.15.15.15a.15.15,0,0,0,.15-.15,2.55,2.55,0,0,0-.05-1,.15.15,0,0,0-.22-.08.71.71,0,0,0-.32.34l.28.07a.93.93,0,0,0-.14-.54.15.15,0,0,0-.2-.06.16.16,0,0,0-.06.21Z"/><path class="cls-8" d="M671.33,399l.71.12a.16.16,0,0,0,.19-.11c0-.07,0-.17-.11-.18l-.71-.12a.15.15,0,0,0-.18.11.14.14,0,0,0,.1.18Z"/><path class="cls-8" d="M672.05,399l.33,1.25a.15.15,0,0,0,.29-.08l-.33-1.25a.15.15,0,0,0-.29.08Z"/><path class="cls-8" d="M670.48,400l.09-.18c0-.05.06-.11.08-.17s0,0,0,0l-.14,0s0,0,0,0v0l0,.09.11.17a.15.15,0,0,0,.27,0v0s0,0,0,0h0s0,0,0,0l0,0h0l-.22-.17a1,1,0,0,0,.06.7.15.15,0,0,0,.2.05.15.15,0,0,0,.06-.2s0,0,0,0v0a.64.64,0,0,0,0-.07s0-.05,0-.07v0a.06.06,0,0,1,0,0v-.14s0,0,0,0,0,0,0,0,0-.05,0-.07a.15.15,0,0,0-.22-.17.49.49,0,0,0-.21.26l.28,0-.14-.22a.28.28,0,0,0-.08-.11.19.19,0,0,0-.19-.05c-.1,0-.13.13-.17.21l-.12.23a.15.15,0,1,0,.26.16Z"/><path class="cls-8" d="M671.3,399.22a1.2,1.2,0,0,0-.06.62.13.13,0,0,0,.07.09.16.16,0,0,0,.12,0,.2.2,0,0,0,.09-.07.16.16,0,0,0,0-.12v0a1.22,1.22,0,0,1,0-.27v0a1.05,1.05,0,0,1,.06-.24.15.15,0,0,0,0-.11.13.13,0,0,0-.09-.07.14.14,0,0,0-.11,0,.18.18,0,0,0-.07.09Z"/><path class="cls-8" d="M671.75,399.4l-.22,1a.14.14,0,0,0,.1.18.15.15,0,0,0,.19-.1l.22-1a.14.14,0,0,0-.1-.18.15.15,0,0,0-.19.1Z"/><path class="cls-8" d="M671.2,399.75a8.34,8.34,0,0,0-.26.85.17.17,0,0,0,.11.19.16.16,0,0,0,.18-.11,7.63,7.63,0,0,1,.26-.85.15.15,0,0,0-.1-.19.16.16,0,0,0-.19.11Z"/><path class="cls-8" d="M672,400.11a.81.81,0,0,0,0,.41.2.2,0,0,0,.07.09.16.16,0,0,0,.12,0,.15.15,0,0,0,.09-.07.14.14,0,0,0,0-.11v0a.43.43,0,0,1,0-.16v0a.65.65,0,0,1,0-.13.15.15,0,0,0,0-.11.16.16,0,0,0-.09-.07.14.14,0,0,0-.11,0,.15.15,0,0,0-.07.09Z"/><path class="cls-8" d="M672.14,399.9a.15.15,0,0,0,0-.3.15.15,0,1,0,0,.3Z"/><path class="cls-8" d="M672.71,400a.86.86,0,0,0,.07-.72c-.07-.25-.22-.46-.3-.7a.16.16,0,0,0-.19-.11.15.15,0,0,0-.1.19c.08.22.21.42.28.64a.57.57,0,0,1,0,.54.16.16,0,0,0,.06.21.16.16,0,0,0,.2-.05Z"/><path class="cls-8" d="M670.53,400.11l.06,0h0l.07,0,0,0,0,0a.21.21,0,0,0,.11,0h.06l.05,0a.21.21,0,0,0,0-.11.15.15,0,0,0,0-.11l-.07-.05,0,0-.12-.05h-.06l-.06,0,0,0s0,0,0,.05a.11.11,0,0,0,0,.11.16.16,0,0,0,.09.07Z"/><path class="cls-8" d="M670.54,400a.15.15,0,0,0,0-.3.15.15,0,0,0,0,.3Z"/><path class="cls-8" d="M672.72,399.62a5.39,5.39,0,0,0-.22-.68.71.71,0,0,0-.42-.46,1.65,1.65,0,0,0-.32-.06l-.34,0a.47.47,0,0,0-.49.19c-.07.14.12.31.24.18.28-.32.75-.17,1.09-.06a.15.15,0,0,0,.08-.29c-.45-.14-1-.27-1.38.14l.23.18s0,0,.09,0a.81.81,0,0,1,.22,0,1.89,1.89,0,0,1,.52.09.5.5,0,0,1,.23.36,5.22,5.22,0,0,1,.18.56.15.15,0,0,0,.29-.08Z"/><path class="cls-8" d="M670.23,405.16a6.17,6.17,0,0,1-.57.44.16.16,0,0,0,0,.24c.18.18.36.36.55.52a.17.17,0,0,0,.22,0,.15.15,0,0,0,0-.21,4.59,4.59,0,0,1-.55-.53l0,.24a5.91,5.91,0,0,0,.63-.49.14.14,0,0,0,0-.21.15.15,0,0,0-.21,0Z"/><path class="cls-8" d="M671.47,405.26a1,1,0,0,0-.32.15c-.11.08-.25.2-.23.36a.31.31,0,0,0,.12.18l.15.13.33.26a.15.15,0,1,0,.21-.21l-.27-.22-.25-.21h0a0,0,0,0,1,0,0v0h0l0,0,0,0s0,0,0,0l.12-.07s0,0,0,0h0l.08,0a.15.15,0,0,0,.11-.18.16.16,0,0,0-.19-.11Z"/><path class="cls-8" d="M672.64,405.41l-.35.23-.17.12a.74.74,0,0,0-.17.12.22.22,0,0,0-.05.17.27.27,0,0,0,.09.12l.16.11.33.25a.16.16,0,0,0,.21-.06.15.15,0,0,0-.06-.2l-.25-.18-.12-.09-.06-.05,0,0h0s0,0,0,.08l0,.08s0,0,0,0l0,0,.09-.06.16-.11.33-.22a.14.14,0,0,0,.05-.2.15.15,0,0,0-.2-.06Z"/><path class="cls-8" d="M673.23,406l-.09.27a.13.13,0,0,0,0,.12.16.16,0,0,0,.09.07.13.13,0,0,0,.12,0,.15.15,0,0,0,.06-.09l.1-.27a.17.17,0,0,0,0-.12.11.11,0,0,0-.09-.06.14.14,0,0,0-.11,0,.13.13,0,0,0-.07.09Z"/><path class="cls-8" d="M673.63,406l-.06.2a.16.16,0,0,0,0,.15.17.17,0,0,0,.15,0l.11-.07a.18.18,0,0,0,0-.07l.06-.1,0,0,0,0,0,0h-.06l0,0,0,0,0,0,0,0,0,0v0a0,0,0,0,1,0,0v0l0,.09a.18.18,0,0,0,0,.12.11.11,0,0,0,.09.06.14.14,0,0,0,.11,0,.13.13,0,0,0,.07-.09l0-.08a.38.38,0,0,0,0-.15s0,0,0,0,0,0,0-.05l0,0a.16.16,0,0,0-.09-.05.17.17,0,0,0-.12,0h0l0,0a.35.35,0,0,0-.1.11.33.33,0,0,1-.06.1l0,0,0,0,0,0h0l.18.18.07-.2a.15.15,0,0,0,0-.11.16.16,0,0,0-.09-.07.14.14,0,0,0-.11,0,.18.18,0,0,0-.07.09Z"/><path class="cls-8" d="M674.54,406a.23.23,0,0,0-.32.17.92.92,0,0,0,0,.16.62.62,0,0,1,0,.13v0s0,0,0,.06v0s0,0,0,.05l0,0,0,0,0,0,0,0,0,0h0a.15.15,0,0,0-.18.1.15.15,0,0,0,.1.19.28.28,0,0,0,.2,0,.37.37,0,0,0,.13-.17,1.22,1.22,0,0,0,0-.33v0l0,0,0,0h0l0,0h-.09a.15.15,0,0,0,.21,0,.18.18,0,0,0-.06-.21Z"/><path class="cls-8" d="M674.9,406.49s0,0,0,0,0,0,0,0l0,0s0,0,0,0h0l.05,0a.27.27,0,0,0,.08-.34.2.2,0,0,0-.24-.09.44.44,0,0,0-.26.26.47.47,0,0,0,0,.31.36.36,0,0,0,.15.19.24.24,0,0,0,.23,0s.07,0,.09-.07a.16.16,0,0,0,0-.12.14.14,0,0,0-.07-.08.16.16,0,0,0-.12,0h0s0,0,0,0h0s0,0,0,0l0,0h0s0,0,0,0,0,0,0-.05v0a.14.14,0,0,1,0-.09v0a.64.64,0,0,1,0-.07s0,0,0,0h0l0,0h0l0,0s0,0,0,0h-.06s0,0,0,0,0,0,0,0a0,0,0,0,0,0,0v0s0,0,0,0v0s0,0,0,0h0s0,0,0,0a.57.57,0,0,0-.14.13.16.16,0,0,0,.05.21.16.16,0,0,0,.21-.05Z"/><path class="cls-8" d="M675.17,406.21a1,1,0,0,0-.1.33.13.13,0,0,0,0,.06l0,0a.2.2,0,0,0,.09.07.17.17,0,0,0,.12,0l.07-.09s0,0,0-.05v0a.31.31,0,0,1,0-.1l0,0s0,0,0,0l0,0,0,0,0,0h0a.14.14,0,0,0,.11,0,.2.2,0,0,0,.07-.09.17.17,0,0,0,0-.12.16.16,0,0,0-.09-.07h-.14l-.05,0-.09.07a.57.57,0,0,0-.12.23l.29.08a.83.83,0,0,1,.07-.27l0,0,0,0a.09.09,0,0,0,0-.05.06.06,0,0,0,0-.06.13.13,0,0,0-.07-.09.15.15,0,0,0-.11,0,.13.13,0,0,0-.09.07Z"/><path class="cls-8" d="M675.76,406a1.17,1.17,0,0,0-.15.68.15.15,0,0,0,0,.11.12.12,0,0,0,.11,0,.15.15,0,0,0,.15-.15.76.76,0,0,1,0-.15v-.06h0s0,0,0-.07a.74.74,0,0,1,0-.14s0-.05,0,0a0,0,0,0,1,0,0l0-.08a.14.14,0,0,0-.06-.2.15.15,0,0,0-.2.05Z"/><path class="cls-8" d="M675.6,406.5l.44.13a.16.16,0,0,0,.19-.11.16.16,0,0,0-.11-.18l-.44-.12a.15.15,0,0,0-.19.1.16.16,0,0,0,.11.18Z"/><path class="cls-8" d="M676.5,406.17a1.55,1.55,0,0,0-.16.73.16.16,0,0,0,.15.15c.08,0,.16-.07.15-.15v-.22s0-.05,0-.08,0-.1,0-.15l0-.08s0,0,0,0l0-.05a.14.14,0,0,0,0-.2.14.14,0,0,0-.2.05Z"/><path class="cls-8" d="M676.34,406.55l.38.1a.16.16,0,0,0,.12,0,.2.2,0,0,0,.07-.09.16.16,0,0,0-.11-.19l-.38-.09a.14.14,0,0,0-.11,0,.11.11,0,0,0-.07.09.14.14,0,0,0,.1.18Z"/><path class="cls-8" d="M676.79,406.13a1.69,1.69,0,0,0-.17.62.15.15,0,0,0,.13.15.16.16,0,0,0,.17-.11.14.14,0,0,1,0-.06s0,0,0,0h0s0,0,0,0,0,0,0,0h0s0,0,0,0h0s0,0,0,0,0,0,0,0h-.05s0,0,0,0,0,0,0,0,0,0,0,0v.06h0a.21.21,0,0,0,0,.11.13.13,0,0,0,.07.09.14.14,0,0,0,.2,0,.55.55,0,0,0,.06-.28.26.26,0,0,0-.18-.2.27.27,0,0,0-.27.07.39.39,0,0,0-.11.21l.29,0a.15.15,0,0,0,0-.07h0s0,0,0,0a.68.68,0,0,1,0-.14.5.5,0,0,0,0-.13l0-.05h0v0l0,0a.15.15,0,0,0-.06-.2.15.15,0,0,0-.2.05Z"/><path class="cls-8" d="M677.19,406.61l0,.14a.13.13,0,0,0,0,.06.14.14,0,0,0,0,.06l0,0s0,0,0,0a.13.13,0,0,0,.12,0l0,0a.16.16,0,0,0,0-.07l0-.14a.13.13,0,0,0,0-.06.14.14,0,0,0,0-.06s0,0,0,0l0,0a.17.17,0,0,0-.12,0l0,0a.16.16,0,0,0,0,.07Z"/><path class="cls-8" d="M677.82,406.5h-.06l-.08,0,0,0,0,0,0,0s0,0,0,.05a.06.06,0,0,0,0,.06.14.14,0,0,0,0,.06l0,0,.06,0a.11.11,0,0,0,.11,0l0,0a.16.16,0,0,0,0-.07h0v0l0,0,0,0,0,0,0,0,0,0h0l.06,0a.05.05,0,0,0,0,0l0,0a.13.13,0,0,0,0-.06.15.15,0,0,0,0-.11s-.07-.05-.11,0Z"/><path class="cls-8" d="M678.24,406.64a.6.6,0,0,0,0,.47.15.15,0,0,0,.2.05l.23-.17-.22-.17a.93.93,0,0,0,0,.33.18.18,0,0,0,.08.13.16.16,0,0,0,.15,0A.81.81,0,0,0,679,407a.15.15,0,0,0-.06-.21.15.15,0,0,0-.2.05l0,0v0s0,0,0,0l-.06.07h0s0,0,0,0h0l-.08,0,.22.13V407a.7.7,0,0,1,0-.14.16.16,0,0,0,0-.16l-.07,0a.18.18,0,0,0-.1,0l-.23.17.21.06,0,0,0,0a.23.23,0,0,1,0-.11v0a.37.37,0,0,1,0-.11v0a.29.29,0,0,1,0-.09.15.15,0,0,0-.1-.19.16.16,0,0,0-.19.11Z"/><path class="cls-8" d="M679.2,406.85a.24.24,0,0,0-.08.09.36.36,0,0,0,0,.11.25.25,0,0,0,0,.12.17.17,0,0,0,0,.07.13.13,0,0,0,0,.08s.06.06.11.07a.15.15,0,0,0,.12,0,.54.54,0,0,0,.16-.26l-.25.07,0,0,0,0,0,0v0a.06.06,0,0,1,0,0v0a.12.12,0,0,0,0,.1.16.16,0,0,0,.11,0,.12.12,0,0,0,.1,0,.14.14,0,0,0,.05-.1.35.35,0,0,0-.1-.24.17.17,0,0,0-.15,0,.16.16,0,0,0-.11.1v0l0,0-.06.1,0,0,0,.06.23,0h0l0,0a.14.14,0,0,1,0-.06v0a.08.08,0,0,1,0-.07v0a.25.25,0,0,1,0-.07l0,0a.1.1,0,0,1,0-.05l0,0s0,0,0,0a.14.14,0,0,0,.05-.11.12.12,0,0,0-.05-.1.14.14,0,0,0-.1-.05h0a.1.1,0,0,0-.07,0Z"/><path class="cls-8" d="M679.83,407.06,680,407l-.18-.19c0,.12-.07.23-.11.35l0,0s0,0,0,0v0l0,.08-.09.17a.14.14,0,0,0,.06.2.15.15,0,0,0,.2-.05,2.65,2.65,0,0,0,.29-.72.15.15,0,0,0-.19-.18l-.21,0a.15.15,0,0,0-.11.18.16.16,0,0,0,.19.11Z"/><text class="cls-9" transform="translate(897.05 349.54)"><tspan class="cls-10">C</tspan><tspan x="6.43" y="0">ommu</tspan><tspan class="cls-11" x="37.39" y="0">t</tspan><tspan x="41.15" y="0">e Options:</tspan><tspan class="cls-12"><tspan x="0" y="10.8">1) ~ 1hr 12 min </tspan></tspan><tspan class="cls-13"><tspan x="6" y="19.2">1.</tspan><tspan class="cls-14" x="10.18" y="19.2"> </tspan><tspan class="cls-15" x="12.01" y="19.2">w</tspan><tspan class="cls-16" x="18.05" y="19.2">alk</tspan><tspan class="cls-14" x="28.27" y="19.2"> </tspan><tspan class="cls-17" x="30.11" y="19.2">0</tspan><tspan class="cls-18" x="34.67" y="19.2">.</tspan><tspan class="cls-14" x="36.22" y="19.2">8mi </tspan><tspan class="cls-19" x="51.83" y="19.2">t</tspan><tspan class="cls-14" x="54.54" y="19.2">o G</tspan><tspan class="cls-20" x="66.17" y="19.2">r</tspan><tspan class="cls-14" x="68.92" y="19.2">a</tspan><tspan class="cls-21" x="73.04" y="19.2">n</tspan><tspan class="cls-14" x="77.8" y="19.2">d </tspan><tspan class="cls-22" x="84.38" y="19.2">A</tspan><tspan class="cls-14" x="89.21" y="19.2">v station</tspan><tspan class="cls-23" x="6" y="27.6">2</tspan><tspan x="10.09" y="27.6">. </tspan><tspan class="cls-14" x="13.56" y="27.6">ta</tspan><tspan class="cls-24" x="20.53" y="27.6">k</tspan><tspan class="cls-25" x="24.59" y="27.6">e t</tspan><tspan class="cls-26" x="33.49" y="27.6">h</tspan><tspan class="cls-14" x="38.25" y="27.6">e </tspan><tspan class="cls-27" x="44.31" y="27.6">M</tspan><tspan class="cls-14" x="50.99" y="27.6" xml:space="preserve"> or </tspan><tspan class="cls-28" x="61.86" y="27.6">R</tspan><tspan class="cls-14" x="66.92" y="27.6"> </tspan><tspan class="cls-29" x="68.75" y="27.6">f</tspan><tspan class="cls-14" x="71.06" y="27.6">or 2 s</tspan><tspan class="cls-19" x="89.32" y="27.6">t</tspan><tspan class="cls-14" x="92.03" y="27.6">ops </tspan><tspan class="cls-30" x="106.42" y="27.6">f</tspan><tspan class="cls-31" x="109.36" y="27.6">r</tspan><tspan class="cls-14" x="112.07" y="27.6">om </tspan></tspan><tspan class="cls-32"><tspan x="6" y="36">G</tspan><tspan class="cls-33" x="11.41" y="36">r</tspan><tspan x="14.16" y="36">a</tspan><tspan class="cls-2" x="18.29" y="36">n</tspan><tspan x="23.04" y="36">d </tspan><tspan class="cls-34" x="29.62" y="36">A</tspan><tspan x="34.46" y="36">v </tspan><tspan class="cls-35" x="40.08" y="36">t</tspan><tspan x="42.79" y="36">o J</tspan><tspan class="cls-36" x="52.52" y="36">a</tspan><tspan class="cls-37" x="56.67" y="36">c</tspan><tspan class="cls-38" x="60.55" y="36">k</tspan><tspan x="64.64" y="36">son Heights</tspan></tspan><tspan class="cls-13"><tspan x="6" y="44.4">3.</tspan><tspan class="cls-14" x="11.59" y="44.4" xml:space="preserve"> t</tspan><tspan class="cls-20" x="16.27" y="44.4">r</tspan><tspan class="cls-14" x="19.01" y="44.4">ans</tspan><tspan class="cls-29" x="31.3" y="44.4">f</tspan><tspan class="cls-14" x="33.61" y="44.4">er </tspan><tspan class="cls-19" x="42.48" y="44.4">t</tspan><tspan class="cls-14" x="45.19" y="44.4">o t</tspan><tspan class="cls-21" x="54.26" y="44.4">h</tspan><tspan class="cls-14" x="59.01" y="44.4">e </tspan><tspan class="cls-39" x="65.07" y="44.4">E</tspan><tspan class="cls-14" x="69.75" y="44.4" xml:space="preserve"> t</tspan><tspan class="cls-20" x="74.43" y="44.4">r</tspan><tspan class="cls-14" x="77.17" y="44.4">ain </tspan><tspan class="cls-40" x="89.76" y="44.4">f</tspan><tspan class="cls-41" x="92.69" y="44.4">r</tspan><tspan class="cls-14" x="95.41" y="44.4">om </tspan></tspan><tspan class="cls-32"><tspan x="6" y="52.8">J</tspan><tspan class="cls-2" x="9.51" y="52.8">a</tspan><tspan class="cls-42" x="13.65" y="52.8">c</tspan><tspan class="cls-43" x="17.54" y="52.8">k</tspan><tspan x="21.63" y="52.8">son Heights </tspan><tspan class="cls-44" x="65.46" y="52.8">t</tspan><tspan x="68.17" y="52.8">o Chamber St</tspan><tspan class="cls-45" x="6" y="61.2">4</tspan><tspan x="10.77" y="61.2">. </tspan><tspan class="cls-46" x="14.08" y="61.2">w</tspan><tspan class="cls-4" x="20.13" y="61.2">alk</tspan><tspan x="30.35" y="61.2"> </tspan><tspan class="cls-47" x="32.18" y="61.2">0</tspan><tspan x="36.74" y="61.2">.5mi </tspan><tspan class="cls-44" x="53.33" y="61.2">t</tspan><tspan x="56.04" y="61.2">o s</tspan><tspan class="cls-37" x="65.68" y="61.2">c</tspan><tspan class="cls-36" x="69.57" y="61.2">h</tspan><tspan x="74.32" y="61.2">ool</tspan></tspan><tspan class="cls-12"><tspan x="0" y="72">2) ~ 1hr 9 min </tspan></tspan><tspan class="cls-13"><tspan x="6" y="80.4">1.</tspan><tspan class="cls-14" x="10.18" y="80.4"> </tspan><tspan class="cls-15" x="12.01" y="80.4">w</tspan><tspan class="cls-16" x="18.05" y="80.4">alk</tspan><tspan class="cls-14" x="28.27" y="80.4"> </tspan><tspan class="cls-17" x="30.11" y="80.4">0.</tspan><tspan class="cls-14" x="36.07" y="80.4">6mi </tspan><tspan class="cls-19" x="51.48" y="80.4">t</tspan><tspan class="cls-14" x="54.19" y="80.4">o bus s</tspan><tspan class="cls-19" x="78.55" y="80.4">t</tspan><tspan class="cls-14" x="81.26" y="80.4">op</tspan><tspan class="cls-23" x="6" y="88.8">2</tspan><tspan x="10.09" y="88.8">.</tspan><tspan class="cls-14" x="11.68" y="88.8" xml:space="preserve"> ta</tspan><tspan class="cls-24" x="20.48" y="88.8">k</tspan><tspan class="cls-25" x="24.54" y="88.8">e t</tspan><tspan class="cls-26" x="33.45" y="88.8">h</tspan><tspan class="cls-14" x="38.2" y="88.8">e </tspan><tspan class="cls-48" x="44.26" y="88.8">Q58</tspan><tspan class="cls-14" x="58.56" y="88.8" xml:space="preserve"> or </tspan><tspan class="cls-48" x="69.42" y="88.8">Q59</tspan><tspan class="cls-14" x="83.52" y="88.8"> </tspan><tspan class="cls-19" x="85.36" y="88.8">t</tspan><tspan class="cls-14" x="88.07" y="88.8">o </tspan></tspan><tspan class="cls-32"><tspan x="6" y="97.2">G</tspan><tspan class="cls-33" x="11.41" y="97.2">r</tspan><tspan x="14.16" y="97.2">a</tspan><tspan class="cls-2" x="18.29" y="97.2">n</tspan><tspan x="23.04" y="97.2">d </tspan><tspan class="cls-34" x="29.62" y="97.2">A</tspan><tspan x="34.46" y="97.2">v Station</tspan></tspan><tspan class="cls-13"><tspan x="6" y="105.6">3.</tspan><tspan class="cls-14" x="11.59" y="105.6" xml:space="preserve"> ta</tspan><tspan class="cls-24" x="20.4" y="105.6">k</tspan><tspan class="cls-25" x="24.46" y="105.6">e t</tspan><tspan class="cls-26" x="33.36" y="105.6">h</tspan><tspan class="cls-14" x="38.12" y="105.6">e </tspan><tspan class="cls-27" x="44.18" y="105.6">M</tspan><tspan class="cls-14" x="50.86" y="105.6" xml:space="preserve"> or </tspan><tspan class="cls-28" x="61.72" y="105.6">R</tspan><tspan class="cls-14" x="66.79" y="105.6"> </tspan><tspan class="cls-29" x="68.62" y="105.6">f</tspan><tspan class="cls-14" x="70.93" y="105.6">or 2 s</tspan><tspan class="cls-19" x="89.19" y="105.6">t</tspan><tspan class="cls-14" x="91.9" y="105.6">ops </tspan><tspan class="cls-30" x="106.29" y="105.6">f</tspan><tspan class="cls-31" x="109.22" y="105.6">r</tspan><tspan class="cls-14" x="111.94" y="105.6">om </tspan></tspan><tspan class="cls-32"><tspan x="6" y="114">G</tspan><tspan class="cls-33" x="11.41" y="114">r</tspan><tspan x="14.16" y="114">a</tspan><tspan class="cls-2" x="18.29" y="114">n</tspan><tspan x="23.04" y="114">d </tspan><tspan class="cls-34" x="29.62" y="114">A</tspan><tspan x="34.46" y="114">v </tspan><tspan class="cls-35" x="40.08" y="114">t</tspan><tspan x="42.79" y="114">o J</tspan><tspan class="cls-36" x="52.52" y="114">a</tspan><tspan class="cls-37" x="56.67" y="114">c</tspan><tspan class="cls-38" x="60.55" y="114">k</tspan><tspan x="64.64" y="114">son Heights</tspan></tspan><tspan class="cls-13"><tspan class="cls-45" x="6" y="122.4">4</tspan><tspan x="10.82" y="122.4">.</tspan><tspan class="cls-14" x="12.41" y="122.4" xml:space="preserve"> t</tspan><tspan class="cls-20" x="17.09" y="122.4">r</tspan><tspan class="cls-14" x="19.83" y="122.4">ans</tspan><tspan class="cls-29" x="32.12" y="122.4">f</tspan><tspan class="cls-14" x="34.43" y="122.4">er </tspan><tspan class="cls-19" x="43.3" y="122.4">t</tspan><tspan class="cls-14" x="46.01" y="122.4">o t</tspan><tspan class="cls-21" x="55.07" y="122.4">h</tspan><tspan class="cls-14" x="59.83" y="122.4">e </tspan><tspan class="cls-39" x="65.89" y="122.4">E</tspan><tspan class="cls-14" x="70.57" y="122.4" xml:space="preserve"> t</tspan><tspan class="cls-20" x="75.25" y="122.4">r</tspan><tspan class="cls-14" x="77.99" y="122.4">ain </tspan><tspan class="cls-40" x="90.58" y="122.4">f</tspan><tspan class="cls-41" x="93.51" y="122.4">r</tspan><tspan class="cls-14" x="96.23" y="122.4">om </tspan></tspan><tspan class="cls-32"><tspan x="6" y="130.8">J</tspan><tspan class="cls-2" x="9.51" y="130.8">a</tspan><tspan class="cls-42" x="13.65" y="130.8">c</tspan><tspan class="cls-43" x="17.54" y="130.8">k</tspan><tspan x="21.63" y="130.8">son Heights </tspan><tspan class="cls-44" x="65.46" y="130.8">t</tspan><tspan x="68.17" y="130.8">o Chamber St</tspan></tspan><tspan class="cls-13"><tspan x="6" y="139.2">5.</tspan><tspan class="cls-14" x="11.61" y="139.2"> </tspan><tspan class="cls-15" x="13.44" y="139.2">w</tspan><tspan class="cls-16" x="19.48" y="139.2">alk</tspan><tspan class="cls-14" x="29.7" y="139.2"> </tspan><tspan class="cls-17" x="31.54" y="139.2">0</tspan><tspan class="cls-14" x="36.09" y="139.2">.5mi </tspan><tspan class="cls-49" x="52.68" y="139.2">t</tspan><tspan class="cls-14" x="55.39" y="139.2">o s</tspan><tspan class="cls-50" x="65.04" y="139.2">c</tspan><tspan class="cls-21" x="68.92" y="139.2">h</tspan><tspan class="cls-14" x="73.67" y="139.2">ool</tspan></tspan><tspan class="cls-12"><tspan x="0" y="150">3) ~ 1hr 8 min </tspan></tspan><tspan class="cls-13"><tspan x="6" y="158.4">1.</tspan><tspan class="cls-14" x="10.18" y="158.4"> </tspan><tspan class="cls-15" x="12.01" y="158.4">w</tspan><tspan class="cls-16" x="18.05" y="158.4">alk</tspan><tspan class="cls-14" x="28.27" y="158.4"> </tspan><tspan class="cls-17" x="30.11" y="158.4">0</tspan><tspan class="cls-18" x="34.67" y="158.4">.</tspan><tspan class="cls-14" x="36.22" y="158.4">2mi </tspan><tspan class="cls-19" x="51.34" y="158.4">t</tspan><tspan class="cls-14" x="54.05" y="158.4">o bus s</tspan><tspan class="cls-19" x="78.41" y="158.4">t</tspan><tspan class="cls-14" x="81.12" y="158.4">op</tspan><tspan class="cls-23" x="6" y="166.8">2</tspan><tspan x="10.09" y="166.8">. </tspan><tspan class="cls-14" x="13.56" y="166.8">ta</tspan><tspan class="cls-24" x="20.53" y="166.8">k</tspan><tspan class="cls-25" x="24.59" y="166.8">e t</tspan><tspan class="cls-26" x="33.49" y="166.8">h</tspan><tspan class="cls-14" x="38.25" y="166.8">e </tspan><tspan class="cls-48" x="44.31" y="166.8">Q</tspan><tspan class="cls-51" x="50.18" y="166.8">4</tspan><tspan class="cls-48" x="54.46" y="166.8">7</tspan><tspan class="cls-14" x="58.58" y="166.8"> </tspan><tspan class="cls-49" x="60.42" y="166.8">t</tspan><tspan class="cls-14" x="63.13" y="166.8">o J</tspan><tspan class="cls-26" x="72.85" y="166.8">a</tspan><tspan class="cls-52" x="77" y="166.8">c</tspan><tspan class="cls-53" x="80.88" y="166.8">k</tspan><tspan class="cls-14" x="84.98" y="166.8">son </tspan></tspan><tspan class="cls-32"><tspan x="6" y="175.2">Heights </tspan><tspan class="cls-54" x="35.44" y="175.2">7</tspan><tspan class="cls-55" x="39.11" y="175.2">4</tspan><tspan x="43.74" y="175.2">th St Station</tspan></tspan><tspan class="cls-13"><tspan x="6" y="183.6">3.</tspan><tspan class="cls-14" x="11.59" y="183.6" xml:space="preserve"> ta</tspan><tspan class="cls-24" x="20.4" y="183.6">k</tspan><tspan class="cls-25" x="24.46" y="183.6">e t</tspan><tspan class="cls-26" x="33.36" y="183.6">h</tspan><tspan class="cls-14" x="38.12" y="183.6">e </tspan><tspan class="cls-39" x="44.18" y="183.6">E</tspan><tspan class="cls-14" x="48.86" y="183.6" xml:space="preserve"> t</tspan><tspan class="cls-29" x="53.54" y="183.6">r</tspan><tspan class="cls-14" x="56.28" y="183.6">ain </tspan><tspan class="cls-30" x="68.86" y="183.6">f</tspan><tspan class="cls-41" x="71.8" y="183.6">r</tspan><tspan class="cls-14" x="74.51" y="183.6">om J</tspan><tspan class="cls-21" x="91.67" y="183.6">a</tspan><tspan class="cls-50" x="95.81" y="183.6">c</tspan><tspan class="cls-56" x="99.7" y="183.6">k</tspan><tspan class="cls-14" x="103.79" y="183.6">son </tspan></tspan><tspan class="cls-32"><tspan x="6" y="192">Heights </tspan><tspan class="cls-44" x="35.44" y="192">t</tspan><tspan x="38.15" y="192">o Chamber St</tspan></tspan><tspan class="cls-13"><tspan class="cls-45" x="6" y="200.4">4</tspan><tspan x="10.82" y="200.4">.</tspan><tspan class="cls-14" x="12.41" y="200.4"> </tspan><tspan class="cls-15" x="14.25" y="200.4">w</tspan><tspan class="cls-16" x="20.29" y="200.4">alk</tspan><tspan class="cls-14" x="30.51" y="200.4"> </tspan><tspan class="cls-17" x="32.34" y="200.4">0</tspan><tspan class="cls-14" x="36.9" y="200.4">.5mi </tspan><tspan class="cls-49" x="53.49" y="200.4">t</tspan><tspan class="cls-14" x="56.2" y="200.4">o s</tspan><tspan class="cls-50" x="65.84" y="200.4">c</tspan><tspan class="cls-21" x="69.73" y="200.4">h</tspan><tspan class="cls-14" x="74.48" y="200.4">ool</tspan></tspan></text><path class="cls-57" d="M847.72,492.46l-3.47-6.6c-.84-1.61-1.58-3.74-3.3-4.61a1,1,0,0,0-1.36.36L837.87,484l1.83.24a38.91,38.91,0,0,0-2.24-5.9,5.08,5.08,0,0,0-4.06-2.77c-2.08-.38-4.22-.31-6.32-.54-1.19-.13-2.38-.32-3.56-.52a13,13,0,0,1-3.14-.6c-1-.48-.71-1.93-.69-2.81,0-1.11.08-2.23.15-3.34.13-2.22.31-4.44.36-6.66a38.49,38.49,0,0,0-.29-6.35c-.14-1-.41-2.06-.47-3.1a18.79,18.79,0,0,0-.35-3.26l-.7,1.23a20.13,20.13,0,0,1,9.47-1.26c1.28.13,1.27-1.87,0-2a21.58,21.58,0,0,0-10,1.33,1,1,0,0,0-.7,1.23,26.93,26.93,0,0,1,.32,3.35c.09,1,.36,1.91.48,2.88a39.74,39.74,0,0,1,.21,6.9c-.08,2.22-.27,4.44-.39,6.67-.09,1.72-.48,3.89.25,5.52s2.81,1.82,4.48,2.11a59.27,59.27,0,0,0,6.5.85c1.78.12,4.83-.2,6.17,1.22a9.31,9.31,0,0,1,1.42,2.94c.44,1.12.82,2.26,1.17,3.41a1,1,0,0,0,1.83.24l1.71-2.42-1.37.36a3.9,3.9,0,0,1,1.55,1.91l1.5,2.86,3,5.72c.6,1.14,2.33.13,1.73-1Z"/><path class="cls-5" d="M632.82,453.65a18.1,18.1,0,0,1,3.75.1,1,1,0,0,0,.7-.29,1,1,0,0,0,.3-.71,1,1,0,0,0-.3-.71,1.19,1.19,0,0,0-.7-.29,18.1,18.1,0,0,0-3.75-.1,1,1,0,0,0-1,1,1,1,0,0,0,1,1Z"/><path class="cls-5" d="M632.06,452.63l-.2,3.73a10.89,10.89,0,0,0,.07,3.42,3.33,3.33,0,0,0,4.83,2,1,1,0,0,0-1-1.73,1.34,1.34,0,0,1-1.3,0,1,1,0,0,1-.47-.48,2.3,2.3,0,0,1-.21-1c0-.93.07-1.87.12-2.79l.17-3.15a1,1,0,0,0-2,0Z"/><path class="cls-5" d="M633.8,457.17h2.56a1,1,0,0,0,0-2H633.8a1,1,0,0,0,0,2Z"/><path class="cls-57" d="M825.12,467.34c-.08,0-.1,0,0,0l.16.06.3.14.6.3c.41.21.81.44,1.2.68s.75.49,1.11.75l.27.2c.12.09-.12-.1,0,0l.13.1.54.46a1,1,0,1,0,1.42-1.42,19.29,19.29,0,0,0-5.19-3.2,1,1,0,0,0-.77.1,1.07,1.07,0,0,0-.46.6,1,1,0,0,0,.7,1.23Z"/><path class="cls-57" d="M831.52,462v1.81c0,.59,0,1.19,0,1.78a1.42,1.42,0,0,0,.64,1.24,1.72,1.72,0,0,0,1.07.17l1.83-.18a1.11,1.11,0,0,0,.71-.3,1,1,0,0,0-.71-1.7l-1.55.15-.36,0H833c-.14,0,0,0,.09,0a.54.54,0,0,1,.37.32.28.28,0,0,1,.1.22c0,.09,0,.1,0,0V462a1,1,0,0,0-2,0Z"/><path class="cls-57" d="M834.56,462.32a37,37,0,0,0,.46,8.07,1,1,0,0,0,1.23.69,1,1,0,0,0,.7-1.23,34.48,34.48,0,0,1-.39-7.53,1,1,0,1,0-2,0Z"/><path class="cls-57" d="M838.4,462.68h2.93c.18,0,.15,0-.07,0l-.36-.36c0-.25,0-.28,0-.1,0,0,0,0,0,.08a4,4,0,0,1-.07.46c0,.33-.1.66-.16,1-.11.64-.23,1.27-.37,1.9-.26,1.29-.57,2.57-.91,3.85a1,1,0,0,0,1.93.53c.56-2.1,1-4.22,1.38-6.36a9.16,9.16,0,0,0,.22-1.56,1.37,1.37,0,0,0-1.17-1.37,10.66,10.66,0,0,0-1.6-.05H838.4a1,1,0,0,0,0,2Z"/><path class="cls-57" d="M826.15,461.33a6.28,6.28,0,0,0-2.59.25,3.28,3.28,0,0,0-2,2.12,6.3,6.3,0,0,0,.93,5.27,5.63,5.63,0,0,0,2,1.91,2.35,2.35,0,0,0,2.81-.64,8,8,0,0,0,2.17-5.3,4.1,4.1,0,0,0-3.67-4,1,1,0,0,0,0,2,2.62,2.62,0,0,1,.5.13,1.65,1.65,0,0,1,.58.47,2.59,2.59,0,0,1,.57,1.23,5.52,5.52,0,0,1-1.19,3.58,4,4,0,0,1-.5.64.6.6,0,0,1-.23.17s0,0-.09,0a3,3,0,0,1-1.18-1.05,4.65,4.65,0,0,1-.92-3.33,1.48,1.48,0,0,1,.83-1.27,4.78,4.78,0,0,1,1.94-.13,1,1,0,0,0,0-2Z"/></svg>