<svg id="_16._1_bard_commute" data-name="16. (1) bard commute" xmlns="http://www.w3.org/2000/svg" viewBox="0 0 1357.03 1080"><defs><style>.cls-1{font-size:5px;}.cls-1,.cls-5{fill:#c1272d;}.cls-1,.cls-15,.cls-16,.cls-17,.cls-18,.cls-19,.cls-20,.cls-21,.cls-22,.cls-23,.cls-24,.cls-25,.cls-33,.cls-34,.cls-35,.cls-36,.cls-37{font-family:Montserrat-Regular, Montserrat;}.cls-2,.cls-37{letter-spacing:0em;}.cls-3,.cls-35{fill:#a67c52;}.cls-16,.cls-17,.cls-4{fill:gray;}.cls-6{letter-spacing:-0.01em;}.cls-7{fill:#fff;}.cls-8{fill:#8cca3e;}.cls-9{font-size:9px;font-family:Montserrat-Bold, Montserrat;font-weight:700;}.cls-10{letter-spacing:-0.02em;}.cls-11{letter-spacing:-0.02em;}.cls-12,.cls-14{font-family:Montserrat-Medium, Montserrat;font-weight:500;}.cls-13{letter-spacing:0em;}.cls-14,.cls-25{font-size:7px;}.cls-15,.cls-16,.cls-17,.cls-18,.cls-19,.cls-20,.cls-21,.cls-22,.cls-23,.cls-24,.cls-25,.cls-33,.cls-34,.cls-35,.cls-36,.cls-37{font-weight:400;}.cls-16{letter-spacing:-0.02em;}.cls-18{letter-spacing:-0.01em;}.cls-19{letter-spacing:0.01em;}.cls-20{letter-spacing:0.08em;}.cls-21{letter-spacing:-0.01em;}.cls-22{letter-spacing:-0.01em;}.cls-23,.cls-26{letter-spacing:-0.02em;}.cls-24{letter-spacing:0em;}.cls-27{letter-spacing:0em;}.cls-28{letter-spacing:0.01em;}.cls-29{letter-spacing:-0.01em;}.cls-30{letter-spacing:-0.01em;}.cls-31{letter-spacing:-0.03em;}.cls-32{letter-spacing:0.01em;}.cls-33{letter-spacing:-0.02em;}.cls-34{letter-spacing:0em;}.cls-36{letter-spacing:0.08em;}</style></defs><text class="cls-1" transform="translate(852.31 499.75)"><tspan class="cls-2">h</tspan><tspan x="3.39" y="0">o</tspan><tspan class="cls-2" x="6.53" y="0">m</tspan><tspan x="11.84" y="0">e</tspan></text><path class="cls-3" d="M748.15,450.89a30,30,0,0,0,8.88,2.7c3.41.57,6.83,1,10.24,1.54l21.51,3.2L810,461.49a175.63,175.63,0,0,1,20.6,3.93c7.51,2.07,14.79,4.89,22.06,7.7,1.2.47,1.72-1.47.53-1.93-6.38-2.47-12.76-4.94-19.31-6.91A148.15,148.15,0,0,0,813.5,460q-21.12-3.18-42.24-6.28L759.49,452c-3.54-.53-7.12-1.14-10.33-2.8-1.15-.59-2.16,1.14-1,1.73Z"/><path class="cls-4" d="M847.29,490.24c-2.74-2.67-4.82-7.16-3.71-11a6.64,6.64,0,0,1,3.66-3.87,15.17,15.17,0,0,1,3.14-1.09c.56-.14,1.11-.26,1.67-.38.24-.05,1.09-.37,1.34-.25a1.54,1.54,0,0,0,2.05-.54,1.51,1.51,0,0,0-.54-2.05c-1.38-.64-2.72-.26-4.15.05a23.64,23.64,0,0,0-4.1,1.25,10.27,10.27,0,0,0-5.61,5.11,12,12,0,0,0-.07,8,16.09,16.09,0,0,0,4.2,6.91c1.38,1.35,3.51-.77,2.12-2.12Z"/><path class="cls-4" d="M853.89,475.28c3.86,0,3.87-6,0-6s-3.87,6,0,6Z"/><path class="cls-4" d="M848.64,495.35c3.86,0,3.87-6,0-6s-3.87,6,0,6Z"/><path class="cls-5" d="M850.05,495.93c3.86,0,3.86-6,0-6s-3.87,6,0,6Z"/><path class="cls-3" d="M825.81,457.25c-.08,0-.1,0,0,0l.16.06.3.14.6.3c.41.21.81.44,1.2.68s.75.49,1.11.75l.27.2c.12.09-.12-.1,0,0l.14.1.54.46a1,1,0,0,0,1.42-1.42,19.29,19.29,0,0,0-5.19-3.2,1,1,0,0,0-.53,1.93Z"/><path class="cls-3" d="M826.84,451.24a6.35,6.35,0,0,0-2.6.25,3.29,3.29,0,0,0-2,2.12,6.3,6.3,0,0,0,.93,5.27,5.55,5.55,0,0,0,2,1.91,2.35,2.35,0,0,0,2.81-.64,8,8,0,0,0,2.16-5.3,4.1,4.1,0,0,0-3.66-4,1,1,0,0,0,0,2,2.62,2.62,0,0,1,.5.13,1.65,1.65,0,0,1,.58.47,2.59,2.59,0,0,1,.57,1.23,5.52,5.52,0,0,1-1.19,3.58,3.59,3.59,0,0,1-.51.64.51.51,0,0,1-.22.17s0,0-.09,0a2.91,2.91,0,0,1-1.18-1,4.66,4.66,0,0,1-.93-3.33,1.51,1.51,0,0,1,.84-1.27,4.78,4.78,0,0,1,1.94-.13,1,1,0,0,0,0-2Z"/><path class="cls-3" d="M836.58,450.32a4.45,4.45,0,0,0-3.89,2.63,5.11,5.11,0,0,0,.56,5c1,1.41,2.84,2.59,4.63,2a2.79,2.79,0,0,0,1.67-3.88,3.18,3.18,0,0,0-2.74-1.3,4.9,4.9,0,0,0-2.94.86,1,1,0,0,0-.36,1.37,1,1,0,0,0,1.37.35,2.78,2.78,0,0,1,2.9-.32l.05.05c-.05-.05-.07-.15,0,0s0-.11,0,.12,0-.16,0,0a.57.57,0,0,0,0,.13c0,.19,0,.05,0,0l-.06.22a.85.85,0,0,1-.5.5,1.72,1.72,0,0,1-1.24-.19,3.28,3.28,0,0,1-1.11-1,3.52,3.52,0,0,1-.63-1.46,2.82,2.82,0,0,1,.1-1.43,2.54,2.54,0,0,1,2.16-1.66,1,1,0,0,0,0-2Z"/><path class="cls-3" d="M841.88,451.84a14.62,14.62,0,0,0-1.28,5.32,6,6,0,0,0,.25,2.54,2.24,2.24,0,0,0,2,1.41c1.67.1,2.91-1.28,3.45-2.72a10.4,10.4,0,0,0,.44-4.33,3.39,3.39,0,0,0-1.13-2.6,2.26,2.26,0,0,0-2.65-.23,1,1,0,0,0-.36,1.37A1,1,0,0,0,844,453c.1-.07,0-.09,0,0s.16,0,0,0h.07s.19.06,0,0l.13.07.13.08c-.11-.08.05.06.06.08s-.06-.12,0,.05l.09.16s.06.21.08.27a3.71,3.71,0,0,1,.08.77c0,.55,0,1.1,0,1.65a6.17,6.17,0,0,1-.23,1.43,2.53,2.53,0,0,1-.12.36.58.58,0,0,1,0,.14c0-.11,0,0,0,.06l-.18.32-.09.13c-.18.26.05,0-.07.09l-.26.27,0,0-.13.09s-.31.14-.17.09l-.2.06c-.06,0-.14,0,0,0h-.26c.12,0-.26-.11-.07,0,0,0-.11-.11,0,0s-.06-.09,0-.06-.05-.1,0-.09,0-.13,0-.15a3.66,3.66,0,0,1-.06-.72c0-.34,0-.69,0-1a11.8,11.8,0,0,1,1-4.17,1,1,0,0,0-.36-1.36,1,1,0,0,0-1.37.35Z"/><path class="cls-4" d="M747,446.69a20.42,20.42,0,0,0-7.38,2.82,1.51,1.51,0,0,0-.54,2.05,1.53,1.53,0,0,0,2.05.54,18.54,18.54,0,0,1,1.62-.91q.45-.22.9-.42c.29-.13-.23.08.1,0,.15-.06.3-.13.46-.18a19.34,19.34,0,0,1,3.58-1,1.5,1.5,0,0,0,1-1.84,1.54,1.54,0,0,0-1.84-1.05Z"/><path class="cls-4" d="M748.05,451.51c3.86,0,3.86-6,0-6s-3.87,6,0,6Z"/><path class="cls-4" d="M738.05,454.51c3.86,0,3.86-6,0-6s-3.87,6,0,6Z"/><path class="cls-5" d="M738.23,455c3.86,0,3.87-6,0-6s-3.87,6,0,6Z"/><text class="cls-1" transform="translate(726.64 459.34)">s<tspan class="cls-6" x="2.45" y="0">c</tspan><tspan class="cls-2" x="5.22" y="0">h</tspan><tspan x="8.61" y="0">ool</tspan></text><path class="cls-5" d="M776,416.46a3.47,3.47,0,0,1,1.87,3.22c-.1,1.42-1.46,3.28-3,2.8-1.25-.39-1.86-2.29-2-3.5-.22-2.14,2-2,3.58-2.24,1.14-.15.66-1.89-.48-1.73-2.5.34-5.15.66-4.92,3.85.14,2,1.32,5.26,3.61,5.59s4.27-1.68,4.82-3.66a5.22,5.22,0,0,0-2.58-5.88.9.9,0,0,0-.91,1.55Z"/><path class="cls-5" d="M772.55,416.49c-1.61-.16-2.24,1.16-2.41,2.55s-.32,2.89-.59,4.33c-.2,1.07-.41,4.06-2.18,2.3a.9.9,0,0,0-1.28,1.27c6.24,6.21,4.69-8.82,6.46-8.65,1.15.11,1.15-1.69,0-1.8Z"/><path class="cls-5" d="M774,424.55a58.81,58.81,0,0,1-1.76,9c-.46,1.63-1.39,3.47-1.31,5.22a7.59,7.59,0,0,0,1,2.95c1.83,3.71,3.91,5.63,2.12,10.26-.42,1.08,1.32,1.55,1.73.48,1.79-4.62.86-6.15-1.38-10.13-2.8-5,.7-12.31,1.37-17.81.13-1.15-1.67-1.14-1.8,0Z"/><path class="cls-5" d="M770.37,439.5l-.22,3.23c-.09,1.35-.52,1.59-1.61,2.31a23.18,23.18,0,0,0-4,3.34c-.8.83.47,2.11,1.28,1.27a22.3,22.3,0,0,1,3.11-2.71,12.32,12.32,0,0,0,2.38-1.62c1.18-1.36.75-4.15.86-5.82.08-1.16-1.72-1.16-1.8,0Z"/><path class="cls-5" d="M774.55,431.18A42.8,42.8,0,0,1,780,432.6a1.44,1.44,0,0,1,.74.38c.21.28.16,1.13.2,1.46l.46,3.23c.16,1.15,1.9.66,1.74-.47-.2-1.37-.38-2.75-.58-4.11-.12-.75-.19-1.35-.87-1.78a12.06,12.06,0,0,0-3-1c-1.21-.34-2.44-.62-3.67-.86s-1.62,1.51-.48,1.74Z"/><path class="cls-5" d="M774.08,431.43c.41,2.24.74,4.81,1.91,6.82.91,1.57,2.61,1.72,4.26,1.57,1.14-.1,1.15-1.9,0-1.8a5,5,0,0,1-1.84,0c-1-.3-1.25-1.48-1.53-2.35a37.62,37.62,0,0,1-1.07-4.7c-.2-1.14-1.94-.66-1.73.48Z"/><path class="cls-7" d="M782.24,439a48,48,0,0,0,9.58-.6.72.72,0,0,1,.46,0,1,1,0,0,1,.2.2l1.55,2a4.24,4.24,0,0,1,.74,1.22,4.65,4.65,0,0,1,.15.92,18.72,18.72,0,0,1-.1,3.74l-11.59,1.5a65.73,65.73,0,0,0-1.37-8.82"/><path class="cls-7" d="M782.24,439.33a49.22,49.22,0,0,0,9.16-.53,2.89,2.89,0,0,1,.5-.08c.3,0,.38.16.56.39l.69.91a11.3,11.3,0,0,1,1.2,1.64,5.79,5.79,0,0,1,.32,2.52,21,21,0,0,1-.15,2.37l.3-.3-11.59,1.5.3.3a68.6,68.6,0,0,0-1.38-8.9c-.08-.38-.66-.22-.57.15a68.26,68.26,0,0,1,1.35,8.75c0,.15.12.33.3.3l11.59-1.5a.31.31,0,0,0,.3-.3,19.35,19.35,0,0,0,.14-2.74,6,6,0,0,0-.28-2.19,8.87,8.87,0,0,0-1.31-1.91l-.77-1a1.72,1.72,0,0,0-.51-.53c-.52-.25-1.37.07-1.9.15-.94.13-1.87.22-2.81.3a51.93,51.93,0,0,1-5.44.1c-.38,0-.38.59,0,.6Z"/><path d="M783.7,446.79l10.59-.92c1.52-.14,1.54-2.54,0-2.4l-10.59.92c-1.53.13-1.54,2.54,0,2.4Z"/><path class="cls-8" d="M783.58,440.46c0-.09.11-.14.17-.19a1.31,1.31,0,0,1,.28-.2.52.52,0,0,1,.51-.08,1.29,1.29,0,0,1,.56,1c0,.35,0,.91-.37,1.05a1.77,1.77,0,0,1-1.37-.18c-.34-.18-.64.34-.3.52a2.51,2.51,0,0,0,1.57.29,1.27,1.27,0,0,0,.69-.3,1.24,1.24,0,0,0,.33-.64,2.48,2.48,0,0,0-.18-1.59,1.3,1.3,0,0,0-1.09-.82,1.28,1.28,0,0,0-.79.29c-.23.16-.53.36-.58.66a.3.3,0,1,0,.57.16Z"/><path class="cls-8" d="M785.24,442.07a2.28,2.28,0,0,0,.12,1.34.15.15,0,0,0,.18.1.15.15,0,0,0,.11-.18,2,2,0,0,1-.12-1.18.17.17,0,0,0-.11-.19.15.15,0,0,0-.18.11Z"/><path class="cls-8" d="M785.3,442l.55.42c.1.07.22,0,.23-.13l.1-1.18-.29,0,.57,1.53a.15.15,0,0,0,.19.1.15.15,0,0,0,.1-.18l-.57-1.53a.15.15,0,0,0-.3,0l-.1,1.18.22-.13-.55-.42a.16.16,0,0,0-.21.05.16.16,0,0,0,.06.21Z"/><path class="cls-8" d="M786.36,441.06a.61.61,0,0,0,.51-.05.15.15,0,0,0,.06-.2.18.18,0,0,0-.21-.06l0,0,0,0a.24.24,0,0,1-.12,0h-.05l-.1,0a.13.13,0,0,0-.12,0,.2.2,0,0,0-.07.09.13.13,0,0,0,0,.12.22.22,0,0,0,.09.07Z"/><path class="cls-8" d="M786.25,440.88a1.06,1.06,0,0,0,.23.92.57.57,0,0,0,.45.23.35.35,0,0,0,.35-.34.15.15,0,1,0-.3,0s0,0,0,0h0s0,0,0,0,0,0,0,0h-.08l-.05,0,0,0-.06-.06s0,0,0,0l0,0a1.09,1.09,0,0,1-.08-.15v-.07a.19.19,0,0,1,0-.07v0s0,0,0,0a.41.41,0,0,1,0-.18s0,0,0,0a.09.09,0,0,1,0-.05.15.15,0,0,0-.11-.18.15.15,0,0,0-.18.1Z"/><path class="cls-8" d="M786.65,441.69l.43-.22a.15.15,0,0,0,0-.2.16.16,0,0,0-.2-.06l-.43.22a.16.16,0,0,0-.06.21.16.16,0,0,0,.21.05Z"/><path class="cls-8" d="M787.06,440.8a2.51,2.51,0,0,0,1-.31.16.16,0,0,0,.06-.21.16.16,0,0,0-.21,0,2.05,2.05,0,0,1-.43.18l-.23.06-.12,0h-.1a.16.16,0,0,0-.15.15.15.15,0,0,0,.15.15Z"/><path class="cls-8" d="M787.41,440.61a2.72,2.72,0,0,0,.09,1,.15.15,0,0,0,.18.1.15.15,0,0,0,.11-.18,2.28,2.28,0,0,1-.08-.9.14.14,0,0,0-.15-.15.15.15,0,0,0-.15.15Z"/><path class="cls-8" d="M787.94,440.82l0,.4a.18.18,0,0,0,0,.1.16.16,0,0,0,.11.05.22.22,0,0,0,.11-.05.18.18,0,0,0,0-.1l0-.4a.14.14,0,0,0,0-.1.12.12,0,0,0-.1-.05.22.22,0,0,0-.11.05.13.13,0,0,0,0,.1Z"/><path class="cls-8" d="M788.26,440.82l.08-.05s0,0,0,0h0s0,0,0,0h0s0,0,0,0h0s0,0,0,0v0s0,0,0,0,0,0,0,0v0s0,0,0,0h0s0,0,0,0h-.09l-.09,0a.16.16,0,0,0-.11.13.16.16,0,0,0,.07.15l.1.06,0,0s0,0,0,0h0l.18.15a.15.15,0,1,0,.21-.21,3,3,0,0,0-.4-.31l0,.27a.8.8,0,0,0,.26-.09.3.3,0,0,0,.13-.32.28.28,0,0,0-.26-.2.52.52,0,0,0-.29.09.16.16,0,0,0-.05.21.16.16,0,0,0,.21.05Z"/><path class="cls-8" d="M788.63,440.42a.53.53,0,0,0,0,.39.29.29,0,0,0,.35.13.34.34,0,0,0,.16-.1.4.4,0,0,0,.1-.18l0-.14a.22.22,0,0,0,0-.14.24.24,0,0,0-.06-.11.52.52,0,0,0-.2-.09.68.68,0,0,0-.2,0,.19.19,0,0,0-.11,0,.1.1,0,0,0,0,.1.15.15,0,0,0,0,.11.12.12,0,0,0,.11,0h.08l.12,0h0l0,0,0,0,0,0,0,0v0a1.16,1.16,0,0,1,0,.18l0,0a.56.56,0,0,1,0,.08l0,0,0,0,0,0-.05,0h0a0,0,0,0,1,0,0h0l0,0,0,0,0,0,0,0,0,0a.64.64,0,0,1,0-.07v0a.33.33,0,0,1,0-.1v0s0-.05,0-.08a.14.14,0,0,0,0-.11.13.13,0,0,0-.09-.07.15.15,0,0,0-.18.1Z"/><path class="cls-8" d="M789.28,440a1.11,1.11,0,0,0,0,.6.53.53,0,0,0,.19.25.32.32,0,0,0,.36,0,.16.16,0,0,0,0-.22.15.15,0,0,0-.21,0h0s0,0,0,0h0s0,0,0,0h0s0,0,0,0l0,0h0l0,0v0h0s0,0,0-.05,0,0,0-.05v0h0v0s0,0,0-.06,0-.07,0-.1v-.05h0v0a.16.16,0,0,0-.11-.19c-.07,0-.17,0-.18.11Z"/><path class="cls-8" d="M790.11,440.54c0-.22,0-.44,0-.66l-.26.11a1.36,1.36,0,0,1,.24.24s0,0,0,0l0,0,0,.07.09.15a.15.15,0,0,0,.2.05.16.16,0,0,0,.06-.2,1.67,1.67,0,0,0-.46-.56.16.16,0,0,0-.16,0,.15.15,0,0,0-.09.14c0,.22,0,.44-.05.66a.14.14,0,0,0,.15.15.15.15,0,0,0,.15-.15Z"/><path class="cls-8" d="M790.14,440.53a.11.11,0,0,0,.08,0l.11,0s0,0,0,0l0,0a.09.09,0,0,0,0-.05.06.06,0,0,0,0-.06.11.11,0,0,0-.07-.09.15.15,0,0,0-.11,0l-.07,0h0l-.06,0a.05.05,0,0,0,0,0,.1.1,0,0,0,0,.05.43.43,0,0,0,0,.05.16.16,0,0,0,0,.11l0,0a.08.08,0,0,0,.07,0Z"/><path class="cls-8" d="M790.37,439.83a2,2,0,0,0,.1.6.16.16,0,0,0,.19.1.14.14,0,0,0,.1-.18,2.68,2.68,0,0,1-.07-.27v0s0,0,0,0a.13.13,0,0,1,0-.06.76.76,0,0,1,0-.15.15.15,0,0,0-.3,0Z"/><path class="cls-8" d="M790.63,440l0,0h.16s0,0,0,0h0s0,0,0,0v0s0,0,0,0,0,0,0,0l0,0s0,0,0,0l-.19.12a.15.15,0,0,0,0,.26l.29.17.13.1s0,0,0,0l0,0,.07.06a.15.15,0,0,0,.21,0,.16.16,0,0,0,0-.22,3.06,3.06,0,0,0-.59-.4v.26a1.17,1.17,0,0,0,.26-.17.23.23,0,0,0,0-.35.42.42,0,0,0-.29-.09.56.56,0,0,0-.28.1.15.15,0,0,0-.06.2.15.15,0,0,0,.21.06Z"/><path class="cls-8" d="M791.35,439.77a3.14,3.14,0,0,0,0,.81.16.16,0,0,0,.15.15.15.15,0,0,0,.15-.15,3.14,3.14,0,0,1,0-.81c0-.07-.08-.15-.15-.15a.16.16,0,0,0-.15.15Z"/><path class="cls-8" d="M791.58,440h0s0,0,0,0h0l0,0h0l0,0h0v0s0,0,0,0,0,0,0,0h0s0,.05,0,.07v.05h0s0,.05,0,.07v.06h0s0,0,0,0l0,0h0l0,0-.05,0a.31.31,0,0,0-.08.15.15.15,0,0,0,.1.19.17.17,0,0,0,.19-.11v0h0l0,0h0a.64.64,0,0,0,.15-.13.75.75,0,0,0,.1-.38.49.49,0,0,0-.14-.38.37.37,0,0,0-.37-.11.15.15,0,0,0-.11.18.15.15,0,0,0,.19.1Z"/><path class="cls-8" d="M787.41,442.88c.24-.63,1-.93,1.57-1.17a10,10,0,0,1,2.21-.64l-.12-.28a19.19,19.19,0,0,0-2.52,1.46.15.15,0,0,0,.08.28,1.77,1.77,0,0,0,.74-.19l.39-.16c.06,0,.29-.16.36-.11l-.07-.09v0c.07.18.37.1.29-.08s-.42-.14-.64-.05a2.86,2.86,0,0,1-1.08.35l.07.28a19.19,19.19,0,0,1,2.52-1.46c.17-.08,0-.3-.11-.27a10.91,10.91,0,0,0-2.44.74,2.55,2.55,0,0,0-1.55,1.28c-.07.18.22.26.29.08Z"/><path class="cls-8" d="M789.53,442.47a.25.25,0,0,0-.22,0,.34.34,0,0,0-.13.2.36.36,0,0,0,0,.11.24.24,0,0,0,.06.15.17.17,0,0,0,.1.06l0,0,0,0h0l0,0v0l0,0h0l0,0v0l0,0,0,0,0,0-.06,0,0,0h0a.13.13,0,0,0-.09.07.15.15,0,0,0,0,.11.16.16,0,0,0,.07.09.16.16,0,0,0,.12,0,.6.6,0,0,0,.15-.09.26.26,0,0,0,.07-.17.21.21,0,0,0-.1-.18.3.3,0,0,0-.11,0h0l0,0h0l0,0v0h0v0a.07.07,0,0,1,0-.05v0a.19.19,0,0,1,0-.08v0l0,0,0,0,0,0,0,0,0,0,0,0h0a.15.15,0,0,0,.11,0,.13.13,0,0,0,.07-.09.14.14,0,0,0,0-.11.13.13,0,0,0-.09-.07Z"/><path class="cls-8" d="M789.5,442.41a1.17,1.17,0,0,0,.32.67.18.18,0,0,0,.11.05.16.16,0,0,0,.11-.05.18.18,0,0,0,0-.1.18.18,0,0,0,0-.11l0-.06h0l0,0-.09-.13,0-.06v0s0,0,0,0v0a.24.24,0,0,1,0-.08h0a.09.09,0,0,1,0,0,.15.15,0,0,0-.15-.15.16.16,0,0,0-.15.15Z"/><path class="cls-8" d="M789.63,442.89a.8.8,0,0,0,.19-.13.58.58,0,0,0,.14-.17.15.15,0,0,0,0-.11.13.13,0,0,0-.07-.09.17.17,0,0,0-.12,0,.2.2,0,0,0-.09.07l0,.06,0,0a.52.52,0,0,1-.1.11l0,0a.57.57,0,0,1-.13.08.16.16,0,0,0-.07.09.15.15,0,0,0,0,.11.13.13,0,0,0,.09.07h0l.07,0Z"/><path class="cls-8" d="M789.8,442.45a.38.38,0,0,0,.15.22.3.3,0,0,0,.11.06.2.2,0,0,0,.22-.08.54.54,0,0,0,.07-.13.42.42,0,0,0,0-.1,1.13,1.13,0,0,0,0-.26.17.17,0,0,0,0-.11.21.21,0,0,0-.11,0,.15.15,0,0,0-.1,0,.16.16,0,0,0,0,.11.43.43,0,0,1,0,.16v0a.75.75,0,0,1-.05.16l0,0a.35.35,0,0,1-.05.08l0,0h0l0,0h.07l0,0,0,0,0,0,0,0,0-.05v0s0,0,0,0a.11.11,0,0,0-.07-.09.15.15,0,0,0-.11,0,.16.16,0,0,0-.09.07.17.17,0,0,0,0,.12Z"/><path class="cls-8" d="M790.45,441.78a.88.88,0,0,0,0,.36l.11-.18h0a.12.12,0,0,0-.08,0h-.06a.18.18,0,0,0-.09.1.43.43,0,0,0,0,.25.16.16,0,0,0,.19.11.14.14,0,0,0,.1-.18s0,0,0,0v0a.15.15,0,0,1,0-.07l-.22.09a.31.31,0,0,0,.13,0h.11a.16.16,0,0,0,.1-.19.3.3,0,0,1,0-.1v0a.54.54,0,0,1,0-.18v0h0a.16.16,0,0,0,0-.12.2.2,0,0,0-.09-.07.13.13,0,0,0-.12,0,.16.16,0,0,0-.07.09Z"/><path class="cls-8" d="M791,442a.52.52,0,0,0,.16-.33.23.23,0,0,0-.15-.22c-.1,0-.18,0-.24.12a.47.47,0,0,0-.08.31.48.48,0,0,0,.13.32.5.5,0,0,0,.34.16s.08,0,.1,0a.14.14,0,0,0,0-.21.19.19,0,0,0-.1-.05s0,0,0,0h-.08s0,0,0,0,0,0,0-.05,0,0,0,0v0l0,0s0,0,0,0a.13.13,0,0,1,0-.06s0,0,0,0h0v-.06s0,0,0,0h0a.14.14,0,0,1,0-.06s0,0,0,0,0,0,0,0h0s0,0-.15,0,0,0,0,0h0a0,0,0,0,1,0,0s0,0,0,0l0,.06h0l0,0a.14.14,0,0,0,0,.21.15.15,0,0,0,.21,0Z"/><path class="cls-8" d="M791.1,441.63a.34.34,0,0,0,0,.26.16.16,0,0,0,.19.06.16.16,0,0,0,.09-.18.09.09,0,0,1,0,0v0a.43.43,0,0,1,0-.16v0s0,0,0-.05l0,0v0s0,0,0,0,0,0,0,0l0,0h0l.06,0h0l0,.05,0,0h0a1.05,1.05,0,0,1,.12.21.15.15,0,0,0,.2.05.14.14,0,0,0,.06-.2,1,1,0,0,0-.25-.35.45.45,0,0,0-.25-.12.27.27,0,0,0-.26.18.86.86,0,0,0,0,.16.47.47,0,0,0,0,.17l.27-.11a0,0,0,0,1,0,0v0a.06.06,0,0,1,0,0v0h0a.25.25,0,0,0,0-.12.16.16,0,0,0-.09-.07c-.07,0-.17,0-.18.11Z"/><path class="cls-8" d="M791.6,441.23a.67.67,0,0,0,.13.41.16.16,0,0,0,.09.07.11.11,0,0,0,.11,0,.13.13,0,0,0,.07-.08.16.16,0,0,0,0-.12.3.3,0,0,1-.06-.11v0a.94.94,0,0,1,0-.16v0a.18.18,0,0,0-.15-.15.16.16,0,0,0-.11.05.15.15,0,0,0,0,.1Z"/><path class="cls-8" d="M791.56,441.52l.44,0a.15.15,0,0,0,.15-.15.14.14,0,0,0-.15-.15l-.44,0a.15.15,0,0,0-.15.15.16.16,0,0,0,.15.15Z"/><path class="cls-8" d="M790.73,442.89l.06,0s.06.05.1,0a.12.12,0,0,0,.09,0,.14.14,0,0,0,0-.19.42.42,0,0,1,0-.1v0a1,1,0,0,1-.06-.23v0a0,0,0,0,0,0,0v0h0s0,0,0,0h0l0,0,.08,0H791s0,0,0,0l0,0h0v0h0v0h0v0h0l0,0,0,0h0l-.1.06a.15.15,0,0,0-.07.09.17.17,0,0,0,0,.12.16.16,0,0,0,.21,0,.66.66,0,0,0,.23-.18.21.21,0,0,0,0-.12.18.18,0,0,0-.08-.15.28.28,0,0,0-.18,0,.51.51,0,0,0-.27.06.25.25,0,0,0-.11.16.31.31,0,0,0,0,.19,1.15,1.15,0,0,0,.11.31l.24-.18,0-.05a.25.25,0,0,0-.11,0,.14.14,0,0,0-.15.15.15.15,0,0,0,0,.11Z"/><path class="cls-8" d="M791.38,442.27s0,.07,0,.1v.07a.48.48,0,0,0,.07.2l.07.07a.19.19,0,0,0,.13,0,.25.25,0,0,0,.12-.11l0-.08a.25.25,0,0,1,0-.07l0,0h0l0,0h0l0,0h-.07l.08.05.08.05a.16.16,0,0,0,.21-.05.16.16,0,0,0-.06-.21l-.11-.07a.24.24,0,0,0-.2-.05.15.15,0,0,0-.11.08l0,.06s0,.08,0,.11l0,0h0l0,0h.12l0,0h0l0,0,0-.05v0s0-.05,0-.07v0s0,0,0-.06a.13.13,0,0,0,0-.12.2.2,0,0,0-.09-.07.17.17,0,0,0-.12,0l0,0a.16.16,0,0,0,0,.07Z"/><path class="cls-8" d="M792,442.05a.42.42,0,0,0,.08.18l.07.09.1.07,0,0,0,0,0,0h0l0,0v0h0v0l0,0h0l0,0h0l0,0h.05a.22.22,0,0,0-.11.05.1.1,0,0,0,0,.1.14.14,0,0,0,.15.15.18.18,0,0,0,.16-.09.23.23,0,0,0,0-.16c0-.1-.1-.14-.17-.2l0,0-.06-.06,0,0a.3.3,0,0,1,0-.08v0a.19.19,0,0,1,0-.07.13.13,0,0,0-.07-.09.15.15,0,0,0-.11,0,.13.13,0,0,0-.09.07.16.16,0,0,0,0,.12Z"/><path class="cls-8" d="M792.57,441.89a.26.26,0,0,0,.1.2,1.7,1.7,0,0,0,.14.1l0,0,0,0,0,0v0s0,0,0,0v0l0,0,0,0,0,0-.07.05a.15.15,0,0,0-.06.2.17.17,0,0,0,.21.06.54.54,0,0,0,.16-.14.25.25,0,0,0,0-.25c0-.09-.13-.13-.2-.18l0,0,0,0,0,0v0h0a.15.15,0,0,0-.15-.15.16.16,0,0,0-.15.15Z"/><path class="cls-8" d="M783.15,440.65l.08.08,0,0,0,.05a.84.84,0,0,1,.07.19.13.13,0,0,0,.14.11.14.14,0,0,0,.14-.11.49.49,0,0,1,.15-.27l-.24,0a1.78,1.78,0,0,1,.17.4l.06.22s0,.07,0,.1a.87.87,0,0,0,0,.1.14.14,0,0,0,.15.15.15.15,0,0,0,.15-.15,3,3,0,0,0-.31-1,.14.14,0,0,0-.23,0,.64.64,0,0,0-.22.4h.28a.86.86,0,0,0-.27-.48.15.15,0,1,0-.21.21Z"/><path class="cls-8" d="M783.79,440.74l.71-.06c.08,0,.16-.07.15-.15a.14.14,0,0,0-.15-.15l-.71.06c-.08,0-.16.07-.15.15a.14.14,0,0,0,.15.15Z"/><path class="cls-8" d="M784.5,440.62l.63,1.12c.09.17.35,0,.25-.15l-.62-1.12a.15.15,0,0,0-.26.15Z"/><path class="cls-8" d="M783.22,442c0-.13,0-.25.08-.37v0q0,.09-.15.06h0l.07.07.15.14a.15.15,0,0,0,.25-.11v0h0l0,0s0,0,0,0l0,0-.25-.11a1.06,1.06,0,0,0,.23.66.15.15,0,0,0,.21,0,.14.14,0,0,0,0-.21s0,0,0,0l0,0,0-.06s0,0,0-.06h0v-.05a.74.74,0,0,1,0-.14s0,0,0,0v-.1a.16.16,0,0,0-.26-.11.55.55,0,0,0-.14.31l.26-.1-.18-.17a.52.52,0,0,0-.11-.1.18.18,0,0,0-.21,0,.41.41,0,0,0-.11.26l-.05.24a.15.15,0,0,0,.1.18.15.15,0,0,0,.19-.1Z"/><path class="cls-8" d="M783.82,441a1.27,1.27,0,0,0,.1.61.2.2,0,0,0,.09.07.13.13,0,0,0,.12,0,.18.18,0,0,0,.07-.08.16.16,0,0,0,0-.12s0,0,0,0v-.05a.14.14,0,0,1,0-.07.31.31,0,0,1,0-.13v0a1.13,1.13,0,0,1,0-.26.14.14,0,0,0-.15-.15.15.15,0,0,0-.11,0,.36.36,0,0,0,0,.11Z"/><path class="cls-8" d="M784.3,441.08l.05,1.06a.15.15,0,0,0,.15.15.15.15,0,0,0,.15-.15l0-1.06a.15.15,0,0,0-.15-.15.16.16,0,0,0-.15.15Z"/><path class="cls-8" d="M783.86,441.55a6.55,6.55,0,0,0,0,.89.15.15,0,0,0,.15.15.15.15,0,0,0,.15-.15,6.55,6.55,0,0,1,0-.89.15.15,0,0,0-.3,0Z"/><path class="cls-8" d="M784.69,441.71a.8.8,0,0,0,.08.4.13.13,0,0,0,.09.07.15.15,0,0,0,.11,0,.16.16,0,0,0,.07-.09.2.2,0,0,0,0-.11l0,0,0,0a.42.42,0,0,1,0-.15v-.1a.18.18,0,0,0,0-.1.15.15,0,0,0-.22,0l0,0a.14.14,0,0,0,0,.07Z"/><path class="cls-8" d="M784.76,441.46a.15.15,0,0,0,0-.3.15.15,0,0,0,0,.3Z"/><path class="cls-8" d="M785.39,441.44a.86.86,0,0,0-.12-.73c-.14-.21-.33-.38-.46-.59a.16.16,0,0,0-.21-.05.14.14,0,0,0-.05.2c.12.2.29.35.42.54a.59.59,0,0,1,.13.55.15.15,0,0,0,.1.18.16.16,0,0,0,.19-.1Z"/><path class="cls-8" d="M783.3,442.07h0l.09,0,0,0,0,0a.17.17,0,0,0,.12,0l.05,0,0-.05a.14.14,0,0,0,0-.11.13.13,0,0,0-.07-.09l-.12-.05h-.19l0,0,0,.05a.13.13,0,0,0,0,.06.15.15,0,0,0,0,.11.21.21,0,0,0,.11,0Z"/><path class="cls-8" d="M783.25,442a.15.15,0,0,0,0-.3.15.15,0,0,0,0,.3Z"/><path class="cls-8" d="M785.29,441a5.15,5.15,0,0,0-.37-.58.71.71,0,0,0-.53-.36,1.31,1.31,0,0,0-.34,0l-.34,0a.47.47,0,0,0-.41.31.15.15,0,0,0,.28.11c.19-.38.68-.35,1-.33.2,0,.2-.29,0-.3-.47,0-1,0-1.3.48l.27.11c0-.08.2-.09.27-.1a2,2,0,0,1,.55-.05c.15,0,.24.19.32.31s.21.32.3.48a.15.15,0,0,0,.26-.15Z"/><path class="cls-8" d="M784.27,447a6.17,6.17,0,0,1-.44.57.15.15,0,0,0,0,.24,7,7,0,0,0,.66.37.16.16,0,0,0,.21-.06.15.15,0,0,0-.06-.2,5.32,5.32,0,0,1-.66-.37l0,.23a5.91,5.91,0,0,0,.49-.63.14.14,0,0,0,0-.2.16.16,0,0,0-.21,0Z"/><path class="cls-8" d="M785.5,446.82a.82.82,0,0,0-.27.22c-.09.11-.2.28-.12.42a.29.29,0,0,0,.14.13l.19.09.38.17a.16.16,0,0,0,.2-.05.16.16,0,0,0,0-.21l-.32-.14-.3-.15h0s0,0,0,0a.06.06,0,0,1,0,0h0s0,0,0,0h0a.16.16,0,0,1,0-.07l0,0s0,0,0,0l.1-.09h0l0,0,.06,0a.16.16,0,0,0,.06-.21.16.16,0,0,0-.21-.05Z"/><path class="cls-8" d="M786.67,446.67l-.28.31-.14.16a1,1,0,0,0-.13.16.18.18,0,0,0,.08.25l.21.09.39.15a.15.15,0,0,0,.18-.11.15.15,0,0,0-.1-.18l-.29-.11-.14-.06-.07,0h0a.1.1,0,0,1,0,.06v.08s0,0,0,0l0,0,.06-.07.14-.15.26-.3a.15.15,0,1,0-.21-.21Z"/><path class="cls-8" d="M787.38,447.06l0,.28a.14.14,0,0,0,.15.15.14.14,0,0,0,.1,0,.19.19,0,0,0,0-.11l0-.28a.14.14,0,0,0,0-.11.1.1,0,0,0-.1,0,.15.15,0,0,0-.11,0,.14.14,0,0,0,0,.11Z"/><path class="cls-8" d="M787.78,447v.21a.16.16,0,0,0,.08.13.16.16,0,0,0,.15,0l.08-.09a.36.36,0,0,0,0-.09l0-.11,0,0,0,0,0,0v0l0,0h-.05l0,0,0,0,0,0,0,0,0,0a.06.06,0,0,1,0,0v.06s0,.08,0,.11a.12.12,0,0,0,.11,0,.12.12,0,0,0,.1,0l0,0a.19.19,0,0,0,0-.08v-.07a.2.2,0,0,0,0-.11.19.19,0,0,0-.07-.11.17.17,0,0,0-.11-.06h-.07l-.07,0h0l0,0a.27.27,0,0,0-.07.14l0,.1v0s0,0,0,0l0,0,0,0,0,0h0l.22.13V447a.21.21,0,0,0,0-.11.15.15,0,0,0-.11,0,.12.12,0,0,0-.1,0,.16.16,0,0,0-.05.11Z"/><path class="cls-8" d="M788.66,446.78c-.15,0-.28.1-.27.25a.83.83,0,0,0,0,.15.5.5,0,0,1,0,.13v0a.08.08,0,0,1,0,0s0,0,0,0h0a.14.14,0,0,0-.15.15.15.15,0,0,0,.15.15.28.28,0,0,0,.18-.09.33.33,0,0,0,.08-.19c0-.11-.06-.21-.07-.32v0s0,0,0,0h-.11a.16.16,0,0,0,.19-.11.16.16,0,0,0-.11-.18Z"/><path class="cls-8" d="M789.13,447.14v0s0,0,0,0v0s0,0,0,0l.06-.09a.34.34,0,0,0,0-.17.24.24,0,0,0-.11-.19.21.21,0,0,0-.26,0,.45.45,0,0,0-.14.31.43.43,0,0,0,.08.29.39.39,0,0,0,.2.14.24.24,0,0,0,.23,0,.19.19,0,0,0,.07-.08.16.16,0,0,0,0-.12.16.16,0,0,0-.09-.07.11.11,0,0,0-.11,0h0l0,0h0a.05.05,0,0,1,0,0s0,0,0,0h0v0s0,0,0,0l0,0,0,0,0,0a.24.24,0,0,1,0-.08v0a.24.24,0,0,1,0-.08l0,0,0-.06h0v0h0l0,0h0l0,0h0l0,0a0,0,0,0,1,0,0v-.05l0,0s0,0,0,0l0,0a.25.25,0,0,0-.08.14.15.15,0,0,0,.1.19.18.18,0,0,0,.19-.11Z"/><path class="cls-8" d="M789.32,446.81a1.3,1.3,0,0,0,0,.34s0,0,0,.06l0,.05a.15.15,0,0,0,.1,0,.14.14,0,0,0,.15-.15v0a.35.35,0,0,1,0-.11l0,0,0-.05,0,0,0,0,0,0,0,0,0,0h0a.13.13,0,0,0,.1,0,.14.14,0,0,0,0-.11.16.16,0,0,0,0-.1.12.12,0,0,0-.1-.05l-.08,0a.26.26,0,0,0-.09.05.39.39,0,0,0-.08.1.65.65,0,0,0-.06.24h.3a1.13,1.13,0,0,1,0-.26v0a.13.13,0,0,0,0-.06.14.14,0,0,0,0-.06.11.11,0,0,0-.09-.06.17.17,0,0,0-.12,0,.11.11,0,0,0-.06.09Z"/><path class="cls-8" d="M789.85,446.5a1.19,1.19,0,0,0,0,.7.16.16,0,0,0,.19.1.14.14,0,0,0,.1-.18.83.83,0,0,1,0-.15v-.06h0v-.07a.75.75,0,0,1,0-.15v0s0,0,0-.05a.19.19,0,0,1,0-.07.16.16,0,0,0-.11-.19.16.16,0,0,0-.18.11Z"/><path class="cls-8" d="M789.81,447h.46a.15.15,0,0,0,.15-.15.16.16,0,0,0-.15-.15h-.46a.15.15,0,0,0-.15.15.16.16,0,0,0,.15.15Z"/><path class="cls-8" d="M790.59,446.44a1.43,1.43,0,0,0,0,.74.15.15,0,0,0,.18.11.16.16,0,0,0,.11-.19.83.83,0,0,1,0-.15v-.05s0,0,0,0,0-.05,0-.08v-.15a.25.25,0,0,0,0-.08s0,0,0,0v-.05a.14.14,0,0,0-.1-.18.15.15,0,0,0-.19.1Z"/><path class="cls-8" d="M790.54,446.85h.4a.15.15,0,0,0,.15-.15.16.16,0,0,0-.15-.15h-.4a.15.15,0,0,0-.15.15.16.16,0,0,0,.15.15Z"/><path class="cls-8" d="M790.86,446.33a1.72,1.72,0,0,0,0,.64.16.16,0,0,0,.17.11.16.16,0,0,0,.13-.15v0h0v0h0s0,0,0,0h0v.06h0v0a.17.17,0,0,0,0,.12.2.2,0,0,0,.09.07.18.18,0,0,0,.19-.11.5.5,0,0,0,0-.27.25.25,0,0,0-.22-.16.27.27,0,0,0-.24.12.44.44,0,0,0-.06.25l.29,0s0,0,0-.07h0v0a.66.66,0,0,1,0-.14.53.53,0,0,1,0-.13v0h0a.17.17,0,0,0,0-.07.15.15,0,0,0-.1-.19.18.18,0,0,0-.19.11Z"/><path class="cls-8" d="M791.38,446.69v.15a.13.13,0,0,0,0,.06l0,.05.05,0h.06a.12.12,0,0,0,.1,0l0,0a.24.24,0,0,0,0-.08v-.15a.13.13,0,0,0,0-.06l0-.05,0,0h-.06a.15.15,0,0,0-.11,0l0,0a.24.24,0,0,0,0,.08Z"/><path class="cls-8" d="M792,446.42a.47.47,0,0,0-.12.07l0,.05v0a0,0,0,0,0,0,0,.09.09,0,0,0,0,0,.13.13,0,0,0,0,.06l0,.05,0,0h.06a.15.15,0,0,0,.11,0l0,0a.24.24,0,0,0,0-.08h0v0a0,0,0,0,0,0,0v0s0,0,0,0l0,0,0,0,0,0h0a.15.15,0,0,0,.09-.07.09.09,0,0,0,0-.05.06.06,0,0,0,0-.06.13.13,0,0,0-.07-.09.14.14,0,0,0-.11,0Z"/><path class="cls-8" d="M792.4,446.45a.61.61,0,0,0,.16.45.15.15,0,0,0,.21,0l.18-.23-.25-.1a.75.75,0,0,0,0,.33.14.14,0,0,0,.11.1.13.13,0,0,0,.14,0,.68.68,0,0,0,.24-.36.16.16,0,0,0-.11-.19.15.15,0,0,0-.18.11s0,0,0,0,0,0,0,0,0,0,0,0l0,.08h0v0l-.07.06.25.07a.4.4,0,0,1,0-.15v0a.66.66,0,0,1,0-.14.16.16,0,0,0-.09-.14.15.15,0,0,0-.17,0l-.18.23h.21l0,0h0l0-.06s0,0,0,0v0a.2.2,0,0,1,0-.07v-.06a.15.15,0,0,0-.15-.15.16.16,0,0,0-.15.15Z"/><path class="cls-8" d="M793.38,446.41a.37.37,0,0,0,0,.11.06.06,0,0,0,0,0,.22.22,0,0,0,0,.08.5.5,0,0,0,0,.12l0,.07,0,.06a.15.15,0,0,0,.12.05.15.15,0,0,0,.11-.08.56.56,0,0,0,.1-.29l-.23.13,0,0,0,0,0,0,0,0s0,0,0,0l0,0v0a.2.2,0,0,0,.07.09.16.16,0,0,0,.12,0,.15.15,0,0,0,.09-.07.2.2,0,0,0,0-.11.29.29,0,0,0-.16-.2.14.14,0,0,0-.15,0,.12.12,0,0,0-.07.12v0l0,.11v0a.25.25,0,0,1,0,.07l.24,0h0l0,0,0,0,0,0a.14.14,0,0,1,0-.06v0a.14.14,0,0,1,0-.06l0,0,0-.05a.14.14,0,0,0,0-.11.13.13,0,0,0-.07-.09.14.14,0,0,0-.11,0l0,0a.12.12,0,0,0,0,.05Z"/><path class="cls-8" d="M794,446.46l.2-.1-.23-.13a2.17,2.17,0,0,1,0,.36s0,0,0,0v0s0,.07,0,.1a1.16,1.16,0,0,0,0,.18.14.14,0,0,0,.1.18.14.14,0,0,0,.18-.1,2.91,2.91,0,0,0,.1-.77.15.15,0,0,0-.23-.13l-.19.1a.15.15,0,1,0,.15.26Z"/><text class="cls-9" transform="translate(897.15 350.48)"><tspan class="cls-10">C</tspan><tspan x="6.43" y="0">ommu</tspan><tspan class="cls-11" x="37.39" y="0">t</tspan><tspan x="41.15" y="0">e Options:</tspan><tspan class="cls-12"><tspan x="0" y="10.8">1) ~ </tspan><tspan class="cls-13" x="16.45" y="10.8">5</tspan><tspan x="21.57" y="10.8">3min </tspan></tspan><tspan class="cls-14"><tspan x="6" y="19.2">1.</tspan><tspan class="cls-15" x="10.18" y="19.2"> </tspan><tspan class="cls-16" x="12.01" y="19.2">w</tspan><tspan class="cls-17" x="18.05" y="19.2">alk</tspan><tspan class="cls-15" x="28.27" y="19.2"> </tspan><tspan class="cls-18" x="30.11" y="19.2">0</tspan><tspan class="cls-19" x="34.67" y="19.2">.</tspan><tspan class="cls-15" x="36.22" y="19.2">2mi </tspan><tspan class="cls-20" x="51.34" y="19.2">f</tspan><tspan class="cls-21" x="54.27" y="19.2">r</tspan><tspan class="cls-15" x="56.99" y="19.2">om Ba</tspan><tspan class="cls-22" x="80.04" y="19.2">r</tspan><tspan class="cls-15" x="82.76" y="19.2">d </tspan><tspan class="cls-23" x="89.34" y="19.2">t</tspan><tspan class="cls-15" x="92.05" y="19.2">o t</tspan><tspan class="cls-24" x="101.11" y="19.2">h</tspan><tspan class="cls-15" x="105.87" y="19.2">e </tspan></tspan><tspan class="cls-25"><tspan x="6" y="27.6">in</tspan><tspan class="cls-26" x="12.62" y="27.6">t</tspan><tspan x="15.33" y="27.6">e</tspan><tspan class="cls-27" x="19.56" y="27.6">r</tspan><tspan x="22.34" y="27.6">se</tspan><tspan class="cls-28" x="29.99" y="27.6">c</tspan><tspan x="33.97" y="27.6">tion of Queens Bl</tspan><tspan class="cls-29" x="94.45" y="27.6">v</tspan><tspan x="98.14" y="27.6">d a</tspan><tspan class="cls-2" x="108.85" y="27.6">n</tspan><tspan x="113.6" y="27.6">d </tspan><tspan x="6" y="36">S</tspan><tspan class="cls-30" x="10.3" y="36">k</tspan><tspan x="14.46" y="36">illman </tspan><tspan class="cls-31" x="38.23" y="36">A</tspan><tspan x="43.07" y="36">v</tspan></tspan><tspan class="cls-14"><tspan class="cls-32" x="6" y="44.4">2</tspan><tspan x="10.09" y="44.4">.</tspan><tspan class="cls-15" x="11.68" y="44.4" xml:space="preserve"> ta</tspan><tspan class="cls-33" x="20.48" y="44.4">k</tspan><tspan class="cls-34" x="24.54" y="44.4">e t</tspan><tspan class="cls-24" x="33.45" y="44.4">h</tspan><tspan class="cls-15" x="38.2" y="44.4">e </tspan><tspan class="cls-35" x="44.26" y="44.4">Q60</tspan><tspan class="cls-15" x="59.03" y="44.4"> </tspan><tspan class="cls-36" x="60.86" y="44.4">f</tspan><tspan class="cls-21" x="63.8" y="44.4">r</tspan><tspan class="cls-15" x="66.51" y="44.4">om </tspan><tspan class="cls-37" x="80.16" y="44.4">h</tspan><tspan class="cls-15" x="84.92" y="44.4">e</tspan><tspan class="cls-21" x="89.14" y="44.4">r</tspan><tspan class="cls-15" x="91.86" y="44.4">e </tspan><tspan class="cls-23" x="97.92" y="44.4">t</tspan><tspan class="cls-15" x="100.63" y="44.4">o t</tspan><tspan class="cls-24" x="109.69" y="44.4">h</tspan><tspan class="cls-34" x="114.45" y="44.4">e </tspan></tspan><tspan class="cls-25"><tspan x="6" y="52.8">in</tspan><tspan class="cls-26" x="12.62" y="52.8">t</tspan><tspan x="15.33" y="52.8">e</tspan><tspan class="cls-27" x="19.56" y="52.8">r</tspan><tspan x="22.34" y="52.8">se</tspan><tspan class="cls-28" x="29.99" y="52.8">c</tspan><tspan x="33.97" y="52.8">tion of Queens Bl</tspan><tspan class="cls-29" x="94.45" y="52.8">v</tspan><tspan x="98.14" y="52.8">d a</tspan><tspan class="cls-2" x="108.85" y="52.8">n</tspan><tspan x="113.6" y="52.8">d </tspan><tspan x="6" y="61.2">Reeder St</tspan></tspan><tspan class="cls-14"><tspan x="6" y="69.6">3.</tspan><tspan class="cls-15" x="11.59" y="69.6"> </tspan><tspan class="cls-16" x="13.43" y="69.6">w</tspan><tspan class="cls-17" x="19.47" y="69.6">alk</tspan><tspan class="cls-15" x="29.69" y="69.6"> </tspan><tspan class="cls-18" x="31.52" y="69.6">0</tspan><tspan class="cls-19" x="36.08" y="69.6">.</tspan><tspan class="cls-15" x="37.63" y="69.6">8mi </tspan><tspan class="cls-24" x="53.24" y="69.6">h</tspan><tspan class="cls-15" x="58" y="69.6">o</tspan><tspan class="cls-37" x="62.38" y="69.6">m</tspan><tspan class="cls-15" x="69.83" y="69.6">e</tspan></tspan></text></svg>