<svg id="_16._1_bard_commute" data-name="16. (1) bard commute" xmlns="http://www.w3.org/2000/svg" viewBox="0 0 1357.03 1080"><defs><style>.cls-1{fill:#c1272d;}.cls-2{fill:#a67c52;}.cls-3{fill:gray;}.cls-4{fill:#fff;}.cls-5{fill:#8cca3e;}</style></defs><path class="cls-1" d="M854.93,497.38a1.17,1.17,0,0,1,.29.84v1.53h-.36v-1.49a.87.87,0,0,0-.2-.63.79.79,0,0,0-.59-.21.9.9,0,0,0-.67.25,1,1,0,0,0-.25.7v1.38h-.35V496h.35v1.54a1,1,0,0,1,.4-.36,1.38,1.38,0,0,1,.59-.12A1.09,1.09,0,0,1,854.93,497.38Z"/><path class="cls-1" d="M856.58,499.6a1.3,1.3,0,0,1-.48-.48,1.41,1.41,0,0,1-.17-.69,1.47,1.47,0,0,1,.17-.69,1.27,1.27,0,0,1,.48-.47,1.36,1.36,0,0,1,.69-.17,1.3,1.3,0,0,1,.68.17,1.15,1.15,0,0,1,.48.47,1.36,1.36,0,0,1,.17.69,1.31,1.31,0,0,1-.17.69,1.17,1.17,0,0,1-.48.48,1.4,1.4,0,0,1-.68.17A1.47,1.47,0,0,1,856.58,499.6Zm1.19-.27a.93.93,0,0,0,.35-.36,1.19,1.19,0,0,0,.12-.54,1.12,1.12,0,0,0-.12-.53.89.89,0,0,0-.35-.37,1.1,1.1,0,0,0-1,0,.89.89,0,0,0-.35.37,1,1,0,0,0-.13.53,1.08,1.08,0,0,0,.13.54.93.93,0,0,0,.35.36,1,1,0,0,0,1,0Z"/><path class="cls-1" d="M863.39,497.38a1.14,1.14,0,0,1,.28.84v1.53h-.36v-1.49a.91.91,0,0,0-.19-.63.75.75,0,0,0-.56-.21.85.85,0,0,0-.65.25,1,1,0,0,0-.23.7v1.38h-.36v-1.49a.91.91,0,0,0-.19-.63.74.74,0,0,0-.57-.21.83.83,0,0,0-.64.25,1,1,0,0,0-.24.7v1.38h-.35v-2.63h.34v.48a.87.87,0,0,1,.39-.37,1.2,1.2,0,0,1,.57-.13,1.11,1.11,0,0,1,.58.14.85.85,0,0,1,.36.41,1,1,0,0,1,.42-.41,1.38,1.38,0,0,1,.62-.14A1.05,1.05,0,0,1,863.39,497.38Z"/><path class="cls-1" d="M866.93,498.54h-2.2a.91.91,0,0,0,.32.66,1,1,0,0,0,.72.26,1.13,1.13,0,0,0,.45-.09.89.89,0,0,0,.35-.26l.2.23a1.06,1.06,0,0,1-.43.32,1.4,1.4,0,0,1-.58.11,1.53,1.53,0,0,1-.72-.17,1.26,1.26,0,0,1-.49-.48,1.41,1.41,0,0,1-.17-.69,1.36,1.36,0,0,1,.17-.69,1.16,1.16,0,0,1,.46-.47,1.19,1.19,0,0,1,.65-.17,1.23,1.23,0,0,1,.66.17,1.2,1.2,0,0,1,.45.47,1.41,1.41,0,0,1,.17.69Zm-1.9-.9a1,1,0,0,0-.3.64h1.87a1,1,0,0,0-.29-.64.93.93,0,0,0-.65-.24A.88.88,0,0,0,865,497.64Z"/><path class="cls-2" d="M748.15,450.89a30,30,0,0,0,8.88,2.7c3.41.57,6.83,1,10.24,1.54l21.51,3.2L810,461.49a175.63,175.63,0,0,1,20.6,3.93c7.51,2.07,14.79,4.89,22.06,7.7,1.2.47,1.72-1.47.53-1.93-6.38-2.47-12.76-4.94-19.31-6.91A148.15,148.15,0,0,0,813.5,460q-21.12-3.18-42.24-6.28L759.49,452c-3.54-.53-7.12-1.14-10.33-2.8-1.15-.59-2.16,1.14-1,1.73Z"/><path class="cls-3" d="M847.29,490.24c-2.74-2.67-4.82-7.16-3.71-11a6.64,6.64,0,0,1,3.66-3.87,15.17,15.17,0,0,1,3.14-1.09c.56-.14,1.11-.26,1.67-.38.24-.05,1.09-.37,1.34-.25a1.54,1.54,0,0,0,2.05-.54,1.51,1.51,0,0,0-.54-2.05c-1.38-.64-2.72-.26-4.15.05a23.64,23.64,0,0,0-4.1,1.25,10.27,10.27,0,0,0-5.61,5.11,12,12,0,0,0-.07,8,16.09,16.09,0,0,0,4.2,6.91c1.38,1.35,3.51-.77,2.12-2.12Z"/><path class="cls-3" d="M853.89,475.28c3.86,0,3.87-6,0-6s-3.87,6,0,6Z"/><path class="cls-3" d="M848.64,495.35c3.86,0,3.87-6,0-6s-3.87,6,0,6Z"/><path class="cls-1" d="M850.05,495.93c3.86,0,3.86-6,0-6s-3.87,6,0,6Z"/><path class="cls-2" d="M825.81,457.25c-.08,0-.1,0,0,0l.16.06.3.14.6.3c.41.21.81.44,1.2.68s.75.49,1.11.75l.27.2c.12.09-.12-.1,0,0l.14.1.54.46a1,1,0,0,0,1.42-1.42,19.29,19.29,0,0,0-5.19-3.2,1,1,0,0,0-.53,1.93Z"/><path class="cls-2" d="M826.84,451.24a6.35,6.35,0,0,0-2.6.25,3.29,3.29,0,0,0-2,2.12,6.3,6.3,0,0,0,.93,5.27,5.55,5.55,0,0,0,2,1.91,2.35,2.35,0,0,0,2.81-.64,8,8,0,0,0,2.16-5.3,4.1,4.1,0,0,0-3.66-4,1,1,0,0,0,0,2,2.62,2.62,0,0,1,.5.13,1.65,1.65,0,0,1,.58.47,2.59,2.59,0,0,1,.57,1.23,5.52,5.52,0,0,1-1.19,3.58,3.59,3.59,0,0,1-.51.64.51.51,0,0,1-.22.17s0,0-.09,0a2.91,2.91,0,0,1-1.18-1,4.66,4.66,0,0,1-.93-3.33,1.51,1.51,0,0,1,.84-1.27,4.78,4.78,0,0,1,1.94-.13,1,1,0,0,0,0-2Z"/><path class="cls-2" d="M836.58,450.32a4.45,4.45,0,0,0-3.89,2.63,5.11,5.11,0,0,0,.56,5c1,1.41,2.84,2.59,4.63,2a2.79,2.79,0,0,0,1.67-3.88,3.18,3.18,0,0,0-2.74-1.3,4.9,4.9,0,0,0-2.94.86,1,1,0,0,0-.36,1.37,1,1,0,0,0,1.37.35,2.78,2.78,0,0,1,2.9-.32l.05.05c-.05-.05-.07-.15,0,0s0-.11,0,.12,0-.16,0,0a.57.57,0,0,0,0,.13c0,.19,0,.05,0,0l-.06.22a.85.85,0,0,1-.5.5,1.72,1.72,0,0,1-1.24-.19,3.28,3.28,0,0,1-1.11-1,3.52,3.52,0,0,1-.63-1.46,2.82,2.82,0,0,1,.1-1.43,2.54,2.54,0,0,1,2.16-1.66,1,1,0,0,0,0-2Z"/><path class="cls-2" d="M841.88,451.84a14.62,14.62,0,0,0-1.28,5.32,6,6,0,0,0,.25,2.54,2.24,2.24,0,0,0,2,1.41c1.67.1,2.91-1.28,3.45-2.72a10.4,10.4,0,0,0,.44-4.33,3.39,3.39,0,0,0-1.13-2.6,2.26,2.26,0,0,0-2.65-.23,1,1,0,0,0-.36,1.37A1,1,0,0,0,844,453c.1-.07,0-.09,0,0s.16,0,0,0h.07s.19.06,0,0l.13.07.13.08c-.11-.08.05.06.06.08s-.06-.12,0,.05l.09.16s.06.21.08.27a3.71,3.71,0,0,1,.08.77c0,.55,0,1.1,0,1.65a6.17,6.17,0,0,1-.23,1.43,2.53,2.53,0,0,1-.12.36.58.58,0,0,1,0,.14c0-.11,0,0,0,.06l-.18.32-.09.13c-.18.26.05,0-.07.09l-.26.27,0,0-.13.09s-.31.14-.17.09l-.2.06c-.06,0-.14,0,0,0h-.26c.12,0-.26-.11-.07,0,0,0-.11-.11,0,0s-.06-.09,0-.06-.05-.1,0-.09,0-.13,0-.15a3.66,3.66,0,0,1-.06-.72c0-.34,0-.69,0-1a11.8,11.8,0,0,1,1-4.17,1,1,0,0,0-.36-1.36,1,1,0,0,0-1.37.35Z"/><path class="cls-3" d="M747,446.69a20.42,20.42,0,0,0-7.38,2.82,1.51,1.51,0,0,0-.54,2.05,1.53,1.53,0,0,0,2.05.54,18.54,18.54,0,0,1,1.62-.91q.45-.22.9-.42c.29-.13-.23.08.1,0,.15-.06.3-.13.46-.18a19.34,19.34,0,0,1,3.58-1,1.5,1.5,0,0,0,1-1.84,1.54,1.54,0,0,0-1.84-1.05Z"/><path class="cls-3" d="M748.05,451.51c3.86,0,3.86-6,0-6s-3.87,6,0,6Z"/><path class="cls-3" d="M738.05,454.51c3.86,0,3.86-6,0-6s-3.87,6,0,6Z"/><path class="cls-1" d="M738.23,455c3.86,0,3.87-6,0-6s-3.87,6,0,6Z"/><path class="cls-1" d="M727.23,459.27a1.16,1.16,0,0,1-.46-.23l.16-.28a1.22,1.22,0,0,0,.41.21,1.54,1.54,0,0,0,.52.09,1,1,0,0,0,.54-.12.36.36,0,0,0,.17-.31.26.26,0,0,0-.1-.23.55.55,0,0,0-.24-.13l-.38-.08-.52-.12a.78.78,0,0,1-.33-.21.61.61,0,0,1-.14-.42.66.66,0,0,1,.28-.54,1.23,1.23,0,0,1,.76-.21,1.86,1.86,0,0,1,.52.07,1.19,1.19,0,0,1,.41.18l-.15.28a1.33,1.33,0,0,0-.78-.22.92.92,0,0,0-.51.12.37.37,0,0,0-.17.31.3.3,0,0,0,.1.24.47.47,0,0,0,.24.13l.4.09a4.13,4.13,0,0,1,.5.12.72.72,0,0,1,.33.21.55.55,0,0,1,.13.4.61.61,0,0,1-.28.54,1.33,1.33,0,0,1-.8.21A1.77,1.77,0,0,1,727.23,459.27Z"/><path class="cls-1" d="M730,459.2a1.38,1.38,0,0,1-.48-.48,1.36,1.36,0,0,1-.17-.69,1.29,1.29,0,0,1,.65-1.17,1.51,1.51,0,0,1,1.31,0,1,1,0,0,1,.42.39l-.27.18a.72.72,0,0,0-.33-.29.88.88,0,0,0-.43-.1,1,1,0,0,0-.51.13.89.89,0,0,0-.36.36,1.2,1.2,0,0,0-.13.54,1.12,1.12,0,0,0,.13.53.89.89,0,0,0,.36.36,1,1,0,0,0,.51.13,1,1,0,0,0,.43-.09.78.78,0,0,0,.33-.29l.27.18a.91.91,0,0,1-.42.38,1.4,1.4,0,0,1-.61.14A1.48,1.48,0,0,1,730,459.2Z"/><path class="cls-1" d="M734.48,457a1.1,1.1,0,0,1,.29.84v1.52h-.35v-1.49a.85.85,0,0,0-.21-.62.73.73,0,0,0-.58-.22.92.92,0,0,0-.67.25,1,1,0,0,0-.25.7v1.38h-.36v-3.71h.36v1.54a1,1,0,0,1,.4-.35,1.21,1.21,0,0,1,.58-.13A1.08,1.08,0,0,1,734.48,457Z"/><path class="cls-1" d="M736.14,459.19a1.27,1.27,0,0,1-.48-.47,1.37,1.37,0,0,1-.18-.69,1.31,1.31,0,0,1,.18-.69,1.3,1.3,0,0,1,.48-.48,1.47,1.47,0,0,1,1.37,0,1.3,1.3,0,0,1,.48.48,1.41,1.41,0,0,1,.17.69,1.47,1.47,0,0,1-.17.69,1.27,1.27,0,0,1-.48.47,1.39,1.39,0,0,1-1.37,0Zm1.19-.27a.85.85,0,0,0,.34-.36,1,1,0,0,0,.13-.53,1.08,1.08,0,0,0-.13-.54.85.85,0,0,0-.34-.36,1,1,0,0,0-.51-.13,1,1,0,0,0-.5.13.87.87,0,0,0-.35.36,1.2,1.2,0,0,0-.13.54,1.12,1.12,0,0,0,.13.53.87.87,0,0,0,.35.36,1,1,0,0,0,.5.13A1,1,0,0,0,737.33,458.92Z"/><path class="cls-1" d="M739.27,459.19a1.27,1.27,0,0,1-.48-.47,1.47,1.47,0,0,1-.17-.69,1.41,1.41,0,0,1,.17-.69,1.3,1.3,0,0,1,.48-.48,1.47,1.47,0,0,1,.69-.17,1.4,1.4,0,0,1,.68.17,1.17,1.17,0,0,1,.48.48,1.31,1.31,0,0,1,.17.69,1.36,1.36,0,0,1-.17.69,1.15,1.15,0,0,1-.48.47,1.3,1.3,0,0,1-.68.18A1.37,1.37,0,0,1,739.27,459.19Zm1.19-.27a.81.81,0,0,0,.35-.36,1.12,1.12,0,0,0,.12-.53,1.19,1.19,0,0,0-.12-.54.81.81,0,0,0-.35-.36.93.93,0,0,0-.5-.13.91.91,0,0,0-.5.13.81.81,0,0,0-.35.36,1.08,1.08,0,0,0-.13.54,1,1,0,0,0,.13.53.81.81,0,0,0,.35.36.91.91,0,0,0,.5.13A.93.93,0,0,0,740.46,458.92Z"/><path class="cls-1" d="M742,455.63h.35v3.71H742Z"/><path class="cls-1" d="M776,416.46a3.47,3.47,0,0,1,1.87,3.22c-.1,1.42-1.46,3.28-3,2.8-1.25-.39-1.86-2.29-2-3.5-.22-2.14,2-2,3.58-2.24,1.14-.15.66-1.89-.48-1.73-2.5.34-5.15.66-4.92,3.85.14,2,1.32,5.26,3.61,5.59s4.27-1.68,4.82-3.66a5.22,5.22,0,0,0-2.58-5.88.9.9,0,0,0-.91,1.55Z"/><path class="cls-1" d="M772.55,416.49c-1.61-.16-2.24,1.16-2.41,2.55s-.32,2.89-.59,4.33c-.2,1.07-.41,4.06-2.18,2.3a.9.9,0,0,0-1.28,1.27c6.24,6.21,4.69-8.82,6.46-8.65,1.15.11,1.15-1.69,0-1.8Z"/><path class="cls-1" d="M774,424.55a58.81,58.81,0,0,1-1.76,9c-.46,1.63-1.39,3.47-1.31,5.22a7.59,7.59,0,0,0,1,2.95c1.83,3.71,3.91,5.63,2.12,10.26-.42,1.08,1.32,1.55,1.73.48,1.79-4.62.86-6.15-1.38-10.13-2.8-5,.7-12.31,1.37-17.81.13-1.15-1.67-1.14-1.8,0Z"/><path class="cls-1" d="M770.37,439.5l-.22,3.23c-.09,1.35-.52,1.59-1.61,2.31a23.18,23.18,0,0,0-4,3.34c-.8.83.47,2.11,1.28,1.27a22.3,22.3,0,0,1,3.11-2.71,12.32,12.32,0,0,0,2.38-1.62c1.18-1.36.75-4.15.86-5.82.08-1.16-1.72-1.16-1.8,0Z"/><path class="cls-1" d="M774.55,431.18A42.8,42.8,0,0,1,780,432.6a1.44,1.44,0,0,1,.74.38c.21.28.16,1.13.2,1.46l.46,3.23c.16,1.15,1.9.66,1.74-.47-.2-1.37-.38-2.75-.58-4.11-.12-.75-.19-1.35-.87-1.78a12.06,12.06,0,0,0-3-1c-1.21-.34-2.44-.62-3.67-.86s-1.62,1.51-.48,1.74Z"/><path class="cls-1" d="M774.08,431.43c.41,2.24.74,4.81,1.91,6.82.91,1.57,2.61,1.72,4.26,1.57,1.14-.1,1.15-1.9,0-1.8a5,5,0,0,1-1.84,0c-1-.3-1.25-1.48-1.53-2.35a37.62,37.62,0,0,1-1.07-4.7c-.2-1.14-1.94-.66-1.73.48Z"/><path class="cls-4" d="M782.24,439a48,48,0,0,0,9.58-.6.72.72,0,0,1,.46,0,1,1,0,0,1,.2.2l1.55,2a4.24,4.24,0,0,1,.74,1.22,4.65,4.65,0,0,1,.15.92,18.72,18.72,0,0,1-.1,3.74l-11.59,1.5a65.73,65.73,0,0,0-1.37-8.82"/><path class="cls-4" d="M782.24,439.33a49.22,49.22,0,0,0,9.16-.53,2.89,2.89,0,0,1,.5-.08c.3,0,.38.16.56.39l.69.91a11.3,11.3,0,0,1,1.2,1.64,5.79,5.79,0,0,1,.32,2.52,21,21,0,0,1-.15,2.37l.3-.3-11.59,1.5.3.3a68.6,68.6,0,0,0-1.38-8.9c-.08-.38-.66-.22-.57.15a68.26,68.26,0,0,1,1.35,8.75c0,.15.12.33.3.3l11.59-1.5a.31.31,0,0,0,.3-.3,19.35,19.35,0,0,0,.14-2.74,6,6,0,0,0-.28-2.19,8.87,8.87,0,0,0-1.31-1.91l-.77-1a1.72,1.72,0,0,0-.51-.53c-.52-.25-1.37.07-1.9.15-.94.13-1.87.22-2.81.3a51.93,51.93,0,0,1-5.44.1c-.38,0-.38.59,0,.6Z"/><path d="M783.7,446.79l10.59-.92c1.52-.14,1.54-2.54,0-2.4l-10.59.92c-1.53.13-1.54,2.54,0,2.4Z"/><path class="cls-5" d="M783.58,440.46c0-.09.11-.14.17-.19a1.31,1.31,0,0,1,.28-.2.52.52,0,0,1,.51-.08,1.29,1.29,0,0,1,.56,1c0,.35,0,.91-.37,1.05a1.77,1.77,0,0,1-1.37-.18c-.34-.18-.64.34-.3.52a2.51,2.51,0,0,0,1.57.29,1.27,1.27,0,0,0,.69-.3,1.24,1.24,0,0,0,.33-.64,2.48,2.48,0,0,0-.18-1.59,1.3,1.3,0,0,0-1.09-.82,1.28,1.28,0,0,0-.79.29c-.23.16-.53.36-.58.66a.3.3,0,1,0,.57.16Z"/><path class="cls-5" d="M785.24,442.07a2.28,2.28,0,0,0,.12,1.34.15.15,0,0,0,.18.1.15.15,0,0,0,.11-.18,2,2,0,0,1-.12-1.18.17.17,0,0,0-.11-.19.15.15,0,0,0-.18.11Z"/><path class="cls-5" d="M785.3,442l.55.42c.1.07.22,0,.23-.13l.1-1.18-.29,0,.57,1.53a.15.15,0,0,0,.19.1.15.15,0,0,0,.1-.18l-.57-1.53a.15.15,0,0,0-.3,0l-.1,1.18.22-.13-.55-.42a.16.16,0,0,0-.21.05.16.16,0,0,0,.06.21Z"/><path class="cls-5" d="M786.36,441.06a.61.61,0,0,0,.51-.05.15.15,0,0,0,.06-.2.18.18,0,0,0-.21-.06l0,0,0,0a.24.24,0,0,1-.12,0h-.05l-.1,0a.13.13,0,0,0-.12,0,.2.2,0,0,0-.07.09.13.13,0,0,0,0,.12.22.22,0,0,0,.09.07Z"/><path class="cls-5" d="M786.25,440.88a1.06,1.06,0,0,0,.23.92.57.57,0,0,0,.45.23.35.35,0,0,0,.35-.34.15.15,0,1,0-.3,0s0,0,0,0h0s0,0,0,0,0,0,0,0h-.08l-.05,0,0,0-.06-.06s0,0,0,0l0,0a1.09,1.09,0,0,1-.08-.15v-.07a.19.19,0,0,1,0-.07v0s0,0,0,0a.41.41,0,0,1,0-.18s0,0,0,0a.09.09,0,0,1,0-.05.15.15,0,0,0-.11-.18.15.15,0,0,0-.18.1Z"/><path class="cls-5" d="M786.65,441.69l.43-.22a.15.15,0,0,0,0-.2.16.16,0,0,0-.2-.06l-.43.22a.16.16,0,0,0-.06.21.16.16,0,0,0,.21.05Z"/><path class="cls-5" d="M787.06,440.8a2.51,2.51,0,0,0,1-.31.16.16,0,0,0,.06-.21.16.16,0,0,0-.21,0,2.05,2.05,0,0,1-.43.18l-.23.06-.12,0h-.1a.16.16,0,0,0-.15.15.15.15,0,0,0,.15.15Z"/><path class="cls-5" d="M787.41,440.61a2.72,2.72,0,0,0,.09,1,.15.15,0,0,0,.18.1.15.15,0,0,0,.11-.18,2.28,2.28,0,0,1-.08-.9.14.14,0,0,0-.15-.15.15.15,0,0,0-.15.15Z"/><path class="cls-5" d="M787.94,440.82l0,.4a.18.18,0,0,0,0,.1.16.16,0,0,0,.11.05.22.22,0,0,0,.11-.05.18.18,0,0,0,0-.1l0-.4a.14.14,0,0,0,0-.1.12.12,0,0,0-.1-.05.22.22,0,0,0-.11.05.13.13,0,0,0,0,.1Z"/><path class="cls-5" d="M788.26,440.82l.08-.05s0,0,0,0h0s0,0,0,0h0s0,0,0,0h0s0,0,0,0v0s0,0,0,0,0,0,0,0v0s0,0,0,0h0s0,0,0,0h-.09l-.09,0a.16.16,0,0,0-.11.13.16.16,0,0,0,.07.15l.1.06,0,0s0,0,0,0h0l.18.15a.15.15,0,1,0,.21-.21,3,3,0,0,0-.4-.31l0,.27a.8.8,0,0,0,.26-.09.3.3,0,0,0,.13-.32.28.28,0,0,0-.26-.2.52.52,0,0,0-.29.09.16.16,0,0,0-.05.21.16.16,0,0,0,.21.05Z"/><path class="cls-5" d="M788.63,440.42a.53.53,0,0,0,0,.39.29.29,0,0,0,.35.13.34.34,0,0,0,.16-.1.4.4,0,0,0,.1-.18l0-.14a.22.22,0,0,0,0-.14.24.24,0,0,0-.06-.11.52.52,0,0,0-.2-.09.68.68,0,0,0-.2,0,.19.19,0,0,0-.11,0,.1.1,0,0,0,0,.1.15.15,0,0,0,0,.11.12.12,0,0,0,.11,0h.08l.12,0h0l0,0,0,0,0,0,0,0v0a1.16,1.16,0,0,1,0,.18l0,0a.56.56,0,0,1,0,.08l0,0,0,0,0,0-.05,0h0a0,0,0,0,1,0,0h0l0,0,0,0,0,0,0,0,0,0a.64.64,0,0,1,0-.07v0a.33.33,0,0,1,0-.1v0s0-.05,0-.08a.14.14,0,0,0,0-.11.13.13,0,0,0-.09-.07.15.15,0,0,0-.18.1Z"/><path class="cls-5" d="M789.28,440a1.11,1.11,0,0,0,0,.6.53.53,0,0,0,.19.25.32.32,0,0,0,.36,0,.16.16,0,0,0,0-.22.15.15,0,0,0-.21,0h0s0,0,0,0h0s0,0,0,0h0s0,0,0,0l0,0h0l0,0v0h0s0,0,0-.05,0,0,0-.05v0h0v0s0,0,0-.06,0-.07,0-.1v-.05h0v0a.16.16,0,0,0-.11-.19c-.07,0-.17,0-.18.11Z"/><path class="cls-5" d="M790.11,440.54c0-.22,0-.44,0-.66l-.26.11a1.36,1.36,0,0,1,.24.24s0,0,0,0l0,0,0,.07.09.15a.15.15,0,0,0,.2.05.16.16,0,0,0,.06-.2,1.67,1.67,0,0,0-.46-.56.16.16,0,0,0-.16,0,.15.15,0,0,0-.09.14c0,.22,0,.44-.05.66a.14.14,0,0,0,.15.15.15.15,0,0,0,.15-.15Z"/><path class="cls-5" d="M790.14,440.53a.11.11,0,0,0,.08,0l.11,0s0,0,0,0l0,0a.09.09,0,0,0,0-.05.06.06,0,0,0,0-.06.11.11,0,0,0-.07-.09.15.15,0,0,0-.11,0l-.07,0h0l-.06,0a.05.05,0,0,0,0,0,.1.1,0,0,0,0,.05.43.43,0,0,0,0,.05.16.16,0,0,0,0,.11l0,0a.08.08,0,0,0,.07,0Z"/><path class="cls-5" d="M790.37,439.83a2,2,0,0,0,.1.6.16.16,0,0,0,.19.1.14.14,0,0,0,.1-.18,2.68,2.68,0,0,1-.07-.27v0s0,0,0,0a.13.13,0,0,1,0-.06.76.76,0,0,1,0-.15.15.15,0,0,0-.3,0Z"/><path class="cls-5" d="M790.63,440l0,0h.16s0,0,0,0h0s0,0,0,0v0s0,0,0,0,0,0,0,0l0,0s0,0,0,0l-.19.12a.15.15,0,0,0,0,.26l.29.17.13.1s0,0,0,0l0,0,.07.06a.15.15,0,0,0,.21,0,.16.16,0,0,0,0-.22,3.06,3.06,0,0,0-.59-.4v.26a1.17,1.17,0,0,0,.26-.17.23.23,0,0,0,0-.35.42.42,0,0,0-.29-.09.56.56,0,0,0-.28.1.15.15,0,0,0-.06.2.15.15,0,0,0,.21.06Z"/><path class="cls-5" d="M791.35,439.77a3.14,3.14,0,0,0,0,.81.16.16,0,0,0,.15.15.15.15,0,0,0,.15-.15,3.14,3.14,0,0,1,0-.81c0-.07-.08-.15-.15-.15a.16.16,0,0,0-.15.15Z"/><path class="cls-5" d="M791.58,440h0s0,0,0,0h0l0,0h0l0,0h0v0s0,0,0,0,0,0,0,0h0s0,.05,0,.07v.05h0s0,.05,0,.07v.06h0s0,0,0,0l0,0h0l0,0-.05,0a.31.31,0,0,0-.08.15.15.15,0,0,0,.1.19.17.17,0,0,0,.19-.11v0h0l0,0h0a.64.64,0,0,0,.15-.13.75.75,0,0,0,.1-.38.49.49,0,0,0-.14-.38.37.37,0,0,0-.37-.11.15.15,0,0,0-.11.18.15.15,0,0,0,.19.1Z"/><path class="cls-5" d="M787.41,442.88c.24-.63,1-.93,1.57-1.17a10,10,0,0,1,2.21-.64l-.12-.28a19.19,19.19,0,0,0-2.52,1.46.15.15,0,0,0,.08.28,1.77,1.77,0,0,0,.74-.19l.39-.16c.06,0,.29-.16.36-.11l-.07-.09v0c.07.18.37.1.29-.08s-.42-.14-.64-.05a2.86,2.86,0,0,1-1.08.35l.07.28a19.19,19.19,0,0,1,2.52-1.46c.17-.08,0-.3-.11-.27a10.91,10.91,0,0,0-2.44.74,2.55,2.55,0,0,0-1.55,1.28c-.07.18.22.26.29.08Z"/><path class="cls-5" d="M789.53,442.47a.25.25,0,0,0-.22,0,.34.34,0,0,0-.13.2.36.36,0,0,0,0,.11.24.24,0,0,0,.06.15.17.17,0,0,0,.1.06l0,0,0,0h0l0,0v0l0,0h0l0,0v0l0,0,0,0,0,0-.06,0,0,0h0a.13.13,0,0,0-.09.07.15.15,0,0,0,0,.11.16.16,0,0,0,.07.09.16.16,0,0,0,.12,0,.6.6,0,0,0,.15-.09.26.26,0,0,0,.07-.17.21.21,0,0,0-.1-.18.3.3,0,0,0-.11,0h0l0,0h0l0,0v0h0v0a.07.07,0,0,1,0-.05v0a.19.19,0,0,1,0-.08v0l0,0,0,0,0,0,0,0,0,0,0,0h0a.15.15,0,0,0,.11,0,.13.13,0,0,0,.07-.09.14.14,0,0,0,0-.11.13.13,0,0,0-.09-.07Z"/><path class="cls-5" d="M789.5,442.41a1.17,1.17,0,0,0,.32.67.18.18,0,0,0,.11.05.16.16,0,0,0,.11-.05.18.18,0,0,0,0-.1.18.18,0,0,0,0-.11l0-.06h0l0,0-.09-.13,0-.06v0s0,0,0,0v0a.24.24,0,0,1,0-.08h0a.09.09,0,0,1,0,0,.15.15,0,0,0-.15-.15.16.16,0,0,0-.15.15Z"/><path class="cls-5" d="M789.63,442.89a.8.8,0,0,0,.19-.13.58.58,0,0,0,.14-.17.15.15,0,0,0,0-.11.13.13,0,0,0-.07-.09.17.17,0,0,0-.12,0,.2.2,0,0,0-.09.07l0,.06,0,0a.52.52,0,0,1-.1.11l0,0a.57.57,0,0,1-.13.08.16.16,0,0,0-.07.09.15.15,0,0,0,0,.11.13.13,0,0,0,.09.07h0l.07,0Z"/><path class="cls-5" d="M789.8,442.45a.38.38,0,0,0,.15.22.3.3,0,0,0,.11.06.2.2,0,0,0,.22-.08.54.54,0,0,0,.07-.13.42.42,0,0,0,0-.1,1.13,1.13,0,0,0,0-.26.17.17,0,0,0,0-.11.21.21,0,0,0-.11,0,.15.15,0,0,0-.1,0,.16.16,0,0,0,0,.11.43.43,0,0,1,0,.16v0a.75.75,0,0,1-.05.16l0,0a.35.35,0,0,1-.05.08l0,0h0l0,0h.07l0,0,0,0,0,0,0,0,0-.05v0s0,0,0,0a.11.11,0,0,0-.07-.09.15.15,0,0,0-.11,0,.16.16,0,0,0-.09.07.17.17,0,0,0,0,.12Z"/><path class="cls-5" d="M790.45,441.78a.88.88,0,0,0,0,.36l.11-.18h0a.12.12,0,0,0-.08,0h-.06a.18.18,0,0,0-.09.1.43.43,0,0,0,0,.25.16.16,0,0,0,.19.11.14.14,0,0,0,.1-.18s0,0,0,0v0a.15.15,0,0,1,0-.07l-.22.09a.31.31,0,0,0,.13,0h.11a.16.16,0,0,0,.1-.19.3.3,0,0,1,0-.1v0a.54.54,0,0,1,0-.18v0h0a.16.16,0,0,0,0-.12.2.2,0,0,0-.09-.07.13.13,0,0,0-.12,0,.16.16,0,0,0-.07.09Z"/><path class="cls-5" d="M791,442a.52.52,0,0,0,.16-.33.23.23,0,0,0-.15-.22c-.1,0-.18,0-.24.12a.47.47,0,0,0-.08.31.48.48,0,0,0,.13.32.5.5,0,0,0,.34.16s.08,0,.1,0a.14.14,0,0,0,0-.21.19.19,0,0,0-.1-.05s0,0,0,0h-.08s0,0,0,0,0,0,0-.05,0,0,0,0v0l0,0s0,0,0,0a.13.13,0,0,1,0-.06s0,0,0,0h0v-.06s0,0,0,0h0a.14.14,0,0,1,0-.06s0,0,0,0,0,0,0,0h0s0,0-.15,0,0,0,0,0h0a0,0,0,0,1,0,0s0,0,0,0l0,.06h0l0,0a.14.14,0,0,0,0,.21.15.15,0,0,0,.21,0Z"/><path class="cls-5" d="M791.1,441.63a.34.34,0,0,0,0,.26.16.16,0,0,0,.19.06.16.16,0,0,0,.09-.18.09.09,0,0,1,0,0v0a.43.43,0,0,1,0-.16v0s0,0,0-.05l0,0v0s0,0,0,0,0,0,0,0l0,0h0l.06,0h0l0,.05,0,0h0a1.05,1.05,0,0,1,.12.21.15.15,0,0,0,.2.05.14.14,0,0,0,.06-.2,1,1,0,0,0-.25-.35.45.45,0,0,0-.25-.12.27.27,0,0,0-.26.18.86.86,0,0,0,0,.16.47.47,0,0,0,0,.17l.27-.11a0,0,0,0,1,0,0v0a.06.06,0,0,1,0,0v0h0a.25.25,0,0,0,0-.12.16.16,0,0,0-.09-.07c-.07,0-.17,0-.18.11Z"/><path class="cls-5" d="M791.6,441.23a.67.67,0,0,0,.13.41.16.16,0,0,0,.09.07.11.11,0,0,0,.11,0,.13.13,0,0,0,.07-.08.16.16,0,0,0,0-.12.3.3,0,0,1-.06-.11v0a.94.94,0,0,1,0-.16v0a.18.18,0,0,0-.15-.15.16.16,0,0,0-.11.05.15.15,0,0,0,0,.1Z"/><path class="cls-5" d="M791.56,441.52l.44,0a.15.15,0,0,0,.15-.15.14.14,0,0,0-.15-.15l-.44,0a.15.15,0,0,0-.15.15.16.16,0,0,0,.15.15Z"/><path class="cls-5" d="M790.73,442.89l.06,0s.06.05.1,0a.12.12,0,0,0,.09,0,.14.14,0,0,0,0-.19.42.42,0,0,1,0-.1v0a1,1,0,0,1-.06-.23v0a0,0,0,0,0,0,0v0h0s0,0,0,0h0l0,0,.08,0H791s0,0,0,0l0,0h0v0h0v0h0v0h0l0,0,0,0h0l-.1.06a.15.15,0,0,0-.07.09.17.17,0,0,0,0,.12.16.16,0,0,0,.21,0,.66.66,0,0,0,.23-.18.21.21,0,0,0,0-.12.18.18,0,0,0-.08-.15.28.28,0,0,0-.18,0,.51.51,0,0,0-.27.06.25.25,0,0,0-.11.16.31.31,0,0,0,0,.19,1.15,1.15,0,0,0,.11.31l.24-.18,0-.05a.25.25,0,0,0-.11,0,.14.14,0,0,0-.15.15.15.15,0,0,0,0,.11Z"/><path class="cls-5" d="M791.38,442.27s0,.07,0,.1v.07a.48.48,0,0,0,.07.2l.07.07a.19.19,0,0,0,.13,0,.25.25,0,0,0,.12-.11l0-.08a.25.25,0,0,1,0-.07l0,0h0l0,0h0l0,0h-.07l.08.05.08.05a.16.16,0,0,0,.21-.05.16.16,0,0,0-.06-.21l-.11-.07a.24.24,0,0,0-.2-.05.15.15,0,0,0-.11.08l0,.06s0,.08,0,.11l0,0h0l0,0h.12l0,0h0l0,0,0-.05v0s0-.05,0-.07v0s0,0,0-.06a.13.13,0,0,0,0-.12.2.2,0,0,0-.09-.07.17.17,0,0,0-.12,0l0,0a.16.16,0,0,0,0,.07Z"/><path class="cls-5" d="M792,442.05a.42.42,0,0,0,.08.18l.07.09.1.07,0,0,0,0,0,0h0l0,0v0h0v0l0,0h0l0,0h0l0,0h.05a.22.22,0,0,0-.11.05.1.1,0,0,0,0,.1.14.14,0,0,0,.15.15.18.18,0,0,0,.16-.09.23.23,0,0,0,0-.16c0-.1-.1-.14-.17-.2l0,0-.06-.06,0,0a.3.3,0,0,1,0-.08v0a.19.19,0,0,1,0-.07.13.13,0,0,0-.07-.09.15.15,0,0,0-.11,0,.13.13,0,0,0-.09.07.16.16,0,0,0,0,.12Z"/><path class="cls-5" d="M792.57,441.89a.26.26,0,0,0,.1.2,1.7,1.7,0,0,0,.14.1l0,0,0,0,0,0v0s0,0,0,0v0l0,0,0,0,0,0-.07.05a.15.15,0,0,0-.06.2.17.17,0,0,0,.21.06.54.54,0,0,0,.16-.14.25.25,0,0,0,0-.25c0-.09-.13-.13-.2-.18l0,0,0,0,0,0v0h0a.15.15,0,0,0-.15-.15.16.16,0,0,0-.15.15Z"/><path class="cls-5" d="M783.15,440.65l.08.08,0,0,0,.05a.84.84,0,0,1,.07.19.13.13,0,0,0,.14.11.14.14,0,0,0,.14-.11.49.49,0,0,1,.15-.27l-.24,0a1.78,1.78,0,0,1,.17.4l.06.22s0,.07,0,.1a.87.87,0,0,0,0,.1.14.14,0,0,0,.15.15.15.15,0,0,0,.15-.15,3,3,0,0,0-.31-1,.14.14,0,0,0-.23,0,.64.64,0,0,0-.22.4h.28a.86.86,0,0,0-.27-.48.15.15,0,1,0-.21.21Z"/><path class="cls-5" d="M783.79,440.74l.71-.06c.08,0,.16-.07.15-.15a.14.14,0,0,0-.15-.15l-.71.06c-.08,0-.16.07-.15.15a.14.14,0,0,0,.15.15Z"/><path class="cls-5" d="M784.5,440.62l.63,1.12c.09.17.35,0,.25-.15l-.62-1.12a.15.15,0,0,0-.26.15Z"/><path class="cls-5" d="M783.22,442c0-.13,0-.25.08-.37v0q0,.09-.15.06h0l.07.07.15.14a.15.15,0,0,0,.25-.11v0h0l0,0s0,0,0,0l0,0-.25-.11a1.06,1.06,0,0,0,.23.66.15.15,0,0,0,.21,0,.14.14,0,0,0,0-.21s0,0,0,0l0,0,0-.06s0,0,0-.06h0v-.05a.74.74,0,0,1,0-.14s0,0,0,0v-.1a.16.16,0,0,0-.26-.11.55.55,0,0,0-.14.31l.26-.1-.18-.17a.52.52,0,0,0-.11-.1.18.18,0,0,0-.21,0,.41.41,0,0,0-.11.26l-.05.24a.15.15,0,0,0,.1.18.15.15,0,0,0,.19-.1Z"/><path class="cls-5" d="M783.82,441a1.27,1.27,0,0,0,.1.61.2.2,0,0,0,.09.07.13.13,0,0,0,.12,0,.18.18,0,0,0,.07-.08.16.16,0,0,0,0-.12s0,0,0,0v-.05a.14.14,0,0,1,0-.07.31.31,0,0,1,0-.13v0a1.13,1.13,0,0,1,0-.26.14.14,0,0,0-.15-.15.15.15,0,0,0-.11,0,.36.36,0,0,0,0,.11Z"/><path class="cls-5" d="M784.3,441.08l.05,1.06a.15.15,0,0,0,.15.15.15.15,0,0,0,.15-.15l0-1.06a.15.15,0,0,0-.15-.15.16.16,0,0,0-.15.15Z"/><path class="cls-5" d="M783.86,441.55a6.55,6.55,0,0,0,0,.89.15.15,0,0,0,.15.15.15.15,0,0,0,.15-.15,6.55,6.55,0,0,1,0-.89.15.15,0,0,0-.3,0Z"/><path class="cls-5" d="M784.69,441.71a.8.8,0,0,0,.08.4.13.13,0,0,0,.09.07.15.15,0,0,0,.11,0,.16.16,0,0,0,.07-.09.2.2,0,0,0,0-.11l0,0,0,0a.42.42,0,0,1,0-.15v-.1a.18.18,0,0,0,0-.1.15.15,0,0,0-.22,0l0,0a.14.14,0,0,0,0,.07Z"/><path class="cls-5" d="M784.76,441.46a.15.15,0,0,0,0-.3.15.15,0,0,0,0,.3Z"/><path class="cls-5" d="M785.39,441.44a.86.86,0,0,0-.12-.73c-.14-.21-.33-.38-.46-.59a.16.16,0,0,0-.21-.05.14.14,0,0,0-.05.2c.12.2.29.35.42.54a.59.59,0,0,1,.13.55.15.15,0,0,0,.1.18.16.16,0,0,0,.19-.1Z"/><path class="cls-5" d="M783.3,442.07h0l.09,0,0,0,0,0a.17.17,0,0,0,.12,0l.05,0,0-.05a.14.14,0,0,0,0-.11.13.13,0,0,0-.07-.09l-.12-.05h-.19l0,0,0,.05a.13.13,0,0,0,0,.06.15.15,0,0,0,0,.11.21.21,0,0,0,.11,0Z"/><path class="cls-5" d="M783.25,442a.15.15,0,0,0,0-.3.15.15,0,0,0,0,.3Z"/><path class="cls-5" d="M785.29,441a5.15,5.15,0,0,0-.37-.58.71.71,0,0,0-.53-.36,1.31,1.31,0,0,0-.34,0l-.34,0a.47.47,0,0,0-.41.31.15.15,0,0,0,.28.11c.19-.38.68-.35,1-.33.2,0,.2-.29,0-.3-.47,0-1,0-1.3.48l.27.11c0-.08.2-.09.27-.1a2,2,0,0,1,.55-.05c.15,0,.24.19.32.31s.21.32.3.48a.15.15,0,0,0,.26-.15Z"/><path class="cls-5" d="M784.27,447a6.17,6.17,0,0,1-.44.57.15.15,0,0,0,0,.24,7,7,0,0,0,.66.37.16.16,0,0,0,.21-.06.15.15,0,0,0-.06-.2,5.32,5.32,0,0,1-.66-.37l0,.23a5.91,5.91,0,0,0,.49-.63.14.14,0,0,0,0-.2.16.16,0,0,0-.21,0Z"/><path class="cls-5" d="M785.5,446.82a.82.82,0,0,0-.27.22c-.09.11-.2.28-.12.42a.29.29,0,0,0,.14.13l.19.09.38.17a.16.16,0,0,0,.2-.05.16.16,0,0,0,0-.21l-.32-.14-.3-.15h0s0,0,0,0a.06.06,0,0,1,0,0h0s0,0,0,0h0a.16.16,0,0,1,0-.07l0,0s0,0,0,0l.1-.09h0l0,0,.06,0a.16.16,0,0,0,.06-.21.16.16,0,0,0-.21-.05Z"/><path class="cls-5" d="M786.67,446.67l-.28.31-.14.16a1,1,0,0,0-.13.16.18.18,0,0,0,.08.25l.21.09.39.15a.15.15,0,0,0,.18-.11.15.15,0,0,0-.1-.18l-.29-.11-.14-.06-.07,0h0a.1.1,0,0,1,0,.06v.08s0,0,0,0l0,0,.06-.07.14-.15.26-.3a.15.15,0,1,0-.21-.21Z"/><path class="cls-5" d="M787.38,447.06l0,.28a.14.14,0,0,0,.15.15.14.14,0,0,0,.1,0,.19.19,0,0,0,0-.11l0-.28a.14.14,0,0,0,0-.11.1.1,0,0,0-.1,0,.15.15,0,0,0-.11,0,.14.14,0,0,0,0,.11Z"/><path class="cls-5" d="M787.78,447v.21a.16.16,0,0,0,.08.13.16.16,0,0,0,.15,0l.08-.09a.36.36,0,0,0,0-.09l0-.11,0,0,0,0,0,0v0l0,0h-.05l0,0,0,0,0,0,0,0,0,0a.06.06,0,0,1,0,0v.06s0,.08,0,.11a.12.12,0,0,0,.11,0,.12.12,0,0,0,.1,0l0,0a.19.19,0,0,0,0-.08v-.07a.2.2,0,0,0,0-.11.19.19,0,0,0-.07-.11.17.17,0,0,0-.11-.06h-.07l-.07,0h0l0,0a.27.27,0,0,0-.07.14l0,.1v0s0,0,0,0l0,0,0,0,0,0h0l.22.13V447a.21.21,0,0,0,0-.11.15.15,0,0,0-.11,0,.12.12,0,0,0-.1,0,.16.16,0,0,0-.05.11Z"/><path class="cls-5" d="M788.66,446.78c-.15,0-.28.1-.27.25a.83.83,0,0,0,0,.15.5.5,0,0,1,0,.13v0a.08.08,0,0,1,0,0s0,0,0,0h0a.14.14,0,0,0-.15.15.15.15,0,0,0,.15.15.28.28,0,0,0,.18-.09.33.33,0,0,0,.08-.19c0-.11-.06-.21-.07-.32v0s0,0,0,0h-.11a.16.16,0,0,0,.19-.11.16.16,0,0,0-.11-.18Z"/><path class="cls-5" d="M789.13,447.14v0s0,0,0,0v0s0,0,0,0l.06-.09a.34.34,0,0,0,0-.17.24.24,0,0,0-.11-.19.21.21,0,0,0-.26,0,.45.45,0,0,0-.14.31.43.43,0,0,0,.08.29.39.39,0,0,0,.2.14.24.24,0,0,0,.23,0,.19.19,0,0,0,.07-.08.16.16,0,0,0,0-.12.16.16,0,0,0-.09-.07.11.11,0,0,0-.11,0h0l0,0h0a.05.05,0,0,1,0,0s0,0,0,0h0v0s0,0,0,0l0,0,0,0,0,0a.24.24,0,0,1,0-.08v0a.24.24,0,0,1,0-.08l0,0,0-.06h0v0h0l0,0h0l0,0h0l0,0a0,0,0,0,1,0,0v-.05l0,0s0,0,0,0l0,0a.25.25,0,0,0-.08.14.15.15,0,0,0,.1.19.18.18,0,0,0,.19-.11Z"/><path class="cls-5" d="M789.32,446.81a1.3,1.3,0,0,0,0,.34s0,0,0,.06l0,.05a.15.15,0,0,0,.1,0,.14.14,0,0,0,.15-.15v0a.35.35,0,0,1,0-.11l0,0,0-.05,0,0,0,0,0,0,0,0,0,0h0a.13.13,0,0,0,.1,0,.14.14,0,0,0,0-.11.16.16,0,0,0,0-.1.12.12,0,0,0-.1-.05l-.08,0a.26.26,0,0,0-.09.05.39.39,0,0,0-.08.1.65.65,0,0,0-.06.24h.3a1.13,1.13,0,0,1,0-.26v0a.13.13,0,0,0,0-.06.14.14,0,0,0,0-.06.11.11,0,0,0-.09-.06.17.17,0,0,0-.12,0,.11.11,0,0,0-.06.09Z"/><path class="cls-5" d="M789.85,446.5a1.19,1.19,0,0,0,0,.7.16.16,0,0,0,.19.1.14.14,0,0,0,.1-.18.83.83,0,0,1,0-.15v-.06h0v-.07a.75.75,0,0,1,0-.15v0s0,0,0-.05a.19.19,0,0,1,0-.07.16.16,0,0,0-.11-.19.16.16,0,0,0-.18.11Z"/><path class="cls-5" d="M789.81,447h.46a.15.15,0,0,0,.15-.15.16.16,0,0,0-.15-.15h-.46a.15.15,0,0,0-.15.15.16.16,0,0,0,.15.15Z"/><path class="cls-5" d="M790.59,446.44a1.43,1.43,0,0,0,0,.74.15.15,0,0,0,.18.11.16.16,0,0,0,.11-.19.83.83,0,0,1,0-.15v-.05s0,0,0,0,0-.05,0-.08v-.15a.25.25,0,0,0,0-.08s0,0,0,0v-.05a.14.14,0,0,0-.1-.18.15.15,0,0,0-.19.1Z"/><path class="cls-5" d="M790.54,446.85h.4a.15.15,0,0,0,.15-.15.16.16,0,0,0-.15-.15h-.4a.15.15,0,0,0-.15.15.16.16,0,0,0,.15.15Z"/><path class="cls-5" d="M790.86,446.33a1.72,1.72,0,0,0,0,.64.16.16,0,0,0,.17.11.16.16,0,0,0,.13-.15v0h0v0h0s0,0,0,0h0v.06h0v0a.17.17,0,0,0,0,.12.2.2,0,0,0,.09.07.18.18,0,0,0,.19-.11.5.5,0,0,0,0-.27.25.25,0,0,0-.22-.16.27.27,0,0,0-.24.12.44.44,0,0,0-.06.25l.29,0s0,0,0-.07h0v0a.66.66,0,0,1,0-.14.53.53,0,0,1,0-.13v0h0a.17.17,0,0,0,0-.07.15.15,0,0,0-.1-.19.18.18,0,0,0-.19.11Z"/><path class="cls-5" d="M791.38,446.69v.15a.13.13,0,0,0,0,.06l0,.05.05,0h.06a.12.12,0,0,0,.1,0l0,0a.24.24,0,0,0,0-.08v-.15a.13.13,0,0,0,0-.06l0-.05,0,0h-.06a.15.15,0,0,0-.11,0l0,0a.24.24,0,0,0,0,.08Z"/><path class="cls-5" d="M792,446.42a.47.47,0,0,0-.12.07l0,.05v0a0,0,0,0,0,0,0,.09.09,0,0,0,0,0,.13.13,0,0,0,0,.06l0,.05,0,0h.06a.15.15,0,0,0,.11,0l0,0a.24.24,0,0,0,0-.08h0v0a0,0,0,0,0,0,0v0s0,0,0,0l0,0,0,0,0,0h0a.15.15,0,0,0,.09-.07.09.09,0,0,0,0-.05.06.06,0,0,0,0-.06.13.13,0,0,0-.07-.09.14.14,0,0,0-.11,0Z"/><path class="cls-5" d="M792.4,446.45a.61.61,0,0,0,.16.45.15.15,0,0,0,.21,0l.18-.23-.25-.1a.75.75,0,0,0,0,.33.14.14,0,0,0,.11.1.13.13,0,0,0,.14,0,.68.68,0,0,0,.24-.36.16.16,0,0,0-.11-.19.15.15,0,0,0-.18.11s0,0,0,0,0,0,0,0,0,0,0,0l0,.08h0v0l-.07.06.25.07a.4.4,0,0,1,0-.15v0a.66.66,0,0,1,0-.14.16.16,0,0,0-.09-.14.15.15,0,0,0-.17,0l-.18.23h.21l0,0h0l0-.06s0,0,0,0v0a.2.2,0,0,1,0-.07v-.06a.15.15,0,0,0-.15-.15.16.16,0,0,0-.15.15Z"/><path class="cls-5" d="M793.38,446.41a.37.37,0,0,0,0,.11.06.06,0,0,0,0,0,.22.22,0,0,0,0,.08.5.5,0,0,0,0,.12l0,.07,0,.06a.15.15,0,0,0,.12.05.15.15,0,0,0,.11-.08.56.56,0,0,0,.1-.29l-.23.13,0,0,0,0,0,0,0,0s0,0,0,0l0,0v0a.2.2,0,0,0,.07.09.16.16,0,0,0,.12,0,.15.15,0,0,0,.09-.07.2.2,0,0,0,0-.11.29.29,0,0,0-.16-.2.14.14,0,0,0-.15,0,.12.12,0,0,0-.07.12v0l0,.11v0a.25.25,0,0,1,0,.07l.24,0h0l0,0,0,0,0,0a.14.14,0,0,1,0-.06v0a.14.14,0,0,1,0-.06l0,0,0-.05a.14.14,0,0,0,0-.11.13.13,0,0,0-.07-.09.14.14,0,0,0-.11,0l0,0a.12.12,0,0,0,0,.05Z"/><path class="cls-5" d="M794,446.46l.2-.1-.23-.13a2.17,2.17,0,0,1,0,.36s0,0,0,0v0s0,.07,0,.1a1.16,1.16,0,0,0,0,.18.14.14,0,0,0,.1.18.14.14,0,0,0,.18-.1,2.91,2.91,0,0,0,.1-.77.15.15,0,0,0-.23-.13l-.19.1a.15.15,0,1,0,.15.26Z"/><path d="M899.17,350.17A3.05,3.05,0,0,1,898,349a3.34,3.34,0,0,1,0-3.35,3,3,0,0,1,1.22-1.16,3.62,3.62,0,0,1,1.75-.42,3.52,3.52,0,0,1,1.48.29,2.93,2.93,0,0,1,1.11.82l-.93.87a2,2,0,0,0-1.59-.74,2.08,2.08,0,0,0-1,.26,1.82,1.82,0,0,0-.72.71,2.14,2.14,0,0,0-.25,1.05,2.11,2.11,0,0,0,.25,1,1.76,1.76,0,0,0,.72.71,2,2,0,0,0,1,.26,2,2,0,0,0,1.59-.75l.93.87a3.09,3.09,0,0,1-1.11.84,3.77,3.77,0,0,1-1.49.28A3.72,3.72,0,0,1,899.17,350.17Z"/><path d="M905.15,350.23a2.4,2.4,0,0,1-.95-.89,2.53,2.53,0,0,1-.34-1.29,2.5,2.5,0,0,1,.34-1.28,2.4,2.4,0,0,1,.95-.89,3,3,0,0,1,1.38-.32,2.87,2.87,0,0,1,1.36.32,2.33,2.33,0,0,1,1,.89,2.4,2.4,0,0,1,.34,1.28,2.44,2.44,0,0,1-.34,1.29,2.33,2.33,0,0,1-1,.89,2.87,2.87,0,0,1-1.36.32A3,3,0,0,1,905.15,350.23Zm2.26-1.2a1.53,1.53,0,0,0,0-1.95,1.13,1.13,0,0,0-.88-.37,1.19,1.19,0,0,0-.9.37,1.53,1.53,0,0,0,0,1.95,1.23,1.23,0,0,0,.9.37A1.17,1.17,0,0,0,907.41,349Z"/><path d="M917.76,346.1a2.15,2.15,0,0,1,.54,1.6v2.78h-1.41v-2.56a1.38,1.38,0,0,0-.23-.86.84.84,0,0,0-.68-.28,1,1,0,0,0-.79.32,1.38,1.38,0,0,0-.29.95v2.43h-1.4v-2.56c0-.76-.31-1.14-.92-1.14a1,1,0,0,0-.77.32,1.38,1.38,0,0,0-.29.95v2.43h-1.4v-4.85h1.34v.56a1.85,1.85,0,0,1,.66-.47,2.39,2.39,0,0,1,.86-.16,2.18,2.18,0,0,1,.93.2,1.79,1.79,0,0,1,.66.59,2,2,0,0,1,.75-.58,2.39,2.39,0,0,1,1-.21A1.93,1.93,0,0,1,917.76,346.1Z"/><path d="M927.2,346.1a2.15,2.15,0,0,1,.54,1.6v2.78h-1.41v-2.56a1.32,1.32,0,0,0-.23-.86.84.84,0,0,0-.68-.28,1,1,0,0,0-.79.32,1.38,1.38,0,0,0-.28.95v2.43h-1.41v-2.56c0-.76-.3-1.14-.92-1.14a1,1,0,0,0-.77.32,1.38,1.38,0,0,0-.29.95v2.43h-1.4v-4.85h1.34v.56a1.85,1.85,0,0,1,.66-.47,2.39,2.39,0,0,1,.86-.16,2.18,2.18,0,0,1,.93.2,1.79,1.79,0,0,1,.66.59,2,2,0,0,1,.75-.58,2.39,2.39,0,0,1,1-.21A1.92,1.92,0,0,1,927.2,346.1Z"/><path d="M933.88,345.63v4.85h-1.33v-.58a1.88,1.88,0,0,1-.67.48,2.14,2.14,0,0,1-.84.17,2.09,2.09,0,0,1-1.51-.55,2.21,2.21,0,0,1-.56-1.63v-2.74h1.41v2.53c0,.78.32,1.17,1,1.17a1.07,1.07,0,0,0,.81-.33,1.37,1.37,0,0,0,.3-1v-2.4Z"/><path d="M938.31,350.24a1.5,1.5,0,0,1-.51.23,2.67,2.67,0,0,1-.64.08,1.89,1.89,0,0,1-1.33-.44,1.69,1.69,0,0,1-.48-1.3v-2h-.74v-1.08h.74v-1.18h1.41v1.18H938v1.08h-1.2v2a.66.66,0,0,0,.16.48.57.57,0,0,0,.44.16.92.92,0,0,0,.57-.18Z"/><path d="M943.66,348.45H940a1.12,1.12,0,0,0,.46.71,1.54,1.54,0,0,0,.92.26,1.75,1.75,0,0,0,.67-.11,1.46,1.46,0,0,0,.55-.36l.74.81a2.47,2.47,0,0,1-2,.79,3.19,3.19,0,0,1-1.45-.32,2.27,2.27,0,0,1-1-.89,2.45,2.45,0,0,1-.35-1.29,2.52,2.52,0,0,1,.34-1.28,2.41,2.41,0,0,1,.93-.89,2.74,2.74,0,0,1,1.32-.32,2.61,2.61,0,0,1,1.28.31,2.14,2.14,0,0,1,.91.88,2.59,2.59,0,0,1,.33,1.32S943.68,348.22,943.66,348.45Zm-3.29-1.56a1.19,1.19,0,0,0-.39.74h2.38a1.14,1.14,0,0,0-.39-.73,1.21,1.21,0,0,0-.79-.28A1.24,1.24,0,0,0,940.37,346.89Z"/><path d="M948.55,350.16a3.14,3.14,0,0,1-1.68-2.83,3.17,3.17,0,0,1,1.68-2.84,3.73,3.73,0,0,1,1.77-.42,3.66,3.66,0,0,1,1.76.42,3.11,3.11,0,0,1,1.24,1.17,3.14,3.14,0,0,1,.45,1.67,3.19,3.19,0,0,1-.45,1.67,3.15,3.15,0,0,1-1.24,1.16,3.66,3.66,0,0,1-1.76.42A3.73,3.73,0,0,1,948.55,350.16Zm2.78-1.08a1.77,1.77,0,0,0,.7-.71,2,2,0,0,0,.26-1,2,2,0,0,0-.26-1.05,1.84,1.84,0,0,0-.7-.71,2.09,2.09,0,0,0-2,0,1.84,1.84,0,0,0-.7.71,2,2,0,0,0-.26,1.05,2,2,0,0,0,.26,1,1.77,1.77,0,0,0,.7.71,2.09,2.09,0,0,0,2,0Z"/><path d="M958.86,345.87a2.27,2.27,0,0,1,.86.88,2.82,2.82,0,0,1,0,2.61,2.27,2.27,0,0,1-.86.88,2.55,2.55,0,0,1-1.23.31,1.87,1.87,0,0,1-1.46-.59v2.26h-1.4v-6.59h1.34v.56a1.84,1.84,0,0,1,1.52-.63A2.55,2.55,0,0,1,958.86,345.87Zm-.59,3.16a1.53,1.53,0,0,0,0-1.95,1.16,1.16,0,0,0-.89-.37,1.13,1.13,0,0,0-.88.37,1.53,1.53,0,0,0,0,1.95,1.17,1.17,0,0,0,.88.37A1.19,1.19,0,0,0,958.27,349Z"/><path d="M964.1,350.24a1.5,1.5,0,0,1-.51.23,2.59,2.59,0,0,1-.63.08,1.9,1.9,0,0,1-1.34-.44,1.69,1.69,0,0,1-.47-1.3v-2h-.75v-1.08h.75v-1.18h1.4v1.18h1.21v1.08h-1.21v2a.66.66,0,0,0,.16.48.57.57,0,0,0,.44.16.92.92,0,0,0,.57-.18Z"/><path d="M965,344.73a.76.76,0,0,1,0-1.11,1,1,0,0,1,1.26,0,.68.68,0,0,1,.24.54.77.77,0,0,1-.24.58,1,1,0,0,1-1.26,0Zm-.07.9h1.4v4.85h-1.4Z"/><path d="M968.53,350.23a2.4,2.4,0,0,1-.95-.89,2.44,2.44,0,0,1-.34-1.29,2.38,2.38,0,0,1,1.29-2.17,3.09,3.09,0,0,1,2.74,0,2.4,2.4,0,0,1,1,.89,2.5,2.5,0,0,1,.34,1.28,2.53,2.53,0,0,1-.34,1.29,2.4,2.4,0,0,1-1,.89,3.09,3.09,0,0,1-2.74,0Zm2.26-1.2a1.53,1.53,0,0,0,0-1.95,1.16,1.16,0,0,0-.89-.37,1.17,1.17,0,0,0-.89.37,1.53,1.53,0,0,0,0,1.95,1.21,1.21,0,0,0,.89.37A1.19,1.19,0,0,0,970.79,349Z"/><path d="M977.89,346.1a2.14,2.14,0,0,1,.55,1.6v2.78H977v-2.56a1.26,1.26,0,0,0-.25-.86.92.92,0,0,0-.73-.28,1.16,1.16,0,0,0-.85.32,1.37,1.37,0,0,0-.31,1v2.4h-1.41v-4.85h1.34v.57a1.92,1.92,0,0,1,.7-.47,2.42,2.42,0,0,1,.91-.17A2,2,0,0,1,977.89,346.1Z"/><path d="M980.16,350.4a3.2,3.2,0,0,1-.92-.37l.47-1a2.72,2.72,0,0,0,.79.33,3.13,3.13,0,0,0,.9.14c.59,0,.89-.15.89-.45,0-.13-.08-.23-.25-.29a4.08,4.08,0,0,0-.74-.16,6.66,6.66,0,0,1-1-.2,1.56,1.56,0,0,1-.68-.42,1.2,1.2,0,0,1-.28-.84,1.32,1.32,0,0,1,.27-.82,1.68,1.68,0,0,1,.77-.55,3.35,3.35,0,0,1,1.2-.2,5,5,0,0,1,1,.11,3.22,3.22,0,0,1,.85.31l-.47,1a2.81,2.81,0,0,0-1.4-.36,1.44,1.44,0,0,0-.67.13.37.37,0,0,0-.23.32.32.32,0,0,0,.25.32,4,4,0,0,0,.77.17c.4.07.72.14,1,.21a1.53,1.53,0,0,1,.66.41,1.19,1.19,0,0,1,.28.83,1.27,1.27,0,0,1-.27.8,1.66,1.66,0,0,1-.79.54,3.48,3.48,0,0,1-1.23.2A4.71,4.71,0,0,1,980.16,350.4Z"/><path d="M984.4,347.06a.91.91,0,0,1,0-1.25.88.88,0,0,1,.62-.24.84.84,0,0,1,.62.24.89.89,0,0,1-.62,1.51A.85.85,0,0,1,984.4,347.06Zm0,3.24a.85.85,0,0,1-.25-.63.82.82,0,0,1,.25-.63.88.88,0,0,1,.62-.24.84.84,0,0,1,.62.24.83.83,0,0,1,.26.63.87.87,0,0,1-.88.88A.89.89,0,0,1,984.4,350.3Z"/><path d="M899.53,355v6.3h-.89v-5.52h-1.42V355Z"/><path d="M900.77,363a7.66,7.66,0,0,0,.79-2,9.69,9.69,0,0,0,0-4.46,7.66,7.66,0,0,0-.79-2h.82a6.77,6.77,0,0,1,.8,1.89,9.71,9.71,0,0,1,0,4.63,6.84,6.84,0,0,1-.8,1.9Z"/><path d="M908.91,358.76a4,4,0,0,1-.54-.37,2.75,2.75,0,0,0-.37-.28.62.62,0,0,0-.32-.09.54.54,0,0,0-.46.22,1,1,0,0,0-.19.59h-.57a1.76,1.76,0,0,1,.34-1.1,1.07,1.07,0,0,1,.85-.38,1.22,1.22,0,0,1,.56.13,4.22,4.22,0,0,1,.54.38,3.51,3.51,0,0,0,.38.28.56.56,0,0,0,.31.09.57.57,0,0,0,.47-.23,1,1,0,0,0,.18-.59h.57a1.75,1.75,0,0,1-.34,1.11,1.06,1.06,0,0,1-.85.37A1.13,1.13,0,0,1,908.91,358.76Z"/><path d="M917.82,358a1.68,1.68,0,0,1,.63,1.39,2,2,0,0,1-.26,1,1.81,1.81,0,0,1-.81.7,3,3,0,0,1-1.31.26,4.25,4.25,0,0,1-1.29-.2,3,3,0,0,1-1-.57l.42-.71a2.18,2.18,0,0,0,.83.49,2.89,2.89,0,0,0,1.06.19,1.78,1.78,0,0,0,1.1-.3,1,1,0,0,0,.39-.83,1,1,0,0,0-.43-.86,2.82,2.82,0,0,0-1.48-.29h-1.43l.34-3.29h3.55v.78h-2.8l-.17,1.73h.7A3.18,3.18,0,0,1,917.82,358Z"/><path d="M923,358.19a1.67,1.67,0,0,1,.48,1.23,1.78,1.78,0,0,1-1.07,1.67,3,3,0,0,1-1.31.26,4.36,4.36,0,0,1-1.3-.2,2.81,2.81,0,0,1-1-.57l.41-.71a2.26,2.26,0,0,0,.83.49,2.9,2.9,0,0,0,1.07.19,1.74,1.74,0,0,0,1.09-.3,1,1,0,0,0,.39-.82.94.94,0,0,0-.38-.81,2,2,0,0,0-1.17-.29h-.51v-.63l1.59-1.94h-3V355h4.16v.61l-1.64,2A2.28,2.28,0,0,1,923,358.19Z"/><path d="M932.08,357a2.11,2.11,0,0,1,.53,1.55v2.75h-.87v-2.65a1.46,1.46,0,0,0-.32-1,1.14,1.14,0,0,0-.91-.36,1.36,1.36,0,0,0-1,.41,1.66,1.66,0,0,0-.39,1.18v2.46h-.86v-2.65a1.5,1.5,0,0,0-.32-1,1.18,1.18,0,0,0-.92-.36,1.37,1.37,0,0,0-1,.41,1.66,1.66,0,0,0-.39,1.18v2.46h-.86v-4.77h.83v.71a1.64,1.64,0,0,1,.68-.57,2.42,2.42,0,0,1,1-.19,2.07,2.07,0,0,1,1,.23,1.56,1.56,0,0,1,.67.65,1.91,1.91,0,0,1,.75-.65,2.53,2.53,0,0,1,1.09-.23A1.93,1.93,0,0,1,932.08,357Z"/><path d="M934.21,355.43a.58.58,0,0,1,0-.8.59.59,0,0,1,.42-.17.61.61,0,0,1,.42.16.54.54,0,0,1,.17.39.57.57,0,0,1-.17.41.57.57,0,0,1-.42.17A.63.63,0,0,1,934.21,355.43Zm0,1.08h.86v4.77h-.86Z"/><path d="M940.7,357a2,2,0,0,1,.54,1.54v2.75h-.87v-2.65a1.46,1.46,0,0,0-.33-1,1.23,1.23,0,0,0-.95-.36,1.5,1.5,0,0,0-1.11.41,1.62,1.62,0,0,0-.4,1.18v2.46h-.87v-4.77h.83v.72a1.61,1.61,0,0,1,.71-.57,2.46,2.46,0,0,1,1-.2A2,2,0,0,1,940.7,357Z"/><path d="M905,364.78v4.9h-.69v-4.3H903.2v-.6Z"/><path d="M906.2,369.58a.47.47,0,0,1-.14-.35.45.45,0,0,1,.14-.33.44.44,0,0,1,.34-.14.44.44,0,0,1,.33.13.49.49,0,0,1,.13.34.47.47,0,0,1-.14.35.45.45,0,0,1-.32.14A.48.48,0,0,1,906.2,369.58Z"/><path class="cls-3" d="M915.26,366l-1.39,3.69h-.47l-1.17-3-1.16,3h-.47L909.22,366h.47l1.16,3.13L912,366h.43l1.17,3.13L914.8,366Z"/><path class="cls-3" d="M918.29,366.33a1.36,1.36,0,0,1,.38,1.06v2.29h-.47v-.58a1.19,1.19,0,0,1-.49.45,1.73,1.73,0,0,1-.78.16,1.55,1.55,0,0,1-1-.29,1,1,0,0,1-.36-.78,1,1,0,0,1,.34-.76,1.65,1.65,0,0,1,1.08-.28h1.17v-.23a.93.93,0,0,0-.27-.72,1.09,1.09,0,0,0-.78-.25,1.93,1.93,0,0,0-.67.12,1.64,1.64,0,0,0-.55.31l-.22-.37a1.8,1.8,0,0,1,.67-.36,2.47,2.47,0,0,1,.82-.13A1.58,1.58,0,0,1,918.29,366.33Zm-.56,2.8a1.2,1.2,0,0,0,.45-.56V368H917c-.63,0-.94.22-.94.66a.59.59,0,0,0,.24.5,1.09,1.09,0,0,0,.69.19A1.38,1.38,0,0,0,917.73,369.13Z"/><path class="cls-3" d="M920,364.48h.49v5.2H920Z"/><path class="cls-3" d="M923.27,367.83l-.86.8v1.05h-.5v-5.2h.5V368l2.19-2h.62l-1.58,1.51,1.73,2.18h-.61Z"/><path d="M928.56,369.42a1.89,1.89,0,0,1-.69-.87,3.64,3.64,0,0,1,0-2.65,2,2,0,0,1,.69-.87,1.79,1.79,0,0,1,1-.3,1.74,1.74,0,0,1,1,.3,2,2,0,0,1,.7.87,3.64,3.64,0,0,1,0,2.65,2,2,0,0,1-.7.87,1.74,1.74,0,0,1-1,.3A1.79,1.79,0,0,1,928.56,369.42Zm1.77-.4a1.56,1.56,0,0,0,.5-.7,2.93,2.93,0,0,0,.18-1.09,3,3,0,0,0-.18-1.1,1.56,1.56,0,0,0-.5-.7,1.35,1.35,0,0,0-1.51,0,1.51,1.51,0,0,0-.51.7,3,3,0,0,0-.18,1.1,2.93,2.93,0,0,0,.18,1.09,1.51,1.51,0,0,0,.51.7,1.31,1.31,0,0,0,1.51,0Z"/><path d="M932.29,369.6a.4.4,0,0,1-.11-.27.37.37,0,0,1,.11-.27.35.35,0,0,1,.27-.11.33.33,0,0,1,.26.11.33.33,0,0,1,.11.27.38.38,0,0,1-.37.38A.39.39,0,0,1,932.29,369.6Z"/><path d="M937.08,369.23v.45h-3.44v-.36l2-2a2.8,2.8,0,0,0,.52-.65,1.27,1.27,0,0,0,.13-.56.8.8,0,0,0-.29-.67,1.32,1.32,0,0,0-.85-.24,1.69,1.69,0,0,0-1.34.54l-.36-.31a1.92,1.92,0,0,1,.73-.51,2.53,2.53,0,0,1,1-.19,1.84,1.84,0,0,1,1.19.36,1.17,1.17,0,0,1,.43,1,1.64,1.64,0,0,1-.16.72,3.15,3.15,0,0,1-.64.81l-1.67,1.64Z"/><path d="M943.72,366.36a1.63,1.63,0,0,1,.39,1.18v2.14h-.49v-2.09a1.31,1.31,0,0,0-.28-.88,1,1,0,0,0-.78-.3,1.17,1.17,0,0,0-.91.36,1.4,1.4,0,0,0-.32,1v1.94h-.5v-2.09a1.26,1.26,0,0,0-.28-.88,1,1,0,0,0-.79-.3,1.15,1.15,0,0,0-.89.36,1.32,1.32,0,0,0-.34,1v1.94H938V366h.47v.68a1.26,1.26,0,0,1,.55-.52,1.71,1.71,0,0,1,.8-.18,1.55,1.55,0,0,1,.8.19,1.21,1.21,0,0,1,.51.58,1.47,1.47,0,0,1,.59-.57,1.75,1.75,0,0,1,.87-.2A1.5,1.5,0,0,1,943.72,366.36Z"/><path d="M945.46,365.08a.34.34,0,0,1-.11-.25.34.34,0,0,1,.11-.24.34.34,0,0,1,.25-.11.38.38,0,0,1,.26.1.34.34,0,0,1,.11.24.38.38,0,0,1-.37.37A.34.34,0,0,1,945.46,365.08Zm0,.91h.5v3.69h-.5Z"/><path d="M949.91,365a.74.74,0,0,0-.16.52V366h1.13v.42h-1.12v3.27h-.5v-3.27h-.65V366h.65v-.45a1,1,0,0,1,1.12-1.09,1.34,1.34,0,0,1,.4.06.86.86,0,0,1,.33.17l-.17.37a.8.8,0,0,0-.54-.18A.66.66,0,0,0,949.91,365Z"/><path d="M953.11,366.15A1.86,1.86,0,0,1,954,366v.48h-.12a1.17,1.17,0,0,0-.91.36,1.42,1.42,0,0,0-.33,1v1.88h-.5V366h.48v.72A1.28,1.28,0,0,1,953.11,366.15Z"/><path d="M955.37,369.47a1.8,1.8,0,0,1-.67-.67,2.06,2.06,0,0,1,0-1.93,1.8,1.8,0,0,1,.67-.67,2.06,2.06,0,0,1,1-.23,2,2,0,0,1,1,.23,1.66,1.66,0,0,1,.67.67,2.06,2.06,0,0,1,0,1.93,1.66,1.66,0,0,1-.67.67,1.9,1.9,0,0,1-1,.24A2,2,0,0,1,955.37,369.47Zm1.67-.38a1.18,1.18,0,0,0,.48-.51,1.54,1.54,0,0,0,.18-.75,1.5,1.5,0,0,0-.18-.74,1.18,1.18,0,0,0-.48-.51,1.41,1.41,0,0,0-.71-.18,1.38,1.38,0,0,0-.7.18,1.27,1.27,0,0,0-.49.51,1.5,1.5,0,0,0-.18.74,1.54,1.54,0,0,0,.18.75,1.27,1.27,0,0,0,.49.51,1.38,1.38,0,0,0,.7.18A1.41,1.41,0,0,0,957,369.09Z"/><path d="M964.9,366.36a1.63,1.63,0,0,1,.39,1.18v2.14h-.49v-2.09a1.31,1.31,0,0,0-.28-.88,1,1,0,0,0-.78-.3,1.16,1.16,0,0,0-.9.36,1.36,1.36,0,0,0-.33,1v1.94H962v-2.09a1.26,1.26,0,0,0-.28-.88,1,1,0,0,0-.78-.3,1.16,1.16,0,0,0-.9.36,1.36,1.36,0,0,0-.34,1v1.94h-.49V366h.47v.68a1.31,1.31,0,0,1,.55-.52,1.71,1.71,0,0,1,.8-.18,1.62,1.62,0,0,1,.81.19,1.24,1.24,0,0,1,.5.58,1.47,1.47,0,0,1,.59-.57,1.75,1.75,0,0,1,.87-.2A1.5,1.5,0,0,1,964.9,366.36Z"/><path d="M972.42,367.57a1.2,1.2,0,0,1,.26.8,1.14,1.14,0,0,1-.47,1,2.36,2.36,0,0,1-1.37.34h-2.26v-4.9h2.12a2.21,2.21,0,0,1,1.27.32,1.09,1.09,0,0,1,.45.94,1.19,1.19,0,0,1-.2.69,1.23,1.23,0,0,1-.55.42A1.33,1.33,0,0,1,972.42,367.57Zm-3.32-2.37V367h1.56a1.6,1.6,0,0,0,.92-.23.84.84,0,0,0,0-1.32,1.6,1.6,0,0,0-.92-.23Zm2.72,3.82a.76.76,0,0,0,.34-.7c0-.61-.44-.91-1.33-.91H969.1v1.84h1.73A1.76,1.76,0,0,0,971.82,369Z"/><path d="M976.15,366.33a1.37,1.37,0,0,1,.39,1.06v2.29h-.48v-.58a1.19,1.19,0,0,1-.49.45,1.73,1.73,0,0,1-.78.16,1.55,1.55,0,0,1-1-.29,1,1,0,0,1-.36-.78,1,1,0,0,1,.34-.76,1.65,1.65,0,0,1,1.08-.28H976v-.23a.93.93,0,0,0-.27-.72,1.07,1.07,0,0,0-.77-.25,2,2,0,0,0-.68.12,1.64,1.64,0,0,0-.55.31l-.22-.37a1.8,1.8,0,0,1,.67-.36A2.47,2.47,0,0,1,975,366,1.56,1.56,0,0,1,976.15,366.33Zm-.56,2.8a1.2,1.2,0,0,0,.45-.56V368h-1.16c-.63,0-.94.22-.94.66a.59.59,0,0,0,.24.5,1.11,1.11,0,0,0,.69.19A1.38,1.38,0,0,0,975.59,369.13Z"/><path d="M978.88,366.15a1.88,1.88,0,0,1,.86-.18v.48h-.12a1.18,1.18,0,0,0-.91.36,1.42,1.42,0,0,0-.33,1v1.88h-.49V366h.47v.72A1.28,1.28,0,0,1,978.88,366.15Z"/><path d="M984,364.48v5.2h-.47V369a1.47,1.47,0,0,1-.6.56,1.62,1.62,0,0,1-.83.2,1.84,1.84,0,0,1-.93-.24,1.74,1.74,0,0,1-.66-.66,2.1,2.1,0,0,1,0-1.95,1.74,1.74,0,0,1,.66-.66,1.83,1.83,0,0,1,.93-.23,1.79,1.79,0,0,1,.81.18,1.53,1.53,0,0,1,.59.54v-2.21Zm-1.16,4.61a1.27,1.27,0,0,0,.49-.51,1.54,1.54,0,0,0,.18-.75,1.5,1.5,0,0,0-.18-.74,1.27,1.27,0,0,0-.49-.51,1.37,1.37,0,0,0-.69-.18,1.39,1.39,0,0,0-.71.18,1.34,1.34,0,0,0-.49.51,1.5,1.5,0,0,0-.18.74,1.54,1.54,0,0,0,.18.75,1.34,1.34,0,0,0,.49.51,1.39,1.39,0,0,0,.71.18A1.37,1.37,0,0,0,982.8,369.09Z"/><path d="M989.12,369.45a.79.79,0,0,1-.35.19,1.21,1.21,0,0,1-.43.07,1.08,1.08,0,0,1-.8-.28,1.1,1.1,0,0,1-.27-.79v-2.23h-.66V366h.66v-.8h.49v.8h1.12v.42h-1.12v2.2a.69.69,0,0,0,.17.5.59.59,0,0,0,.47.17.79.79,0,0,0,.3,0,.69.69,0,0,0,.25-.14Z"/><path d="M990.44,369.47a1.75,1.75,0,0,1-.68-.67,2.06,2.06,0,0,1,0-1.93,1.75,1.75,0,0,1,.68-.67,2.1,2.1,0,0,1,1.91,0,1.66,1.66,0,0,1,.67.67,2.06,2.06,0,0,1,0,1.93,1.66,1.66,0,0,1-.67.67,2,2,0,0,1-1.91,0Zm1.66-.38a1.18,1.18,0,0,0,.48-.51,1.54,1.54,0,0,0,.18-.75,1.5,1.5,0,0,0-.18-.74,1.18,1.18,0,0,0-.48-.51,1.47,1.47,0,0,0-1.41,0,1.27,1.27,0,0,0-.49.51,1.5,1.5,0,0,0-.18.74,1.54,1.54,0,0,0,.18.75,1.27,1.27,0,0,0,.49.51,1.47,1.47,0,0,0,1.41,0Z"/><path d="M998.05,369.45a.81.81,0,0,1-.34.19,1.29,1.29,0,0,1-.43.07,1,1,0,0,1-1.08-1.07v-2.23h-.66V366h.66v-.8h.49v.8h1.12v.42h-1.12v2.2a.69.69,0,0,0,.17.5.61.61,0,0,0,.47.17.79.79,0,0,0,.3,0,.62.62,0,0,0,.25-.14Z"/><path d="M1001.93,366.37a1.55,1.55,0,0,1,.41,1.17v2.14h-.49v-2.09a1.26,1.26,0,0,0-.29-.88,1.09,1.09,0,0,0-.82-.3,1.24,1.24,0,0,0-.94.36,1.32,1.32,0,0,0-.35,1v1.94H999v-5.2h.49v2.16a1.36,1.36,0,0,1,.56-.5,1.8,1.8,0,0,1,.82-.17A1.49,1.49,0,0,1,1001.93,366.37Z"/><path d="M1006.92,368h-3.09a1.34,1.34,0,0,0,.45.93,1.47,1.47,0,0,0,1,.35,1.61,1.61,0,0,0,.63-.12,1.36,1.36,0,0,0,.5-.36l.28.32a1.73,1.73,0,0,1-.61.45,2.16,2.16,0,0,1-.81.15,2.09,2.09,0,0,1-1-.24,1.75,1.75,0,0,1-.68-.67,1.94,1.94,0,0,1-.24-1,2,2,0,0,1,.23-1,1.68,1.68,0,0,1,.65-.67,1.87,1.87,0,0,1,.92-.23,1.84,1.84,0,0,1,.91.23,1.65,1.65,0,0,1,.64.67,2,2,0,0,1,.23,1Zm-2.68-1.26a1.38,1.38,0,0,0-.41.89h2.62a1.38,1.38,0,0,0-.41-.89,1.36,1.36,0,0,0-1.8,0Z"/><path d="M903.83,373.48a.33.33,0,0,1-.1-.25.33.33,0,0,1,.1-.24.36.36,0,0,1,.26-.11.38.38,0,0,1,.26.1.34.34,0,0,1,.11.24.38.38,0,0,1-.37.37A.36.36,0,0,1,903.83,373.48Zm0,.91h.5v3.69h-.5Z"/><path d="M908.7,374.77a1.55,1.55,0,0,1,.41,1.17v2.14h-.49V376a1.26,1.26,0,0,0-.29-.88,1.09,1.09,0,0,0-.82-.3,1.24,1.24,0,0,0-.94.36,1.32,1.32,0,0,0-.35,1v1.94h-.5v-3.69h.48v.68a1.4,1.4,0,0,1,.56-.52,1.86,1.86,0,0,1,.84-.18A1.49,1.49,0,0,1,908.7,374.77Z"/><path d="M912.4,377.85a.81.81,0,0,1-.34.19,1.29,1.29,0,0,1-.43.07,1,1,0,0,1-1.08-1.07v-2.23h-.66v-.42h.66v-.8H911v.8h1.12v.42H911V377a.69.69,0,0,0,.17.5.61.61,0,0,0,.47.17.79.79,0,0,0,.3-.05.62.62,0,0,0,.25-.14Z"/><path d="M916.38,376.39H913.3a1.33,1.33,0,0,0,.44.93,1.49,1.49,0,0,0,1,.35,1.61,1.61,0,0,0,.63-.12,1.33,1.33,0,0,0,.49-.36l.28.32a1.65,1.65,0,0,1-.61.45,2.09,2.09,0,0,1-.81.15,2.05,2.05,0,0,1-1-.24,1.69,1.69,0,0,1-.68-.67,1.85,1.85,0,0,1-.25-1,1.93,1.93,0,0,1,.24-1,1.65,1.65,0,0,1,.64-.67,2,2,0,0,1,1.84,0,1.63,1.63,0,0,1,.63.67,1.9,1.9,0,0,1,.24,1Zm-2.67-1.26a1.33,1.33,0,0,0-.41.89h2.61a1.33,1.33,0,0,0-.41-.89,1.35,1.35,0,0,0-1.79,0Z"/><path d="M918.4,374.55a1.81,1.81,0,0,1,.85-.18v.48h-.11a1.17,1.17,0,0,0-.91.36,1.42,1.42,0,0,0-.33,1v1.88h-.5v-3.69h.48v.72A1.23,1.23,0,0,1,918.4,374.55Z"/><path d="M920.31,378a1.74,1.74,0,0,1-.64-.32l.22-.4a1.76,1.76,0,0,0,.58.3,2.28,2.28,0,0,0,.73.12,1.44,1.44,0,0,0,.75-.16.51.51,0,0,0,.24-.45.38.38,0,0,0-.14-.31.81.81,0,0,0-.33-.18,3.89,3.89,0,0,0-.54-.11,6.23,6.23,0,0,1-.72-.18A1,1,0,0,1,920,376a.83.83,0,0,1-.19-.58.92.92,0,0,1,.39-.76,1.68,1.68,0,0,1,1.07-.29,2.94,2.94,0,0,1,.71.09,2,2,0,0,1,.59.25l-.22.4a1.84,1.84,0,0,0-1.08-.32,1.27,1.27,0,0,0-.72.17.51.51,0,0,0-.24.44.45.45,0,0,0,.13.34.92.92,0,0,0,.34.18l.56.13a6.6,6.6,0,0,1,.71.16,1.16,1.16,0,0,1,.46.29.82.82,0,0,1,.18.56.89.89,0,0,1-.4.77,1.9,1.9,0,0,1-1.11.28A2.71,2.71,0,0,1,920.31,378Z"/><path d="M926.81,376.39h-3.08a1.29,1.29,0,0,0,.44.93,1.48,1.48,0,0,0,1,.35,1.61,1.61,0,0,0,.63-.12,1.33,1.33,0,0,0,.49-.36l.28.32a1.65,1.65,0,0,1-.61.45,2.09,2.09,0,0,1-.81.15,2,2,0,0,1-1-.24,1.69,1.69,0,0,1-.68-.67,1.85,1.85,0,0,1-.25-1,2,2,0,0,1,.23-1,1.75,1.75,0,0,1,.65-.67,2,2,0,0,1,1.84,0,1.63,1.63,0,0,1,.63.67,1.9,1.9,0,0,1,.23,1Zm-2.67-1.26a1.33,1.33,0,0,0-.41.89h2.61a1.33,1.33,0,0,0-.41-.89,1.29,1.29,0,0,0-.9-.34A1.26,1.26,0,0,0,924.14,375.13Z"/><path d="M928.38,377.87a1.75,1.75,0,0,1-.68-.67,2.06,2.06,0,0,1,0-1.93,1.75,1.75,0,0,1,.68-.67,2.07,2.07,0,0,1,1-.23,2,2,0,0,1,.86.18,1.46,1.46,0,0,1,.59.54l-.37.26a1.15,1.15,0,0,0-.47-.41,1.37,1.37,0,0,0-.61-.14,1.41,1.41,0,0,0-.71.18,1.23,1.23,0,0,0-.5.51,1.5,1.5,0,0,0-.18.74,1.55,1.55,0,0,0,.18.76,1.27,1.27,0,0,0,.5.5,1.41,1.41,0,0,0,.71.18,1.36,1.36,0,0,0,.61-.13,1.23,1.23,0,0,0,.47-.41l.37.25a1.51,1.51,0,0,1-.6.55,1.93,1.93,0,0,1-.85.18A2,2,0,0,1,928.38,377.87Z"/><path d="M933.75,377.85a.79.79,0,0,1-.35.19,1.21,1.21,0,0,1-.43.07,1,1,0,0,1-.79-.28,1.06,1.06,0,0,1-.28-.79v-2.23h-.66v-.42h.66v-.8h.49v.8h1.12v.42h-1.12V377a.69.69,0,0,0,.17.5.61.61,0,0,0,.47.17.79.79,0,0,0,.3-.05.62.62,0,0,0,.25-.14Z"/><path d="M934.65,373.48a.34.34,0,0,1-.11-.25.34.34,0,0,1,.11-.24.35.35,0,0,1,.26-.11.42.42,0,0,1,.26.1.33.33,0,0,1,.1.24.34.34,0,0,1-.1.26.38.38,0,0,1-.26.11A.35.35,0,0,1,934.65,373.48Zm0,.91h.5v3.69h-.5Z"/><path d="M937.08,377.87a1.73,1.73,0,0,1-.67-.67,2.06,2.06,0,0,1,0-1.93,1.73,1.73,0,0,1,.67-.67,2.06,2.06,0,0,1,1-.23,2,2,0,0,1,1,.23,1.66,1.66,0,0,1,.67.67,2.06,2.06,0,0,1,0,1.93,1.66,1.66,0,0,1-.67.67,1.9,1.9,0,0,1-1,.24A2,2,0,0,1,937.08,377.87Zm1.67-.38a1.24,1.24,0,0,0,.48-.51,1.54,1.54,0,0,0,.18-.75,1.5,1.5,0,0,0-.18-.74,1.24,1.24,0,0,0-.48-.51,1.41,1.41,0,0,0-.71-.18,1.38,1.38,0,0,0-.7.18,1.27,1.27,0,0,0-.49.51,1.5,1.5,0,0,0-.18.74,1.54,1.54,0,0,0,.18.75,1.27,1.27,0,0,0,.49.51,1.38,1.38,0,0,0,.7.18A1.41,1.41,0,0,0,938.75,377.49Z"/><path d="M943.9,374.77a1.55,1.55,0,0,1,.41,1.17v2.14h-.49V376a1.26,1.26,0,0,0-.29-.88,1.07,1.07,0,0,0-.82-.3,1.24,1.24,0,0,0-.94.36,1.32,1.32,0,0,0-.35,1v1.94h-.49v-3.69h.47v.68a1.4,1.4,0,0,1,.56-.52,1.89,1.89,0,0,1,.84-.18A1.49,1.49,0,0,1,943.9,374.77Z"/><path d="M948,377.87a1.8,1.8,0,0,1-.67-.67,2.06,2.06,0,0,1,0-1.93,1.8,1.8,0,0,1,.67-.67,2.06,2.06,0,0,1,1-.23,2,2,0,0,1,1,.23,1.66,1.66,0,0,1,.67.67,2.06,2.06,0,0,1,0,1.93,1.66,1.66,0,0,1-.67.67,1.9,1.9,0,0,1-1,.24A2,2,0,0,1,948,377.87Zm1.67-.38a1.18,1.18,0,0,0,.48-.51,1.54,1.54,0,0,0,.18-.75,1.5,1.5,0,0,0-.18-.74,1.18,1.18,0,0,0-.48-.51,1.41,1.41,0,0,0-.71-.18,1.38,1.38,0,0,0-.7.18,1.27,1.27,0,0,0-.49.51,1.5,1.5,0,0,0-.18.74,1.54,1.54,0,0,0,.18.75,1.27,1.27,0,0,0,.49.51,1.38,1.38,0,0,0,.7.18A1.41,1.41,0,0,0,949.71,377.49Z"/><path d="M952.62,373.44a.74.74,0,0,0-.17.52v.43h1.14v.42h-1.12v3.27H952v-3.27h-.66v-.42H952v-.45a1,1,0,0,1,1.11-1.09,1.4,1.4,0,0,1,.41.06.86.86,0,0,1,.33.17l-.17.37a.82.82,0,0,0-.54-.18A.66.66,0,0,0,952.62,373.44Z"/><path d="M961.13,378.49a1.51,1.51,0,0,1-.52.42,1.67,1.67,0,0,1-.67.14,1.63,1.63,0,0,1-.82-.22,3.82,3.82,0,0,1-.87-.71,2.68,2.68,0,0,1-1.27-.35,2.38,2.38,0,0,1-.89-.89,2.4,2.4,0,0,1-.32-1.25,2.49,2.49,0,0,1,.33-1.28,2.39,2.39,0,0,1,.92-.89,2.69,2.69,0,0,1,1.32-.33,2.6,2.6,0,0,1,1.31.33,2.32,2.32,0,0,1,.92.89,2.4,2.4,0,0,1,.34,1.28,2.53,2.53,0,0,1-.25,1.13,2.37,2.37,0,0,1-.72.85,2.62,2.62,0,0,1-1.05.46,1.51,1.51,0,0,0,1.06.57,1.16,1.16,0,0,0,.93-.45Zm-4.58-1.83a1.92,1.92,0,0,0,.74.73,2.18,2.18,0,0,0,2.1,0,2,2,0,0,0,.74-.73,2.19,2.19,0,0,0,0-2.07,2,2,0,0,0-.74-.73,2.25,2.25,0,0,0-2.1,0,1.92,1.92,0,0,0-.74.73,2.12,2.12,0,0,0,0,2.07Z"/><path d="M965.29,374.39v3.69h-.48v-.68a1.38,1.38,0,0,1-.54.53,1.66,1.66,0,0,1-.78.18,1.43,1.43,0,0,1-1.56-1.58v-2.14h.5v2.09a1.23,1.23,0,0,0,.29.88,1.07,1.07,0,0,0,.82.3,1.21,1.21,0,0,0,.91-.35,1.34,1.34,0,0,0,.34-1v-1.94Z"/><path d="M969.88,376.39H966.8a1.34,1.34,0,0,0,.45.93,1.47,1.47,0,0,0,1,.35,1.61,1.61,0,0,0,.63-.12,1.36,1.36,0,0,0,.5-.36l.28.32a1.73,1.73,0,0,1-.61.45,2.16,2.16,0,0,1-.81.15,2.09,2.09,0,0,1-1-.24,1.75,1.75,0,0,1-.68-.67,1.94,1.94,0,0,1-.24-1,2,2,0,0,1,.23-1,1.68,1.68,0,0,1,.65-.67,1.87,1.87,0,0,1,.92-.23,1.84,1.84,0,0,1,.91.23,1.65,1.65,0,0,1,.64.67,2,2,0,0,1,.23,1Zm-2.67-1.26a1.38,1.38,0,0,0-.41.89h2.62a1.38,1.38,0,0,0-.41-.89,1.36,1.36,0,0,0-1.8,0Z"/><path d="M974.11,376.39H971a1.37,1.37,0,0,0,.44.93,1.51,1.51,0,0,0,1,.35,1.61,1.61,0,0,0,.63-.12,1.36,1.36,0,0,0,.5-.36l.28.32a1.83,1.83,0,0,1-.61.45,2.16,2.16,0,0,1-.81.15,2.07,2.07,0,0,1-1-.24,1.69,1.69,0,0,1-.68-.67,2.1,2.1,0,0,1,0-1.93,1.72,1.72,0,0,1,.64-.67,1.9,1.9,0,0,1,.92-.23,1.87,1.87,0,0,1,.92.23,1.72,1.72,0,0,1,.64.67,2,2,0,0,1,.23,1Zm-2.67-1.26a1.33,1.33,0,0,0-.41.89h2.61a1.33,1.33,0,0,0-.41-.89,1.35,1.35,0,0,0-1.79,0Z"/><path d="M978.11,374.77a1.59,1.59,0,0,1,.41,1.17v2.14H978V376a1.26,1.26,0,0,0-.28-.88,1.09,1.09,0,0,0-.82-.3,1.24,1.24,0,0,0-.94.36,1.32,1.32,0,0,0-.35,1v1.94h-.5v-3.69h.48v.68a1.4,1.4,0,0,1,.56-.52,1.86,1.86,0,0,1,.84-.18A1.49,1.49,0,0,1,978.11,374.77Z"/><path d="M980,378a1.82,1.82,0,0,1-.64-.32l.23-.4a1.67,1.67,0,0,0,.58.3,2.18,2.18,0,0,0,.72.12,1.44,1.44,0,0,0,.75-.16.51.51,0,0,0,.24-.45.37.37,0,0,0-.13-.31.85.85,0,0,0-.34-.18,3.35,3.35,0,0,0-.54-.11,6.81,6.81,0,0,1-.72-.18,1,1,0,0,1-.46-.29.83.83,0,0,1-.19-.58.91.91,0,0,1,.38-.76,1.7,1.7,0,0,1,1.07-.29,3,3,0,0,1,.72.09,2,2,0,0,1,.58.25l-.21.4a1.89,1.89,0,0,0-1.09-.32,1.27,1.27,0,0,0-.72.17.51.51,0,0,0-.24.44.46.46,0,0,0,.14.34.85.85,0,0,0,.34.18l.56.13a6.34,6.34,0,0,1,.7.16,1.16,1.16,0,0,1,.46.29.78.78,0,0,1,.19.56.92.92,0,0,1-.4.77,1.91,1.91,0,0,1-1.12.28A2.76,2.76,0,0,1,980,378Z"/><path d="M989.07,376a1.2,1.2,0,0,1,.26.8,1.14,1.14,0,0,1-.47,1,2.36,2.36,0,0,1-1.37.34h-2.26v-4.9h2.12a2.21,2.21,0,0,1,1.27.32,1.09,1.09,0,0,1,.45.94,1.14,1.14,0,0,1-.2.68,1.18,1.18,0,0,1-.55.43A1.33,1.33,0,0,1,989.07,376Zm-3.32-2.37v1.78h1.56a1.58,1.58,0,0,0,.92-.23.84.84,0,0,0,0-1.32,1.58,1.58,0,0,0-.92-.23Zm2.73,3.82a.77.77,0,0,0,.33-.7c0-.61-.44-.91-1.33-.91h-1.73v1.84h1.73A1.83,1.83,0,0,0,988.48,377.42Z"/><path d="M990.41,372.88h.5v5.2h-.5Z"/><path d="M995.38,374.39l-1.63,3.69h-.51l-1.64-3.69h.52l1.38,3.14,1.39-3.14Z"/><path d="M999.34,372.88v5.2h-.48v-.73a1.44,1.44,0,0,1-.59.56,1.62,1.62,0,0,1-.83.2,1.91,1.91,0,0,1-.94-.24,1.79,1.79,0,0,1-.65-.66,2.1,2.1,0,0,1,0-1.95,1.79,1.79,0,0,1,.65-.66,1.9,1.9,0,0,1,.94-.23,1.79,1.79,0,0,1,.81.18,1.53,1.53,0,0,1,.59.54v-2.21Zm-1.16,4.61a1.27,1.27,0,0,0,.49-.51,1.54,1.54,0,0,0,.18-.75,1.5,1.5,0,0,0-.18-.74,1.27,1.27,0,0,0-.49-.51,1.37,1.37,0,0,0-.69-.18,1.39,1.39,0,0,0-.71.18,1.27,1.27,0,0,0-.49.51,1.5,1.5,0,0,0-.18.74,1.54,1.54,0,0,0,.18.75,1.27,1.27,0,0,0,.49.51,1.39,1.39,0,0,0,.71.18A1.37,1.37,0,0,0,998.18,377.49Z"/><path d="M1005,374.73a1.37,1.37,0,0,1,.39,1.06v2.29h-.48v-.58a1.13,1.13,0,0,1-.49.45,1.71,1.71,0,0,1-.77.16,1.55,1.55,0,0,1-1-.29,1,1,0,0,1-.37-.78,1,1,0,0,1,.34-.76,1.68,1.68,0,0,1,1.08-.28h1.17v-.23a1,1,0,0,0-.26-.72,1.09,1.09,0,0,0-.78-.25,1.89,1.89,0,0,0-.67.12,1.69,1.69,0,0,0-.56.31l-.22-.37a1.88,1.88,0,0,1,.67-.36,2.53,2.53,0,0,1,.83-.13A1.53,1.53,0,0,1,1005,374.73Zm-.56,2.8a1.2,1.2,0,0,0,.45-.56v-.6h-1.15c-.63,0-1,.22-1,.66a.58.58,0,0,0,.25.5,1.06,1.06,0,0,0,.68.19A1.38,1.38,0,0,0,1004.39,377.53Z"/><path d="M1009.67,374.77a1.59,1.59,0,0,1,.41,1.17v2.14h-.5V376a1.22,1.22,0,0,0-.29-.88,1.07,1.07,0,0,0-.82-.3,1.25,1.25,0,0,0-.94.36,1.32,1.32,0,0,0-.34,1v1.94h-.5v-3.69h.48v.68a1.34,1.34,0,0,1,.56-.52,1.86,1.86,0,0,1,.84-.18A1.49,1.49,0,0,1,1009.67,374.77Z"/><path d="M1014.8,372.88v5.2h-.47v-.73a1.51,1.51,0,0,1-.59.56,1.67,1.67,0,0,1-.83.2,1.85,1.85,0,0,1-.94-.24,1.74,1.74,0,0,1-.66-.66,2.1,2.1,0,0,1,0-1.95,1.74,1.74,0,0,1,.66-.66,1.85,1.85,0,0,1,.94-.23,1.74,1.74,0,0,1,.8.18,1.56,1.56,0,0,1,.6.54v-2.21Zm-1.16,4.61a1.21,1.21,0,0,0,.49-.51,1.54,1.54,0,0,0,.18-.75,1.5,1.5,0,0,0-.18-.74,1.21,1.21,0,0,0-.49-.51,1.31,1.31,0,0,0-.69-.18,1.41,1.41,0,0,0-.71.18,1.34,1.34,0,0,0-.49.51,1.61,1.61,0,0,0-.17.74,1.66,1.66,0,0,0,.17.75,1.34,1.34,0,0,0,.49.51,1.41,1.41,0,0,0,.71.18A1.31,1.31,0,0,0,1013.64,377.49Z"/><path d="M904.25,386.34a1.86,1.86,0,0,1-.77-.46l.2-.4a1.9,1.9,0,0,0,.71.43,2.53,2.53,0,0,0,.91.17,1.55,1.55,0,0,0,1-.25.73.73,0,0,0,.33-.62.63.63,0,0,0-.18-.47,1.05,1.05,0,0,0-.43-.27c-.17-.06-.42-.13-.72-.21a6.54,6.54,0,0,1-.89-.27,1.36,1.36,0,0,1-.56-.39,1,1,0,0,1-.23-.72,1.25,1.25,0,0,1,.19-.68,1.34,1.34,0,0,1,.6-.48,2.37,2.37,0,0,1,1-.19,2.81,2.81,0,0,1,.82.12,2.26,2.26,0,0,1,.7.32l-.17.41a2.45,2.45,0,0,0-.66-.3,2.37,2.37,0,0,0-.69-.11,1.63,1.63,0,0,0-1,.25.79.79,0,0,0-.32.64.65.65,0,0,0,.18.48,1.09,1.09,0,0,0,.44.27l.73.21a5.48,5.48,0,0,1,.87.26,1.29,1.29,0,0,1,.56.39,1,1,0,0,1,.23.71,1.18,1.18,0,0,1-.2.68,1.31,1.31,0,0,1-.61.48,2.5,2.5,0,0,1-1,.18A3,3,0,0,1,904.25,386.34Z"/><path d="M909.51,384.63l-.87.8v1.05h-.49v-5.2h.49v3.52l2.2-2h.62l-1.58,1.51,1.72,2.18H911Z"/><path d="M912.29,381.88a.33.33,0,0,1-.1-.25.33.33,0,0,1,.1-.24.36.36,0,0,1,.26-.11.4.4,0,0,1,.26.1.33.33,0,0,1,.1.24.34.34,0,0,1-.1.26.36.36,0,0,1-.52,0Zm0,.91h.49v3.69h-.49Z"/><path d="M914.18,381.28h.5v5.2h-.5Z"/><path d="M916.06,381.28h.5v5.2h-.5Z"/><path d="M923.63,383.16a1.63,1.63,0,0,1,.39,1.18v2.14h-.49v-2.09a1.31,1.31,0,0,0-.28-.88,1,1,0,0,0-.78-.3,1.17,1.17,0,0,0-.91.36,1.4,1.4,0,0,0-.32,1v1.94h-.5v-2.09a1.26,1.26,0,0,0-.28-.88,1,1,0,0,0-.79-.3,1.15,1.15,0,0,0-.89.36,1.32,1.32,0,0,0-.34,1v1.94H918v-3.69h.47v.68A1.26,1.26,0,0,1,919,383a1.71,1.71,0,0,1,.8-.18,1.55,1.55,0,0,1,.8.19,1.21,1.21,0,0,1,.51.58,1.47,1.47,0,0,1,.59-.57,1.75,1.75,0,0,1,.87-.2A1.5,1.5,0,0,1,923.63,383.16Z"/><path d="M927.77,383.13a1.4,1.4,0,0,1,.38,1.06v2.29h-.47v-.58a1.22,1.22,0,0,1-.5.45,1.68,1.68,0,0,1-.77.16,1.55,1.55,0,0,1-1-.29,1,1,0,0,1-.37-.78,1,1,0,0,1,.34-.76,1.7,1.7,0,0,1,1.09-.28h1.16v-.23a.92.92,0,0,0-.26-.72,1.09,1.09,0,0,0-.78-.25,2.14,2.14,0,0,0-.67.11,1.73,1.73,0,0,0-.55.32l-.23-.37a1.88,1.88,0,0,1,.67-.36,2.57,2.57,0,0,1,.83-.13A1.58,1.58,0,0,1,927.77,383.13Zm-.56,2.8a1.12,1.12,0,0,0,.44-.56v-.6H926.5c-.63,0-1,.22-1,.66a.6.6,0,0,0,.25.5,1.07,1.07,0,0,0,.69.19A1.38,1.38,0,0,0,927.21,385.93Z"/><path d="M932.48,383.17a1.59,1.59,0,0,1,.41,1.17v2.14h-.5v-2.09a1.26,1.26,0,0,0-.28-.88,1.09,1.09,0,0,0-.82-.3,1.24,1.24,0,0,0-.94.36,1.32,1.32,0,0,0-.35,1v1.94h-.5v-3.69H930v.68a1.34,1.34,0,0,1,.56-.52,1.86,1.86,0,0,1,.84-.18A1.49,1.49,0,0,1,932.48,383.17Z"/><path d="M939.25,385.17h-2.73l-.58,1.31h-.54l2.24-4.9h.51l2.24,4.9h-.55Zm-.19-.42-1.17-2.64-1.18,2.64Z"/><path d="M944,382.79l-1.64,3.69h-.51l-1.63-3.69h.51l1.38,3.14,1.4-3.14Z"/><path d="M906.93,394.27v.61h-3.52v-.48l2-1.92a2.26,2.26,0,0,0,.49-.61,1.08,1.08,0,0,0,.13-.52.71.71,0,0,0-.27-.59,1.18,1.18,0,0,0-.77-.22,1.54,1.54,0,0,0-1.26.54l-.47-.42a1.91,1.91,0,0,1,.75-.54,2.68,2.68,0,0,1,1-.2,1.85,1.85,0,0,1,1.22.37,1.19,1.19,0,0,1,.46,1,1.74,1.74,0,0,1-.17.74,2.88,2.88,0,0,1-.64.8l-1.49,1.44Z"/><path d="M907.7,394.78a.48.48,0,0,1,0-.68A.42.42,0,0,1,908,394a.43.43,0,0,1,.33.13.47.47,0,0,1,.14.35.46.46,0,0,1-.14.34.46.46,0,0,1-.66,0Z"/><path d="M913.29,394.65a.79.79,0,0,1-.35.19,1.21,1.21,0,0,1-.43.07,1,1,0,0,1-.79-.28,1.06,1.06,0,0,1-.28-.79v-2.23h-.66v-.42h.66v-.8h.49v.8h1.12v.42h-1.12v2.2a.69.69,0,0,0,.17.5.61.61,0,0,0,.47.17,1,1,0,0,0,.3,0,.79.79,0,0,0,.25-.15Z"/><path d="M916.59,391.53a1.4,1.4,0,0,1,.38,1.06v2.29h-.47v-.58a1.22,1.22,0,0,1-.5.45,1.65,1.65,0,0,1-.77.16,1.55,1.55,0,0,1-1-.29,1,1,0,0,1-.36-.78,1,1,0,0,1,.34-.76,1.65,1.65,0,0,1,1.08-.28h1.17v-.23a.93.93,0,0,0-.27-.72,1.09,1.09,0,0,0-.78-.25,1.93,1.93,0,0,0-.67.12,1.64,1.64,0,0,0-.55.31l-.23-.37a1.84,1.84,0,0,1,.68-.36,2.47,2.47,0,0,1,.82-.13A1.58,1.58,0,0,1,916.59,391.53Zm-.56,2.8a1.2,1.2,0,0,0,.45-.56v-.6h-1.16c-.63,0-.94.22-.94.66a.59.59,0,0,0,.24.5,1.07,1.07,0,0,0,.69.19A1.29,1.29,0,0,0,916,394.33Z"/><path d="M919.69,393l-.87.8v1.05h-.5v-5.2h.5v3.52l2.2-2h.61l-1.57,1.51,1.72,2.18h-.61Z"/><path d="M925.59,393.19h-3.08a1.37,1.37,0,0,0,.44.93,1.49,1.49,0,0,0,1,.35,1.61,1.61,0,0,0,.63-.12,1.36,1.36,0,0,0,.5-.36l.28.32a1.77,1.77,0,0,1-.62.45,2.23,2.23,0,0,1-1.81-.09,1.69,1.69,0,0,1-.68-.67,1.83,1.83,0,0,1-.25-1,1.94,1.94,0,0,1,.24-1,1.65,1.65,0,0,1,.64-.67,1.9,1.9,0,0,1,.92-.23,1.87,1.87,0,0,1,.92.23,1.72,1.72,0,0,1,.64.67,2,2,0,0,1,.23,1Zm-2.67-1.26a1.33,1.33,0,0,0-.41.89h2.61a1.33,1.33,0,0,0-.41-.89,1.35,1.35,0,0,0-1.79,0Z"/><path d="M930.38,394.65a.81.81,0,0,1-.34.19,1.25,1.25,0,0,1-.43.07,1,1,0,0,1-1.08-1.07v-2.23h-.66v-.42h.66v-.8h.5v.8h1.12v.42H929v2.2a.68.68,0,0,0,.16.5.61.61,0,0,0,.47.17,1,1,0,0,0,.3,0,.7.7,0,0,0,.25-.15Z"/><path d="M934.27,391.57a1.58,1.58,0,0,1,.4,1.17v2.14h-.49v-2.09a1.22,1.22,0,0,0-.29-.87,1,1,0,0,0-.82-.31,1.24,1.24,0,0,0-.94.36,1.32,1.32,0,0,0-.35,1v1.94h-.49v-5.2h.49v2.16a1.42,1.42,0,0,1,.56-.5,1.8,1.8,0,0,1,.82-.17A1.53,1.53,0,0,1,934.27,391.57Z"/><path d="M939.25,393.19h-3.08a1.29,1.29,0,0,0,.44.93,1.48,1.48,0,0,0,1,.35,1.68,1.68,0,0,0,.63-.12,1.33,1.33,0,0,0,.49-.36l.28.32a1.65,1.65,0,0,1-.61.45,2.09,2.09,0,0,1-.81.15,2,2,0,0,1-1-.24,1.69,1.69,0,0,1-.68-.67,1.83,1.83,0,0,1-.25-1,2,2,0,0,1,.23-1,1.75,1.75,0,0,1,.65-.67,2,2,0,0,1,1.84,0,1.63,1.63,0,0,1,.63.67,1.91,1.91,0,0,1,.23,1Zm-2.67-1.26a1.33,1.33,0,0,0-.41.89h2.61a1.33,1.33,0,0,0-.41-.89,1.29,1.29,0,0,0-.9-.34A1.26,1.26,0,0,0,936.58,391.93Z"/><path class="cls-2" d="M947.14,395.29a1.54,1.54,0,0,1-.53.42,1.59,1.59,0,0,1-.66.14,1.7,1.7,0,0,1-.82-.21,4.2,4.2,0,0,1-.87-.72,2.75,2.75,0,0,1-1.28-.35,2.53,2.53,0,0,1-.89-.89,2.5,2.5,0,0,1-.32-1.25,2.43,2.43,0,0,1,1.26-2.17,2.79,2.79,0,0,1,2.63,0,2.32,2.32,0,0,1,.92.89,2.4,2.4,0,0,1,.34,1.28,2.54,2.54,0,0,1-.26,1.13,2.35,2.35,0,0,1-.71.85,2.62,2.62,0,0,1-1.05.46,1.49,1.49,0,0,0,1.06.57,1.19,1.19,0,0,0,.93-.45Zm-4.59-1.83a2,2,0,0,0,.75.73,2.18,2.18,0,0,0,2.1,0,1.9,1.9,0,0,0,.73-.73,2.12,2.12,0,0,0,0-2.07,1.9,1.9,0,0,0-.73-.73,2.25,2.25,0,0,0-2.1,0,2,2,0,0,0-.75.73,2.12,2.12,0,0,0,0,2.07Z"/><path class="cls-2" d="M950.53,392.12a1.5,1.5,0,0,1,.59.52,1.41,1.41,0,0,1,.21.77,1.38,1.38,0,0,1-.22.79,1.35,1.35,0,0,1-.6.53,2,2,0,0,1-2.35-.45,2.85,2.85,0,0,1-.51-1.81,3.08,3.08,0,0,1,.28-1.39,1.92,1.92,0,0,1,.78-.86,2.37,2.37,0,0,1,1.18-.29,2.19,2.19,0,0,1,1.16.27l-.2.41a1.71,1.71,0,0,0-1-.23,1.63,1.63,0,0,0-1.27.51,2.14,2.14,0,0,0-.46,1.49,2.89,2.89,0,0,0,0,.4,1.34,1.34,0,0,1,.58-.62,2,2,0,0,1,.92-.22A1.93,1.93,0,0,1,950.53,392.12Zm0,2.08a1,1,0,0,0,.33-.77,1,1,0,0,0-.33-.77,1.33,1.33,0,0,0-.9-.29,1.53,1.53,0,0,0-.66.14,1.1,1.1,0,0,0-.44.39.93.93,0,0,0-.16.54,1,1,0,0,0,.15.52,1,1,0,0,0,.44.38,1.54,1.54,0,0,0,.7.15A1.29,1.29,0,0,0,950.5,394.2Z"/><path class="cls-2" d="M952.85,394.62a1.89,1.89,0,0,1-.69-.87,3.17,3.17,0,0,1-.25-1.32,3.22,3.22,0,0,1,.25-1.33,2,2,0,0,1,.69-.87,1.76,1.76,0,0,1,1-.3,1.74,1.74,0,0,1,1,.3,2,2,0,0,1,.7.87,3.22,3.22,0,0,1,.25,1.33,3.17,3.17,0,0,1-.25,1.32,2,2,0,0,1-.7.87,1.74,1.74,0,0,1-1,.3A1.76,1.76,0,0,1,952.85,394.62Zm1.76-.4a1.51,1.51,0,0,0,.51-.7,2.93,2.93,0,0,0,.18-1.09,3,3,0,0,0-.18-1.1,1.51,1.51,0,0,0-.51-.7,1.26,1.26,0,0,0-.75-.23,1.3,1.3,0,0,0-.75.23,1.51,1.51,0,0,0-.51.7,3,3,0,0,0-.18,1.1,2.93,2.93,0,0,0,.18,1.09,1.51,1.51,0,0,0,.51.7,1.24,1.24,0,0,0,.75.24A1.2,1.2,0,0,0,954.61,394.22Z"/><path d="M959.44,390.24a.74.74,0,0,0-.17.52v.43h1.14v.42h-1.12v3.27h-.5v-3.27h-.66v-.42h.66v-.45a1.11,1.11,0,0,1,.29-.8,1.12,1.12,0,0,1,.82-.29,1.4,1.4,0,0,1,.41.06.86.86,0,0,1,.33.17l-.17.37a.83.83,0,0,0-.55-.18A.65.65,0,0,0,959.44,390.24Z"/><path d="M962.64,391.35a1.81,1.81,0,0,1,.85-.18v.48h-.12a1.18,1.18,0,0,0-.91.36,1.46,1.46,0,0,0-.32,1v1.88h-.5v-3.69h.47v.73A1.27,1.27,0,0,1,962.64,391.35Z"/><path d="M964.9,394.67a1.73,1.73,0,0,1-.67-.67,2,2,0,0,1,0-1.93,1.73,1.73,0,0,1,.67-.67,2,2,0,0,1,1-.23,2.06,2.06,0,0,1,1,.23,1.73,1.73,0,0,1,.67.67,2.06,2.06,0,0,1,0,1.93,1.73,1.73,0,0,1-.67.67,2,2,0,0,1-1,.24A1.9,1.9,0,0,1,964.9,394.67Zm1.66-.38a1.27,1.27,0,0,0,.49-.51,1.72,1.72,0,0,0,0-1.49,1.27,1.27,0,0,0-.49-.51,1.38,1.38,0,0,0-.7-.18,1.35,1.35,0,0,0-.7.18,1.21,1.21,0,0,0-.49.51,1.51,1.51,0,0,0-.18.75,1.53,1.53,0,0,0,.18.74,1.21,1.21,0,0,0,.49.51,1.35,1.35,0,0,0,.7.18A1.38,1.38,0,0,0,966.56,394.29Z"/><path d="M974.42,391.56a1.59,1.59,0,0,1,.4,1.18v2.14h-.5v-2.09a1.21,1.21,0,0,0-.28-.87,1,1,0,0,0-.78-.31,1.16,1.16,0,0,0-.9.36,1.36,1.36,0,0,0-.33,1v1.94h-.49v-2.09a1.26,1.26,0,0,0-.28-.87,1,1,0,0,0-.79-.31,1.16,1.16,0,0,0-.9.36,1.36,1.36,0,0,0-.33,1v1.94h-.5v-3.69h.48v.68a1.29,1.29,0,0,1,.54-.52,1.79,1.79,0,0,1,.81-.18,1.58,1.58,0,0,1,.8.19,1.21,1.21,0,0,1,.51.58,1.45,1.45,0,0,1,.58-.57,1.8,1.8,0,0,1,.87-.2A1.47,1.47,0,0,1,974.42,391.56Z"/><path d="M981,391.57a1.59,1.59,0,0,1,.41,1.17v2.14h-.5v-2.09a1.21,1.21,0,0,0-.28-.87,1.06,1.06,0,0,0-.82-.31,1.24,1.24,0,0,0-.94.36,1.32,1.32,0,0,0-.35,1v1.94H978v-5.2h.5v2.16a1.36,1.36,0,0,1,.56-.5,1.8,1.8,0,0,1,.82-.17A1.49,1.49,0,0,1,981,391.57Z"/><path d="M986,393.19h-3.08a1.37,1.37,0,0,0,.44.93,1.51,1.51,0,0,0,1,.35,1.61,1.61,0,0,0,.63-.12,1.36,1.36,0,0,0,.5-.36l.28.32a1.73,1.73,0,0,1-.61.45,2.16,2.16,0,0,1-.81.15,2.07,2.07,0,0,1-1-.24,1.69,1.69,0,0,1-.68-.67,2.1,2.1,0,0,1,0-1.93,1.72,1.72,0,0,1,.64-.67,1.9,1.9,0,0,1,.92-.23,1.85,1.85,0,0,1,.92.23,1.72,1.72,0,0,1,.64.67,2,2,0,0,1,.23,1Zm-2.67-1.26a1.38,1.38,0,0,0-.41.89h2.61a1.33,1.33,0,0,0-.41-.89,1.35,1.35,0,0,0-1.79,0Z"/><path d="M988,391.35a1.86,1.86,0,0,1,.86-.18v.48h-.12a1.17,1.17,0,0,0-.91.36,1.42,1.42,0,0,0-.33,1v1.88H987v-3.69h.48v.73A1.25,1.25,0,0,1,988,391.35Z"/><path d="M992.91,393.19h-3.08a1.29,1.29,0,0,0,.44.93,1.47,1.47,0,0,0,1,.35,1.69,1.69,0,0,0,.64-.12,1.33,1.33,0,0,0,.49-.36l.28.32a1.73,1.73,0,0,1-.61.45,2.16,2.16,0,0,1-.81.15,2,2,0,0,1-1-.24,1.71,1.71,0,0,1-.69-.67,1.93,1.93,0,0,1-.24-1,2,2,0,0,1,.23-1,1.68,1.68,0,0,1,.65-.67,1.87,1.87,0,0,1,.92-.23,1.84,1.84,0,0,1,.91.23,1.59,1.59,0,0,1,.64.67,1.91,1.91,0,0,1,.23,1Zm-2.67-1.26a1.33,1.33,0,0,0-.41.89h2.61a1.38,1.38,0,0,0-.41-.89,1.29,1.29,0,0,0-.9-.34A1.26,1.26,0,0,0,990.24,391.93Z"/><path d="M997.7,394.65a.79.79,0,0,1-.35.19,1.21,1.21,0,0,1-.43.07,1.08,1.08,0,0,1-.8-.28,1.1,1.1,0,0,1-.27-.79v-2.23h-.66v-.42h.66v-.8h.49v.8h1.12v.42h-1.12v2.2a.69.69,0,0,0,.17.5.59.59,0,0,0,.47.17,1,1,0,0,0,.3,0,.79.79,0,0,0,.25-.15Z"/><path d="M999,394.67a1.75,1.75,0,0,1-.68-.67,2.06,2.06,0,0,1,0-1.93,1.75,1.75,0,0,1,.68-.67,2.1,2.1,0,0,1,1.91,0,1.66,1.66,0,0,1,.67.67,2.06,2.06,0,0,1,0,1.93,1.66,1.66,0,0,1-.67.67,2,2,0,0,1-1.91,0Zm1.66-.38a1.27,1.27,0,0,0,.49-.51,1.64,1.64,0,0,0,.17-.74,1.63,1.63,0,0,0-.17-.75,1.27,1.27,0,0,0-.49-.51,1.47,1.47,0,0,0-1.41,0,1.27,1.27,0,0,0-.49.51,1.51,1.51,0,0,0-.18.75,1.53,1.53,0,0,0,.18.74,1.27,1.27,0,0,0,.49.51,1.47,1.47,0,0,0,1.41,0Z"/><path d="M1006.63,394.65a.81.81,0,0,1-.34.19,1.29,1.29,0,0,1-.43.07,1,1,0,0,1-1.08-1.07v-2.23h-.66v-.42h.66v-.8h.49v.8h1.12v.42h-1.12v2.2a.69.69,0,0,0,.17.5.61.61,0,0,0,.47.17,1,1,0,0,0,.3,0,.79.79,0,0,0,.25-.15Z"/><path d="M1010.51,391.57a1.55,1.55,0,0,1,.41,1.17v2.14h-.49v-2.09a1.22,1.22,0,0,0-.29-.87,1.06,1.06,0,0,0-.82-.31,1.24,1.24,0,0,0-.94.36,1.32,1.32,0,0,0-.35,1v1.94h-.49v-5.2h.49v2.16a1.36,1.36,0,0,1,.56-.5,1.8,1.8,0,0,1,.82-.17A1.49,1.49,0,0,1,1010.51,391.57Z"/><path d="M1015.5,393.19h-3.08a1.29,1.29,0,0,0,.44.93,1.47,1.47,0,0,0,1,.35,1.61,1.61,0,0,0,.63-.12,1.36,1.36,0,0,0,.5-.36l.28.32a1.73,1.73,0,0,1-.61.45,2.16,2.16,0,0,1-.81.15,2.09,2.09,0,0,1-1-.24,1.75,1.75,0,0,1-.68-.67,1.93,1.93,0,0,1-.24-1,2,2,0,0,1,.23-1,1.68,1.68,0,0,1,.65-.67,1.87,1.87,0,0,1,.92-.23,1.84,1.84,0,0,1,.91.23,1.65,1.65,0,0,1,.64.67,2,2,0,0,1,.23,1Zm-2.68-1.26a1.32,1.32,0,0,0-.4.89H1015a1.38,1.38,0,0,0-.41-.89,1.36,1.36,0,0,0-1.8,0Z"/><path d="M903.83,398.68a.33.33,0,0,1-.1-.25.33.33,0,0,1,.1-.24.36.36,0,0,1,.26-.11.38.38,0,0,1,.26.1.34.34,0,0,1,.11.24.38.38,0,0,1-.37.37A.36.36,0,0,1,903.83,398.68Zm0,.91h.5v3.69h-.5Z"/><path d="M908.7,400a1.55,1.55,0,0,1,.41,1.17v2.14h-.49v-2.09a1.26,1.26,0,0,0-.29-.88,1.09,1.09,0,0,0-.82-.3,1.24,1.24,0,0,0-.94.36,1.32,1.32,0,0,0-.35,1v1.94h-.5v-3.69h.48v.68a1.48,1.48,0,0,1,.56-.52,1.86,1.86,0,0,1,.84-.18A1.49,1.49,0,0,1,908.7,400Z"/><path d="M912.4,403.05a.81.81,0,0,1-.34.19,1.29,1.29,0,0,1-.43.07,1,1,0,0,1-1.08-1.07V400h-.66v-.42h.66v-.8H911v.8h1.12V400H911v2.2a.69.69,0,0,0,.17.5.61.61,0,0,0,.47.17.79.79,0,0,0,.3-.05.62.62,0,0,0,.25-.14Z"/><path d="M916.38,401.59H913.3a1.33,1.33,0,0,0,.44.93,1.49,1.49,0,0,0,1,.35,1.61,1.61,0,0,0,.63-.12,1.33,1.33,0,0,0,.49-.36l.28.32a1.65,1.65,0,0,1-.61.45,2.09,2.09,0,0,1-.81.15,2.05,2.05,0,0,1-1-.24,1.69,1.69,0,0,1-.68-.67,1.83,1.83,0,0,1-.25-1,1.94,1.94,0,0,1,.24-1,1.65,1.65,0,0,1,.64-.67,2,2,0,0,1,1.84,0,1.63,1.63,0,0,1,.63.67,1.91,1.91,0,0,1,.24,1Zm-2.67-1.26a1.33,1.33,0,0,0-.41.89h2.61a1.33,1.33,0,0,0-.41-.89,1.35,1.35,0,0,0-1.79,0Z"/><path d="M918.4,399.75a1.81,1.81,0,0,1,.85-.18v.48h-.11a1.17,1.17,0,0,0-.91.36,1.42,1.42,0,0,0-.33,1v1.88h-.5v-3.69h.48v.72A1.23,1.23,0,0,1,918.4,399.75Z"/><path d="M920.31,403.18a1.74,1.74,0,0,1-.64-.32l.22-.4a1.76,1.76,0,0,0,.58.3,2.28,2.28,0,0,0,.73.12,1.44,1.44,0,0,0,.75-.16.51.51,0,0,0,.24-.45.38.38,0,0,0-.14-.31.81.81,0,0,0-.33-.18,3.89,3.89,0,0,0-.54-.11,6.23,6.23,0,0,1-.72-.18,1,1,0,0,1-.47-.29.83.83,0,0,1-.19-.58.92.92,0,0,1,.39-.76,1.68,1.68,0,0,1,1.07-.29,2.94,2.94,0,0,1,.71.09,2,2,0,0,1,.59.25l-.22.4a1.84,1.84,0,0,0-1.08-.32,1.27,1.27,0,0,0-.72.17.51.51,0,0,0-.24.44.45.45,0,0,0,.13.34.92.92,0,0,0,.34.18l.56.13a6.6,6.6,0,0,1,.71.16,1.16,1.16,0,0,1,.46.29.82.82,0,0,1,.18.56.89.89,0,0,1-.4.77,1.9,1.9,0,0,1-1.11.28A2.71,2.71,0,0,1,920.31,403.18Z"/><path d="M926.81,401.59h-3.08a1.29,1.29,0,0,0,.44.93,1.48,1.48,0,0,0,1,.35,1.61,1.61,0,0,0,.63-.12,1.33,1.33,0,0,0,.49-.36l.28.32a1.65,1.65,0,0,1-.61.45,2.09,2.09,0,0,1-.81.15,2,2,0,0,1-1-.24,1.69,1.69,0,0,1-.68-.67,1.83,1.83,0,0,1-.25-1,2,2,0,0,1,.23-1,1.75,1.75,0,0,1,.65-.67,2,2,0,0,1,1.84,0,1.63,1.63,0,0,1,.63.67,1.91,1.91,0,0,1,.23,1Zm-2.67-1.26a1.33,1.33,0,0,0-.41.89h2.61a1.33,1.33,0,0,0-.41-.89,1.29,1.29,0,0,0-.9-.34A1.26,1.26,0,0,0,924.14,400.33Z"/><path d="M928.38,403.07a1.75,1.75,0,0,1-.68-.67,2.06,2.06,0,0,1,0-1.93,1.75,1.75,0,0,1,.68-.67,2.07,2.07,0,0,1,1-.23,2,2,0,0,1,.86.18,1.54,1.54,0,0,1,.59.54l-.37.26a1.15,1.15,0,0,0-.47-.41,1.37,1.37,0,0,0-.61-.14,1.41,1.41,0,0,0-.71.18,1.23,1.23,0,0,0-.5.51,1.51,1.51,0,0,0-.18.75,1.54,1.54,0,0,0,.18.75,1.27,1.27,0,0,0,.5.5,1.41,1.41,0,0,0,.71.18,1.36,1.36,0,0,0,.61-.13,1.23,1.23,0,0,0,.47-.41l.37.25a1.51,1.51,0,0,1-.6.55,1.93,1.93,0,0,1-.85.18A2,2,0,0,1,928.38,403.07Z"/><path d="M933.75,403.05a.79.79,0,0,1-.35.19,1.21,1.21,0,0,1-.43.07,1,1,0,0,1-.79-.28,1.06,1.06,0,0,1-.28-.79V400h-.66v-.42h.66v-.8h.49v.8h1.12V400h-1.12v2.2a.69.69,0,0,0,.17.5.61.61,0,0,0,.47.17.79.79,0,0,0,.3-.05.62.62,0,0,0,.25-.14Z"/><path d="M934.65,398.68a.34.34,0,0,1-.11-.25.34.34,0,0,1,.11-.24.35.35,0,0,1,.26-.11.42.42,0,0,1,.26.1.33.33,0,0,1,.1.24.34.34,0,0,1-.1.26.38.38,0,0,1-.26.11A.35.35,0,0,1,934.65,398.68Zm0,.91h.5v3.69h-.5Z"/><path d="M937.08,403.07a1.73,1.73,0,0,1-.67-.67,2.06,2.06,0,0,1,0-1.93,1.73,1.73,0,0,1,.67-.67,2.06,2.06,0,0,1,1-.23,2,2,0,0,1,1,.23,1.66,1.66,0,0,1,.67.67,2.06,2.06,0,0,1,0,1.93,1.66,1.66,0,0,1-.67.67,1.9,1.9,0,0,1-1,.24A2,2,0,0,1,937.08,403.07Zm1.67-.38a1.24,1.24,0,0,0,.48-.51,1.53,1.53,0,0,0,.18-.74,1.51,1.51,0,0,0-.18-.75,1.24,1.24,0,0,0-.48-.51A1.41,1.41,0,0,0,938,400a1.38,1.38,0,0,0-.7.18,1.27,1.27,0,0,0-.49.51,1.51,1.51,0,0,0-.18.75,1.53,1.53,0,0,0,.18.74,1.27,1.27,0,0,0,.49.51,1.38,1.38,0,0,0,.7.18A1.41,1.41,0,0,0,938.75,402.69Z"/><path d="M943.9,400a1.55,1.55,0,0,1,.41,1.17v2.14h-.49v-2.09a1.26,1.26,0,0,0-.29-.88,1.07,1.07,0,0,0-.82-.3,1.24,1.24,0,0,0-.94.36,1.32,1.32,0,0,0-.35,1v1.94h-.49v-3.69h.47v.68a1.48,1.48,0,0,1,.56-.52,1.89,1.89,0,0,1,.84-.18A1.49,1.49,0,0,1,943.9,400Z"/><path d="M948,403.07a1.8,1.8,0,0,1-.67-.67,2.06,2.06,0,0,1,0-1.93,1.8,1.8,0,0,1,.67-.67,2.06,2.06,0,0,1,1-.23,2,2,0,0,1,1,.23,1.66,1.66,0,0,1,.67.67,2.06,2.06,0,0,1,0,1.93,1.66,1.66,0,0,1-.67.67,1.9,1.9,0,0,1-1,.24A2,2,0,0,1,948,403.07Zm1.67-.38a1.18,1.18,0,0,0,.48-.51,1.53,1.53,0,0,0,.18-.74,1.51,1.51,0,0,0-.18-.75,1.18,1.18,0,0,0-.48-.51A1.41,1.41,0,0,0,949,400a1.38,1.38,0,0,0-.7.18,1.27,1.27,0,0,0-.49.51,1.51,1.51,0,0,0-.18.75,1.53,1.53,0,0,0,.18.74,1.27,1.27,0,0,0,.49.51,1.38,1.38,0,0,0,.7.18A1.41,1.41,0,0,0,949.71,402.69Z"/><path d="M952.62,398.64a.74.74,0,0,0-.17.52v.43h1.14V400h-1.12v3.27H952V400h-.66v-.42H952v-.45a1.11,1.11,0,0,1,.29-.8,1.14,1.14,0,0,1,.82-.29,1.4,1.4,0,0,1,.41.06.86.86,0,0,1,.33.17l-.17.37a.82.82,0,0,0-.54-.18A.66.66,0,0,0,952.62,398.64Z"/><path d="M961.13,403.69a1.51,1.51,0,0,1-.52.42,1.67,1.67,0,0,1-.67.14,1.72,1.72,0,0,1-.82-.21,4.2,4.2,0,0,1-.87-.72A2.68,2.68,0,0,1,957,403a2.38,2.38,0,0,1-.89-.89,2.4,2.4,0,0,1-.32-1.25,2.49,2.49,0,0,1,.33-1.28,2.39,2.39,0,0,1,.92-.89,2.69,2.69,0,0,1,1.32-.33,2.6,2.6,0,0,1,1.31.33,2.32,2.32,0,0,1,.92.89,2.4,2.4,0,0,1,.34,1.28,2.53,2.53,0,0,1-.25,1.13,2.37,2.37,0,0,1-.72.85,2.62,2.62,0,0,1-1.05.46,1.51,1.51,0,0,0,1.06.57,1.16,1.16,0,0,0,.93-.45Zm-4.58-1.83a1.92,1.92,0,0,0,.74.73,2.18,2.18,0,0,0,2.1,0,2,2,0,0,0,.74-.73,2.19,2.19,0,0,0,0-2.07,2,2,0,0,0-.74-.73,2.25,2.25,0,0,0-2.1,0,1.92,1.92,0,0,0-.74.73,2.12,2.12,0,0,0,0,2.07Z"/><path d="M965.29,399.59v3.69h-.48v-.68a1.38,1.38,0,0,1-.54.53,1.66,1.66,0,0,1-.78.18,1.43,1.43,0,0,1-1.56-1.58v-2.14h.5v2.09a1.23,1.23,0,0,0,.29.88,1.07,1.07,0,0,0,.82.3,1.18,1.18,0,0,0,.91-.35,1.34,1.34,0,0,0,.34-1v-1.94Z"/><path d="M969.88,401.59H966.8a1.34,1.34,0,0,0,.45.93,1.47,1.47,0,0,0,1,.35,1.61,1.61,0,0,0,.63-.12,1.36,1.36,0,0,0,.5-.36l.28.32a1.73,1.73,0,0,1-.61.45,2.16,2.16,0,0,1-.81.15,2.09,2.09,0,0,1-1-.24,1.75,1.75,0,0,1-.68-.67,1.93,1.93,0,0,1-.24-1,2,2,0,0,1,.23-1,1.68,1.68,0,0,1,.65-.67,1.87,1.87,0,0,1,.92-.23,1.84,1.84,0,0,1,.91.23,1.65,1.65,0,0,1,.64.67,2,2,0,0,1,.23,1Zm-2.67-1.26a1.38,1.38,0,0,0-.41.89h2.62a1.38,1.38,0,0,0-.41-.89,1.36,1.36,0,0,0-1.8,0Z"/><path d="M974.11,401.59H971a1.37,1.37,0,0,0,.44.93,1.51,1.51,0,0,0,1,.35,1.61,1.61,0,0,0,.63-.12,1.36,1.36,0,0,0,.5-.36l.28.32a1.83,1.83,0,0,1-.61.45,2.16,2.16,0,0,1-.81.15,2.07,2.07,0,0,1-1-.24,1.69,1.69,0,0,1-.68-.67,2.1,2.1,0,0,1,0-1.93,1.72,1.72,0,0,1,.64-.67,1.9,1.9,0,0,1,.92-.23,1.87,1.87,0,0,1,.92.23,1.72,1.72,0,0,1,.64.67,2,2,0,0,1,.23,1Zm-2.67-1.26a1.33,1.33,0,0,0-.41.89h2.61a1.33,1.33,0,0,0-.41-.89,1.35,1.35,0,0,0-1.79,0Z"/><path d="M978.11,400a1.59,1.59,0,0,1,.41,1.17v2.14H978v-2.09a1.26,1.26,0,0,0-.28-.88,1.09,1.09,0,0,0-.82-.3,1.24,1.24,0,0,0-.94.36,1.32,1.32,0,0,0-.35,1v1.94h-.5v-3.69h.48v.68a1.48,1.48,0,0,1,.56-.52,1.86,1.86,0,0,1,.84-.18A1.49,1.49,0,0,1,978.11,400Z"/><path d="M980,403.18a1.82,1.82,0,0,1-.64-.32l.23-.4a1.67,1.67,0,0,0,.58.3,2.18,2.18,0,0,0,.72.12,1.44,1.44,0,0,0,.75-.16.51.51,0,0,0,.24-.45.37.37,0,0,0-.13-.31.85.85,0,0,0-.34-.18,3.35,3.35,0,0,0-.54-.11,6.81,6.81,0,0,1-.72-.18,1,1,0,0,1-.46-.29.83.83,0,0,1-.19-.58.91.91,0,0,1,.38-.76,1.7,1.7,0,0,1,1.07-.29,3,3,0,0,1,.72.09,2,2,0,0,1,.58.25l-.21.4A1.89,1.89,0,0,0,981,400a1.27,1.27,0,0,0-.72.17.51.51,0,0,0-.24.44.46.46,0,0,0,.14.34.85.85,0,0,0,.34.18l.56.13a6.34,6.34,0,0,1,.7.16,1.16,1.16,0,0,1,.46.29.78.78,0,0,1,.19.56.92.92,0,0,1-.4.77,1.91,1.91,0,0,1-1.12.28A2.76,2.76,0,0,1,980,403.18Z"/><path d="M989.07,401.17a1.2,1.2,0,0,1,.26.8,1.14,1.14,0,0,1-.47,1,2.36,2.36,0,0,1-1.37.34h-2.26v-4.9h2.12a2.13,2.13,0,0,1,1.27.33,1.06,1.06,0,0,1,.45.93,1.19,1.19,0,0,1-.2.69,1.23,1.23,0,0,1-.55.42A1.33,1.33,0,0,1,989.07,401.17Zm-3.32-2.37v1.78h1.56a1.58,1.58,0,0,0,.92-.23.84.84,0,0,0,0-1.32,1.58,1.58,0,0,0-.92-.23Zm2.73,3.82a.77.77,0,0,0,.33-.7c0-.61-.44-.91-1.33-.91h-1.73v1.84h1.73A1.83,1.83,0,0,0,988.48,402.62Z"/><path d="M990.41,398.08h.5v5.2h-.5Z"/><path d="M995.38,399.59l-1.63,3.69h-.51l-1.64-3.69h.52l1.38,3.14,1.39-3.14Z"/><path d="M999.34,398.08v5.2h-.48v-.73a1.44,1.44,0,0,1-.59.56,1.62,1.62,0,0,1-.83.2,1.91,1.91,0,0,1-.94-.24,1.79,1.79,0,0,1-.65-.66,2.1,2.1,0,0,1,0-2,1.79,1.79,0,0,1,.65-.66,1.9,1.9,0,0,1,.94-.23,1.79,1.79,0,0,1,.81.18,1.61,1.61,0,0,1,.59.54v-2.21Zm-1.16,4.61a1.27,1.27,0,0,0,.49-.51,1.53,1.53,0,0,0,.18-.74,1.51,1.51,0,0,0-.18-.75,1.27,1.27,0,0,0-.49-.51,1.37,1.37,0,0,0-.69-.18,1.39,1.39,0,0,0-.71.18,1.27,1.27,0,0,0-.49.51,1.51,1.51,0,0,0-.18.75,1.53,1.53,0,0,0,.18.74,1.27,1.27,0,0,0,.49.51,1.39,1.39,0,0,0,.71.18A1.37,1.37,0,0,0,998.18,402.69Z"/><path d="M1005,399.93a1.37,1.37,0,0,1,.39,1.06v2.29h-.48v-.58a1.13,1.13,0,0,1-.49.45,1.71,1.71,0,0,1-.77.16,1.55,1.55,0,0,1-1-.29,1,1,0,0,1-.37-.78,1,1,0,0,1,.34-.76,1.68,1.68,0,0,1,1.08-.28h1.17V401a1,1,0,0,0-.26-.72,1.09,1.09,0,0,0-.78-.25,1.89,1.89,0,0,0-.67.12,1.69,1.69,0,0,0-.56.31l-.22-.37a1.88,1.88,0,0,1,.67-.36,2.53,2.53,0,0,1,.83-.13A1.53,1.53,0,0,1,1005,399.93Zm-.56,2.8a1.2,1.2,0,0,0,.45-.56v-.6h-1.15c-.63,0-1,.22-1,.66a.58.58,0,0,0,.25.5,1.06,1.06,0,0,0,.68.19A1.38,1.38,0,0,0,1004.39,402.73Z"/><path d="M1009.67,400a1.59,1.59,0,0,1,.41,1.17v2.14h-.5v-2.09a1.22,1.22,0,0,0-.29-.88,1.07,1.07,0,0,0-.82-.3,1.25,1.25,0,0,0-.94.36,1.32,1.32,0,0,0-.34,1v1.94h-.5v-3.69h.48v.68a1.41,1.41,0,0,1,.56-.52,1.86,1.86,0,0,1,.84-.18A1.49,1.49,0,0,1,1009.67,400Z"/><path d="M1014.8,398.08v5.2h-.47v-.73a1.51,1.51,0,0,1-.59.56,1.67,1.67,0,0,1-.83.2,1.85,1.85,0,0,1-.94-.24,1.74,1.74,0,0,1-.66-.66,2.1,2.1,0,0,1,0-2,1.74,1.74,0,0,1,.66-.66,1.85,1.85,0,0,1,.94-.23,1.74,1.74,0,0,1,.8.18,1.64,1.64,0,0,1,.6.54v-2.21Zm-1.16,4.61a1.21,1.21,0,0,0,.49-.51,1.53,1.53,0,0,0,.18-.74,1.51,1.51,0,0,0-.18-.75,1.21,1.21,0,0,0-.49-.51,1.31,1.31,0,0,0-.69-.18,1.41,1.41,0,0,0-.71.18,1.34,1.34,0,0,0-.49.51,1.63,1.63,0,0,0-.17.75,1.64,1.64,0,0,0,.17.74,1.34,1.34,0,0,0,.49.51,1.41,1.41,0,0,0,.71.18A1.31,1.31,0,0,0,1013.64,402.69Z"/><path d="M907.29,411.68l-1.12-1.58-.39,0h-1.32v1.56H904v-4.9h1.83a2.24,2.24,0,0,1,1.47.44,1.52,1.52,0,0,1,.53,1.24,1.57,1.57,0,0,1-.29,1,1.63,1.63,0,0,1-.83.57l1.2,1.68Zm-.41-2.32a1.28,1.28,0,0,0,0-1.82,1.73,1.73,0,0,0-1.11-.32h-1.31v2.46h1.31A1.73,1.73,0,0,0,906.88,409.36Z"/><path d="M912.11,410H909a1.33,1.33,0,0,0,.44.93,1.49,1.49,0,0,0,1,.35,1.61,1.61,0,0,0,.63-.12,1.33,1.33,0,0,0,.49-.36l.28.32a1.65,1.65,0,0,1-.61.45,2.09,2.09,0,0,1-.81.15,2,2,0,0,1-1-.24,1.69,1.69,0,0,1-.68-.67,1.85,1.85,0,0,1-.25-1,1.93,1.93,0,0,1,.24-1,1.65,1.65,0,0,1,.64-.67,2,2,0,0,1,1.84,0,1.63,1.63,0,0,1,.63.67,1.9,1.9,0,0,1,.24,1Zm-2.67-1.26a1.33,1.33,0,0,0-.41.89h2.61a1.33,1.33,0,0,0-.41-.89,1.35,1.35,0,0,0-1.79,0Z"/><path d="M916.34,410h-3.08a1.29,1.29,0,0,0,.44.93,1.47,1.47,0,0,0,1,.35,1.61,1.61,0,0,0,.63-.12,1.28,1.28,0,0,0,.5-.36l.28.32a1.73,1.73,0,0,1-.61.45,2.16,2.16,0,0,1-.81.15,2,2,0,0,1-1-.24,1.71,1.71,0,0,1-.69-.67,1.94,1.94,0,0,1-.24-1,2,2,0,0,1,.23-1,1.68,1.68,0,0,1,.65-.67,1.87,1.87,0,0,1,.92-.23,1.84,1.84,0,0,1,.91.23,1.59,1.59,0,0,1,.64.67,1.9,1.9,0,0,1,.23,1Zm-2.67-1.26a1.29,1.29,0,0,0-.41.89h2.61a1.38,1.38,0,0,0-.41-.89,1.29,1.29,0,0,0-.9-.34A1.26,1.26,0,0,0,913.67,408.73Z"/><path d="M920.72,406.48v5.2h-.48V411a1.51,1.51,0,0,1-.59.56,1.65,1.65,0,0,1-.83.2,1.85,1.85,0,0,1-.94-.24,1.74,1.74,0,0,1-.66-.66,2.18,2.18,0,0,1,0-1.95,1.74,1.74,0,0,1,.66-.66,1.85,1.85,0,0,1,.94-.23,1.79,1.79,0,0,1,.81.18,1.53,1.53,0,0,1,.59.54v-2.21Zm-1.16,4.61a1.27,1.27,0,0,0,.49-.51,1.54,1.54,0,0,0,.18-.75,1.5,1.5,0,0,0-.18-.74,1.27,1.27,0,0,0-.49-.51,1.45,1.45,0,0,0-1.4,0,1.27,1.27,0,0,0-.49.51,1.5,1.5,0,0,0-.18.74,1.54,1.54,0,0,0,.18.75,1.27,1.27,0,0,0,.49.51,1.45,1.45,0,0,0,1.4,0Z"/><path d="M925.31,410h-3.08a1.33,1.33,0,0,0,.44.93,1.49,1.49,0,0,0,1,.35,1.61,1.61,0,0,0,.63-.12,1.25,1.25,0,0,0,.49-.36l.28.32a1.65,1.65,0,0,1-.61.45,2.09,2.09,0,0,1-.81.15,2.05,2.05,0,0,1-1-.24,1.69,1.69,0,0,1-.68-.67,1.85,1.85,0,0,1-.25-1,1.93,1.93,0,0,1,.24-1,1.65,1.65,0,0,1,.64-.67,2,2,0,0,1,1.84,0,1.63,1.63,0,0,1,.63.67,1.9,1.9,0,0,1,.24,1Zm-2.67-1.26a1.33,1.33,0,0,0-.41.89h2.61a1.33,1.33,0,0,0-.41-.89,1.35,1.35,0,0,0-1.79,0Z"/><path d="M927.33,408.15a1.83,1.83,0,0,1,.86-.18v.48h-.12a1.17,1.17,0,0,0-.91.36,1.42,1.42,0,0,0-.33,1v1.88h-.5V408h.48v.72A1.23,1.23,0,0,1,927.33,408.15Z"/><path d="M931.38,411.54a1.86,1.86,0,0,1-.77-.46l.2-.4a1.9,1.9,0,0,0,.71.43,2.53,2.53,0,0,0,.91.17,1.63,1.63,0,0,0,1-.24.76.76,0,0,0,.33-.63.63.63,0,0,0-.18-.47,1.05,1.05,0,0,0-.43-.27c-.17-.06-.42-.13-.72-.21a6.54,6.54,0,0,1-.89-.27,1.36,1.36,0,0,1-.56-.39,1,1,0,0,1-.23-.72,1.25,1.25,0,0,1,.19-.68,1.34,1.34,0,0,1,.6-.48,2.33,2.33,0,0,1,1-.19,2.81,2.81,0,0,1,.82.12,2.26,2.26,0,0,1,.7.32l-.17.41a2.45,2.45,0,0,0-.66-.3,2.37,2.37,0,0,0-.69-.11,1.63,1.63,0,0,0-1,.25.79.79,0,0,0-.32.64.65.65,0,0,0,.18.48,1.09,1.09,0,0,0,.44.27l.73.21a5.48,5.48,0,0,1,.87.26,1.38,1.38,0,0,1,.56.39,1,1,0,0,1,.23.71,1.18,1.18,0,0,1-.2.68,1.31,1.31,0,0,1-.61.48,2.5,2.5,0,0,1-1,.18A3,3,0,0,1,931.38,411.54Z"/><path d="M937.21,411.45a.75.75,0,0,1-.34.19,1.25,1.25,0,0,1-.43.07,1,1,0,0,1-1.08-1.07v-2.23h-.66V408h.66v-.8h.5v.8H937v.42h-1.12v2.2a.68.68,0,0,0,.16.5.61.61,0,0,0,.47.17.73.73,0,0,0,.3,0,.56.56,0,0,0,.25-.14Z"/><path d="M906.46,417.68a1.3,1.3,0,0,1,.38.95,1.39,1.39,0,0,1-.84,1.3,2.41,2.41,0,0,1-1,.2,3.14,3.14,0,0,1-1-.16,2.21,2.21,0,0,1-.79-.43l.33-.56a1.83,1.83,0,0,0,.64.39,2.54,2.54,0,0,0,.83.14,1.39,1.39,0,0,0,.85-.23.76.76,0,0,0,.31-.64.74.74,0,0,0-.3-.63,1.53,1.53,0,0,0-.91-.22h-.4v-.49l1.24-1.52h-2.36v-.6h3.23v.47l-1.28,1.58A1.77,1.77,0,0,1,906.46,417.68Z"/><path d="M907.61,420a.48.48,0,0,1-.14-.35.48.48,0,0,1,.48-.47.44.44,0,0,1,.33.13.45.45,0,0,1,.13.34.46.46,0,0,1-.46.49A.49.49,0,0,1,907.61,420Z"/><path class="cls-3" d="M916.67,416.39l-1.39,3.69h-.47l-1.16-3-1.16,3H912l-1.39-3.69h.48l1.15,3.13,1.19-3.13h.42l1.18,3.13,1.17-3.13Z"/><path class="cls-3" d="M919.7,416.73a1.37,1.37,0,0,1,.39,1.06v2.29h-.48v-.58a1.13,1.13,0,0,1-.49.45,1.73,1.73,0,0,1-.78.16,1.52,1.52,0,0,1-1-.29,1,1,0,0,1,0-1.54,1.68,1.68,0,0,1,1.08-.28h1.17v-.23a1,1,0,0,0-.26-.72,1.09,1.09,0,0,0-.78-.25,1.85,1.85,0,0,0-.67.12,1.69,1.69,0,0,0-.56.31l-.22-.37a1.88,1.88,0,0,1,.67-.36,2.53,2.53,0,0,1,.83-.13A1.53,1.53,0,0,1,919.7,416.73Zm-.56,2.8a1.2,1.2,0,0,0,.45-.56v-.6h-1.15c-.63,0-1,.22-1,.66a.58.58,0,0,0,.25.5,1.06,1.06,0,0,0,.68.19A1.38,1.38,0,0,0,919.14,419.53Z"/><path class="cls-3" d="M921.44,414.88h.5v5.2h-.5Z"/><path class="cls-3" d="M924.69,418.23l-.87.8v1.05h-.5v-5.2h.5v3.52l2.2-2h.61l-1.57,1.51,1.72,2.18h-.61Z"/><path d="M930,419.82a2,2,0,0,1-.7-.87,3.64,3.64,0,0,1,0-2.65,2,2,0,0,1,.7-.87,1.74,1.74,0,0,1,1-.3,1.76,1.76,0,0,1,1,.3,2.11,2.11,0,0,1,.7.87,3.64,3.64,0,0,1,0,2.65,2,2,0,0,1-.7.87,1.76,1.76,0,0,1-1,.3A1.74,1.74,0,0,1,930,419.82Zm1.76-.4a1.51,1.51,0,0,0,.51-.7,2.93,2.93,0,0,0,.18-1.09,3,3,0,0,0-.18-1.1,1.51,1.51,0,0,0-.51-.7,1.35,1.35,0,0,0-1.51,0,1.56,1.56,0,0,0-.5.7,3,3,0,0,0-.19,1.1,2.91,2.91,0,0,0,.19,1.09,1.56,1.56,0,0,0,.5.7,1.31,1.31,0,0,0,1.51,0Z"/><path d="M933.71,420a.36.36,0,0,1-.11-.27.33.33,0,0,1,.11-.27.33.33,0,0,1,.26-.11.36.36,0,0,1,.27.11.37.37,0,0,1,.11.27.38.38,0,0,1-.38.38A.36.36,0,0,1,933.71,420Z"/><path d="M938.66,418a1.11,1.11,0,0,1,.25.74,1.28,1.28,0,0,1-.23.75,1.47,1.47,0,0,1-.66.49,2.85,2.85,0,0,1-1,.17,2.29,2.29,0,0,1-1.39-.38,1.23,1.23,0,0,1-.5-1,1.15,1.15,0,0,1,.24-.74,1.37,1.37,0,0,1,.7-.46,1.2,1.2,0,0,1-.57-.43,1.09,1.09,0,0,1-.2-.65,1.14,1.14,0,0,1,.47-.95,2,2,0,0,1,1.25-.35,2.49,2.49,0,0,1,.9.16,1.5,1.5,0,0,1,.61.45,1.18,1.18,0,0,1,.22.69,1,1,0,0,1-.21.65,1.23,1.23,0,0,1-.58.43A1.4,1.4,0,0,1,938.66,418Zm-.63,1.45a.89.89,0,0,0,0-1.43,1.71,1.71,0,0,0-1-.27,1.66,1.66,0,0,0-1,.27.81.81,0,0,0-.37.71.86.86,0,0,0,.36.73,1.75,1.75,0,0,0,1,.26A1.71,1.71,0,0,0,938,419.42Zm-1.91-2.33a1.45,1.45,0,0,0,.89.23,1.49,1.49,0,0,0,.89-.23.75.75,0,0,0,.33-.64.76.76,0,0,0-.34-.65,1.75,1.75,0,0,0-1.77,0,.74.74,0,0,0-.32.64A.76.76,0,0,0,936.12,417.09Z"/><path d="M945.62,416.76a1.63,1.63,0,0,1,.4,1.18v2.14h-.5V418a1.26,1.26,0,0,0-.28-.88,1,1,0,0,0-.78-.3,1.16,1.16,0,0,0-.9.36,1.36,1.36,0,0,0-.33,1v1.94h-.5V418a1.3,1.3,0,0,0-.27-.88,1,1,0,0,0-.79-.3,1.16,1.16,0,0,0-.9.36,1.36,1.36,0,0,0-.33,1v1.94h-.5v-3.69h.48v.68a1.29,1.29,0,0,1,.54-.52,1.76,1.76,0,0,1,.81-.18,1.58,1.58,0,0,1,.8.19,1.32,1.32,0,0,1,.51.58,1.45,1.45,0,0,1,.58-.57,1.8,1.8,0,0,1,.87-.2A1.48,1.48,0,0,1,945.62,416.76Z"/><path d="M947.36,415.48a.34.34,0,0,1-.11-.25.34.34,0,0,1,.11-.24.36.36,0,0,1,.26-.11.4.4,0,0,1,.26.1.33.33,0,0,1,.1.24.34.34,0,0,1-.1.26.36.36,0,0,1-.52,0Zm0,.91h.49v3.69h-.49Z"/><path d="M954.06,416.77a1.59,1.59,0,0,1,.41,1.17v2.14H954V418a1.26,1.26,0,0,0-.28-.88,1.09,1.09,0,0,0-.82-.3,1.24,1.24,0,0,0-.94.36,1.32,1.32,0,0,0-.35,1v1.94h-.5v-5.2h.5V417a1.36,1.36,0,0,1,.56-.5,1.8,1.8,0,0,1,.82-.17A1.49,1.49,0,0,1,954.06,416.77Z"/><path d="M956.38,419.87a1.73,1.73,0,0,1-.67-.67,2.06,2.06,0,0,1,0-1.93,1.73,1.73,0,0,1,.67-.67,2.06,2.06,0,0,1,1-.23,2,2,0,0,1,1,.23,1.66,1.66,0,0,1,.67.67,2.06,2.06,0,0,1,0,1.93,1.66,1.66,0,0,1-.67.67,1.9,1.9,0,0,1-1,.24A2,2,0,0,1,956.38,419.87Zm1.67-.38a1.24,1.24,0,0,0,.48-.51,1.54,1.54,0,0,0,.18-.75,1.5,1.5,0,0,0-.18-.74,1.24,1.24,0,0,0-.48-.51,1.41,1.41,0,0,0-.71-.18,1.38,1.38,0,0,0-.7.18,1.27,1.27,0,0,0-.49.51,1.5,1.5,0,0,0-.18.74,1.54,1.54,0,0,0,.18.75,1.27,1.27,0,0,0,.49.51,1.38,1.38,0,0,0,.7.18A1.41,1.41,0,0,0,958.05,419.49Z"/><path d="M965.91,416.76a1.63,1.63,0,0,1,.39,1.18v2.14h-.49V418a1.31,1.31,0,0,0-.28-.88,1,1,0,0,0-.78-.3,1.18,1.18,0,0,0-.91.36,1.4,1.4,0,0,0-.32,1v1.94H963V418a1.26,1.26,0,0,0-.28-.88,1,1,0,0,0-.78-.3,1.16,1.16,0,0,0-.9.36,1.32,1.32,0,0,0-.34,1v1.94h-.49v-3.69h.47v.68a1.26,1.26,0,0,1,.55-.52,1.71,1.71,0,0,1,.8-.18,1.55,1.55,0,0,1,.8.19,1.21,1.21,0,0,1,.51.58,1.47,1.47,0,0,1,.59-.57,1.75,1.75,0,0,1,.87-.2A1.5,1.5,0,0,1,965.91,416.76Z"/><path d="M970.87,418.39h-3.08a1.37,1.37,0,0,0,.44.93,1.51,1.51,0,0,0,1,.35,1.61,1.61,0,0,0,.63-.12,1.36,1.36,0,0,0,.5-.36l.28.32a1.73,1.73,0,0,1-.61.45,2.16,2.16,0,0,1-.81.15,2.07,2.07,0,0,1-1-.24,1.69,1.69,0,0,1-.68-.67,2.1,2.1,0,0,1,0-1.93,1.72,1.72,0,0,1,.64-.67,1.9,1.9,0,0,1,.92-.23,1.85,1.85,0,0,1,.92.23,1.65,1.65,0,0,1,.64.67,2,2,0,0,1,.23,1Zm-2.67-1.26a1.38,1.38,0,0,0-.41.89h2.61a1.33,1.33,0,0,0-.41-.89,1.35,1.35,0,0,0-1.79,0Z"/></svg>