<svg id="_17._2_bard_commute" data-name="17. (2) bard commute" xmlns="http://www.w3.org/2000/svg" viewBox="0 0 1357.03 1080"><defs><style>.cls-1{font-size:5px;}.cls-1,.cls-4{fill:#c1272d;}.cls-1,.cls-13,.cls-14,.cls-15,.cls-16,.cls-17,.cls-18,.cls-19,.cls-20,.cls-21,.cls-22,.cls-23,.cls-31,.cls-32,.cls-33,.cls-34,.cls-35,.cls-37,.cls-42,.cls-43,.cls-44,.cls-45,.cls-46{font-family:Montserrat-Regular, Montserrat;}.cls-2,.cls-35{letter-spacing:0em;}.cls-14,.cls-15,.cls-3{fill:gray;}.cls-5{fill:#fccc0a;}.cls-6{fill:#ff6319;}.cls-7{font-size:9px;font-family:Montserrat-Bold, Montserrat;font-weight:700;}.cls-8{letter-spacing:-0.02em;}.cls-9{letter-spacing:-0.02em;}.cls-10,.cls-12{font-family:Montserrat-Medium, Montserrat;font-weight:500;}.cls-11{letter-spacing:0em;}.cls-12,.cls-23{font-size:7px;}.cls-13,.cls-14,.cls-15,.cls-16,.cls-17,.cls-18,.cls-19,.cls-20,.cls-21,.cls-22,.cls-23,.cls-31,.cls-32,.cls-33,.cls-34,.cls-35,.cls-37,.cls-42,.cls-43,.cls-44,.cls-45,.cls-46{font-weight:400;}.cls-14,.cls-38{letter-spacing:-0.02em;}.cls-16{letter-spacing:-0.01em;}.cls-17{letter-spacing:0.01em;}.cls-18{letter-spacing:0.08em;}.cls-19{letter-spacing:-0.01em;}.cls-20{letter-spacing:-0.01em;}.cls-21,.cls-24{letter-spacing:-0.02em;}.cls-22{letter-spacing:0em;}.cls-25{letter-spacing:0em;}.cls-26{letter-spacing:0.01em;}.cls-27{letter-spacing:-0.01em;}.cls-28,.cls-44{letter-spacing:-0.01em;}.cls-29{letter-spacing:-0.03em;}.cls-30{letter-spacing:0.01em;}.cls-31,.cls-48{letter-spacing:-0.02em;}.cls-32{letter-spacing:0em;}.cls-33{fill:#a67c52;}.cls-34{letter-spacing:0.08em;}.cls-36{letter-spacing:-0.01em;}.cls-37,.cls-52{fill:#0039a6;}.cls-39{letter-spacing:-0.01em;}.cls-40{letter-spacing:-0.02em;}.cls-41{letter-spacing:-0.03em;}.cls-42,.cls-47{letter-spacing:-0.01em;}.cls-43,.cls-49{letter-spacing:-0.01em;}.cls-45{letter-spacing:-0.02em;}.cls-46{letter-spacing:-0.02em;}.cls-50{letter-spacing:-0.01em;}.cls-51{letter-spacing:0.02em;}.cls-53{letter-spacing:-0.01em;}.cls-54{fill:#fff;}.cls-55{fill:#8cca3e;}</style></defs><text class="cls-1" transform="translate(852.29 500.4)"><tspan class="cls-2">h</tspan><tspan x="3.39" y="0">o</tspan><tspan class="cls-2" x="6.53" y="0">m</tspan><tspan x="11.84" y="0">e</tspan></text><path class="cls-3" d="M847.28,490.89c-2.75-2.67-4.82-7.16-3.71-11a6.64,6.64,0,0,1,3.65-3.88,16.06,16.06,0,0,1,3.15-1.08c.56-.14,1.11-.27,1.67-.39.24-.05,1.09-.36,1.33-.25a1.55,1.55,0,0,0,2.06-.54,1.51,1.51,0,0,0-.54-2.05c-1.39-.64-2.72-.26-4.15.06a23.61,23.61,0,0,0-4.1,1.24,10.25,10.25,0,0,0-5.61,5.12,12,12,0,0,0-.08,8,16.2,16.2,0,0,0,4.21,6.91c1.38,1.35,3.5-.77,2.12-2.12Z"/><path class="cls-3" d="M853.88,475.93c3.86,0,3.86-6,0-6s-3.87,6,0,6Z"/><path class="cls-3" d="M848.88,496.93c3.86,0,3.86-6,0-6s-3.87,6,0,6Z"/><path class="cls-4" d="M850,496.58c3.86,0,3.87-6,0-6s-3.86,6,0,6Z"/><path class="cls-5" d="M829.42,449.54c4.94,1.76,9.58,4.88,13.81,7.94a21.72,21.72,0,0,1,8.52,12,1,1,0,0,0,1.93-.53,23.65,23.65,0,0,0-8.79-12.77c-2.27-1.72-4.72-3.24-7.15-4.74a41,41,0,0,0-7.79-3.88c-1.21-.43-1.74,1.5-.53,1.93Z"/><path class="cls-6" d="M827.28,451.32c5,1.76,9.59,4.88,13.82,7.94a21.82,21.82,0,0,1,8.52,12.06,1,1,0,0,0,1.93-.54A23.64,23.64,0,0,0,842.76,458c-2.28-1.72-4.73-3.25-7.15-4.75a40.69,40.69,0,0,0-7.79-3.87c-1.22-.44-1.74,1.5-.54,1.92Z"/><path class="cls-6" d="M829.47,458.56a18.63,18.63,0,0,0,.3,5,1,1,0,0,0,1.23.7,1,1,0,0,0,.69-1.23c0-.19-.07-.39-.1-.58s0-.22-.05-.32c0,.18,0,0,0-.1q-.06-.57-.09-1.14a16.49,16.49,0,0,1,0-2.33,1,1,0,0,0-1-1,1,1,0,0,0-1,1Z"/><path class="cls-6" d="M830.13,459.07l2.25,2.2a1,1,0,0,0,1,.26,1,1,0,0,0,.7-.7c0-.11.08-.22.13-.33s0-.11,0,0c0-.05.05-.1.07-.16s.19-.4.29-.6a11.76,11.76,0,0,1,.71-1.17h-1.73l.27.52a2.56,2.56,0,0,0,.11.24s.12.27.08.17,0-.05,0,.05a1.11,1.11,0,0,1,.07.16,2.6,2.6,0,0,0,.1.25c.06.17.12.34.17.51a13.51,13.51,0,0,1,.5,2.18,1,1,0,0,0,1.23.7,1,1,0,0,0,.69-1.23,13.6,13.6,0,0,0-1.5-4.56,1,1,0,0,0-.86-.49,1.05,1.05,0,0,0-.87.49,12.72,12.72,0,0,0-1.4,2.75l1.67-.44-2.25-2.2a1,1,0,0,0-1.41,1.41Z"/><path class="cls-5" d="M844.36,448.49a23.59,23.59,0,0,0,.63,5.67,1,1,0,0,0,1.23.7,1,1,0,0,0,.7-1.23c-.1-.45-.2-.89-.27-1.34,0-.21-.07-.41-.1-.62s0,.06,0-.15,0-.24,0-.36a23.85,23.85,0,0,1-.12-2.67,1,1,0,0,0-1-1,1,1,0,0,0-1,1Z"/><path class="cls-5" d="M846.61,449.18a3.61,3.61,0,0,1,.33-.35s.24-.18,0-.05l.2-.13.21-.12h0a1.55,1.55,0,0,0,.23-.06c.11,0-.19,0,0,0,0,0,.19,0,.22,0-.13,0-.16,0-.08,0l.11,0,.11,0c.07,0,0,0-.07,0s.2.1.19.11l-.09-.07a.52.52,0,0,1,.11.1c.13.11,0-.09,0,0a.31.31,0,0,1,.05.1c0-.13-.05-.15,0-.08l0,.1c0,.09,0,.09,0,0s0-.08,0,0v.08a1.43,1.43,0,0,0,0,.22,1,1,0,0,0,0,.1c0,.07,0,0,0-.07a.5.5,0,0,1-.1.19l0,.06q-.09.13,0,0s-.1.11-.13.13l-.09.08,0,0c-.12.08-.25.15-.38.22.2-.1,0,0-.06,0l-.24.07-.24.05c-.06,0-.31.05-.06,0l-.5,0a1,1,0,0,0-.26,2,11.56,11.56,0,0,1,2.28.64c.06,0,.05,0,0,0l.17.07.24.11.52.27a11,11,0,0,1,1,.65,1,1,0,0,0,1.37-.36,1,1,0,0,0-.36-1.37,11.38,11.38,0,0,0-4.67-1.93l-.27,2a4.52,4.52,0,0,0,2.86-1,2.81,2.81,0,0,0,.88-2.69,2.41,2.41,0,0,0-2.34-1.76,3.46,3.46,0,0,0-2.61,1.31,1,1,0,0,0,1.42,1.41Z"/><text class="cls-7" transform="translate(897.31 350.38)"><tspan class="cls-8">C</tspan><tspan x="6.43" y="0">ommu</tspan><tspan class="cls-9" x="37.39" y="0">t</tspan><tspan x="41.15" y="0">e Options:</tspan><tspan class="cls-10"><tspan x="0" y="10.8">1) ~ </tspan><tspan class="cls-11" x="16.45" y="10.8">5</tspan><tspan x="21.57" y="10.8">3min </tspan></tspan><tspan class="cls-12"><tspan x="6" y="19.2">1.</tspan><tspan class="cls-13" x="10.18" y="19.2"> </tspan><tspan class="cls-14" x="12.01" y="19.2">w</tspan><tspan class="cls-15" x="18.05" y="19.2">alk</tspan><tspan class="cls-13" x="28.27" y="19.2"> </tspan><tspan class="cls-16" x="30.11" y="19.2">0</tspan><tspan class="cls-17" x="34.67" y="19.2">.</tspan><tspan class="cls-13" x="36.22" y="19.2">2mi </tspan><tspan class="cls-18" x="51.34" y="19.2">f</tspan><tspan class="cls-19" x="54.27" y="19.2">r</tspan><tspan class="cls-13" x="56.99" y="19.2">om Ba</tspan><tspan class="cls-20" x="80.04" y="19.2">r</tspan><tspan class="cls-13" x="82.76" y="19.2">d </tspan><tspan class="cls-21" x="89.34" y="19.2">t</tspan><tspan class="cls-13" x="92.05" y="19.2">o t</tspan><tspan class="cls-22" x="101.11" y="19.2">h</tspan><tspan class="cls-13" x="105.87" y="19.2">e </tspan></tspan><tspan class="cls-23"><tspan x="6" y="27.6">in</tspan><tspan class="cls-24" x="12.62" y="27.6">t</tspan><tspan x="15.33" y="27.6">e</tspan><tspan class="cls-25" x="19.56" y="27.6">r</tspan><tspan x="22.34" y="27.6">se</tspan><tspan class="cls-26" x="29.99" y="27.6">c</tspan><tspan x="33.97" y="27.6">tion of Queens Bl</tspan><tspan class="cls-27" x="94.45" y="27.6">v</tspan><tspan x="98.14" y="27.6">d a</tspan><tspan class="cls-2" x="108.85" y="27.6">n</tspan><tspan x="113.6" y="27.6">d </tspan><tspan x="6" y="36">S</tspan><tspan class="cls-28" x="10.3" y="36">k</tspan><tspan x="14.46" y="36">illman </tspan><tspan class="cls-29" x="38.23" y="36">A</tspan><tspan x="43.07" y="36">v</tspan></tspan><tspan class="cls-12"><tspan class="cls-30" x="6" y="44.4">2</tspan><tspan x="10.09" y="44.4">.</tspan><tspan class="cls-13" x="11.68" y="44.4" xml:space="preserve"> ta</tspan><tspan class="cls-31" x="20.48" y="44.4">k</tspan><tspan class="cls-32" x="24.54" y="44.4">e t</tspan><tspan class="cls-22" x="33.45" y="44.4">h</tspan><tspan class="cls-13" x="38.2" y="44.4">e </tspan><tspan class="cls-33" x="44.26" y="44.4">Q60</tspan><tspan class="cls-13" x="59.03" y="44.4"> </tspan><tspan class="cls-34" x="60.86" y="44.4">f</tspan><tspan class="cls-19" x="63.8" y="44.4">r</tspan><tspan class="cls-13" x="66.51" y="44.4">om </tspan><tspan class="cls-35" x="80.16" y="44.4">h</tspan><tspan class="cls-13" x="84.92" y="44.4">e</tspan><tspan class="cls-19" x="89.14" y="44.4">r</tspan><tspan class="cls-13" x="91.86" y="44.4">e </tspan><tspan class="cls-21" x="97.92" y="44.4">t</tspan><tspan class="cls-13" x="100.63" y="44.4">o t</tspan><tspan class="cls-22" x="109.69" y="44.4">h</tspan><tspan class="cls-32" x="114.45" y="44.4">e </tspan></tspan><tspan class="cls-23"><tspan x="6" y="52.8">in</tspan><tspan class="cls-24" x="12.62" y="52.8">t</tspan><tspan x="15.33" y="52.8">e</tspan><tspan class="cls-25" x="19.56" y="52.8">r</tspan><tspan x="22.34" y="52.8">se</tspan><tspan class="cls-26" x="29.99" y="52.8">c</tspan><tspan x="33.97" y="52.8">tion of Queens Bl</tspan><tspan class="cls-27" x="94.45" y="52.8">v</tspan><tspan x="98.14" y="52.8">d a</tspan><tspan class="cls-2" x="108.85" y="52.8">n</tspan><tspan x="113.6" y="52.8">d </tspan><tspan x="6" y="61.2">Reeder St</tspan></tspan><tspan class="cls-12"><tspan x="6" y="69.6">3.</tspan><tspan class="cls-13" x="11.59" y="69.6"> </tspan><tspan class="cls-14" x="13.43" y="69.6">w</tspan><tspan class="cls-15" x="19.47" y="69.6">alk</tspan><tspan class="cls-13" x="29.69" y="69.6"> </tspan><tspan class="cls-16" x="31.52" y="69.6">0</tspan><tspan class="cls-17" x="36.08" y="69.6">.</tspan><tspan class="cls-13" x="37.63" y="69.6">8mi </tspan><tspan class="cls-22" x="53.24" y="69.6">h</tspan><tspan class="cls-13" x="58" y="69.6">o</tspan><tspan class="cls-35" x="62.38" y="69.6">m</tspan><tspan class="cls-13" x="69.83" y="69.6">e</tspan></tspan><tspan class="cls-10"><tspan x="0" y="80.4">2) ~ </tspan><tspan class="cls-36" x="18.29" y="80.4">4</tspan><tspan x="24.2" y="80.4">3min </tspan></tspan><tspan class="cls-12"><tspan x="6" y="88.8">1.</tspan><tspan class="cls-13" x="10.18" y="88.8"> </tspan><tspan class="cls-14" x="12.01" y="88.8">w</tspan><tspan class="cls-15" x="18.05" y="88.8">alk</tspan><tspan class="cls-13" x="28.27" y="88.8"> </tspan><tspan class="cls-16" x="30.11" y="88.8">0</tspan><tspan class="cls-19" x="34.67" y="88.8">.</tspan><tspan class="cls-13" x="36.06" y="88.8">4mi </tspan><tspan class="cls-34" x="51.83" y="88.8">f</tspan><tspan class="cls-19" x="54.76" y="88.8">r</tspan><tspan class="cls-13" x="57.48" y="88.8">om Ba</tspan><tspan class="cls-19" x="80.54" y="88.8">r</tspan><tspan class="cls-13" x="83.25" y="88.8">d </tspan><tspan class="cls-21" x="89.83" y="88.8">t</tspan><tspan class="cls-13" x="92.54" y="88.8">o t</tspan><tspan class="cls-35" x="101.6" y="88.8">h</tspan><tspan class="cls-13" x="106.36" y="88.8">e </tspan></tspan><tspan class="cls-23"><tspan x="6" y="97.2">in</tspan><tspan class="cls-24" x="12.62" y="97.2">t</tspan><tspan x="15.33" y="97.2">e</tspan><tspan class="cls-25" x="19.56" y="97.2">r</tspan><tspan x="22.34" y="97.2">se</tspan><tspan class="cls-26" x="29.99" y="97.2">c</tspan><tspan x="33.97" y="97.2">tion Queens Plaza station</tspan></tspan><tspan class="cls-12"><tspan class="cls-30" x="6" y="105.6">2</tspan><tspan x="10.09" y="105.6">.</tspan><tspan class="cls-13" x="11.68" y="105.6" xml:space="preserve"> ta</tspan><tspan class="cls-31" x="20.48" y="105.6">k</tspan><tspan class="cls-32" x="24.54" y="105.6">e t</tspan><tspan class="cls-22" x="33.45" y="105.6">h</tspan><tspan class="cls-13" x="38.2" y="105.6">e </tspan><tspan class="cls-37" x="44.26" y="105.6">E</tspan><tspan class="cls-13" x="48.94" y="105.6"> </tspan><tspan class="cls-34" x="50.78" y="105.6">f</tspan><tspan class="cls-19" x="53.71" y="105.6">r</tspan><tspan class="cls-13" x="56.43" y="105.6">om Queens Plaza </tspan></tspan><tspan class="cls-23"><tspan class="cls-24" x="6" y="114">t</tspan><tspan x="8.71" y="114">o J</tspan><tspan class="cls-2" x="18.44" y="114">a</tspan><tspan class="cls-28" x="22.58" y="114">c</tspan><tspan class="cls-38" x="26.47" y="114">k</tspan><tspan x="30.56" y="114">son Heights Roos</tspan><tspan class="cls-39" x="91.65" y="114">e</tspan><tspan class="cls-40" x="95.81" y="114">v</tspan><tspan x="99.5" y="114">e</tspan><tspan class="cls-2" x="103.72" y="114">l</tspan><tspan x="105.62" y="114">t </tspan><tspan class="cls-41" x="110.3" y="114">A</tspan><tspan x="115.13" y="114">v</tspan></tspan><tspan class="cls-12"><tspan x="6" y="122.4">3.</tspan><tspan class="cls-13" x="11.59" y="122.4" xml:space="preserve"> t</tspan><tspan class="cls-42" x="16.27" y="122.4">r</tspan><tspan class="cls-13" x="19.01" y="122.4">ans</tspan><tspan class="cls-43" x="31.3" y="122.4">f</tspan><tspan class="cls-13" x="33.61" y="122.4">er at J</tspan><tspan class="cls-35" x="54.79" y="122.4">a</tspan><tspan class="cls-44" x="58.94" y="122.4">c</tspan><tspan class="cls-45" x="62.82" y="122.4">k</tspan><tspan class="cls-13" x="66.92" y="122.4">son Heights </tspan><tspan class="cls-46" x="110.75" y="122.4">t</tspan><tspan class="cls-13" x="113.45" y="122.4">o </tspan></tspan><tspan class="cls-23"><tspan x="6" y="130.8">t</tspan><tspan class="cls-2" x="8.84" y="130.8">h</tspan><tspan x="13.59" y="130.8">e </tspan><tspan class="cls-6" x="19.66" y="130.8">M</tspan><tspan x="26.34" y="130.8" xml:space="preserve"> or </tspan><tspan class="cls-5" x="37.2" y="130.8">R</tspan><tspan x="42.26" y="130.8" xml:space="preserve"> t</tspan><tspan class="cls-47" x="46.94" y="130.8">r</tspan><tspan x="49.68" y="130.8">ain a</tspan><tspan class="cls-2" x="66.4" y="130.8">n</tspan><tspan x="71.15" y="130.8">d ta</tspan><tspan class="cls-48" x="84.71" y="130.8">k</tspan><tspan x="88.77" y="130.8">e it </tspan><tspan class="cls-49" x="101.39" y="130.8">f</tspan><tspan x="103.7" y="130.8">or </tspan><tspan class="cls-50" x="6" y="139.2">t</tspan><tspan class="cls-27" x="8.77" y="139.2">w</tspan><tspan x="14.82" y="139.2">o s</tspan><tspan class="cls-24" x="24.47" y="139.2">t</tspan><tspan x="27.17" y="139.2">ops </tspan><tspan class="cls-24" x="41.57" y="139.2">t</tspan><tspan x="44.28" y="139.2">o G</tspan><tspan class="cls-47" x="55.91" y="139.2">r</tspan><tspan x="58.65" y="139.2">a</tspan><tspan class="cls-2" x="62.78" y="139.2">n</tspan><tspan x="67.54" y="139.2">d </tspan><tspan class="cls-41" x="74.12" y="139.2">A</tspan><tspan x="78.95" y="139.2">v</tspan></tspan><tspan class="cls-12"><tspan class="cls-51" x="6" y="147.6">4</tspan><tspan x="10.82" y="147.6">.</tspan><tspan class="cls-13" x="12.41" y="147.6"> </tspan><tspan class="cls-14" x="14.25" y="147.6">w</tspan><tspan class="cls-15" x="20.29" y="147.6">alk</tspan><tspan class="cls-13" x="30.51" y="147.6"> </tspan><tspan class="cls-16" x="32.34" y="147.6">0</tspan><tspan class="cls-17" x="36.9" y="147.6">.</tspan><tspan class="cls-13" x="38.45" y="147.6">8mi </tspan><tspan class="cls-22" x="54.06" y="147.6">h</tspan><tspan class="cls-13" x="58.81" y="147.6">o</tspan><tspan class="cls-35" x="63.2" y="147.6">m</tspan><tspan class="cls-13" x="70.64" y="147.6">e</tspan></tspan></text><path class="cls-52" d="M744.34,442.24a11.82,11.82,0,0,1,12.62-7c2.81.41,5.6,1.35,8.47.86,2.69-.46,4.81-2.21,7.13-3.52a12,12,0,0,1,9-1.23c2.79.74,5.31,2.32,8.23,2.61,3.12.31,6.25-1,9.34-.4,2.64.52,4.79,2.28,7,3.7,6.31,4.05,12.74,8,19.19,11.78a1,1,0,0,0,1-1.73q-9.06-5.37-17.95-11c-2.4-1.51-4.7-3.36-7.4-4.32-3.1-1.1-6.17-.17-9.33,0s-5.92-1.45-8.94-2.39a13.81,13.81,0,0,0-9,.25c-2.68,1-4.84,3.13-7.56,4-3.13,1-6.42-.34-9.55-.7a13.72,13.72,0,0,0-13.95,8c-.51,1.17,1.22,2.19,1.73,1Z"/><path class="cls-3" d="M741.77,443.77c.9,1.15,1.79,2.31,2.68,3.46.28.35.59.67.89,1l.22.26c.19.21-.12-.2,0,0s.11.17.16.25.12.19,0,0,0,.09,0-.14,0-.1,0-.05a1.05,1.05,0,0,1,.08-.36,1,1,0,0,1,.18-.28s-.14.09,0,0a1,1,0,0,1,.23-.12l-.25.06c-.24.06.35,0,0,0l-.29,0H745a13.86,13.86,0,0,0-7.22,1.17,1.54,1.54,0,0,0-1.05,1.84,1.52,1.52,0,0,0,1.85,1.05,19,19,0,0,1,2.17-.71c.37-.1.75-.18,1.12-.26l.56-.11.25,0c.47-.08-.2,0-.07,0,.44,0,.89,0,1.33,0s1.07.05,1.6,0c1.27,0,2.74-.35,3.13-1.77s-.72-2.52-1.57-3.45c-1.14-1.24-2.12-2.68-3.16-4a1.49,1.49,0,0,0-2.12,0,1.55,1.55,0,0,0,0,2.12Z"/><path class="cls-3" d="M742.62,445.88c3.86,0,3.87-6,0-6s-3.86,6,0,6Z"/><path class="cls-3" d="M737.62,454.88c3.86,0,3.87-6,0-6s-3.86,6,0,6Z"/><path class="cls-4" d="M737.92,454.91c3.86,0,3.87-6,0-6s-3.87,6,0,6Z"/><text class="cls-1" transform="translate(727.33 459.54)">s<tspan class="cls-53" x="2.45" y="0">c</tspan><tspan class="cls-2" x="5.22" y="0">h</tspan><tspan x="8.61" y="0">ool</tspan></text><path class="cls-4" d="M790.49,394.31a3.47,3.47,0,0,1,1.87,3.22c-.1,1.43-1.46,3.29-3,2.8-1.24-.39-1.85-2.29-2-3.5-.21-2.14,2-2,3.58-2.23,1.15-.16.66-1.89-.48-1.74-2.5.34-5.15.67-4.92,3.85.14,2,1.32,5.26,3.62,5.6s4.26-1.69,4.82-3.66a5.25,5.25,0,0,0-2.59-5.89.9.9,0,0,0-.91,1.55Z"/><path class="cls-4" d="M787,394.34c-1.61-.15-2.23,1.16-2.41,2.55s-.31,2.89-.58,4.33c-.21,1.07-.42,4.07-2.19,2.3a.9.9,0,0,0-1.27,1.27c6.23,6.22,4.68-8.82,6.45-8.65,1.16.11,1.15-1.69,0-1.8Z"/><path class="cls-4" d="M788.47,402.4a58.81,58.81,0,0,1-1.76,9c-.46,1.64-1.39,3.47-1.3,5.22a7.46,7.46,0,0,0,1,3c1.83,3.71,3.91,5.62,2.12,10.25-.42,1.08,1.32,1.55,1.74.48,1.78-4.61.85-6.15-1.39-10.13-2.8-5,.71-12.31,1.37-17.81.14-1.15-1.66-1.14-1.8,0Z"/><path class="cls-4" d="M784.82,417.35l-.21,3.24c-.09,1.35-.53,1.58-1.62,2.3a23.65,23.65,0,0,0-4,3.34c-.81.84.47,2.11,1.27,1.28a21.73,21.73,0,0,1,3.11-2.72,12.4,12.4,0,0,0,2.39-1.62c1.17-1.36.74-4.15.85-5.82.08-1.16-1.72-1.15-1.8,0Z"/><path class="cls-4" d="M789,409a42.8,42.8,0,0,1,5.48,1.42,1.55,1.55,0,0,1,.74.38c.22.28.16,1.13.21,1.47l.45,3.23c.16,1.14,1.9.65,1.74-.48-.19-1.37-.38-2.74-.58-4.11-.11-.75-.18-1.35-.86-1.77a11.93,11.93,0,0,0-3-1c-1.21-.35-2.44-.63-3.68-.87s-1.61,1.52-.48,1.74Z"/><path class="cls-4" d="M788.53,409.28c.41,2.25.75,4.81,1.91,6.82.92,1.57,2.61,1.72,4.26,1.58,1.15-.11,1.16-1.91,0-1.8a5.17,5.17,0,0,1-1.84,0c-1-.3-1.25-1.48-1.53-2.36a37.58,37.58,0,0,1-1.06-4.7c-.21-1.13-1.94-.65-1.74.48Z"/><path class="cls-54" d="M796.7,416.89a48.68,48.68,0,0,0,9.57-.61.71.71,0,0,1,.46,0,.57.57,0,0,1,.21.2l1.55,2a4.16,4.16,0,0,1,.73,1.21,3.61,3.61,0,0,1,.15.92,19.59,19.59,0,0,1-.09,3.75l-11.6,1.5a65.86,65.86,0,0,0-1.36-8.83"/><path class="cls-54" d="M796.7,417.19a49.17,49.17,0,0,0,9.15-.54,4.33,4.33,0,0,1,.5-.08c.31,0,.38.16.56.39s.46.61.7.91a11.33,11.33,0,0,1,1.19,1.65,5.62,5.62,0,0,1,.32,2.51,21,21,0,0,1-.14,2.38l.3-.3-11.6,1.5.3.3a68.72,68.72,0,0,0-1.37-8.91c-.09-.38-.66-.22-.58.16a67.72,67.72,0,0,1,1.35,8.75c0,.14.13.32.3.3l11.6-1.5a.33.33,0,0,0,.3-.3,21.11,21.11,0,0,0,.14-2.75,6.47,6.47,0,0,0-.28-2.19,8.81,8.81,0,0,0-1.31-1.9l-.78-1a1.59,1.59,0,0,0-.5-.53c-.52-.25-1.37.08-1.91.15-.93.13-1.87.23-2.81.3a49.21,49.21,0,0,1-5.43.11c-.39,0-.39.58,0,.6Z"/><path d="M798.15,424.65l10.59-.93c1.53-.13,1.54-2.53,0-2.4l-10.59.93c-1.52.13-1.54,2.53,0,2.4Z"/><path class="cls-55" d="M798,418.31c0-.09.1-.14.17-.19a1.89,1.89,0,0,1,.27-.2.56.56,0,0,1,.51-.08,1.3,1.3,0,0,1,.56,1c0,.35,0,.91-.37,1.05a1.83,1.83,0,0,1-1.37-.17c-.34-.18-.64.33-.3.52a2.52,2.52,0,0,0,1.57.28,1.2,1.2,0,0,0,.7-.3,1.31,1.31,0,0,0,.33-.64,2.53,2.53,0,0,0-.19-1.58,1.33,1.33,0,0,0-1.08-.83,1.44,1.44,0,0,0-.8.29c-.22.17-.52.36-.58.66a.31.31,0,0,0,.21.37.3.3,0,0,0,.37-.21Z"/><path class="cls-55" d="M799.69,419.92a2.35,2.35,0,0,0,.12,1.34.16.16,0,0,0,.19.11.15.15,0,0,0,.1-.19A2.07,2.07,0,0,1,800,420a.14.14,0,0,0-.1-.18.15.15,0,0,0-.19.1Z"/><path class="cls-55" d="M799.75,419.88l.56.42c.1.08.21,0,.22-.13l.11-1.17-.3,0,.58,1.52a.15.15,0,0,0,.18.11.16.16,0,0,0,.11-.19l-.58-1.52a.15.15,0,0,0-.29,0l-.11,1.17.23-.13-.56-.42a.15.15,0,0,0-.15.26Z"/><path class="cls-55" d="M800.81,418.91a.67.67,0,0,0,.52,0,.15.15,0,0,0-.16-.26l0,0,0,0-.12,0H801l-.1,0a.17.17,0,0,0-.12,0,.1.1,0,0,0-.06.09.14.14,0,0,0,0,.11.13.13,0,0,0,.09.07Z"/><path class="cls-55" d="M800.7,418.73a1.08,1.08,0,0,0,.23.92.58.58,0,0,0,.45.24.36.36,0,0,0,.35-.35.15.15,0,0,0-.15-.15.15.15,0,0,0-.15.15s0,0,0,0h0s0,0,0,0h-.12l0,0a.11.11,0,0,1-.06,0l-.06-.06,0,0s0,0,0,0a1.09,1.09,0,0,1-.08-.15s0,0,0,0v0s0-.05,0-.08v-.25a.43.43,0,0,0,0-.05.15.15,0,0,0-.1-.18.15.15,0,0,0-.19.1Z"/><path class="cls-55" d="M801.1,419.54l.43-.21a.15.15,0,0,0,.05-.21.15.15,0,0,0-.2-.05l-.43.21a.16.16,0,0,0-.05.21.15.15,0,0,0,.2.05Z"/><path class="cls-55" d="M801.51,418.66a2.69,2.69,0,0,0,1-.32.15.15,0,0,0-.15-.26,2.35,2.35,0,0,1-.43.19l-.23.05-.12,0h-.11a.15.15,0,0,0-.15.15.17.17,0,0,0,.15.15Z"/><path class="cls-55" d="M801.87,418.46a2.5,2.5,0,0,0,.08,1,.16.16,0,0,0,.19.1.14.14,0,0,0,.1-.18,2.28,2.28,0,0,1-.07-.9c0-.08-.08-.15-.15-.15a.15.15,0,0,0-.15.15Z"/><path class="cls-55" d="M802.39,418.68l0,.39a.16.16,0,0,0,0,.11.18.18,0,0,0,.1,0,.14.14,0,0,0,.15-.15l0-.39a.14.14,0,0,0-.15-.15.12.12,0,0,0-.1,0,.22.22,0,0,0-.05.11Z"/><path class="cls-55" d="M802.71,418.68l.08-.05s0,0,0,0h0s0,0,0,0h0v0h0s0,0,0,0,0,0,0,0v0s0,0,0,0l0,0s0,0,0,0h-.08l-.1,0a.15.15,0,0,0-.1.13.16.16,0,0,0,.07.15l.09.07,0,0s0,0,0,0l0,0,.17.14a.15.15,0,1,0,.21-.21,4.08,4.08,0,0,0-.39-.31l0,.27a.58.58,0,0,0,.26-.09.31.31,0,0,0,.14-.32.29.29,0,0,0-.27-.2.42.42,0,0,0-.28.1.15.15,0,0,0-.06.2.16.16,0,0,0,.21.06Z"/><path class="cls-55" d="M803.08,418.28a.55.55,0,0,0,0,.38.32.32,0,0,0,.51,0,.42.42,0,0,0,.1-.17.39.39,0,0,0,0-.14.33.33,0,0,0,0-.14.26.26,0,0,0-.07-.11.44.44,0,0,0-.19-.1.74.74,0,0,0-.21,0,.15.15,0,0,0-.11,0,.21.21,0,0,0,0,.11.12.12,0,0,0,0,.1.16.16,0,0,0,.11.05h.09l.11,0,0,0,0,0,0,0h0l0,0v0l0,0v0a.53.53,0,0,1-.05.18l0,0,0,.07,0,0,0,0,0,0,0,0h0l0,0,0,0,0,0,0,0,0,0s0,0,0,0v0s0,0,0-.06v0s0-.06,0-.08a.17.17,0,0,0,0-.12.2.2,0,0,0-.09-.07.16.16,0,0,0-.19.11Z"/><path class="cls-55" d="M803.73,417.8a1.11,1.11,0,0,0,0,.6.55.55,0,0,0,.2.25.32.32,0,0,0,.36,0,.15.15,0,0,0,0-.21.16.16,0,0,0-.22,0h0s0,0,0,0,0,0,0,0h0s0,0,0,0l0,0v0h0s0,0,0,0,0,0,0-.05a.11.11,0,0,0,0-.05v0s0,0,0,0,0,0,0,0v-.24s0,0,0,0v0a.15.15,0,0,0-.1-.18.15.15,0,0,0-.19.1Z"/><path class="cls-55" d="M804.56,418.4c0-.22,0-.44.05-.66l-.25.1a1.81,1.81,0,0,1,.24.24s0,0,0,0l0,0,0,.07a1.09,1.09,0,0,1,.08.15.16.16,0,0,0,.21.06.16.16,0,0,0,0-.21,1.74,1.74,0,0,0-.45-.56.14.14,0,0,0-.16,0,.15.15,0,0,0-.1.14c0,.22,0,.44,0,.66a.15.15,0,1,0,.3,0Z"/><path class="cls-55" d="M804.6,418.39h.07a.35.35,0,0,0,.11,0l.05,0a.1.1,0,0,0,0,0,.08.08,0,0,0,0-.05v-.06a.22.22,0,0,0-.07-.09.17.17,0,0,0-.12,0l-.07,0h-.09l0,0s0,0,0,.05a.07.07,0,0,0,0,.06.12.12,0,0,0,0,.1l0,0,.08,0Z"/><path class="cls-55" d="M804.83,417.69a1.7,1.7,0,0,0,.1.59.15.15,0,0,0,.18.11.18.18,0,0,0,.11-.19,1.07,1.07,0,0,1-.07-.27v0h0s0,0,0-.07v-.14a.15.15,0,0,0-.15-.15.15.15,0,0,0-.15.15Z"/><path class="cls-55" d="M805.08,417.88l0,0h0s0,0,0,0l0,0h.11s.05,0,0,0,0,0,0,0l0,0a0,0,0,0,1,0-.05s0,0,0,0,0,0,0,0h0l-.18.11a.15.15,0,0,0,0,.26l.28.17.14.1s0,0,0,0l0,0,.07.06a.15.15,0,0,0,.21-.21,3.45,3.45,0,0,0-.59-.41v.26a1.38,1.38,0,0,0,.25-.17.23.23,0,0,0,0-.34.36.36,0,0,0-.3-.09.47.47,0,0,0-.28.09.16.16,0,0,0,0,.21.15.15,0,0,0,.2.05Z"/><path class="cls-55" d="M805.8,417.63a3.57,3.57,0,0,0,0,.8c0,.08.06.16.15.15a.15.15,0,0,0,.15-.15,3.57,3.57,0,0,1,0-.8.15.15,0,1,0-.3,0Z"/><path class="cls-55" d="M806,417.84h0s0,0,0,0l0,0h0l0,0s0,0,0,0l0,0s0,0,0,0a0,0,0,0,1,0,0s0,0,0,0v.08a.06.06,0,0,1,0,0s0,0,0,0a.24.24,0,0,1,0,.08v0s0,0,0,0,0,0,0,0h0l-.05,0h0l0,0s0,0,0,0a.29.29,0,0,0-.09.15.15.15,0,0,0,.11.18.14.14,0,0,0,.18-.1v0h0v0s0,0,0,0l0,0h0a.5.5,0,0,0,.15-.14.7.7,0,0,0,.11-.38.53.53,0,0,0-.14-.38.41.41,0,0,0-.38-.11.14.14,0,0,0-.1.18.15.15,0,0,0,.18.11Z"/><path class="cls-55" d="M801.86,420.73c.24-.63,1-.93,1.57-1.17a11.4,11.4,0,0,1,2.21-.64l-.11-.27a18.56,18.56,0,0,0-2.52,1.46.15.15,0,0,0,.07.28,1.78,1.78,0,0,0,.75-.2l.38-.15c.06,0,.3-.17.36-.12l-.07-.09,0,0c.07.18.36.1.29-.08s-.43-.13-.64,0a2.86,2.86,0,0,1-1.09.36l.08.28a17.56,17.56,0,0,1,2.52-1.46c.16-.08,0-.31-.12-.28a10.91,10.91,0,0,0-2.44.74,2.61,2.61,0,0,0-1.55,1.28c-.07.18.22.26.29.08Z"/><path class="cls-55" d="M804,420.32a.25.25,0,0,0-.22,0,.31.31,0,0,0-.13.19.41.41,0,0,0,0,.11.17.17,0,0,0,0,.15.21.21,0,0,0,.1.06l.06,0,0,0h0l0,0h0l0,0h0v-.06s0,0,0,0v0l0,0v0l0,0,0,0,0,0-.06,0,0,0h0s-.07,0-.09.07a.13.13,0,0,0,0,.12.18.18,0,0,0,.06.09s.08,0,.12,0A.29.29,0,0,0,804,421a.21.21,0,0,0,.08-.17.21.21,0,0,0-.11-.18l-.11,0h0l0,0h0l0,0h0v0h0v0l0-.08v0s0,0,0,0l0,0,0,0,0,0,0,0h0a.24.24,0,0,0,.12,0,.2.2,0,0,0,.07-.09.17.17,0,0,0,0-.12.22.22,0,0,0-.09-.07Z"/><path class="cls-55" d="M804,420.27a1.11,1.11,0,0,0,.32.67.18.18,0,0,0,.1,0,.18.18,0,0,0,.11,0,.12.12,0,0,0,0-.11.17.17,0,0,0,0-.11l0-.05v0h0l0,0-.08-.13a.43.43,0,0,0,0-.07v0s0,0,0,0v0s0-.05,0-.07h0v0a.15.15,0,1,0-.3,0Z"/><path class="cls-55" d="M804.09,420.74a.57.57,0,0,0,.18-.12.65.65,0,0,0,.15-.18.14.14,0,0,0,0-.11.16.16,0,0,0-.07-.09.15.15,0,0,0-.11,0,.22.22,0,0,0-.09.07.61.61,0,0,0,0,.06l0,0a.57.57,0,0,1-.11.11l0,0-.13.07a.13.13,0,0,0-.06.09.16.16,0,0,0,0,.12.16.16,0,0,0,.09.07h0l.08,0Z"/><path class="cls-55" d="M804.26,420.3a.35.35,0,0,0,.15.23l.11.05a.21.21,0,0,0,.22-.07.61.61,0,0,0,.07-.14l0-.1a.74.74,0,0,0,0-.26.19.19,0,0,0-.05-.1.14.14,0,0,0-.1-.05.22.22,0,0,0-.11.05.11.11,0,0,0,0,.1,1,1,0,0,1,0,.17v0a.94.94,0,0,1,0,.16v0a.2.2,0,0,1,0,.08l0,0h0l0,0h0l0,0h0l0,0,0,0,0,0,0,0,0,0,0,0,0,0a.09.09,0,0,1,0,0,.2.2,0,0,0-.07-.09.13.13,0,0,0-.12,0,.13.13,0,0,0-.09.07.14.14,0,0,0,0,.11Z"/><path class="cls-55" d="M804.91,419.63a.73.73,0,0,0,0,.36l.1-.18h0l-.08,0h-.05a.18.18,0,0,0-.09.1.39.39,0,0,0,0,.26.15.15,0,0,0,.18.1.15.15,0,0,0,.11-.18.06.06,0,0,1,0,0v0a.19.19,0,0,1,0-.07l-.22.09a.28.28,0,0,0,.13,0,.17.17,0,0,0,.1,0,.15.15,0,0,0,.11-.18l0-.1v0a.54.54,0,0,1,0-.18v0h0a.25.25,0,0,0,0-.12.11.11,0,0,0-.09-.06.17.17,0,0,0-.12,0,.11.11,0,0,0-.06.09Z"/><path class="cls-55" d="M805.47,419.89a.52.52,0,0,0,.16-.34.21.21,0,0,0-.14-.21.2.2,0,0,0-.24.11.51.51,0,0,0-.09.31.54.54,0,0,0,.13.32.56.56,0,0,0,.34.17.18.18,0,0,0,.11-.05.18.18,0,0,0,0-.1.21.21,0,0,0,0-.11.17.17,0,0,0-.11,0s0,0,0,0h0l0,0h0s0,0,0,0l0,0h0v0l0,0h0a.43.43,0,0,0,0-.05h0v-.08a.14.14,0,0,0,0-.06s0,0,0,0l0,0h0s0,0,0,0v0s0,0-.16,0,0,0,0,0h0v0h0l0,.06h0l0,0a.17.17,0,0,0,0,.22.15.15,0,0,0,.21,0Z"/><path class="cls-55" d="M805.55,419.48a.4.4,0,0,0,.05.26.13.13,0,0,0,.18.06.14.14,0,0,0,.09-.17s0,0,0-.06v0a.86.86,0,0,1,0-.16v0a.09.09,0,0,1,0-.05v0h0s0,0,0,0h-.05l.05,0,0,0,0,0h0l0,0,0,0,0,0h0a1.13,1.13,0,0,1,.12.21.16.16,0,0,0,.21.06.16.16,0,0,0,.05-.21.87.87,0,0,0-.25-.35.38.38,0,0,0-.25-.11.24.24,0,0,0-.25.18.39.39,0,0,0,0,.15,1.1,1.1,0,0,0,0,.18l.27-.12v0s0,0,0-.05v0a.06.06,0,0,1,0-.06v0h0a.14.14,0,0,0,0-.11.2.2,0,0,0-.09-.07.15.15,0,0,0-.19.1Z"/><path class="cls-55" d="M806.05,419.09a.71.71,0,0,0,.13.4.13.13,0,0,0,.09.07.16.16,0,0,0,.12,0,.16.16,0,0,0,.07-.09.25.25,0,0,0,0-.12l-.06-.11v0a.75.75,0,0,1,0-.16v0a.13.13,0,0,1,0-.06.15.15,0,0,0,0-.11.12.12,0,0,0-.11,0,.12.12,0,0,0-.1,0,.14.14,0,0,0-.05.11Z"/><path class="cls-55" d="M806,419.37l.44,0a.15.15,0,0,0,.15-.15.17.17,0,0,0-.15-.15l-.44,0a.14.14,0,0,0-.15.15.15.15,0,0,0,.15.15Z"/><path class="cls-55" d="M805.19,420.74l0,0a.16.16,0,0,0,.11.05l.09,0a.17.17,0,0,0,0-.2.31.31,0,0,1-.05-.1v0a.9.9,0,0,1-.06-.22v0a.13.13,0,0,1,0-.06v0a0,0,0,0,1,0,0l0,0v0s0,0,0,0h0s0,0,0,0h0l.08,0h0a.45.45,0,0,1,.16,0h0l0,0s0,0,0,0v0h0v0h0v0h0v0h0s0,0,0,0v0l0,0h0a.21.21,0,0,1-.1.06.2.2,0,0,0-.07.09.16.16,0,0,0,0,.12.14.14,0,0,0,.2.05.66.66,0,0,0,.23-.17.21.21,0,0,0,0-.12.19.19,0,0,0-.09-.15.25.25,0,0,0-.17,0,.55.55,0,0,0-.28.07.26.26,0,0,0-.11.16.55.55,0,0,0,0,.18.84.84,0,0,0,.12.31l.23-.18-.05,0a.14.14,0,0,0-.11,0,.18.18,0,0,0-.15.15.14.14,0,0,0,.05.11Z"/><path class="cls-55" d="M805.84,420.12a.22.22,0,0,0,0,.11.15.15,0,0,0,0,.07.48.48,0,0,0,.07.2s0,.05.07.06a.15.15,0,0,0,.13,0,.24.24,0,0,0,.12-.1.59.59,0,0,1,0-.08l0-.08,0,0h0l0,0h-.08l0,0,.08.05.09.06a.15.15,0,0,0,.2-.06.15.15,0,0,0,0-.2l-.11-.07a.26.26,0,0,0-.21-.06.31.31,0,0,0-.11.09.08.08,0,0,0,0,.05l-.06.11,0,0h0l0,0h0l0,0h.07l0,0h0l0,0h0l0,0,0-.05,0,0a.14.14,0,0,1,0-.07v0a.09.09,0,0,1,0-.07v0a.14.14,0,0,1,0-.07.15.15,0,0,0,0-.11A.13.13,0,0,0,806,420a.14.14,0,0,0-.11,0l0,0s0,0,0,.06Z"/><path class="cls-55" d="M806.48,419.9a.36.36,0,0,0,.07.18.34.34,0,0,0,.08.09l.09.07,0,0,0,0,0,0v-.08h0l0,0h0l0,0h0l0,0h0a.15.15,0,0,0-.11,0,.21.21,0,0,0,0,.11.15.15,0,0,0,.15.15.21.21,0,0,0,.17-.1.29.29,0,0,0,0-.16c0-.09-.1-.14-.17-.19l0,0-.06-.06,0,0a.22.22,0,0,1-.05-.08l0,0,0-.08s0-.07-.06-.09a.13.13,0,0,0-.12,0,.15.15,0,0,0-.09.06.17.17,0,0,0,0,.12Z"/><path class="cls-55" d="M807,419.75a.25.25,0,0,0,.09.19l.14.1,0,0,0,0,0,0,0,0,0,0a0,0,0,0,1,0,0V420a0,0,0,0,1,0,0l0,0,0,0,0,0,0,0,0,0-.07,0a.15.15,0,0,0-.05.21.15.15,0,0,0,.2,0,.36.36,0,0,0,.16-.14.23.23,0,0,0,0-.24c0-.09-.14-.13-.21-.19l0,0s0,0,0,0l0,0,0,0,0,0v0h0c0-.08-.07-.16-.15-.15a.14.14,0,0,0-.15.15Z"/><path class="cls-55" d="M797.6,418.5l.08.08,0,0,0,0a.68.68,0,0,1,.07.2.15.15,0,0,0,.14.11.16.16,0,0,0,.15-.11.47.47,0,0,1,.14-.28l-.23,0a3.42,3.42,0,0,1,.17.4,2.25,2.25,0,0,1,.05.22.43.43,0,0,1,0,.11.36.36,0,0,1,0,.1.16.16,0,0,0,.15.15c.07,0,.16-.07.15-.15a2.79,2.79,0,0,0-.3-1,.16.16,0,0,0-.24,0,.72.72,0,0,0-.22.41h.29a1,1,0,0,0-.27-.49.17.17,0,0,0-.22,0,.15.15,0,0,0,0,.21Z"/><path class="cls-55" d="M798.24,418.6l.72-.07a.16.16,0,0,0,.15-.15c0-.07-.07-.16-.15-.15l-.72.07a.15.15,0,0,0-.15.15c0,.07.07.16.15.15Z"/><path class="cls-55" d="M799,418.47l.63,1.13c.09.17.35,0,.26-.15l-.63-1.13c-.09-.17-.35,0-.26.15Z"/><path class="cls-55" d="M797.67,419.82c0-.12.05-.25.08-.37h0q0,.07-.15.06h0l.07.07.14.13a.15.15,0,0,0,.26-.1v0h0v0h0l0,0s0,0,0,0l0,0-.26-.11a1,1,0,0,0,.24.66.14.14,0,0,0,.21,0,.15.15,0,0,0,0-.21h0l0,0,0-.06a.11.11,0,0,1,0-.06h0v-.05l0-.14h0a0,0,0,0,1,0,0v-.08a.15.15,0,0,0-.26-.1.44.44,0,0,0-.13.31l.25-.11-.17-.17a.87.87,0,0,0-.11-.09.2.2,0,0,0-.22,0c-.08.06-.08.16-.1.25l-.06.24a.17.17,0,0,0,.11.19.16.16,0,0,0,.18-.11Z"/><path class="cls-55" d="M798.27,418.87a1.17,1.17,0,0,0,.11.61.11.11,0,0,0,.09.07.14.14,0,0,0,.11,0,.16.16,0,0,0,.07-.09.17.17,0,0,0,0-.12h0v0a.64.64,0,0,0,0-.07l0-.14v0a1.13,1.13,0,0,1,0-.26s0-.08,0-.1a.14.14,0,0,0-.21,0,.19.19,0,0,0-.05.1Z"/><path class="cls-55" d="M798.76,418.93l0,1.06a.15.15,0,1,0,.3,0l0-1.06a.16.16,0,0,0-.15-.15.15.15,0,0,0-.15.15Z"/><path class="cls-55" d="M798.31,419.4a6.77,6.77,0,0,0,0,.9.15.15,0,0,0,.15.15.16.16,0,0,0,.15-.15,6.77,6.77,0,0,1,0-.9.15.15,0,0,0-.15-.15.16.16,0,0,0-.15.15Z"/><path class="cls-55" d="M799.14,419.57a.76.76,0,0,0,.08.39.2.2,0,0,0,.09.07.17.17,0,0,0,.12,0,.28.28,0,0,0,.07-.09.23.23,0,0,0,0-.12v0a.66.66,0,0,1,0-.15v0a.57.57,0,0,1,0-.13.14.14,0,0,0,0-.11.12.12,0,0,0-.11,0,.12.12,0,0,0-.1,0l0,0a.19.19,0,0,0,0,.08Z"/><path class="cls-55" d="M799.22,419.31a.15.15,0,0,0,0-.3.15.15,0,0,0,0,.3Z"/><path class="cls-55" d="M799.84,419.29a.87.87,0,0,0-.12-.73c-.13-.21-.32-.38-.46-.58a.15.15,0,0,0-.2-.06.16.16,0,0,0-.06.21c.13.19.3.35.43.53a.62.62,0,0,1,.12.55.16.16,0,0,0,.11.19.15.15,0,0,0,.18-.11Z"/><path class="cls-55" d="M797.75,419.92h0l.08,0h0a.14.14,0,0,0,.11,0l0,0a.08.08,0,0,0,0,0,.17.17,0,0,0,0-.12.31.31,0,0,0-.07-.09l-.13,0-.13,0-.06,0s0,0-.05,0l0,.05a.07.07,0,0,0,0,0,.15.15,0,0,0,0,.11.12.12,0,0,0,.11,0Z"/><path class="cls-55" d="M797.7,419.84a.15.15,0,0,0,0-.3.15.15,0,0,0,0,.3Z"/><path class="cls-55" d="M799.74,418.9c-.11-.2-.23-.4-.36-.59a.78.78,0,0,0-.54-.36,1.84,1.84,0,0,0-.33,0l-.35,0a.43.43,0,0,0-.4.3c0,.16.19.27.27.11.19-.37.69-.35,1.05-.33.19,0,.19-.29,0-.3-.48,0-1.06,0-1.31.48l.27.12c0-.09.2-.1.28-.11a2,2,0,0,1,.54,0c.16,0,.25.18.33.3l.3.49c.09.16.35,0,.25-.15Z"/><path class="cls-55" d="M798.73,424.88c-.14.2-.29.39-.45.58a.15.15,0,0,0,0,.23,6.15,6.15,0,0,0,.66.37.17.17,0,0,0,.21-.05.16.16,0,0,0,0-.21,6.29,6.29,0,0,1-.67-.37l0,.24c.18-.2.34-.42.5-.63a.16.16,0,0,0-.06-.21.16.16,0,0,0-.2.05Z"/><path class="cls-55" d="M800,424.67a.85.85,0,0,0-.27.23c-.09.11-.2.27-.12.42a.26.26,0,0,0,.15.12l.19.09.37.17a.15.15,0,0,0,.21-.05.15.15,0,0,0-.06-.2l-.31-.15-.3-.14h0a.08.08,0,0,1,0,0h0s0,0,0,0a.21.21,0,0,0,0-.06l0,0h0l.09-.1s0,0,0,0l0,0,.07,0a.15.15,0,0,0,0-.2.16.16,0,0,0-.21-.06Z"/><path class="cls-55" d="M801.12,424.53l-.27.3-.14.16a.7.7,0,0,0-.14.16.2.2,0,0,0,.09.26l.21.08.38.15a.15.15,0,1,0,.08-.29l-.29-.11-.13-.05-.07,0,0,0h0s0,0,.05.06v.08s0,0,0,0l0,0,.07-.07.13-.15.27-.29a.15.15,0,0,0,0-.21.15.15,0,0,0-.22,0Z"/><path class="cls-55" d="M801.83,424.91l0,.29a.18.18,0,0,0,0,.1.15.15,0,0,0,.22,0,.18.18,0,0,0,0-.1l0-.29a.14.14,0,0,0-.15-.15.15.15,0,0,0-.11,0,.21.21,0,0,0,0,.11Z"/><path class="cls-55" d="M802.24,424.88v.21a.15.15,0,0,0,.07.13.16.16,0,0,0,.15,0l.09-.09,0-.09,0-.11v0s0,0,0,0l0,0h0l0,0h-.05l0,0,0,0,0,0v0s0,0,0,.05v0a.33.33,0,0,1,0,.1.18.18,0,0,0,0,.1.15.15,0,0,0,.22,0l0,0a.19.19,0,0,0,0-.07.22.22,0,0,0,0-.08.45.45,0,0,0,0-.11.41.41,0,0,0-.07-.11l-.12-.06h-.06l-.08,0,0,0,0,0a.61.61,0,0,0-.07.14.29.29,0,0,1,0,.1l0,0,0,0,0,0s0,0,0,0l0,0h0l.23.13v-.21a.16.16,0,0,0,0-.11.18.18,0,0,0-.1,0,.21.21,0,0,0-.11,0,.17.17,0,0,0,0,.11Z"/><path class="cls-55" d="M803.12,424.63a.22.22,0,0,0-.27.25.41.41,0,0,0,0,.16.56.56,0,0,1,0,.12v0a.08.08,0,0,0,0,0s0,0,0,0v0s0,0,0,0h0s0,0,0,0h0a.15.15,0,0,0,0,.3.23.23,0,0,0,.18-.08.36.36,0,0,0,.08-.2,1.08,1.08,0,0,0-.07-.31v0a0,0,0,0,1,0,0v0s0,0,0,0h0l0,0H803a.15.15,0,0,0,.18-.11.15.15,0,0,0-.1-.18Z"/><path class="cls-55" d="M803.58,425v0l0,0,0,0h0l.06-.08a.22.22,0,0,0,.05-.17.26.26,0,0,0-.1-.2.23.23,0,0,0-.26,0,.47.47,0,0,0-.14.31.46.46,0,0,0,.08.3.45.45,0,0,0,.19.14.27.27,0,0,0,.23,0s.06,0,.07-.09a.13.13,0,0,0,0-.12.16.16,0,0,0-.09-.07.22.22,0,0,0-.11,0h0l0,0,0,0,0,0h0l0,0s0,0,0,0h0l0,0v0s0-.05,0-.07v0a.17.17,0,0,1,0-.1v0s0-.05,0-.07v0l0-.06h-.09s0,0,0,0,0,0,0,0v0l0,0,0,0h0v0a.46.46,0,0,0-.09.15.15.15,0,0,0,.11.18.14.14,0,0,0,.18-.1Z"/><path class="cls-55" d="M803.77,424.66a1,1,0,0,0,0,.35.07.07,0,0,0,0,.05l0,.05a.16.16,0,0,0,.11.05s.08,0,.1-.05a.19.19,0,0,0,0-.1v0l0-.11v0l0-.05,0,0,0,0,0,0h0a.16.16,0,0,0,.11,0,.15.15,0,0,0,0-.1.15.15,0,0,0,0-.11.21.21,0,0,0-.11,0H804a.28.28,0,0,0-.09.06.16.16,0,0,0-.07.09.54.54,0,0,0-.06.25h.3a1.22,1.22,0,0,1,0-.27v0a.06.06,0,0,0,0-.06s0,0,0-.05a.13.13,0,0,0-.09-.07.14.14,0,0,0-.11,0,.2.2,0,0,0-.07.09Z"/><path class="cls-55" d="M804.3,424.35a1.19,1.19,0,0,0,0,.7.16.16,0,0,0,.18.11.18.18,0,0,0,.11-.19.88.88,0,0,1,0-.15v-.05s0,0,0,0a.22.22,0,0,1,0-.08.76.76,0,0,1,0-.15v0s0,0,0,0,0-.05,0-.08a.16.16,0,0,0-.1-.18.15.15,0,0,0-.19.1Z"/><path class="cls-55" d="M804.26,424.84h.46a.15.15,0,1,0,0-.3h-.46a.15.15,0,1,0,0,.3Z"/><path class="cls-55" d="M805.05,424.29a1.54,1.54,0,0,0,0,.74.15.15,0,1,0,.29-.07,1.24,1.24,0,0,1,0-.16v-.05s0,0,0,0v-.08a.43.43,0,0,1,0-.16.22.22,0,0,1,0-.08s0,0,0,0v-.05a.16.16,0,0,0-.11-.18.14.14,0,0,0-.18.1Z"/><path class="cls-55" d="M805,424.7h.39a.15.15,0,1,0,0-.3H805a.15.15,0,0,0,0,.3Z"/><path class="cls-55" d="M805.32,424.18a1.72,1.72,0,0,0,0,.64.14.14,0,0,0,.16.11.14.14,0,0,0,.13-.15v0s0,0,0,0v0h0s0,0,0,0h0s0,0,0,0h-.05s0,0,0,0,0,0,0,0h0s0,0,0,0v.06h0v0a.11.11,0,0,0,0,.11.14.14,0,0,0,.08.07.15.15,0,0,0,.19-.1.61.61,0,0,0,0-.27.26.26,0,0,0-.47,0,.5.5,0,0,0-.06.24l.3,0a.13.13,0,0,1,0-.06s0,0,0,0v-.35s0,0,0,0a.2.2,0,0,1,0-.07.15.15,0,0,0-.11-.18.14.14,0,0,0-.18.1Z"/><path class="cls-55" d="M805.83,424.54v.16a.08.08,0,0,0,0,.05.12.12,0,0,0,.08.08l.05,0a.22.22,0,0,0,.11-.05l0,0a.1.1,0,0,0,0-.07v-.16a.07.07,0,0,0,0-.05l0-.05a.05.05,0,0,0-.05,0l-.06,0a.16.16,0,0,0-.1.05l0,0a.19.19,0,0,0,0,.07Z"/><path class="cls-55" d="M806.41,424.28a.19.19,0,0,0-.11.07l0,0,0,0v0a.13.13,0,0,1,0,.06.08.08,0,0,0,0,.05.12.12,0,0,0,.08.08l0,0a.22.22,0,0,0,.11-.05l0,0a.1.1,0,0,0,0-.07h0v.05a0,0,0,0,0,0,0l0,0,0,0,0,0h0l0,0h0a.15.15,0,0,0,.09-.06.14.14,0,0,0,0-.06v-.06a.22.22,0,0,0-.07-.09.13.13,0,0,0-.12,0Z"/><path class="cls-55" d="M806.85,424.31a.57.57,0,0,0,.17.44.15.15,0,0,0,.21,0l.18-.22-.26-.11a.74.74,0,0,0,.05.33.13.13,0,0,0,.1.1.16.16,0,0,0,.15,0,.8.8,0,0,0,.23-.37.14.14,0,0,0-.1-.18.15.15,0,0,0-.19.1.06.06,0,0,1,0,0s0,0,0,0,0,0,0,0l0,.08v0h0s0,0,0,0h0l-.07.06.26.07a.74.74,0,0,1,0-.14v0a.76.76,0,0,1,0-.15.14.14,0,0,0-.09-.14.15.15,0,0,0-.16,0l-.18.23h.21l0,0s0,0,0,0h0l0-.05s0,0,0,0v0s0,0,0-.07v0a.28.28,0,0,1,0-.09.15.15,0,0,0-.15-.15.15.15,0,0,0-.15.15Z"/><path class="cls-55" d="M807.83,424.27a.47.47,0,0,0-.05.1s0,0,0,.05,0,.05,0,.07,0,.09,0,.12a.16.16,0,0,0,0,.07.43.43,0,0,0,0,.07.18.18,0,0,0,.13,0,.16.16,0,0,0,.11-.07.75.75,0,0,0,.09-.29l-.22.13,0,0,0,0,0,0,0,0s0,0,0,.05v0a.15.15,0,0,0,.06.09.17.17,0,0,0,.12,0,.22.22,0,0,0,.09-.07.17.17,0,0,0,0-.12.4.4,0,0,0-.16-.2.14.14,0,0,0-.15,0,.16.16,0,0,0-.08.13v0a.23.23,0,0,1,0,.11l0,0,0,.08.23,0h0l0,0,0-.05,0,0s0,0,0-.06v0a.06.06,0,0,1,0-.06v0a.14.14,0,0,1,0-.07l0,0,0-.05a.16.16,0,0,0,0-.12.2.2,0,0,0-.07-.09.17.17,0,0,0-.12,0h0l-.06.06Z"/><path class="cls-55" d="M808.49,424.31l.2-.1-.23-.13a2.17,2.17,0,0,1,0,.36c0,.05,0,0,0,0v0s0,.06,0,.09,0,.12,0,.18a.14.14,0,0,0,.1.18.15.15,0,0,0,.19-.1,2.5,2.5,0,0,0,.09-.77.15.15,0,0,0-.22-.13l-.2.11a.14.14,0,0,0-.05.2.15.15,0,0,0,.2.05Z"/><path class="cls-52" d="M792.54,436.74a24.34,24.34,0,0,0,3.62-.2,1.07,1.07,0,0,0,.71-.29,1,1,0,0,0,0-1.41,1,1,0,0,0-.71-.3,24.34,24.34,0,0,1-3.62.2,1,1,0,0,0,0,2Z"/><path class="cls-52" d="M791,436.07l.3,3.21a7.4,7.4,0,0,0,.74,3,3.28,3.28,0,0,0,2.28,1.67,5.59,5.59,0,0,0,3.16-.7,1,1,0,0,0,.36-1.37,1,1,0,0,0-1.37-.36,5.92,5.92,0,0,1-1,.38,1.71,1.71,0,0,1-.85.08l-.22-.07c.13.06-.06,0-.08-.05s-.2-.12-.09,0l-.19-.18s-.16-.17-.07-.07c-.06-.07-.1-.14-.15-.21l-.13-.23c-.08-.15,0,0,0-.1a8.37,8.37,0,0,1-.4-2.32l-.25-2.68a1,1,0,0,0-1-1,1,1,0,0,0-1,1Z"/><path class="cls-52" d="M792.87,440.34a22,22,0,0,0,3.63-.07,1.05,1.05,0,0,0,.71-.29,1,1,0,0,0,.29-.71,1,1,0,0,0-1-1,22,22,0,0,1-3.63.07,1,1,0,0,0,0,2Z"/></svg>