<svg id="_18._3_bard_commute" data-name="18. (3) bard commute" xmlns="http://www.w3.org/2000/svg" viewBox="0 0 1357.03 1080"><defs><style>.cls-1{font-size:5px;}.cls-1,.cls-4{fill:#c1272d;}.cls-1,.cls-13,.cls-14,.cls-15,.cls-16,.cls-17,.cls-18,.cls-19,.cls-20,.cls-21,.cls-22,.cls-23,.cls-31,.cls-32,.cls-33,.cls-34,.cls-35,.cls-37,.cls-42,.cls-43,.cls-44,.cls-45,.cls-46,.cls-58,.cls-59{font-family:Montserrat-Regular, Montserrat;}.cls-2,.cls-33{letter-spacing:0em;}.cls-14,.cls-15,.cls-3{fill:gray;}.cls-5{fill:#fccc0a;}.cls-6{fill:#ff6319;}.cls-7{font-size:9px;font-family:Montserrat-Bold, Montserrat;font-weight:700;}.cls-8{letter-spacing:-0.02em;}.cls-9{letter-spacing:-0.02em;}.cls-10,.cls-12{font-family:Montserrat-Medium, Montserrat;font-weight:500;}.cls-11{letter-spacing:0em;}.cls-12,.cls-23{font-size:7px;}.cls-13,.cls-14,.cls-15,.cls-16,.cls-17,.cls-18,.cls-19,.cls-20,.cls-21,.cls-22,.cls-23,.cls-31,.cls-32,.cls-33,.cls-34,.cls-35,.cls-37,.cls-42,.cls-43,.cls-44,.cls-45,.cls-46,.cls-58,.cls-59{font-weight:400;}.cls-14,.cls-38{letter-spacing:-0.02em;}.cls-16{letter-spacing:-0.01em;}.cls-17{letter-spacing:0.01em;}.cls-18{letter-spacing:0.08em;}.cls-19,.cls-56{letter-spacing:-0.01em;}.cls-20{letter-spacing:-0.01em;}.cls-21,.cls-24{letter-spacing:-0.02em;}.cls-22,.cls-60{letter-spacing:0em;}.cls-25{letter-spacing:0em;}.cls-26{letter-spacing:0.01em;}.cls-27{letter-spacing:-0.01em;}.cls-28,.cls-44{letter-spacing:-0.01em;}.cls-29{letter-spacing:-0.03em;}.cls-30{letter-spacing:0.01em;}.cls-31{letter-spacing:-0.02em;}.cls-32{letter-spacing:0em;}.cls-34{fill:#a67c52;}.cls-35{letter-spacing:0.08em;}.cls-36{letter-spacing:-0.01em;}.cls-37{fill:#0039a6;}.cls-39{letter-spacing:-0.01em;}.cls-40{letter-spacing:-0.02em;}.cls-41{letter-spacing:-0.03em;}.cls-42,.cls-47{letter-spacing:-0.01em;}.cls-43,.cls-49{letter-spacing:-0.01em;}.cls-45{letter-spacing:-0.02em;}.cls-46,.cls-51{letter-spacing:-0.02em;}.cls-48{letter-spacing:-0.02em;}.cls-50{letter-spacing:-0.01em;}.cls-52{letter-spacing:0.02em;}.cls-53{letter-spacing:-0.01em;}.cls-54{letter-spacing:-0.02em;}.cls-55,.cls-59{letter-spacing:-0.01em;}.cls-57{letter-spacing:-0.01em;}.cls-58,.cls-62{fill:#b933ad;}.cls-61{letter-spacing:-0.01em;}.cls-63{fill:#fff;}.cls-64{fill:#8cca3e;}</style></defs><text class="cls-1" transform="translate(852.23 500.9)"><tspan class="cls-2">h</tspan><tspan x="3.39" y="0">o</tspan><tspan class="cls-2" x="6.53" y="0">m</tspan><tspan x="11.84" y="0">e</tspan></text><path class="cls-3" d="M847.22,491.39c-2.75-2.67-4.82-7.16-3.71-11a6.62,6.62,0,0,1,3.65-3.87,15.46,15.46,0,0,1,3.15-1.09c.56-.14,1.11-.26,1.67-.38.24-.05,1.08-.37,1.33-.25a1.55,1.55,0,0,0,2.06-.54,1.52,1.52,0,0,0-.54-2.05c-1.39-.64-2.72-.26-4.15.05a23.38,23.38,0,0,0-4.1,1.25,10.23,10.23,0,0,0-5.61,5.11,12.06,12.06,0,0,0-.08,8,16.28,16.28,0,0,0,4.2,6.91c1.39,1.34,3.51-.77,2.13-2.12Z"/><path class="cls-3" d="M853.82,476.43c3.86,0,3.86-6,0-6s-3.87,6,0,6Z"/><path class="cls-3" d="M848.82,497.43c3.86,0,3.86-6,0-6s-3.87,6,0,6Z"/><path class="cls-4" d="M850,497.08c3.86,0,3.87-6,0-6s-3.86,6,0,6Z"/><path class="cls-5" d="M829.36,450c4.94,1.76,9.58,4.88,13.81,8a21.72,21.72,0,0,1,8.52,12,1,1,0,0,0,1.93-.54,23.59,23.59,0,0,0-8.79-12.76c-2.27-1.72-4.72-3.25-7.15-4.75a40.4,40.4,0,0,0-7.79-3.87c-1.21-.44-1.74,1.5-.53,1.92Z"/><path class="cls-6" d="M827.22,451.82c4.95,1.76,9.59,4.88,13.82,7.94a21.76,21.76,0,0,1,8.52,12.05,1,1,0,0,0,1.93-.53,23.76,23.76,0,0,0-8.79-12.77c-2.28-1.72-4.73-3.24-7.15-4.74a41.32,41.32,0,0,0-7.79-3.88c-1.22-.43-1.74,1.5-.54,1.93Z"/><path class="cls-6" d="M830.07,459.57l2.25,2.2a1,1,0,0,0,1,.25,1,1,0,0,0,.7-.69c0-.11.08-.22.13-.33s0-.11,0,0c0-.06,0-.11.07-.16s.19-.4.29-.6a9.84,9.84,0,0,1,.71-1.17h-1.73l.27.52a2.56,2.56,0,0,0,.11.24s.12.27.07.17,0-.05,0,0a1.22,1.22,0,0,1,.07.17c0,.08.06.16.1.25s.12.33.17.51a13.39,13.39,0,0,1,.5,2.17,1,1,0,0,0,1.23.7,1,1,0,0,0,.69-1.23,13.62,13.62,0,0,0-1.5-4.55,1,1,0,0,0-.86-.5,1,1,0,0,0-.87.5,12.64,12.64,0,0,0-1.4,2.74l1.67-.44-2.25-2.2a1,1,0,0,0-1.41,1.42Z"/><path class="cls-5" d="M844.3,449a23.48,23.48,0,0,0,.63,5.67,1,1,0,1,0,1.93-.53c-.11-.44-.2-.89-.28-1.33l-.09-.62c0-.23,0,.05,0-.15s0-.25-.05-.37a23.75,23.75,0,0,1-.12-2.67,1,1,0,0,0-2,0Z"/><path class="cls-5" d="M846.55,449.68a2.73,2.73,0,0,1,.33-.35s.24-.19,0-.05l.2-.14.21-.11c-.11.06-.08,0,0,0l.23-.06c.11,0-.19,0,0,0,0,0,.19,0,.22,0h-.08l.11,0,.1,0-.06,0,.19.1L848,449l.11.1c.13.11,0-.09,0,0a.41.41,0,0,1,0,.09c0-.12,0-.15,0-.08l0,.1c0,.09,0,.09,0,0h0v.09a1.3,1.3,0,0,0,0,.21,1,1,0,0,1,0,.1c0,.07,0,.05,0-.07a.54.54,0,0,1-.1.2l0,.06c-.06.09-.06.08,0,0,0,0-.09.1-.12.13l-.09.08,0,0-.38.22c.2-.11,0,0-.07,0l-.23.07-.24.05c-.06,0-.31,0-.06,0l-.5,0a1,1,0,0,0-1,.87,1,1,0,0,0,.72,1.09,11.59,11.59,0,0,1,2.28.65c.06,0,0,0,0,0l.17.07.24.12a5.12,5.12,0,0,1,.52.27,10.87,10.87,0,0,1,1,.64,1,1,0,0,0,1.37-.36,1,1,0,0,0-.36-1.37,11.22,11.22,0,0,0-4.67-1.92l-.27,2a4.52,4.52,0,0,0,2.86-1,2.81,2.81,0,0,0,.88-2.69,2.42,2.42,0,0,0-2.34-1.75,3.48,3.48,0,0,0-2.61,1.3,1,1,0,1,0,1.42,1.42Z"/><text class="cls-7" transform="translate(897.25 350.88)"><tspan class="cls-8">C</tspan><tspan x="6.43" y="0">ommu</tspan><tspan class="cls-9" x="37.39" y="0">t</tspan><tspan x="41.15" y="0">e Options:</tspan><tspan class="cls-10"><tspan x="0" y="10.8">1) ~ </tspan><tspan class="cls-11" x="16.45" y="10.8">5</tspan><tspan x="21.57" y="10.8">3min </tspan></tspan><tspan class="cls-12"><tspan x="6" y="19.2">1.</tspan><tspan class="cls-13" x="10.18" y="19.2"> </tspan><tspan class="cls-14" x="12.01" y="19.2">w</tspan><tspan class="cls-15" x="18.05" y="19.2">alk</tspan><tspan class="cls-13" x="28.27" y="19.2"> </tspan><tspan class="cls-16" x="30.11" y="19.2">0</tspan><tspan class="cls-17" x="34.67" y="19.2">.</tspan><tspan class="cls-13" x="36.22" y="19.2">2mi </tspan><tspan class="cls-18" x="51.34" y="19.2">f</tspan><tspan class="cls-19" x="54.27" y="19.2">r</tspan><tspan class="cls-13" x="56.99" y="19.2">om Ba</tspan><tspan class="cls-20" x="80.04" y="19.2">r</tspan><tspan class="cls-13" x="82.76" y="19.2">d </tspan><tspan class="cls-21" x="89.34" y="19.2">t</tspan><tspan class="cls-13" x="92.05" y="19.2">o t</tspan><tspan class="cls-22" x="101.11" y="19.2">h</tspan><tspan class="cls-13" x="105.87" y="19.2">e </tspan></tspan><tspan class="cls-23"><tspan x="6" y="27.6">in</tspan><tspan class="cls-24" x="12.62" y="27.6">t</tspan><tspan x="15.33" y="27.6">e</tspan><tspan class="cls-25" x="19.56" y="27.6">r</tspan><tspan x="22.34" y="27.6">se</tspan><tspan class="cls-26" x="29.99" y="27.6">c</tspan><tspan x="33.97" y="27.6">tion of Queens Bl</tspan><tspan class="cls-27" x="94.45" y="27.6">v</tspan><tspan x="98.14" y="27.6">d a</tspan><tspan class="cls-2" x="108.85" y="27.6">n</tspan><tspan x="113.6" y="27.6">d </tspan><tspan x="6" y="36">S</tspan><tspan class="cls-28" x="10.3" y="36">k</tspan><tspan x="14.46" y="36">illman </tspan><tspan class="cls-29" x="38.23" y="36">A</tspan><tspan x="43.07" y="36">v</tspan></tspan><tspan class="cls-12"><tspan class="cls-30" x="6" y="44.4">2</tspan><tspan x="10.09" y="44.4">.</tspan><tspan class="cls-13" x="11.68" y="44.4" xml:space="preserve"> ta</tspan><tspan class="cls-31" x="20.48" y="44.4">k</tspan><tspan class="cls-32" x="24.54" y="44.4">e t</tspan><tspan class="cls-33" x="33.45" y="44.4">h</tspan><tspan class="cls-13" x="38.2" y="44.4">e </tspan><tspan class="cls-34" x="44.26" y="44.4">Q60</tspan><tspan class="cls-13" x="59.03" y="44.4"> </tspan><tspan class="cls-35" x="60.86" y="44.4">f</tspan><tspan class="cls-19" x="63.8" y="44.4">r</tspan><tspan class="cls-13" x="66.51" y="44.4">om </tspan><tspan class="cls-33" x="80.16" y="44.4">h</tspan><tspan class="cls-13" x="84.92" y="44.4">e</tspan><tspan class="cls-19" x="89.14" y="44.4">r</tspan><tspan class="cls-13" x="91.86" y="44.4">e </tspan><tspan class="cls-21" x="97.92" y="44.4">t</tspan><tspan class="cls-13" x="100.63" y="44.4">o t</tspan><tspan class="cls-33" x="109.69" y="44.4">h</tspan><tspan class="cls-32" x="114.45" y="44.4">e </tspan></tspan><tspan class="cls-23"><tspan x="6" y="52.8">in</tspan><tspan class="cls-24" x="12.62" y="52.8">t</tspan><tspan x="15.33" y="52.8">e</tspan><tspan class="cls-25" x="19.56" y="52.8">r</tspan><tspan x="22.34" y="52.8">se</tspan><tspan class="cls-26" x="29.99" y="52.8">c</tspan><tspan x="33.97" y="52.8">tion of Queens Bl</tspan><tspan class="cls-27" x="94.45" y="52.8">v</tspan><tspan x="98.14" y="52.8">d a</tspan><tspan class="cls-2" x="108.85" y="52.8">n</tspan><tspan x="113.6" y="52.8">d </tspan><tspan x="6" y="61.2">Reeder St</tspan></tspan><tspan class="cls-12"><tspan x="6" y="69.6">3.</tspan><tspan class="cls-13" x="11.59" y="69.6"> </tspan><tspan class="cls-14" x="13.43" y="69.6">w</tspan><tspan class="cls-15" x="19.47" y="69.6">alk</tspan><tspan class="cls-13" x="29.69" y="69.6"> </tspan><tspan class="cls-16" x="31.52" y="69.6">0</tspan><tspan class="cls-17" x="36.08" y="69.6">.</tspan><tspan class="cls-13" x="37.63" y="69.6">8mi </tspan><tspan class="cls-22" x="53.24" y="69.6">h</tspan><tspan class="cls-13" x="58" y="69.6">o</tspan><tspan class="cls-33" x="62.38" y="69.6">m</tspan><tspan class="cls-13" x="69.83" y="69.6">e</tspan></tspan><tspan class="cls-10"><tspan x="0" y="80.4">2) ~ </tspan><tspan class="cls-36" x="18.29" y="80.4">4</tspan><tspan x="24.2" y="80.4">3min </tspan></tspan><tspan class="cls-12"><tspan x="6" y="88.8">1.</tspan><tspan class="cls-13" x="10.18" y="88.8"> </tspan><tspan class="cls-14" x="12.01" y="88.8">w</tspan><tspan class="cls-15" x="18.05" y="88.8">alk</tspan><tspan class="cls-13" x="28.27" y="88.8"> </tspan><tspan class="cls-16" x="30.11" y="88.8">0</tspan><tspan class="cls-19" x="34.67" y="88.8">.</tspan><tspan class="cls-13" x="36.06" y="88.8">4mi </tspan><tspan class="cls-35" x="51.83" y="88.8">f</tspan><tspan class="cls-19" x="54.76" y="88.8">r</tspan><tspan class="cls-13" x="57.48" y="88.8">om Ba</tspan><tspan class="cls-19" x="80.54" y="88.8">r</tspan><tspan class="cls-13" x="83.25" y="88.8">d </tspan><tspan class="cls-21" x="89.83" y="88.8">t</tspan><tspan class="cls-13" x="92.54" y="88.8">o t</tspan><tspan class="cls-33" x="101.6" y="88.8">h</tspan><tspan class="cls-13" x="106.36" y="88.8">e </tspan></tspan><tspan class="cls-23"><tspan x="6" y="97.2">in</tspan><tspan class="cls-24" x="12.62" y="97.2">t</tspan><tspan x="15.33" y="97.2">e</tspan><tspan class="cls-25" x="19.56" y="97.2">r</tspan><tspan x="22.34" y="97.2">se</tspan><tspan class="cls-26" x="29.99" y="97.2">c</tspan><tspan x="33.97" y="97.2">tion Queens Plaza station</tspan></tspan><tspan class="cls-12"><tspan class="cls-30" x="6" y="105.6">2</tspan><tspan x="10.09" y="105.6">.</tspan><tspan class="cls-13" x="11.68" y="105.6" xml:space="preserve"> ta</tspan><tspan class="cls-31" x="20.48" y="105.6">k</tspan><tspan class="cls-32" x="24.54" y="105.6">e t</tspan><tspan class="cls-33" x="33.45" y="105.6">h</tspan><tspan class="cls-13" x="38.2" y="105.6">e </tspan><tspan class="cls-37" x="44.26" y="105.6">E</tspan><tspan class="cls-13" x="48.94" y="105.6"> </tspan><tspan class="cls-35" x="50.78" y="105.6">f</tspan><tspan class="cls-19" x="53.71" y="105.6">r</tspan><tspan class="cls-13" x="56.43" y="105.6">om Queens Plaza </tspan></tspan><tspan class="cls-23"><tspan class="cls-24" x="6" y="114">t</tspan><tspan x="8.71" y="114">o J</tspan><tspan class="cls-2" x="18.44" y="114">a</tspan><tspan class="cls-28" x="22.58" y="114">c</tspan><tspan class="cls-38" x="26.47" y="114">k</tspan><tspan x="30.56" y="114">son Heights Roos</tspan><tspan class="cls-39" x="91.65" y="114">e</tspan><tspan class="cls-40" x="95.81" y="114">v</tspan><tspan x="99.5" y="114">e</tspan><tspan class="cls-2" x="103.72" y="114">l</tspan><tspan x="105.62" y="114">t </tspan><tspan class="cls-41" x="110.29" y="114">A</tspan><tspan x="115.13" y="114">v</tspan></tspan><tspan class="cls-12"><tspan x="6" y="122.4">3.</tspan><tspan class="cls-13" x="11.59" y="122.4" xml:space="preserve"> t</tspan><tspan class="cls-42" x="16.27" y="122.4">r</tspan><tspan class="cls-13" x="19.01" y="122.4">ans</tspan><tspan class="cls-43" x="31.3" y="122.4">f</tspan><tspan class="cls-13" x="33.61" y="122.4">er at J</tspan><tspan class="cls-33" x="54.79" y="122.4">a</tspan><tspan class="cls-44" x="58.94" y="122.4">c</tspan><tspan class="cls-45" x="62.82" y="122.4">k</tspan><tspan class="cls-13" x="66.92" y="122.4">son Heights </tspan><tspan class="cls-46" x="110.75" y="122.4">t</tspan><tspan class="cls-13" x="113.45" y="122.4">o </tspan></tspan><tspan class="cls-23"><tspan x="6" y="130.8">t</tspan><tspan class="cls-2" x="8.84" y="130.8">h</tspan><tspan x="13.59" y="130.8">e </tspan><tspan class="cls-6" x="19.66" y="130.8">M</tspan><tspan x="26.34" y="130.8" xml:space="preserve"> or </tspan><tspan class="cls-5" x="37.2" y="130.8">R</tspan><tspan x="42.26" y="130.8" xml:space="preserve"> t</tspan><tspan class="cls-47" x="46.94" y="130.8">r</tspan><tspan x="49.68" y="130.8">ain a</tspan><tspan class="cls-2" x="66.4" y="130.8">n</tspan><tspan x="71.15" y="130.8">d ta</tspan><tspan class="cls-48" x="84.71" y="130.8">k</tspan><tspan x="88.77" y="130.8">e it </tspan><tspan class="cls-49" x="101.39" y="130.8">f</tspan><tspan x="103.7" y="130.8">or </tspan><tspan class="cls-50" x="6" y="139.2">t</tspan><tspan class="cls-27" x="8.77" y="139.2">w</tspan><tspan x="14.82" y="139.2">o s</tspan><tspan class="cls-24" x="24.47" y="139.2">t</tspan><tspan x="27.17" y="139.2">ops </tspan><tspan class="cls-51" x="41.57" y="139.2">t</tspan><tspan x="44.27" y="139.2">o G</tspan><tspan class="cls-49" x="55.91" y="139.2">r</tspan><tspan x="58.65" y="139.2">a</tspan><tspan class="cls-2" x="62.78" y="139.2">n</tspan><tspan x="67.54" y="139.2">d </tspan><tspan class="cls-41" x="74.12" y="139.2">A</tspan><tspan x="78.95" y="139.2">v</tspan></tspan><tspan class="cls-12"><tspan class="cls-52" x="6" y="147.6">4</tspan><tspan x="10.82" y="147.6">.</tspan><tspan class="cls-13" x="12.41" y="147.6"> </tspan><tspan class="cls-14" x="14.25" y="147.6">w</tspan><tspan class="cls-15" x="20.29" y="147.6">alk</tspan><tspan class="cls-13" x="30.51" y="147.6"> </tspan><tspan class="cls-16" x="32.34" y="147.6">0</tspan><tspan class="cls-17" x="36.9" y="147.6">.</tspan><tspan class="cls-13" x="38.45" y="147.6">8mi </tspan><tspan class="cls-22" x="54.06" y="147.6">h</tspan><tspan class="cls-13" x="58.81" y="147.6">o</tspan><tspan class="cls-33" x="63.2" y="147.6">m</tspan><tspan class="cls-13" x="70.64" y="147.6">e</tspan></tspan><tspan class="cls-10"><tspan x="0" y="158.4">3) ~ </tspan><tspan class="cls-53" x="18.27" y="158.4">5</tspan><tspan class="cls-54" x="23.32" y="158.4">7</tspan><tspan x="28.48" y="158.4">min </tspan></tspan><tspan class="cls-12"><tspan x="6" y="166.8">1.</tspan><tspan class="cls-13" x="10.18" y="166.8"> </tspan><tspan class="cls-14" x="12.01" y="166.8">w</tspan><tspan class="cls-15" x="18.05" y="166.8">alk</tspan><tspan class="cls-13" x="28.27" y="166.8"> </tspan><tspan class="cls-16" x="30.11" y="166.8">0</tspan><tspan class="cls-19" x="34.67" y="166.8">.</tspan><tspan class="cls-13" x="36.06" y="166.8">4mi </tspan><tspan class="cls-35" x="51.83" y="166.8">f</tspan><tspan class="cls-19" x="54.76" y="166.8">r</tspan><tspan class="cls-13" x="57.48" y="166.8">om Ba</tspan><tspan class="cls-19" x="80.54" y="166.8">r</tspan><tspan class="cls-13" x="83.25" y="166.8">d </tspan><tspan class="cls-21" x="89.83" y="166.8">t</tspan><tspan class="cls-13" x="92.54" y="166.8">o t</tspan><tspan class="cls-33" x="101.6" y="166.8">h</tspan><tspan class="cls-13" x="106.36" y="166.8">e </tspan></tspan><tspan class="cls-23"><tspan class="cls-55" x="6" y="175.2">3</tspan><tspan x="9.91" y="175.2">3</tspan><tspan class="cls-56" x="13.86" y="175.2">r</tspan><tspan x="16.58" y="175.2">d St - </tspan><tspan class="cls-55" x="36.65" y="175.2">R</tspan><tspan class="cls-39" x="41.67" y="175.2">a</tspan><tspan class="cls-57" x="45.73" y="175.2">w</tspan><tspan x="51.84" y="175.2">son St station</tspan></tspan><tspan class="cls-12"><tspan class="cls-30" x="6" y="183.6">2</tspan><tspan x="10.09" y="183.6">.</tspan><tspan class="cls-13" x="11.68" y="183.6" xml:space="preserve"> ta</tspan><tspan class="cls-31" x="20.48" y="183.6">k</tspan><tspan class="cls-32" x="24.54" y="183.6">e t</tspan><tspan class="cls-33" x="33.45" y="183.6">h</tspan><tspan class="cls-13" x="38.2" y="183.6">e </tspan><tspan class="cls-58" x="44.26" y="183.6">7</tspan><tspan class="cls-13" x="48.38" y="183.6"> </tspan><tspan class="cls-35" x="50.22" y="183.6">f</tspan><tspan class="cls-19" x="53.15" y="183.6">r</tspan><tspan class="cls-13" x="55.87" y="183.6">om </tspan><tspan class="cls-59" x="69.52" y="183.6">3</tspan><tspan class="cls-13" x="73.43" y="183.6">3</tspan><tspan class="cls-19" x="77.38" y="183.6">r</tspan><tspan class="cls-13" x="80.09" y="183.6">d St </tspan><tspan class="cls-21" x="95.65" y="183.6">t</tspan><tspan class="cls-13" x="98.36" y="183.6">o </tspan></tspan><tspan class="cls-23"><tspan x="6" y="192">J</tspan><tspan class="cls-2" x="9.51" y="192">a</tspan><tspan class="cls-28" x="13.65" y="192">c</tspan><tspan class="cls-38" x="17.54" y="192">k</tspan><tspan x="21.63" y="192">son Heights - Roos</tspan><tspan class="cls-39" x="87.22" y="192">e</tspan><tspan class="cls-40" x="91.38" y="192">v</tspan><tspan x="95.07" y="192">e</tspan><tspan class="cls-60" x="99.3" y="192">l</tspan><tspan x="101.2" y="192">t </tspan><tspan class="cls-41" x="6" y="200.4">A</tspan><tspan class="cls-40" x="10.84" y="200.4">v</tspan><tspan x="14.53" y="200.4">enue</tspan></tspan><tspan class="cls-12"><tspan x="6" y="208.8">3.</tspan><tspan class="cls-13" x="11.59" y="208.8" xml:space="preserve"> t</tspan><tspan class="cls-42" x="16.27" y="208.8">r</tspan><tspan class="cls-13" x="19.01" y="208.8">ans</tspan><tspan class="cls-43" x="31.3" y="208.8">f</tspan><tspan class="cls-13" x="33.61" y="208.8">er at J</tspan><tspan class="cls-33" x="54.79" y="208.8">a</tspan><tspan class="cls-44" x="58.94" y="208.8">c</tspan><tspan class="cls-45" x="62.82" y="208.8">k</tspan><tspan class="cls-13" x="66.92" y="208.8">son Heights </tspan><tspan class="cls-46" x="110.75" y="208.8">t</tspan><tspan class="cls-13" x="113.45" y="208.8">o </tspan></tspan><tspan class="cls-23"><tspan x="6" y="217.2">t</tspan><tspan class="cls-2" x="8.84" y="217.2">h</tspan><tspan x="13.59" y="217.2">e </tspan><tspan class="cls-6" x="19.66" y="217.2">M</tspan><tspan x="26.34" y="217.2" xml:space="preserve"> or </tspan><tspan class="cls-5" x="37.2" y="217.2">R</tspan><tspan x="42.26" y="217.2" xml:space="preserve"> t</tspan><tspan class="cls-47" x="46.94" y="217.2">r</tspan><tspan x="49.68" y="217.2">ain a</tspan><tspan class="cls-2" x="66.4" y="217.2">n</tspan><tspan x="71.15" y="217.2">d ta</tspan><tspan class="cls-48" x="84.71" y="217.2">k</tspan><tspan x="88.77" y="217.2">e it </tspan><tspan class="cls-49" x="101.39" y="217.2">f</tspan><tspan x="103.7" y="217.2">or </tspan><tspan class="cls-50" x="6" y="225.6">t</tspan><tspan class="cls-27" x="8.77" y="225.6">w</tspan><tspan x="14.82" y="225.6">o s</tspan><tspan class="cls-24" x="24.47" y="225.6">t</tspan><tspan x="27.17" y="225.6">ops </tspan><tspan class="cls-51" x="41.57" y="225.6">t</tspan><tspan x="44.27" y="225.6">o G</tspan><tspan class="cls-49" x="55.91" y="225.6">r</tspan><tspan x="58.65" y="225.6">a</tspan><tspan class="cls-2" x="62.78" y="225.6">n</tspan><tspan x="67.54" y="225.6">d </tspan><tspan class="cls-41" x="74.12" y="225.6">A</tspan><tspan x="78.95" y="225.6">v</tspan></tspan><tspan class="cls-12"><tspan class="cls-52" x="6" y="234">4</tspan><tspan x="10.82" y="234">.</tspan><tspan class="cls-13" x="12.41" y="234"> </tspan><tspan class="cls-14" x="14.25" y="234">w</tspan><tspan class="cls-15" x="20.29" y="234">alk</tspan><tspan class="cls-13" x="30.51" y="234"> </tspan><tspan class="cls-16" x="32.34" y="234">0</tspan><tspan class="cls-17" x="36.9" y="234">.</tspan><tspan class="cls-13" x="38.45" y="234">8mi </tspan><tspan class="cls-22" x="54.06" y="234">h</tspan><tspan class="cls-13" x="58.81" y="234">o</tspan><tspan class="cls-33" x="63.2" y="234">m</tspan><tspan class="cls-13" x="70.64" y="234">e</tspan></tspan></text><text class="cls-1" transform="translate(727.27 460.04)">s<tspan class="cls-61" x="2.45" y="0">c</tspan><tspan class="cls-2" x="5.22" y="0">h</tspan><tspan x="8.61" y="0">ool</tspan></text><path class="cls-6" d="M829.41,458.41a19.12,19.12,0,0,0,.3,5,1,1,0,0,0,1.93-.54c0-.19-.07-.39-.1-.58s0-.21,0-.32c0,.18,0,0,0-.1-.05-.37-.08-.75-.1-1.14a18.14,18.14,0,0,1,0-2.33,1,1,0,0,0-1-1,1,1,0,0,0-1,1Z"/><path class="cls-62" d="M827.31,447.69a86.08,86.08,0,0,0-30,.78,84.44,84.44,0,0,0-14.51,4.36,18.34,18.34,0,0,1-7.21,1.28,40.65,40.65,0,0,1-7.48-.58c-5.32-1.06-10.36-3.35-15.86-3.41a1,1,0,0,0,0,2c4.94.05,9.52,2,14.27,3.11a37.69,37.69,0,0,0,6.94.82,27.82,27.82,0,0,0,6.94-.35,62.49,62.49,0,0,0,7-2.45c2.35-.81,4.75-1.51,7.16-2.11a83.32,83.32,0,0,1,32.29-1.52c1.25.18,1.8-1.74.53-1.93Z"/><path class="cls-3" d="M751.92,453.82c3.86,0,3.87-6,0-6s-3.86,6,0,6Z"/><path class="cls-3" d="M737.92,455.82c3.86,0,3.87-6,0-6s-3.86,6,0,6Z"/><path class="cls-3" d="M738.81,453.94a40,40,0,0,0,11.74-.93,1.5,1.5,0,0,0-.8-2.89,37.25,37.25,0,0,1-10.94.82,1.5,1.5,0,0,0,0,3Z"/><path class="cls-4" d="M737.86,455.4c3.86,0,3.86-6,0-6s-3.87,6,0,6Z"/><path class="cls-62" d="M797.74,453.51l5.49-.27-1-1.27-1.73,7.85a1,1,0,0,0,1.93.53l1.73-7.85a1,1,0,0,0-1-1.26l-5.49.27a1,1,0,0,0,0,2Z"/><path class="cls-4" d="M799.16,410.91a3.42,3.42,0,0,1,3,2.45c.3,1.11-.13,3.34-1.52,3.65-1.14.26-3-1.63-3.4-2.5-1-2,.84-2.59,2.22-3.45,1-.61.07-2.17-.91-1.55-2.09,1.3-4.52,2.69-3.09,5.5.9,1.78,3.41,4.37,5.65,3.74s3.19-3.3,2.89-5.32a5.22,5.22,0,0,0-4.86-4.32c-1.16-.11-1.15,1.69,0,1.8Z"/><path class="cls-4" d="M796,412.32c-1.64.56-1.72,2-1.25,3.46.36,1.17.76,2.31,1.07,3.49.25,1,1.45,4.48-1,3.58-1.08-.41-1.55,1.33-.48,1.73,8.06,3,.71-10,2.11-10.52,1.08-.38.62-2.11-.48-1.74Z"/><path class="cls-4" d="M800.51,419a60.29,60.29,0,0,1,1.91,7.48c.38,2.07.22,4.87,1.22,6.87a7.54,7.54,0,0,0,2.23,2.34c.9.72,2.11,1.15,3,1.9A9.7,9.7,0,0,1,812,444c0,1.15,1.85,1.16,1.8,0-.17-3.4-.7-5.7-3.57-7.69-3.21-2.22-5.16-4.75-5.74-8.58a60.42,60.42,0,0,0-2.2-9.18c-.34-1.1-2.08-.63-1.73.48Z"/><path class="cls-4" d="M803.35,434.1a23.9,23.9,0,0,1,1.22,3.24A2.69,2.69,0,0,1,804,440a23.48,23.48,0,0,0-2.28,4.77c-.4,1.09,1.34,1.56,1.73.48a21.8,21.8,0,0,1,1.7-3.67,14.24,14.24,0,0,0,1.44-2.3c.62-1.75-.91-4.08-1.52-5.69-.4-1.08-2.14-.61-1.74.48Z"/><path class="cls-4" d="M803.88,424.9c.93-.22,1.87-.42,2.81-.58a8.93,8.93,0,0,1,3-.39c1.2.26,2.29,2.86,3,3.95s2.18.08,1.55-.9c-.72-1.15-1.43-2.3-2.17-3.44-.38-.58-.7-1.16-1.38-1.38a7.44,7.44,0,0,0-3,.2c-1.43.2-2.84.48-4.24.81-1.13.26-.65,2,.48,1.73Z"/><path class="cls-4" d="M803.37,425.23a25.06,25.06,0,0,0,4.35,5.32c1.59,1.3,3.25.77,4.9-.14,1-.57.1-2.12-.91-1.56s-1.93.92-3,.14a7.12,7.12,0,0,1-1.17-1.22,37.75,37.75,0,0,1-2.58-3.45c-.65-.95-2.21-.05-1.55.91Z"/><path class="cls-63" d="M814,428.91a49.43,49.43,0,0,0,8.47-4.5.7.7,0,0,1,.43-.17.68.68,0,0,1,.27.1l2.24,1.2a4.12,4.12,0,0,1,1.17.8,3.79,3.79,0,0,1,.52.78,19.41,19.41,0,0,1,1.46,3.45l-10,6.15a64.4,64.4,0,0,0-4.88-7.48"/><path class="cls-63" d="M814.11,429.2a50.31,50.31,0,0,0,8-4.16c.36-.23.65-.5,1.09-.37a5.05,5.05,0,0,1,1,.53,10,10,0,0,1,2.06,1.19,5.64,5.64,0,0,1,1.12,1.83,19.41,19.41,0,0,1,.95,2.43l.14-.34-10,6.15.41.11a67.12,67.12,0,0,0-4.88-7.48c-.23-.31-.75,0-.52.3a69.62,69.62,0,0,1,4.89,7.48.3.3,0,0,0,.41.11l9.94-6.15a.32.32,0,0,0,.14-.34,12.92,12.92,0,0,0-2-4.27,5.86,5.86,0,0,0-1.81-1.21l-1.24-.66a2.7,2.7,0,0,0-.84-.4c-.59-.08-1.24.58-1.7.87-.73.46-1.48.91-2.24,1.33a49.17,49.17,0,0,1-5.12,2.47c-.35.14-.2.72.16.58Z"/><path d="M818.66,435.32l9.27-5.21a1.2,1.2,0,0,0-1.21-2.07l-9.27,5.21a1.2,1.2,0,0,0,1.21,2.07Z"/><path class="cls-64" d="M815.83,429.62c0-.07.06-.18.09-.23a1.69,1.69,0,0,1,.17-.29.58.58,0,0,1,.39-.27c.4,0,.77.39,1,.69s.41.84.08,1.14a1.8,1.8,0,0,1-1.33.39.3.3,0,1,0,0,.6,2.46,2.46,0,0,0,1.52-.38,1.27,1.27,0,0,0,.52-.6,1.36,1.36,0,0,0,0-.8,2.44,2.44,0,0,0-.79-1.25,1.27,1.27,0,0,0-1.43-.26,1.55,1.55,0,0,0-.52.56,1.22,1.22,0,0,0-.24.86c.09.37.66.21.58-.16Z"/><path class="cls-64" d="M818,430.45a2.3,2.3,0,0,0,.67,1.17.15.15,0,0,0,.21,0,.14.14,0,0,0,0-.21,2,2,0,0,1-.59-1,.15.15,0,0,0-.19-.1.14.14,0,0,0-.1.18Z"/><path class="cls-64" d="M818,430.37l.68.15a.15.15,0,0,0,.18-.18l-.39-1.11-.25.14,1.16,1.15c.13.14.35-.07.21-.21l-1.16-1.15a.15.15,0,0,0-.25.15l.39,1.11.19-.19-.68-.15c-.19,0-.27.25-.08.29Z"/><path class="cls-64" d="M818.58,429.06a.69.69,0,0,0,.28-.08l.11-.08a.52.52,0,0,0,.1-.11.14.14,0,0,0,0-.11.11.11,0,0,0-.07-.09.14.14,0,0,0-.11,0l0,0-.05.05h0l0,0a.26.26,0,0,1-.09.09l0,0-.11.06h0l-.12,0h0a.13.13,0,0,0-.1,0,.16.16,0,0,0,.1.26Z"/><path class="cls-64" d="M818.44,429a1.08,1.08,0,0,0,.56.71.59.59,0,0,0,.55,0,.36.36,0,0,0,.15-.47.15.15,0,0,0-.26.15s0,0,0,0,0,0,0,0,0,0,0,0,0,0,0,0h0s0,0,0,0h-.11l-.09,0h0l0,0-.08,0,0,0,0,0-.06-.05-.05-.06,0,0h0a1.19,1.19,0,0,1-.09-.15s0,0,0,0l0,0s0-.06,0-.08a.15.15,0,0,0-.18-.11.15.15,0,0,0-.11.19Z"/><path class="cls-64" d="M819.12,429.53l.3-.37a.17.17,0,0,0,0-.11.15.15,0,0,0,0-.11.21.21,0,0,0-.11,0,.13.13,0,0,0-.1,0l-.3.38a.14.14,0,0,0,0,.1.16.16,0,0,0,0,.11.1.1,0,0,0,.1,0,.14.14,0,0,0,.11,0Z"/><path class="cls-64" d="M819.16,428.52a2.37,2.37,0,0,0,.8-.71.15.15,0,0,0-.05-.21.16.16,0,0,0-.21.06v0h0l0,.05-.08.09c0,.06-.11.11-.17.17l-.09.08s0,0,0,0l0,0,0,0-.21.14a.15.15,0,0,0-.06.2.15.15,0,0,0,.21,0Z"/><path class="cls-64" d="M819.38,428.19a2.42,2.42,0,0,0,.5.88.15.15,0,0,0,.21,0,.15.15,0,0,0,0-.21l-.07-.09s0,0,0,0l0,0,0-.05a1.37,1.37,0,0,1-.13-.2,1.24,1.24,0,0,1-.1-.2v0s0,0,0,0l0,0a.49.49,0,0,1,0-.11.16.16,0,0,0-.19-.11.16.16,0,0,0-.1.19Z"/><path class="cls-64" d="M820,428.17l.13.37a.31.31,0,0,0,.07.09.16.16,0,0,0,.12,0,.15.15,0,0,0,.09-.07.14.14,0,0,0,0-.11l-.14-.37a.15.15,0,0,0-.06-.09.17.17,0,0,0-.12,0,.16.16,0,0,0-.09.07.13.13,0,0,0,0,.12Z"/><path class="cls-64" d="M820.25,428.05l0,0h0l0,0s0,0,0,0h0s0,0,0,0h0s0,0,0,0,0,0,0,0h0s0,0,0,0l0,0h0s0,0,0,0,0,0,0,0v0s0,0,0,0h0s0,0,0,0l-.06.06h0l-.06.05a.15.15,0,0,0,.06.25l.46.11a.14.14,0,0,0,.18-.1.16.16,0,0,0-.1-.19l-.46-.11.07.25h0l0,0,.07-.06a.52.52,0,0,0,.1-.11.31.31,0,0,0,0-.32.28.28,0,0,0-.32-.1.49.49,0,0,0-.24.23.15.15,0,0,0,0,.2.16.16,0,0,0,.21-.05Z"/><path class="cls-64" d="M820.42,427.56a.85.85,0,0,0,.06.17.44.44,0,0,0,.12.15.25.25,0,0,0,.19.05.29.29,0,0,0,.19-.08.39.39,0,0,0,.12-.34,1.29,1.29,0,0,0,0-.19.25.25,0,0,0-.16-.17.59.59,0,0,0-.23,0,.42.42,0,0,0-.18.08.15.15,0,0,0-.06.2.16.16,0,0,0,.21.06l.06,0,0,0,.12,0h0v0a.45.45,0,0,1,0,.16v0s0,0,0,.06v0s0,0,0,0h0s0,0,0,0h0l0,0h0s0,0,0,0l0,0,0,0a.56.56,0,0,1,0-.12.15.15,0,0,0-.18-.11.16.16,0,0,0-.11.19Z"/><path class="cls-64" d="M820.82,426.86a.94.94,0,0,0,.26.49.5.5,0,0,0,.29.16.29.29,0,0,0,.31-.15.16.16,0,0,0,0-.2.16.16,0,0,0-.21,0s0,0,0,0l0,0,0,0h0s0,0,0,0,0,0,0,0h0l0,0h0s0,0,0,0l-.08-.07v0s0,0,0,0l0,0a.31.31,0,0,1-.05-.1l0,0s0,0,0,0l0-.05,0-.1a.16.16,0,0,0-.19-.11.15.15,0,0,0-.1.19Z"/><path class="cls-64" d="M821.82,427.06c-.08-.21-.15-.41-.22-.62l-.19.18.16.05,0,0h0l.08,0,.14.08.07.05,0,0h0a.18.18,0,0,0,.11.05.16.16,0,0,0,.11-.05.15.15,0,0,0,0-.21,1.91,1.91,0,0,0-.68-.35c-.1,0-.22.08-.18.19s.14.41.22.62a.22.22,0,0,0,.07.09.16.16,0,0,0,.12,0,.16.16,0,0,0,.1-.19Z"/><path class="cls-64" d="M821.82,427a.62.62,0,0,0,.19-.12.15.15,0,0,0,0-.11.07.07,0,0,0,0-.05l0-.05a.16.16,0,0,0-.11-.05.14.14,0,0,0-.1.05l0,0,0,0-.07,0h0a.15.15,0,0,0-.09.06.14.14,0,0,0,0,.06v.06a.22.22,0,0,0,.07.09.17.17,0,0,0,.12,0Z"/><path class="cls-64" d="M821.77,426.3a1.66,1.66,0,0,0,.34.49.15.15,0,0,0,.21-.21l-.12-.13,0,0a1.61,1.61,0,0,1-.2-.33.2.2,0,0,0-.09-.07.17.17,0,0,0-.12,0,.16.16,0,0,0-.07.09.17.17,0,0,0,0,.12Z"/><path class="cls-64" d="M822.08,426.34l0,0,0,0,0,0h0l0,0s0,0,0,0h.06s-.06,0-.07-.06h0s0,0,0,0l0,0-.12.18a.15.15,0,0,0,.13.23h.3l.33.08a.15.15,0,0,0,.18-.11.14.14,0,0,0-.1-.18,2.85,2.85,0,0,0-.71-.12l.13.22a1.2,1.2,0,0,0,.16-.27.22.22,0,0,0-.13-.3.42.42,0,0,0-.31,0,.63.63,0,0,0-.22.21.16.16,0,0,0,.06.21.14.14,0,0,0,.2-.06Z"/><path class="cls-64" d="M822.62,425.81a3.54,3.54,0,0,0,.34.77.16.16,0,0,0,.21.05.16.16,0,0,0,.05-.2,2.42,2.42,0,0,1-.18-.36l0,0h0v0a.2.2,0,0,1,0-.08l-.06-.19a.16.16,0,0,0-.19-.11.16.16,0,0,0-.1.19Z"/><path class="cls-64" d="M822.9,425.94l0,0s0,0,0,0H823s0,0,0,0h0s0,0,0,0h0s0,0,0,0,0,0,0,0h0l0,0s0,0,0,0v0s0,.05,0,.07v0s0,.05,0,0v.08h0v0s0,0,0,0a.51.51,0,0,0-.08.34.16.16,0,0,0,.18.1.15.15,0,0,0,.11-.18s0,0,0,0h0v0s0,0,0,0l0,0a.52.52,0,0,0,.07-.21.8.8,0,0,0-.08-.37.49.49,0,0,0-.28-.25.38.38,0,0,0-.36,0,.16.16,0,0,0-.07.09.13.13,0,0,0,0,.12.14.14,0,0,0,.2.05Z"/><path class="cls-64" d="M820.32,430.31c-.05-.72.54-1.31,1-1.8a10.87,10.87,0,0,1,1.67-1.43l-.18-.23a19.41,19.41,0,0,0-1.72,2.4c-.06.11,0,.27.17.22a1.48,1.48,0,0,0,.59-.46l.32-.33.13-.14.09-.09c.06,0,.05,0,0-.05.14.14.35-.08.21-.21s-.49.12-.64.28l-.36.37a1.15,1.15,0,0,1-.42.34l.17.22a20.28,20.28,0,0,1,1.67-2.34c.11-.12,0-.34-.18-.23a10.8,10.8,0,0,0-1.82,1.56,2.78,2.78,0,0,0-1,1.92c0,.19.31.19.3,0Z"/><path class="cls-64" d="M822.1,429a.28.28,0,0,0-.2.12.26.26,0,0,0,0,.19.39.39,0,0,0,.08.22.2.2,0,0,0,.15.06h0l0,0h0l0,0v0l0,0v0s0,0,0,0l0,0s0,0,0,0l0,0,0,0a.15.15,0,0,0,0,.21.17.17,0,0,0,.22,0,.32.32,0,0,0,.1-.29.25.25,0,0,0-.15-.15.45.45,0,0,0-.16,0h.05l0,0h0l0,0h0l0,0,0,0,0,0a.2.2,0,0,1,0-.09v0l0,0,0,0,0,0,0,0,0,0,0,0h0a.15.15,0,0,0,.11,0,.12.12,0,0,0,0-.11.15.15,0,0,0-.15-.15Z"/><path class="cls-64" d="M822,429a1.14,1.14,0,0,0,.54.45.16.16,0,0,0,.21-.06.15.15,0,0,0-.06-.2l-.3-.18,0,0a.53.53,0,0,1-.13-.13l0,0-.06-.09a.11.11,0,0,0-.09-.07.14.14,0,0,0-.11,0,.16.16,0,0,0-.06.21Z"/><path class="cls-64" d="M822.33,429.39a.8.8,0,0,0,.13-.19.56.56,0,0,0,0-.12.61.61,0,0,0,0-.13.16.16,0,0,0,0-.11.18.18,0,0,0-.1,0,.15.15,0,0,0-.11,0l0,0a.12.12,0,0,0,0,.08v0a.57.57,0,0,1,0,.14v0a.54.54,0,0,1-.07.13l0,0,0,0a.13.13,0,0,0,0,.1.15.15,0,0,0,0,.11.12.12,0,0,0,.11,0,.14.14,0,0,0,.1,0Z"/><path class="cls-64" d="M822.31,428.88a.36.36,0,0,0,.22.16h.16a.19.19,0,0,0,.15-.14.71.71,0,0,0,0-.29.67.67,0,0,0-.1-.23.15.15,0,0,0-.2-.06.16.16,0,0,0-.06.21l0,.08,0,0a.42.42,0,0,1,0,.16v0a.38.38,0,0,1,0,.15v0l0,0h0l0,0h0l0,0h0l-.05,0,0,0,0,0,0,0h0a.28.28,0,0,0-.09-.07.16.16,0,0,0-.12,0,.16.16,0,0,0-.05.21Z"/><path class="cls-64" d="M822.64,428a.73.73,0,0,0,.17.31v-.19l0,0,0,0h0a.16.16,0,0,0-.15.15.46.46,0,0,0,.11.28.18.18,0,0,0,.11,0,.18.18,0,0,0,.1,0,.16.16,0,0,0,0-.11.27.27,0,0,0,0-.11h0l0,0,0-.06,0,0a.14.14,0,0,1,0-.07v0l-.15.15a.31.31,0,0,0,.22-.09.18.18,0,0,0,0-.1.21.21,0,0,0,0-.11l0,0,0,0a.38.38,0,0,1-.09-.15v0s0,0,0-.07a.16.16,0,0,0-.19-.11.17.17,0,0,0-.1.19Z"/><path class="cls-64" d="M823.26,428a.54.54,0,0,0,0-.33.25.25,0,0,0-.21-.17.2.2,0,0,0-.19.18.5.5,0,0,0,.27.57.55.55,0,0,0,.38,0,.14.14,0,0,0,.1-.18.15.15,0,0,0-.18-.11l-.07,0h0l-.1,0h0a.2.2,0,0,1-.08,0l0,0-.06-.06,0,0a.2.2,0,0,1,0-.08v0l0-.1v0a.64.64,0,0,1,0-.07v0h0l0,0h0l0,0h0l0,0H823l0,0h0l0,0h0l0,0a.05.05,0,0,1,0,0v0s0,0,0,.05v0a.11.11,0,0,1,0,.08v0l0,.12a.15.15,0,0,0,.11.18.14.14,0,0,0,.18-.1Z"/><path class="cls-64" d="M823.17,427.64a.43.43,0,0,0,.15.21.15.15,0,0,0,.18,0,.14.14,0,0,0,0-.18.61.61,0,0,1-.07-.1,0,0,0,0,0,0,0s0,0,0,0v0h0s0,0,0,0v0h0l0,0h0s0,0,0,0l.05,0,.1.06,0,0s0,0,0,0l0,0a.25.25,0,0,0,.11,0,.15.15,0,0,0,.11,0,.15.15,0,0,0,0-.21,1.44,1.44,0,0,0-.25-.18.6.6,0,0,0-.31-.08.28.28,0,0,0-.27.25.45.45,0,0,0,.05.19.57.57,0,0,0,.08.13l.2-.2h0s0,0,0,0v0s0,0,0,0h0a.16.16,0,0,0-.19-.11.17.17,0,0,0-.1.19Z"/><path class="cls-64" d="M823.46,427.06a.81.81,0,0,0,.12.18.75.75,0,0,0,.17.14.17.17,0,0,0,.12,0,.15.15,0,0,0,.09-.07.11.11,0,0,0,0-.11.13.13,0,0,0-.07-.09l-.06,0,0,0-.11-.11,0,0a.41.41,0,0,1-.07-.11.16.16,0,0,0-.09-.07.15.15,0,0,0-.11,0,.13.13,0,0,0-.07.09v0a.14.14,0,0,0,0,.07Z"/><path class="cls-64" d="M823.52,427.33l.41-.15a.13.13,0,0,0,.09-.07.15.15,0,0,0,0-.11.13.13,0,0,0-.07-.09.17.17,0,0,0-.12,0l-.41.15a.22.22,0,0,0-.09.07.17.17,0,0,0,0,.12.16.16,0,0,0,.07.09.13.13,0,0,0,.12,0Z"/><path class="cls-64" d="M823.36,428.92l.07,0a.16.16,0,0,0,.18-.09.17.17,0,0,0,0-.1.18.18,0,0,0-.06-.09s0,0,0,0h0l0,0a.46.46,0,0,0-.07-.07l0,0s0,0,0,0l0,0,0,0h0v0h0s0,0,0,0v0h0s0,0,0,0h0l.07,0,0,0s0,0,0,0h-.07l-.08-.08v-.06a.43.43,0,0,0,0,.05s0,0,0,0v0l0,.05v0h0a.17.17,0,0,0,0,.22.17.17,0,0,0,.22,0,.89.89,0,0,0,.15-.27.19.19,0,0,0-.12-.23.24.24,0,0,0-.2,0,.54.54,0,0,0-.23.19.27.27,0,0,0,0,.2.33.33,0,0,0,.07.13,1.48,1.48,0,0,0,.25.25l.12-.27-.07,0a.15.15,0,0,0-.18.11.15.15,0,0,0,.1.18Z"/><path class="cls-64" d="M823.69,428.06a.41.41,0,0,0,.2.35.18.18,0,0,0,.19,0,.21.21,0,0,0,.08-.16c0-.06,0-.12,0-.18v0h0v0h0l0,0h0l0,0h-.06l.17,0a.2.2,0,0,0,.11,0,.16.16,0,0,0,.07-.09.14.14,0,0,0,0-.11s0-.07-.09-.07l-.14,0a.21.21,0,0,0-.29.13v.08a.66.66,0,0,1,0,.14v0h0l0,0h0l0,0h0l0,0H824l0,0,0,0,0,0,0-.05,0,0,0-.06v0s0-.05,0-.07v0a.16.16,0,0,0-.15-.15.15.15,0,0,0-.15.15Z"/><path class="cls-64" d="M824.16,427.6a.58.58,0,0,0,.18.17l.12,0,.09,0h0l0,0h0l0,0v0l0,0v0h0l0,0h0l0,0h0l0,0h0a.2.2,0,0,0-.07.09.16.16,0,0,0,0,.12.16.16,0,0,0,.09.07h0a.1.1,0,0,0,.07,0,.12.12,0,0,0,.07-.07.17.17,0,0,0,0-.1.2.2,0,0,0-.07-.16.27.27,0,0,0-.14-.07l-.09,0h0l-.07,0,0,0-.07-.06,0,0,0,0a.16.16,0,0,0-.09-.07.14.14,0,0,0-.11,0,.15.15,0,0,0-.07.09.16.16,0,0,0,0,.12Z"/><path class="cls-64" d="M824.62,427.27a.22.22,0,0,0,.1.09l.1,0a.7.7,0,0,1,.14,0h0l0,0,0,0,0,0v0s0,0,0,0l0,0,0,.08,0,0h0l0,0a.13.13,0,0,0,0,.06.14.14,0,0,0,.15.15.15.15,0,0,0,.11,0,.57.57,0,0,0,.11-.25.23.23,0,0,0-.13-.21.29.29,0,0,0-.13-.05l-.11,0h0l0,0,0,0,0,0v0a.1.1,0,0,0-.09-.06.14.14,0,0,0-.11,0,.13.13,0,0,0-.07.09.17.17,0,0,0,0,.12Z"/><path class="cls-64" d="M815.53,430a.65.65,0,0,1,.3.22.15.15,0,0,0,.19.06.15.15,0,0,0,.08-.18.45.45,0,0,1,0-.3l-.22.09a2.38,2.38,0,0,1,.57.65.17.17,0,0,0,.21.05.15.15,0,0,0,0-.21,2.86,2.86,0,0,0-.68-.75.12.12,0,0,0-.13,0,.15.15,0,0,0-.09.1.72.72,0,0,0,0,.46l.28-.11a1,1,0,0,0-.48-.36.15.15,0,0,0-.18.11.15.15,0,0,0,.1.18Z"/><path class="cls-64" d="M816.15,429.82l.63-.35a.17.17,0,0,0,.05-.21.16.16,0,0,0-.21-.05l-.62.35a.15.15,0,0,0,0,.21.15.15,0,0,0,.2.05Z"/><path class="cls-64" d="M816.74,429.43l1,.77a.16.16,0,0,0,.21-.06.15.15,0,0,0-.06-.2l-1-.77a.15.15,0,0,0-.2.05.17.17,0,0,0,0,.21Z"/><path class="cls-64" d="M816.12,431.16l0-.19,0-.09v-.06h0s0,0-.06.05,0,.06-.07.05h0l.09,0,.19.07c.1,0,.23-.08.18-.18s0,0,0-.06h0v0h0s0,0,0-.05l-.27,0a1,1,0,0,0,.46.47.15.15,0,0,0,.2-.05.14.14,0,0,0,0-.2l-.13-.08s0,0,0,0l0,0-.05,0,0-.05s0,0,0,0l0,0a.75.75,0,0,1-.07-.12c0-.06-.1-.08-.15-.08a.15.15,0,0,0-.12.11.42.42,0,0,0,0,.31l.18-.19-.24-.09-.13,0a.19.19,0,0,0-.17.09c-.06.09,0,.19,0,.29l.05.25a.16.16,0,0,0,.19.11.15.15,0,0,0,.1-.19Z"/><path class="cls-64" d="M816.27,430a1.24,1.24,0,0,0,.34.53.15.15,0,0,0,.21,0,.17.17,0,0,0,0-.22.8.8,0,0,1-.13-.13l0,0a1.09,1.09,0,0,1-.14-.23l0,0a.36.36,0,0,1,0-.09.14.14,0,0,0-.18-.1.15.15,0,0,0-.11.18Z"/><path class="cls-64" d="M816.75,429.94l.48.94a.15.15,0,0,0,.21.05.15.15,0,0,0,0-.2l-.48-1a.15.15,0,0,0-.2,0,.17.17,0,0,0-.06.21Z"/><path class="cls-64" d="M816.53,430.51a5.45,5.45,0,0,0,.35.87.15.15,0,0,0,.2.05.16.16,0,0,0,.06-.21l-.1-.2-.07-.18a2.86,2.86,0,0,1-.15-.41.16.16,0,0,0-.19-.1.14.14,0,0,0-.1.18Z"/><path class="cls-64" d="M817.35,430.32a.76.76,0,0,0,.23.33s0,0,0,0l.06,0a.16.16,0,0,0,.11-.05.18.18,0,0,0,0-.1.14.14,0,0,0,0-.11l-.09-.09,0,0a.64.64,0,0,1-.08-.14l0,0,0,0a.13.13,0,0,0-.07-.09.15.15,0,0,0-.11,0,.16.16,0,0,0-.09.07.17.17,0,0,0,0,.12Z"/><path class="cls-64" d="M817.26,430.09a.15.15,0,0,0,0-.3.15.15,0,0,0,0,.3Z"/><path class="cls-64" d="M817.89,429.82a.9.9,0,0,0-.4-.62c-.21-.15-.47-.22-.69-.36a.15.15,0,1,0-.15.25c.2.13.43.21.64.34a.65.65,0,0,1,.2.17l0,0,0,0,0,.06s0,0,0,0l0,0v0s0,0,0,0a.15.15,0,0,0,.15.15.15.15,0,0,0,.15-.15Z"/><path class="cls-64" d="M816.25,431.23h0l0,0,.09,0h0a.07.07,0,0,0,.06,0,.05.05,0,0,0,0,0,.1.1,0,0,0,0-.05s0,0,0-.06a.16.16,0,0,0,0-.1l0,0a.09.09,0,0,0-.07,0l-.13,0-.13,0,0,0,0,.05v.06a.14.14,0,0,0,0,.06.16.16,0,0,0,.09.07h0a.1.1,0,0,0,.07,0Z"/><path class="cls-64" d="M816.1,431.2a.15.15,0,0,0,0-.3.15.15,0,0,0,0,.3Z"/><path class="cls-64" d="M817.62,429.47a6.49,6.49,0,0,0-.55-.36.74.74,0,0,0-.63-.12,2.72,2.72,0,0,0-.57.33.47.47,0,0,0-.28.48c0,.18.29.12.29,0,0-.4.48-.58.8-.71a.15.15,0,0,0,.1-.18c0-.07-.11-.14-.18-.11-.46.18-1,.44-1,1l.3,0s.06-.09.08-.11l.22-.14a1.19,1.19,0,0,1,.42-.21.69.69,0,0,1,.43.18l.44.29a.15.15,0,0,0,.2-.05.15.15,0,0,0,0-.21Z"/><path class="cls-64" d="M819.18,435.33c0,.25-.11.5-.18.74a.16.16,0,0,0,.11.19,7,7,0,0,0,.79.07.15.15,0,0,0,.15-.15.14.14,0,0,0-.15-.15l-.37,0-.18,0h-.16l.1.18c.07-.24.13-.49.18-.74a.14.14,0,0,0-.1-.18.15.15,0,0,0-.19.1Z"/><path class="cls-64" d="M820.22,434.64a1.06,1.06,0,0,0-.18.35.43.43,0,0,0,.06.41.32.32,0,0,0,.21.06h.63a.15.15,0,1,0,0-.3h-.64s0,0,0,0l0,0v0h0v-.09s0,0,0,0v0l0-.07s0,0,0,0v0a.25.25,0,0,1,0-.07l0,0s0,0,0,0a.15.15,0,1,0-.21-.21Z"/><path class="cls-64" d="M821.21,434.05l-.13.39-.06.19a.8.8,0,0,0,0,.21.19.19,0,0,0,.18.2h.2l.41,0c.08,0,.16-.07.15-.15a.14.14,0,0,0-.15-.15h-.59l.06,0,0,.07s0,.06,0,0v-.05l0-.09.06-.19.13-.39a.15.15,0,0,0-.11-.18.14.14,0,0,0-.18.1Z"/><path class="cls-64" d="M822,434.08l.1.27a.31.31,0,0,0,.07.09.17.17,0,0,0,.12,0,.13.13,0,0,0,.09-.07.11.11,0,0,0,0-.11l-.1-.27a.13.13,0,0,0-.07-.09.15.15,0,0,0-.11,0,.16.16,0,0,0-.09.07.17.17,0,0,0,0,.12Z"/><path class="cls-64" d="M822.36,433.88l.08.2,0,.06a.09.09,0,0,0,.08,0,.13.13,0,0,0,.15-.07.29.29,0,0,0,0-.16.68.68,0,0,1,0-.14v0h0l0,0,0,0,0,0h0l0,0,0,0,0,0,0,.05,0,0s0,0,0,.05a.22.22,0,0,0,.07.09.13.13,0,0,0,.12,0,.18.18,0,0,0,.09-.06.13.13,0,0,0,0-.12.48.48,0,0,0-.08-.16.25.25,0,0,0-.18-.11h-.1a.16.16,0,0,0-.08.05l0,0v0l0,.05a.25.25,0,0,0,0,.08.77.77,0,0,0,0,.15v0h0l.28,0-.08-.2s0,0,0-.05l0,0a.14.14,0,0,0-.11,0,.13.13,0,0,0-.09.07.15.15,0,0,0,0,.11Z"/><path class="cls-64" d="M823.09,433.31a.2.2,0,0,0-.13.06.24.24,0,0,0-.06.11.3.3,0,0,0,.05.22l.12.14h0s0,0,0,0h0s0,0,0,0v0s0,0,0,0,0,0,0,0h0a.16.16,0,0,0-.06.21.16.16,0,0,0,.21.05.24.24,0,0,0,.12-.17.28.28,0,0,0,0-.22.83.83,0,0,0-.11-.15l0,0h0s0,0,0,0l0,0s0,0,0,0h0v0a0,0,0,0,1,0,0v0h0v0s0,0,0,0l0,0h0s0,0,0,0h0a.15.15,0,0,0,.11,0,.21.21,0,0,0,0-.11c0-.07-.07-.16-.15-.15Z"/><path class="cls-64" d="M823.64,433.44h0v0a.06.06,0,0,1,0,0v0a1.25,1.25,0,0,0,0-.19.27.27,0,0,0-.08-.19.21.21,0,0,0-.25,0,.28.28,0,0,0-.12.18.48.48,0,0,0,0,.33.49.49,0,0,0,.24.21.3.3,0,0,0,.37-.12.15.15,0,0,0-.06-.2.15.15,0,0,0-.2.05h0l0,0,0,0,0,0,0,0,0,0h0l-.06,0,0,0-.06-.06,0,0,0-.07,0,0a.29.29,0,0,1,0-.09v0s0,0,0-.06v0l0,0,0,0h0l0,0h-.08l0,0,0,0,0,0s0,0,0,0v0s0,0,0,0v-.05a.44.44,0,0,0,0,.1.29.29,0,0,0,0,.16.2.2,0,0,0,.07.09.16.16,0,0,0,.12,0,.11.11,0,0,0,.08-.07l0,0a.11.11,0,0,0,0-.08Z"/><path class="cls-64" d="M823.68,433.09a1.79,1.79,0,0,0,.13.32.16.16,0,0,0,.19.06.22.22,0,0,0,.07-.06.17.17,0,0,0,0-.12.27.27,0,0,1,0-.12v0a.09.09,0,0,1,0-.05l0,0,0,0,0,0,0,0,0,0h0a.13.13,0,0,0,.07-.09.14.14,0,0,0,0-.11.16.16,0,0,0-.21-.06.29.29,0,0,0-.14.26.49.49,0,0,0,0,.12l0,.09.27-.12s-.05-.08-.07-.13l0,0a.88.88,0,0,1,0-.15.2.2,0,0,0-.07-.09.14.14,0,0,0-.11,0,.13.13,0,0,0-.09.07.14.14,0,0,0,0,.11Z"/><path class="cls-64" d="M824,432.59a1.15,1.15,0,0,0,.31.62.15.15,0,1,0,.22-.21l-.06-.06v0h0v0a.57.57,0,0,1-.08-.13l0,0v0s0,0,0,0l0-.07a.8.8,0,0,1,0-.15.16.16,0,0,0-.07-.09.16.16,0,0,0-.12,0,.15.15,0,0,0-.1.19Z"/><path class="cls-64" d="M824.21,433l.43-.18a.16.16,0,0,0,.07-.09.15.15,0,0,0,0-.11.13.13,0,0,0-.09-.07h0l-.07,0-.43.18a.2.2,0,0,0-.07.09.16.16,0,0,0,0,.12.16.16,0,0,0,.09.07h0a.08.08,0,0,0,.07,0Z"/><path class="cls-64" d="M824.69,432.23a1.56,1.56,0,0,0,.34.65.16.16,0,0,0,.22,0,.17.17,0,0,0,0-.21l0-.06s0,0,0,0v0l0,0-.08-.13,0-.08h0v0a1,1,0,0,1,0-.16.15.15,0,0,0-.18-.11.16.16,0,0,0-.11.19Z"/><path class="cls-64" d="M824.82,432.6l.36-.17a.11.11,0,0,0,.07-.09.14.14,0,0,0,0-.11.13.13,0,0,0-.09-.07h0l-.08,0-.36.17a.13.13,0,0,0-.07.09.15.15,0,0,0,0,.11.16.16,0,0,0,.09.07h0l.07,0Z"/><path class="cls-64" d="M824.89,432a1.53,1.53,0,0,0,.25.55.15.15,0,0,0,.19.06.13.13,0,0,0,.08-.17l0-.11v0a.13.13,0,0,1,0-.06v0a0,0,0,0,1,0,0s0,0,0,0h0s0,0,0,0h-.06s0,0,0,0l0,0v0a.43.43,0,0,0,0,.05.16.16,0,0,0,.19.11.14.14,0,0,0,.1-.18.46.46,0,0,0-.11-.22.23.23,0,0,0-.26-.07.27.27,0,0,0-.18.19.47.47,0,0,0,0,.26l.28-.12a1.49,1.49,0,0,1-.14-.24s0-.05,0,0l0,0a.14.14,0,0,0,0-.06s0-.09,0-.14a.14.14,0,0,0-.18-.1.15.15,0,0,0-.11.18Z"/><path class="cls-64" d="M825.5,432.09l0,.14,0,.06,0,0a.07.07,0,0,0,.06,0,.06.06,0,0,0,.06,0,.15.15,0,0,0,.09-.07.13.13,0,0,0,0-.12l-.05-.14s0,0,0-.05l0,0-.06,0h0a.11.11,0,0,0-.09.07.14.14,0,0,0,0,.11Z"/><path class="cls-64" d="M825.91,431.64l0,.05s0,0,0,0,0,0,0,0a.07.07,0,0,0,0,.05h0a.15.15,0,0,0,0,.07.13.13,0,0,0,.07.09l.05,0H826a.16.16,0,0,0,.09-.07.17.17,0,0,0,0-.12v0a0,0,0,0,0,0,0v0a0,0,0,0,1,0,0l0,0h0l0-.05a.07.07,0,0,0,0-.05.13.13,0,0,0,0-.06l0-.05a.12.12,0,0,0-.11,0,.15.15,0,0,0-.11,0Z"/><path class="cls-64" d="M826.33,431.46a.74.74,0,0,0,.14.22.6.6,0,0,0,.21.14.16.16,0,0,0,.12,0,.16.16,0,0,0,.07-.09l.07-.28h-.29a.94.94,0,0,0,.19.32.16.16,0,0,0,.24,0,.86.86,0,0,0,.07-.21,1.13,1.13,0,0,0,0-.26.16.16,0,0,0-.07-.09.15.15,0,0,0-.11,0s-.08,0-.09.07a.17.17,0,0,0,0,.12v.09a.29.29,0,0,1,0,.09v0s0,0,0,0v0l.24,0,0-.06h0l0,0,0-.06h0s0,0,0,0,0,0,0,0a.16.16,0,0,0-.14-.11.18.18,0,0,0-.15.11l-.07.28.18-.1s0,0,0,0l0,0s0,0,0,0h0l0,0v0s0,0,0,0,0,0,0,0h0l0,0s0,0,0,0v0a.15.15,0,0,0-.18-.11.18.18,0,0,0-.11.19Z"/><path class="cls-64" d="M827.22,431a.49.49,0,0,0,0,.12s0,.06,0,.08l0,.07a.36.36,0,0,0,.07.1l.06.05,0,0a.15.15,0,0,0,.13,0,.15.15,0,0,0,.09-.1.76.76,0,0,0,0-.15l0-.15-.15.19h0l0,0,0,0,0,0,0,0,0,0a.17.17,0,0,0,.22,0,.21.21,0,0,0,0-.11v0s0,0,0-.06l-.05,0,0,0a.26.26,0,0,0-.15,0,.13.13,0,0,0-.12.06.14.14,0,0,0,0,.13.29.29,0,0,1,0,.09v0h0l.22-.09a.05.05,0,0,1,0,0l0,0a.08.08,0,0,1,0,0l0,0,0-.06v0s0,0,0-.07v0a.11.11,0,0,0,0-.11.1.1,0,0,0-.09-.07.14.14,0,0,0-.11,0,.16.16,0,0,0-.07.09Z"/><path class="cls-64" d="M827.84,430.8l.14-.18h-.26l0,.08h0v.06l.06.17a2.33,2.33,0,0,1,.08.36.17.17,0,0,0,.19.1.15.15,0,0,0,.1-.18,2.66,2.66,0,0,0-.23-.74.15.15,0,0,0-.26,0l-.13.18s0,.08,0,.11a.16.16,0,0,0,.07.09.16.16,0,0,0,.2-.05Z"/></svg>