<svg id="_19._hi_neighbor" data-name="19. hi neighbor" xmlns="http://www.w3.org/2000/svg" viewBox="0 0 1357.03 1080"><defs><style>.cls-1{fill:#eeca64;}.cls-2{fill:#662d91;}</style></defs><path class="cls-1" d="M756,370.52c8.46-11.79,21.62-26.37,37.43-26.3,16.36.06,23.19,17.38,34.74,25.86,5.7,4.17,13.21,7.13,20.25,4.76,6.2-2.09,10.07-8.31,16.25-10.2,7.47-2.29,11,6,12.48,11.72,1.64,6.21,2.26,12.45,6.23,17.78a13.71,13.71,0,0,0,5.92,4.79c2,.78,5.31,1.3,6.9-.49,2.23-2.49,3.12-7.26,3.62-10.44a60.07,60.07,0,0,0,.4-12.36c-.65-12.05-4-31.07,9-38.26,3.75-2.07,8.12-2.33,12.3-2.61l15.3-1c9.17-.59,18.35-1.26,27.53-1.74,14.91-.79,30.31-1,44.78,3.21a54.88,54.88,0,0,1,22.07,12c5.41,5,9.59,11.07,13.55,17.21,7.74,12,15.26,25.46,28.88,31.59a2,2,0,0,0,2.73-.71,38.87,38.87,0,0,0,4.57-26.92l-.92,2.26c7-4.23,14.56,5.51,18.66,10l18.12,19.93,18.12,19.93,8.27,9.1c2.89,3.18,6.17,6.25,8.59,9.81,5,7.33.56,17.5-2.1,25a131.45,131.45,0,0,1-10.47,22.23c-7.52,12.91-16.41,25.09-22.11,39-11.58,28.3-4.16,58.77-.76,87.9,1.72,14.78,2.55,30-1,44.57-1.82,7.52-4.5,14.43-11.68,18.22-6.17,3.25-12.17,5.26-16.6,11-4.23,5.47-6.75,12-10.82,17.62a55.87,55.87,0,0,1-15,14.12,60.89,60.89,0,0,1-20.21,8c-7.18,1.56-14.87,2.66-21.22,6.64-9.54,6-15.81,20.43-5.22,28.65,11.73,9.11,26.1,1.08,38.53-1.23,12-2.23,22.48,4.19,27.38,15.19a25.65,25.65,0,0,1,1.87,15.91c-1.47,6.42-6,11.45-11.34,15.12-6.23,4.3-13.42,7.17-20.49,9.78-7.94,2.94-16.06,5.36-24.24,7.54-16.58,4.4-33.36,8.06-50.06,12L871.59,861.19c-17.19,4-34.47,7.78-51.57,12.18-15.45,4-30.06,9.47-43,18.93-6.42,4.68-12.43,9.88-18.52,15-5.88,4.9-12.81,11.55-21,11.67-6.69.1-13.87-6.42-9.51-13.09,2-3.13,5.38-5.62,8.24-8a127.19,127.19,0,0,1,10.35-7.69c13.23-8.87,27.72-15.92,42.28-22.31a390.18,390.18,0,0,1,46.53-17,395.51,395.51,0,0,1,47.22-10.81c8.08-1.33,16.2-2.32,24.34-3.23,6.7-.74,13.47-1.57,19.91-3.64,12.29-4,21.25-13,23.58-25.92,2.35-13.07-.58-27.45-4.31-40-2-6.78-5.62-11.09-11-15.52-2.6-2.15-5.17-4.41-6.62-7.53-1.58-3.38-1.7-7.17-1.4-10.82.61-7.16,2.92-14.08,3.34-21.27a35,35,0,0,0-4.22-18.36c-6.54-12.47-17.85-21.72-26-33.09A129.52,129.52,0,0,1,881,620.18a143.36,143.36,0,0,1-4.16-22.71c-.76-6.83-1.69-14-5.93-19.68-7.92-10.55-22.91-11-34.26-6.6a68.93,68.93,0,0,0-9.7,4.72c-3.5,2-6.77,4.61-10.38,6.41-7.22,3.6-12.43-3.34-15.4-9.08s-5.36-12.12-7.94-18.17c-2.8-6.55-5.62-13.09-8.6-19.55-11.19-24.26-25.18-47.9-47.53-63.44-8-5.57-19.42-11.49-22.57-21.47-2-6.45,1.13-12.35,3.84-18.08,3.53-7.5,7.45-14.81,11.6-22,8-13.78,16.81-27,26-40,1.49-2.1-2-4.1-3.45-2a497.75,497.75,0,0,0-27.66,42.88c-4.06,7.17-7.88,14.48-11.29,22-2.43,5.33-4.56,10.51-3.38,16.46,2.09,10.57,12.56,17.31,20.81,22.93a116.76,116.76,0,0,1,28.7,27c8.46,11.41,15.1,24,21.06,36.89,3,6.46,5.83,13,8.63,19.55s5.22,13.18,8.5,19.38c2.62,5,6.61,10.44,12.47,11.58,6.95,1.36,13-4.62,18.59-7.84,6.68-3.86,14.08-7.06,21.93-6.88,7,.17,14.15,3,17.85,9.27,3.9,6.54,3.84,14.67,4.82,22a132.18,132.18,0,0,0,26.24,62.94c8.39,10.91,20.4,20.46,25.06,33.79,2.48,7.11,1.59,14.14.17,21.38-1.31,6.72-3.06,13.89-1.31,20.7s7,10.4,12,14.89c5.72,5.18,7.14,12.61,8.75,19.84,2.91,13.05,5.49,29-2.56,40.83-8.25,12.09-24.34,13.58-37.64,15a406.68,406.68,0,0,0-49.14,8.37,390.06,390.06,0,0,0-92.78,34.67A190.94,190.94,0,0,0,742,888.47c-5.89,4.14-12.62,8.72-16.92,14.57a11.35,11.35,0,0,0,1.45,15.58c5,4.68,11.92,5.23,18.12,2.82,6.93-2.71,12.63-8,18.26-12.71a246.89,246.89,0,0,1,19.53-15.4c14.18-9.63,30.47-14.24,47-18.15,35.46-8.4,71-16.62,106.45-24.93l52.86-12.37c17.17-4,34.47-7.7,51.32-12.93a195,195,0,0,0,22.73-8.46c6.3-2.86,12.54-6.42,17.19-11.63,7.66-8.58,8.59-20.19,3.92-30.49-4.25-9.39-13.13-17-23.68-17.7-13.75-.9-29.43,11.85-42.47,3.17-6.26-4.16-5.69-12-1.56-17.46,4.76-6.36,12.49-8.52,19.91-10.14s14.41-3,21.18-6.33a59.92,59.92,0,0,0,16.85-12.22c4.81-5,8.28-10.7,11.6-16.72a45.38,45.38,0,0,1,5.59-8.5c2.59-2.89,5.83-4.66,9.31-6.25,6.79-3.1,12.18-6.32,15.4-13.38,3-6.57,4.35-14,5.13-21.08,3.38-30.59-7.36-60.56-6.35-91.11.53-15.83,5.25-30.06,13.09-43.74s17.24-26.62,23.32-41.37c3-7.28,6.11-15.36,6.79-23.26.71-8.3-4.88-13.62-10-19.3l-37-40.73c-5.36-5.9-10.42-12.6-16.58-17.68-4.62-3.82-10.69-6.79-16.37-3.37a2.06,2.06,0,0,0-.92,2.26,34.58,34.58,0,0,1-4.17,23.83l2.74-.72c-12.62-5.68-19.64-18-26.79-29.13-7.67-12-16.24-22.73-29.54-28.7-13.71-6.15-29.06-7.32-43.91-7.1-18.29.27-36.64,1.92-54.89,3.2-7.24.5-14.21,2-19,7.92-3.95,4.95-5.52,11.32-6.06,17.51-.68,7.81.77,15.57.85,23.38a37.8,37.8,0,0,1-1.62,12.42c-.63,1.9-.85,3.88-3.13,3.4a7.86,7.86,0,0,1-3.91-2.39C879.31,384.46,884,366,871.09,361c-6.41-2.46-11.91,1.7-16.67,5.5-3,2.37-6.12,4.76-10,5.12-4.21.4-8.33-1.23-11.85-3.4-12.81-7.91-18.64-24.93-34.82-27.62-15.13-2.53-28.78,8.38-38.16,19a109.45,109.45,0,0,0-7,8.9C751,370.6,754.48,372.6,756,370.52Z"/><path class="cls-2" d="M612.89,587.45c-6.11,4-15.63,8.79-13.92,17.66.65,3.36,3,6.06,5.41,8.36s5.29,4.35,6.73,7.3c2.1,4.32-2.07,8.27-4.43,11.51q-4.87,6.68-9.41,13.59a325,325,0,0,0-16.5,28.24q-7.5,14.46-13.52,29.6c-4.13,10.33-8.83,21.32-9.4,32.56-.56,11.06,4.69,20.54,11.14,29.12a235.3,235.3,0,0,0,21.8,25.08c8.1,8.1,18.15,15.2,24,25.23,4.74,8.09,5.91,19.94-1.87,26.61a2,2,0,0,0,.4,3.14c14,10.3,30.65,16.08,47.56,19.36a256,256,0,0,0,25.58,3.47c9.63.87,19.34,1.47,29,.7a80.62,80.62,0,0,0,26.45-6.55c8.12-3.59,15.63-8.38,23.12-13.11,14.8-9.34,31.45-19.48,49.73-17.6a35.87,35.87,0,0,1,6.41,1.29c2.09.62,4.09,1.64,6.23,2.1,4.38.94,7.36-1.53,10.23-4.48q5.42-5.53,10.81-11.09c2.87-2.95,7.46-6.32,7.73-10.8.24-4-2.68-7.67-5.36-10.4a37.44,37.44,0,0,0-8.56-6.38c-6.54-3.61-13.79-5.69-20.88-7.9-3.68-1.15-7.38-2.3-10.94-3.79-1.62-.67-3.73-1.55-4.32-3.37s.73-3.46,1.94-4.6c5.12-4.84,13.7-3.42,18.18-9.33s0-11.71-3.9-16.22c-2-2.33-4.61-5-4.94-8.27s2.05-6.67,5-8.14c6-3.06,10.43,2.84,12.7,7.62,2.55,5.38,4.24,11.39,8.45,15.79,4.84,5.06,12.41,5.89,18.71,3.26,6.86-2.87,10.88-9.38,11.29-16.7a24.1,24.1,0,0,0-2.14-11.07,26.27,26.27,0,0,0-3-5c-1.25-1.68-2.6-3.38-1.78-5.57.71-1.9,2.27-3.52,3.4-5.17a63.3,63.3,0,0,0,3.48-5.67,73.89,73.89,0,0,0,5.09-11.77c5.64-16.79,5.4-34.89,2.4-52.17a257.1,257.1,0,0,0-7.21-29.2c-1.39-4.62-2.8-9.24-4.27-13.84-1.26-3.92-2.71-7.83-5.34-11-4.76-5.81-12.51-7.32-19.66-6.64-8.61.82-16.35,4.55-24.65,6.65-4.39,1.11-9.1,1.82-13.57.78a19.23,19.23,0,0,1-10-6.14c-5.45-6.06-8.41-14.29-11.75-21.59-7.55-16.5-15.08-33.09-24.59-48.59a174.49,174.49,0,0,0-15.77-22c-5.3-6.22-11.81-12.41-20.08-14.17-7.26-1.55-15.15.29-19.72,6.46-4.8,6.49-4.52,15.19-6.3,22.73a64.51,64.51,0,0,1-11,23.44,93.13,93.13,0,0,1-7.64,9c-2.78,2.89-5.69,5.44-9.79,5.93a36.34,36.34,0,0,0-6.41,1.06c-1.92.57-3.82,1.2-5.7,1.87A64.53,64.53,0,0,0,647,553.3c-7.15,4.09-12.29,10.1-17.3,16.5s-10,13-16.85,17.65c-2.12,1.43-.12,4.9,2,3.45,7-4.71,12.15-11.21,17.27-17.77,4.92-6.3,9.84-12.35,16.88-16.38a60.63,60.63,0,0,1,10.06-4.46c1.9-.66,3.81-1.32,5.74-1.86a63.61,63.61,0,0,1,6.6-1c7.25-1.25,12.63-8.57,17-14a69.66,69.66,0,0,0,12-21.84,73.39,73.39,0,0,0,2.75-12.17c.59-3.84,1.1-7.84,2.66-11.44,3.16-7.29,10.91-9.72,18.26-7.76,8.3,2.2,14.38,9.28,19.56,15.7,11.2,13.88,19.79,29.69,27.52,45.7,3.88,8,7.56,16.18,11.28,24.3,3.22,7,6.26,14.53,11.73,20.14,6,6.13,14,7.79,22.31,6.48,8.46-1.34,16.18-5.33,24.56-6.92,7-1.33,15.43-1.1,20.25,5,2.63,3.31,3.78,7.57,5,11.54,1.42,4.56,2.84,9.12,4.19,13.7,5.26,17.88,9.54,36.39,8.37,55.15a84.38,84.38,0,0,1-5.25,25,65.47,65.47,0,0,1-5.71,11.38c-2,3.16-5.28,6.28-5.6,10.18-.34,4.08,3.07,6.83,4.85,10.14a20,20,0,0,1,2.31,11.16,14.62,14.62,0,0,1-13.37,13.59c-14.4,1.13-14.26-17.44-22-25.17a11.72,11.72,0,0,0-16.27-.7,12.7,12.7,0,0,0-4.47,8.68c-.21,3.3,1.37,6.32,3.3,8.88,2.74,3.66,10.46,9.73,6.1,14.74-2.16,2.48-6,3.28-9,4.12-3.49,1-6.89,2.45-9.34,5.23-2.23,2.53-3.36,6-1.63,9.14s5.82,4.54,9.13,5.76c7,2.59,14.28,4.37,21.25,7.06,6.61,2.54,13.51,6.22,17.52,12.29,1.31,2,2,4,.59,6.16a42.87,42.87,0,0,1-4.93,5.25l-10.54,10.82c-1.37,1.41-2.75,3.18-4.51,4.12-2.21,1.18-4.53-.07-6.65-.86a40.37,40.37,0,0,0-12.49-2.43c-8.5-.33-17,1.79-24.81,5-16.29,6.62-29.84,18.2-45.71,25.64-17.33,8.12-36.25,7.81-54.91,6.15-16.93-1.51-34-4.19-49.87-10.45A95.39,95.39,0,0,1,615.36,842l.41,3.14c6.61-5.68,7.93-15.11,5.92-23.22-2.37-9.54-9.56-16.93-16.55-23.42a298.46,298.46,0,0,1-22.84-23c-3.71-4.27-7.29-8.65-10.64-13.2a56.54,56.54,0,0,1-8-13.72c-4.06-11.05-.52-22.28,3.26-32.86a319.75,319.75,0,0,1,12.8-30.66q7-14.6,15.45-28.44,4.31-7.07,9-13.89c3.08-4.51,6.6-8.77,9.54-13.36,2.45-3.84,2.69-8.16,0-12-2.15-3.08-5.2-5.32-7.77-8s-4.41-6.34-2.05-10c2.52-3.86,7.25-6.08,11-8.54C617.05,589.49,615.05,586,612.89,587.45Z"/><path class="cls-2" d="M669.57,511a583.13,583.13,0,0,1-24-87,565.89,565.89,0,0,1-10.14-89.35c-.23-7.27-.23-14.65,1.36-21.78a48.7,48.7,0,0,1,8.59-18.28,110.91,110.91,0,0,1,13.39-14.6q6.91-6.56,14.44-12.43A207.31,207.31,0,0,1,741,232.62a203.5,203.5,0,0,1,75.36-8.1,78.62,78.62,0,0,1,20.44,4,42.49,42.49,0,0,1,15.63,10.09,50.83,50.83,0,0,1,10.07,14.89,44.45,44.45,0,0,1,4.3,18,18.9,18.9,0,0,1-2.1,9,22.34,22.34,0,0,1-6.7,7,132,132,0,0,1-16.07,9.65A293.65,293.65,0,0,1,807.54,312c-23.42,8.66-47.64,16.18-69,29.34a126.23,126.23,0,0,0-28.9,24.22A151.61,151.61,0,0,0,688.12,398c-12.87,25.86-19.14,54.26-23.86,82.57-1.21,7.23-2.32,14.47-3.43,21.71a2.06,2.06,0,0,0,1.39,2.46,2,2,0,0,0,2.46-1.4c4.59-29.86,9.21-60.09,20.27-88.38,9.51-24.29,24.1-47.27,45.15-63.12,20.28-15.27,44.51-23.73,68.14-32.25,12.08-4.35,24.16-8.76,35.85-14.11,5.78-2.65,11.47-5.53,17-8.74s11.41-6.56,15.34-11.6c8.18-10.51,3.59-26.19-2-36.82a49.35,49.35,0,0,0-28-24.15,88.22,88.22,0,0,0-21.09-3.73q-9.62-.75-19.27-.56a209.12,209.12,0,0,0-38.56,4.42,213,213,0,0,0-71.7,29.41,204.57,204.57,0,0,0-30.46,24c-9.92,9.49-19.28,20.25-22.34,34-1.59,7.15-1.74,14.51-1.53,21.8.21,7.53.64,15.05,1.18,22.57q1.67,22.94,5.13,45.69a579.89,579.89,0,0,0,20.76,89q3.4,10.69,7.22,21.26c.87,2.4,4.73,1.37,3.85-1.06Z"/><path class="cls-2" d="M660.14,291.59a62.82,62.82,0,0,0,8.66,22.52,2,2,0,0,0,3.66-1.54,24.81,24.81,0,0,1-.67-8.41,7.68,7.68,0,0,1,2.14-5.08c1.61-1.38,3.17.48,4.35,1.6a66.13,66.13,0,0,1,5.83,6.24,2,2,0,1,0,2.83-2.83,57.39,57.39,0,0,0-7.34-7.61c-2.38-2-5.38-2.68-8-.66-5.08,3.95-4.42,12.32-3,17.81l3.66-1.54A59.84,59.84,0,0,1,664,290.53a2,2,0,0,0-2.46-1.4,2,2,0,0,0-1.4,2.46Z"/><path class="cls-2" d="M685.59,293a30.28,30.28,0,0,0,6,11.49,2,2,0,0,0,2.83,0,2.06,2.06,0,0,0,0-2.83l-.46-.56c-.15-.19-.15-.2,0,0a3.15,3.15,0,0,0-.22-.29c-.29-.39-.57-.79-.83-1.2a25.4,25.4,0,0,1-1.48-2.51c-.23-.44-.44-.87-.64-1.32l-.16-.36c-.1-.22-.19-.45-.28-.67-.35-.91-.64-1.84-.9-2.78a2,2,0,1,0-3.85,1.06Z"/><path class="cls-2" d="M684.88,284.32c2.57,0,2.58-4,0-4s-2.58,4,0,4Z"/><path class="cls-2" d="M656.34,350.73A49.91,49.91,0,0,0,664,366.34c1.28,1.74,4.25.79,3.65-1.54l-3.2-12.42-1.59-6.2c-.27-1-.57-2.05-.79-3.08-.09-.41-.18-.46,0-.72a2,2,0,0,1,1-.36c3.57-.64,6.28,3,8.24,5.37l8,9.88a2,2,0,0,0,2.83,0,2.05,2.05,0,0,0,0-2.83c-3.11-3.84-6.12-7.79-9.37-11.52-2.76-3.18-7.11-6.17-11.52-4.53a4.46,4.46,0,0,0-3.2,5.13c.41,2.53,1.26,5.05,1.9,7.54l3.81,14.8,3.66-1.54a46.51,46.51,0,0,1-7.25-14.66c-.71-2.46-4.58-1.41-3.86,1.07Z"/><path class="cls-2" d="M680.82,342.49a6.6,6.6,0,0,0,8.32-6c.09-4-4.09-6.81-7.8-6.11-4.26.81-5.77,5.84-5.3,9.61a12.71,12.71,0,0,0,19.85,9.13,2.06,2.06,0,0,0,.72-2.74,2,2,0,0,0-2.74-.71,8.85,8.85,0,0,1-13.29-3.84c-.81-2-1.06-5,.33-6.7a3.75,3.75,0,0,1,.48-.49c.07-.05.73-.36.45-.26.09,0,.78-.14.43-.12h.39c.44,0-.14-.07.26,0a4.78,4.78,0,0,1,.76.23c-.23-.1.31.17.42.24a2.55,2.55,0,0,1,.8.83,2.37,2.37,0,0,1,.19.35c-.14-.33,0,.26,0,.27-.08-.38,0,.7,0,.4a3.16,3.16,0,0,1-.19.61,2.14,2.14,0,0,1-.36.55,2.51,2.51,0,0,1-.58.53,2.59,2.59,0,0,1-.69.35l-.41.11c-.39.08.13,0-.3,0,0,0-.4,0-.11,0a4.34,4.34,0,0,1-.62-.16,2,2,0,1,0-1.06,3.85Z"/><path class="cls-2" d="M690.62,327.72a30.11,30.11,0,0,0,8.87,14.39,2,2,0,0,0,2.83-2.83,26.13,26.13,0,0,1-7.85-12.62,2,2,0,1,0-3.85,1.06Z"/><path class="cls-2" d="M687.77,319c2.57,0,2.57-4,0-4s-2.58,4,0,4Z"/><path class="cls-2" d="M705.15,317.62a10.92,10.92,0,0,0-5,8.73,10.72,10.72,0,0,0,4.45,8.85c1.52,1.12,3.57,2,5.39,1,1.54-.82,2-2.6,2.21-4.21a20,20,0,0,0-2.44-11.49l-3.45,2A88,88,0,0,1,716,340.1c.56,1.38,1.26,3,.86,4.47a5.08,5.08,0,0,1-2,2.68c-2.54,1.85-6,1.71-9,1.68-2.58,0-2.58,4,0,4,3.72,0,7.78,0,11-2.23a8.55,8.55,0,0,0,3.85-9,30,30,0,0,0-2.16-5.67c-.8-1.81-1.67-3.6-2.59-5.35a90.55,90.55,0,0,0-6.22-10.14,2,2,0,0,0-3.45,2,16.1,16.1,0,0,1,1.93,9.05,8.61,8.61,0,0,0-.25,1.15c-.13.18-.1.19.1,0s.23-.11.05-.14a5.94,5.94,0,0,0-.76-.38,6.18,6.18,0,0,1-1.18-.91,6.6,6.6,0,0,1,1-10.27c2.15-1.4.15-4.86-2-3.46Z"/><path class="cls-2" d="M707.35,306.74a53.14,53.14,0,0,0,11.5,21.05c1.52,1.72,4.29-.49,3.14-2.42-1.32-2.2-2.67-4.64-2.7-7.27a5.46,5.46,0,0,1,2.23-4.75c1.77-1.09,4.09-.3,5.61.86,2,1.56,3.31,4,4.53,6.18s4.71.23,3.45-2c-1.65-3-3.44-6-6.36-7.89-2.7-1.75-6.4-2.3-9.25-.59a9.4,9.4,0,0,0-4.2,7.55c-.23,3.56,1.46,7,3.23,9.95l3.14-2.43a48.88,48.88,0,0,1-10.47-19.28c-.69-2.48-4.55-1.43-3.85,1.06Z"/><path class="cls-2" d="M729.66,295.92a48.54,48.54,0,0,0,12,20.95,2,2,0,0,0,2.62.15,2,2,0,0,0,.52-2.58c-1.16-2.64-2.16-6-1.37-8.85a4,4,0,0,1,5.37-2.84c2.28.79,3.95,3,3.14,5.44a5.9,5.9,0,0,1-6.53,3.81c-2.51-.55-3.58,3.3-1.07,3.86a9.9,9.9,0,0,0,9.69-3.4,8.26,8.26,0,0,0,.88-9.78,9.44,9.44,0,0,0-8.27-4.21,8.06,8.06,0,0,0-7.13,6.33c-.95,3.94.26,8.06,1.84,11.66l3.14-2.42a44.32,44.32,0,0,1-11-19.18c-.69-2.48-4.55-1.43-3.86,1.06Z"/><path class="cls-2" d="M759.42,293.17c.41,3.92-.59,7.86,1.3,11.53a7.2,7.2,0,0,0,4.12,3.58,8,8,0,0,0,5.6-.48,11.52,11.52,0,0,0,4.29-3.42,22.81,22.81,0,0,0,3.2-4.72,5.1,5.1,0,0,0-.76-5.9,11.16,11.16,0,0,0-4.9-2.78c-3.92-1.17-8.14-.6-12.09.1a2,2,0,0,0-1.39,2.46,2,2,0,0,0,2.46,1.4,27.32,27.32,0,0,1,8.06-.52,10.66,10.66,0,0,1,3.57,1.1,5.37,5.37,0,0,1,1.38,1,.79.79,0,0,1,.28.88,5.06,5.06,0,0,1-.86,1.66c-.44.67-.89,1.33-1.36,2a10.2,10.2,0,0,1-2.69,2.71,5,5,0,0,1-3,.87,2.9,2.9,0,0,1-2.33-1.71,7.91,7.91,0,0,1-.84-3.92c0-1.93.18-3.86,0-5.79a2.05,2.05,0,0,0-2-2,2,2,0,0,0-2,2Z"/><path class="cls-2" d="M776.5,288.73a63.69,63.69,0,0,0,4.73,12.42,2,2,0,0,0,2.74.72,2.05,2.05,0,0,0,.72-2.74,29.5,29.5,0,0,1-2.26-5.78,10.66,10.66,0,0,1-.34-2.86,6.14,6.14,0,0,1,.13-1.21c0-.18.08-.35.13-.52,0,0,.2-.57.11-.34a6.39,6.39,0,0,1,.52-1,3.82,3.82,0,0,1,.48-.64,5.16,5.16,0,0,1,1.53-1.23,2.3,2.3,0,0,1,.77-.33c.16-.05.33-.08.49-.12s-.19,0,.16,0a2.36,2.36,0,0,1,1.52.33c2.25,1.26,4.27-2.19,2-3.46-4-2.24-8.78.25-10.76,4-2.58,4.94-.15,10.55,2,15.14l3.46-2a58,58,0,0,1-4.34-11.47c-.65-2.48-4.51-1.43-3.85,1.07Z"/><path class="cls-2" d="M794.05,266.43a32.7,32.7,0,0,0,7,18.14,2,2,0,0,0,2.83,0,2,2,0,0,0,0-2.83,28,28,0,0,1-5.86-15.31,2.05,2.05,0,0,0-2-2,2,2,0,0,0-2,2Z"/><path class="cls-2" d="M809.86,298.77c2.58,0,2.58-4,0-4s-2.58,4,0,4Z"/><path class="cls-2" d="M826.1,257.72c-3.47-1.13-7-2.66-10.63-3.21-3-.46-6.46-.1-8.14,2.78-1.81,3.09-.17,6.94,2.5,8.9,3.09,2.26,7.33,2.54,10.93,3.46A101.28,101.28,0,0,1,833.92,274a2,2,0,0,0,2.46-1.4,2,2,0,0,0-1.39-2.46A102,102,0,0,0,822.51,266c-1.92-.51-3.86-.92-5.8-1.35-1.72-.38-3.66-.78-5-2-.85-.81-1.62-2.31-.85-3.41.64-.93,2-.92,3-.85a20.37,20.37,0,0,1,4.79,1.19l6.32,2.05c2.46.8,3.51-3.06,1.07-3.85Z"/><path class="cls-2" d="M828.23,257.52c.65-3.64-.11-8.08,2-11.3.72-1.11,2-2.26,3.4-2.05a4,4,0,0,1,2.81,2.61,10.91,10.91,0,0,1,.24,5.7c-.32,2.17-.73,4.32-1.1,6.47l-2.28,13.32a2,2,0,0,0,1.39,2.46,2,2,0,0,0,2.46-1.39l2.16-12.6c.36-2.09.73-4.18,1.08-6.27a23,23,0,0,0,.46-6.08c-.33-3.38-2.15-6.71-5.5-7.88s-6.62.79-8.47,3.54c-2.49,3.71-1.73,8.23-2.48,12.41a2.06,2.06,0,0,0,1.4,2.46,2,2,0,0,0,2.46-1.4Z"/><path class="cls-1" d="M1175.58,482c9.08-.81,16.26-7.76,21.66-14.54,7.1-8.9,12.56-19,17.36-29.33,10.63-22.74,18.49-46.83,21.23-71.86a187.23,187.23,0,0,0-1.41-51.36c-1.16-7-2.62-13.87-4.05-20.76-1.37-6.59-2.85-13.15-4.62-19.64-3.45-12.63-8-25.14-15.12-36.21a77,77,0,0,0-29.92-27.61c-13.63-6.85-28.91-9.15-44-10.19-7.81-.54-15.63-.75-23.45-1.05-8.48-.33-16.93-.92-25.39-1.67-17.66-1.57-35.51-3.32-53.15-.56a74.77,74.77,0,0,0-38,17.31c-9.73,8.58-16.85,20.4-17.47,33.58-.37,7.7,1.51,15.69,6.8,21.5a40.47,40.47,0,0,0,9.07,7c3.59,2.18,7.27,4.23,11,6.25a392.59,392.59,0,0,0,46.52,21.63c14.78,5.73,29.95,10.13,45,15,13.76,4.46,27.5,9.53,39.71,17.41A81.65,81.65,0,0,1,1154,351a90.17,90.17,0,0,1,12.9,19.16c7,13.64,11.64,28.67,15.24,43.55,3.57,14.71,5.85,30.37,3,45.41a57.76,57.76,0,0,1-7.54,19.89c-1.35,2.2,2.11,4.21,3.46,2,16.18-26.27,8.34-59.77-.41-87.18-4.64-14.53-10.6-28.89-20-41-8.9-11.51-20.77-20-33.81-26.28s-27.07-10.58-40.94-14.87a450.19,450.19,0,0,1-45.66-16.49q-11.65-5.06-23-10.86c-7.33-3.77-14.73-7.64-21.68-12.09a28,28,0,0,1-8.37-7.55,24.11,24.11,0,0,1-3.74-10.41,37.16,37.16,0,0,1,2.78-19.08c5.05-11.88,15.34-21,26.62-26.82,13.95-7.24,29.81-8.85,45.32-8.57,17.31.31,34.5,2.79,51.8,3.54,15.17.65,30.51.64,45.49,3.41,14.29,2.64,27.74,8.16,38.59,18,9.51,8.63,16.42,19.69,21.3,31.51,5,12.14,8.17,24.95,10.86,37.78,3.14,15,6.08,29.89,6.59,45.22a189.67,189.67,0,0,1-5.15,50.58,230.92,230.92,0,0,1-10,31,229.55,229.55,0,0,1-14,29.86c-4.79,8.38-10.44,17.29-18.33,23.11a20.25,20.25,0,0,1-9.74,4.2c-2.54.23-2.57,4.23,0,4Z"/><path class="cls-1" d="M1059.86,211.16a62.79,62.79,0,0,0-9.87,22,2,2,0,0,0,3.66,1.54,24.67,24.67,0,0,1,4.75-5.78,9.48,9.48,0,0,1,5.15-2.69c2.28-.23,2.54,1.46,2.62,3.42a69.07,69.07,0,0,1-.29,9.32,2,2,0,0,0,2,2,2,2,0,0,0,2-2,47,47,0,0,0,.09-11.61,5.84,5.84,0,0,0-5.82-5.14c-6.07-.15-11.13,5.74-14,10.46l3.66,1.54a59.72,59.72,0,0,1,9.46-21.06c1.49-2.1-2-4.1-3.45-2Z"/><path class="cls-1" d="M1076.77,230.23a30.46,30.46,0,0,0-3.91,12.39,2,2,0,0,0,2,2,2,2,0,0,0,2-2l.09-.8c0-.24,0-.27,0-.07,0-.1,0-.19,0-.29.08-.5.17-1,.27-1.48a25.31,25.31,0,0,1,.72-2.72,22.46,22.46,0,0,1,2.24-5,2,2,0,1,0-3.46-2Z"/><path class="cls-1" d="M1083.86,224.19c2.58,0,2.58-4,0-4s-2.58,4,0,4Z"/><path class="cls-1" d="M1015.24,250.15a49.54,49.54,0,0,0-5.68,16.43c-.34,2.13,2.41,3.63,3.65,1.54l6.66-11.19,3.2-5.39c.55-.92,1-1.92,1.67-2.8.41-.57.42-.47,1.15-.08,3.17,1.72,2.63,6.41,2.32,9.35-.45,4.36-.94,8.73-1.41,13.09a2,2,0,0,0,2,2,2.05,2.05,0,0,0,2-2c.55-5.1,1.34-10.24,1.61-15.36.22-4.18-1-9.05-5.21-10.87a4.39,4.39,0,0,0-5.71,1.55c-1.42,2-2.58,4.29-3.85,6.42l-7.88,13.27,3.65,1.54a46.66,46.66,0,0,1,5.28-15.48c1.25-2.25-2.2-4.27-3.45-2Z"/><path class="cls-1" d="M1038.34,261.75a6.61,6.61,0,0,0,9.31,2.28c3.26-2.23,3.25-7.21.43-9.82-3.55-3.27-8.69-1-11.3,2.3a12.71,12.71,0,0,0,7.44,20.59,2.07,2.07,0,0,0,2.46-1.4,2,2,0,0,0-1.4-2.46,8.86,8.86,0,0,1-6.87-11.59c.76-2.23,2.8-4.88,5.35-5a2.48,2.48,0,0,1,2.23,3.49c-.76,1.6-3.43,1.16-4.2-.36-1.16-2.29-4.61-.27-3.45,2Z"/><path class="cls-1" d="M1055.72,258.25a30.14,30.14,0,0,0-4,16.45,2,2,0,1,0,4,0,26.32,26.32,0,0,1,3.41-14.44c1.28-2.23-2.18-4.25-3.45-2Z"/><path class="cls-1" d="M1061.3,250.68c2.58,0,2.58-4,0-4s-2.58,4,0,4Z"/><path class="cls-1" d="M1073.13,261.46a10.93,10.93,0,0,0-9.77,2.57,10.76,10.76,0,0,0-3,9.93c.35,1.71,1.19,3.47,3,4,2,.6,3.79-.71,5.16-1.93a20.3,20.3,0,0,0,5.81-9.29l-3.86-1.06a83.75,83.75,0,0,1-5.93,20,6.14,6.14,0,0,1-2.33,3.1,5.19,5.19,0,0,1-3.49.39c-3-.63-5.21-3-7.25-5.12-1.81-1.84-4.63,1-2.83,2.83,2.53,2.59,5.35,5.35,9,6.14a8.62,8.62,0,0,0,9.21-3.28,24.31,24.31,0,0,0,2.35-5q1.14-2.82,2.07-5.72a92.24,92.24,0,0,0,3-12.26c.44-2.5-3.1-3.57-3.86-1.06a16,16,0,0,1-3.36,6.1,8.81,8.81,0,0,1-2.55,2.24c-.29.14-.1,0,0,.14s-.11-.36-.11-.38a15.17,15.17,0,0,1-.32-1.52,6.63,6.63,0,0,1,8-7c2.51.55,3.58-3.31,1.06-3.85Z"/><path class="cls-1" d="M1082.39,255.32a53.32,53.32,0,0,0-6.83,23c-.15,2.27,3.37,2.7,3.92.54a16.59,16.59,0,0,1,2.77-6.52c1.25-1.53,3.3-2.76,5.34-2.34s2.94,2.3,3.33,4c.61,2.69-.33,5.56-1.08,8.13s3.15,3.53,3.86,1.06c1-3.46,2-7.2,1-10.77-.84-2.9-3-5.58-6-6.31A9.48,9.48,0,0,0,1080,269c-2.37,2.39-3.51,5.68-4.32,8.86l3.93.53a48.61,48.61,0,0,1,6.29-21c1.27-2.24-2.18-4.26-3.46-2Z"/><path class="cls-1" d="M1105.79,263.53a48.53,48.53,0,0,0-6.38,23.31c0,2.41,3.14,2.52,3.92.53,1.11-2.79,2.93-6.24,5.84-7.49,2.46-1.06,4.75.3,5.55,2.73s0,4.79-2.47,5.64a5.92,5.92,0,0,1-6.77-2.21c-1.37-2.17-4.83-.17-3.45,2,3.69,5.85,13.88,6.25,16.49-.84a9.36,9.36,0,0,0-1.87-9.12,7.91,7.91,0,0,0-9.5-1.68c-3.86,1.87-6.16,6.07-7.67,9.89l3.93.53a44.28,44.28,0,0,1,5.84-21.3c1.27-2.23-2.18-4.25-3.46-2Z"/><path class="cls-1" d="M1128.71,282.72c-2.46,3-5.92,5-7.22,8.91a7.23,7.23,0,0,0,4.23,9.05,12,12,0,0,0,6.14.76,20.42,20.42,0,0,0,6-1.29c4.13-1.84,3.22-6.76,1.44-10-1.93-3.54-5.27-6.09-8.5-8.36a2,2,0,1,0-2,3.45,27.06,27.06,0,0,1,6,5.35,10.78,10.78,0,0,1,1.66,3.05,6.14,6.14,0,0,1,.37,1.79,1.41,1.41,0,0,1-.08.65c0,.1-.26.27-.16.21a4,4,0,0,1-1.49.57c-.74.18-1.5.31-2.26.44a11.55,11.55,0,0,1-4.46.08,4.72,4.72,0,0,1-2.77-1.65,3.13,3.13,0,0,1-.28-2.91c1-3,4.27-4.87,6.23-7.27a2.06,2.06,0,0,0,0-2.83,2,2,0,0,0-2.83,0Z"/><path class="cls-1" d="M1143.91,291.67a62.59,62.59,0,0,0-5.47,12.12,2,2,0,1,0,3.85,1.06c1.21-3.39,2.65-7.59,6.08-9.17l0,0,.27-.09.63-.18a5.35,5.35,0,0,1,.55-.11c-.41.07.18,0,.22,0a8.28,8.28,0,0,1,1.22,0c.15,0,.13,0-.07,0l.37.07a4.54,4.54,0,0,1,.53.12l.52.17c.43.14-.18-.13.17.08l.53.31c.4.24,0-.09.22.16l.36.36c.32.33-.12-.26.1.14.08.15.18.3.26.45-.2-.38.07.27.1.37.67,2.48,4.53,1.43,3.86-1.06-1.24-4.54-6.73-6.11-10.81-4.64-5.08,1.82-7.25,7.29-8.91,12l3.85,1.06a58.5,58.5,0,0,1,5.08-11.16c1.3-2.22-2.15-4.24-3.46-2Z"/><path class="cls-1" d="M1172.08,288.43a32.55,32.55,0,0,0-7.89,17.77,2,2,0,0,0,2,2,2.05,2.05,0,0,0,2-2,27.87,27.87,0,0,1,6.72-14.95,2,2,0,0,0,0-2.82,2,2,0,0,0-2.83,0Z"/><path class="cls-1" d="M1161.72,323c2.57,0,2.58-4,0-4s-2.58,4,0,4Z"/><path class="cls-1" d="M1187.6,304.27c2.58,0,2.58-4,0-4s-2.58,4,0,4Z"/><path class="cls-1" d="M1205.81,309.23c2.57,0,2.57-4,0-4s-2.58,4,0,4Z"/><path class="cls-1" d="M1174.92,314.15c-.68,4.25,1.73,7.87,5.29,10a31.69,31.69,0,0,0,5.83,2.52c2,.74,4.11,1.45,6.22,2,7.57,2,16.7,1.89,22.29-4.43,1.7-1.92-1.12-4.76-2.83-2.82-4.39,5-11.49,5.09-17.49,3.62a59.54,59.54,0,0,1-10.17-3.4c-2.44-1.09-5.78-3.29-5.28-6.44a2.06,2.06,0,0,0-1.4-2.46,2,2,0,0,0-2.46,1.39Z"/><path class="cls-1" d="M943.71,481.88c-10.82,2.78-17.62,12.62-21.47,22.49-4.35,11.13-6.68,25.68.79,36,3.2,4.42,7.89,8,13.31,9.14a18.2,18.2,0,0,0,15.53-4.28c9.46-8,12-22,11.18-33.68-.78-10.82-4.44-26.45-17.06-28.91-2.51-.49-3.59,3.36-1.06,3.85,9.39,1.83,12.61,13.09,13.73,21.26,1.44,10.52.4,22.8-6.47,31.4-3,3.74-7.2,6.73-12.14,6.75-4.61,0-8.88-2.39-12-5.67-8.05-8.52-6.43-21.53-3.08-31.74,3.15-9.65,9.28-20.1,19.78-22.79,2.5-.64,1.44-4.5-1.06-3.86Z"/><path class="cls-1" d="M944.18,532.36l20.34,14a2,2,0,0,0,2.73-.71,2,2,0,0,0-.72-2.74l-20.33-14a2,2,0,0,0-2.74.71,2,2,0,0,0,.72,2.74Z"/><path class="cls-1" d="M974.85,484.6a364.43,364.43,0,0,0,.83,54.79c.46,5.14,1.05,10.28,1.73,15.4a2.07,2.07,0,0,0,2,2c1,0,2.14-.93,2-2a365.25,365.25,0,0,1-3.17-54.71q.15-7.74.61-15.48c.16-2.57-3.84-2.56-4,0Z"/><path class="cls-1" d="M977,486.28q11.49,22.28,23.88,44.05,3.57,6.27,7.21,12.49a2,2,0,0,0,3.73-1,239.74,239.74,0,0,1,4.41-52c.95-4.87,2.07-9.7,3.32-14.5.65-2.49-3.21-3.56-3.86-1.06a244.94,244.94,0,0,0-7.76,52.42q-.3,7.54-.11,15.11l3.73-1Q998.85,519.18,987.1,497q-3.39-6.37-6.69-12.78c-1.18-2.29-4.63-.27-3.45,2Z"/><path class="cls-1" d="M1045.86,485.12c-4.7-3-10.91-2.57-15.58.28-5.56,3.39-7.75,9.63-6.47,15.91,1.5,7.34,6.76,12.92,10.87,18.9,3.7,5.39,7.67,12.91,3.54,19.16a10.41,10.41,0,0,1-17,.28,2.06,2.06,0,0,0-2.74-.72,2,2,0,0,0-.71,2.74,14.49,14.49,0,0,0,17.87,5c6.53-3,9.34-10.19,7.91-17-1.58-7.51-7-13.15-11.15-19.3-3.5-5.19-7.37-12.69-3.22-18.62,3.15-4.5,10-6.08,14.66-3.14,2.19,1.37,4.2-2.09,2-3.45Z"/><path class="cls-1" d="M921.62,484.94c4.84-6.7,14.37-6.33,21.61-5.13,7.53,1.25,16.13,3.32,20.24,10.44,1.29,2.23,4.74.22,3.45-2-3.59-6.23-10.28-9.53-17-11.17-7.22-1.75-15.58-3.19-22.77-.65a18.16,18.16,0,0,0-8.94,6.52,2,2,0,0,0,.71,2.73,2,2,0,0,0,2.74-.72Z"/><path class="cls-1" d="M920.42,482.84c1.28-4.09,2.48-8.52,1.49-12.81-.91-3.89-3.86-6.11-6.18-9.11a4.68,4.68,0,0,1-1.2-4.18,6.28,6.28,0,0,1,3.76-3.7,25.83,25.83,0,0,1,6.57-1.45,16.49,16.49,0,0,1,6.64.12c3.31.93,5.52,3.89,8,6.12,2.66,2.44,5.84,4.31,9.58,3.9,6.28-.69,14.74-8.81,20-1.46,2.87,4,.77,9.37-1,13.38a85.73,85.73,0,0,0-5.64,15.07c-.6,2.5,3.25,3.57,3.85,1.07a83,83,0,0,1,5.33-14.32c1.93-4.32,3.75-9.17,2.44-13.93a11.53,11.53,0,0,0-9-8.18c-4.39-.76-8.21,1.35-12.09,3.09a11.78,11.78,0,0,1-5.28,1.34,7.76,7.76,0,0,1-4.38-1.93c-2.86-2.3-5.07-5.42-8.41-7.1-4.46-2.25-9.78-1.42-14.49-.47-4.38.89-9.13,3.42-9.88,8.28s3.28,7.72,5.92,11.13c3.21,4.15,1.56,9.56.15,14.08-.77,2.46,3.09,3.51,3.86,1.06Z"/><path class="cls-1" d="M947.73,458.89a31.65,31.65,0,0,1-.07-5.84,19.16,19.16,0,0,1,.33-2.54c.18-1,.41-1.94.68-2.9a2,2,0,1,0-3.85-1.06,32.75,32.75,0,0,0-1.09,12.34,2,2,0,0,0,2,2,2,2,0,0,0,2-2Z"/><path class="cls-1" d="M944.93,447.11c0-.06.05-.68,0-.4s0-.24.06-.3a9.32,9.32,0,0,1,.3-1c.16-.5-.19.34.05-.13.07-.15.14-.3.22-.44a8,8,0,0,1,.64-1h-3.45a14.12,14.12,0,0,1,1.55,2.48l.15.32c.08.17.08.17,0,0,.09.22.17.43.25.65a13.34,13.34,0,0,1,.44,1.49l2.94-2.26a47.33,47.33,0,0,1-6.57-3.74l-.48,3.66c.42-.08.83-.14,1.24-.2.15,0,.13,0,0,0l.38-.05.58-.07c.8-.08,1.6-.14,2.4-.17a38.45,38.45,0,0,1,4.92.13l-.53-3.93a57.66,57.66,0,0,0-8.21,2.93,2,2,0,0,0-.72,2.74,2.07,2.07,0,0,0,2.74.71l.52-.23,0,0,1-.39c.63-.25,1.25-.48,1.88-.7,1.26-.44,2.54-.83,3.83-1.18a2,2,0,0,0-.53-3.93,40.4,40.4,0,0,0-10.53.49,2,2,0,0,0-1.43,1.66,2,2,0,0,0,1,2,46.4,46.4,0,0,0,6.57,3.75,2,2,0,0,0,2.22-.16,2,2,0,0,0,.72-2.1,15.63,15.63,0,0,0-2.8-5.89,2,2,0,0,0-3.45,0,9.44,9.44,0,0,0-1.84,5.28,2,2,0,0,0,2,2,2,2,0,0,0,2-2Z"/><path class="cls-1" d="M921.31,473a40.36,40.36,0,0,0,25.24-5.86l-2.74-.72c2.77,3.62,6.86,5.14,11.09,6.37,3.59,1.05,8.05,1.95,10.35,5.19a2.06,2.06,0,0,0,2.74.72,2,2,0,0,0,.72-2.74c-2.63-3.69-6.72-5.26-10.92-6.49-3.58-1.06-8.12-1.91-10.52-5.07a2,2,0,0,0-2.74-.71A36.79,36.79,0,0,1,921.31,469a2,2,0,0,0-2,2,2,2,0,0,0,2,2Z"/><path class="cls-1" d="M944,461.65a151.75,151.75,0,0,1-.27,16.52,2,2,0,1,0,4,0,151.75,151.75,0,0,0,.27-16.52,2,2,0,0,0-4,0Z"/><path class="cls-1" d="M956.1,480.16a31.07,31.07,0,0,1,15.32-13.27,2.06,2.06,0,0,0,1.4-2.46,2,2,0,0,0-2.46-1.4,35.43,35.43,0,0,0-17.72,15.11c-1.29,2.23,2.16,4.25,3.46,2Z"/><path class="cls-1" d="M914.36,459.31c2-.45,4.07.74,5.62,1.94a32.89,32.89,0,0,1,4.69,4.6,36.86,36.86,0,0,1,6.56,11.23,2.06,2.06,0,0,0,2.46,1.4,2,2,0,0,0,1.4-2.46,42.18,42.18,0,0,0-8-13.48c-3.41-3.85-8.2-8.32-13.78-7.09-2.51.55-1.45,4.41,1.06,3.86Z"/><path class="cls-2" d="M713,674.11a262,262,0,0,0,1,48.82q.81,6.92,2,13.78a2,2,0,0,0,2.46,1.39,2,2,0,0,0,1.4-2.46A259.29,259.29,0,0,1,717,674.11c.19-2.57-3.81-2.56-4,0Z"/><path class="cls-2" d="M741.13,673.07a320.42,320.42,0,0,0-25,25.09,2,2,0,0,0,0,2.83l42.75,40.24c1.88,1.76,4.71-1.06,2.83-2.83l-42.76-40.24V701A320.55,320.55,0,0,1,744,675.9c1.92-1.72-.92-4.54-2.83-2.83Z"/><path class="cls-2" d="M666.89,679.72q-.4,30.43.21,60.88c0,2.57,4,2.58,4,0q-.61-30.44-.21-60.88c0-2.57-4-2.57-4,0Z"/><path class="cls-2" d="M670.81,686.24a25.6,25.6,0,0,1,12.42-4c4-.2,8.48.55,11.28,3.73a7,7,0,0,1,.37,9c-2,2.85-5.47,4.68-8.68,5.89a51,51,0,0,1-15.71,3.22,2,2,0,0,0,0,4c6.69.34,13.44.44,20.11,1.07a14.81,14.81,0,0,1,12,7.7,13.83,13.83,0,0,1-.52,13.64c-2.82,4.7-7.86,6.74-13.14,7.29a76,76,0,0,1-9.54.28c-2.72-.07-5.78-.3-8-2.1-2-1.62-4.82,1.2-2.83,2.83,4.94,4.06,12.22,3.51,18.23,3.16,6.4-.37,12.95-2,17.14-7.23a18.22,18.22,0,0,0,3.46-16.6,18.61,18.61,0,0,0-11.64-12c-3.76-1.27-8-1.17-11.87-1.36l-13.46-.69v4A54.45,54.45,0,0,0,687,704.8c4.24-1.57,8.35-3.84,11.09-7.54a10.87,10.87,0,0,0,.55-12.36c-2.8-4.41-7.82-6.37-12.87-6.66a29.19,29.19,0,0,0-17,4.54c-2.17,1.37-.16,4.84,2,3.46Z"/><path class="cls-2" d="M664.44,674.54c7.16-1.85,14.69-3.34,22.12-3.09,5.91.2,11.94,1.76,15.82,6.51a2,2,0,0,0,2.83,0,2.05,2.05,0,0,0,0-2.83c-4.36-5.34-11.28-7.31-17.92-7.65-8-.4-16.21,1.21-23.91,3.21-2.49.64-1.43,4.5,1.06,3.85Z"/><path class="cls-2" d="M665.83,671.39a25.78,25.78,0,0,1-3.29-8.29c-.47-2.31-.77-5,.18-7.26,1.12-2.65,4.28-3.52,6.8-4.24a75.67,75.67,0,0,1,9.2-1.85c6-.92,12.43-1.63,18.39.16,4.77,1.44,9.35,4.62,10.86,9.58a10.77,10.77,0,0,1-.37,7.74c-1.29,2.65-4.18,4.48-3.89,7.76.22,2.54,4.22,2.57,4,0-.13-1.41,1-2.45,1.85-3.48a13.57,13.57,0,0,0,2.25-4.08,15,15,0,0,0,.12-8.64c-1.65-6-6.62-10.13-12.28-12.24-6.59-2.45-13.77-1.85-20.58-.86a76.9,76.9,0,0,0-10.84,2.12c-3.17.93-6.54,2.16-8.43,5.05s-1.87,6.69-1.34,10a29,29,0,0,0,3.91,10.51c1.34,2.19,4.8.19,3.46-2Z"/><path class="cls-2" d="M664,665.58c8.21-1.76,16.63-1.93,25-2.07,5.3-.09,12.6-.2,16.11,4.59a2.07,2.07,0,0,0,2.74.72,2,2,0,0,0,.71-2.74c-4.29-5.85-11.76-6.64-18.51-6.59-9.05.07-18.23.33-27.12,2.24-2.51.54-1.45,4.39,1.07,3.85Z"/><path class="cls-2" d="M665.48,655.65a13.92,13.92,0,0,1,4.65,13.48,2,2,0,0,0,1.39,2.46,2,2,0,0,0,2.46-1.4,17.94,17.94,0,0,0-5.67-17.37,2.07,2.07,0,0,0-2.83,0,2,2,0,0,0,0,2.83Z"/><path class="cls-2" d="M704,655.32a17.2,17.2,0,0,0-7.83,14.37,2,2,0,0,0,4,0,16.71,16.71,0,0,1,.09-1.73c.06-.6,0,.22,0-.13,0-.16.05-.32.08-.47s.12-.57.19-.85a16.4,16.4,0,0,1,.52-1.64c0-.11.17-.41,0-.15,0-.12.11-.23.16-.35.14-.29.28-.58.43-.86a15.69,15.69,0,0,1,.91-1.47c.07-.11.15-.21.22-.31.36-.5-.12.14.1-.13s.37-.45.56-.66a14.26,14.26,0,0,1,1.31-1.27,3.47,3.47,0,0,1,.29-.25c.16-.13-.15.1.13-.1l.79-.55a2,2,0,1,0-2-3.45Z"/><path class="cls-2" d="M688.68,668.34l1.84-29.4c.16-2.57-3.84-2.56-4,0l-1.84,29.4c-.16,2.57,3.84,2.56,4,0Z"/><path class="cls-2" d="M686.19,637.72c.07.48,0-.26,0-.35s0-.46,0-.7a10.16,10.16,0,0,1,.08-1.23c-.06.49.06-.25.07-.33l.12-.52a12.23,12.23,0,0,1,.45-1.33l-2.93,1.19a18.16,18.16,0,0,1,1.83,1c.29.18.58.38.87.59.07.05.54.42.17.12l.37.31a15.89,15.89,0,0,1,1.53,1.43c.22.24.43.48.64.73l.3.37c-.31-.38.12.17.17.24l1.73-3-4.74-.32-2.27-.16-1-.07.15,0-.23-.05s-.55-.15-.26,0-.15,0-.16-.11q.32.27.09.06l.16.19c-.22-.32,0,.37,0,0,0,.32,0,.38,0,.16l0,.29c0-.16,0-.16,0,0a.88.88,0,0,1-.49.58l-.16.06c.15,0,.09,0-.18,0a5.36,5.36,0,0,0,1,0l4.71.11-1-3.73-5.25,3.83a2.06,2.06,0,0,0-.72,2.74,2,2,0,0,0,2.74.72l5.25-3.83a2,2,0,0,0-1-3.73l-3-.07a25,25,0,0,0-2.74,0,3.18,3.18,0,0,0-3,2.16,3.48,3.48,0,0,0,.62,3.05c1.33,1.72,3.64,1.62,5.6,1.76l5.92.4a2,2,0,0,0,1.73-3A19.46,19.46,0,0,0,686,631a2,2,0,0,0-2.94,1.2,12.51,12.51,0,0,0-.68,6.58,2,2,0,0,0,2.46,1.4,2.07,2.07,0,0,0,1.4-2.46Z"/><path class="cls-2" d="M676.85,657.65a72.69,72.69,0,0,0,.89,11.88,2,2,0,0,0,2.46,1.4,2.07,2.07,0,0,0,1.4-2.46c-.15-1-.22-1.47-.33-2.46s-.19-1.85-.25-2.78c-.14-1.86-.19-3.72-.17-5.58a2,2,0,0,0-4,0Z"/><path class="cls-2" d="M692.27,656.31a30.37,30.37,0,0,1-.15,5.64l0,.32c0-.18,0-.15,0,.1s-.07.42-.1.63c-.08.46-.17.91-.27,1.36-.2.94-.45,1.86-.74,2.78a2,2,0,0,0,1.4,2.46,2,2,0,0,0,2.46-1.4,33,33,0,0,0,1.45-11.89,2,2,0,0,0-4,0Z"/><path class="cls-2" d="M581.78,824.19c-3.22,2.7-3.95,8.21-.37,10.9,3,2.27,7.14,1.22,10.18-.38,2.67-1.4,5.58-3.69,6.38-6.74a5.65,5.65,0,0,0-.8-4.69,6.15,6.15,0,0,0-4.69-2.65,13.8,13.8,0,0,0-5.75.93,16.6,16.6,0,0,0-5,2.63,2,2,0,0,0,0,2.83,2.06,2.06,0,0,0,2.83,0c.26-.21-.36.24-.06.05l.34-.24.74-.44c.27-.15.55-.29.83-.43l.42-.19.21-.09c-.41.19-.06,0,0,0a18.05,18.05,0,0,1,2-.67c.34-.09.68-.18,1-.24l.47-.09s.31,0,0,0,.06,0,.12,0c.32,0,.65,0,1,0h.44l.21,0c.25,0-.42-.09-.06,0s.51.12.76.19-.36-.22,0,0c.05,0,.36.17.36.22s-.31-.3-.17-.12a1.54,1.54,0,0,0,.13.12c.11.12.22.26.34.38s-.09-.11-.09-.13a1.63,1.63,0,0,0,.11.17l.23.39c.17.29-.12-.42,0,0l.09.34s0,.16,0,.17,0-.45,0-.25,0,.3,0,.45,0,.48,0,.13,0,0,0,.12a2.91,2.91,0,0,1-.12.39,1.15,1.15,0,0,1-.06.17c-.06.22.19-.34.06-.15s-.25.48-.39.7l-.22.32c-.18.27.25-.28,0,.06a12.65,12.65,0,0,1-1.32,1.32l-.33.27c-.29.24.26-.18-.05,0s-.55.39-.84.57a16,16,0,0,1-1.62.91l-.37.18c-.06,0-.55.22-.26.12l-.19.07L588,832c-.5.18-1,.27-1.52.4-.13,0,.51,0,.13,0l-.34,0h-.69l-.3,0c-.33,0,.27,0-.05,0s-.46-.09-.68-.15l-.37-.12c.2.07.06,0,0,0l-.25-.15s-.32-.22-.19-.12-.45-.45-.23-.22-.14-.22-.19-.31-.07-.14-.11-.2,0,.26,0,.05a2.13,2.13,0,0,0-.16-.6c-.07-.2,0,.11,0,.15s0-.21,0-.31,0-.38,0-.56-.08.33,0,.05a3,3,0,0,0,.06-.32c.05-.18.1-.37.16-.55s.06-.15.08-.23c.06-.27-.2.38,0-.06a10.77,10.77,0,0,1,.59-1s-.21.23-.06.07.18-.2.28-.3a5,5,0,0,1,.48-.44,2,2,0,0,0,0-2.83A2.05,2.05,0,0,0,581.78,824.19Z"/><path class="cls-2" d="M560.69,841.5a6.23,6.23,0,0,0-2.94,5.37,8.42,8.42,0,0,0,2.66,5.83c3.17,3.22,8.18,4.95,12.42,2.91,3.27-1.58,5.44-5.51,3.67-8.93-1.33-2.57-4.24-4.1-6.86-5s-6.26-1.57-8.95-.16a2,2,0,0,0,2,3.46c.46-.25-.4.08.11-.06l.57-.14c.54-.13-.36,0,.22,0l.76,0a13.34,13.34,0,0,1,1.41.09c-.55-.06.27.05.41.08.32.06.64.13.95.21.52.13,1,.29,1.52.46l.7.27c-.44-.18.07,0,.13.07l.45.21a13.56,13.56,0,0,1,1.39.8c.11.08.6.44.42.3s.13.11.14.12l.33.3c.16.16.31.34.48.51s-.14-.27,0,0c.05.09.13.18.18.27s.34.77.15.2c.07.21.11.45.19.65s0-.5,0-.11a2.09,2.09,0,0,0,0,.25c0,.16-.1.51,0,0,0,.11,0,.22-.07.33a1.76,1.76,0,0,1-.26.69c-.09.15-.18.3-.28.44s-.08.12,0,0c-.09.11-.19.21-.28.31a4.21,4.21,0,0,1-1.4,1c-.35.18.42-.13-.21.1l-.41.13a2.75,2.75,0,0,1-1,.18,7.5,7.5,0,0,1-4.33-1.27,9.09,9.09,0,0,1-2-1.62,5.09,5.09,0,0,1-1.09-1.8,2.5,2.5,0,0,1,0-1.66,1.81,1.81,0,0,1,.86-1.2C564.92,843.65,562.91,840.19,560.69,841.5Z"/><path class="cls-2" d="M552.7,868.56c-3.2,2.94-3.78,8.3-.5,11.4a12,12,0,0,0,12.93,1.87c3.63-1.78,5.87-6.32,4.25-10.17-1.19-2.81-4.07-4.5-7-5.09-3.33-.68-7.07-.29-9.72,2a2,2,0,0,0,0,2.83,2,2,0,0,0,2.83,0c.09-.08.45-.3,0,0,.08-.05.15-.11.23-.15l.62-.35c.09-.05.54-.21.06,0l.27-.1a8.89,8.89,0,0,1,.88-.26c.25-.06.51-.1.77-.15-.52.1.28,0,.42,0a12.68,12.68,0,0,1,1.63,0l.49.05c-.44,0-.14,0,0,0,.27,0,.54.09.81.15l.78.22.46.15c.1,0,.55.23.11,0a9.93,9.93,0,0,1,1.36.74l.24.17c-.4-.29,0,0,.06.07s.38.37.57.57.25.37,0,0c0,.08.12.15.16.23s.24.42.35.64c-.24-.49.05.19.08.34a3.82,3.82,0,0,1,.09.44c-.07-.39,0-.07,0,.15a4.33,4.33,0,0,1-1.48,3.23c-2.05,1.94-5.71,1.78-8.12.53a5.4,5.4,0,0,1-1.67-1.23,2.94,2.94,0,0,1-.31-.47l-.15-.29c.06.16,0,.12,0-.11l-.12-.41c0-.13-.06-.27-.08-.41,0,.15,0,.15,0,0a4.46,4.46,0,0,1,1.55-3.69,2,2,0,1,0-2.83-2.83Z"/><path class="cls-2" d="M560.7,919.56c-3.2,2.94-3.78,8.3-.5,11.4a12,12,0,0,0,12.93,1.87c3.63-1.78,5.87-6.32,4.25-10.17-1.19-2.81-4.07-4.5-7-5.09-3.33-.68-7.07-.29-9.72,2a2,2,0,0,0,0,2.83,2,2,0,0,0,2.83,0c.09-.08.45-.3,0,0,.08-.05.15-.11.23-.15l.62-.35c.09-.05.54-.21.06,0l.27-.1a8.89,8.89,0,0,1,.88-.26c.25-.06.51-.1.77-.15-.52.1.28,0,.42,0a12.68,12.68,0,0,1,1.63,0l.49.05c-.44,0-.14,0,0,0,.27,0,.54.09.81.15l.78.22.46.15c.1,0,.55.23.11,0a9.93,9.93,0,0,1,1.36.74l.24.17c-.4-.29,0,0,.06.07s.38.37.57.57.25.37,0,0c0,.08.12.15.16.23s.24.42.35.64c-.24-.49.05.19.08.34a3.82,3.82,0,0,1,.09.44c-.07-.39,0-.07,0,.15a4.33,4.33,0,0,1-1.48,3.23c-2.05,1.94-5.71,1.78-8.12.53a5.4,5.4,0,0,1-1.67-1.23,2.94,2.94,0,0,1-.31-.47l-.15-.29c.06.16,0,.12,0-.11l-.12-.41c0-.13-.06-.27-.08-.41,0,.15,0,.15,0,0a4.46,4.46,0,0,1,1.55-3.69,2,2,0,1,0-2.83-2.83Z"/><path class="cls-2" d="M548.53,896.87c-4.67,1.23-7.89,6.94-4.28,11,2.25,2.5,5.89,3,9.07,2.77,3-.25,6.34-1.08,8.25-3.55a5.75,5.75,0,0,0,1-4.63,5.88,5.88,0,0,0-2.87-4,14.36,14.36,0,0,0-5.87-1.73,15.77,15.77,0,0,0-5.35.2,2,2,0,0,0,1.07,3.86c.15,0,1-.16.35-.09l.74-.07a17,17,0,0,1,2,0c.36,0,.72,0,1.08.08.58.06-.25,0,.11,0l.45.07a13.83,13.83,0,0,1,2.11.52l.49.18c-.43-.16.08,0,.14.07a6,6,0,0,1,.7.39,3.19,3.19,0,0,1,.38.26c-.4-.31,0,0,.05.06l.19.21c.14.16.13.14,0-.08l.15.23c0,.13.16.5,0,0l.12.38c0,.12.05.25.09.37.13.45,0-.41,0,0,0,.21,0,.44,0,.66,0-.56,0-.19,0,0s-.28.61,0,.1c-.09.17-.21.35-.29.53-.18.36.31-.29,0,0l-.26.28c-.15.14-.64.42-.19.18-.28.15-.53.35-.81.5l-.64.31c.51-.22-.34.11-.49.16a13.61,13.61,0,0,1-1.78.44l-.31,0c-.52.09.44,0-.09,0-.3,0-.61.07-.92.08a13,13,0,0,1-1.65,0l-.85-.06c-.12,0-.58-.09,0,0l-.26,0a8.92,8.92,0,0,1-1.35-.35c-.37-.13.5.28-.13-.06a8.94,8.94,0,0,1-.8-.44,2.84,2.84,0,0,1-.82-.7,2.44,2.44,0,0,1-.38-.74c0-.09-.06-.5,0-.17,0-.1.06-.8,0-.47a4.31,4.31,0,0,1,.16-.59c-.1.28.13-.26.14-.28a3,3,0,0,1,.72-1,3.92,3.92,0,0,1,1.92-1.07C552.08,900.07,551,896.21,548.53,896.87Z"/><path class="cls-1" d="M1085.06,877.39a4.39,4.39,0,0,1,1.13,1.48,5.25,5.25,0,0,1,.42,1.68c0,.15,0,.29,0,.43,0,.56.09-.24,0,.31,0,.14-.06.27-.1.41,0,0-.24.61-.1.31a3.77,3.77,0,0,1-1,1.33,7.85,7.85,0,0,1-8.55.65,5,5,0,0,1-2.08-3,2.6,2.6,0,0,1-.06-.79c0-.12,0-.25,0-.37,0,.51,0,0,0-.07s.14-.47.22-.71c0,.08-.21.37,0,.09s.15-.3.24-.44.14-.2.2-.3c-.23.36-.12.14,0,.06s.32-.36.5-.53l.34-.29c-.34.28-.14.1,0,.05.26-.16.51-.34.78-.49s.46-.24.7-.34c-.45.2.29-.1.42-.14a13.41,13.41,0,0,1,1.66-.41c.11,0,.49-.06,0,0l.49-.05c.32,0,.65,0,1,0s.64,0,1,0l.31,0c-.52-.06.06,0,.17,0,.28.06.56.12.83.2l.43.14c.11,0,.53.23.07,0,.26.13.52.25.76.4.08,0,.16.11.24.15.29.16-.28-.25.14.11a2,2,0,0,0,2.83-2.83,10.79,10.79,0,0,0-8.31-2.21c-3,.37-6.16,1.62-7.87,4.31-2.22,3.46-.68,7.94,2.4,10.31,3.6,2.76,9.14,2.49,12.87.08a7.55,7.55,0,0,0,3.63-6.07,8.48,8.48,0,0,0-2.72-6.42,2.05,2.05,0,0,0-2.83,0A2,2,0,0,0,1085.06,877.39Z"/><path class="cls-1" d="M1070.06,928.39a4.39,4.39,0,0,1,1.13,1.48,5.25,5.25,0,0,1,.42,1.68c0,.15,0,.29,0,.43,0,.56.09-.24,0,.31,0,.14-.06.27-.1.41,0,0-.24.61-.1.31a3.77,3.77,0,0,1-1,1.33,7.85,7.85,0,0,1-8.55.65,5,5,0,0,1-2.08-3,2.6,2.6,0,0,1-.06-.79c0-.12,0-.25,0-.37,0,.51,0,0,0-.07s.14-.47.22-.71c0,.08-.21.37,0,.09s.15-.3.24-.44.14-.2.2-.3c-.23.36-.12.14,0,.06s.32-.36.5-.53l.34-.29c-.34.28-.14.1,0,.05.26-.16.51-.34.78-.49s.46-.24.7-.34c-.45.2.29-.1.42-.14a13.41,13.41,0,0,1,1.66-.41c.11,0,.49-.06,0,0l.49-.05c.32,0,.65,0,1,0s.64,0,1,0l.31,0c-.52-.06.06,0,.17,0,.28.06.56.12.83.2l.43.14c.11,0,.53.23.07,0,.26.13.52.25.76.4.08,0,.16.11.24.15.29.16-.28-.25.14.11a2,2,0,0,0,2.83-2.83,10.79,10.79,0,0,0-8.31-2.21c-3,.37-6.16,1.62-7.87,4.31-2.22,3.46-.68,7.94,2.4,10.31,3.6,2.76,9.14,2.49,12.87.08a7.55,7.55,0,0,0,3.63-6.07,8.48,8.48,0,0,0-2.72-6.42,2.05,2.05,0,0,0-2.83,0A2,2,0,0,0,1070.06,928.39Z"/><path class="cls-1" d="M1084,906.73a4.08,4.08,0,0,1,1.59.78,5,5,0,0,1,.47.45s.42.51.24.26c.12.17.23.35.34.53s.24.58.13.28a4.36,4.36,0,0,1,.17.59c-.08-.39,0,.24,0,.27,0,.56.06-.14,0,.17a2.85,2.85,0,0,1-.14.5c.12-.28-.21.34-.19.32-.32.46.14-.12-.25.29a3.47,3.47,0,0,1-.86.65c-.2.12-.4.22-.61.32-.63.34.24-.07-.13.06l-.52.17-.71.16-.25,0c-.34.07.45,0-.13,0a17.76,17.76,0,0,1-3.42,0c-.53,0,.43.08-.09,0l-.3,0-.91-.19-.74-.2-.42-.14c-.11,0-.72-.3-.21-.07-.47-.21-.89-.48-1.34-.73-.29-.16,0,0,.09.08l-.3-.26-.26-.26c-.38-.37.06.19-.07-.08s-.21-.35-.3-.53c.29.53,0-.15,0-.34,0,.07,0,.48,0,.15a2.67,2.67,0,0,0,0-.4c0-.13.1-.55,0,0,0-.15,0-.3.09-.44s.1-.31.14-.46c-.14.49,0,.12,0,0s.34-.42,0-.05c.06-.06.12-.14.18-.21l.32-.29c-.35.33,0,0,.08,0a8.44,8.44,0,0,1,.83-.47c.07,0,.57-.23.14-.07l.66-.23c.34-.11.69-.2,1-.29s.78-.16,1.17-.23c.1,0,.51-.06.11,0l.73-.08a18.57,18.57,0,0,1,2.24-.05l.91.07c.48,0-.44-.1,0,0l.49.1a2.05,2.05,0,0,0,2.46-1.4,2,2,0,0,0-1.4-2.46,17,17,0,0,0-10.12,1,6.48,6.48,0,0,0-3.69,3.55,6,6,0,0,0,.2,4.77c1.33,2.67,4.6,3.85,7.36,4.25,3,.44,6.37.4,9-1.33a6.14,6.14,0,0,0,2.85-7,8.06,8.06,0,0,0-5.6-5.2C1082.56,902.21,1081.5,906.07,1084,906.73Z"/><path class="cls-1" d="M1038.66,836.54a6.26,6.26,0,0,0-.31,6.39,8.89,8.89,0,0,0,5.11,4.14c4.27,1.6,9.53.92,12.38-2.87a7.58,7.58,0,0,0,1.44-6,5.66,5.66,0,0,0-2.32-3.37c-2.16-1.6-5.24-1.9-7.83-1.73s-6.3.82-8.16,3a2.06,2.06,0,0,0,0,2.83,2,2,0,0,0,2.83,0c.11-.13.23-.25.34-.37.35-.36-.32.18.11-.09a11.38,11.38,0,0,1,1.19-.64c-.53.25.14,0,.28-.09l.69-.22a14.91,14.91,0,0,1,1.61-.35c.1,0,.62-.09.09,0l.31,0,.78-.06a14.43,14.43,0,0,1,1.74,0c.26,0,.52,0,.77.06.1,0,.62.09.08,0l.29,0a9.9,9.9,0,0,1,1.54.38c.11,0,.22.09.33.12.27.06-.43-.23,0,0,.19.1.39.19.57.3s.63.51.21.11l.5.5c-.4-.38,0,0,.09.16.27.43-.06-.33.07.17a2.88,2.88,0,0,1,0,1.43,4.55,4.55,0,0,1-2.23,2.84,7,7,0,0,1-4.23.65,7.42,7.42,0,0,1-4.43-1.94,2.8,2.8,0,0,1-.6-.87c.11.23-.07-.17-.09-.23s-.16-.71-.13-.42c0-.14,0-.29,0-.43s0-.29,0-.43c0,.18,0,.15,0-.1a1.93,1.93,0,0,1,.45-.84,2,2,0,0,0-.71-2.74A2.07,2.07,0,0,0,1038.66,836.54Z"/><path class="cls-1" d="M1056.77,860.17c-1.77,3.76-.86,8.85,3.19,10.73a11.94,11.94,0,0,0,12.58-2.25c3.09-2.92,3.87-8,1-11.36-2.08-2.48-5.58-2.89-8.58-2.42-3.2.49-6.72,2.32-8.24,5.3a2.05,2.05,0,0,0,.72,2.74,2,2,0,0,0,2.73-.72c.13-.24.28-.46.41-.69s.24-.26-.06.07l.27-.32c.16-.17.33-.34.51-.5l.33-.29c-.25.22-.1.08.07,0a10.17,10.17,0,0,1,1.46-.86l.29-.13c.47-.23-.39.13.11,0,.3-.1.59-.22.9-.31.51-.15,1-.25,1.56-.35-.52.09,0,0,.09,0l.47,0h.93c.15,0,.94.11.38,0q.36.06.72.15c.24.06.46.14.69.21.45.14-.35-.22.05,0l.44.23.29.19c.39.22-.27-.3,0,0,.16.16.33.34.5.49.34.31-.2-.35,0,0,0,.08.11.16.16.25a2,2,0,0,1,.32.69c.06.2.11.41.15.61-.06-.32,0,.11,0,.19a4.69,4.69,0,0,1,0,.53s0,.68,0,.3a4.78,4.78,0,0,1-.63,1.91,6.31,6.31,0,0,1-3,2.54,8.52,8.52,0,0,1-4.59.66l-.16,0c-.3-.06-.59-.14-.89-.22a3.63,3.63,0,0,1-1-.49c.21.15-.11-.09-.16-.13a4.29,4.29,0,0,1-.46-.49c.24.31-.12-.19-.13-.22a4.82,4.82,0,0,1-.27-.5c.17.36-.07-.21-.08-.24-.06-.19-.11-.38-.15-.56s-.08-.66,0-.24l0-.59c0-.2,0-.39,0-.59,0-.45-.07.15,0-.25,0-.19.09-.38.15-.57s.08-.25.12-.37q-.12.27,0-.06a2.06,2.06,0,0,0-.71-2.74A2,2,0,0,0,1056.77,860.17Z"/><path class="cls-2" d="M673.18,938.36c-5.15-.3-10.64,2.46-11.88,7.78l2.46-1.4L652.13,940c-3.53-1.43-7.17-3.38-10.9-4.22a7.29,7.29,0,0,0-7.68,2.49c-1.89,2.31-2.86,4.92-5.75,6.24C616.25,949.8,602,936,591.54,946c-3.94,3.76-5.65,10.15-1.55,14.43L591.4,957c-7,.25-15.48,1.41-19.51,7.92-3.1,5-2.7,12.24,2.58,15.56l-.72-2.74c-3.86,8.85-7.11,22.71,2.52,29.25,6.19,4.21,16.58,3.53,19.15-4.51l-3.92-.53c.91,10.59,2.77,25,13.88,29.9,7.7,3.39,19.63,1.18,21.41-8.34l-3.65.48c4.31,5.84,10.06,12,17.79,12.47,6.13.4,12.78-3.13,14.15-9.45l-3.34.88c9.06,10.2,26.44,10.41,35.8.52l-3.14-.4a18.64,18.64,0,0,0,35-4.65l-3.34.88c6.62,5.2,13.82,10.8,22.53,11.46,6.88.51,14.38-2.44,17.52-8.87l-3.14.4c11.91,12.67,35.72,9.21,43.42-6.43h-3.45c5.44,7.05,11.82,15.32,21.14,17.07,7.48,1.4,15.71-1.39,18.77-8.77l-3.34.89c12,11.11,33.15,8.29,41.81-5.63l-3.14.41c9.54,12.11,30.42,10.67,38.61-2.18l-3.14.4a26.15,26.15,0,0,0,45.67-7.84l-3.34.88a23.93,23.93,0,0,0,41.76-8.41l-2.94,1.2c8.56,4.69,18.28,9.87,28.39,7.92,7.81-1.51,14.84-7.36,15.53-15.59l-3.41,1.41c9.32,9.87,27.26,8.39,34.92-2.8,5.11-7.46,4.71-17.44,4.5-26.07s-2-16.7-8.83-22.43a25.59,25.59,0,0,0-23.2-5.4l2.25.92c-4.41-9.71-12-22.95-24.32-22.92-3.52,0-6.88,2-10.38,1.47-3.8-.57-7.4-2.83-10.81-4.47-6-2.88-12.63-5.61-19.41-4.08-6.1,1.38-11.51,5.92-11.83,12.46l2-2c-8.86-.51-16.41-6.57-25.35-6.61-6.45,0-13.47,2.82-15.29,9.56l2.46-1.4c-7.62-2.65-16.42-5.51-24.26-2-6,2.7-10.41,8.74-9.18,15.49l2.94-2.26c-7.65-4.5-15.76-9.11-24.82-9.71-4.77-.32-9.29,1.19-14,1.36s-8.78-1.71-13.06-3.11c-7.08-2.32-14.27-2-20.81,1.77a25,25,0,0,0-12.19,16.19l2.94-1.19c-6.12-4.1-13.16-8.65-20.89-7.73-5.86.7-11.62,4.45-12.79,10.53l3.92.53c.71-5.59-5.46-8.44-9.86-9.78a59.62,59.62,0,0,0-18.65-2.27A20.06,20.06,0,0,0,744,938c-4.47,1.79-7.71,4.24-12.76,3-4.73-1.19-8.91-3.84-13.46-5.51a25.59,25.59,0,0,0-15-.88,47.58,47.58,0,0,0-7.68,2.78c-2.67,1.16-5.47,2.13-8,3.45-2,1-3.26,1.63-5.59.9-2.75-.85-4.88-2.83-7.82-3.26-2.51-.37-3.6,3.48-1.06,3.86,4.41.64,7.44,4.15,12.19,3.67a10,10,0,0,0,3.79-1.44c2.27-1.22,4.76-2.06,7.12-3.09,4.78-2.09,9.61-4,14.94-3.58,4.89.39,9.2,2.85,13.59,4.79,4,1.74,8.32,3.35,12.7,2.56,3.84-.69,6.93-3.38,10.71-4.25,4.6-1.06,10.34-.31,15,.43,3.54.57,13.77,1.94,13.09,7.3-.28,2.23,3.5,2.74,3.93.53,1-5,6.06-7.71,10.88-7.72,6.28,0,11.92,4,16.93,7.31a2,2,0,0,0,2.94-1.19A21.23,21.23,0,0,1,822,933.17a20.45,20.45,0,0,1,9.25-2.17c3.95,0,7.64,1.57,11.32,2.83A27.24,27.24,0,0,0,854,935.6c4.12-.38,8.1-1.51,12.27-1.3,8.45.44,16.11,5,23.22,9.2a2,2,0,0,0,2.94-2.26c-1-5.47,4-10.14,8.86-11.49,6.54-1.8,13.53.79,19.66,2.93a2,2,0,0,0,2.46-1.4c1.62-6,9.29-7.33,14.61-6.34,7.65,1.42,14.27,5.88,22.17,6.33a2,2,0,0,0,2-2c.37-7.6,9.9-9.82,15.94-8.44a53.07,53.07,0,0,1,11.18,4.44c3.52,1.71,7.25,3.8,11.22,4.13s7.43-1.86,11.34-1.46a15.07,15.07,0,0,1,8,3.72c5.31,4.48,8.78,10.94,11.61,17.17a2,2,0,0,0,2.26.92,21.27,21.27,0,0,1,17.64,3.12c6.27,4.23,8.8,10.78,9.23,18.13.45,7.6,1,16.49-2.12,23.63a17.68,17.68,0,0,1-13,10.15c-6.22,1.29-13-.34-17.37-5-1.28-1.36-3.28-.22-3.42,1.41-.58,6.9-7.65,11.32-14,11.94-8.54.82-16.66-3.77-23.87-7.73a2,2,0,0,0-2.94,1.2,20.54,20.54,0,0,1-14.82,14c-7.55,1.74-15.46-1.46-20.25-7.38-1-1.26-2.9-.4-3.34.88a22.84,22.84,0,0,1-17,14.82c-8.32,1.6-16.91-2.14-22-8.74-.83-1.08-2.53-.57-3.14.4-6.94,10.89-24.46,11.37-32.33,1.37-.83-1.05-2.53-.58-3.14.41-7.27,11.68-25.42,14.15-35.53,4.81a2,2,0,0,0-3.35.88c-2.42,5.85-10.16,7.18-15.63,5.54-7.34-2.2-12.49-9-17-14.8-.83-1.08-2.71-1.5-3.45,0-6.58,13.37-26.9,16.52-37.14,5.63a2,2,0,0,0-3.14.4c-2.65,5.42-9,7.53-14.72,6.83-7.28-.9-13.48-5.85-19-10.23-1.09-.85-3-.74-3.35.89a14.65,14.65,0,0,1-27.66,3.69,2,2,0,0,0-3.14-.41c-7.94,8.39-22.49,8.09-30.14-.52a2,2,0,0,0-3.35.89c-1,4.8-6.36,7.13-10.94,6.44-5.89-.89-10.34-5.88-13.69-10.42-.91-1.24-3.31-1.39-3.65.48-1.4,7.49-11.38,8.4-17,5.23-8.52-4.79-9.69-17.08-10.44-25.73a2,2,0,0,0-3.93-.53c-1.82,5.66-9.94,4.82-13.7,1.8-6.84-5.49-3.57-16.81-.66-23.46a2.08,2.08,0,0,0-.72-2.74c-3.79-2.37-3-8.08-.42-11.08,3.61-4.25,10.17-4.76,15.33-4.94a2,2,0,0,0,1.42-3.41c-2-2.07-1.31-5,.16-7.13,2-3,5.07-4.1,8.53-4.14,7.5-.08,14.43,3.86,22,3.23a15.92,15.92,0,0,0,8.24-2.77,12.62,12.62,0,0,0,2.92-3c.85-1.21,1.51-3,2.82-3.81,2-1.18,4.55.26,6.42,1l6.26,2.55,12.51,5.09a2,2,0,0,0,2.46-1.4c.86-3.65,4.62-5,8-4.84C675.75,942.51,675.75,938.51,673.18,938.36Z"/><path class="cls-1" d="M662.18,945.36c-5.15-.3-10.64,2.46-11.88,7.78l2.46-1.4L641.13,947c-3.53-1.43-7.17-3.38-10.9-4.22a7.29,7.29,0,0,0-7.68,2.49c-1.89,2.31-2.86,4.92-5.75,6.24C605.25,956.8,591,943,580.54,953c-3.94,3.76-5.65,10.15-1.55,14.43L580.4,964c-7,.25-15.48,1.41-19.51,7.92-3.1,5-2.7,12.24,2.58,15.56l-.72-2.74c-3.86,8.85-7.11,22.71,2.52,29.25,6.19,4.21,16.58,3.53,19.15-4.51l-3.92-.53c.91,10.59,2.77,25,13.88,29.9,7.7,3.39,19.63,1.18,21.41-8.34l-3.65.48c4.31,5.84,10.06,12,17.79,12.47,6.13.4,12.78-3.13,14.15-9.45l-3.34.88c9.06,10.2,26.44,10.41,35.8.52l-3.14-.4a18.64,18.64,0,0,0,35-4.65l-3.34.88c6.62,5.2,13.82,10.8,22.53,11.46,6.88.51,14.38-2.44,17.52-8.87l-3.14.4c11.91,12.67,35.72,9.21,43.42-6.43h-3.45c5.44,7.05,11.82,15.32,21.14,17.07,7.48,1.4,15.71-1.39,18.77-8.77l-3.34.89c12,11.11,33.15,8.29,41.81-5.63l-3.14.41c9.54,12.11,30.42,10.67,38.61-2.18l-3.14.4a26.15,26.15,0,0,0,45.67-7.84l-3.34.88a23.93,23.93,0,0,0,41.76-8.41l-2.94,1.2c8.56,4.69,18.28,9.87,28.39,7.92,7.81-1.51,14.84-7.36,15.53-15.59l-3.41,1.41c9.32,9.87,27.26,8.39,34.92-2.8,5.11-7.46,4.71-17.44,4.5-26.07s-2-16.7-8.83-22.43a25.59,25.59,0,0,0-23.2-5.4l2.25.92c-4.41-9.71-12-22.95-24.32-22.92-3.52,0-6.88,2-10.38,1.47-3.8-.57-7.4-2.83-10.81-4.47-6-2.88-12.63-5.61-19.41-4.08-6.1,1.38-11.51,5.92-11.83,12.46l2-2c-8.86-.51-16.41-6.57-25.35-6.61-6.45,0-13.47,2.82-15.29,9.56l2.46-1.4c-7.62-2.65-16.42-5.51-24.26-2-6,2.7-10.41,8.74-9.18,15.49l2.94-2.26c-7.65-4.5-15.76-9.11-24.82-9.71-4.77-.32-9.29,1.19-14,1.36s-8.78-1.71-13.06-3.11c-7.08-2.32-14.27-2-20.81,1.77a25,25,0,0,0-12.19,16.19l2.94-1.19c-6.12-4.1-13.16-8.65-20.89-7.73-5.86.7-11.62,4.45-12.79,10.53l3.92.53c.71-5.59-5.46-8.44-9.86-9.78a59.62,59.62,0,0,0-18.65-2.27A20.06,20.06,0,0,0,733,945c-4.47,1.79-7.71,4.24-12.76,3-4.73-1.19-8.91-3.84-13.46-5.51a25.59,25.59,0,0,0-15-.88,47.58,47.58,0,0,0-7.68,2.78c-2.67,1.16-5.47,2.13-8,3.45-2,1-3.26,1.63-5.59.9-2.75-.85-4.88-2.83-7.82-3.26-2.51-.37-3.6,3.48-1.06,3.86,4.41.64,7.44,4.15,12.19,3.67a10,10,0,0,0,3.79-1.44c2.27-1.22,4.76-2.06,7.12-3.09,4.78-2.09,9.61-4,14.94-3.58,4.89.39,9.2,2.85,13.59,4.79,4,1.74,8.32,3.35,12.7,2.56,3.84-.69,6.93-3.38,10.71-4.25,4.6-1.06,10.34-.31,15,.43,3.54.57,13.77,1.94,13.09,7.3-.28,2.23,3.5,2.74,3.93.53,1-5,6.06-7.71,10.88-7.72,6.28,0,11.92,4,16.93,7.31a2,2,0,0,0,2.94-1.19A21.23,21.23,0,0,1,811,940.17a20.45,20.45,0,0,1,9.25-2.17c3.95,0,7.64,1.57,11.32,2.83A27.24,27.24,0,0,0,843,942.6c4.12-.38,8.1-1.51,12.27-1.3,8.45.44,16.11,5,23.22,9.2a2,2,0,0,0,2.94-2.26c-1-5.47,4-10.14,8.86-11.49,6.54-1.8,13.53.79,19.66,2.93a2,2,0,0,0,2.46-1.4c1.62-6,9.29-7.33,14.61-6.34,7.65,1.42,14.27,5.88,22.17,6.33a2,2,0,0,0,2-2c.37-7.6,9.9-9.82,15.94-8.44a53.07,53.07,0,0,1,11.18,4.44c3.52,1.71,7.25,3.8,11.22,4.13s7.43-1.86,11.34-1.46a15.07,15.07,0,0,1,8,3.72c5.31,4.48,8.78,10.94,11.61,17.17a2,2,0,0,0,2.26.92,21.27,21.27,0,0,1,17.64,3.12c6.27,4.23,8.8,10.78,9.23,18.13.45,7.6,1,16.49-2.12,23.63a17.68,17.68,0,0,1-13,10.15c-6.22,1.29-13-.34-17.37-5-1.28-1.36-3.28-.22-3.42,1.41-.58,6.9-7.65,11.32-14,11.94-8.54.82-16.66-3.77-23.87-7.73a2,2,0,0,0-2.94,1.2,20.54,20.54,0,0,1-14.82,14c-7.55,1.74-15.46-1.46-20.25-7.38-1-1.26-2.9-.4-3.34.88a22.84,22.84,0,0,1-17,14.82c-8.32,1.6-16.91-2.14-22-8.74-.83-1.08-2.53-.57-3.14.4-6.94,10.89-24.46,11.37-32.33,1.37-.83-1-2.53-.58-3.14.41-7.27,11.68-25.42,14.15-35.53,4.81a2,2,0,0,0-3.35.88c-2.42,5.85-10.16,7.18-15.63,5.54-7.34-2.2-12.49-9-17-14.8-.83-1.08-2.71-1.5-3.45,0-6.58,13.37-26.9,16.52-37.14,5.63a2,2,0,0,0-3.14.4c-2.65,5.42-9,7.53-14.72,6.83-7.28-.9-13.48-5.85-19-10.23-1.09-.85-3-.74-3.35.89a14.65,14.65,0,0,1-27.66,3.69,2,2,0,0,0-3.14-.41c-7.94,8.39-22.49,8.09-30.14-.52a2,2,0,0,0-3.35.89c-1,4.8-6.36,7.13-10.94,6.44-5.89-.89-10.34-5.88-13.69-10.42-.91-1.24-3.31-1.39-3.65.48-1.4,7.49-11.38,8.4-17,5.23-8.52-4.79-9.69-17.08-10.44-25.73a2,2,0,0,0-3.93-.53c-1.82,5.66-9.94,4.82-13.7,1.8-6.84-5.49-3.57-16.81-.66-23.46a2.08,2.08,0,0,0-.72-2.74c-3.79-2.37-3-8.08-.42-11.08,3.61-4.25,10.17-4.76,15.33-4.94a2,2,0,0,0,1.42-3.41c-2-2.07-1.31-5,.16-7.13,2-3,5.07-4.1,8.53-4.14,7.5-.08,14.43,3.86,22,3.23a15.92,15.92,0,0,0,8.24-2.77,12.62,12.62,0,0,0,2.92-3c.85-1.21,1.51-3,2.82-3.81,2-1.18,4.55.26,6.42,1l6.26,2.55,12.51,5.09a2,2,0,0,0,2.46-1.4c.86-3.65,4.62-5,8-4.84C664.75,949.51,664.75,945.51,662.18,945.36Z"/><path class="cls-2" d="M636.67,975.68a20.1,20.1,0,0,0,4.23,15.89,2,2,0,0,0,3.14-.4l5-11.74-3.66-.48a30.54,30.54,0,0,0,2.62,6.44c1.09,2,2.68,5.09,5.45,4.35,2.39-.64,3.24-3.32,3.72-5.46a22,22,0,0,0,.38-7.58,2.06,2.06,0,0,0-2-2,2,2,0,0,0-2,2,19.45,19.45,0,0,1,0,5.28,18.45,18.45,0,0,1-.65,2.76,2.78,2.78,0,0,1-.33.84s-.17.3-.1.17c-.13.27-.16,0,0,.12-.07,0,.72.14.47.08.54.13.21.13.1-.09s-.45-.66-.65-1a25,25,0,0,1-3.11-7,2,2,0,0,0-1.66-1.43,1.94,1.94,0,0,0-2,.95l-5,11.74,3.14-.41a15.68,15.68,0,0,1-3.2-12,2.06,2.06,0,0,0-1.4-2.46,2,2,0,0,0-2.46,1.4Z"/><path class="cls-2" d="M659.71,972.17a65.69,65.69,0,0,0,.72,16c.34,2,3.37,1.78,3.86,0l1.8-6.47c.13-.46.25-.91.4-1.36a1.69,1.69,0,0,1,.08-.22c.08-.17.16-.33.25-.49,0,0,.33-.52.15-.28a2.9,2.9,0,0,1,.34-.36l0,0,.16-.09c-.06,0-.55.23-.11.1a.23.23,0,0,1-.24-.06c-.09-.09.25.23.29.28-.11-.13.22.31.22.32.11.17.2.34.3.51a26,26,0,0,1,1.25,2.54,28.29,28.29,0,0,1,1.76,6.13,2,2,0,1,0,3.86-1.06,31.22,31.22,0,0,0-2.43-7.68c-1-2.12-2.31-4.91-5-5-2.5-.07-4,2.16-4.7,4.25-.89,2.54-1.47,5.23-2.2,7.83h3.86a61.5,61.5,0,0,1-.58-15,2,2,0,0,0-2-2,2,2,0,0,0-2,2Z"/><path class="cls-2" d="M673.06,979.78a18.76,18.76,0,0,0,2.57,6.44c1,1.63,2.93,4.58,5.12,4.62,2.64,0,3.49-3.53,4.21-5.5a41.61,41.61,0,0,0,2-7.77L683,977a92.72,92.72,0,0,1,.07,15.72c-.11,1.25-.24,2.5-.39,3.74-.07.6-.05,2.25-.42,2.66-.21.24-1.06.21-1.34.23-.61.05-1.22.06-1.83.05a16.83,16.83,0,0,1-4-.61c-2.49-.67-3.55,3.19-1.06,3.86a18.24,18.24,0,0,0,9.07.4c3.24-.87,3.3-4.3,3.63-7.05a92.12,92.12,0,0,0,.26-19,2,2,0,0,0-1.74-2,2,2,0,0,0-2.19,1.43,42,42,0,0,1-1.28,5.65c-.26.86-.55,1.7-.86,2.54-.15.39-.31.79-.47,1.17a7.19,7.19,0,0,0-.45,1.22l1-.27c.43.22.45.18.05-.14a5.33,5.33,0,0,1-.4-.42c-.27-.28-.53-.57-.78-.88a14.38,14.38,0,0,1-1.33-2,15.24,15.24,0,0,1-1.66-4.64c-.5-2.52-4.36-1.46-3.86,1.06Z"/><path class="cls-1" d="M696.83,978.2a99.56,99.56,0,0,0,.62,12.57,2,2,0,0,0,2,2c1,0,2.12-.89,2-2a99.56,99.56,0,0,1-.62-12.57,2,2,0,0,0-4,0Z"/><path class="cls-1" d="M698.85,973.66c2.57,0,2.57-4,0-4s-2.58,4,0,4Z"/><path class="cls-1" d="M709.4,976c-3.85.16-6.54,5-4.24,8.27a7.63,7.63,0,0,0,2.56,2.09,6.74,6.74,0,0,1,1.95,1.59,6.32,6.32,0,0,1,1.13,2.22c.06.22.11.44.15.67a3,3,0,0,0,0,.48c-.11,0,.26-.46.29-.52s.24,0,0,0c0,0-.41.08-.24.06-.31,0-1.23.09-1.76.1a5.72,5.72,0,0,1-1.6-.15l-.36-.11c-.31-.12.18.1-.11-.06l-.28-.16s-.26-.21-.11-.08a2.2,2.2,0,0,1-.31-.3c.13.15,0,0-.06-.1l-.08-.14c.09.14-.07-.38,0,0a2.06,2.06,0,0,0-2-2,2,2,0,0,0-2,2,5.74,5.74,0,0,0,5.06,5,14.64,14.64,0,0,0,4.18,0,3.63,3.63,0,0,0,3.21-2.38,6,6,0,0,0-.27-3.71,10.48,10.48,0,0,0-1.71-3.15,10,10,0,0,0-2.77-2.45c-.43-.26-.9-.48-1.3-.78a2,2,0,0,1-.33-.33c.29.35-.11-.38,0,.07-.06-.18-.11-.66-.09-.23a4.42,4.42,0,0,1,0-.63c0,.44.06-.1.1-.26s.11-.29,0-.06,0-.09.07-.13a2.61,2.61,0,0,0,.17-.28c.13-.24-.21.22,0,0s.48-.45.31-.33.52-.23.24-.12,0,0,0,0c.43-.16-.36,0,.11,0a2,2,0,0,0,2-2,2,2,0,0,0-2-2Z"/><path class="cls-2" d="M725.63,973.69a52.69,52.69,0,0,0,1.3,18.17c.63,2.49,4.48,1.44,3.86-1.07a49.46,49.46,0,0,1-1.16-17.1,2,2,0,0,0-2-2,2,2,0,0,0-2,2Z"/><path class="cls-2" d="M721.48,983.72H731a2,2,0,0,0,0-4h-9.56a2,2,0,0,0,0,4Z"/><path class="cls-2" d="M734.54,974.18l.13,15.74a2,2,0,0,0,4,0,5.69,5.69,0,0,1,3.86-5.26l-2.26-.92a16,16,0,0,1,1.85,6,2.05,2.05,0,0,0,2,2,2,2,0,0,0,2-2,21.31,21.31,0,0,0-2.39-8,2,2,0,0,0-2.26-.92,9.71,9.71,0,0,0-6.8,9.12h4l-.13-15.74c0-2.57-4-2.58-4,0Z"/><path class="cls-2" d="M749.3,986.38a10.36,10.36,0,0,0,4.19-2.63,7.79,7.79,0,0,0,2.4-4.93c0-3.71-4.76-4.25-7.19-2.53A9.25,9.25,0,0,0,745,984a8.71,8.71,0,0,0,4.33,7.35,9.38,9.38,0,0,0,9.57-.12,2,2,0,1,0-2-3.45,5.38,5.38,0,0,1-.66.38s-.47.21-.17.09-.17.06-.19.06a5.46,5.46,0,0,1-.66.19l-.37.08c-.49.1.43,0-.07,0s-1,0-1.45,0c-.3,0,.47.1,0,0l-.3-.06a9,9,0,0,1-.89-.25l-.28-.1c.42.15.09,0,0,0s-.41-.21-.6-.33-.74-.51-.35-.2a6.53,6.53,0,0,1-.62-.56c-.11-.11-.5-.6-.23-.23-.15-.21-.29-.42-.42-.64s-.37-.84-.19-.35c-.09-.24-.17-.47-.24-.72a2.71,2.71,0,0,1-.15-.74c0,.38,0,.22,0,.07l0-.45c0-.23,0-.46,0-.69s0-.26,0-.38c0,.51,0,0,0-.08.1-.48.27-.92.41-1.39.09-.29-.22.41,0,0,0-.09.09-.19.14-.27a7.77,7.77,0,0,1,.48-.78c.07-.1.24-.24,0,0,.08-.09.16-.19.25-.28s.32-.32.49-.48c.34-.34-.31.17.05-.05l.22-.13.23-.12c-.27.11-.31.12-.11.05l.2-.07.32-.08c.36-.1-.12,0-.14,0s.62,0,.64,0-.43-.1-.16,0a1.54,1.54,0,0,0,.33.1s-.48-.19-.17-.06-.3-.28-.07,0l-.18-.24c.1.19.08.13,0-.17l0,.12c0-.27,0-.27,0,0,0,0,.16-.47-.06.09s.1-.13-.1.23-.32.61-.52.9l-.19.28c.24-.34-.06.06-.12.13a8.5,8.5,0,0,1-.73.74,2.75,2.75,0,0,1-.26.22c.33-.27-.14.1-.22.16q-.39.26-.81.48l-.31.15h0l-.33.12a2,2,0,0,0,1.07,3.85Z"/><path class="cls-1" d="M773.7,976.07a4.44,4.44,0,0,0-6,2.38,11.73,11.73,0,0,0-.82,3,21,21,0,0,0-.4,3.44,7.24,7.24,0,0,0,2.27,5.67,5.3,5.3,0,0,0,6,.88,2,2,0,0,0-2-3.46c-.46.25.39-.14-.09,0s.23,0,0,0a1.61,1.61,0,0,0-.38,0c.37,0,.18,0-.06,0l-.2-.05c.27.09-.13-.06-.19-.09s-.27-.17-.4-.26c.22.15.12.1,0,0s-.19-.19-.29-.29c-.34-.34.17.31-.08-.1l-.21-.34c-.07-.14-.12-.32,0-.07-.06-.2-.13-.39-.18-.59,0,0-.11-.55-.07-.33s0-.3,0-.35c0-.2,0-.41,0-.61a8.94,8.94,0,0,1,.06-1s.07-.64,0-.3c0-.17,0-.35.08-.52.11-.69.22-1.4.4-2.08,0-.19.1-.37.16-.56s0,0,.06-.15.16-.28.25-.41c-.22.31.09-.07.14-.12-.2.19-.07.09.07,0s-.29.13.05,0-.35,0,.1,0l-.21,0c.21.06.2,0,0,0a2,2,0,0,0,2-3.46Z"/><path class="cls-1" d="M781.64,976.69a9,9,0,0,1-.52.84l-.19.27c-.32.45.26-.3-.09.12l-1.16,1.41a11.45,11.45,0,0,0-2.16,3.57c-.91,2.61-.1,5.76,2.59,6.89a6.3,6.3,0,0,0,6.71-1.52c1.92-2,2.38-4.81,2.55-7.43a7.19,7.19,0,0,0-.68-3.79,3.23,3.23,0,0,0-3.86-1.76,2,2,0,0,0-1.39,2.46,2,2,0,0,0,2.46,1.39s.17,0,.2-.06l-.33,0c.15,0,.12,0-.08,0s-.63-.23-.44-.13-.06.09-.14-.12l.14.15s-.25-.41-.12-.14a1.28,1.28,0,0,0,.11.2c.2.34-.13-.43,0,0,0,.16.1.31.14.48a1.29,1.29,0,0,0,0,.24c-.13-.12,0-.45,0-.1a10.6,10.6,0,0,1,0,1.26,12.45,12.45,0,0,1-.12,1.37c.09-.5,0,.23-.07.35s-.1.47-.16.71-.12.46-.2.68a2.35,2.35,0,0,1-.14.37s.19-.37,0,0c-.09.18-.19.37-.3.55s-.11.18-.17.27c-.26.41.23-.23-.05.07a4.17,4.17,0,0,1-.36.37l-.09.08c-.13.11-.13.11,0,0l.1-.08-.16.1-.51.29c-.27.15.1-.1.12,0l-.36.12-.5.12c-.36.08.13,0,.15,0a1.06,1.06,0,0,0-.24,0c-.11,0-.71-.05-.35,0s0,0,0,0a3.37,3.37,0,0,0-.34-.1c-.23,0,.33.21.15.06a2.15,2.15,0,0,0-.26-.14c-.25-.13.12,0,.11.1l-.18-.17s-.15-.14-.16-.19c.09.29.13.2.06,0a1.46,1.46,0,0,1-.13-.25c.1.26.12.28.05.08l0-.14a2,2,0,0,1-.06-.28l0,.25c0-.07,0-.14,0-.21a5.83,5.83,0,0,1,0-.59c0-.29-.13.48,0,0,0-.1.05-.2.07-.3s.11-.61.24-.72-.2.43,0,.07c.07-.14.13-.27.21-.4s.28-.45.43-.67l.19-.27c.25-.34-.2.24.1-.11l.53-.64a19.39,19.39,0,0,0,2.17-2.94,2,2,0,1,0-3.46-2Z"/><path class="cls-1" d="M792.43,978.71v9.92h4a47,47,0,0,1,0-5.57c0-.44.07-.88.11-1.32,0-.24,0-.49.08-.73,0,.29,0-.07,0-.17s.07-.34.11-.51.16-.51.09-.33.14-.25.16-.29l.07-.11c-.07.1,0,.07.11-.09-.31.1.23,0,0,0s.2,0,.25-.06c-.39.11-.07,0,.06,0s-.29-.11.08,0c0,0,.58.21.2,0a3.23,3.23,0,0,1,.41.22c.11.07.31.25.11.07l.32.32c.1.1.08.09,0,0l.13.19c.1.2.23.39.31.6-.08-.21.06.21.08.26s.1.36.14.55a14.12,14.12,0,0,1,.26,2.21,2,2,0,0,0,1.73,2,2,2,0,0,0,2.2-1.43,14.15,14.15,0,0,1,.32-1.82c0-.11.22-.69.18-.59,0-.1.43-.67.27-.49a3.83,3.83,0,0,1,.29-.28c-.13.1-.1.08.09,0l.18-.09c-.17.07-.14.07.09,0-.21,0-.19,0,0,0-.2,0-.18,0,0,0-.2-.09-.2-.09,0,0-.17-.14-.17-.14,0,0s.16.17,0,0a2.49,2.49,0,0,1,.19.3c.06.11.12.22.17.33-.08-.19-.08-.17,0,0a6.57,6.57,0,0,1,.22,1.07,12.15,12.15,0,0,0,.88,4.22,2,2,0,0,0,2.73.72,2,2,0,0,0,.72-2.74,5.92,5.92,0,0,1-.29-1.72,13.18,13.18,0,0,0-.35-2.43,5.2,5.2,0,0,0-3.07-3.64,4.56,4.56,0,0,0-4.72,1.28,8.09,8.09,0,0,0-1.87,4.73l3.93.53c-.15-2.31-.42-4.7-2-6.52a5.33,5.33,0,0,0-5.63-1.63c-2.44.92-3,3.36-3.29,5.7a44.9,44.9,0,0,0-.17,7.15,2.05,2.05,0,0,0,2,2,2,2,0,0,0,2-2v-9.92a2,2,0,0,0-4,0Z"/><path class="cls-1" d="M810,978.23a32.35,32.35,0,0,0,1.1,10.5A2,2,0,0,0,813,990.2a2,2,0,0,0,1.93-1.47l.82-5.74a11.9,11.9,0,0,1,.45-2.29,2.43,2.43,0,0,1,.19-.42c.09-.12.42-.31.26-.25.09,0,.18,0,.44.06a2.27,2.27,0,0,1,.49.25,2.94,2.94,0,0,1,1,1.2c.72,1.57.8,3.38,1.44,5a2,2,0,0,0,3.93-.54,10.11,10.11,0,0,1,1.16-4.59c.6-.92,1.8-1.62,2.64-1.24.33.15.43.3.64.68,0,.08.13.28,0,.09.05.13.09.27.13.4s.07.28.1.42c.13.66,0-.15,0,.24a9.53,9.53,0,0,1-.41,3.72c-.69,2.48,3.17,3.54,3.86,1.06,1-3.67,1-9.12-3.43-10.49a6.26,6.26,0,0,0-6.46,2.26c-1.73,2.11-2.06,4.83-2.32,7.45l3.93-.53c-.84-2.09-.89-4.5-2.13-6.44a6.07,6.07,0,0,0-5.22-3c-2.4.15-3.87,2.16-4.35,4.35-.52,2.38-.73,4.87-1.08,7.28h3.86a28.65,28.65,0,0,1-1-9.44,2,2,0,0,0-4,0Z"/><path class="cls-1" d="M836,978.23a31.72,31.72,0,0,0,.63,7.21c.44,2.13,1.11,4.58,3.21,5.66a6.15,6.15,0,0,0,5.7-.24,7.26,7.26,0,0,0,3.56-4.7c.64-2.53.19-5.14-.28-7.66a2,2,0,0,0-2.46-1.4,2.06,2.06,0,0,0-1.4,2.46c.08.42.16.83.23,1.25,0,.21.06.42.1.63s0-.3,0,0c0,.16,0,.31.05.46a15,15,0,0,1,0,2.6c0,.23,0-.07,0-.1l-.06.35q-.06.3-.15.6c0,.19-.12.39-.19.58.13-.35-.08.14-.14.24s-.17.26-.25.39.27-.25.07-.09l-.13.15a4.44,4.44,0,0,1-.38.37l-.15.13c-.16.17.39-.26,0,0-.07,0-.75.52-.8.46s.39-.14.17-.08l-.25.09-.49.13c-.48.12.31,0,0,0h-.44c-.47,0,.31.09,0,0-.07,0-.4-.16-.46-.13.13-.07.37.2.14,0l-.21-.12c-.3-.15.25.26,0,0-.08-.09-.39-.5-.19-.17a6.65,6.65,0,0,1-.33-.58s-.12-.29,0-.08,0-.1-.05-.16-.12-.38-.17-.57c-.13-.47-.24-.94-.34-1.41s-.21-1.11-.3-1.67c0,0-.05-.34,0-.14s0-.28,0-.33c0-.26-.06-.53-.08-.79a29.87,29.87,0,0,1-.09-3.41,2,2,0,0,0-2-2,2,2,0,0,0-2,2Z"/><path class="cls-1" d="M851,968.36l3.18,20.23a2,2,0,0,0,2.46,1.39,2,2,0,0,0,1.4-2.46l-3.19-20.22a2,2,0,0,0-2.46-1.4,2,2,0,0,0-1.39,2.46Z"/><path class="cls-1" d="M849,980.21a36.34,36.34,0,0,0,13.24-1.33A2,2,0,1,0,861.2,975,32.64,32.64,0,0,1,849,976.21a2,2,0,0,0-2,2,2.06,2.06,0,0,0,2,2Z"/><path class="cls-1" d="M864.12,983.1a8.38,8.38,0,0,0,8.26-3.59,6.55,6.55,0,0,0,1.17-4.75c-.43-2.1-2.47-2.8-4.39-2.61a9.31,9.31,0,0,0-7.28,5,8.29,8.29,0,0,0,.61,8.62,9.21,9.21,0,0,0,9.1,3.8,2,2,0,0,0,1.4-2.46,2.05,2.05,0,0,0-2.46-1.4c-.4.07-.09,0,0,0l-.36,0c-.25,0-.49,0-.73,0-.08,0-.38-.06,0,0l-.36-.07a6.13,6.13,0,0,1-.7-.2l-.34-.12c.33.13,0,0,0,0l-.64-.34c-.21-.13-.41-.27-.61-.41.27.2-.2-.19-.29-.28s-.34-.35-.5-.53-.09-.09,0,0l-.21-.3c-.13-.2-.26-.41-.37-.62l-.16-.33c.09.19,0,.14,0,0s-.15-.46-.2-.7,0-.23-.07-.35c.06.37,0,.07,0,0,0-.26,0-.5,0-.76,0-.07,0-.39,0,0a3.4,3.4,0,0,1,.09-.46,4.91,4.91,0,0,1,.17-.63,3.62,3.62,0,0,1,.13-.35c-.13.31,0,0,0,0,.12-.22.23-.44.37-.65a3.28,3.28,0,0,1,.2-.31c.2-.29,0,0,.1-.12a7.79,7.79,0,0,1,1-1c-.25.21.29-.19.36-.24a7.58,7.58,0,0,1,.74-.4c.29-.14-.26.09,0,0l.27-.09c.24-.08.48-.13.72-.19s.12,0,0,0l.37,0h.57c-.16,0-.16,0,0,0l.1,0a.47.47,0,0,1-.28-.2s-.3-.4-.25-.38,0-.08,0,.11c0,.39,0,.13,0,0a5.65,5.65,0,0,1-.17.71l-.12.35c.1-.27,0,0-.07.11a7.31,7.31,0,0,1-.43.7c.19-.27,0,0,0,0s-.2.23-.31.34-.65.56-.37.35c-.22.16-.46.31-.7.45l-.33.17c-.19.1.23-.06-.11.05a6.73,6.73,0,0,1-.8.23c-.05,0-.43.07-.18,0s-.23,0-.28,0h-.37c-.09,0-.62-.07-.2,0a2.06,2.06,0,0,0-2.46,1.4,2,2,0,0,0,1.39,2.46Z"/><path class="cls-2" d="M893.88,975.52a5.46,5.46,0,0,0-5.8.37,6.18,6.18,0,0,0-2.58,5.71,8.64,8.64,0,0,0,1,3.31,19.11,19.11,0,0,0,2,2.6c.14.18,0,.06,0,0l.19.26c.14.2.26.41.38.62s0-.09.1.23c.16.49,0,0,0,0v.18l0-.18s-.09.3,0,.12.16-.09,0-.06-.07.1,0,0a1.92,1.92,0,0,1-.26.17,6.25,6.25,0,0,1-.63.33c.29-.13-.36.1-.44.12s-.44.11-.67.15h0l-.49,0a7,7,0,0,1-.79,0c-.23,0,0,0,.05,0l-.39-.07c-.25-.06-.51-.13-.76-.21l-.27-.09c-.32-.12.37.21-.16-.07-.2-.11-.4-.22-.59-.34l-.33-.22c-.28-.2.34.29-.13-.11a2.05,2.05,0,0,0-2.83,0,2,2,0,0,0,0,2.83,9.18,9.18,0,0,0,5.9,2.29c2.1,0,4.6-.69,5.91-2.43,1.69-2.26.29-4.71-1.24-6.58l-.48-.58s-.36-.43-.21-.24a7.54,7.54,0,0,1-.74-1.23,8,8,0,0,1-.3-1.18c0,.31,0-.32,0-.41s0-.2,0-.31c0,.28,0-.07,0-.18s.24-.64.1-.37c0-.1.41-.61.17-.32a4.53,4.53,0,0,1,.49-.49c-.27.23.21-.11.33-.18s.28-.14.07,0,.25-.07.25-.07a1.83,1.83,0,0,0,.25-.06c.19-.09-.23,0,0,0a.91.91,0,0,0,.33,0c.19,0-.2-.09,0,0a1.09,1.09,0,0,0,.24.07c.47.1-.27-.16.15.07a2,2,0,0,0,2-3.45Z"/><path class="cls-1" d="M925.7,974.86a10.24,10.24,0,0,0-2.69,7.31c0,2.37.31,5.21,1.69,7.22a4.75,4.75,0,0,0,3.54,2.25,4.36,4.36,0,0,0,3.56-1.56,11.79,11.79,0,0,0,2-3.82,15.52,15.52,0,0,0,1-4.51,7.82,7.82,0,0,0-4.66-7.83,2,2,0,0,0-2.46,1.4,2.05,2.05,0,0,0,1.4,2.46c-.28-.12.23.16.3.2s0,0,0,0l.22.19a5.45,5.45,0,0,1,.46.5c-.17-.22.14.25.19.33s.29.6.18.34a4.77,4.77,0,0,1,.2.57c.06.22.11.45.15.68s0,0,0,0c0,.2,0,.39,0,.59a9.53,9.53,0,0,1-.53,3.1c-.17.54-.36,1.06-.56,1.58l-.15.36s.12-.26,0,0-.21.46-.33.68a5.5,5.5,0,0,1-.36.57c.18-.26-.09.08-.16.15s-.24.2-.07.08-.11.06-.16.08c-.22.08.06,0,.08,0-.12.27-.18-.19,0,0h-.08c-.15,0-.11,0,.13,0l-.23-.07c-.22-.08.11,0,.12,0s-.15-.07-.21-.12c-.19-.21.22.23,0,0l-.17-.18s-.19-.24-.06-.07-.15-.24-.14-.23a4.59,4.59,0,0,1-.26-.49s-.12-.29,0-.1l-.07-.19a9,9,0,0,1-.32-1.24c0-.2-.07-.4-.11-.61,0,0-.06-.46,0-.25s0-.14,0-.14c-.05-.49-.09-1-.1-1.46a13.55,13.55,0,0,1,0-1.56c0-.1,0-.2,0-.3-.05.32,0-.12,0-.17a5.73,5.73,0,0,1,.16-.69,4.59,4.59,0,0,1,1.23-2.18c1.81-1.83-1-4.66-2.83-2.83Z"/><path class="cls-1" d="M935.77,976.24l.15,8.72,3.93-.53c-.17-.75-.31-1.49-.45-2.25,0-.29,0,.36,0,.06l0-.23c0-.18,0-.37,0-.55a11.22,11.22,0,0,1,0-1.16,2.32,2.32,0,0,1,0-.31s-.07.39,0,.15.07-.35.11-.52a4.44,4.44,0,0,1,.15-.52,1,1,0,0,0,.08-.22c.05.12-.17.35,0,.08l.2-.34s.12-.14.12-.18-.28.32-.14.18.39-.41.6-.61-.37.23,0,0l.33-.21c.09,0,.48-.22.16-.09s.13,0,.23-.07l.36-.1c.33-.08-.48,0,0,0h.36c.19,0,.18.12-.22,0l.2,0c.09,0,.48.17.15,0s0,0,.14.1.08.18-.14-.12a1.74,1.74,0,0,0,.15.13l.15.15c.3.29-.14-.24,0,0l.25.41.12.25s.12.26,0,0,0,0,0,0l.09.26c.07.19.13.37.18.56.27.85.49,1.72.68,2.6.1.46.18.93.26,1.4,0,.08,0,.16,0,.25s0,.48,0,.23,0,0,0,.07,0,.33.05.5a2.19,2.19,0,0,0,.59,1.41,2,2,0,0,0,3.41-1.41,31.62,31.62,0,0,0-1.16-5.95,9.93,9.93,0,0,0-1.08-2.58,5.18,5.18,0,0,0-2.46-2,5.46,5.46,0,0,0-4.71.63,6.66,6.66,0,0,0-3,4.31,15.87,15.87,0,0,0,.46,6.71,2,2,0,0,0,3.93-.53l-.15-8.72a2,2,0,0,0-4,0Z"/><path class="cls-1" d="M958,974.19c-3.28-1.75-6.58.51-7.82,3.62-1,2.63-1.46,6.4.81,8.53s5.61,1.46,7.74-.37c2.48-2.14,2.69-5.75,2.72-8.78l-3.92.53,1,7.19a59,59,0,0,1,.75,6.48c0,1.44-.08,3.24-1.28,4.22-.85.7-2,1-2.65.32-1.82-1.82-4.65,1-2.83,2.83a5.57,5.57,0,0,0,6.11,1,7.32,7.32,0,0,0,4.4-5.44c.57-2.79,0-5.62-.36-8.41l-1.27-9.3a2,2,0,0,0-2.19-1.44,2,2,0,0,0-1.74,2c0,1.7,0,3.6-.85,5.12-.47.81-1.68,1.63-2.55,1.32-1.18-.42-.65-2.57-.43-3.43s1-3.26,2.36-2.55c2.26,1.22,4.29-2.24,2-3.46Z"/><path class="cls-1" d="M914.46,965.56a115.09,115.09,0,0,0,1.6,26.47,2,2,0,1,0,3.86-1.07,110.25,110.25,0,0,1-1.46-25.4c.15-2.57-3.85-2.56-4,0Z"/><path class="cls-2" d="M967.38,966.06a4.32,4.32,0,0,1,3.78-3.71,4.4,4.4,0,0,1,4.4,3c1,2.39-.13,4.41-1.53,6.5-1.75,2.62-3.5,5.76-2.31,9a2.07,2.07,0,0,0,2.46,1.4,2,2,0,0,0,1.4-2.46c-1-2.59,1.39-5,2.64-7a9.76,9.76,0,0,0,1.42-7.71,9.16,9.16,0,0,0-4.33-5.71,8.23,8.23,0,0,0-11.93,6.79c-.11,2.57,3.89,2.57,4,0Z"/><path class="cls-2" d="M976.07,993c2.57,0,2.58-4,0-4s-2.58,4,0,4Z"/><path class="cls-2" d="M900.88,977.78a11.94,11.94,0,0,0-6.22,4.47,7.45,7.45,0,0,0-.85,7,6.79,6.79,0,0,0,5.87,4.48c2.85.09,5.08-2,6.1-4.53,1.29-3.15.12-6.64-1.34-9.52a2,2,0,0,0-2.74-.71,2,2,0,0,0-.71,2.73,12.29,12.29,0,0,1,1.11,2.81c.07.27.13.55.18.83s0,0,0,0c0,.14,0,.28,0,.42a8,8,0,0,1,0,.85c0,.14,0,.28,0,.42,0-.18,0-.24,0,0s-.1.45-.17.67L902,988c0-.08.17-.33,0,0-.09.17-.18.35-.29.52s-.13.19-.19.28c-.16.25.29-.3-.06.06-.13.14-.29.27-.42.42s.26-.16,0,0l-.21.14c-.11.07-.65.31-.26.17l-.31.1c-.06,0-.52.12-.22.07s0,0,0,0h-.31c-.35,0,0,0,.08,0l-.29-.06c-.1,0-.57-.18-.33-.09s0,0-.1-.06l-.33-.19-.25-.17s.24.23.11.07a6.09,6.09,0,0,0-.44-.44c-.06,0-.1-.12-.15-.17.26.28.08.12,0,0s-.25-.41-.36-.61-.19-.36-.07-.12,0,0,0-.06a6.17,6.17,0,0,1-.19-.61c0-.17-.05-.71-.06-.25,0-.21,0-.42,0-.63l0-.31c0,.08-.09.43,0,.05.05-.19.09-.39.15-.58s.24-.57.07-.23c.12-.23.23-.46.36-.68l.18-.28c.09-.14.21-.3,0-.08.15-.2.33-.39.5-.58a7.15,7.15,0,0,1,.57-.53l.2-.17c.16-.15-.23.15.08-.06a11.56,11.56,0,0,1,1.35-.82c.1-.06.68-.32.31-.17.27-.11.55-.2.82-.29a2,2,0,1,0-1.06-3.86Z"/></svg>