<?xml version="1.0" encoding="utf-8"?>
<!-- Generator: Adobe Illustrator 26.0.0, SVG Export Plug-In . SVG Version: 6.00 Build 0)  -->
<svg version="1.1" id="Layer_1" xmlns="http://www.w3.org/2000/svg" xmlns:xlink="http://www.w3.org/1999/xlink" x="0px" y="0px"
	 viewBox="0 0 1357 1080" style="enable-background:new 0 0 1357 1080;" xml:space="preserve">
<style type="text/css">
	.st0{fill:#C1272D;}
	.st1{fill:none;stroke:#FFFFFF;stroke-width:0.2;stroke-miterlimit:10;}
	.st2{fill:#F7931E;}
	.st3{fill:#F7931E;stroke:#F7931E;stroke-miterlimit:10;}
</style>
<g id="queens_detail">
	<path class="st0" d="M820.7,442.9c-0.3,1.8,0.4,3.3,0.8,5c0.4,1.8,0.1,3.6-0.8,5.2c-1.6,3-4.5,5.3-5.7,8.6c-0.1,0.2,0,0.4,0.2,0.6
		c4,1.9,8.1,3.4,12.4,4.3c2.2,0.5,4.3,0.8,6.5,1.1c1,0,2,0.5,2.6,1.3c0.5,0.9-0.1,1.6-0.9,2c-1,0.5-2,0.9-3.1,1.1l-3.9,1.2
		c-0.3,0.1-0.4,0.4-0.3,0.7c0,0,0,0.1,0,0.1c0.3,0.5,0.9,0.8,1.5,0.8c0.7,0,1.4,0.2,2,0.6c1.1,1.1,1.9,2.5,2.1,4
		c0.4,2,0.5,4.1,0.4,6.1c-0.2,0.8-0.1,1.7,0.3,2.5c0.4,0.6,1.1,0.8,1.8,0.7l-0.6-0.3c0.3,1.1,0.3,2.2,0.1,3.3
		c-0.1,0.3,0.1,0.5,0.3,0.6c9.4,1.5,17.7-3.7,25.9-7.5c1-0.5,2.1-1,3.2-1.4c1.1-0.3,2.3-0.6,3.4-0.8c2.2-0.4,4.3-1.1,6.4-2
		c1.5-0.6,3.2-1.6,3.4-3.4c0.1-1-0.1-1.9-0.5-2.8c-0.4-1-0.9-2-1.2-3c-2.9-8.1-2.2-17-4.8-25.2c-0.3-1-0.6-2-1-2.9
		c-0.3-0.9-0.8-1.7-1.5-2.3c-1.4-1.1-3.4-0.9-5-0.6c-2.3,0.4-4.5,1-6.8,1.4s-4.8,0.9-7.2,1.2c-4.8,0.7-9.7,1.3-14.5,1.6
		c-2.4,0.2-4.8,0.3-7.1,0.4c-1.8,0.2-3.5-0.1-5.2-0.7c-0.8-0.3-1.5-0.9-2-1.6c-0.4-0.5-1.2,0-0.9,0.5c2.1,2.9,6,2.9,9.2,2.7
		c4.7-0.2,9.4-0.6,14.1-1.1s9.3-1.2,13.8-2.1c2.2-0.4,4.5-0.9,6.7-1.4c1.8-0.3,4-0.5,5,1.2c0.5,0.9,0.9,1.9,1.2,2.9
		c0.3,1,0.6,2,0.9,3c0.5,2,0.9,4.1,1.1,6.1c0.6,4.1,0.9,8.2,1.8,12.3c0.4,2,1,4,1.8,5.9c0.7,1.7,2.2,4,0.6,5.7
		c-0.7,0.6-1.4,1.1-2.2,1.3c-1,0.4-2,0.8-3,1.1c-1.1,0.4-2.1,0.6-3.2,0.9c-1.1,0.2-2.2,0.4-3.3,0.7c-2.1,0.8-4.1,1.7-6.1,2.7
		c-2,1-4,2-6.1,3c-4.1,1.8-8.4,3.4-13,3.4c-1.1,0-2.3-0.1-3.4-0.2l0.3,0.6c0.3-1.3,0.2-2.6-0.1-3.9c-0.1-0.3-0.3-0.4-0.6-0.4
		c-1.1,0.2-1-1.5-0.9-2.2c0.1-0.9,0.1-1.7,0.1-2.6c0-1.7-0.3-3.4-0.8-5.1c-0.3-1.2-1-2.3-2-3.2c-0.5-0.4-1-0.6-1.6-0.7
		c-0.5-0.1-1.4,0.1-1.7-0.4l-0.3,0.7l3.8-1.1c1-0.3,2-0.6,3-1c1.6-0.8,2.6-2.5,1.3-4.1c-0.7-0.7-1.7-1.2-2.7-1.3
		c-1.2-0.2-2.5-0.3-3.7-0.5c-2.5-0.4-4.9-1-7.4-1.8c-2.7-0.8-5.3-1.9-7.8-3.1l0.2,0.6c1.2-3.4,4.2-5.6,5.8-8.8
		c0.8-1.4,1.1-3.1,0.9-4.7c-0.3-1.8-1.3-3.5-1-5.3c0.1-0.6-0.9-0.9-1-0.3L820.7,442.9z"/>
	<path class="st0" d="M835.8,442.5L835.8,442.5c-0.2-0.7,0.3-1.5,1-1.7c0,0,0.1,0,0.1,0c0.7-0.1,1.4,0.3,1.5,1c0,0.1,0,0.1,0,0.2
		v0.1l-2.2,0.3c0.1,0.7,0.5,1,1.1,0.9s0.7-0.3,0.7-0.6l0.5-0.1c0,0.6-0.5,1.1-1.1,1.1c-0.8,0.1-1.5-0.4-1.6-1.1
		C835.8,442.6,835.8,442.6,835.8,442.5z M838,441.9c0-0.4-0.4-0.8-0.8-0.7c-0.1,0-0.1,0-0.2,0c-0.5,0.1-0.8,0.5-0.7,1L838,441.9z"/>
	<path class="st0" d="M838.8,439.1l0.5-0.1l0.6,4.3l-0.5,0.1L838.8,439.1z"/>
	<path class="st0" d="M840.4,440.3l0.5-0.1l0.1,0.4c0.1-0.3,0.4-0.6,0.8-0.6c0.4-0.1,0.8,0.1,0.9,0.4c0.2-0.4,0.5-0.6,0.9-0.7
		c0.5-0.1,1,0.2,1.2,1l0.3,1.8l-0.5,0.1l-0.3-1.8c-0.1-0.5-0.3-0.7-0.7-0.6c-0.4,0.1-0.7,0.4-0.7,0.8c0,0,0,0,0,0.1l0.3,1.8
		l-0.5,0.1l-0.3-1.8c-0.1-0.5-0.3-0.7-0.7-0.6c-0.4,0-0.7,0.4-0.7,0.8c0,0,0,0,0,0.1l0.3,1.8l-0.5,0.1L840.4,440.3z"/>
	<path class="st0" d="M845.3,438.1l0.5-0.1l0.3,1.9c0.1-0.4,0.5-0.6,0.8-0.6c0.6-0.1,1.1,0.2,1.2,1l0.3,1.8l-0.5,0.1l-0.3-1.8
		c-0.1-0.5-0.3-0.7-0.8-0.6c-0.4,0-0.7,0.4-0.7,0.8c0,0,0,0.1,0,0.1l0.3,1.8l-0.5,0.1L845.3,438.1z"/>
	<path class="st0" d="M849,440.9l-0.3-1.8l0.5-0.1l0.3,1.8c0.1,0.5,0.3,0.7,0.8,0.6c0.4,0,0.7-0.4,0.7-0.9c0,0,0,0,0,0l-0.3-1.8
		l0.5-0.1l0.4,2.9l-0.5,0.1l-0.1-0.5c-0.1,0.4-0.5,0.6-0.8,0.6C849.6,441.9,849.2,441.7,849,440.9z"/>
	<path class="st0" d="M852.1,438.5l0.5-0.1l0.1,0.5c0.1-0.4,0.5-0.7,0.9-0.7l0.1,0.4c-0.6,0.1-0.9,0.4-0.8,1.1l0.2,1.6l-0.5,0.1
		L852.1,438.5z"/>
	<path class="st0" d="M854.2,440.3l0.5-0.1c0.1,0.3,0.3,0.5,0.8,0.5s0.6-0.2,0.6-0.6s-0.3-0.4-0.8-0.4c-0.8,0-1.1-0.2-1.1-0.7
		c-0.1-0.5,0.3-0.9,0.8-1c0,0,0,0,0,0c0.5-0.1,1,0.1,1.2,0.6c0,0,0,0,0,0l-0.5,0.1c-0.1-0.3-0.3-0.4-0.7-0.4s-0.5,0.2-0.5,0.5
		s0.2,0.4,0.8,0.4s1.1,0.1,1.2,0.7s-0.2,0.9-0.9,1S854.3,440.9,854.2,440.3z"/>
	<path class="st0" d="M857.3,440l-0.3-1.8l-0.4,0.1l-0.1-0.4l0.4-0.1l-0.1-0.7l0.5-0.1l0.1,0.7l0.7-0.1v0.4l-0.7,0.1l0.3,1.7
		c0,0.3,0.2,0.4,0.4,0.4c0.1,0,0.2-0.1,0.3-0.1l0.1,0.4c-0.1,0.1-0.3,0.1-0.4,0.1C857.7,440.7,857.3,440.5,857.3,440
		C857.3,440,857.3,440,857.3,440z"/>
	<line class="st1" x1="855.3" y1="472.8" x2="849.4" y2="479.3"/>
	<polyline class="st1" points="856.4,473.7 850.2,480 845.2,475.1 	"/>
	<line class="st1" x1="857.8" y1="475.1" x2="853.6" y2="479.3"/>
	<line class="st1" x1="859.2" y1="476.5" x2="855" y2="480.7"/>
	<line class="st1" x1="860.7" y1="477.2" x2="848" y2="489.2"/>
	<line class="st1" x1="861.6" y1="478.6" x2="857.8" y2="482.1"/>
	<polyline class="st1" points="862.1,479.3 860.7,482.1 859.2,483.5 	"/>
	<line class="st1" x1="852.2" y1="472.3" x2="861.7" y2="482.1"/>
	<line class="st1" x1="848" y1="473.7" x2="859.2" y2="483.5"/>
	<line class="st1" x1="848" y1="477.9" x2="853.6" y2="472.3"/>
	<line class="st1" x1="848.8" y1="474.4" x2="846.6" y2="476.5"/>
	<polyline class="st1" points="848.3,481.4 855,485 852.6,487.4 852.2,487.8 843.8,479.3 	"/>
	<polyline class="st1" points="848,482.1 849.1,483.4 852.6,487.4 	"/>
	<line class="st1" x1="850.3" y1="482.3" x2="848" y2="483.5"/>
	<line class="st1" x1="851.8" y1="483.2" x2="849.4" y2="485"/>
	<line class="st1" x1="849.4" y1="487.8" x2="842.6" y2="480.4"/>
	<line class="st1" x1="841.5" y1="480.7" x2="843.8" y2="484.1"/>
	<path class="st1" d="M853.6,470.9c-0.9,0.5-1.8,1-2.8,1.4c-2.2,0.9-2.8,0.6-4.2,1.4c-1.1,0.7-2.1,1.7-2.8,2.8
		c-0.7,1.1-0.5,1.3-1.4,2.8c-1,1.8-1.6,1.9-1.7,2.8c-0.1,1.4,0.9,2.8,1.7,2.8c0.3,0,0.5-0.2,1.4-0.9c0.5-0.3,0.9-0.6,1.4-0.9"/>
</g>
<g id="_2._elmhurst">
	<path class="st2" d="M853.3,473.7c0.3,0,0.5-0.2,0.5-0.5s-0.2-0.5-0.5-0.5s-0.5,0.2-0.5,0.5S853,473.7,853.3,473.7z"/>
	<polyline class="st3" points="902.2,426.6 856.1,471.8 900.8,461.7 	"/>
	<g id="_4D4FoE">
		
			<image style="overflow:visible;enable-background:new    ;" width="2017" height="3156" xlink:href="1E658FAB97D5CFEC.png"  transform="matrix(1.437813e-02 0 0 1.473751e-02 898.4496 421.6424)">
		</image>
	</g>
	<path class="st2" d="M911.8,445l-0.1,2.6c0,0.2,0.1,0.4,0.3,0.4c0.2,0,0.4-0.1,0.4-0.3c0,0,0-0.1,0-0.1l0.1-2.6
		c0-0.2-0.2-0.4-0.4-0.4C912,444.6,911.8,444.8,911.8,445z"/>
	<path class="st2" d="M910.7,447.2l1.2,0.8c0.1,0.1,0.3,0.1,0.5-0.1c0.4-0.4,0.9-0.7,1.5-0.6c0.2,0,0.4-0.2,0.4-0.4
		c0-0.2-0.2-0.4-0.4-0.4c-0.8-0.1-1.5,0.3-2,0.9l0.5-0.1l-1.2-0.8c-0.2-0.1-0.4,0-0.5,0.1C910.5,446.9,910.5,447.1,910.7,447.2
		L910.7,447.2z"/>
	<path class="st2" d="M909.5,442.8c0,0.4,0,0.9,0.2,1.3c0,0.2,0.2,0.3,0.4,0.3c0.2,0,0.3-0.2,0.3-0.4c0-0.1,0-0.3,0-0.4
		c0-0.1,0-0.1,0-0.2c0-0.1,0-0.1,0-0.2c0-0.1,0-0.1,0-0.2c0,0,0,0,0-0.1c0,0,0,0.1,0,0s0-0.1,0,0s0,0,0,0l0,0h0c0,0-0.1,0-0.1,0l0,0
		c0,0,0.1,0.1,0,0c0,0.1,0,0.1,0.1,0.2l0.1,0.4l0.3,0.9c0.1,0.2,0.2,0.3,0.4,0.3c0.2,0,0.3-0.2,0.3-0.4c0-0.1,0-0.1,0-0.2
		c0,0,0-0.1,0-0.1s0-0.1,0,0c0-0.1,0.1-0.3,0.1-0.4l0,0l0-0.1c0-0.1,0.1-0.1,0.1-0.2l0.1-0.1c0,0,0,0,0,0l0.2-0.2l-0.6-0.2l0.4,1.2
		c0.1,0.2,0.3,0.3,0.5,0.3c0.2-0.1,0.3-0.3,0.3-0.5l-0.4-1.2c-0.1-0.2-0.3-0.3-0.5-0.2c-0.1,0-0.1,0-0.1,0.1
		c-0.5,0.5-0.8,1.2-0.7,1.9l0.7-0.1l-0.4-1.1c-0.1-0.4-0.2-0.9-0.7-0.9c-0.4,0-0.7,0.3-0.7,0.7c-0.1,0.4-0.1,0.8-0.1,1.2l0.7-0.1
		c0-0.1-0.1-0.2-0.1-0.3c0,0,0-0.1,0-0.1c0,0,0-0.1,0-0.1c0-0.2,0-0.4,0-0.6c0-0.2-0.2-0.4-0.4-0.4c-0.2,0-0.4,0.2-0.4,0.4
		L909.5,442.8z"/>
	<path class="st2" d="M913.1,443.6c0.3,0,0.7,0,1,0c0.3,0,0.6-0.1,0.8-0.2c0.3-0.2,0.5-0.5,0.4-0.8c-0.1-0.3-0.4-0.5-0.7-0.6
		c-0.3-0.1-0.7-0.1-1,0c-0.4,0-0.7,0.2-0.8,0.6c-0.2,1,0.4,2,1.4,2.2c0.3,0.1,0.6,0.1,0.8,0c0.2-0.1,0.3-0.3,0.3-0.5
		c-0.1-0.2-0.3-0.3-0.5-0.3c0,0-0.1,0,0,0h-0.3h-0.2l-0.1,0c0,0-0.1,0,0,0h-0.1l-0.1-0.1l-0.1,0l0,0l0,0l-0.1-0.1l0,0
		c0,0-0.1-0.1,0,0l0,0l0,0l-0.1-0.1c0-0.1,0,0,0,0c0,0,0,0,0-0.1c0,0,0-0.1,0-0.1c0,0,0,0,0-0.1s0,0.1,0,0v-0.2c0,0,0-0.1,0,0
		s0,0,0,0s0,0,0-0.1s0,0,0,0l0,0l0,0l0,0l0,0h0.1h0.1h0.5c0.1,0,0,0,0,0h0.1h0.1c0.1,0,0,0,0,0h0.1l0,0l0,0c0,0.1,0,0,0,0s0,0.1,0,0
		l0,0l0,0c0,0,0,0.1,0,0s0,0,0,0s0,0,0,0l0,0l0,0h-0.1c0,0-0.1,0,0,0h-0.1h-0.2h-0.2h-0.1h0c-0.3,0-0.6,0-0.8,0
		c-0.2,0-0.4,0.2-0.4,0.4c0,0.2,0.2,0.4,0.4,0.4L913.1,443.6z"/>
	<path class="st0" d="M898.1,469.8l0.2,0.6c0,0.1,0,0.1,0.1,0.2l0,0l0.1-0.2l0.2-0.6h0.2l-0.3,0.7c-0.1,0.2-0.2,0.4-0.3,0.6
		c-0.1,0.1-0.1,0.1-0.2,0.1v-0.1c0.1,0,0.1,0,0.2-0.1c0.1-0.1,0.1-0.1,0.2-0.2l0,0l0,0l-0.4-0.9L898.1,469.8z"/>
	<path class="st0" d="M899.1,470.4c0,0.2,0.1,0.3,0.3,0.3c0,0,0,0,0.1,0c0.1,0,0.2,0,0.3-0.1v0.1c-0.1,0-0.2,0.1-0.3,0.1
		c-0.2,0-0.5-0.2-0.5-0.4c0,0,0,0,0-0.1c0-0.3,0.2-0.5,0.4-0.5c0,0,0,0,0,0c0.2,0,0.4,0.2,0.4,0.4c0,0,0,0,0,0c0,0,0,0.1,0,0.1
		H899.1z M899.6,470.2c0-0.1-0.1-0.3-0.2-0.3c0,0,0,0,0,0c-0.1,0-0.3,0.1-0.3,0.3H899.6z"/>
	<path class="st0" d="M899.9,470.6c0.1,0,0.1,0.1,0.2,0.1c0.1,0,0.2-0.1,0.2-0.1s0-0.1-0.2-0.2s-0.3-0.2-0.3-0.3
		c0-0.2,0.1-0.3,0.3-0.3c0,0,0,0,0,0c0.1,0,0.2,0,0.2,0.1v0.1c-0.1,0-0.1-0.1-0.2-0.1c-0.1,0-0.1,0-0.2,0.1c0,0,0,0,0,0
		c0,0.1,0.1,0.1,0.2,0.2s0.2,0.1,0.2,0.3s-0.1,0.3-0.4,0.3c-0.1,0-0.2,0-0.3-0.1L899.9,470.6z"/>
	<path class="st0" d="M900.6,471c0.1-0.2,0.1-0.3,0.1-0.5h0.2c0,0.2-0.1,0.3-0.2,0.5H900.6z"/>
	<path class="st0" d="M901.8,469.5v1.4h-0.2v-1.4H901.8z"/>
	<path class="st0" d="M902.7,470.3L902.7,470.3c0,0,0.1-0.1,0.1-0.1l0.3-0.3h0.2l-0.4,0.4l0.4,0.6h-0.2L902.7,470.3v0.2v0.4h-0.2
		v-1.4h0.2V470.3z"/>
	<path class="st0" d="M903.4,470.1v-0.3h0.2v0.2l0,0c0.1-0.1,0.2-0.2,0.3-0.2c0.1,0,0.3,0.1,0.3,0.4v0.6h-0.2v-0.6
		c0-0.1-0.1-0.3-0.2-0.3c-0.1,0-0.2,0.1-0.2,0.2c0,0,0,0.1,0,0.1v0.6h-0.2L903.4,470.1z"/>
	<path class="st0" d="M905.4,470.3c0,0.3-0.2,0.5-0.4,0.5c0,0,0,0-0.1,0c-0.2,0-0.5-0.2-0.5-0.4c0,0,0,0,0-0.1
		c0-0.3,0.2-0.5,0.4-0.5c0,0,0,0,0.1,0C905.2,469.8,905.4,470,905.4,470.3C905.4,470.3,905.4,470.3,905.4,470.3z M904.7,470.3
		c0,0.2,0.1,0.3,0.3,0.4c0,0,0,0,0,0c0.2,0,0.3-0.2,0.3-0.4s-0.1-0.4-0.3-0.4S904.7,470.1,904.7,470.3L904.7,470.3z"/>
	<path class="st0" d="M905.7,469.8l0.1,0.5c0,0.1,0,0.2,0.1,0.3l0,0c0-0.1,0-0.2,0.1-0.3l0.2-0.5h0.2l0.2,0.5c0,0.1,0.1,0.2,0.1,0.3
		l0,0c0-0.1,0-0.2,0.1-0.3l0.1-0.5h0.2l-0.3,1h-0.2l-0.2-0.5c0-0.1-0.1-0.2-0.1-0.3l0,0c0,0.1,0,0.2-0.1,0.3l-0.2,0.5h-0.2l-0.3-1
		H905.7z"/>
	<path class="st0" d="M907,470.7c0-0.1,0.1-0.1,0.1-0.1c0.1,0,0.1,0.1,0.1,0.1c0,0,0,0,0,0c0,0.1-0.1,0.1-0.1,0.1
		C907.1,470.8,907,470.8,907,470.7z"/>
	<path class="st0" d="M907.4,470.7c0-0.1,0-0.1,0.1-0.1c0,0,0,0,0,0c0.1,0,0.1,0.1,0.1,0.1c0,0,0,0,0,0c0,0.1,0,0.1-0.1,0.1
		c0,0,0,0,0,0C907.5,470.8,907.4,470.8,907.4,470.7z"/>
	<path class="st0" d="M907.8,470.7c0-0.1,0.1-0.1,0.1-0.1c0.1,0,0.1,0.1,0.1,0.1c0,0,0,0,0,0c0,0.1-0.1,0.1-0.1,0.1
		C907.9,470.8,907.8,470.8,907.8,470.7z"/>
	<path class="st0" d="M898.2,471.9v1.4H898v-1.4H898.2z"/>
	<path class="st0" d="M899,472.2l0.1,0.5c0,0.1,0,0.2,0.1,0.3l0,0c0-0.1,0-0.2,0.1-0.3l0.2-0.5h0.2l0.2,0.5c0,0.1,0.1,0.2,0.1,0.3
		l0,0c0-0.1,0-0.2,0.1-0.3l0.1-0.5h0.2l-0.3,1h-0.2l-0.1-0.5c0-0.1-0.1-0.2-0.1-0.3l0,0c0,0.1-0.1,0.2-0.1,0.3l-0.2,0.5h-0.2l-0.3-1
		H899z"/>
	<path class="st0" d="M900.9,473.2v-0.1l0,0c-0.1,0.1-0.2,0.1-0.3,0.1c-0.2,0-0.3-0.1-0.3-0.3c0,0,0,0,0,0c0-0.2,0.2-0.4,0.6-0.4
		l0,0c0-0.1-0.1-0.2-0.2-0.2c0,0,0,0,0,0c-0.1,0-0.2,0-0.2,0.1v-0.1c0.1-0.1,0.2-0.1,0.3-0.1c0.3,0,0.4,0.2,0.4,0.4v0.4
		c0,0.1,0,0.2,0,0.2L900.9,473.2z M900.9,472.7c-0.2,0-0.4,0-0.4,0.2c0,0.1,0.1,0.2,0.1,0.2c0,0,0,0,0,0c0.1,0,0.2-0.1,0.2-0.2
		c0,0,0,0,0,0L900.9,472.7z"/>
	<path class="st0" d="M901.3,473c0.1,0,0.2,0.1,0.2,0.1c0.1,0,0.2-0.1,0.2-0.1s0-0.1-0.2-0.2s-0.2-0.2-0.2-0.3
		c0-0.2,0.1-0.3,0.3-0.3c0,0,0,0,0,0c0.1,0,0.2,0,0.2,0.1v0.1c-0.1,0-0.1-0.1-0.2-0.1c-0.1,0-0.2,0.1-0.2,0.1s0,0.1,0.2,0.2
		s0.2,0.1,0.2,0.3s-0.1,0.3-0.4,0.3c-0.1,0-0.2,0-0.3-0.1V473z"/>
	<path class="st0" d="M903.1,473.2v-0.1l0,0c-0.1,0.1-0.2,0.1-0.3,0.1c-0.2,0-0.3-0.1-0.3-0.3c0,0,0,0,0,0c0-0.2,0.2-0.4,0.6-0.4
		l0,0c0-0.1-0.1-0.2-0.2-0.2c0,0,0,0,0,0c-0.1,0-0.2,0-0.2,0.1v-0.1c0.1-0.1,0.2-0.1,0.3-0.1c0.3,0,0.4,0.2,0.4,0.4v0.4
		c0,0.1,0,0.2,0,0.2L903.1,473.2z M903.1,472.7c-0.2,0-0.4,0-0.4,0.2c0,0.1,0.1,0.2,0.1,0.2c0,0,0,0,0,0c0.1,0,0.2-0.1,0.2-0.2
		c0,0,0,0,0,0L903.1,472.7z"/>
	<path class="st0" d="M904,473c0.1,0,0.1,0.1,0.2,0.1c0.1,0,0.2-0.1,0.2-0.1s0-0.1-0.2-0.2s-0.3-0.2-0.3-0.3c0-0.2,0.1-0.3,0.3-0.3
		c0,0,0,0,0,0c0.1,0,0.2,0,0.2,0.1v0.1c-0.1,0-0.1-0.1-0.2-0.1c-0.1,0-0.1,0-0.2,0.1c0,0,0,0,0,0c0,0.1,0.1,0.1,0.2,0.2
		s0.3,0.1,0.3,0.3s-0.1,0.3-0.4,0.3c-0.1,0-0.2,0-0.3-0.1L904,473z"/>
	<path class="st0" d="M905,472v0.3h0.3v0.1H905v0.5c0,0.1,0,0.2,0.1,0.2h0.1v0.1h-0.2c-0.1,0-0.1,0-0.2-0.1
		c-0.1-0.1-0.1-0.2-0.1-0.2v-0.5h-0.2v-0.1h0.2V472H905z"/>
	<path class="st0" d="M905.4,472.5v-0.3h0.2v0.2l0,0c0-0.1,0.1-0.2,0.3-0.2l0,0v0.2h-0.1c-0.1,0-0.2,0.1-0.2,0.2c0,0,0,0.1,0,0.1
		v0.5h-0.2L905.4,472.5z"/>
	<path class="st0" d="M906.6,473.2v-0.1l0,0c-0.1,0.1-0.2,0.1-0.3,0.1c-0.2,0-0.3-0.1-0.3-0.3c0,0,0,0,0,0c0-0.2,0.2-0.4,0.6-0.4
		l0,0c0-0.1-0.1-0.2-0.2-0.2c0,0,0,0,0,0c-0.1,0-0.2,0-0.3,0.1v-0.1c0.1-0.1,0.2-0.1,0.3-0.1c0.3,0,0.4,0.2,0.4,0.4v0.4
		c0,0.1,0,0.2,0,0.2L906.6,473.2z M906.6,472.7c-0.2,0-0.4,0-0.4,0.2c0,0.1,0.1,0.2,0.1,0.2c0,0,0,0,0,0c0.1,0,0.2-0.1,0.2-0.2
		c0,0,0,0,0,0L906.6,472.7z"/>
	<path class="st0" d="M907,472.5v-0.3h0.2v0.2l0,0c0.1-0.1,0.2-0.2,0.3-0.2c0.1,0,0.3,0.1,0.3,0.4v0.6h-0.2v-0.6
		c0-0.1-0.1-0.3-0.2-0.3c-0.1,0-0.2,0.1-0.2,0.2c0,0,0,0.1,0,0.1v0.6H907V472.5z"/>
	<path class="st0" d="M909,472.2c0,0.1,0,0.2,0,0.3v0.6c0,0.2,0,0.3-0.1,0.4c-0.1,0.1-0.2,0.1-0.3,0.1c-0.1,0-0.2,0-0.3-0.1v-0.1
		c0.1,0.1,0.2,0.1,0.3,0.1c0.2,0,0.3-0.1,0.3-0.3V473l0,0c-0.1,0.1-0.2,0.2-0.3,0.2c-0.2,0-0.4-0.2-0.4-0.5c0,0,0,0,0,0
		c0-0.3,0.2-0.5,0.4-0.5c0,0,0,0,0,0c0.1,0,0.2,0.1,0.3,0.2l0,0v-0.1L909,472.2z M908.8,472.6C908.8,472.6,908.8,472.6,908.8,472.6
		c0-0.2-0.1-0.3-0.2-0.3c-0.2,0-0.3,0.1-0.3,0.4s0.1,0.4,0.3,0.4c0.1,0,0.2-0.1,0.2-0.2c0,0,0-0.1,0-0.1L908.8,472.6z"/>
	<path class="st0" d="M909.4,472.8c0,0.2,0.1,0.3,0.3,0.3c0,0,0,0,0.1,0c0.1,0,0.2,0,0.3-0.1v0.1c-0.1,0-0.2,0.1-0.3,0.1
		c-0.2,0-0.5-0.2-0.5-0.4c0,0,0,0,0-0.1c0-0.3,0.2-0.5,0.4-0.5c0,0,0,0,0,0c0.2,0,0.4,0.2,0.4,0.4c0,0,0,0,0,0c0,0,0,0.1,0,0.1
		L909.4,472.8z M909.9,472.6c0-0.1-0.1-0.3-0.2-0.3c0,0,0,0,0,0c-0.1,0-0.3,0.1-0.3,0.3H909.9z"/>
	<path class="st0" d="M910.7,471.8h0.2v1.4h-0.2V471.8z"/>
	<path class="st0" d="M912,472.7c0,0.3-0.2,0.5-0.4,0.5c0,0,0,0-0.1,0c-0.2,0-0.5-0.2-0.5-0.4c0,0,0,0,0-0.1c0-0.3,0.2-0.5,0.4-0.5
		c0,0,0,0,0.1,0C911.8,472.2,912,472.4,912,472.7C912,472.7,912,472.7,912,472.7z M911.2,472.7c0,0.2,0.1,0.4,0.3,0.4
		s0.3-0.2,0.3-0.4s-0.1-0.4-0.3-0.4S911.3,472.5,911.2,472.7L911.2,472.7z"/>
	<path class="st0" d="M913.1,472.7c0,0.3-0.2,0.5-0.4,0.5c0,0,0,0-0.1,0c-0.2,0-0.5-0.2-0.5-0.4c0,0,0,0,0-0.1
		c0-0.3,0.2-0.5,0.4-0.5c0,0,0,0,0.1,0C912.9,472.2,913.1,472.4,913.1,472.7C913.1,472.7,913.1,472.7,913.1,472.7z M912.4,472.7
		c0,0.2,0.1,0.4,0.3,0.4s0.3-0.2,0.3-0.4s-0.1-0.4-0.3-0.4S912.4,472.5,912.4,472.7L912.4,472.7z"/>
	<path class="st0" d="M913.5,472.7L913.5,472.7l0.1-0.1l0.3-0.3h0.2l-0.4,0.4l0.4,0.6H914l-0.3-0.5l-0.1,0.1v0.4h-0.2v-1.4h0.2
		L913.5,472.7z"/>
	<path class="st0" d="M914.5,472c0,0.1,0,0.1-0.1,0.1c0,0,0,0,0,0c-0.1,0-0.1,0-0.1-0.1c0-0.1,0-0.1,0.1-0.1
		C914.5,471.9,914.5,471.9,914.5,472C914.5,472,914.5,472,914.5,472z M914.3,473.2v-1h0.2v1H914.3z"/>
	<path class="st0" d="M914.8,472.5v-0.3h0.2v0.2l0,0c0.1-0.1,0.2-0.2,0.3-0.2c0.1,0,0.3,0.1,0.3,0.4v0.6h-0.2v-0.6
		c0-0.1-0.1-0.3-0.2-0.3c-0.1,0-0.2,0.1-0.2,0.2c0,0,0,0.1,0,0.1v0.6h-0.2L914.8,472.5z"/>
	<path class="st0" d="M916.7,472.2c0,0.1,0,0.2,0,0.3v0.6c0,0.2,0,0.3-0.1,0.4c-0.1,0.1-0.2,0.1-0.3,0.1c-0.1,0-0.2,0-0.3-0.1v-0.1
		c0.1,0.1,0.2,0.1,0.3,0.1c0.2,0,0.3-0.1,0.3-0.3V473l0,0c-0.1,0.1-0.2,0.2-0.3,0.2c-0.2,0-0.4-0.2-0.4-0.5c0,0,0,0,0,0
		c0-0.3,0.2-0.5,0.4-0.5c0,0,0,0,0,0c0.1,0,0.2,0.1,0.3,0.2l0,0v-0.1L916.7,472.2z M916.6,472.6
		C916.6,472.6,916.6,472.6,916.6,472.6c0-0.2-0.1-0.3-0.2-0.3c-0.2,0-0.3,0.1-0.3,0.4s0.1,0.4,0.3,0.4c0.1,0,0.2-0.1,0.2-0.2
		c0,0,0-0.1,0-0.1V472.6z"/>
	<path class="st0" d="M917.6,472.7L917.6,472.7l0.1-0.1l0.3-0.3h0.2l-0.4,0.4l0.4,0.6H918L917.6,472.7l0,0.2v0.4h-0.2v-1.4h0.2
		L917.6,472.7z"/>
	<path class="st0" d="M918.6,472c0,0.1,0,0.1-0.1,0.1c0,0,0,0,0,0c-0.1,0-0.1,0-0.1-0.1c0,0,0,0,0,0c0-0.1,0-0.1,0.1-0.1
		c0,0,0,0,0,0C918.6,471.9,918.6,471.9,918.6,472C918.6,472,918.6,472,918.6,472z M918.4,473.2v-1h0.2v1H918.4z"/>
	<path class="st0" d="M919.7,471.8v1.2c0,0.1,0,0.2,0,0.2h-0.2V473l0,0c-0.1,0.1-0.2,0.2-0.3,0.2c-0.2,0-0.4-0.2-0.4-0.5
		c0,0,0,0,0,0c0-0.2,0.1-0.5,0.4-0.5c0,0,0,0,0.1,0c0.1,0,0.2,0,0.3,0.1l0,0v-0.6L919.7,471.8z M919.5,472.6
		C919.5,472.6,919.5,472.6,919.5,472.6c0-0.2-0.1-0.3-0.3-0.3c-0.2,0-0.3,0.2-0.3,0.4s0.1,0.4,0.3,0.4c0.1,0,0.2-0.1,0.3-0.2
		c0,0,0,0,0-0.1V472.6z"/>
</g>
</svg>
