<svg id="_21._bxsci" data-name="21. bxsci" xmlns="http://www.w3.org/2000/svg" viewBox="0 0 1357.03 1080"><defs><style>.cls-1{fill:#c1272d;}.cls-2{fill:none;stroke:#f7931e;stroke-miterlimit:10;stroke-width:2px;stroke-dasharray:4;}.cls-3{fill:#f7931e;}.cls-4{fill:#fcee21;}.cls-5{fill:#fff;}</style></defs><path class="cls-1" d="M864.5,493.57a2.24,2.24,0,0,1,.58,1.68v3.05h-.71v-3a1.74,1.74,0,0,0-.41-1.25,1.52,1.52,0,0,0-1.17-.43,1.76,1.76,0,0,0-1.34.5,1.92,1.92,0,0,0-.5,1.4v2.76h-.71v-7.42H861V494a1.84,1.84,0,0,1,.8-.71,2.58,2.58,0,0,1,1.17-.25A2.17,2.17,0,0,1,864.5,493.57Z"/><path class="cls-1" d="M867.81,498a2.5,2.5,0,0,1-1-.95,2.77,2.77,0,0,1-.35-1.38,2.72,2.72,0,0,1,.35-1.38,2.37,2.37,0,0,1,1-1,2.93,2.93,0,0,1,2.74,0,2.29,2.29,0,0,1,1,1,2.62,2.62,0,0,1,.35,1.38,2.67,2.67,0,0,1-.35,1.38,2.41,2.41,0,0,1-1,.95,2.86,2.86,0,0,1-2.74,0Zm2.37-.54a1.8,1.8,0,0,0,.7-.72,2.22,2.22,0,0,0,.25-1.07,2.2,2.2,0,0,0-.25-1.07,1.76,1.76,0,0,0-.7-.73,2,2,0,0,0-1-.25,2,2,0,0,0-1,.25,1.89,1.89,0,0,0-.7.73,2.2,2.2,0,0,0-.25,1.07,2.22,2.22,0,0,0,.25,1.07,1.94,1.94,0,0,0,.7.72,2,2,0,0,0,1,.26A2,2,0,0,0,870.18,497.46Z"/><path class="cls-1" d="M881.42,493.57a2.32,2.32,0,0,1,.56,1.68v3.05h-.71v-3a1.74,1.74,0,0,0-.4-1.25,1.41,1.41,0,0,0-1.11-.43,1.65,1.65,0,0,0-1.29.5,2,2,0,0,0-.47,1.4v2.76h-.71v-3a1.74,1.74,0,0,0-.4-1.25,1.42,1.42,0,0,0-1.12-.43,1.68,1.68,0,0,0-1.29.5,2,2,0,0,0-.47,1.4v2.76h-.71V493H874v1a1.92,1.92,0,0,1,.78-.74,2.38,2.38,0,0,1,1.15-.26,2.19,2.19,0,0,1,1.14.28,1.66,1.66,0,0,1,.73.83,2,2,0,0,1,.83-.82,2.56,2.56,0,0,1,1.25-.29A2.11,2.11,0,0,1,881.42,493.57Z"/><path class="cls-1" d="M888.51,495.89h-4.4a1.89,1.89,0,0,0,.63,1.32,2.08,2.08,0,0,0,1.44.51,2.19,2.19,0,0,0,.9-.18,2.11,2.11,0,0,0,.71-.51l.4.46a2.24,2.24,0,0,1-.87.64,3.11,3.11,0,0,1-1.16.22,2.88,2.88,0,0,1-1.43-.35,2.49,2.49,0,0,1-1-.95,2.77,2.77,0,0,1-.35-1.38,2.72,2.72,0,0,1,.34-1.38,2.34,2.34,0,0,1,.92-1,2.69,2.69,0,0,1,2.62,0,2.35,2.35,0,0,1,.91.94,2.86,2.86,0,0,1,.33,1.39Zm-3.81-1.8a1.9,1.9,0,0,0-.59,1.27h3.73a1.94,1.94,0,0,0-.58-1.27,1.84,1.84,0,0,0-1.29-.48A1.78,1.78,0,0,0,884.7,494.09Z"/><path class="cls-1" d="M850,498.77c7.72,0,7.73-12,0-12s-7.74,12,0,12Z"/><path class="cls-1" d="M787.18,130.06a2.72,2.72,0,0,1-.92-.47l.32-.56a2.81,2.81,0,0,0,.83.43,3.32,3.32,0,0,0,1,.16,2,2,0,0,0,1.07-.22.72.72,0,0,0,.34-.64.55.55,0,0,0-.19-.45,1.1,1.1,0,0,0-.48-.25,5.41,5.41,0,0,0-.77-.17,10.15,10.15,0,0,1-1-.24,1.55,1.55,0,0,1-.66-.43,1.21,1.21,0,0,1-.28-.83,1.32,1.32,0,0,1,.55-1.08,2.48,2.48,0,0,1,1.53-.42,4,4,0,0,1,1,.14,2.72,2.72,0,0,1,.84.35l-.31.57a2.65,2.65,0,0,0-1.55-.45,1.79,1.79,0,0,0-1,.24.74.74,0,0,0-.35.63.63.63,0,0,0,.2.48,1.25,1.25,0,0,0,.48.27c.2,0,.46.11.8.17a9,9,0,0,1,1,.24,1.48,1.48,0,0,1,.65.41,1.12,1.12,0,0,1,.27.8,1.28,1.28,0,0,1-.57,1.1,2.74,2.74,0,0,1-1.6.4A4.14,4.14,0,0,1,787.18,130.06Z"/><path class="cls-1" d="M792.67,129.9a2.53,2.53,0,0,1-1-1,2.81,2.81,0,0,1-.35-1.39,2.77,2.77,0,0,1,.35-1.38,2.53,2.53,0,0,1,1-1,2.78,2.78,0,0,1,1.39-.34,2.67,2.67,0,0,1,1.22.27,2,2,0,0,1,.84.77l-.53.36a1.6,1.6,0,0,0-.66-.58,1.92,1.92,0,0,0-.87-.2,2,2,0,0,0-1,.26,1.82,1.82,0,0,0-.71.72,2.35,2.35,0,0,0,0,2.15,1.82,1.82,0,0,0,.71.72,2,2,0,0,0,1,.25,1.92,1.92,0,0,0,.87-.19,1.6,1.6,0,0,0,.66-.58l.53.36a2,2,0,0,1-.85.78,3,3,0,0,1-2.6-.08Z"/><path class="cls-1" d="M801.69,125.47a2.23,2.23,0,0,1,.58,1.67v3h-.71v-3a1.71,1.71,0,0,0-.41-1.25,1.52,1.52,0,0,0-1.17-.43,1.79,1.79,0,0,0-1.34.51,1.89,1.89,0,0,0-.5,1.39v2.76h-.71v-7.42h.71v3.08a2,2,0,0,1,.8-.71,2.58,2.58,0,0,1,1.17-.25A2.14,2.14,0,0,1,801.69,125.47Z"/><path class="cls-1" d="M805,129.9a2.6,2.6,0,0,1-1-1,2.9,2.9,0,0,1,0-2.76,2.57,2.57,0,0,1,1-1,2.76,2.76,0,0,1,1.37-.34,2.7,2.7,0,0,1,1.37.34,2.44,2.44,0,0,1,1,1,3,3,0,0,1,0,2.76,2.46,2.46,0,0,1-1,1,2.7,2.7,0,0,1-1.37.34A2.76,2.76,0,0,1,805,129.9Zm2.38-.54a1.8,1.8,0,0,0,.69-.73,2.41,2.41,0,0,0,0-2.14,1.77,1.77,0,0,0-.69-.72,2.07,2.07,0,0,0-2,0,1.8,1.8,0,0,0-.7.72,2.33,2.33,0,0,0,0,2.14,1.82,1.82,0,0,0,.7.73,2.15,2.15,0,0,0,2,0Z"/><path class="cls-1" d="M811.27,129.9a2.6,2.6,0,0,1-1-1,2.9,2.9,0,0,1,0-2.76,2.57,2.57,0,0,1,1-1,2.76,2.76,0,0,1,1.37-.34,2.7,2.7,0,0,1,1.37.34,2.44,2.44,0,0,1,1,1,3,3,0,0,1,0,2.76,2.46,2.46,0,0,1-1,1,2.7,2.7,0,0,1-1.37.34A2.76,2.76,0,0,1,811.27,129.9Zm2.38-.54a1.8,1.8,0,0,0,.69-.73,2.41,2.41,0,0,0,0-2.14,1.77,1.77,0,0,0-.69-.72,2,2,0,0,0-1-.26,2,2,0,0,0-1,.26,1.8,1.8,0,0,0-.7.72,2.33,2.33,0,0,0,0,2.14,1.82,1.82,0,0,0,.7.73,2,2,0,0,0,1,.25A2,2,0,0,0,813.65,129.36Z"/><path class="cls-1" d="M816.76,122.77h.71v7.42h-.71Z"/><path class="cls-1" d="M829.31,137.66c7.72,0,7.73-12,0-12s-7.74,12,0,12Z"/><line class="cls-2" x1="829.02" y1="142" x2="850.02" y2="482"/><path class="cls-3" d="M900.33,397.83a3.24,3.24,0,1,0-3.24-3.24,3.27,3.27,0,0,0,3.24,3.24Z"/><path class="cls-3" d="M918.67,395.75a3.24,3.24,0,1,0-3.24-3.24,3.27,3.27,0,0,0,3.24,3.24Z"/><path class="cls-3" d="M885.59,412.07c3.39,0,6.64-3,6.48-6.48a6.48,6.48,0,1,0-6.48,6.48Z"/><path class="cls-4" d="M889.7,380.64l1-2.66,7-7c-1.28.88-1.19.94.26.16a6.59,6.59,0,0,1,3.81-.87c-1.19.53-3.32.21-4.59.29l-4.58.28c-1.2.08-6.59-.05-1.62.82l11.62,8.93q1.49,4.2.23.68c-.36-1.07-.69-2.15-1-3.23a65.4,65.4,0,0,1-1.34-6.63c.75,4.72-.15-2.46-.22-3.31-.17-2.29-.29-4.58-.43-6.87-.61-10.2-1.32-20.66-4.65-30.39L857.74,341.2c4.1,11.43,11.57,19.57,20,28,3.27,3.25,6.5,6.56,9.53,10,.76.87,1.5,1.75,2.24,2.63,3.44,4.09-1-1.73.65.84,1.39,2.19,2.9,4.27,4.23,6.5,5.2,8.74,17.73,12.69,26.6,7s12.54-17.24,7-26.59a132.54,132.54,0,0,0-19.07-24.19c-3.16-3.26-6.49-6.35-9.64-9.62-.65-.67-4.75-6-2.31-2.33-.63-.94-3.23-6.71-1.74-2.56-3.42-9.55-13.4-17-23.91-13.58-9.53,3.08-17.11,13.61-13.58,23.92a60.72,60.72,0,0,1,1.87,6.52c.24,1.11.45,2.22.63,3.34q-.4-3.54,0-.1c.39,4,.63,8,.87,12,.56,9.29,1.15,18.93,4,27.85,2.58,8.09,6.59,16,15.56,18.35,5.14,1.35,10.42.67,15.63.35,4.78-.3,9.79-.39,14.41-1.77A24,24,0,0,0,927.19,391c2.54-9.84-3.24-21.56-13.58-23.92-10.14-2.31-21.19,3.05-23.91,13.58Z"/><path class="cls-3" d="M906.86,405.2q-7.43.75-14.88,1c-2.44.09-4.89.15-7.33.17-1.16,0-2.31,0-3.46,0-.54,0-1.08-.06-1.62-.11s.73.12-.09,0l-.84-.18c-.24-.07-.48-.13-.71-.21a2.48,2.48,0,0,0-.4-.15s.59.28.28.12a15.49,15.49,0,0,1-1.36-.79c-.29-.18.3.24.28.23a2.09,2.09,0,0,0-.28-.24l-.48-.45q-.24-.24-.45-.48l-.25-.29c-.37-.42.33.46.1.13a20,20,0,0,1-1.46-2.38c-.22-.43-.43-.87-.63-1.31l-.27-.62c-.08-.18-.21-.56.1.25-.05-.14-.11-.28-.17-.42a93,93,0,0,1-4.21-12.9q-.83-3.3-1.45-6.63c-.2-1.12-.4-2.24-.58-3.36l-.24-1.57c0-.26-.07-.52-.11-.78s0-.23-.05-.34c-.1-.76.07.52,0,.07-.58-4.52-1-9.07-1.21-13.62s-.32-9.06-.33-13.59a115.39,115.39,0,0,1,.48-13.54c0-.09.06-.48,0,0s0,0,0-.13.07-.51.12-.77c.09-.55.19-1.1.31-1.64a31.86,31.86,0,0,1,.88-3.22c.18-.52.43-1,.59-1.57,0,0-.25.57-.11.28l.15-.33c.1-.23.21-.45.32-.67a22.14,22.14,0,0,1,1.44-2.38,6.55,6.55,0,0,0,.39-.53s-.5.62-.17.21l.18-.22q.46-.57,1-1.11t.93-.9l.49-.42.28-.23c.43-.36-.47.34-.15.11a16.64,16.64,0,0,1,2.24-1.38c.22-.11.45-.19.66-.31,0,0-.69.27-.36.15l.33-.13c.42-.15.85-.29,1.29-.4l.7-.16c.13,0,.89-.14.28-.05s.13,0,.29,0,.49,0,.73,0l-2.8-1.61L895.34,357c1.54,3.16,3.08,6.32,4.57,9.5.73,1.56,1.45,3.13,2.14,4.7.34.77.68,1.55,1,2.32.07.15.4.88,0,.07.1.21.18.43.27.64l.52,1.27a94.36,94.36,0,0,1,5.91,20l.21,1.34c0,.21.23.89,0,0a5.4,5.4,0,0,1,.11.9c.11.93.2,1.87.27,2.81s.11,1.89.13,2.84c0,.47,0,.94,0,1.41a7,7,0,0,0-.08,1.2l.06-.47-.06.39a6.33,6.33,0,0,1-.19.75c0,.13-.08.25-.12.37-.12.32-.08.24.11-.24a3.59,3.59,0,0,1-.17.34c0,.09-.31.4-.31.49.31-.38.36-.46.17-.24l-.1.11c-.29.28-.45.16.19-.12a2.75,2.75,0,0,0-.52.31c.54-.43.6-.23.21-.1l-.44.11c-.58.15.86,0,.26,0h-.29c-.34,0-.2,0,.43.07-.09,0-.19,0-.28-.06-.75-.19.53.35.12.07s0-.2.21.18c-.07-.06-.13-.13-.2-.2.35.47.44.57.26.3a3.24,3.24,0,1,0-5.59,3.27c2.2,3.65,7.7,3.68,10.42.57s2.53-7.36,2.27-11.2a82.2,82.2,0,0,0-4.79-21.78,208.19,208.19,0,0,0-9-20.75c-3.46-7.16-7-14.31-10.44-21.45l-11.78-24.2a3.18,3.18,0,0,0-2.8-1.6,17.65,17.65,0,0,0-11.84,5.21,24.76,24.76,0,0,0-6.5,11.66,60.05,60.05,0,0,0-1.42,14.46c0,4.75,0,9.51.14,14.25a160.3,160.3,0,0,0,3.28,28.65,98.53,98.53,0,0,0,3.92,13.45c1.66,4.44,3.44,9.08,7.38,12a13.86,13.86,0,0,0,7.29,2.29c2.43.17,4.88.07,7.31,0q7.71-.15,15.39-.81l3.84-.36a3.5,3.5,0,0,0,2.29-.95,3.27,3.27,0,0,0,1-2.29c-.07-1.61-1.43-3.42-3.24-3.24Z"/><path class="cls-3" d="M915.08,410c6.52-3.26,11.1-9.19,13.77-15.86a37.87,37.87,0,0,0,1.84-21c-1.51-7.95-5.34-15.36-10.14-21.81A123.52,123.52,0,0,0,903.15,333c-6.47-5.75-13.16-11.28-19.13-17.56-.75-.79-1.49-1.59-2.21-2.41a3.28,3.28,0,0,0-4.59,0,3.34,3.34,0,0,0,0,4.59c5.65,6.32,12.1,11.85,18.46,17.42,6.11,5.36,12.18,10.81,17.36,17.1l.91,1.13.45.57-.19-.25s.28.38.31.41c.58.77,1.15,1.55,1.7,2.34q1.65,2.36,3.08,4.85a55.2,55.2,0,0,1,2.56,5.1c.32.74-.19-.46,0,.07l.27.66c.18.48.36.95.53,1.43.32.89.61,1.8.87,2.71a27.64,27.64,0,0,1,1.15,5.31c0,.06-.1-.8-.06-.44,0,.12,0,.23,0,.35s0,.4.07.6c0,.4.07.8.09,1.2,0,.81.08,1.62.07,2.43s0,1.62-.1,2.43c0,.41-.07.81-.11,1.22,0,.2-.05.4-.07.6s.05-.43.05-.43a2.33,2.33,0,0,1-.05.34,34.57,34.57,0,0,1-1.07,4.82q-.35,1.15-.78,2.28c-.07.19-.14.38-.22.56a2.44,2.44,0,0,1-.1.24c-.12.33.19-.43.17-.38-.19.39-.35.78-.53,1.17a30.39,30.39,0,0,1-2.38,4.1l-.35.48c-.08.12-.5.65-.15.21s-.09.1-.16.2l-.43.51c-.51.59-1,1.17-1.6,1.71s-1.15,1.05-1.76,1.55c-.41.34.65-.49.06-.05l-.41.3c-.34.25-.69.48-1,.71-.67.42-1.36.81-2.08,1.17a3.27,3.27,0,0,0-1.16,4.43,3.33,3.33,0,0,0,4.44,1.16Z"/><path d="M861.16,399.51a13.37,13.37,0,0,0,9.17-3.79,13,13,0,0,0,0-18.33,13,13,0,0,0-18.33,0,13,13,0,0,0,0,18.33,13.48,13.48,0,0,0,9.16,3.79Z"/><path d="M856.71,355.34a13.37,13.37,0,0,0,9.16-3.8,13,13,0,0,0,0-18.33,13,13,0,0,0-18.33,0,13,13,0,0,0,0,18.33,13.49,13.49,0,0,0,9.17,3.8Z"/><path class="cls-5" d="M861.16,389.79a3.24,3.24,0,1,0-3.24-3.24,3.27,3.27,0,0,0,3.24,3.24Z"/><path class="cls-5" d="M856.76,346.48a3.24,3.24,0,1,0-3.24-3.24,3.27,3.27,0,0,0,3.24,3.24Z"/><path class="cls-3" d="M888.78,364.85a3.24,3.24,0,1,0-3.24-3.24,3.28,3.28,0,0,0,3.24,3.24Z"/><path class="cls-3" d="M883.26,392.61a3.24,3.24,0,1,0-3.24-3.24,3.28,3.28,0,0,0,3.24,3.24Z"/><path class="cls-3" d="M869.08,366.64c3.39,0,6.64-3,6.48-6.48a6.48,6.48,0,1,0-6.48,6.48Z"/><path class="cls-3" d="M883.94,341.93a3.24,3.24,0,1,0-3.24-3.24,3.29,3.29,0,0,0,3.24,3.24Z"/><path class="cls-3" d="M904,386.19c3.39,0,6.64-3,6.48-6.48a6.48,6.48,0,1,0-6.48,6.48Z"/><path class="cls-3" d="M922.8,379.51a6.48,6.48,0,1,0,0-13c-3.39,0-6.64,3-6.48,6.48a6.6,6.6,0,0,0,6.48,6.48Z"/><path class="cls-3" d="M908.41,356a3.24,3.24,0,1,0-3.24-3.24,3.31,3.31,0,0,0,3.24,3.24Z"/><path class="cls-5" d="M898.52,392.8l-7.76.47,3.24,3.24-.13-1.76a11.08,11.08,0,0,1-.09-1.62l-.12.86a1.89,1.89,0,0,1,.09-.34l-.32.78.06-.1L893,395a1.37,1.37,0,0,1,.17-.17l-.65.51a2.06,2.06,0,0,1,.33-.17l-.78.33a16.18,16.18,0,0,1,3.7-.86l-.87.12a7.28,7.28,0,0,1,1.92-.08l-.86-.12a2.93,2.93,0,0,1,.7.2l-.77-.33a2,2,0,0,1,.39.24l-.66-.51a2.13,2.13,0,0,1,.26.26l-.51-.65a1.69,1.69,0,0,1,.19.32l-.33-.78a1.84,1.84,0,0,1,.13.44l-.11-.86a1.62,1.62,0,0,1,0,.44l.12-.86a1.82,1.82,0,0,1-.07.25l.33-.77a.94.94,0,0,1-.12.22l.51-.66a1.54,1.54,0,0,1-.17.19l.65-.51a.71.71,0,0,1-.14.1,3.34,3.34,0,0,0-1.49,1.93,3.24,3.24,0,0,0,4.76,3.66,4.35,4.35,0,0,0,2.11-3.63,4.93,4.93,0,0,0-1.28-3.41c-1.35-1.61-3.61-1.82-5.56-1.56a28.56,28.56,0,0,0-3,.5,7.15,7.15,0,0,0-3.28,1.47,4.48,4.48,0,0,0-1.23,3.83l.18,2.45a3.38,3.38,0,0,0,1,2.29,3.23,3.23,0,0,0,2.29.95l7.76-.47a3.38,3.38,0,0,0,2.29-.95,3.24,3.24,0,0,0,0-4.58,3.23,3.23,0,0,0-2.29-.95Z"/><path class="cls-5" d="M896.69,378.61a31.93,31.93,0,0,1-6.18.21l.87.12-.31-.07.78.32a.42.42,0,0,1-.18-.11l.66.51-.07-.08.5.65a1.14,1.14,0,0,1-.1-.19l.33.77a13.69,13.69,0,0,1-.35-1.69c-.12-.57-.25-1.15-.33-1.72l.11.86a.89.89,0,0,1,0-.23l-.11.87,0-.11-.33.77a.45.45,0,0,1,.11-.17l-.51.65.07-.07-.65.51a1.65,1.65,0,0,1,.26-.14l-.77.32a18.91,18.91,0,0,1,3.79-1.25l-.87.11a5,5,0,0,1,1.22,0l-.87-.11a3.05,3.05,0,0,1,.66.17l-.78-.32a2.72,2.72,0,0,1,.62.36l-.65-.5a2.91,2.91,0,0,1,.43.43l-.5-.65a2.89,2.89,0,0,1,.31.51l-.33-.78a2.12,2.12,0,0,1,.16.56l-.12-.87a1.63,1.63,0,0,1,0,.38l.11-.86a2.62,2.62,0,0,1-.09.38l.33-.78,0,.1a2.37,2.37,0,0,0-.39,1.2,2.57,2.57,0,0,0,.06,1.29,3.33,3.33,0,0,0,1.49,1.94,3.26,3.26,0,0,0,2.5.33,3.12,3.12,0,0,0,1.93-1.49,5.56,5.56,0,0,0,.59-2.3,4.62,4.62,0,0,0-.29-1.6,6.06,6.06,0,0,0-1.18-2,5.89,5.89,0,0,0-1.31-1.08c-2-1.23-4.45-.94-6.52-.18l-1.11.42a14.84,14.84,0,0,0-1.75.7,3.76,3.76,0,0,0-1.86,2.39,6.16,6.16,0,0,0,.12,2.6c.16.85.3,1.71.5,2.55a4,4,0,0,0,1.76,2.46,4.75,4.75,0,0,0,2.36.61,40,40,0,0,0,5.89-.23,3.43,3.43,0,0,0,2.29-.95,3.24,3.24,0,0,0,0-4.58,3.15,3.15,0,0,0-2.29-.95Z"/><path class="cls-5" d="M894.1,361.27l-2.05.14a16,16,0,0,1-2,.12l.86.11-.16,0,.78.33.86.86.33.77a23,23,0,0,1-.75-3.29c-.23-1.16-.42-2.32-.58-3.48l.12.86c-.17-1.23-.3-2.47-.39-3.71l-4.88,2.8c.09.05.8.57.82.56s-.71-.58-.14-.1l.31.27a14.13,14.13,0,0,1,1.32,1.36c.16.19.44.67-.09-.14a4,4,0,0,0,.24.33c.18.25.34.5.5.76a12.73,12.73,0,0,1,.91,1.76l-.33-.77a13.28,13.28,0,0,1,.92,3.33l-.11-.87,0,.17a3.5,3.5,0,0,0,1,2.29,3.32,3.32,0,0,0,2.29.95,3.27,3.27,0,0,0,2.29-.95,3.13,3.13,0,0,0,1-2.29,16.36,16.36,0,0,0-7.58-12.26c-2-1.27-5,.37-4.87,2.8a67.55,67.55,0,0,0,1.26,9c.43,2,.86,4.41,3.21,5a9,9,0,0,0,2.69,0l2.26-.16a3.45,3.45,0,0,0,2.29-.95,3.24,3.24,0,0,0-2.29-5.53Z"/><path d="M887.58,406.42a103.68,103.68,0,0,0-3.92-30.49c-1.37-4.85-3-9.63-4.49-14.45-.72-2.37-1.39-4.76-2-7.16-.28-1.22-.55-2.44-.78-3.67-.1-.54-.19-1.08-.28-1.62,0-.31-.1-.62-.14-.93a3.81,3.81,0,0,0-.07-.47c.09.37.07.5,0,.05a48.43,48.43,0,0,1-.36-8.16c0-.66.07-1.31.14-2,0-.35.07-.69.11-1s-.09.63,0,.17c0-.19.05-.38.08-.57a35.36,35.36,0,0,1,.91-4.08,3.24,3.24,0,1,0-6.25-1.72c-2.86,10-1.17,20.56,1.63,30.35,1.38,4.86,3,9.63,4.49,14.46a108.75,108.75,0,0,1,3.43,14.8c0,.35.1.71.16,1.07,0,.12,0,.24,0,.36.11.83-.09-.73,0,.1s.17,1.36.24,2c.15,1.41.27,2.81.36,4.22.19,2.9.24,5.8.18,8.71a3.24,3.24,0,0,0,6.48,0Z"/><path d="M885.25,344.14a70.34,70.34,0,0,0-1.67-12,3.27,3.27,0,0,0-4-2.26,3.31,3.31,0,0,0-2.26,4q.67,3,1.08,5.95l-.12-.86c.23,1.72.39,3.44.48,5.17a3.24,3.24,0,1,0,6.48,0Z"/><path class="cls-1" d="M896.75,379.06c.4.82-.31,1.65-1,2a3.49,3.49,0,0,1-2.81.38,1.4,1.4,0,0,1-.77-.74,1.28,1.28,0,0,1,.16-1.12,3.72,3.72,0,0,1,2.25-1.6c.79-.18,1.92.18,1.93,1.14a.52.52,0,0,0,1,0,2.41,2.41,0,0,0-2.47-2.23,4.56,4.56,0,0,0-3.45,1.88,2.52,2.52,0,0,0-.55,1.79,2.2,2.2,0,0,0,1,1.55c1.14.83,2.75.53,3.95,0a2.73,2.73,0,0,0,1.62-3.58.52.52,0,1,0-.89.52Z"/><path class="cls-1" d="M890.88,380l-3.24.2a.52.52,0,1,0,0,1l3.24-.2a.52.52,0,0,0,0-1Z"/><path class="cls-1" d="M896.26,380.76c-1.53,1.23-3.54.84-5.26,1.56a3.11,3.11,0,0,0-1.8,1.7,2.26,2.26,0,0,0,.32,2.28.52.52,0,0,0,.73,0,.53.53,0,0,0,0-.74,1.36,1.36,0,0,1,.16-1.6,3.22,3.22,0,0,1,1.89-1c.82-.17,1.67-.2,2.49-.4a5.52,5.52,0,0,0,2.2-1.11.52.52,0,0,0,0-.73.53.53,0,0,0-.73,0Z"/><path class="cls-1" d="M897,377.77c-.52-1.07-2-.77-2.93-.69a9.49,9.49,0,0,1-1.92.12.88.88,0,0,1-.58-.23c-.09-.08-.22-.27-.16-.4a.53.53,0,0,0-.19-.71.52.52,0,0,0-.71.19,1.46,1.46,0,0,0,.38,1.71,2.49,2.49,0,0,0,1.89.47c.74-.05,1.48-.14,2.23-.2.35,0,.92-.1,1.1.26a.53.53,0,0,0,.71.19.54.54,0,0,0,.18-.71Z"/><path class="cls-1" d="M888.5,383a2.32,2.32,0,0,0-.08-1.25c-.12-.38-.29-.75-.38-1.14-.14-.72.44-1.34.93-1.81s-.25-1.19-.74-.73a3.32,3.32,0,0,0-1.25,2.34,4.25,4.25,0,0,0,.32,1.26,1.92,1.92,0,0,1,.2,1.05c-.15.65.85.93,1,.28Z"/><path class="cls-3" d="M902.92,405.21a3.24,3.24,0,1,0-3.24-3.24,3.28,3.28,0,0,0,3.24,3.24Z"/><path class="cls-3" d="M873.14,410.17a3.24,3.24,0,1,0-3.24-3.24,3.31,3.31,0,0,0,3.24,3.24Z"/></svg>