<svg xmlns="http://www.w3.org/2000/svg" viewBox="0 0 1357.03 1080"><defs><style>.cls-1,.cls-12,.cls-3{fill:none;stroke-miterlimit:10;}.cls-1{stroke:#fff;}.cls-1,.cls-3{stroke-width:0.2px;}.cls-2{fill:#f7931e;}.cls-3{stroke:#c1272d;}.cls-4,.cls-5{fill:#c1272d;}.cls-5{font-size:2px;font-family:MyriadPro-Regular, Myriad Pro;}.cls-6{letter-spacing:-0.03em;}.cls-7{letter-spacing:-0.01em;}.cls-8{letter-spacing:0.01em;}.cls-9{letter-spacing:0em;}.cls-10{letter-spacing:0.02em;}.cls-11{fill:#fff;}.cls-12{stroke:#f7931e;stroke-width:0.4px;}.cls-13{letter-spacing:-0.08em;}.cls-14{letter-spacing:-0.03em;}</style></defs><g id="manhattan_detail" data-name="manhattan detail"><polyline class="cls-1" points="629.02 533 629.7 534.03 631.02 536"/><line class="cls-1" x1="630.02" y1="537" x2="629.7" y2="534.03"/><line class="cls-1" x1="632.02" y1="534" x2="618.02" y2="545"/><polyline class="cls-1" points="632.02 533 621.02 540 618.02 543"/><path class="cls-1" d="M623,524l6,6h0a10.37,10.37,0,0,1,3,3,10.62,10.62,0,0,1,1,2"/><line class="cls-1" x1="627.02" y1="535" x2="629.02" y2="538"/><line class="cls-1" x1="626.02" y1="540" x2="621.84" y2="535.51"/><polyline class="cls-1" points="629.02 532 625.4 536.5 627.02 539"/><polyline class="cls-1" points="623.93 537.47 625.4 536.5 624.08 534.5"/><path class="cls-2" d="M630,533.2a.5.5,0,0,0,0-1,.5.5,0,0,0,0,1Z"/><polyline class="cls-3" points="620.93 544.29 618.02 541.1 615.02 539"/><line class="cls-1" x1="623.93" y1="541.75" x2="619.14" y2="537"/><line class="cls-1" x1="620.26" y1="540.76" x2="616.03" y2="537.47"/><polyline class="cls-1" points="624.75 535.51 620.68 537.76 617.02 542"/><path class="cls-4" d="M620.84,551.1a31.44,31.44,0,0,1,.41-6.35c0-.45-.57-.63-.85-.35l-1.15,1.13.78.61c.15-.25.45-.73.76-.79h-.27c.16,0,.35.3.47.4l.6.55c.48.44,1.19-.27.71-.71l-.83-.75a1.19,1.19,0,0,0-.88-.46c-.6,0-1.14.79-1.42,1.25a.5.5,0,0,0,.78.61l1.16-1.14-.86-.35a31.44,31.44,0,0,0-.41,6.35.5.5,0,0,0,1,0Z"/><text class="cls-5" transform="translate(617.09 553.03)"><tspan class="cls-6">W</tspan><tspan x="1.63" y="0">all $t</tspan><tspan class="cls-7" x="5.65" y="0">r</tspan><tspan x="6.28" y="0">eet </tspan></text><path class="cls-4" d="M636.11,547.8a9.84,9.84,0,0,1-1.79-1.49c-.61-.61-1.2-1.24-1.8-1.87a.45.45,0,0,0-.76.32v1.46l.88-.12a2,2,0,0,1-.08-.55,1.56,1.56,0,0,1,0-.31s0-.11,0-.12l-.08.09,0,0a3.27,3.27,0,0,0,.57-.16l.67-.2a.44.44,0,0,0-.23-.85l-.85.24a1.79,1.79,0,0,0-.8.34,1.3,1.3,0,0,0-.25.88,2.74,2.74,0,0,0,.1.9.45.45,0,0,0,.87-.12v-1.46l-.76.31c.61.64,1.22,1.29,1.84,1.92a10.78,10.78,0,0,0,1.93,1.57.44.44,0,0,0,.45-.76Z"/><text class="cls-5" transform="translate(634.04 550.29)">(the old) <tspan class="cls-8" x="-1.65" y="2.4">S</tspan><tspan x="-0.65" y="2.4">outh </tspan><tspan class="cls-9" x="3.74" y="2.4">S</tspan><tspan x="4.72" y="2.4">t</tspan><tspan class="cls-7" x="5.38" y="2.4">r</tspan><tspan x="6.02" y="2.4">eet </tspan><tspan class="cls-8" x="0.23" y="4.8">S</tspan><tspan x="1.23" y="4.8">eapo</tspan><tspan class="cls-10" x="5.43" y="4.8">r</tspan><tspan x="6.13" y="4.8">t</tspan></text><path class="cls-4" d="M626.62,541.61l.52-.35a5,5,0,0,0,.48-.32c.13-.1.11-.21.1-.36a.3.3,0,0,1,.09-.24s.12-.13.15-.13,0,0,.06,0l.09,0a.16.16,0,0,1,.06.18.6.6,0,0,0,.09.39,2,2,0,0,0,.38.32l.47.36c.11.09.22-.1.11-.19l-.51-.39c-.15-.12-.31-.2-.32-.4a.62.62,0,0,0-.06-.38c-.05-.06-.11-.07-.18-.11s-.1-.08-.17-.09-.27.14-.35.23a.53.53,0,0,0-.13.41s0,.1,0,.14a.71.71,0,0,1-.14.1l-.28.19-.56.37c-.12.08,0,.27.11.19Z"/><path class="cls-4" d="M630.79,541.46l.52-.35c.15-.1.33-.2.48-.32s.11-.22.1-.36a.27.27,0,0,1,.09-.24s.12-.13.15-.13l.06.05.09,0c.07.05.06.1.06.18a.6.6,0,0,0,.09.39,1.56,1.56,0,0,0,.37.31l.47.37c.12.08.23-.11.12-.19l-.51-.4c-.15-.11-.32-.2-.32-.39a.56.56,0,0,0-.07-.38.5.5,0,0,0-.17-.11c-.06,0-.1-.08-.17-.09s-.28.14-.35.23a.52.52,0,0,0-.13.41.17.17,0,0,1,0,.14,1.21,1.21,0,0,1-.14.1l-.28.18-.56.38c-.12.08,0,.27.11.19Z"/><path class="cls-4" d="M628.4,540.36l3.19,0a.11.11,0,1,0,0-.22l-3.19,0a.11.11,0,0,0,0,.22Z"/><path class="cls-4" d="M632.6,540.36h.59s0,0,0,0h0v0l0,.7a.11.11,0,0,0,.22,0l0-.4v-.2a.38.38,0,0,0,0-.21.22.22,0,0,0-.18-.1l-.19,0h-.41a.11.11,0,0,0,0,.22Z"/><path class="cls-4" d="M627.54,540.25a14,14,0,0,0-1.71,0,2.45,2.45,0,0,0-1,.58.72.72,0,0,0-.42.72l-.06,1.71a.12.12,0,0,0,.11.11c3,0,5.95.09,8.92-.14a.12.12,0,0,0,.11-.14,8.23,8.23,0,0,1-.11-1.64.11.11,0,0,0-.22,0,8.84,8.84,0,0,0,.12,1.7l.1-.14c-3,.23-5.94.17-8.92.14l.11.11,0-1.2c0-.19,0-.41,0-.6s.28-.42.51-.58a3.89,3.89,0,0,1,.39-.28,1.44,1.44,0,0,1,.79-.12l1.23,0a.11.11,0,0,0,0-.22Z"/><path class="cls-4" d="M628.73,541.16a11.78,11.78,0,0,0,1.19,0,3.7,3.7,0,0,1,1.15,0c.14,0,.2-.18.06-.21a3.76,3.76,0,0,0-1.16,0c-.41,0-.83,0-1.24,0-.14,0-.14.21,0,.22Z"/><path class="cls-4" d="M624.68,541.28c.77,0,1.53,0,2.3,0a.11.11,0,0,0,0-.22c-.77,0-1.53,0-2.3,0a.11.11,0,0,0,0,.22Z"/><path class="cls-4" d="M626.4,541.63c0,.55,0,1.11,0,1.66,0,.15.23.15.22,0,0-.55,0-1.11,0-1.66,0-.14-.21-.14-.22,0Z"/><path class="cls-4" d="M629.1,541.55a14,14,0,0,0,0,1.71c0,.14.24.14.22,0a14,14,0,0,1,0-1.71c0-.15-.21-.15-.22,0Z"/><path class="cls-4" d="M630.6,541.44a7.68,7.68,0,0,0,.09,1.66c0,.12.23.09.22,0V543c0-.14-.23-.15-.22,0v.1l.22,0a7.1,7.1,0,0,1-.09-1.6c0-.14-.21-.14-.22,0Z"/><path class="cls-11" d="M625.41,541.63a6.76,6.76,0,0,0,.06,1.27.21.21,0,0,0,.27.15.22.22,0,0,0,.16-.27c0-.08,0-.15,0-.26l0-.3c0-.19,0-.39,0-.59a.22.22,0,0,0-.22-.22.21.21,0,0,0-.22.22Z"/><path class="cls-11" d="M625.63,541.9a2.9,2.9,0,0,0,.51,0h.17l.05,0s0,0,0,0l0,0s0,0,0,0l0,0s0,0,0,0,0,0,0,0,0,0,0,0v0s0,0,0,0,0,.07,0,0,0,0,0,0,0,0,0,0h0v0s0,0,0,0l0,0h0s0,0,0,0l0,0,0,0h0l-.09,0h-.07s-.06,0,0,0h-.26a.22.22,0,0,0-.3.08.22.22,0,0,0,.08.3.84.84,0,0,0,.32.08,1.51,1.51,0,0,0,.3,0,.85.85,0,0,0,.45-.21.47.47,0,0,0,.1-.56.6.6,0,0,0-.46-.32,1.88,1.88,0,0,0-.34,0h-.28a.23.23,0,0,0-.28.15.25.25,0,0,0,.16.28Z"/><path class="cls-11" d="M626.91,541.75a6.55,6.55,0,0,0,0,1,.26.26,0,0,0,.07.16.25.25,0,0,0,.15.06c.11,0,.24-.1.22-.22a6.55,6.55,0,0,1,0-1,.24.24,0,0,0-.22-.22.22.22,0,0,0-.22.22Z"/><path class="cls-11" d="M627.81,541.85h.88a.22.22,0,0,0,.22-.22.22.22,0,0,0-.22-.22h-.88a.22.22,0,1,0,0,.44Z"/><path class="cls-11" d="M627.55,541.77s0,0,0,.05V542a1.5,1.5,0,0,0,0,.3.92.92,0,0,0,.19.53.6.6,0,0,0,.51.21l.3-.05.13,0h.09a.22.22,0,0,0,0-.44,1.75,1.75,0,0,0-.51.08h-.12s0,0,0,0l0,0s0,0,0,0l0,0,0,0h0a.22.22,0,0,1-.05-.08v0l0-.05s0-.07,0,0,0,0,0,0a.15.15,0,0,1,0-.07,4,4,0,0,0,0-.6c0-.11-.17-.18-.27-.15a.23.23,0,0,0-.15.27Z"/><path class="cls-11" d="M627.93,542.46a3.09,3.09,0,0,0,.86-.06.23.23,0,0,0,.16-.27.23.23,0,0,0-.28-.15h-.09l-.1,0h-.55a.22.22,0,0,0-.22.22.23.23,0,0,0,.22.22Z"/><path class="cls-11" d="M629,541.67a5.75,5.75,0,0,0,.07,1.17.22.22,0,0,0,.27.15.23.23,0,0,0,.16-.27.68.68,0,0,1,0-.14v0h0v-.07a2.46,2.46,0,0,1,0-.26,5,5,0,0,1,0-.55.22.22,0,0,0-.22-.22.22.22,0,0,0-.22.22Z"/><path class="cls-11" d="M629.44,541.84s0,0,0,0h.21l.09,0s0,0,0,0l0,0h0l0,0s0,0,0,0l0,0s0,0,0,0,0,0,0,0,0,0,0,0,0,0,0,0,0,0,0,0l0,0s0,0,0,0l0,0h0l-.06,0-.1,0-.22.05a.21.21,0,0,0-.16.18.23.23,0,0,0,.1.22,5,5,0,0,1,.63.38h0l0,0,.07.05.13.12a.25.25,0,0,0,.36,0,.24.24,0,0,0,0-.32.21.21,0,0,0-.26,0h0a.23.23,0,0,0-.08.31.22.22,0,0,0,.3.07h0l-.27,0h0l-.06-.1h0l0-.17h0l.13-.1h0l.17,0h0l0,0,0-.05-.12-.09-.25-.18a3.82,3.82,0,0,0-.48-.29l-.06.4a1.82,1.82,0,0,0,.56-.17.47.47,0,0,0,.17-.6.68.68,0,0,0-.45-.34.84.84,0,0,0-.6.08.22.22,0,0,0-.08.3.23.23,0,0,0,.3.08Z"/><path class="cls-11" d="M630.57,541.65a3.53,3.53,0,0,0,.13,1,.23.23,0,0,0,.27.16.23.23,0,0,0,.16-.27l-.06-.24a.43.43,0,0,1,0-.11v-.07s0-.06,0,0a2.58,2.58,0,0,1,0-.48.22.22,0,0,0-.44,0Z"/><path class="cls-11" d="M631.31,541.76h.57s0,0,0,0-.09-.17-.09-.12a1.76,1.76,0,0,0,0,.23c0,.15,0,.3,0,.44h0v.09s0,.07,0,.1,0,.16-.05.24a.22.22,0,1,0,.42.12,4.67,4.67,0,0,0,.13-1.11.46.46,0,0,0-.08-.32.35.35,0,0,0-.27-.1h-.57a.22.22,0,0,0-.22.22.22.22,0,0,0,.22.22Z"/><path class="cls-11" d="M631.53,542.45a3.84,3.84,0,0,1,.76,0,.24.24,0,0,0,.16-.07.18.18,0,0,0,.06-.15.23.23,0,0,0-.06-.16.25.25,0,0,0-.16-.06,3.84,3.84,0,0,0-.76,0,.22.22,0,0,0-.22.22.24.24,0,0,0,.22.22Z"/></g><g id="_4._chinatown" data-name="4. chinatown"><polyline class="cls-12" points="641.02 514 638.02 520 636.02 521 637.02 522 628.56 532.57"/><text class="cls-5" transform="translate(636.67 513.36)">CHIN<tspan class="cls-13" x="4.26" y="0">A</tspan><tspan class="cls-14" x="5.33" y="0">T</tspan><tspan x="6.27" y="0">OWN</tspan></text><path class="cls-4" d="M630.52,520.17a.9.9,0,0,0-.34.33.72.72,0,0,0,0,.48.85.85,0,0,0,.52.72.69.69,0,0,0,.76-.41,1,1,0,0,0,0-.9.56.56,0,0,0-.86-.24.11.11,0,0,0,.16.16c.17-.16.4,0,.49.17a.76.76,0,0,1,0,.64.49.49,0,0,1-.48.37c-.22,0-.33-.28-.38-.47a.58.58,0,0,1,0-.39.66.66,0,0,1,.28-.27.11.11,0,0,0-.12-.19Z"/><path class="cls-4" d="M631.13,521.51l1,1.39a.11.11,0,1,0,.19-.12l-1-1.38a.11.11,0,1,0-.19.11Z"/><path class="cls-4" d="M630.1,520.79c-.14.08-.08.29-.05.42a2.91,2.91,0,0,0,.21.48,2,2,0,0,1,.22.47.25.25,0,0,1-.21.32c-.14,0-.14.23,0,.22a.46.46,0,0,0,.39-.24.64.64,0,0,0,0-.54c-.07-.17-.17-.32-.25-.49a1.09,1.09,0,0,1-.1-.25.27.27,0,0,1,0-.12.2.2,0,0,1,0-.07v0s0,0,0,0,0-.27-.11-.19Z"/><path class="cls-4" d="M631.18,520.24s0,0,0,0l.06,0c.06.05.11.12.16.17a2.24,2.24,0,0,0,.35.34.46.46,0,0,0,.45.05.31.31,0,0,0,.17-.36c0-.14-.25-.08-.21.06s-.13.13-.21.1a.82.82,0,0,1-.3-.26,2.34,2.34,0,0,0-.32-.31.27.27,0,0,0-.37.06.12.12,0,0,0,0,.15.12.12,0,0,0,.16,0Z"/><path class="cls-4" d="M631.26,522.51c.18,0,.36-.06.53-.11a.9.9,0,0,0,.39-.36c.24-.28.49-.55.76-.81.1-.1-.06-.26-.16-.16s-.49.5-.72.77l-.16.2a.36.36,0,0,1-.18.14,4.82,4.82,0,0,1-.52.11c-.14,0-.08.25.06.22Z"/><path class="cls-4" d="M632.2,522.81a2.43,2.43,0,0,0-.14.48l0,.25v.18s0,0,0,0a.06.06,0,0,1,.06,0l0,0h0a.14.14,0,0,0-.16,0,.13.13,0,0,0,0,.16.16.16,0,0,0,.14.07.18.18,0,0,0,.15-.1.88.88,0,0,0,0-.16v-.17a2.48,2.48,0,0,1,.15-.61c0-.06,0-.12-.08-.14a.1.1,0,0,0-.13.08Z"/><path class="cls-4" d="M632.27,523a.81.81,0,0,0,.31.27.43.43,0,0,0,.41-.05.12.12,0,0,0,0-.16.11.11,0,0,0-.16,0s0,0,0,0h0s0,0,0,0h-.16l-.07,0h0l0,0-.11-.13a.11.11,0,1,0-.16.16Z"/><path class="cls-4" d="M630.8,516.51a.67.67,0,0,0-.23.83,1,1,0,0,0,.55.68.65.65,0,0,0,.75-.46.93.93,0,0,0-.07-.95.8.8,0,0,0-.5-.23.71.71,0,0,0-.55.12c-.12.08,0,.28.11.19a.52.52,0,0,1,.34-.09.69.69,0,0,1,.37.1.63.63,0,0,1,.13.68c-.06.2-.21.46-.46.44s-.33-.26-.41-.43-.17-.55.08-.68,0-.26-.11-.2Z"/><path class="cls-4" d="M631.59,517.91c1,1.62,2.43,3,3.53,4.55.09.12.28,0,.2-.11-1.1-1.58-2.49-2.94-3.54-4.55-.07-.13-.27,0-.19.11Z"/><path class="cls-4" d="M635.19,522.42q-.06.74-.06,1.47a.12.12,0,0,0,.23,0,12,12,0,0,1,.06-1.47.12.12,0,0,0-.11-.11.12.12,0,0,0-.12.11Z"/><path class="cls-4" d="M635.38,522.61l1-.05a.12.12,0,0,0,.12-.11.13.13,0,0,0-.12-.12l-1,0a.11.11,0,0,0-.11.11.12.12,0,0,0,.11.12Z"/><path class="cls-4" d="M633.15,519.89l-.24.64-.12.32a.65.65,0,0,0-.06.33.11.11,0,0,0,.14.08.11.11,0,0,0,.08-.13.37.37,0,0,1,0-.15l.06-.14.11-.29.22-.6a.11.11,0,0,0-.08-.14.11.11,0,0,0-.14.08Z"/><path class="cls-4" d="M633.29,520.07c.25,0,.49,0,.74,0a1.11,1.11,0,0,0,.62-.11.11.11,0,0,0-.12-.19,1,1,0,0,1-.55.08l-.69,0c-.14,0-.14.22,0,.23Z"/><path class="cls-4" d="M632.69,521.14a.75.75,0,0,0,.06.13l.07.06.09,0H633l.07-.05a.21.21,0,0,0,.05-.12v-.07c0-.06,0-.11,0-.17a.13.13,0,0,0-.05-.07.14.14,0,0,0-.09,0l-.07,0a.1.1,0,0,0,0,0,.2.2,0,0,0-.08.08.1.1,0,0,0,0,.09.08.08,0,0,0,0,.07.13.13,0,0,0,.09,0,.15.15,0,0,0,.06,0v0l0,0h0l.06,0h0l-.14-.08v0a.28.28,0,0,1,0,.09.27.27,0,0,1,0,.09v0h0v0h0l0,0h0l0,0h0l0,0,0,0,0,0,0,0,0,0a.13.13,0,0,0,0-.07.14.14,0,0,0-.09,0,.12.12,0,0,0-.07,0,.14.14,0,0,0,0,.09Z"/><path class="cls-4" d="M639.11,506.57a1.36,1.36,0,0,0-1,.57,1,1,0,0,0,.06,1,.77.77,0,0,0,.17.19,1,1,0,0,0,.7.08,1.11,1.11,0,0,1-.62-.93.64.64,0,0,1,0-.24.73.73,0,0,1,.16-.22c.1-.11.38-.32.49-.42"/><path class="cls-4" d="M639.11,506.51a1.36,1.36,0,0,0-1,.56,1,1,0,0,0,.2,1.26,1,1,0,0,0,.78.11.07.07,0,0,0,0-.12,1,1,0,0,1-.59-.93c0-.36.43-.57.67-.78.06-.05,0-.14-.09-.09-.28.26-.71.47-.71.9a1.14,1.14,0,0,0,.65,1l0-.11a.79.79,0,0,1-.77-.18.93.93,0,0,1-.16-.76.78.78,0,0,1,.39-.53,1.36,1.36,0,0,1,.62-.22c.08,0,.09-.13,0-.12Z"/><path class="cls-4" d="M639.24,506.69a1.47,1.47,0,0,0-.46.78.8.8,0,0,0,.38.78,1.93,1.93,0,0,1-.15-.78,1.36,1.36,0,0,1,.23-.76"/><path class="cls-4" d="M639.2,506.65a1.45,1.45,0,0,0-.49.87.85.85,0,0,0,.42.78.06.06,0,0,0,.09-.07,1.58,1.58,0,0,1,.08-1.49c0-.07-.07-.13-.11-.06a1.69,1.69,0,0,0-.09,1.59l.09-.07a.74.74,0,0,1-.35-.7,1.32,1.32,0,0,1,.44-.76c.06-.06,0-.15-.08-.09Z"/><path class="cls-4" d="M639.4,506.72a1.45,1.45,0,0,1,0,.29,3.5,3.5,0,0,0-.05,1.25,3.38,3.38,0,0,1,.08-.34,2.7,2.7,0,0,0,0-1.2"/><path class="cls-4" d="M639.33,506.72a2,2,0,0,1-.06.42c0,.12,0,.24,0,.36a3.94,3.94,0,0,0,0,.77.06.06,0,0,0,.12,0c0-.13.06-.26.09-.39a2.61,2.61,0,0,0,0-1.18c0-.07-.14,0-.12,0a2.71,2.71,0,0,1,0,.75,2.6,2.6,0,0,1,0,.39c0,.12-.07.24-.09.36h.12a4,4,0,0,1,0-.77,2.63,2.63,0,0,1,.06-.39,1.49,1.49,0,0,0,.05-.36c0-.08-.13-.08-.13,0Z"/><path class="cls-4" d="M639.61,506.57a3.05,3.05,0,0,1,0,1.89,1.71,1.71,0,0,0,.4-.86,1.13,1.13,0,0,0-.26-.9.51.51,0,0,0-.16-.13"/><path class="cls-4" d="M639.55,506.59a3,3,0,0,1,0,1.86c0,.05.06.1.1.06a1.67,1.67,0,0,0,.43-1.12,1.19,1.19,0,0,0-.15-.55.73.73,0,0,0-.32-.33c-.07,0-.11.09,0,.12s.09.07.12.11a.66.66,0,0,1,.14.2,1.16,1.16,0,0,1,.12.51,1.53,1.53,0,0,1-.4,1l.11.06a3.26,3.26,0,0,0,0-1.93c0-.07-.15,0-.13,0Z"/><path class="cls-4" d="M639.86,506.57a1,1,0,0,1,.37.48,2.29,2.29,0,0,1,0,.52,1.58,1.58,0,0,1-.06.48.64.64,0,0,1-.27.38,1.41,1.41,0,0,0,.6-.47.76.76,0,0,0,.11-.36,1,1,0,0,0-.14-.69.79.79,0,0,0-.66-.34"/><path class="cls-4" d="M639.83,506.62a.92.92,0,0,1,.38.83c0,.32,0,.73-.29.92a.06.06,0,0,0,.06.11,1.55,1.55,0,0,0,.57-.4,1.06,1.06,0,0,0,.18-.71.93.93,0,0,0-.27-.63.88.88,0,0,0-.6-.23.06.06,0,0,0,0,.12.73.73,0,0,1,.52.21.81.81,0,0,1,.23.59.83.83,0,0,1-.19.61,1.67,1.67,0,0,1-.5.33l.06.11a1.09,1.09,0,0,0,.36-1,1,1,0,0,0-.44-.94c-.07,0-.13.07-.07.11Z"/><path class="cls-4" d="M639.5,506.42a.12.12,0,0,0,.1,0s0-.05,0-.08,0-.05,0-.06h0l-.32,0a.14.14,0,0,0-.11,0s0,.06,0,.08,0,0,.09,0Z"/><path class="cls-4" d="M639.5,506.48a.23.23,0,0,0,.14,0,.18.18,0,0,0,0-.16s0-.1-.1-.1h-.33a.28.28,0,0,0-.13,0,.14.14,0,0,0,0,.25h.34a.07.07,0,1,0,0-.13h-.33s0,0,0,0h0s0,0,0,0h.38v0h0C639.42,506.36,639.42,506.48,639.5,506.48Z"/><path class="cls-4" d="M639.41,506.21v-.5a.07.07,0,0,0-.13,0v.5a.07.07,0,0,0,.13,0Z"/><path class="cls-4" d="M639,508.59h.76a.28.28,0,0,1-.14.16.52.52,0,0,1-.21,0,.82.82,0,0,1-.27,0,.26.26,0,0,1-.17-.18"/><path class="cls-4" d="M639,508.65h.76l-.06-.07c0,.14-.23.15-.35.16s-.3,0-.32-.15a.07.07,0,0,0-.08,0,.05.05,0,0,0,0,.07.26.26,0,0,0,.15.2.48.48,0,0,0,.29,0c.18,0,.42,0,.47-.25,0,0,0-.08-.06-.08H639a.06.06,0,1,0,0,.12Z"/><path class="cls-4" d="M639.13,508.85c0,.26,0,.53,0,.8,0,.08.12.08.12,0,0-.27,0-.54,0-.8a.06.06,0,1,0-.12,0Z"/><path class="cls-4" d="M639.35,508.86a11.23,11.23,0,0,0,0,1.16c0,.08.13.08.12,0a9,9,0,0,1,0-1.16.07.07,0,0,0-.13,0Z"/><path class="cls-4" d="M639.52,508.88a2.33,2.33,0,0,0,.24.94c0,.07.14,0,.11-.06a2.3,2.3,0,0,1-.23-.88c0-.08-.13-.08-.12,0Z"/><path class="cls-4" d="M642.11,507.57a1.36,1.36,0,0,0-1,.57,1,1,0,0,0,.06,1,.77.77,0,0,0,.17.19,1,1,0,0,0,.7.08,1.11,1.11,0,0,1-.62-.93.64.64,0,0,1,0-.24.73.73,0,0,1,.16-.22c.1-.11.38-.32.49-.42"/><path class="cls-4" d="M642.11,507.51a1.36,1.36,0,0,0-1,.56,1,1,0,0,0,.2,1.26,1,1,0,0,0,.78.11.07.07,0,0,0,0-.12,1,1,0,0,1-.59-.93c0-.36.43-.57.67-.78.06-.05,0-.14-.09-.09-.28.26-.71.47-.71.9a1.14,1.14,0,0,0,.65,1l0-.11a.79.79,0,0,1-.77-.18.93.93,0,0,1-.16-.76.78.78,0,0,1,.39-.53,1.36,1.36,0,0,1,.62-.22c.08,0,.09-.13,0-.12Z"/><path class="cls-4" d="M642.24,507.69a1.47,1.47,0,0,0-.46.78.8.8,0,0,0,.38.78,1.93,1.93,0,0,1-.15-.78,1.36,1.36,0,0,1,.23-.76"/><path class="cls-4" d="M642.2,507.65a1.45,1.45,0,0,0-.49.87.85.85,0,0,0,.42.78.06.06,0,0,0,.09-.07,1.58,1.58,0,0,1,.08-1.49c0-.07-.07-.13-.11-.06a1.69,1.69,0,0,0-.09,1.59l.09-.07a.74.74,0,0,1-.35-.7,1.32,1.32,0,0,1,.44-.76c.06-.06,0-.15-.08-.09Z"/><path class="cls-4" d="M642.4,507.72a1.45,1.45,0,0,1,0,.29,3.5,3.5,0,0,0-.05,1.25,3.38,3.38,0,0,1,.08-.34,2.7,2.7,0,0,0,0-1.2"/><path class="cls-4" d="M642.33,507.72a2,2,0,0,1-.06.42c0,.12,0,.24,0,.36a3.94,3.94,0,0,0,0,.77.06.06,0,0,0,.12,0c0-.13.06-.26.09-.39a2.61,2.61,0,0,0,0-1.18c0-.07-.14,0-.12,0a2.71,2.71,0,0,1,0,.75,2.6,2.6,0,0,1,0,.39c0,.12-.07.24-.09.36h.12a4,4,0,0,1,0-.77,2.63,2.63,0,0,1,.06-.39,1.49,1.49,0,0,0,.05-.36c0-.08-.13-.08-.13,0Z"/><path class="cls-4" d="M642.61,507.57a3.05,3.05,0,0,1,0,1.89,1.71,1.71,0,0,0,.4-.86,1.13,1.13,0,0,0-.26-.9.51.51,0,0,0-.16-.13"/><path class="cls-4" d="M642.55,507.59a3,3,0,0,1,0,1.86c0,.05.06.1.1.06a1.67,1.67,0,0,0,.43-1.12,1.19,1.19,0,0,0-.15-.55.73.73,0,0,0-.32-.33c-.07,0-.11.09,0,.12s.09.07.12.11a.66.66,0,0,1,.14.2,1.16,1.16,0,0,1,.12.51,1.53,1.53,0,0,1-.4,1l.11.06a3.26,3.26,0,0,0,0-1.93c0-.07-.15,0-.13,0Z"/><path class="cls-4" d="M642.86,507.57a1,1,0,0,1,.37.48,2.29,2.29,0,0,1,0,.52,1.58,1.58,0,0,1-.06.48.64.64,0,0,1-.27.38,1.41,1.41,0,0,0,.6-.47.76.76,0,0,0,.11-.36,1,1,0,0,0-.14-.69.79.79,0,0,0-.66-.34"/><path class="cls-4" d="M642.83,507.62a.92.92,0,0,1,.38.83c0,.32,0,.73-.29.92a.06.06,0,0,0,.06.11,1.55,1.55,0,0,0,.57-.4,1.06,1.06,0,0,0,.18-.71.93.93,0,0,0-.27-.63.88.88,0,0,0-.6-.23.06.06,0,0,0,0,.12.73.73,0,0,1,.52.21.81.81,0,0,1,.23.59.83.83,0,0,1-.19.61,1.67,1.67,0,0,1-.5.33l.06.11a1.09,1.09,0,0,0,.36-1,1,1,0,0,0-.44-.94c-.07,0-.13.07-.07.11Z"/><path class="cls-4" d="M642.5,507.42a.12.12,0,0,0,.1,0s0-.05,0-.08,0-.05,0-.06h0l-.32,0a.14.14,0,0,0-.11,0s0,.06,0,.08,0,0,.09,0Z"/><path class="cls-4" d="M642.5,507.48a.23.23,0,0,0,.14,0,.18.18,0,0,0,0-.16s0-.1-.1-.1h-.33a.28.28,0,0,0-.13,0,.14.14,0,0,0,0,.25h.34a.07.07,0,1,0,0-.13h-.33s0,0,0,0h0s0,0,0,0h.38v0h0C642.42,507.36,642.42,507.48,642.5,507.48Z"/><path class="cls-4" d="M642.41,507.21v-.5a.07.07,0,0,0-.13,0v.5a.07.07,0,0,0,.13,0Z"/><path class="cls-4" d="M642,509.59h.76a.28.28,0,0,1-.14.16.52.52,0,0,1-.21,0,.82.82,0,0,1-.27,0,.26.26,0,0,1-.17-.18"/><path class="cls-4" d="M642,509.65h.76l-.06-.07c0,.14-.23.15-.35.16s-.3,0-.32-.15a.07.07,0,0,0-.08,0,.05.05,0,0,0,0,.07.26.26,0,0,0,.15.2.48.48,0,0,0,.29,0c.18,0,.42,0,.47-.25,0,0,0-.08-.06-.08H642a.06.06,0,1,0,0,.12Z"/><path class="cls-4" d="M642.13,509.85c0,.26,0,.53,0,.8,0,.08.12.08.12,0,0-.27,0-.54,0-.8a.06.06,0,1,0-.12,0Z"/><path class="cls-4" d="M642.35,509.86a11.23,11.23,0,0,0,0,1.16c0,.08.13.08.12,0a9,9,0,0,1,0-1.16.07.07,0,0,0-.13,0Z"/><path class="cls-4" d="M642.52,509.88a2.33,2.33,0,0,0,.24.94c0,.07.14,0,.11-.06a2.3,2.3,0,0,1-.23-.88c0-.08-.13-.08-.12,0Z"/><path class="cls-4" d="M645.11,506.57a1.36,1.36,0,0,0-1,.57,1,1,0,0,0,.06,1,.77.77,0,0,0,.17.19,1,1,0,0,0,.7.08,1.11,1.11,0,0,1-.62-.93.64.64,0,0,1,0-.24.73.73,0,0,1,.16-.22c.1-.11.38-.32.49-.42"/><path class="cls-4" d="M645.11,506.51a1.36,1.36,0,0,0-1,.56,1,1,0,0,0,.2,1.26,1,1,0,0,0,.78.11.07.07,0,0,0,0-.12,1,1,0,0,1-.59-.93c0-.36.43-.57.67-.78.06-.05,0-.14-.09-.09-.28.26-.71.47-.71.9a1.14,1.14,0,0,0,.65,1l0-.11a.79.79,0,0,1-.77-.18.93.93,0,0,1-.16-.76.78.78,0,0,1,.39-.53,1.36,1.36,0,0,1,.62-.22c.08,0,.09-.13,0-.12Z"/><path class="cls-4" d="M645.24,506.69a1.47,1.47,0,0,0-.46.78.8.8,0,0,0,.38.78,1.93,1.93,0,0,1-.15-.78,1.36,1.36,0,0,1,.23-.76"/><path class="cls-4" d="M645.2,506.65a1.45,1.45,0,0,0-.49.87.85.85,0,0,0,.42.78.06.06,0,0,0,.09-.07,1.58,1.58,0,0,1,.08-1.49c0-.07-.07-.13-.11-.06a1.69,1.69,0,0,0-.09,1.59l.09-.07a.74.74,0,0,1-.35-.7,1.32,1.32,0,0,1,.44-.76c.06-.06,0-.15-.08-.09Z"/><path class="cls-4" d="M645.4,506.72a1.45,1.45,0,0,1,0,.29,3.5,3.5,0,0,0-.05,1.25,3.38,3.38,0,0,1,.08-.34,2.7,2.7,0,0,0,0-1.2"/><path class="cls-4" d="M645.33,506.72a2,2,0,0,1-.06.42c0,.12,0,.24,0,.36a3.94,3.94,0,0,0,0,.77.06.06,0,0,0,.12,0c0-.13.06-.26.09-.39a2.61,2.61,0,0,0,0-1.18c0-.07-.14,0-.12,0a2.71,2.71,0,0,1,0,.75,2.6,2.6,0,0,1,0,.39c0,.12-.07.24-.09.36h.12a4,4,0,0,1,0-.77,2.63,2.63,0,0,1,.06-.39,1.49,1.49,0,0,0,.05-.36c0-.08-.13-.08-.13,0Z"/><path class="cls-4" d="M645.61,506.57a3.05,3.05,0,0,1,0,1.89,1.71,1.71,0,0,0,.4-.86,1.13,1.13,0,0,0-.26-.9.51.51,0,0,0-.16-.13"/><path class="cls-4" d="M645.55,506.59a3,3,0,0,1,0,1.86c0,.05.06.1.1.06a1.67,1.67,0,0,0,.43-1.12,1.19,1.19,0,0,0-.15-.55.73.73,0,0,0-.32-.33c-.07,0-.11.09,0,.12s.09.07.12.11a.66.66,0,0,1,.14.2,1.16,1.16,0,0,1,.12.51,1.53,1.53,0,0,1-.4,1l.11.06a3.26,3.26,0,0,0,0-1.93c0-.07-.15,0-.13,0Z"/><path class="cls-4" d="M645.86,506.57a1,1,0,0,1,.37.48,2.29,2.29,0,0,1,0,.52,1.58,1.58,0,0,1-.06.48.64.64,0,0,1-.27.38,1.41,1.41,0,0,0,.6-.47.76.76,0,0,0,.11-.36,1,1,0,0,0-.14-.69.79.79,0,0,0-.66-.34"/><path class="cls-4" d="M645.83,506.62a.92.92,0,0,1,.38.83c0,.32,0,.73-.29.92a.06.06,0,0,0,.06.11,1.55,1.55,0,0,0,.57-.4,1.06,1.06,0,0,0,.18-.71.93.93,0,0,0-.27-.63.88.88,0,0,0-.6-.23.06.06,0,0,0,0,.12.73.73,0,0,1,.52.21.81.81,0,0,1,.23.59.83.83,0,0,1-.19.61,1.67,1.67,0,0,1-.5.33l.06.11a1.09,1.09,0,0,0,.36-1,1,1,0,0,0-.44-.94c-.07,0-.13.07-.07.11Z"/><path class="cls-4" d="M645.5,506.42a.12.12,0,0,0,.1,0s0-.05,0-.08,0-.05,0-.06h0l-.32,0a.14.14,0,0,0-.11,0s0,.06,0,.08,0,0,.09,0Z"/><path class="cls-4" d="M645.5,506.48a.23.23,0,0,0,.14,0,.18.18,0,0,0,0-.16s0-.1-.1-.1h-.33a.28.28,0,0,0-.13,0,.14.14,0,0,0,0,.25h.34a.07.07,0,1,0,0-.13h-.33s0,0,0,0h0s0,0,0,0h.38v0h0C645.42,506.36,645.42,506.48,645.5,506.48Z"/><path class="cls-4" d="M645.41,506.21v-.5a.07.07,0,0,0-.13,0v.5a.07.07,0,0,0,.13,0Z"/><path class="cls-4" d="M645,508.59h.76a.28.28,0,0,1-.14.16.52.52,0,0,1-.21,0,.82.82,0,0,1-.27,0,.26.26,0,0,1-.17-.18"/><path class="cls-4" d="M645,508.65h.76l-.06-.07c0,.14-.23.15-.35.16s-.3,0-.32-.15a.07.07,0,0,0-.08,0,.05.05,0,0,0,0,.07.26.26,0,0,0,.15.2.48.48,0,0,0,.29,0c.18,0,.42,0,.47-.25,0,0,0-.08-.06-.08H645a.06.06,0,1,0,0,.12Z"/><path class="cls-4" d="M645.13,508.85c0,.26,0,.53,0,.8,0,.08.12.08.12,0,0-.27,0-.54,0-.8a.06.06,0,1,0-.12,0Z"/><path class="cls-4" d="M645.35,508.86a11.23,11.23,0,0,0,0,1.16c0,.08.13.08.12,0a9,9,0,0,1,0-1.16.07.07,0,0,0-.13,0Z"/><path class="cls-4" d="M645.52,508.88a2.33,2.33,0,0,0,.24.94c0,.07.14,0,.11-.06a2.3,2.3,0,0,1-.23-.88c0-.08-.13-.08-.12,0Z"/></g></svg>