<svg xmlns="http://www.w3.org/2000/svg" viewBox="0 0 1357.03 1080"><defs><style>.cls-1,.cls-3,.cls-7{fill:none;stroke-miterlimit:10;}.cls-1{stroke:#fff;}.cls-1,.cls-3{stroke-width:0.2px;}.cls-2{fill:#f7931e;}.cls-3{stroke:#c1272d;}.cls-4{fill:#c1272d;}.cls-5{fill:#fff;}.cls-6{fill:#42210b;}.cls-7{stroke:#f7931e;stroke-width:0.4px;}.cls-8{fill:#fcee21;}</style></defs><g id="manhattan_detail" data-name="manhattan detail"><polyline class="cls-1" points="629.02 533 629.7 534.03 631.02 536"/><line class="cls-1" x1="630.02" y1="537" x2="629.7" y2="534.03"/><line class="cls-1" x1="632.02" y1="534" x2="618.02" y2="545"/><polyline class="cls-1" points="632.02 533 621.02 540 618.02 543"/><path class="cls-1" d="M623,524l6,6h0a10.37,10.37,0,0,1,3,3,10.62,10.62,0,0,1,1,2"/><line class="cls-1" x1="627.02" y1="535" x2="629.02" y2="538"/><line class="cls-1" x1="626.02" y1="540" x2="621.84" y2="535.51"/><polyline class="cls-1" points="629.02 532 625.4 536.5 627.02 539"/><polyline class="cls-1" points="623.93 537.47 625.4 536.5 624.08 534.5"/><path class="cls-2" d="M630,533.2a.5.5,0,0,0,0-1,.5.5,0,0,0,0,1Z"/><polyline class="cls-3" points="620.93 544.29 618.02 541.1 615.02 539"/><line class="cls-1" x1="623.93" y1="541.75" x2="619.14" y2="537"/><line class="cls-1" x1="620.26" y1="540.76" x2="616.03" y2="537.47"/><polyline class="cls-1" points="624.75 535.51 620.68 537.76 617.02 542"/><path class="cls-4" d="M620.84,551.1a31.44,31.44,0,0,1,.41-6.35c0-.45-.57-.63-.85-.35l-1.15,1.13.78.61c.15-.25.45-.73.76-.79h-.27c.16,0,.35.3.47.4l.6.55c.48.44,1.19-.27.71-.71l-.83-.75a1.19,1.19,0,0,0-.88-.46c-.6,0-1.14.79-1.42,1.25a.5.5,0,0,0,.78.61l1.16-1.14-.86-.35a31.44,31.44,0,0,0-.41,6.35.5.5,0,0,0,1,0Z"/><path class="cls-4" d="M617.24,552.7l-.47,1.4h-.15l-.41-1.2-.42,1.2h-.15l-.47-1.4h.15l.4,1.2.42-1.2h.14l.41,1.21.41-1.21Z"/><path class="cls-4" d="M618.09,553.14a.41.41,0,0,1,.11.3v.66h-.14v-.17a.29.29,0,0,1-.14.13.51.51,0,0,1-.22.05.41.41,0,0,1-.28-.09.27.27,0,0,1-.11-.22.3.3,0,0,1,.1-.22.52.52,0,0,1,.31-.08h.33v-.06a.28.28,0,0,0-.07-.21.31.31,0,0,0-.22-.07.64.64,0,0,0-.2,0,.56.56,0,0,0-.15.1l-.07-.11a.72.72,0,0,1,.19-.11,1,1,0,0,1,.24,0A.46.46,0,0,1,618.09,553.14Zm-.16.8a.33.33,0,0,0,.12-.16v-.17h-.33c-.18,0-.27.06-.27.19a.17.17,0,0,0,.07.14.32.32,0,0,0,.2.06A.37.37,0,0,0,617.93,553.94Z"/><path class="cls-4" d="M618.58,552.61h.14v1.49h-.14Z"/><path class="cls-4" d="M619.12,552.61h.14v1.49h-.14Z"/><path class="cls-4" d="M621,554a.55.55,0,0,1-.34.12v.23h-.1v-.23a1.27,1.27,0,0,1-.28-.06.56.56,0,0,1-.2-.12l.06-.12a.41.41,0,0,0,.18.12.6.6,0,0,0,.24.05v-.52l-.23-.08a.31.31,0,0,1-.16-.11.32.32,0,0,1-.06-.2.36.36,0,0,1,.11-.26.55.55,0,0,1,.34-.12v-.23h.1v.22l.22,0a.51.51,0,0,1,.18.09l0,.12a.56.56,0,0,0-.17-.09l-.18,0v.53l.24.07a.61.61,0,0,1,.16.12.3.3,0,0,1,.06.2A.34.34,0,0,1,621,554Zm-.67-.77a.61.61,0,0,0,.23.09v-.5a.37.37,0,0,0-.23.09.2.2,0,0,0-.07.16A.18.18,0,0,0,620.33,553.22Zm.56.68a.19.19,0,0,0,.08-.17.17.17,0,0,0-.08-.16,1.1,1.1,0,0,0-.23-.09v.5A.37.37,0,0,0,620.89,553.9Z"/><path class="cls-4" d="M622,554a.21.21,0,0,1-.1.06l-.13,0a.31.31,0,0,1-.22-.08.3.3,0,0,1-.08-.23v-.63h-.19V553h.19v-.23h.14V553h.32v.13h-.32v.62a.22.22,0,0,0,0,.15.21.21,0,0,0,.14,0h.08a.2.2,0,0,0,.08,0Z"/><path class="cls-4" d="M622.51,553.09a.45.45,0,0,1,.24-.05v.13h0a.36.36,0,0,0-.26.1.44.44,0,0,0-.09.29v.54h-.15V553h.14v.21A.33.33,0,0,1,622.51,553.09Z"/><path class="cls-4" d="M623.92,553.61H623a.38.38,0,0,0,.12.27.41.41,0,0,0,.29.1.52.52,0,0,0,.18,0,.49.49,0,0,0,.14-.11l.08.09a.43.43,0,0,1-.17.13.59.59,0,0,1-.23.05.65.65,0,0,1-.29-.07.61.61,0,0,1-.2-.19.64.64,0,0,1-.07-.28.68.68,0,0,1,.07-.28.66.66,0,0,1,.18-.19.6.6,0,0,1,.27-.06.58.58,0,0,1,.26.06.47.47,0,0,1,.18.19.53.53,0,0,1,.07.28Zm-.77-.35a.31.31,0,0,0-.11.25h.74a.39.39,0,0,0-.11-.25.39.39,0,0,0-.52,0Z"/><path class="cls-4" d="M625.12,553.61h-.88a.39.39,0,0,0,.13.27.41.41,0,0,0,.29.1l.18,0a.49.49,0,0,0,.14-.11l.08.09a.4.4,0,0,1-.18.13.56.56,0,0,1-.23.05.64.64,0,0,1-.28-.07.52.52,0,0,1-.2-.19.53.53,0,0,1-.07-.28.55.55,0,0,1,.07-.28.47.47,0,0,1,.18-.19.6.6,0,0,1,.27-.06.58.58,0,0,1,.26.06.47.47,0,0,1,.18.19.64.64,0,0,1,.07.28Zm-.76-.35a.35.35,0,0,0-.12.25H625a.35.35,0,0,0-.12-.25.33.33,0,0,0-.25-.1A.34.34,0,0,0,624.36,553.26Z"/><path class="cls-4" d="M626,554a.21.21,0,0,1-.1.06l-.12,0a.32.32,0,0,1-.23-.08.34.34,0,0,1-.08-.23v-.63h-.19V553h.19v-.23h.14V553h.32v.13h-.32v.62a.23.23,0,0,0,0,.15.18.18,0,0,0,.13,0h.09l.07,0Z"/><path class="cls-4" d="M636.11,547.8a9.84,9.84,0,0,1-1.79-1.49c-.61-.61-1.2-1.24-1.8-1.87a.45.45,0,0,0-.76.32v1.46l.88-.12a2,2,0,0,1-.08-.55,1.56,1.56,0,0,1,0-.31s0-.11,0-.12l-.08.09,0,0a3.27,3.27,0,0,0,.57-.16l.67-.2a.44.44,0,0,0-.23-.85l-.85.24a1.79,1.79,0,0,0-.8.34,1.3,1.3,0,0,0-.25.88,2.74,2.74,0,0,0,.1.9.45.45,0,0,0,.87-.12v-1.46l-.76.31c.61.64,1.22,1.29,1.84,1.92a10.78,10.78,0,0,0,1.93,1.57.44.44,0,0,0,.45-.76Z"/><path class="cls-4" d="M633.64,550.32a2.12,2.12,0,0,1-.06-.52,2.1,2.1,0,0,1,.06-.51,1.33,1.33,0,0,1,.18-.42H634a1.61,1.61,0,0,0-.17.43,2,2,0,0,0-.06.5,2.1,2.1,0,0,0,.06.51,1.61,1.61,0,0,0,.17.43h-.13A1.33,1.33,0,0,1,633.64,550.32Z"/><path class="cls-4" d="M634.79,550.29l-.1.05a.3.3,0,0,1-.43-.28v-.64h-.19v-.12h.19v-.23h.14v.23h.32v.12h-.32v.63a.16.16,0,0,0,.05.14.17.17,0,0,0,.13,0h.09l.07,0Z"/><path class="cls-4" d="M635.89,549.41a.43.43,0,0,1,.12.33v.61h-.14v-.59a.36.36,0,0,0-.08-.25.31.31,0,0,0-.24-.09.33.33,0,0,0-.26.1.37.37,0,0,0-.1.28v.55H635v-1.48h.15v.61a.37.37,0,0,1,.16-.14.52.52,0,0,1,.23-.05A.4.4,0,0,1,635.89,549.41Z"/><path class="cls-4" d="M637.32,549.87h-.88a.42.42,0,0,0,.12.27.48.48,0,0,0,.29.1.48.48,0,0,0,.18,0,.36.36,0,0,0,.14-.1l.08.09a.37.37,0,0,1-.17.13.59.59,0,0,1-.23,0,.54.54,0,0,1-.29-.07.44.44,0,0,1-.19-.19.5.5,0,0,1-.08-.27.61.61,0,0,1,.07-.28.58.58,0,0,1,.19-.19.53.53,0,0,1,.26-.07.56.56,0,0,1,.26.07.47.47,0,0,1,.18.19.51.51,0,0,1,.07.28Zm-.77-.36a.44.44,0,0,0-.11.25h.74a.44.44,0,0,0-.11-.25.39.39,0,0,0-.52,0Z"/><path class="cls-4" d="M638.29,550.29a.44.44,0,0,1-.19-.19.5.5,0,0,1-.07-.27.51.51,0,0,1,.07-.28.5.5,0,0,1,.19-.19.6.6,0,0,1,.27-.07.61.61,0,0,1,.28.07.58.58,0,0,1,.19.19.61.61,0,0,1,.07.28.6.6,0,0,1-.07.27.5.5,0,0,1-.19.19.51.51,0,0,1-.28.07A.5.5,0,0,1,638.29,550.29Zm.47-.1a.4.4,0,0,0,.14-.15.36.36,0,0,0,.05-.21.4.4,0,0,0-.05-.22.38.38,0,0,0-.34-.19.35.35,0,0,0-.2.05.38.38,0,0,0-.14.14.51.51,0,0,0-.05.22.46.46,0,0,0,.05.21.5.5,0,0,0,.14.15.46.46,0,0,0,.2,0A.39.39,0,0,0,638.76,550.19Z"/><path class="cls-4" d="M639.39,548.87h.14v1.48h-.14Z"/><path class="cls-4" d="M640.89,548.87v1.48h-.14v-.21a.46.46,0,0,1-.17.17.6.6,0,0,1-.24.05.48.48,0,0,1-.26-.07.39.39,0,0,1-.19-.19.5.5,0,0,1-.07-.27.51.51,0,0,1,.07-.28.44.44,0,0,1,.19-.19.48.48,0,0,1,.26-.07.41.41,0,0,1,.23.06.35.35,0,0,1,.17.15v-.63Zm-.34,1.32a.4.4,0,0,0,.14-.15.37.37,0,0,0,.06-.21.4.4,0,0,0-.06-.22.32.32,0,0,0-.14-.14.3.3,0,0,0-.19-.05.36.36,0,0,0-.21.05.38.38,0,0,0-.14.14.51.51,0,0,0,0,.22.46.46,0,0,0,0,.21.5.5,0,0,0,.14.15.46.46,0,0,0,.21,0A.38.38,0,0,0,640.55,550.19Z"/><path class="cls-4" d="M641.16,550.74a1.63,1.63,0,0,0,.18-.43,2.58,2.58,0,0,0,0-1,1.63,1.63,0,0,0-.18-.43h.14a1.6,1.6,0,0,1,.17.42,2.1,2.1,0,0,1,.06.51,2.12,2.12,0,0,1-.06.52,1.32,1.32,0,0,1-.17.42Z"/><path class="cls-4" d="M631.59,552.71a.48.48,0,0,1-.22-.13l.06-.11a.48.48,0,0,0,.2.12.75.75,0,0,0,.26,0,.45.45,0,0,0,.28-.07.24.24,0,0,0,.1-.18.15.15,0,0,0-.06-.13.25.25,0,0,0-.12-.08l-.21-.06a1.86,1.86,0,0,1-.25-.08.36.36,0,0,1-.16-.11.34.34,0,0,1,0-.4.4.4,0,0,1,.17-.14.79.79,0,0,1,.29,0,.85.85,0,0,1,.23,0,.75.75,0,0,1,.2.09l-.05.12a.42.42,0,0,0-.18-.08l-.2,0a.45.45,0,0,0-.28.07.21.21,0,0,0-.09.18.17.17,0,0,0,.05.13.22.22,0,0,0,.13.08l.21.06a1.67,1.67,0,0,1,.24.08.39.39,0,0,1,.17.11.32.32,0,0,1,.06.2.36.36,0,0,1-.06.2.34.34,0,0,1-.17.13.65.65,0,0,1-.29,0A.79.79,0,0,1,631.59,552.71Z"/><path class="cls-4" d="M632.86,552.69a.44.44,0,0,1-.19-.19.5.5,0,0,1-.07-.27.51.51,0,0,1,.07-.28.52.52,0,0,1,.46-.26.51.51,0,0,1,.28.07.58.58,0,0,1,.19.19.61.61,0,0,1,.07.28.6.6,0,0,1-.07.27.5.5,0,0,1-.19.19.51.51,0,0,1-.28.07A.5.5,0,0,1,632.86,552.69Zm.47-.11a.32.32,0,0,0,.14-.14.36.36,0,0,0,0-.21.4.4,0,0,0,0-.22.38.38,0,0,0-.34-.19.35.35,0,0,0-.2,0,.38.38,0,0,0-.14.14.51.51,0,0,0,0,.22.46.46,0,0,0,0,.21.38.38,0,0,0,.14.14.36.36,0,0,0,.2.06A.32.32,0,0,0,633.33,552.58Z"/><path class="cls-4" d="M634.91,551.7v1h-.14v-.19a.54.54,0,0,1-.15.15.56.56,0,0,1-.23,0,.4.4,0,0,1-.44-.45v-.61h.14v.6a.37.37,0,0,0,.08.25.31.31,0,0,0,.24.08.34.34,0,0,0,.26-.1.39.39,0,0,0,.09-.28v-.55Z"/><path class="cls-4" d="M635.86,552.69l-.1,0a.25.25,0,0,1-.12,0,.28.28,0,0,1-.23-.08.27.27,0,0,1-.08-.22v-.64h-.19v-.12h.19v-.23h.14v.23h.32v.12h-.32v.63a.2.2,0,0,0,0,.14.17.17,0,0,0,.13,0h.09l.07,0Z"/><path class="cls-4" d="M637,551.81a.47.47,0,0,1,.11.33v.61h-.14v-.59a.36.36,0,0,0-.08-.25.31.31,0,0,0-.24-.09.33.33,0,0,0-.26.1.37.37,0,0,0-.1.28v.55h-.14v-1.48h.14v.61a.44.44,0,0,1,.16-.14.56.56,0,0,1,.23,0A.44.44,0,0,1,637,551.81Z"/><path class="cls-4" d="M638.11,552.71a.43.43,0,0,1-.22-.13l.06-.11a.48.48,0,0,0,.2.12.75.75,0,0,0,.26,0,.45.45,0,0,0,.28-.07.24.24,0,0,0,.1-.18.15.15,0,0,0-.06-.13.25.25,0,0,0-.12-.08l-.21-.06a1.86,1.86,0,0,1-.25-.08.36.36,0,0,1-.16-.11.34.34,0,0,1,0-.4.4.4,0,0,1,.17-.14.79.79,0,0,1,.29,0,.85.85,0,0,1,.23,0,.75.75,0,0,1,.2.09l0,.12a.46.46,0,0,0-.19-.08.63.63,0,0,0-.19,0,.45.45,0,0,0-.28.07.21.21,0,0,0-.09.18.17.17,0,0,0,0,.13.22.22,0,0,0,.13.08l.21.06a1.67,1.67,0,0,1,.24.08.39.39,0,0,1,.17.11.32.32,0,0,1,.06.2.36.36,0,0,1-.06.2.34.34,0,0,1-.17.13.65.65,0,0,1-.29,0A.76.76,0,0,1,638.11,552.71Z"/><path class="cls-4" d="M639.78,552.69l-.1,0a.25.25,0,0,1-.12,0,.28.28,0,0,1-.23-.08.27.27,0,0,1-.08-.22v-.64h-.19v-.12h.19v-.23h.14v.23h.32v.12h-.32v.63a.2.2,0,0,0,.05.14.17.17,0,0,0,.13,0h.09l.07,0Z"/><path class="cls-4" d="M640.32,551.75a.48.48,0,0,1,.24-.06v.14h0a.33.33,0,0,0-.26.1.42.42,0,0,0-.09.29v.53H640v-1h.13v.21A.26.26,0,0,1,640.32,551.75Z"/><path class="cls-4" d="M641.73,552.27h-.88a.38.38,0,0,0,.12.27.46.46,0,0,0,.29.1.48.48,0,0,0,.18,0,.36.36,0,0,0,.14-.1l.08.09a.37.37,0,0,1-.17.13.59.59,0,0,1-.23,0,.54.54,0,0,1-.29-.07.52.52,0,0,1-.2-.19.6.6,0,0,1-.07-.27.61.61,0,0,1,.07-.28.58.58,0,0,1,.19-.19.44.44,0,0,1,.26-.07.46.46,0,0,1,.26.07.47.47,0,0,1,.18.19.51.51,0,0,1,.07.28Zm-.77-.36a.38.38,0,0,0-.11.25h.74a.44.44,0,0,0-.11-.25.39.39,0,0,0-.52,0Z"/><path class="cls-4" d="M642.93,552.27h-.88a.39.39,0,0,0,.13.27.46.46,0,0,0,.29.1.58.58,0,0,0,.18,0,.45.45,0,0,0,.14-.1l.08.09a.43.43,0,0,1-.17.13.64.64,0,0,1-.24,0,.53.53,0,0,1-.28-.07.46.46,0,0,1-.2-.19.6.6,0,0,1-.07-.27A.51.51,0,0,1,642,552a.47.47,0,0,1,.18-.19.5.5,0,0,1,.27-.07.48.48,0,0,1,.26.07.47.47,0,0,1,.18.19.61.61,0,0,1,.07.28Zm-.76-.36a.39.39,0,0,0-.12.25h.75a.39.39,0,0,0-.12-.25.37.37,0,0,0-.25-.1A.4.4,0,0,0,642.17,551.91Z"/><path class="cls-4" d="M643.78,552.69l-.1,0a.25.25,0,0,1-.12,0,.28.28,0,0,1-.23-.08.31.31,0,0,1-.08-.22v-.64h-.19v-.12h.19v-.23h.14v.23h.32v.12h-.32v.63a.2.2,0,0,0,.05.14.19.19,0,0,0,.13,0h.09l.07,0Z"/><path class="cls-4" d="M634,555.11a.48.48,0,0,1-.22-.13l.06-.11a.56.56,0,0,0,.2.12.8.8,0,0,0,.26,0,.43.43,0,0,0,.28-.07.21.21,0,0,0,.1-.18.17.17,0,0,0,0-.13.35.35,0,0,0-.13-.08l-.2-.06-.26-.08a.42.42,0,0,1-.16-.11.33.33,0,0,1-.06-.21.32.32,0,0,1,.05-.19.47.47,0,0,1,.17-.14.84.84,0,0,1,.29,0l.24,0a1.21,1.21,0,0,1,.2.09l-.05.12a.77.77,0,0,0-.19-.08.69.69,0,0,0-.2,0,.47.47,0,0,0-.28.07.21.21,0,0,0-.09.18.17.17,0,0,0,.05.13.26.26,0,0,0,.13.08l.21.06.25.08a.42.42,0,0,1,.16.11.32.32,0,0,1,.06.2.46.46,0,0,1,0,.2.42.42,0,0,1-.18.13.63.63,0,0,1-.29,0A.79.79,0,0,1,634,555.11Z"/><path class="cls-4" d="M636,554.67h-.88a.39.39,0,0,0,.13.27.44.44,0,0,0,.29.1.58.58,0,0,0,.18,0,.45.45,0,0,0,.14-.1l.08.09a.46.46,0,0,1-.18.13.59.59,0,0,1-.23,0,.57.57,0,0,1-.29-.07.52.52,0,0,1-.26-.46.51.51,0,0,1,.07-.28.47.47,0,0,1,.18-.19.59.59,0,0,1,.26-.07.6.6,0,0,1,.27.07.66.66,0,0,1,.18.19.61.61,0,0,1,.06.28Zm-.76-.36a.39.39,0,0,0-.12.25h.75a.39.39,0,0,0-.12-.25.38.38,0,0,0-.26-.1A.37.37,0,0,0,635.22,554.31Z"/><path class="cls-4" d="M636.93,554.2a.39.39,0,0,1,.11.3v.65h-.14V555a.35.35,0,0,1-.14.13.51.51,0,0,1-.22,0,.47.47,0,0,1-.28-.08.27.27,0,0,1-.1-.22.29.29,0,0,1,.09-.22.52.52,0,0,1,.31-.08h.33v-.07a.24.24,0,0,0-.07-.2.31.31,0,0,0-.22-.07.58.58,0,0,0-.19,0,.35.35,0,0,0-.16.09l-.07-.11a.69.69,0,0,1,.19-.1.67.67,0,0,1,.24,0A.46.46,0,0,1,636.93,554.2Zm-.16.8a.33.33,0,0,0,.12-.16v-.18h-.33c-.18,0-.27.07-.27.19a.19.19,0,0,0,.08.15.33.33,0,0,0,.19,0A.46.46,0,0,0,636.77,555Z"/><path class="cls-4" d="M638.23,554.16a.5.5,0,0,1,.19.19.51.51,0,0,1,.07.28.53.53,0,0,1-.07.28.58.58,0,0,1-.19.19.6.6,0,0,1-.5,0,.64.64,0,0,1-.17-.16v.59h-.14V554.1h.14v.21a.44.44,0,0,1,.17-.16.46.46,0,0,1,.23-.06A.5.5,0,0,1,638.23,554.16Zm-.08.83a.54.54,0,0,0,.15-.15.46.46,0,0,0,.05-.21.54.54,0,0,0-.05-.22.4.4,0,0,0-.15-.14.32.32,0,0,0-.19,0,.36.36,0,0,0-.21,0,.38.38,0,0,0-.14.14.54.54,0,0,0-.05.22.46.46,0,0,0,.05.21.5.5,0,0,0,.14.15.46.46,0,0,0,.21,0A.41.41,0,0,0,638.15,555Z"/><path class="cls-4" d="M638.93,555.09a.5.5,0,0,1-.19-.19.6.6,0,0,1-.07-.27.61.61,0,0,1,.07-.28.58.58,0,0,1,.19-.19.68.68,0,0,1,.28-.07.6.6,0,0,1,.27.07.5.5,0,0,1,.19.19.51.51,0,0,1,.07.28.5.5,0,0,1-.07.27.44.44,0,0,1-.19.19.5.5,0,0,1-.27.07A.55.55,0,0,1,638.93,555.09Zm.48-.1a.4.4,0,0,0,.14-.15.46.46,0,0,0,.05-.21.51.51,0,0,0-.05-.22.32.32,0,0,0-.14-.14.35.35,0,0,0-.2,0,.33.33,0,0,0-.2,0,.32.32,0,0,0-.14.14.4.4,0,0,0,0,.22.36.36,0,0,0,0,.21.4.4,0,0,0,.14.15.42.42,0,0,0,.2,0A.46.46,0,0,0,639.41,555Z"/><path class="cls-4" d="M640.32,554.15a.45.45,0,0,1,.24-.06v.14h0a.33.33,0,0,0-.26.1.42.42,0,0,0-.1.29v.53H640v-1h.14v.21A.29.29,0,0,1,640.32,554.15Z"/><path class="cls-4" d="M641.42,555.09l-.1,0a.25.25,0,0,1-.12,0,.28.28,0,0,1-.23-.08.31.31,0,0,1-.08-.22v-.64h-.19v-.12h.19v-.23H641v.23h.32v.12H641v.63a.2.2,0,0,0,.05.14.17.17,0,0,0,.13,0h.09l.07,0Z"/><path class="cls-4" d="M626.62,541.61l.52-.35a5,5,0,0,0,.48-.32c.13-.1.11-.21.1-.36a.3.3,0,0,1,.09-.24s.12-.13.15-.13,0,0,.06,0l.09,0a.16.16,0,0,1,.06.18.6.6,0,0,0,.09.39,2,2,0,0,0,.38.32l.47.36c.11.09.22-.1.11-.19l-.51-.39c-.15-.12-.31-.2-.32-.4a.62.62,0,0,0-.06-.38c-.05-.06-.11-.07-.18-.11s-.1-.08-.17-.09-.27.14-.35.23a.53.53,0,0,0-.13.41s0,.1,0,.14a.71.71,0,0,1-.14.1l-.28.19-.56.37c-.12.08,0,.27.11.19Z"/><path class="cls-4" d="M630.79,541.46l.52-.35c.15-.1.33-.2.48-.32s.11-.22.1-.36a.27.27,0,0,1,.09-.24s.12-.13.15-.13l.06.05.09,0c.07.05.06.1.06.18a.6.6,0,0,0,.09.39,1.56,1.56,0,0,0,.37.31l.47.37c.12.08.23-.11.12-.19l-.51-.4c-.15-.11-.32-.2-.32-.39a.56.56,0,0,0-.07-.38.5.5,0,0,0-.17-.11c-.06,0-.1-.08-.17-.09s-.28.14-.35.23a.52.52,0,0,0-.13.41.17.17,0,0,1,0,.14,1.21,1.21,0,0,1-.14.1l-.28.18-.56.38c-.12.08,0,.27.11.19Z"/><path class="cls-4" d="M628.4,540.36l3.19,0a.11.11,0,1,0,0-.22l-3.19,0a.11.11,0,0,0,0,.22Z"/><path class="cls-4" d="M632.6,540.36h.59s0,0,0,0h0v0l0,.7a.11.11,0,0,0,.22,0l0-.4v-.2a.38.38,0,0,0,0-.21.22.22,0,0,0-.18-.1l-.19,0h-.41a.11.11,0,0,0,0,.22Z"/><path class="cls-4" d="M627.54,540.25a14,14,0,0,0-1.71,0,2.45,2.45,0,0,0-1,.58.72.72,0,0,0-.42.72l-.06,1.71a.12.12,0,0,0,.11.11c3,0,5.95.09,8.92-.14a.12.12,0,0,0,.11-.14,8.23,8.23,0,0,1-.11-1.64.11.11,0,0,0-.22,0,8.84,8.84,0,0,0,.12,1.7l.1-.14c-3,.23-5.94.17-8.92.14l.11.11,0-1.2c0-.19,0-.41,0-.6s.28-.42.51-.58a3.89,3.89,0,0,1,.39-.28,1.44,1.44,0,0,1,.79-.12l1.23,0a.11.11,0,0,0,0-.22Z"/><path class="cls-4" d="M628.73,541.16a11.78,11.78,0,0,0,1.19,0,3.7,3.7,0,0,1,1.15,0c.14,0,.2-.18.06-.21a3.76,3.76,0,0,0-1.16,0c-.41,0-.83,0-1.24,0-.14,0-.14.21,0,.22Z"/><path class="cls-4" d="M624.68,541.28c.77,0,1.53,0,2.3,0a.11.11,0,0,0,0-.22c-.77,0-1.53,0-2.3,0a.11.11,0,0,0,0,.22Z"/><path class="cls-4" d="M626.4,541.63c0,.55,0,1.11,0,1.66,0,.15.23.15.22,0,0-.55,0-1.11,0-1.66,0-.14-.21-.14-.22,0Z"/><path class="cls-4" d="M629.1,541.55a14,14,0,0,0,0,1.71c0,.14.24.14.22,0a14,14,0,0,1,0-1.71c0-.15-.21-.15-.22,0Z"/><path class="cls-4" d="M630.6,541.44a7.68,7.68,0,0,0,.09,1.66c0,.12.23.09.22,0V543c0-.14-.23-.15-.22,0v.1l.22,0a7.1,7.1,0,0,1-.09-1.6c0-.14-.21-.14-.22,0Z"/><path class="cls-5" d="M625.41,541.63a6.76,6.76,0,0,0,.06,1.27.21.21,0,0,0,.27.15.22.22,0,0,0,.16-.27c0-.08,0-.15,0-.26l0-.3c0-.19,0-.39,0-.59a.22.22,0,0,0-.22-.22.21.21,0,0,0-.22.22Z"/><path class="cls-5" d="M625.63,541.9a2.9,2.9,0,0,0,.51,0h.17l.05,0s0,0,0,0l0,0s0,0,0,0l0,0s0,0,0,0,0,0,0,0,0,0,0,0v0s0,0,0,0,0,.07,0,0,0,0,0,0,0,0,0,0h0v0s0,0,0,0l0,0h0s0,0,0,0l0,0,0,0h0l-.09,0h-.07s-.06,0,0,0h-.26a.22.22,0,0,0-.3.08.22.22,0,0,0,.08.3.84.84,0,0,0,.32.08,1.51,1.51,0,0,0,.3,0,.85.85,0,0,0,.45-.21.47.47,0,0,0,.1-.56.6.6,0,0,0-.46-.32,1.88,1.88,0,0,0-.34,0h-.28a.23.23,0,0,0-.28.15.25.25,0,0,0,.16.28Z"/><path class="cls-5" d="M626.91,541.75a6.55,6.55,0,0,0,0,1,.26.26,0,0,0,.07.16.25.25,0,0,0,.15.06c.11,0,.24-.1.22-.22a6.55,6.55,0,0,1,0-1,.24.24,0,0,0-.22-.22.22.22,0,0,0-.22.22Z"/><path class="cls-5" d="M627.81,541.85h.88a.22.22,0,0,0,.22-.22.22.22,0,0,0-.22-.22h-.88a.22.22,0,1,0,0,.44Z"/><path class="cls-5" d="M627.55,541.77s0,0,0,.05V542a1.5,1.5,0,0,0,0,.3.92.92,0,0,0,.19.53.6.6,0,0,0,.51.21l.3-.05.13,0h.09a.22.22,0,0,0,0-.44,1.75,1.75,0,0,0-.51.08h-.12s0,0,0,0l0,0s0,0,0,0l0,0,0,0h0a.22.22,0,0,1-.05-.08v0l0-.05s0-.07,0,0,0,0,0,0a.15.15,0,0,1,0-.07,4,4,0,0,0,0-.6c0-.11-.17-.18-.27-.15a.23.23,0,0,0-.15.27Z"/><path class="cls-5" d="M627.93,542.46a3.09,3.09,0,0,0,.86-.06.23.23,0,0,0,.16-.27.23.23,0,0,0-.28-.15h-.09l-.1,0h-.55a.22.22,0,0,0-.22.22.23.23,0,0,0,.22.22Z"/><path class="cls-5" d="M629,541.67a5.75,5.75,0,0,0,.07,1.17.22.22,0,0,0,.27.15.23.23,0,0,0,.16-.27.68.68,0,0,1,0-.14v0h0v-.07a2.46,2.46,0,0,1,0-.26,5,5,0,0,1,0-.55.22.22,0,0,0-.22-.22.22.22,0,0,0-.22.22Z"/><path class="cls-5" d="M629.44,541.84s0,0,0,0h.21l.09,0s0,0,0,0l0,0h0l0,0s0,0,0,0l0,0s0,0,0,0,0,0,0,0,0,0,0,0,0,0,0,0,0,0,0,0l0,0s0,0,0,0l0,0h0l-.06,0-.1,0-.22.05a.21.21,0,0,0-.16.18.23.23,0,0,0,.1.22,5,5,0,0,1,.63.38h0l0,0,.07.05.13.12a.25.25,0,0,0,.36,0,.24.24,0,0,0,0-.32.21.21,0,0,0-.26,0h0a.23.23,0,0,0-.08.31.22.22,0,0,0,.3.07h0l-.27,0h0l-.06-.1h0l0-.17h0l.13-.1h0l.17,0h0l0,0,0-.05-.12-.09-.25-.18a3.82,3.82,0,0,0-.48-.29l-.06.4a1.82,1.82,0,0,0,.56-.17.47.47,0,0,0,.17-.6.68.68,0,0,0-.45-.34.84.84,0,0,0-.6.08.22.22,0,0,0-.08.3.23.23,0,0,0,.3.08Z"/><path class="cls-5" d="M630.57,541.65a3.53,3.53,0,0,0,.13,1,.23.23,0,0,0,.27.16.23.23,0,0,0,.16-.27l-.06-.24a.43.43,0,0,1,0-.11v-.07s0-.06,0,0a2.58,2.58,0,0,1,0-.48.22.22,0,0,0-.44,0Z"/><path class="cls-5" d="M631.31,541.76h.57s0,0,0,0-.09-.17-.09-.12a1.76,1.76,0,0,0,0,.23c0,.15,0,.3,0,.44h0v.09s0,.07,0,.1,0,.16-.05.24a.22.22,0,1,0,.42.12,4.67,4.67,0,0,0,.13-1.11.46.46,0,0,0-.08-.32.35.35,0,0,0-.27-.1h-.57a.22.22,0,0,0-.22.22.22.22,0,0,0,.22.22Z"/><path class="cls-5" d="M631.53,542.45a3.84,3.84,0,0,1,.76,0,.24.24,0,0,0,.16-.07.18.18,0,0,0,.06-.15.23.23,0,0,0-.06-.16.25.25,0,0,0-.16-.06,3.84,3.84,0,0,0-.76,0,.22.22,0,0,0-.22.22.24.24,0,0,0,.22.22Z"/></g><g id="_5._ps234" data-name="5. ps234"><path class="cls-2" d="M611.31,515.2a.5.5,0,0,0,0-1,.5.5,0,0,0,0,1Z"/><path class="cls-6" d="M608.3,513.76a.82.82,0,0,1-.38,0l.07.1c0-.18,0-.36.07-.55s.06-.25,0-.36-.36-.15-.51-.1a.8.8,0,0,0-.47.43c-.08.18-.13.32-.36.33l-.44,0a1.73,1.73,0,0,0-1.39.73,1.87,1.87,0,0,0-.39,1.61c0,.12.24.07.19-.05a1.74,1.74,0,0,1,.37-1.46,1.6,1.6,0,0,1,1.32-.64,1.57,1.57,0,0,0,.61-.07c.18-.09.2-.28.29-.44a.63.63,0,0,1,.23-.23c.07,0,.24-.1.32,0s0,.31,0,.41,0,.27-.05.41,0,.08.07.09a1.1,1.1,0,0,0,.44,0c.13,0,.13-.21,0-.2Z"/><path class="cls-6" d="M605,516.13c-.1-.2-.51-.41-.66-.16a.64.64,0,0,0-.06.18,2,2,0,0,0-.05.24,1.3,1.3,0,0,0,0,.44.65.65,0,0,0,.53.55.7.7,0,0,0,.4-.09.41.41,0,0,0,.25-.29.65.65,0,0,0-.14-.46,3.08,3.08,0,0,0-.3-.41c-.09-.1-.23,0-.15.14a2.65,2.65,0,0,1,.21.26,2.54,2.54,0,0,1,.16.28.19.19,0,0,1,0,.25.66.66,0,0,1-.27.12.4.4,0,0,1-.43-.27,1.13,1.13,0,0,1,0-.63c0-.06,0-.13,0-.18s.05-.05.09,0a.34.34,0,0,1,.24.16c.06.12.23,0,.17-.1Z"/><path class="cls-6" d="M604.83,517.41a2.81,2.81,0,0,0,0,.29.42.42,0,0,0,0,.25.24.24,0,0,0,.25.09.37.37,0,0,0,.21-.16l-.17-.1a.15.15,0,0,0,0,.17.19.19,0,0,0,.15.09.27.27,0,0,0,.25-.22l-.15.06a.29.29,0,0,0,.32,0,.44.44,0,0,0,.09-.31,1.5,1.5,0,0,0-.26-.64c-.07-.1-.24,0-.17.11a1.28,1.28,0,0,1,.21.44.41.41,0,0,1,0,.22v0h0a.13.13,0,0,1-.09,0,.1.1,0,0,0-.15.06.06.06,0,0,1,0,0s0,0,0,0,0,0,0,0h0s0,0,0,0a.1.1,0,1,0-.17-.1.14.14,0,0,1-.1.07s0,0,0-.06a2.41,2.41,0,0,1,0-.38c0-.13-.19-.13-.2,0Z"/><path class="cls-6" d="M605.4,517l.82.24a.78.78,0,0,1,.36.16.7.7,0,0,1,.14.38.94.94,0,0,0,.69.82.1.1,0,0,0,.12-.07.58.58,0,0,0,0-.32l-.14.11a.52.52,0,0,0,.29.11c.06,0,.1,0,.1-.1a.68.68,0,0,0-.08-.31l-.13.14c.13.07.34.07.33-.14s-.44-.35-.56-.52c-.31-.45.54-.5.79-.59a1.8,1.8,0,0,0,.58-.31,1.89,1.89,0,0,0,.71-1.35,1.52,1.52,0,0,0-.27-.77c-.19-.27-.5-.39-.68-.66-.08-.11-.25,0-.18.1a1.62,1.62,0,0,0,.48.46,1.17,1.17,0,0,1,.45.87,1.71,1.71,0,0,1-.83,1.33,2.26,2.26,0,0,1-.63.23.92.92,0,0,0-.61.26.42.42,0,0,0,0,.48.67.67,0,0,0,.21.23l.15.1.07,0c.07.1.11.12.11.05a.11.11,0,0,0-.14.14.33.33,0,0,1,0,.21l.1-.1a.33.33,0,0,1-.19-.08c-.07-.06-.17,0-.15.11a.33.33,0,0,1,0,.22l.12-.07a.73.73,0,0,1-.53-.58,1.12,1.12,0,0,0-.18-.54.85.85,0,0,0-.47-.24l-.83-.24c-.12,0-.18.16-.05.19Z"/><path class="cls-6" d="M608,513.19a.32.32,0,0,1,.16.2,1.46,1.46,0,0,1,0,.36.09.09,0,0,0,.1.1.11.11,0,0,0,.1-.1,1.24,1.24,0,0,0,0-.43.48.48,0,0,0-.24-.3.1.1,0,1,0-.1.17Z"/><path class="cls-6" d="M608.17,513.71a.1.1,0,0,0,0-.2.1.1,0,0,0,0,.2Z"/><path class="cls-6" d="M607.35,514.16a.84.84,0,0,0-.79-.3.55.55,0,0,0-.42.19.64.64,0,0,0-.13.4,1,1,0,0,0,.43.76.72.72,0,0,0,.47.13.67.67,0,0,0,.41-.26,1,1,0,0,0,.17-.52.57.57,0,0,0-.17-.46c-.09-.08-.24.06-.14.14a.37.37,0,0,1,.11.29.87.87,0,0,1-.09.36.43.43,0,0,1-.25.23.4.4,0,0,1-.35,0,.74.74,0,0,1-.38-.54.49.49,0,0,1,0-.29.32.32,0,0,1,.26-.17.69.69,0,0,1,.67.19c.07.1.24,0,.17-.1Z"/><path class="cls-6" d="M607.17,514.19a.63.63,0,0,0-.66.24.78.78,0,0,0,0,.78.11.11,0,0,0,.14,0,.11.11,0,0,0,0-.14.55.55,0,0,1,0-.57.43.43,0,0,1,.44-.16.1.1,0,1,0,0-.19Z"/><path class="cls-6" d="M607.21,514.79a.1.1,0,0,0,0-.2.1.1,0,0,0,0,.2Z"/><path class="cls-6" d="M607.25,516.56a1.9,1.9,0,0,0,1.37,0,.1.1,0,0,0,.07-.12.11.11,0,0,0-.13-.07,1.74,1.74,0,0,1-1.25,0c-.12,0-.18.15-.06.19Z"/><path class="cls-6" d="M609.05,516.32l.81.28.39.14c.14,0,.26.07.33.21a1.12,1.12,0,0,0,1.11.58c.13,0,.13-.21,0-.2a1.14,1.14,0,0,1-.72-.19.65.65,0,0,1-.2-.26.49.49,0,0,0-.18-.22,1.69,1.69,0,0,0-.31-.13l-.39-.13-.79-.28c-.12,0-.18.16-.05.2Z"/><path class="cls-6" d="M609.24,516.05c.27.09.53.19.8.27l.4.13a1.16,1.16,0,0,0,.41.09c.13,0,.13-.21,0-.2a1,1,0,0,1-.38-.09l-.4-.13-.78-.27c-.12,0-.17.15,0,.2Z"/><path class="cls-6" d="M611.05,515.76a.63.63,0,0,0-.24,0,.38.38,0,0,0-.22.15.31.31,0,0,0,0,.13.53.53,0,0,0,0,.13.28.28,0,0,0,.14.21.49.49,0,0,0,.74-.35.33.33,0,0,0-.16-.25.54.54,0,0,0-.25-.09.09.09,0,0,0-.12.07.1.1,0,0,0,.07.12l.15,0,.06,0,0,0,0,0s0,0,0,0h0v0h0l0,0,0,0h0l0,0h0l0,0h0l0,0h-.14l0,0a.14.14,0,0,1-.08-.07.11.11,0,0,1,0-.06V516h0l0,0,.07,0a.41.41,0,0,1,.19,0,.11.11,0,0,0,.1-.1.1.1,0,0,0-.1-.1Z"/><path class="cls-6" d="M610.78,516h0l.06,0h0l0,0h0l0,0h0l0,0v0h0a.13.13,0,0,1,0,.06.1.1,0,0,0,.2-.06.48.48,0,0,0-.47-.38c-.06,0-.11,0-.1.1a.1.1,0,0,0,.1.1Z"/><path class="cls-6" d="M610.81,516.23a.1.1,0,0,0,0-.2.1.1,0,0,0,0,.2Z"/><path class="cls-6" d="M610.3,516l.18.08a.11.11,0,0,0,.08,0,.08.08,0,0,0,0-.06.08.08,0,0,0,0-.08v0l-.05,0-.18-.08a.11.11,0,0,0-.08,0,.08.08,0,0,0,0,.06.08.08,0,0,0,0,.08v0l0,0Z"/><path class="cls-6" d="M611.4,516.23a.22.22,0,0,0,.25-.16c0-.1,0-.29.17-.28s.12.11.07.19-.14.16-.18.25a.1.1,0,0,0,0,.14.36.36,0,0,1,.17.43,1.59,1.59,0,0,1-.13.22.57.57,0,0,1-.15.23c-.09.09.05.23.15.14a.76.76,0,0,0,.11-.14.89.89,0,0,0,.08-.17l.1-.14a.3.3,0,0,0,0-.16.54.54,0,0,0-.28-.58l0,.14c.06-.13.17-.2.22-.33a.3.3,0,0,0-.1-.36.3.3,0,0,0-.38,0,.37.37,0,0,0-.13.17s0,.08,0,.12,0,0,0,.06,0,0,0,0a.12.12,0,0,0-.12.07.11.11,0,0,0,.07.13Z"/><path class="cls-6" d="M611.33,516.59l-.06.27a.25.25,0,0,0,0,.17.2.2,0,0,0,.14.08l.29.06a.16.16,0,0,0,.16-.08.4.4,0,0,0,0-.15.34.34,0,0,0-.1-.27.1.1,0,0,0-.14.14v0s0,0,0,0h0v0h0v.06h0V517s0,0,0,0h0v0h0s0,0,0,0l0,0h0l-.22,0,0,0h0l0,0h0v0h0v0l0-.26a.1.1,0,1,0-.19,0Z"/><path class="cls-6" d="M611.12,516.73a.44.44,0,0,0-.32.34.22.22,0,0,0,0,.08.08.08,0,0,0,.06,0,.08.08,0,0,0,.08,0,.07.07,0,0,0,0-.06.14.14,0,0,0,0-.06v0a.56.56,0,0,1,0-.08v0l.06-.07,0,0,.08,0h0l0,0a.09.09,0,0,0,.07-.12.1.1,0,0,0-.12-.07Z"/><path class="cls-6" d="M611.22,517a3.05,3.05,0,0,0-.13.32.1.1,0,0,0,.07.12.1.1,0,0,0,.12-.07c0-.07.05-.14.08-.22v0a.59.59,0,0,1,0-.08.11.11,0,0,0,0-.08s0,0,0-.06a.09.09,0,0,0-.13,0Z"/><path class="cls-6" d="M611.51,517.14l-.09.24a.11.11,0,0,0,0,.08.07.07,0,0,0,.06,0,.08.08,0,0,0,.08,0,.09.09,0,0,0,0-.06l.09-.24a.09.09,0,0,0,0-.07.07.07,0,0,0-.06,0,.08.08,0,0,0-.08,0,.09.09,0,0,0,0,.06Z"/><path class="cls-6" d="M610.93,516.51a.82.82,0,0,0,.1.3.36.36,0,0,0,.24.19.09.09,0,0,0,.12-.07.1.1,0,0,0-.07-.12h0l0,0s0,0,0,0h0l0,0s0,0,0,0h0l0,0v0h0a.64.64,0,0,1,0-.07l0-.14a.09.09,0,0,0-.12-.06c-.06,0-.08.06-.07.12Z"/><polyline class="cls-7" points="625.62 536.23 623.02 532 616.02 528 620.93 519.11 612.3 514 611.31 514.7"/><path class="cls-4" d="M608.77,520.18a2.05,2.05,0,0,1-.28-1.08.65.65,0,0,1,0-.14s0,0,0,0,0,0,0,0h0s0,0,0,0h0s0,0,0,0,0,0,0,0,0,0,0,0a.26.26,0,0,1-.09.14.21.21,0,0,0-.07.27.21.21,0,0,0,.28.07.58.58,0,0,0,.22-.74.42.42,0,0,0-.71,0,.64.64,0,0,0-.07.41,2.12,2.12,0,0,0,0,.44,2.56,2.56,0,0,0,.29.8.2.2,0,0,0,.35-.2Z"/><path class="cls-4" d="M609.4,518.58a.29.29,0,0,0-.43,0,.42.42,0,0,0-.07.43,1,1,0,0,0,.16.33l0,.07s0,0,0,0,0,0,0,0v0h0s0,0,0,0l0,0h0a.13.13,0,0,1,.12,0,.2.2,0,1,0-.2.34.3.3,0,0,0,.42-.18,1,1,0,0,0-.15-.45l0,0v0s0,0,0,0l0,0a.31.31,0,0,0,0-.08v0s0,0,0,0v0s0,0,0,0,0,0,0,0,0,0,0,0h-.06l0,0h0a.21.21,0,0,0,.29,0,.21.21,0,0,0,0-.28Z"/><path class="cls-4" d="M610.11,518.62a.1.1,0,0,1-.07.09h0s0,0,0,0a.25.25,0,0,1,0,.07.45.45,0,0,1,.05.26h0a.06.06,0,0,1,0,0s0,0,0,0l-.12.12-.25.29a.2.2,0,0,0,.14.34,1.78,1.78,0,0,1,.6.16.21.21,0,0,0,.27-.08.2.2,0,0,0-.07-.27,2.21,2.21,0,0,0-.8-.21l.14.34c.13-.13.25-.27.37-.41a.68.68,0,0,0,.13-.27.86.86,0,0,0,0-.32.65.65,0,0,0-.28-.45.32.32,0,0,0-.47.27.22.22,0,0,0,.2.2c.1,0,.21-.09.2-.2Z"/><path class="cls-4" d="M611.05,518.57s0,0,0,0,0,0,0,0h0s0,0,0,0h0v0h0v0h0s0,0,0,0,0,.06,0,0a.14.14,0,0,1,0,.06s0,0,0,0,0,0,0,0l0,0,0,0h0l.11.38.14,0h0l0,0a.53.53,0,0,1,.08.26c0,.07,0,.12-.08.14h0a.21.21,0,0,0-.25-.14.21.21,0,0,0-.14.25.45.45,0,0,0,.51.28.5.5,0,0,0,.37-.41.78.78,0,0,0-.17-.64.53.53,0,0,0-.6-.13.2.2,0,0,0-.14.24.2.2,0,0,0,.25.14.55.55,0,0,0,.34-.81.41.41,0,0,0-.47-.19.39.39,0,0,0-.27.45.19.19,0,0,0,.24.14.19.19,0,0,0,.14-.24Z"/><path class="cls-4" d="M611.62,518.36a3.19,3.19,0,0,0,0,.62.17.17,0,0,0,0,.1.16.16,0,0,0,.07.07.18.18,0,0,0,.2,0l.09,0,0,0,.17,0h0a.2.2,0,0,0,0-.4.84.84,0,0,0-.46.13l.3.17a3.19,3.19,0,0,1,0-.62.21.21,0,0,0-.2-.2.22.22,0,0,0-.2.2Z"/><path class="cls-4" d="M612.29,518.26l-.1,1.49a.19.19,0,0,0,.2.2.21.21,0,0,0,.2-.2l.1-1.49a.2.2,0,0,0-.4,0Z"/><path class="cls-2" d="M622.05,515a.24.24,0,0,0,0-.48.24.24,0,0,0,0,.48Z"/><path class="cls-2" d="M622.72,513.8a.24.24,0,0,0,0-.48.24.24,0,0,0,0,.48Z"/><path class="cls-2" d="M622.07,516.59a.48.48,0,0,0,0-1,.48.48,0,0,0,0,1Z"/><path class="cls-8" d="M620.63,514.61l.09.17-.15-1.11a2.33,2.33,0,0,1-.42.75l1-.42a7.5,7.5,0,0,1-1.38-.83,8.37,8.37,0,0,0-1.9-.93l-.77,2.78c1.5.34,3-.26,4.49-.15,1.85.14,1.84-2.74,0-2.88a10.18,10.18,0,0,0-1.91.08,5.31,5.31,0,0,1-1.81.17,1.44,1.44,0,0,0-.77,2.78c1.37.45,2.48,1.85,4,1.86.89,0,1.3-.7,1.72-1.36a2.2,2.2,0,0,0,.27-2.37c-.81-1.66-3.3-.2-2.49,1.46Z"/><path class="cls-2" d="M623,514.84c-.21.35-.43.7-.66,1s-.48.84-1,.75a6.79,6.79,0,0,1-2.13-.85,15.65,15.65,0,0,1-1.83-1.21c-.55-.41-1.33-1.12-.86-1.87l-.27.11c1.28.22,2.55.44,3.82.68a12,12,0,0,1,1.68.39,6.2,6.2,0,0,1,.84.35l.32.18s.43.35.39.36c-.3,0-.31.51,0,.48.59-.06.55-.71.18-1a5.31,5.31,0,0,0-2-.92c-1.65-.45-3.39-.65-5.08-.95a.24.24,0,0,0-.27.11,1.67,1.67,0,0,0,.5,2.09,12.75,12.75,0,0,0,2.35,1.65,10.26,10.26,0,0,0,1.3.61,3.48,3.48,0,0,0,1.38.32,1.21,1.21,0,0,0,.87-.62c.33-.46.63-.94.92-1.43a.24.24,0,0,0-.41-.24Z"/><path class="cls-2" d="M623.61,514.58a2.67,2.67,0,0,0-2.26-2.83c-1.69-.36-3.3.38-5,.56-.31,0-.31.51,0,.48a26.91,26.91,0,0,1,4.18-.65c1.22.05,2.76.86,2.56,2.31,0,.3.42.43.47.13Z"/><path d="M619.86,517.71a1,1,0,0,0,0-1.92,1,1,0,0,0,0,1.92Z"/><path d="M617,516.05a1,1,0,0,0,0-1.92,1,1,0,0,0,0,1.92Z"/><path class="cls-5" d="M619.86,517a.24.24,0,0,0,0-.48.24.24,0,0,0,0,.48Z"/><path class="cls-5" d="M617.08,515.36a.24.24,0,0,0,0-.48.24.24,0,0,0,0,.48Z"/><path class="cls-2" d="M619.57,514.25a.24.24,0,0,0,0-.48.24.24,0,0,0,0,.48Z"/><path class="cls-2" d="M621,515.79a.24.24,0,0,0,0-.48.24.24,0,0,0,0,.48Z"/><path class="cls-2" d="M618.63,515.6a.48.48,0,0,0,0-1,.48.48,0,0,0,0,1Z"/><path class="cls-2" d="M618,513.54a.24.24,0,0,0,0-.48.24.24,0,0,0,0,.48Z"/><path class="cls-2" d="M621.32,514.36a.48.48,0,0,0,0-1,.48.48,0,0,0,0,1Z"/><path class="cls-2" d="M621.74,512.94a.48.48,0,0,0,0-1,.48.48,0,0,0,0,1Z"/><path class="cls-2" d="M619.9,512.68a.24.24,0,0,0,0-.48.24.24,0,0,0,0,.48Z"/><path class="cls-5" d="M621.85,514.8l-.31.49.33-.09-.21-.13.05,0,0,0,0,0h0l0,.06v.09a.5.5,0,0,1,0-.13l0,.06a1.08,1.08,0,0,1,.12-.24l0,0,0,0,0,0,0,0-.06,0h0l-.06,0h0l0,0,0,0,0,0h0l0-.05h0v0a.22.22,0,0,0,.07.17.26.26,0,0,0,.17.07.28.28,0,0,0,.17-.07.36.36,0,0,0,.07-.17.32.32,0,0,0-.16-.28.37.37,0,0,0-.27-.05.51.51,0,0,0-.31.28.88.88,0,0,0-.09.2.56.56,0,0,0-.06.21c0,.2.21.29.36.38a.25.25,0,0,0,.33-.08l.31-.49a.26.26,0,0,0-.09-.33.25.25,0,0,0-.33.09Z"/><path class="cls-5" d="M620.92,514.29a2,2,0,0,1-.23.34l0,0,0,0,0,0h0l0,0h.09l0,0-.11-.06-.11,0,0,0h0l0,.05h0l0,.06h0v.11l0-.14a.56.56,0,0,0,0-.12l0,.06a.22.22,0,0,1,0-.08l0,0,0,0,0,0,0,0,0,0,0,0h0l-.06,0h0l0,0,0,0,0-.05h0a.19.19,0,0,0,.14.11.22.22,0,0,0,.18,0,.24.24,0,0,0,.09-.33.39.39,0,0,0-.46-.16l-.11,0a.44.44,0,0,0-.13.14.66.66,0,0,0-.09.19c0,.06,0,.12,0,.17a.33.33,0,0,0,0,.24.24.24,0,0,0,.14.12l.18.09a.34.34,0,0,0,.24,0,.31.31,0,0,0,.15-.1,4.21,4.21,0,0,0,.28-.41.22.22,0,0,0,0-.18.23.23,0,0,0-.11-.14.25.25,0,0,0-.33.08Z"/><path class="cls-5" d="M619.77,513.69l-.08.13,0,.06,0,0h0l0,0,.12,0h0s-.07,0,0,0l-.09,0-.17-.08-.35-.19-.05.43.1,0h.29l.1,0,0,0,.05,0h0l0,0a.24.24,0,0,0,.33-.08.24.24,0,0,0-.09-.33,1.19,1.19,0,0,0-1-.08.25.25,0,0,0-.17.2.25.25,0,0,0,.11.24,3.71,3.71,0,0,0,.56.29l.18.08a.28.28,0,0,0,.3-.07.78.78,0,0,0,.1-.15l.09-.15a.23.23,0,0,0-.08-.32.24.24,0,0,0-.33.08Z"/><path d="M622.18,516a8.42,8.42,0,0,0-2.52-1.27,4.78,4.78,0,0,1-2.4-1.34c-.19-.24-.53.11-.34.34a4.68,4.68,0,0,0,2.35,1.37,8.85,8.85,0,0,1,2.67,1.31c.25.19.49-.23.24-.41Z"/><path d="M618.35,513.44a5.12,5.12,0,0,0-.73-.39.31.31,0,0,0-.19,0,.25.25,0,0,0-.14.11.23.23,0,0,0,0,.18.28.28,0,0,0,.11.15,5.22,5.22,0,0,1,.74.39.25.25,0,0,0,.33-.09.26.26,0,0,0-.09-.33Z"/><path class="cls-4" d="M621,514.29c.07,0,.09.08.08.15a.23.23,0,0,1-.11.18.09.09,0,0,1-.13-.06.25.25,0,0,1,0-.19c0-.06.09-.11.15-.06a0,0,0,0,0,0,0s0,0,0,0a.18.18,0,0,0-.24.06.37.37,0,0,0,0,.27.19.19,0,0,0,.21.14.3.3,0,0,0,.18-.23.25.25,0,0,0,0-.17.19.19,0,0,0-.12-.1,0,0,0,1,0,0,.08Z"/><path class="cls-4" d="M620.76,514.68l-.13.21s0,0,0,.05a0,0,0,0,0,.05,0l.13-.21s0,0,0-.05a.06.06,0,0,0-.06,0Z"/><path class="cls-4" d="M621,514.39a.3.3,0,0,1,0,.2.64.64,0,0,0-.08.19.22.22,0,0,0,0,.18.19.19,0,0,0,.15.08s0-.08,0-.08a.11.11,0,0,1-.1-.07.25.25,0,0,1,0-.17c0-.06.06-.11.08-.16a.51.51,0,0,0,0-.17,0,0,0,0,0-.08,0Z"/><path class="cls-4" d="M620.9,514.22a.1.1,0,0,0-.11,0l-.08.12a.23.23,0,0,1-.08.11h0s-.09,0-.07,0a.1.1,0,0,0,.12,0,.13.13,0,0,0,.1-.08l.08-.13a.1.1,0,0,1,0,0,0,0,0,0,1,0,0h0a0,0,0,0,0,0,0s0,0,0,0Z"/><path class="cls-4" d="M620.84,515a.18.18,0,0,0-.08-.05h-.1s0,0,0,0h0v0h0v-.06h0a0,0,0,0,0-.08,0,.24.24,0,0,0,.1.19l.09,0h.06s0,0,.06,0a0,0,0,0,0,0,0Z"/><path class="cls-2" d="M622.61,515.16a.24.24,0,0,0,0-.48.24.24,0,0,0,0,.48Z"/><path class="cls-2" d="M621.61,517.16a.24.24,0,0,0,0-.48.24.24,0,0,0,0,.48Z"/></g></svg>