<svg xmlns="http://www.w3.org/2000/svg" viewBox="0 0 1357.03 1080"><defs><style>.cls-1,.cls-3{fill:none;stroke-width:0.2px;}.cls-1{stroke:#fff;}.cls-1,.cls-10,.cls-3{stroke-miterlimit:10;}.cls-10,.cls-2{fill:#f7931e;}.cls-3{stroke:#c1272d;}.cls-4{fill:#c1272d;}.cls-5{fill:#fff;}.cls-6{fill:#c69c6d;}.cls-7{fill:#a67c52;}.cls-8{fill:blue;}.cls-9{fill:#f15a24;}.cls-10{stroke:#f7931e;stroke-width:0.4px;}</style></defs><g id="manhattan_detail" data-name="manhattan detail"><polyline class="cls-1" points="629.02 533 629.7 534.03 631.02 536"/><line class="cls-1" x1="630.02" y1="537" x2="629.7" y2="534.03"/><line class="cls-1" x1="632.02" y1="534" x2="618.02" y2="545"/><polyline class="cls-1" points="632.02 533 621.02 540 618.02 543"/><path class="cls-1" d="M623,524l6,6h0a10.37,10.37,0,0,1,3,3,10.62,10.62,0,0,1,1,2"/><line class="cls-1" x1="627.02" y1="535" x2="629.02" y2="538"/><line class="cls-1" x1="626.02" y1="540" x2="621.84" y2="535.51"/><polyline class="cls-1" points="629.02 532 625.4 536.5 627.02 539"/><polyline class="cls-1" points="623.93 537.47 625.4 536.5 624.08 534.5"/><path class="cls-2" d="M630,533.2a.5.5,0,0,0,0-1,.5.5,0,0,0,0,1Z"/><polyline class="cls-3" points="620.93 544.29 618.02 541.1 615.02 539"/><line class="cls-1" x1="623.93" y1="541.75" x2="619.14" y2="537"/><line class="cls-1" x1="620.26" y1="540.76" x2="616.03" y2="537.47"/><polyline class="cls-1" points="624.75 535.51 620.68 537.76 617.02 542"/><path class="cls-4" d="M620.84,551.1a31.44,31.44,0,0,1,.41-6.35c0-.45-.57-.63-.85-.35l-1.15,1.13.78.61c.15-.25.45-.73.76-.79h-.27c.16,0,.35.3.47.4l.6.55c.48.44,1.19-.27.71-.71l-.83-.75a1.19,1.19,0,0,0-.88-.46c-.6,0-1.14.79-1.42,1.25a.5.5,0,0,0,.78.61l1.16-1.14-.86-.35a31.44,31.44,0,0,0-.41,6.35.5.5,0,0,0,1,0Z"/><path class="cls-4" d="M617.24,552.7l-.47,1.4h-.15l-.41-1.2-.42,1.2h-.15l-.47-1.4h.15l.4,1.2.42-1.2h.14l.41,1.21.41-1.21Z"/><path class="cls-4" d="M618.09,553.14a.41.41,0,0,1,.11.3v.66h-.14v-.17a.29.29,0,0,1-.14.13.51.51,0,0,1-.22.05.41.41,0,0,1-.28-.09.27.27,0,0,1-.11-.22.3.3,0,0,1,.1-.22.52.52,0,0,1,.31-.08h.33v-.06a.28.28,0,0,0-.07-.21.31.31,0,0,0-.22-.07.64.64,0,0,0-.2,0,.56.56,0,0,0-.15.1l-.07-.11a.72.72,0,0,1,.19-.11,1,1,0,0,1,.24,0A.46.46,0,0,1,618.09,553.14Zm-.16.8a.33.33,0,0,0,.12-.16v-.17h-.33c-.18,0-.27.06-.27.19a.17.17,0,0,0,.07.14.32.32,0,0,0,.2.06A.37.37,0,0,0,617.93,553.94Z"/><path class="cls-4" d="M618.58,552.61h.14v1.49h-.14Z"/><path class="cls-4" d="M619.12,552.61h.14v1.49h-.14Z"/><path class="cls-4" d="M621,554a.55.55,0,0,1-.34.12v.23h-.1v-.23a1.27,1.27,0,0,1-.28-.06.56.56,0,0,1-.2-.12l.06-.12a.41.41,0,0,0,.18.12.6.6,0,0,0,.24.05v-.52l-.23-.08a.31.31,0,0,1-.16-.11.32.32,0,0,1-.06-.2.36.36,0,0,1,.11-.26.55.55,0,0,1,.34-.12v-.23h.1v.22l.22,0a.51.51,0,0,1,.18.09l0,.12a.56.56,0,0,0-.17-.09l-.18,0v.53l.24.07a.61.61,0,0,1,.16.12.3.3,0,0,1,.06.2A.34.34,0,0,1,621,554Zm-.67-.77a.61.61,0,0,0,.23.09v-.5a.37.37,0,0,0-.23.09.2.2,0,0,0-.07.16A.18.18,0,0,0,620.33,553.22Zm.56.68a.19.19,0,0,0,.08-.17.17.17,0,0,0-.08-.16,1.1,1.1,0,0,0-.23-.09v.5A.37.37,0,0,0,620.89,553.9Z"/><path class="cls-4" d="M622,554a.21.21,0,0,1-.1.06l-.13,0a.31.31,0,0,1-.22-.08.3.3,0,0,1-.08-.23v-.63h-.19V553h.19v-.23h.14V553h.32v.13h-.32v.62a.22.22,0,0,0,0,.15.21.21,0,0,0,.14,0h.08a.2.2,0,0,0,.08,0Z"/><path class="cls-4" d="M622.51,553.09a.45.45,0,0,1,.24-.05v.13h0a.36.36,0,0,0-.26.1.44.44,0,0,0-.09.29v.54h-.15V553h.14v.21A.33.33,0,0,1,622.51,553.09Z"/><path class="cls-4" d="M623.92,553.61H623a.38.38,0,0,0,.12.27.41.41,0,0,0,.29.1.52.52,0,0,0,.18,0,.49.49,0,0,0,.14-.11l.08.09a.43.43,0,0,1-.17.13.59.59,0,0,1-.23.05.65.65,0,0,1-.29-.07.61.61,0,0,1-.2-.19.64.64,0,0,1-.07-.28.68.68,0,0,1,.07-.28.66.66,0,0,1,.18-.19.6.6,0,0,1,.27-.06.58.58,0,0,1,.26.06.47.47,0,0,1,.18.19.53.53,0,0,1,.07.28Zm-.77-.35a.31.31,0,0,0-.11.25h.74a.39.39,0,0,0-.11-.25.39.39,0,0,0-.52,0Z"/><path class="cls-4" d="M625.12,553.61h-.88a.39.39,0,0,0,.13.27.41.41,0,0,0,.29.1l.18,0a.49.49,0,0,0,.14-.11l.08.09a.4.4,0,0,1-.18.13.56.56,0,0,1-.23.05.64.64,0,0,1-.28-.07.52.52,0,0,1-.2-.19.53.53,0,0,1-.07-.28.55.55,0,0,1,.07-.28.47.47,0,0,1,.18-.19.6.6,0,0,1,.27-.06.58.58,0,0,1,.26.06.47.47,0,0,1,.18.19.64.64,0,0,1,.07.28Zm-.76-.35a.35.35,0,0,0-.12.25H625a.35.35,0,0,0-.12-.25.33.33,0,0,0-.25-.1A.34.34,0,0,0,624.36,553.26Z"/><path class="cls-4" d="M626,554a.21.21,0,0,1-.1.06l-.12,0a.32.32,0,0,1-.23-.08.34.34,0,0,1-.08-.23v-.63h-.19V553h.19v-.23h.14V553h.32v.13h-.32v.62a.23.23,0,0,0,0,.15.18.18,0,0,0,.13,0h.09l.07,0Z"/><path class="cls-4" d="M636.11,547.8a9.84,9.84,0,0,1-1.79-1.49c-.61-.61-1.2-1.24-1.8-1.87a.45.45,0,0,0-.76.32v1.46l.88-.12a2,2,0,0,1-.08-.55,1.56,1.56,0,0,1,0-.31s0-.11,0-.12l-.08.09,0,0a3.27,3.27,0,0,0,.57-.16l.67-.2a.44.44,0,0,0-.23-.85l-.85.24a1.79,1.79,0,0,0-.8.34,1.3,1.3,0,0,0-.25.88,2.74,2.74,0,0,0,.1.9.45.45,0,0,0,.87-.12v-1.46l-.76.31c.61.64,1.22,1.29,1.84,1.92a10.78,10.78,0,0,0,1.93,1.57.44.44,0,0,0,.45-.76Z"/><path class="cls-4" d="M633.64,550.32a2.12,2.12,0,0,1-.06-.52,2.1,2.1,0,0,1,.06-.51,1.33,1.33,0,0,1,.18-.42H634a1.61,1.61,0,0,0-.17.43,2,2,0,0,0-.06.5,2.1,2.1,0,0,0,.06.51,1.61,1.61,0,0,0,.17.43h-.13A1.33,1.33,0,0,1,633.64,550.32Z"/><path class="cls-4" d="M634.79,550.29l-.1.05a.3.3,0,0,1-.43-.28v-.64h-.19v-.12h.19v-.23h.14v.23h.32v.12h-.32v.63a.16.16,0,0,0,.05.14.17.17,0,0,0,.13,0h.09l.07,0Z"/><path class="cls-4" d="M635.89,549.41a.43.43,0,0,1,.12.33v.61h-.14v-.59a.36.36,0,0,0-.08-.25.31.31,0,0,0-.24-.09.33.33,0,0,0-.26.1.37.37,0,0,0-.1.28v.55H635v-1.48h.15v.61a.37.37,0,0,1,.16-.14.52.52,0,0,1,.23-.05A.4.4,0,0,1,635.89,549.41Z"/><path class="cls-4" d="M637.32,549.87h-.88a.42.42,0,0,0,.12.27.48.48,0,0,0,.29.1.48.48,0,0,0,.18,0,.36.36,0,0,0,.14-.1l.08.09a.37.37,0,0,1-.17.13.59.59,0,0,1-.23,0,.54.54,0,0,1-.29-.07.44.44,0,0,1-.19-.19.5.5,0,0,1-.08-.27.61.61,0,0,1,.07-.28.58.58,0,0,1,.19-.19.53.53,0,0,1,.26-.07.56.56,0,0,1,.26.07.47.47,0,0,1,.18.19.51.51,0,0,1,.07.28Zm-.77-.36a.44.44,0,0,0-.11.25h.74a.44.44,0,0,0-.11-.25.39.39,0,0,0-.52,0Z"/><path class="cls-4" d="M638.29,550.29a.44.44,0,0,1-.19-.19.5.5,0,0,1-.07-.27.51.51,0,0,1,.07-.28.5.5,0,0,1,.19-.19.6.6,0,0,1,.27-.07.61.61,0,0,1,.28.07.58.58,0,0,1,.19.19.61.61,0,0,1,.07.28.6.6,0,0,1-.07.27.5.5,0,0,1-.19.19.51.51,0,0,1-.28.07A.5.5,0,0,1,638.29,550.29Zm.47-.1a.4.4,0,0,0,.14-.15.36.36,0,0,0,.05-.21.4.4,0,0,0-.05-.22.38.38,0,0,0-.34-.19.35.35,0,0,0-.2.05.38.38,0,0,0-.14.14.51.51,0,0,0-.05.22.46.46,0,0,0,.05.21.5.5,0,0,0,.14.15.46.46,0,0,0,.2,0A.39.39,0,0,0,638.76,550.19Z"/><path class="cls-4" d="M639.39,548.87h.14v1.48h-.14Z"/><path class="cls-4" d="M640.89,548.87v1.48h-.14v-.21a.46.46,0,0,1-.17.17.6.6,0,0,1-.24.05.48.48,0,0,1-.26-.07.39.39,0,0,1-.19-.19.5.5,0,0,1-.07-.27.51.51,0,0,1,.07-.28.44.44,0,0,1,.19-.19.48.48,0,0,1,.26-.07.41.41,0,0,1,.23.06.35.35,0,0,1,.17.15v-.63Zm-.34,1.32a.4.4,0,0,0,.14-.15.37.37,0,0,0,.06-.21.4.4,0,0,0-.06-.22.32.32,0,0,0-.14-.14.3.3,0,0,0-.19-.05.36.36,0,0,0-.21.05.38.38,0,0,0-.14.14.51.51,0,0,0,0,.22.46.46,0,0,0,0,.21.5.5,0,0,0,.14.15.46.46,0,0,0,.21,0A.38.38,0,0,0,640.55,550.19Z"/><path class="cls-4" d="M641.16,550.74a1.63,1.63,0,0,0,.18-.43,2.58,2.58,0,0,0,0-1,1.63,1.63,0,0,0-.18-.43h.14a1.6,1.6,0,0,1,.17.42,2.1,2.1,0,0,1,.06.51,2.12,2.12,0,0,1-.06.52,1.32,1.32,0,0,1-.17.42Z"/><path class="cls-4" d="M631.59,552.71a.48.48,0,0,1-.22-.13l.06-.11a.48.48,0,0,0,.2.12.75.75,0,0,0,.26,0,.45.45,0,0,0,.28-.07.24.24,0,0,0,.1-.18.15.15,0,0,0-.06-.13.25.25,0,0,0-.12-.08l-.21-.06a1.86,1.86,0,0,1-.25-.08.36.36,0,0,1-.16-.11.34.34,0,0,1,0-.4.4.4,0,0,1,.17-.14.79.79,0,0,1,.29,0,.85.85,0,0,1,.23,0,.75.75,0,0,1,.2.09l-.05.12a.42.42,0,0,0-.18-.08l-.2,0a.45.45,0,0,0-.28.07.21.21,0,0,0-.09.18.17.17,0,0,0,.05.13.22.22,0,0,0,.13.08l.21.06a1.67,1.67,0,0,1,.24.08.39.39,0,0,1,.17.11.32.32,0,0,1,.06.2.36.36,0,0,1-.06.2.34.34,0,0,1-.17.13.65.65,0,0,1-.29,0A.79.79,0,0,1,631.59,552.71Z"/><path class="cls-4" d="M632.86,552.69a.44.44,0,0,1-.19-.19.5.5,0,0,1-.07-.27.51.51,0,0,1,.07-.28.52.52,0,0,1,.46-.26.51.51,0,0,1,.28.07.58.58,0,0,1,.19.19.61.61,0,0,1,.07.28.6.6,0,0,1-.07.27.5.5,0,0,1-.19.19.51.51,0,0,1-.28.07A.5.5,0,0,1,632.86,552.69Zm.47-.11a.32.32,0,0,0,.14-.14.36.36,0,0,0,0-.21.4.4,0,0,0,0-.22.38.38,0,0,0-.34-.19.35.35,0,0,0-.2,0,.38.38,0,0,0-.14.14.51.51,0,0,0,0,.22.46.46,0,0,0,0,.21.38.38,0,0,0,.14.14.36.36,0,0,0,.2.06A.32.32,0,0,0,633.33,552.58Z"/><path class="cls-4" d="M634.91,551.7v1h-.14v-.19a.54.54,0,0,1-.15.15.56.56,0,0,1-.23,0,.4.4,0,0,1-.44-.45v-.61h.14v.6a.37.37,0,0,0,.08.25.31.31,0,0,0,.24.08.34.34,0,0,0,.26-.1.39.39,0,0,0,.09-.28v-.55Z"/><path class="cls-4" d="M635.86,552.69l-.1,0a.25.25,0,0,1-.12,0,.28.28,0,0,1-.23-.08.27.27,0,0,1-.08-.22v-.64h-.19v-.12h.19v-.23h.14v.23h.32v.12h-.32v.63a.2.2,0,0,0,0,.14.17.17,0,0,0,.13,0h.09l.07,0Z"/><path class="cls-4" d="M637,551.81a.47.47,0,0,1,.11.33v.61h-.14v-.59a.36.36,0,0,0-.08-.25.31.31,0,0,0-.24-.09.33.33,0,0,0-.26.1.37.37,0,0,0-.1.28v.55h-.14v-1.48h.14v.61a.44.44,0,0,1,.16-.14.56.56,0,0,1,.23,0A.44.44,0,0,1,637,551.81Z"/><path class="cls-4" d="M638.11,552.71a.43.43,0,0,1-.22-.13l.06-.11a.48.48,0,0,0,.2.12.75.75,0,0,0,.26,0,.45.45,0,0,0,.28-.07.24.24,0,0,0,.1-.18.15.15,0,0,0-.06-.13.25.25,0,0,0-.12-.08l-.21-.06a1.86,1.86,0,0,1-.25-.08.36.36,0,0,1-.16-.11.34.34,0,0,1,0-.4.4.4,0,0,1,.17-.14.79.79,0,0,1,.29,0,.85.85,0,0,1,.23,0,.75.75,0,0,1,.2.09l0,.12a.46.46,0,0,0-.19-.08.63.63,0,0,0-.19,0,.45.45,0,0,0-.28.07.21.21,0,0,0-.09.18.17.17,0,0,0,0,.13.22.22,0,0,0,.13.08l.21.06a1.67,1.67,0,0,1,.24.08.39.39,0,0,1,.17.11.32.32,0,0,1,.06.2.36.36,0,0,1-.06.2.34.34,0,0,1-.17.13.65.65,0,0,1-.29,0A.76.76,0,0,1,638.11,552.71Z"/><path class="cls-4" d="M639.78,552.69l-.1,0a.25.25,0,0,1-.12,0,.28.28,0,0,1-.23-.08.27.27,0,0,1-.08-.22v-.64h-.19v-.12h.19v-.23h.14v.23h.32v.12h-.32v.63a.2.2,0,0,0,.05.14.17.17,0,0,0,.13,0h.09l.07,0Z"/><path class="cls-4" d="M640.32,551.75a.48.48,0,0,1,.24-.06v.14h0a.33.33,0,0,0-.26.1.42.42,0,0,0-.09.29v.53H640v-1h.13v.21A.26.26,0,0,1,640.32,551.75Z"/><path class="cls-4" d="M641.73,552.27h-.88a.38.38,0,0,0,.12.27.46.46,0,0,0,.29.1.48.48,0,0,0,.18,0,.36.36,0,0,0,.14-.1l.08.09a.37.37,0,0,1-.17.13.59.59,0,0,1-.23,0,.54.54,0,0,1-.29-.07.52.52,0,0,1-.2-.19.6.6,0,0,1-.07-.27.61.61,0,0,1,.07-.28.58.58,0,0,1,.19-.19.44.44,0,0,1,.26-.07.46.46,0,0,1,.26.07.47.47,0,0,1,.18.19.51.51,0,0,1,.07.28Zm-.77-.36a.38.38,0,0,0-.11.25h.74a.44.44,0,0,0-.11-.25.39.39,0,0,0-.52,0Z"/><path class="cls-4" d="M642.93,552.27h-.88a.39.39,0,0,0,.13.27.46.46,0,0,0,.29.1.58.58,0,0,0,.18,0,.45.45,0,0,0,.14-.1l.08.09a.43.43,0,0,1-.17.13.64.64,0,0,1-.24,0,.53.53,0,0,1-.28-.07.46.46,0,0,1-.2-.19.6.6,0,0,1-.07-.27A.51.51,0,0,1,642,552a.47.47,0,0,1,.18-.19.5.5,0,0,1,.27-.07.48.48,0,0,1,.26.07.47.47,0,0,1,.18.19.61.61,0,0,1,.07.28Zm-.76-.36a.39.39,0,0,0-.12.25h.75a.39.39,0,0,0-.12-.25.37.37,0,0,0-.25-.1A.4.4,0,0,0,642.17,551.91Z"/><path class="cls-4" d="M643.78,552.69l-.1,0a.25.25,0,0,1-.12,0,.28.28,0,0,1-.23-.08.31.31,0,0,1-.08-.22v-.64h-.19v-.12h.19v-.23h.14v.23h.32v.12h-.32v.63a.2.2,0,0,0,.05.14.19.19,0,0,0,.13,0h.09l.07,0Z"/><path class="cls-4" d="M634,555.11a.48.48,0,0,1-.22-.13l.06-.11a.56.56,0,0,0,.2.12.8.8,0,0,0,.26,0,.43.43,0,0,0,.28-.07.21.21,0,0,0,.1-.18.17.17,0,0,0,0-.13.35.35,0,0,0-.13-.08l-.2-.06-.26-.08a.42.42,0,0,1-.16-.11.33.33,0,0,1-.06-.21.32.32,0,0,1,.05-.19.47.47,0,0,1,.17-.14.84.84,0,0,1,.29,0l.24,0a1.21,1.21,0,0,1,.2.09l-.05.12a.77.77,0,0,0-.19-.08.69.69,0,0,0-.2,0,.47.47,0,0,0-.28.07.21.21,0,0,0-.09.18.17.17,0,0,0,.05.13.26.26,0,0,0,.13.08l.21.06.25.08a.42.42,0,0,1,.16.11.32.32,0,0,1,.06.2.46.46,0,0,1,0,.2.42.42,0,0,1-.18.13.63.63,0,0,1-.29,0A.79.79,0,0,1,634,555.11Z"/><path class="cls-4" d="M636,554.67h-.88a.39.39,0,0,0,.13.27.44.44,0,0,0,.29.1.58.58,0,0,0,.18,0,.45.45,0,0,0,.14-.1l.08.09a.46.46,0,0,1-.18.13.59.59,0,0,1-.23,0,.57.57,0,0,1-.29-.07.52.52,0,0,1-.26-.46.51.51,0,0,1,.07-.28.47.47,0,0,1,.18-.19.59.59,0,0,1,.26-.07.6.6,0,0,1,.27.07.66.66,0,0,1,.18.19.61.61,0,0,1,.06.28Zm-.76-.36a.39.39,0,0,0-.12.25h.75a.39.39,0,0,0-.12-.25.38.38,0,0,0-.26-.1A.37.37,0,0,0,635.22,554.31Z"/><path class="cls-4" d="M636.93,554.2a.39.39,0,0,1,.11.3v.65h-.14V555a.35.35,0,0,1-.14.13.51.51,0,0,1-.22,0,.47.47,0,0,1-.28-.08.27.27,0,0,1-.1-.22.29.29,0,0,1,.09-.22.52.52,0,0,1,.31-.08h.33v-.07a.24.24,0,0,0-.07-.2.31.31,0,0,0-.22-.07.58.58,0,0,0-.19,0,.35.35,0,0,0-.16.09l-.07-.11a.69.69,0,0,1,.19-.1.67.67,0,0,1,.24,0A.46.46,0,0,1,636.93,554.2Zm-.16.8a.33.33,0,0,0,.12-.16v-.18h-.33c-.18,0-.27.07-.27.19a.19.19,0,0,0,.08.15.33.33,0,0,0,.19,0A.46.46,0,0,0,636.77,555Z"/><path class="cls-4" d="M638.23,554.16a.5.5,0,0,1,.19.19.51.51,0,0,1,.07.28.53.53,0,0,1-.07.28.58.58,0,0,1-.19.19.6.6,0,0,1-.5,0,.64.64,0,0,1-.17-.16v.59h-.14V554.1h.14v.21a.44.44,0,0,1,.17-.16.46.46,0,0,1,.23-.06A.5.5,0,0,1,638.23,554.16Zm-.08.83a.54.54,0,0,0,.15-.15.46.46,0,0,0,.05-.21.54.54,0,0,0-.05-.22.4.4,0,0,0-.15-.14.32.32,0,0,0-.19,0,.36.36,0,0,0-.21,0,.38.38,0,0,0-.14.14.54.54,0,0,0-.05.22.46.46,0,0,0,.05.21.5.5,0,0,0,.14.15.46.46,0,0,0,.21,0A.41.41,0,0,0,638.15,555Z"/><path class="cls-4" d="M638.93,555.09a.5.5,0,0,1-.19-.19.6.6,0,0,1-.07-.27.61.61,0,0,1,.07-.28.58.58,0,0,1,.19-.19.68.68,0,0,1,.28-.07.6.6,0,0,1,.27.07.5.5,0,0,1,.19.19.51.51,0,0,1,.07.28.5.5,0,0,1-.07.27.44.44,0,0,1-.19.19.5.5,0,0,1-.27.07A.55.55,0,0,1,638.93,555.09Zm.48-.1a.4.4,0,0,0,.14-.15.46.46,0,0,0,.05-.21.51.51,0,0,0-.05-.22.32.32,0,0,0-.14-.14.35.35,0,0,0-.2,0,.33.33,0,0,0-.2,0,.32.32,0,0,0-.14.14.4.4,0,0,0,0,.22.36.36,0,0,0,0,.21.4.4,0,0,0,.14.15.42.42,0,0,0,.2,0A.46.46,0,0,0,639.41,555Z"/><path class="cls-4" d="M640.32,554.15a.45.45,0,0,1,.24-.06v.14h0a.33.33,0,0,0-.26.1.42.42,0,0,0-.1.29v.53H640v-1h.14v.21A.29.29,0,0,1,640.32,554.15Z"/><path class="cls-4" d="M641.42,555.09l-.1,0a.25.25,0,0,1-.12,0,.28.28,0,0,1-.23-.08.31.31,0,0,1-.08-.22v-.64h-.19v-.12h.19v-.23H641v.23h.32v.12H641v.63a.2.2,0,0,0,.05.14.17.17,0,0,0,.13,0h.09l.07,0Z"/><path class="cls-4" d="M626.62,541.61l.52-.35a5,5,0,0,0,.48-.32c.13-.1.11-.21.1-.36a.3.3,0,0,1,.09-.24s.12-.13.15-.13,0,0,.06,0l.09,0a.16.16,0,0,1,.06.18.6.6,0,0,0,.09.39,2,2,0,0,0,.38.32l.47.36c.11.09.22-.1.11-.19l-.51-.39c-.15-.12-.31-.2-.32-.4a.62.62,0,0,0-.06-.38c-.05-.06-.11-.07-.18-.11s-.1-.08-.17-.09-.27.14-.35.23a.53.53,0,0,0-.13.41s0,.1,0,.14a.71.71,0,0,1-.14.1l-.28.19-.56.37c-.12.08,0,.27.11.19Z"/><path class="cls-4" d="M630.79,541.46l.52-.35c.15-.1.33-.2.48-.32s.11-.22.1-.36a.27.27,0,0,1,.09-.24s.12-.13.15-.13l.06.05.09,0c.07.05.06.1.06.18a.6.6,0,0,0,.09.39,1.56,1.56,0,0,0,.37.31l.47.37c.12.08.23-.11.12-.19l-.51-.4c-.15-.11-.32-.2-.32-.39a.56.56,0,0,0-.07-.38.5.5,0,0,0-.17-.11c-.06,0-.1-.08-.17-.09s-.28.14-.35.23a.52.52,0,0,0-.13.41.17.17,0,0,1,0,.14,1.21,1.21,0,0,1-.14.1l-.28.18-.56.38c-.12.08,0,.27.11.19Z"/><path class="cls-4" d="M628.4,540.36l3.19,0a.11.11,0,1,0,0-.22l-3.19,0a.11.11,0,0,0,0,.22Z"/><path class="cls-4" d="M632.6,540.36h.59s0,0,0,0h0v0l0,.7a.11.11,0,0,0,.22,0l0-.4v-.2a.38.38,0,0,0,0-.21.22.22,0,0,0-.18-.1l-.19,0h-.41a.11.11,0,0,0,0,.22Z"/><path class="cls-4" d="M627.54,540.25a14,14,0,0,0-1.71,0,2.45,2.45,0,0,0-1,.58.72.72,0,0,0-.42.72l-.06,1.71a.12.12,0,0,0,.11.11c3,0,5.95.09,8.92-.14a.12.12,0,0,0,.11-.14,8.23,8.23,0,0,1-.11-1.64.11.11,0,0,0-.22,0,8.84,8.84,0,0,0,.12,1.7l.1-.14c-3,.23-5.94.17-8.92.14l.11.11,0-1.2c0-.19,0-.41,0-.6s.28-.42.51-.58a3.89,3.89,0,0,1,.39-.28,1.44,1.44,0,0,1,.79-.12l1.23,0a.11.11,0,0,0,0-.22Z"/><path class="cls-4" d="M628.73,541.16a11.78,11.78,0,0,0,1.19,0,3.7,3.7,0,0,1,1.15,0c.14,0,.2-.18.06-.21a3.76,3.76,0,0,0-1.16,0c-.41,0-.83,0-1.24,0-.14,0-.14.21,0,.22Z"/><path class="cls-4" d="M624.68,541.28c.77,0,1.53,0,2.3,0a.11.11,0,0,0,0-.22c-.77,0-1.53,0-2.3,0a.11.11,0,0,0,0,.22Z"/><path class="cls-4" d="M626.4,541.63c0,.55,0,1.11,0,1.66,0,.15.23.15.22,0,0-.55,0-1.11,0-1.66,0-.14-.21-.14-.22,0Z"/><path class="cls-4" d="M629.1,541.55a14,14,0,0,0,0,1.71c0,.14.24.14.22,0a14,14,0,0,1,0-1.71c0-.15-.21-.15-.22,0Z"/><path class="cls-4" d="M630.6,541.44a7.68,7.68,0,0,0,.09,1.66c0,.12.23.09.22,0V543c0-.14-.23-.15-.22,0v.1l.22,0a7.1,7.1,0,0,1-.09-1.6c0-.14-.21-.14-.22,0Z"/><path class="cls-5" d="M625.41,541.63a6.76,6.76,0,0,0,.06,1.27.21.21,0,0,0,.27.15.22.22,0,0,0,.16-.27c0-.08,0-.15,0-.26l0-.3c0-.19,0-.39,0-.59a.22.22,0,0,0-.22-.22.21.21,0,0,0-.22.22Z"/><path class="cls-5" d="M625.63,541.9a2.9,2.9,0,0,0,.51,0h.17l.05,0s0,0,0,0l0,0s0,0,0,0l0,0s0,0,0,0,0,0,0,0,0,0,0,0v0s0,0,0,0,0,.07,0,0,0,0,0,0,0,0,0,0h0v0s0,0,0,0l0,0h0s0,0,0,0l0,0,0,0h0l-.09,0h-.07s-.06,0,0,0h-.26a.22.22,0,0,0-.3.08.22.22,0,0,0,.08.3.84.84,0,0,0,.32.08,1.51,1.51,0,0,0,.3,0,.85.85,0,0,0,.45-.21.47.47,0,0,0,.1-.56.6.6,0,0,0-.46-.32,1.88,1.88,0,0,0-.34,0h-.28a.23.23,0,0,0-.28.15.25.25,0,0,0,.16.28Z"/><path class="cls-5" d="M626.91,541.75a6.55,6.55,0,0,0,0,1,.26.26,0,0,0,.07.16.25.25,0,0,0,.15.06c.11,0,.24-.1.22-.22a6.55,6.55,0,0,1,0-1,.24.24,0,0,0-.22-.22.22.22,0,0,0-.22.22Z"/><path class="cls-5" d="M627.81,541.85h.88a.22.22,0,0,0,.22-.22.22.22,0,0,0-.22-.22h-.88a.22.22,0,1,0,0,.44Z"/><path class="cls-5" d="M627.55,541.77s0,0,0,.05V542a1.5,1.5,0,0,0,0,.3.92.92,0,0,0,.19.53.6.6,0,0,0,.51.21l.3-.05.13,0h.09a.22.22,0,0,0,0-.44,1.75,1.75,0,0,0-.51.08h-.12s0,0,0,0l0,0s0,0,0,0l0,0,0,0h0a.22.22,0,0,1-.05-.08v0l0-.05s0-.07,0,0,0,0,0,0a.15.15,0,0,1,0-.07,4,4,0,0,0,0-.6c0-.11-.17-.18-.27-.15a.23.23,0,0,0-.15.27Z"/><path class="cls-5" d="M627.93,542.46a3.09,3.09,0,0,0,.86-.06.23.23,0,0,0,.16-.27.23.23,0,0,0-.28-.15h-.09l-.1,0h-.55a.22.22,0,0,0-.22.22.23.23,0,0,0,.22.22Z"/><path class="cls-5" d="M629,541.67a5.75,5.75,0,0,0,.07,1.17.22.22,0,0,0,.27.15.23.23,0,0,0,.16-.27.68.68,0,0,1,0-.14v0h0v-.07a2.46,2.46,0,0,1,0-.26,5,5,0,0,1,0-.55.22.22,0,0,0-.22-.22.22.22,0,0,0-.22.22Z"/><path class="cls-5" d="M629.44,541.84s0,0,0,0h.21l.09,0s0,0,0,0l0,0h0l0,0s0,0,0,0l0,0s0,0,0,0,0,0,0,0,0,0,0,0,0,0,0,0,0,0,0,0l0,0s0,0,0,0l0,0h0l-.06,0-.1,0-.22.05a.21.21,0,0,0-.16.18.23.23,0,0,0,.1.22,5,5,0,0,1,.63.38h0l0,0,.07.05.13.12a.25.25,0,0,0,.36,0,.24.24,0,0,0,0-.32.21.21,0,0,0-.26,0h0a.23.23,0,0,0-.08.31.22.22,0,0,0,.3.07h0l-.27,0h0l-.06-.1h0l0-.17h0l.13-.1h0l.17,0h0l0,0,0-.05-.12-.09-.25-.18a3.82,3.82,0,0,0-.48-.29l-.06.4a1.82,1.82,0,0,0,.56-.17.47.47,0,0,0,.17-.6.68.68,0,0,0-.45-.34.84.84,0,0,0-.6.08.22.22,0,0,0-.08.3.23.23,0,0,0,.3.08Z"/><path class="cls-5" d="M630.57,541.65a3.53,3.53,0,0,0,.13,1,.23.23,0,0,0,.27.16.23.23,0,0,0,.16-.27l-.06-.24a.43.43,0,0,1,0-.11v-.07s0-.06,0,0a2.58,2.58,0,0,1,0-.48.22.22,0,0,0-.44,0Z"/><path class="cls-5" d="M631.31,541.76h.57s0,0,0,0-.09-.17-.09-.12a1.76,1.76,0,0,0,0,.23c0,.15,0,.3,0,.44h0v.09s0,.07,0,.1,0,.16-.05.24a.22.22,0,1,0,.42.12,4.67,4.67,0,0,0,.13-1.11.46.46,0,0,0-.08-.32.35.35,0,0,0-.27-.1h-.57a.22.22,0,0,0-.22.22.22.22,0,0,0,.22.22Z"/><path class="cls-5" d="M631.53,542.45a3.84,3.84,0,0,1,.76,0,.24.24,0,0,0,.16-.07.18.18,0,0,0,.06-.15.23.23,0,0,0-.06-.16.25.25,0,0,0-.16-.06,3.84,3.84,0,0,0-.76,0,.22.22,0,0,0-.22.22.24.24,0,0,0,.22.22Z"/></g><g id="_6._queens_announcement" data-name="6. queens announcement"><path class="cls-6" d="M637.28,515a5.78,5.78,0,0,0-3.67,1,3,3,0,0,0-1.08,1,2.82,2.82,0,0,0-.08,2.12,2.63,2.63,0,0,0,.69,1.28,2.18,2.18,0,0,0,1.78.47,5.36,5.36,0,0,0,1.76-.7,4.36,4.36,0,0,0,2.4-2.81,2.52,2.52,0,0,0-1.49-2.62"/><path class="cls-7" d="M637.28,514.48a6.39,6.39,0,0,0-4.47,1.46,2.64,2.64,0,0,0-1,1.94,4.42,4.42,0,0,0,.49,2.19,2.36,2.36,0,0,0,1.7,1.27,3.75,3.75,0,0,0,2.32-.41,5.92,5.92,0,0,0,3.08-2.79,3,3,0,0,0-1.54-3.83.51.51,0,0,0-.68.18.49.49,0,0,0,.18.68,2,2,0,0,1,1.2,2.35,4.16,4.16,0,0,1-2.11,2.22c-.88.5-2.36,1.14-3.13.09a3.25,3.25,0,0,1-.51-1.57,1.7,1.7,0,0,1,.65-1.55,5.37,5.37,0,0,1,3.84-1.23.5.5,0,0,0,.5-.5.51.51,0,0,0-.5-.5Z"/><path class="cls-6" d="M638.42,515.05a4.31,4.31,0,0,0,.85,2.15,1.37,1.37,0,0,0,1,.61,1.57,1.57,0,0,0,.63-.15l2.51-1a2.79,2.79,0,0,0,1.31-.82,1.92,1.92,0,0,0,.23-1.62,5.41,5.41,0,0,0-.75-1.5,2.33,2.33,0,0,0-.9-1,2.18,2.18,0,0,0-1.76.13,9.22,9.22,0,0,0-2.54,1.55,2.5,2.5,0,0,0-.67.82,1,1,0,0,0,.11,1"/><path class="cls-7" d="M637.92,515.05a4.79,4.79,0,0,0,.79,2.22,1.87,1.87,0,0,0,1.75,1,5.69,5.69,0,0,0,1.12-.38l1.32-.52a5.65,5.65,0,0,0,2-1c1.23-1.2.35-2.95-.43-4.13a2.18,2.18,0,0,0-1.8-1.14,4.62,4.62,0,0,0-2.18.69c-1.22.63-3.68,2.18-2.42,3.8a.48.48,0,0,0,.7,0,.49.49,0,0,0,0-.7c-.3-.39.37-.95.61-1.16a8.6,8.6,0,0,1,1.41-1,5.11,5.11,0,0,1,1.59-.64,1.12,1.12,0,0,1,1.2.58c.5.74,1.44,2.09.64,2.93a3.46,3.46,0,0,1-1.32.68l-1.8.71c-.25.09-.63.33-.9.26a1.18,1.18,0,0,1-.57-.49,3.77,3.77,0,0,1-.68-1.76.51.51,0,0,0-.5-.5.5.5,0,0,0-.5.5Z"/><path class="cls-6" d="M633.46,521.66a3,3,0,0,0,3.3,1.72,7,7,0,0,0,3.5-1.85,2.12,2.12,0,0,0,.81-1.13c.14-.79-.66-1.5-1.47-1.57a4.49,4.49,0,0,0-2.3.66l-4,2"/><path class="cls-7" d="M633,521.8a3.34,3.34,0,0,0,2.61,2,5.28,5.28,0,0,0,3.79-1c1-.66,2.61-1.74,2.12-3.14s-2.18-1.59-3.4-1.12a25.77,25.77,0,0,0-2.42,1.18l-2.62,1.32c-.57.29-.06,1.15.51.86l3.51-1.77c.87-.44,2.2-1.31,3.14-.58s-.41,1.71-1,2.16a5,5,0,0,1-2.9,1.16,2.51,2.51,0,0,1-2.35-1.38c-.23-.59-1.19-.34-1,.27Z"/><path class="cls-6" d="M645.2,516a4.93,4.93,0,0,0-2.22.87,13.28,13.28,0,0,1-1.92.87,4.37,4.37,0,0,0-1.71.85,7.8,7.8,0,0,0,1.19.6c.51.28.88.77,1.4,1,1,.49,2.12.06,3.11-.37a5,5,0,0,0,1.48-.86,1.7,1.7,0,0,0,.58-1.54,1.68,1.68,0,0,0-.91-1.06,4.2,4.2,0,0,0-1.39-.36"/><path class="cls-7" d="M645.2,515.53a8.45,8.45,0,0,0-3.16,1.29c-1,.48-2.21.67-3,1.45a.51.51,0,0,0,.1.79c.48.36,1.08.45,1.55.83a4.09,4.09,0,0,0,1.51,1,5.26,5.26,0,0,0,3.51-.72c1.05-.48,2.15-1.39,1.94-2.68s-1.55-1.74-2.67-1.9a.52.52,0,0,0-.61.35.5.5,0,0,0,.34.62c.7.09,2.06.31,2,1.3s-1.32,1.4-2.07,1.71a2.7,2.7,0,0,1-2.69.07,11.32,11.32,0,0,0-1-.81,11.1,11.1,0,0,1-1.24-.63l.1.79a3.25,3.25,0,0,1,1.25-.65c.5-.18,1-.37,1.46-.59.88-.41,1.77-1.17,2.78-1.21.64,0,.64-1,0-1Z"/><path class="cls-6" d="M633,521.34a6.27,6.27,0,0,1-.58,2.4"/><path class="cls-7" d="M632.45,521.34c0,.1,0,.2,0,.3s0,.1,0,.15v.07h0c0,.19-.07.38-.11.57s-.11.38-.17.57-.07.19-.11.28-.06.15,0,0c0,.06,0,.11-.07.16a.5.5,0,1,0,.86.51,7,7,0,0,0,.65-2.65.5.5,0,0,0-.5-.5.51.51,0,0,0-.5.5Z"/><path class="cls-7" d="M635.54,524v1.71a.51.51,0,0,0,.5.5.51.51,0,0,0,.5-.5V524a.5.5,0,0,0-.5-.5.51.51,0,0,0-.5.5Z"/><path class="cls-6" d="M647.53,518.54a15.86,15.86,0,0,0,0,2"/><path class="cls-7" d="M647,518.54a15.86,15.86,0,0,0,0,2,.52.52,0,0,0,.5.5.5.5,0,0,0,.5-.5,15.86,15.86,0,0,1,0-2,.5.5,0,0,0-.5-.5.51.51,0,0,0-.5.5Z"/><path class="cls-8" d="M641.61,513.34c-.55-.05-.89.45-1.1.88a1.36,1.36,0,0,0-.2.76.84.84,0,0,0,.38.62,1.12,1.12,0,0,0,1.25-.09,2.37,2.37,0,0,0,.49-.46,1.07,1.07,0,0,0,.31-.71.91.91,0,0,0-.35-.7,1.47,1.47,0,0,0-.83-.3.34.34,0,0,0-.32.32.32.32,0,0,0,.32.32h.06l.13,0,.11,0s0,0,0,0l.06,0s.08,0,0,0,0,0,0,0l0,0,0,0s0,0,0,0l0,0s0-.07,0,0,0,0,0,.06,0-.05,0,0v.06s0,0,0,0,0,0,0,0,0,0,0,0l0,0,0,0,0,0s0,0,0,0l0,0-.08.09-.19.18,0,0s0,0,0,0l-.09.06-.1.05c.05,0,0,0,0,0l-.08,0h-.16s-.09,0-.11,0,.07,0,0,0l0,0,0,0h0l0,0s0,0,0,0l0,0,0,0v0a.35.35,0,0,1,0-.06c0,.05,0,0,0,0v-.06h0a.65.65,0,0,1,0-.13.14.14,0,0,1,0-.06h0v0c0-.09.09-.19.14-.28a.41.41,0,0,1,.07-.11l0-.06h0l.1-.11s0,0,0,0l.08,0s0,0,0,0l.08,0h.08a.32.32,0,0,0,0-.64Z"/><path class="cls-8" d="M641.41,515.52a1.44,1.44,0,0,0,.35,1.12,9.74,9.74,0,0,0,.6,1,.87.87,0,0,0,1,.38l.18,0-.06-.06,0,.14c0,.2.07.4.11.6a.32.32,0,0,0,.39.23.33.33,0,0,0,.22-.4l-.1-.54a.66.66,0,0,0-.26-.51.68.68,0,0,0-.52-.07c-.12,0-.24.1-.34,0a1.06,1.06,0,0,1-.22-.29l-.29-.48-.31-.5c-.06-.11-.17-.25-.14-.39.1-.4-.52-.57-.61-.17Z"/><path class="cls-8" d="M642.92,518a5.15,5.15,0,0,1,1.32-.45l.29,0c.07,0,.12,0,0-.06s-.08-.07-.07,0a.55.55,0,0,0,.06.18l.26.75a.33.33,0,0,0,.39.23.32.32,0,0,0,.22-.4l-.3-.88a.58.58,0,0,0-.31-.4,1.1,1.1,0,0,0-.51,0,5.27,5.27,0,0,0-1.68.55.32.32,0,0,0,.32.55Z"/><path class="cls-8" d="M641.55,516.5l-.64.52a.34.34,0,0,0,0,.46.35.35,0,0,0,.46,0l.56-.44.26-.2a.18.18,0,0,1,.18-.06c.09,0,.21,0,.32,0a1.22,1.22,0,0,0,.33,0,1.18,1.18,0,0,0,.59-.34.32.32,0,0,0-.46-.45.51.51,0,0,1-.37.18,2,2,0,0,0-.69,0,2.19,2.19,0,0,0-.59.4l-.59.45.46.46L642,517a.33.33,0,0,0,0-.45.34.34,0,0,0-.46,0Z"/><path class="cls-8" d="M636.42,516c-.55,0-.89.45-1.1.88a1.41,1.41,0,0,0-.2.77.83.83,0,0,0,.38.61,1.12,1.12,0,0,0,1.25-.08,2.67,2.67,0,0,0,.49-.46,1.1,1.1,0,0,0,.31-.72.92.92,0,0,0-.35-.7,1.54,1.54,0,0,0-.83-.29.32.32,0,1,0,0,.64h.06c-.06,0,0,0,0,0l.13,0,.11,0c.05,0,0,0,0,0l.06,0,0,0s0,0,0,0l0,0s0,0,0,0l0,0,0,0s0-.06,0,0,0,.05,0,.07,0-.06,0,0v0c0,.05,0,0,0,0s0,0,0,.06,0-.06,0,0l0,0,0,.05,0,0,0,0,0,0-.08.1a1.54,1.54,0,0,1-.19.17l0,0s0,0,0,0l-.09.06-.1.05s0,0,0,0l-.08,0,0,0s0,0,0,0-.08,0-.1,0h0s0,0,0,0a.23.23,0,0,1-.11,0s.07,0,0,0l0,0,0,0h0l0,0s0,0,0,0l0,0,0,0v0s0,0,0,0v-.07h0a.74.74,0,0,1,0-.14.14.14,0,0,1,0-.06h0v0c0-.09.09-.18.14-.27a.75.75,0,0,1,.07-.12l0,0s0-.05,0,0l.1-.11s0,0,0,0l.08-.05h0l.08,0h.08a.31.31,0,0,0,.32-.32.34.34,0,0,0-.32-.32Z"/><path class="cls-8" d="M636.22,518.18a1.5,1.5,0,0,0,.34,1.12c.2.32.38.66.61,1a.86.86,0,0,0,1,.37l.18,0-.06-.06,0,.14c0,.2.07.4.1.6a.32.32,0,0,0,.62-.17l-.1-.55a.67.67,0,0,0-.26-.51.78.78,0,0,0-.52-.07c-.12,0-.24.11-.34,0a1.05,1.05,0,0,1-.22-.3c-.1-.15-.19-.31-.29-.47l-.31-.5c-.06-.11-.17-.25-.14-.39.1-.4-.52-.57-.61-.17Z"/><path class="cls-8" d="M637.73,520.69a4.49,4.49,0,0,1,1.32-.45l.29,0c.07,0,.12,0,0-.05s-.08-.07-.07,0a.58.58,0,0,0,.06.17l.26.76a.32.32,0,0,0,.39.22.31.31,0,0,0,.22-.39l-.3-.89a.56.56,0,0,0-.31-.39,1,1,0,0,0-.51,0,5,5,0,0,0-1.68.55.31.31,0,0,0-.11.43.31.31,0,0,0,.43.12Z"/><path class="cls-8" d="M636.36,519.15l-.64.53a.32.32,0,0,0,.46.45l.56-.44.26-.2a.24.24,0,0,1,.18-.06l.32.05a1.22,1.22,0,0,0,.33,0,1.26,1.26,0,0,0,.59-.34.34.34,0,0,0,0-.45.33.33,0,0,0-.46,0,.5.5,0,0,1-.37.17,2.34,2.34,0,0,0-.7,0,1.88,1.88,0,0,0-.58.4l-.59.45.46.45.64-.52a.33.33,0,0,0-.46-.46Z"/><path class="cls-8" d="M635.14,516.84a2.43,2.43,0,0,0-.29,1.35c0,.23,0,.45,0,.67s0,.23,0,.35,0,.11,0,.16v0c0-.07.09-.1.19-.08a.32.32,0,0,0-.39.22.31.31,0,0,0,.22.39.52.52,0,0,0,.62-.56c0-.26-.05-.52-.07-.78a2.34,2.34,0,0,1,.17-1.43.32.32,0,0,0-.55-.32Z"/><path class="cls-8" d="M637.13,516.87s.08,0,.09,0h.06l.1,0c.06,0,0,0,0,0l.08,0c-.07,0,0,0,0,0l0,0h0l0,0s0,0,0,.05l0,.09s0,0,0,0v.05l0,.36a.83.83,0,0,0,.53.75.89.89,0,0,0,.91-.26.32.32,0,0,0-.45-.45l0,0-.08.05h0l-.09,0s0,0,0,0h-.06s0,0,0,0l-.05,0c.08,0,0,0,0,0l0,0,0,0v0s0,0,0,0a.29.29,0,0,0,0-.09h0a2.31,2.31,0,0,1,0-.37,1.49,1.49,0,0,0-.12-.46,1,1,0,0,0-.29-.33,1,1,0,0,0-.85-.13.32.32,0,1,0,.17.61Z"/><path class="cls-4" d="M649.81,514.79a.41.41,0,0,0-.45.15,1.08,1.08,0,0,0-.2.45c-.07.31-.13.71.18.9a.67.67,0,0,0,.83-.17,1.12,1.12,0,0,0,.36-.89.68.68,0,0,0-.83-.53c-.2,0-.11.37.09.32a.35.35,0,0,1,.41.22.37.37,0,0,1,0,.29,1,1,0,0,1-.17.28.7.7,0,0,1-.22.2.37.37,0,0,1-.21,0h0s0,0,0,0a.21.21,0,0,1-.06-.1.72.72,0,0,1,0-.29,1.34,1.34,0,0,1,.11-.39.21.21,0,0,1,.07-.11s0,0,.09,0a.16.16,0,0,0,.2-.11.17.17,0,0,0-.11-.21Z"/><path class="cls-4" d="M649.6,516.34c0,.55,0,1.11,0,1.67,0,.21.34.21.33,0,0-.56,0-1.12,0-1.67a.17.17,0,0,0-.33,0Z"/><path class="cls-4" d="M649.06,517.18a4.29,4.29,0,0,0,.71.16.82.82,0,0,0,.61-.11.16.16,0,0,0,0-.22.15.15,0,0,0-.22-.06.32.32,0,0,1-.2.07h-.23a4.56,4.56,0,0,1-.64-.14.16.16,0,1,0-.08.31Z"/><path class="cls-4" d="M649.56,518l-.24.56a.19.19,0,0,0,0,.13.14.14,0,0,0,.08.09.16.16,0,0,0,.12,0,.18.18,0,0,0,.1-.07l.24-.57a.17.17,0,0,0,0-.12.16.16,0,0,0-.08-.1.16.16,0,0,0-.12,0,.16.16,0,0,0-.1.08Z"/><path class="cls-4" d="M649.68,518.2l.49.42a.17.17,0,0,0,.12,0,.14.14,0,0,0,.11,0,.16.16,0,0,0,0-.23l-.49-.42a.17.17,0,0,0-.12-.05.14.14,0,0,0-.11.05.16.16,0,0,0,0,.23Z"/><path class="cls-4" d="M649.47,515a.35.35,0,0,0-.47.18,2.58,2.58,0,0,0-.16.56c-.05.24-.12.71-.46.68a.17.17,0,1,0,0,.33c.37,0,.62-.31.71-.63,0-.17.08-.34.12-.51a2,2,0,0,1,.07-.26l0-.06h0a.16.16,0,0,0,.16-.28Z"/><path class="cls-4" d="M650.26,515.18s0,0,0,0l0,0a.42.42,0,0,1,0,.19l0,.46a.91.91,0,0,0,.1.43.5.5,0,0,0,.38.23.16.16,0,0,0,.16-.16.17.17,0,0,0-.16-.17h0l0,0a.28.28,0,0,1-.05-.16,3.15,3.15,0,0,1,0-.44,1.17,1.17,0,0,0-.08-.46.36.36,0,0,0-.4-.21.17.17,0,0,0-.11.2.17.17,0,0,0,.2.12Z"/><path class="cls-4" d="M652.21,513.51l-.25,0a.44.44,0,0,0-.28,0,.5.5,0,0,0-.15.2c0,.08-.07.16-.1.25a1,1,0,0,0,.09,1,.62.62,0,0,0,.4.22.6.6,0,0,0,.47-.15,1,1,0,0,0,.39-.81.7.7,0,0,0-.67-.65.17.17,0,0,0,0,.33.38.38,0,0,1,.34.29.56.56,0,0,1,0,.28.63.63,0,0,1-.16.24.51.51,0,0,1-.25.15.29.29,0,0,1-.22-.09.6.6,0,0,1-.08-.58l.07-.21a.43.43,0,0,0,0-.07l0-.08h0s0,0,0,0H652l.24,0a.17.17,0,0,0,.16-.17.16.16,0,0,0-.16-.16Z"/><path class="cls-4" d="M651.87,515.22V517c0,.15,0,.29,0,.43s0,.34-.05.45-.19.18-.28.28a2.32,2.32,0,0,0-.22.3c-.11.18.18.35.29.17a2,2,0,0,1,.28-.37,1.07,1.07,0,0,0,.25-.27.74.74,0,0,0,.06-.36v-.49q0-1,0-1.95a.16.16,0,0,0-.32,0Z"/><path class="cls-4" d="M651.88,518.15l0,0s0,0,0,0h0l.07.06.14.11.26.25a.17.17,0,0,0,.23,0,.17.17,0,0,0,0-.24,6.93,6.93,0,0,0-.58-.5.19.19,0,0,0-.13,0,.17.17,0,0,0-.11.2.19.19,0,0,0,.08.1Z"/><path class="cls-4" d="M651.31,516.64a4,4,0,0,0,.75.27.72.72,0,0,0,.41,0,.46.46,0,0,0,.28-.28.16.16,0,1,0-.32-.08h0s0,0,0,0h0s0,0-.07,0a1,1,0,0,1-.29,0,3.83,3.83,0,0,1-.56-.22.19.19,0,0,0-.23.06.18.18,0,0,0,.06.23Z"/><path class="cls-4" d="M651.58,513.71a.44.44,0,0,0-.4.29,2.32,2.32,0,0,0,0,.59v.6c0,.13,0,.37-.14.4a.15.15,0,0,0-.11.2.16.16,0,0,0,.2.11c.42-.06.38-.6.38-.91v-.58c0-.09,0-.37.12-.37s.21-.32,0-.33Z"/><path class="cls-4" d="M652.35,514a6.85,6.85,0,0,0,.41,1.15c.08.17.17.37.38.39s.34-.14.45-.29a.16.16,0,0,0-.06-.22.17.17,0,0,0-.23,0,.38.38,0,0,1-.1.12s0,0,0,0v0a.53.53,0,0,1-.08-.15c0-.07-.07-.15-.1-.23a6.78,6.78,0,0,1-.3-.9.17.17,0,0,0-.32.09Z"/><path class="cls-9" d="M632,510.64a.33.33,0,0,1,.08.25v.46H632v-.45a.24.24,0,0,0-.06-.18.21.21,0,0,0-.17-.07.24.24,0,0,0-.19.08.28.28,0,0,0-.07.21v.41h-.11v-.45a.24.24,0,0,0-.06-.18.19.19,0,0,0-.17-.07.26.26,0,0,0-.19.08.28.28,0,0,0-.07.21v.41h-.11v-.79h.11v.15a.2.2,0,0,1,.11-.11.33.33,0,0,1,.17,0,.34.34,0,0,1,.18,0,.29.29,0,0,1,.1.12.37.37,0,0,1,.13-.12.38.38,0,0,1,.19,0A.3.3,0,0,1,632,510.64Z"/><path class="cls-9" d="M632.51,511.31a.41.41,0,0,1-.14-.15.46.46,0,0,1,0-.2.46.46,0,0,1,0-.21.38.38,0,0,1,.14-.14.47.47,0,0,1,.42,0,.38.38,0,0,1,.14.14.46.46,0,0,1,0,.21.46.46,0,0,1,0,.2.41.41,0,0,1-.14.15.47.47,0,0,1-.42,0Zm.36-.08a.26.26,0,0,0,.1-.11.29.29,0,0,0,0-.16.27.27,0,0,0,0-.16.18.18,0,0,0-.1-.11.3.3,0,0,0-.3,0,.23.23,0,0,0-.11.11.38.38,0,0,0,0,.16.41.41,0,0,0,0,.16.38.38,0,0,0,.11.11.39.39,0,0,0,.3,0Z"/><path class="cls-9" d="M634.56,510.64a.37.37,0,0,1,.08.25v.46h-.11v-.45a.24.24,0,0,0-.06-.18.19.19,0,0,0-.16-.07.26.26,0,0,0-.2.08.33.33,0,0,0-.07.21v.41h-.1v-.45a.24.24,0,0,0-.06-.18.21.21,0,0,0-.17-.07.24.24,0,0,0-.19.08.29.29,0,0,0-.08.21v.41h-.1v-.79h.1v.15a.25.25,0,0,1,.12-.11.38.38,0,0,1,.34,0,.25.25,0,0,1,.11.12.34.34,0,0,1,.12-.12.41.41,0,0,1,.19,0A.32.32,0,0,1,634.56,510.64Z"/><path class="cls-9" d="M637.69,508.45v1.11h-.11v-.16a.23.23,0,0,1-.12.12.37.37,0,0,1-.18.05.36.36,0,0,1-.2-.06.32.32,0,0,1-.14-.14.36.36,0,0,1-.05-.21.35.35,0,0,1,.05-.2.34.34,0,0,1,.14-.15.46.46,0,0,1,.2-.05.47.47,0,0,1,.17,0,.37.37,0,0,1,.13.12v-.47Zm-.25,1a.22.22,0,0,0,.1-.11.27.27,0,0,0,0-.16.29.29,0,0,0,0-.16.35.35,0,0,0-.1-.11l-.15,0a.33.33,0,0,0-.15,0,.38.38,0,0,0-.11.11.42.42,0,0,0,0,.16.38.38,0,0,0,0,.16.23.23,0,0,0,.11.11.24.24,0,0,0,.15,0A.28.28,0,0,0,637.44,509.43Z"/><path class="cls-9" d="M638.5,508.84a.32.32,0,0,1,.08.23v.49h-.1v-.12a.24.24,0,0,1-.11.09.43.43,0,0,1-.17,0,.38.38,0,0,1-.21-.07.19.19,0,0,1-.07-.16.22.22,0,0,1,.07-.17.37.37,0,0,1,.23-.06h.25v-.05a.19.19,0,0,0-.06-.15.19.19,0,0,0-.16-.05.39.39,0,0,0-.15,0,.41.41,0,0,0-.11.07l0-.08.14-.08a.57.57,0,0,1,.18,0A.36.36,0,0,1,638.5,508.84Zm-.13.6a.23.23,0,0,0,.1-.12v-.13h-.25c-.13,0-.2.05-.2.14a.13.13,0,0,0,.05.11.3.3,0,0,0,.3,0Z"/><path class="cls-9" d="M639.59,508.45v1.11h-.1v-.16a.25.25,0,0,1-.13.12.35.35,0,0,1-.18.05.36.36,0,0,1-.2-.06.38.38,0,0,1-.14-.14.46.46,0,0,1-.05-.21.46.46,0,0,1,.05-.2.41.41,0,0,1,.14-.15.46.46,0,0,1,.2-.05.48.48,0,0,1,.18,0,.34.34,0,0,1,.12.12v-.47Zm-.25,1a.23.23,0,0,0,.11-.11.38.38,0,0,0,0-.16.42.42,0,0,0,0-.16.38.38,0,0,0-.11-.11.33.33,0,0,0-.15,0l-.15,0a.35.35,0,0,0-.1.11.29.29,0,0,0,0,.16.27.27,0,0,0,0,.16.22.22,0,0,0,.1.11.28.28,0,0,0,.15,0A.24.24,0,0,0,639.34,509.43Z"/><path class="cls-9" d="M650.18,521.85a.33.33,0,0,1,.09.25v.46h-.11v-.45a.29.29,0,0,0-.06-.19.22.22,0,0,0-.17-.06.22.22,0,0,0-.19.08.27.27,0,0,0-.07.2v.42h-.11v-.45a.29.29,0,0,0-.06-.19.2.2,0,0,0-.16-.06.24.24,0,0,0-.2.08.32.32,0,0,0-.07.2v.42H649v-.79h.1v.14a.38.38,0,0,1,.11-.11.53.53,0,0,1,.18,0,.34.34,0,0,1,.17,0,.22.22,0,0,1,.11.12.34.34,0,0,1,.12-.12.41.41,0,0,1,.19,0A.29.29,0,0,1,650.18,521.85Z"/><path class="cls-9" d="M651.25,522.2h-.66a.27.27,0,0,0,.09.2.32.32,0,0,0,.22.07.28.28,0,0,0,.13,0,.26.26,0,0,0,.11-.07l.06.07a.3.3,0,0,1-.13.09.47.47,0,0,1-.17,0,.38.38,0,0,1-.22-.06.4.4,0,0,1-.15-.14.46.46,0,0,1,0-.21.46.46,0,0,1,0-.2.4.4,0,0,1,.14-.15.42.42,0,0,1,.2,0,.41.41,0,0,1,.19,0,.4.4,0,0,1,.14.15.46.46,0,0,1,0,.2Zm-.57-.27a.23.23,0,0,0-.09.19h.56a.31.31,0,0,0-.09-.19.27.27,0,0,0-.19-.08A.26.26,0,0,0,650.68,521.93Z"/><path class="cls-9" d="M652.63,522.57l-.14-.15a.45.45,0,0,1-.35.15.34.34,0,0,1-.18,0,.25.25,0,0,1-.13-.09.24.24,0,0,1-.05-.14.27.27,0,0,1,.06-.17.8.8,0,0,1,.21-.16.35.35,0,0,1-.1-.13.24.24,0,0,1,0-.12.2.2,0,0,1,.07-.16.29.29,0,0,1,.19-.06.24.24,0,0,1,.18.06.18.18,0,0,1,.07.15.2.2,0,0,1-.06.14.59.59,0,0,1-.18.14l.29.29a.52.52,0,0,0,.07-.2l.09,0a.64.64,0,0,1-.1.24l.16.15Zm-.21-.21-.31-.33a.67.67,0,0,0-.17.13.21.21,0,0,0-.05.13.16.16,0,0,0,.07.14.35.35,0,0,0,.18.05A.35.35,0,0,0,652.42,522.36Zm-.36-.74a.13.13,0,0,0,0,.1.15.15,0,0,0,0,.09l.09.12a.92.92,0,0,0,.16-.12.13.13,0,0,0,0-.1.1.1,0,0,0,0-.09.12.12,0,0,0-.11,0A.16.16,0,0,0,652.06,521.62Z"/><path class="cls-9" d="M653.37,522.51a.32.32,0,0,1-.14-.14.36.36,0,0,1-.05-.21.35.35,0,0,1,.05-.2.4.4,0,0,1,.14-.15.5.5,0,0,1,.21,0,.58.58,0,0,1,.19,0,.34.34,0,0,1,.12.12l-.08.05a.16.16,0,0,0-.1-.08.28.28,0,0,0-.13,0,.37.37,0,0,0-.15,0,.38.38,0,0,0-.11.11.42.42,0,0,0,0,.16.38.38,0,0,0,0,.16.23.23,0,0,0,.11.11.26.26,0,0,0,.15,0,.28.28,0,0,0,.13,0,.27.27,0,0,0,.1-.08l.08,0a.3.3,0,0,1-.13.12.48.48,0,0,1-.18,0A.39.39,0,0,1,653.37,522.51Z"/><path class="cls-9" d="M654.61,521.84a.29.29,0,0,1,.09.23v.49h-.11v-.12a.18.18,0,0,1-.1.09.43.43,0,0,1-.17,0,.35.35,0,0,1-.21-.07.19.19,0,0,1-.08-.16.23.23,0,0,1,.08-.17.35.35,0,0,1,.23-.06h.25v-.05a.19.19,0,0,0-.06-.15.19.19,0,0,0-.16,0,.39.39,0,0,0-.15,0l-.12.07,0-.08a.47.47,0,0,1,.14-.08.52.52,0,0,1,.18,0A.32.32,0,0,1,654.61,521.84Zm-.12.6a.23.23,0,0,0,.1-.12v-.13h-.25c-.13,0-.2,0-.2.14a.13.13,0,0,0,.05.11.3.3,0,0,0,.3,0Z"/><path class="cls-9" d="M655.2,521.8a.48.48,0,0,1,.18,0v.11h0a.26.26,0,0,0-.2.07.34.34,0,0,0-.07.22v.4H655v-.79h.1v.15A.25.25,0,0,1,655.2,521.8Z"/><path class="cls-9" d="M656.79,521.85a.33.33,0,0,1,.09.25v.46h-.11v-.45a.29.29,0,0,0-.06-.19.22.22,0,0,0-.17-.06.22.22,0,0,0-.19.08.27.27,0,0,0-.07.2v.42h-.11v-.45a.29.29,0,0,0-.06-.19.2.2,0,0,0-.16-.06.24.24,0,0,0-.2.08.32.32,0,0,0-.07.2v.42h-.1v-.79h.1v.14a.38.38,0,0,1,.11-.11.48.48,0,0,1,.18,0,.34.34,0,0,1,.17,0,.22.22,0,0,1,.11.12.34.34,0,0,1,.12-.12.41.41,0,0,1,.19,0A.29.29,0,0,1,656.79,521.85Z"/><path class="cls-9" d="M657.86,522.2h-.66a.27.27,0,0,0,.09.2.32.32,0,0,0,.22.07.28.28,0,0,0,.13,0,.26.26,0,0,0,.11-.07l.06.07a.38.38,0,0,1-.13.09.53.53,0,0,1-.18,0,.37.37,0,0,1-.21-.06.4.4,0,0,1-.15-.14.46.46,0,0,1,0-.21.46.46,0,0,1,0-.2.4.4,0,0,1,.14-.15.42.42,0,0,1,.2,0,.41.41,0,0,1,.19,0,.4.4,0,0,1,.14.15.46.46,0,0,1,.05.2Zm-.57-.27a.23.23,0,0,0-.09.19h.56a.31.31,0,0,0-.09-.19.27.27,0,0,0-.19-.08A.26.26,0,0,0,657.29,521.93Z"/><path class="cls-9" d="M658.71,521.85a.33.33,0,0,1,.09.25v.46h-.1v-.45a.29.29,0,0,0-.07-.19.22.22,0,0,0-.17-.06.23.23,0,0,0-.2.08.28.28,0,0,0-.08.2v.42h-.1v-.79h.1v.14a.43.43,0,0,1,.12-.11.48.48,0,0,1,.18,0A.29.29,0,0,1,658.71,521.85Z"/><path class="cls-9" d="M633.51,512.26a15.83,15.83,0,0,0,.6,1.92,7,7,0,0,0,.41.88c.08.15.17.3.26.44l.14.2.08.1s.07.1.06.05l.07-.18.18,0,.17.17v0c-.07-.31-.56-.18-.49.13a.29.29,0,0,0,.43.18c.22-.13.14-.38,0-.54a5.41,5.41,0,0,1-.65-1,13.73,13.73,0,0,1-.79-2.37.25.25,0,0,0-.48.14Z"/><path class="cls-9" d="M634.42,516h.39c.15,0,.29.05.43.09a.25.25,0,0,0,.31-.17,2.9,2.9,0,0,1,.14-.48l0-.1s0-.07,0,0l0-.06.11-.22a.25.25,0,0,0-.09-.34.24.24,0,0,0-.34.09,4.59,4.59,0,0,0-.39,1l.31-.18a3.82,3.82,0,0,0-1-.13.25.25,0,0,0-.25.25.26.26,0,0,0,.25.25Z"/><path class="cls-9" d="M638.51,510.26a15.83,15.83,0,0,0,.6,1.92,7,7,0,0,0,.41.88c.08.15.17.3.26.44l.14.2.08.1s.07.1.06.05l.07-.18.18,0,.17.17v0c-.07-.31-.56-.18-.49.13a.29.29,0,0,0,.43.18c.22-.13.14-.38,0-.54a5.41,5.41,0,0,1-.65-1,13.73,13.73,0,0,1-.79-2.37.25.25,0,0,0-.48.14Z"/><path class="cls-9" d="M639.42,514h.39c.15,0,.29.05.43.09a.25.25,0,0,0,.31-.17,2.9,2.9,0,0,1,.14-.48l0-.1s0-.07,0,0l0-.06.11-.22a.25.25,0,0,0-.09-.34.24.24,0,0,0-.34.09,4.59,4.59,0,0,0-.39,1l.31-.18a3.82,3.82,0,0,0-1-.13.25.25,0,0,0-.25.25.26.26,0,0,0,.25.25Z"/><path class="cls-9" d="M656,521.07c-.42-.67-.85-1.33-1.31-2q-.35-.47-.72-.9l-.38-.42-.2-.19-.09-.09-.07-.06c0-.05,0,0,0,.11l-.16.15H653l-.13-.11v0c.15.24.54,0,.39-.23a.25.25,0,0,0-.44,0c-.12.2.06.37.19.49a10.57,10.57,0,0,1,1,1,27.94,27.94,0,0,1,1.63,2.39c.15.24.54,0,.39-.23Z"/><path class="cls-9" d="M653.7,517.33h-.39s0,0,0,0h-.11l-.2,0a.23.23,0,0,0-.27.28,4,4,0,0,1,.09.5v.07s0,.08,0,.12a1.93,1.93,0,0,1,0,.24.25.25,0,0,0,.23.23.22.22,0,0,0,.22-.23,4.65,4.65,0,0,0-.14-1.05l-.28.28a2.69,2.69,0,0,0,.8.09.23.23,0,0,0,0-.45Z"/><path class="cls-9" d="M650.14,521A5.09,5.09,0,0,0,650,520a2.35,2.35,0,0,0-.19-.43,2.92,2.92,0,0,0-.29-.4l0,.07v0l-.06.08h0l-.08,0h0l-.07-.12h0c0,.18.27.18.29,0h0a.14.14,0,0,0-.07-.12.19.19,0,0,0-.25.06c-.07.11,0,.19.09.27a1.72,1.72,0,0,1,.28.47,4.18,4.18,0,0,1,.25,1.1.14.14,0,0,0,.17.1c.09,0,.11-.1.1-.18Z"/><path class="cls-9" d="M650,519.15a3.19,3.19,0,0,1-.54,0,.15.15,0,0,0-.16.07,2,2,0,0,1-.33.44.15.15,0,0,0,0,.2.13.13,0,0,0,.2,0,2.59,2.59,0,0,0,.37-.5l-.16.07a3.28,3.28,0,0,0,.62,0,.14.14,0,1,0,0-.28Z"/><path class="cls-10" d="M627.08,513.74l4,17.84,20-7.81c-2.08.24-5.21.66-9,1.36-5.64,1-7.16,1.68-9.09.62C631.78,525,628.8,522.75,627.08,513.74Z"/><path d="M646,512.17a44.75,44.75,0,0,0,3.31-9.25,22.34,22.34,0,0,0,.41-5c0-.86-.09-1.72-.13-2.58,0-.69-.16-1.73.41-2.26s1.73-.08,2.36.28a13.63,13.63,0,0,1,2.19,1.67,19.86,19.86,0,0,1,3.34,3.87c1.72,2.7,2.66,6.8-.68,8.66a32.47,32.47,0,0,1-5.44,2l-6.14,2.06c-.37.12-.21.71.16.59l6.14-2.06a42.18,42.18,0,0,0,5.26-1.88,4.86,4.86,0,0,0,2.78-3.32,7.9,7.9,0,0,0-.69-4.78,16.41,16.41,0,0,0-3.1-4.39,13.15,13.15,0,0,0-4.23-3.29c-1.35-.56-2.7-.18-2.94,1.39a12.59,12.59,0,0,0,0,2.53c.06,1,.11,2,.08,3-.14,4.41-1.88,8.5-3.64,12.47-.16.36.37.67.53.31Z"/><path d="M651.08,498l-.08,0h-.08a.25.25,0,0,0-.29.29.37.37,0,0,0,0,.12.7.7,0,0,0,.06.09l.1.05a.22.22,0,0,0,.12,0,.3.3,0,0,0,.13,0l.12-.06.05.08-.05,0-.08,0-.09,0-.11,0a.47.47,0,0,1-.17,0,.36.36,0,0,1-.12-.08.35.35,0,0,1-.08-.13.78.78,0,0,1,0-.16.88.88,0,0,1,0-.17.5.5,0,0,1,.08-.12.24.24,0,0,1,.12-.07.41.41,0,0,1,.16,0l.18,0,.11,0h0v.2h-.1Z"/><path d="M651.48,498a.35.35,0,0,1,.14-.06l.16,0a.25.25,0,0,1,.13,0,.24.24,0,0,1,.08.06.32.32,0,0,1,0,.09.31.31,0,0,1,0,.1v.39h.1v.1h-.19l0-.12h0l0,0,0,0-.07,0h-.1a.28.28,0,0,1-.18-.06.19.19,0,0,1-.06-.15.25.25,0,0,1,0-.13.39.39,0,0,1,.1-.08.33.33,0,0,1,.15,0h.2a.45.45,0,0,0,0-.11s0-.06,0-.07a.07.07,0,0,0,0,0h-.21l-.11,0Zm.22.6h.08l.06,0,0,0,0-.05v-.11h-.25a.16.16,0,0,0-.08.05.1.1,0,0,0,0,.08.14.14,0,0,0,.15.12Z"/><path d="M652.32,498.67v-.1h.2V498h-.2v-.1h.28l0,.09h0a.41.41,0,0,1,.11-.07.24.24,0,0,1,.15,0l.08,0a.1.1,0,0,1,0,.06.2.2,0,0,1,0,.09.45.45,0,0,1,0,.12H653a.46.46,0,0,0,0-.14.08.08,0,0,0-.07,0h-.09l-.06,0-.05,0s0,0,0,0v.45h.29v.1Z"/><path d="M653.51,498.67v-.56s0,0,0-.06l0,0,0,0a.1.1,0,0,0-.08.05.17.17,0,0,0-.06.1v.52h-.11v-.75h.08l0,.09h0a.05.05,0,0,1,0,0l0,0,0,0h.11l0,0,0,0a.14.14,0,0,1,0,.06.24.24,0,0,1,.08-.09.21.21,0,0,1,.12,0,.11.11,0,0,1,.08,0l0,0s0,.05,0,.08,0,.06,0,.09v.54h-.12v-.57a.43.43,0,0,0,0-.05l0,0,0,0a.11.11,0,0,0-.09.05s0,.06-.06.12v.5Z"/><path d="M654.81,498.57l-.06.05-.08,0-.09,0h-.1a.41.41,0,0,1-.16,0l-.11-.08a.35.35,0,0,1-.08-.13.7.7,0,0,1,0-.16.47.47,0,0,1,0-.17.47.47,0,0,1,.07-.12.37.37,0,0,1,.12-.07.41.41,0,0,1,.16,0,.32.32,0,0,1,.13,0,.21.21,0,0,1,.1.06.36.36,0,0,1,.08.12.7.7,0,0,1,0,.21h-.57a.24.24,0,0,0,.07.2.25.25,0,0,0,.19.07h.08l.08,0,.06,0,0,0Zm-.32-.57h-.09l-.08,0a.18.18,0,0,0-.05.07.15.15,0,0,0,0,.1h.47a.26.26,0,0,0-.07-.16A.25.25,0,0,0,654.49,498Z"/><path d="M655.06,498.18v-.13a.08.08,0,0,0,0,0h-.1v-.09h.2l0,.12h0a.1.1,0,0,1,0-.05l0-.05.08,0h.2a.15.15,0,0,1,.09.06s0,.06.06.1a.81.81,0,0,1,0,.17v.43h-.11v-.41a.45.45,0,0,0,0-.19.18.18,0,0,0-.15-.06l-.08,0-.06,0a.1.1,0,0,0,0,.06.16.16,0,0,0,0,.07v.47h-.11Z"/><path d="M656.16,498.58a.1.1,0,0,1,.1-.1.13.13,0,0,1,.09,0,.21.21,0,0,1,0,.12.34.34,0,0,1,0,.1l0,.07a.18.18,0,0,1-.07.05l-.06,0,0-.06a.21.21,0,0,0,.1-.06.15.15,0,0,0,0-.09h0l-.07,0A.15.15,0,0,1,656.16,498.58Z"/><path d="M650.8,499.64a.59.59,0,0,1,.14-.06h.16l.13,0a.22.22,0,0,1,.07.06.18.18,0,0,1,0,.09.34.34,0,0,1,0,.1V500a.57.57,0,0,1,0,.13c0,.05,0,.1,0,.14h.1v.1h-.19l0-.11h0l0,0a.1.1,0,0,1-.05,0l-.07,0H651a.35.35,0,0,1-.18,0,.21.21,0,0,1-.06-.16.28.28,0,0,1,0-.13.39.39,0,0,1,.1-.08l.15,0a.71.71,0,0,1,.2,0,.57.57,0,0,0,0-.12l0-.07a.1.1,0,0,0-.05,0h-.08a.27.27,0,0,0-.13,0l-.11,0Zm.22.6h.08l.06,0,.05,0s0,0,0,0V500l-.14,0-.11,0a.15.15,0,0,0-.08,0,.11.11,0,0,0,0,.08.12.12,0,0,0,0,.09A.16.16,0,0,0,651,500.24Z"/><path d="M651.72,499.28H652v.8a.23.23,0,0,0,0,.13.12.12,0,0,0,.09,0h.08l.08-.05.06.08-.06,0,0,0h-.12l-.1,0a.1.1,0,0,1-.07,0,.22.22,0,0,1,0-.08.53.53,0,0,1,0-.13v-.7h-.13Z"/><path d="M652.59,500.33v-.1h.27v-.55h-.27v-.1H653v.65h.26v.1Zm.22-1a.1.1,0,0,1,.2,0,.09.09,0,0,1,0,.06.1.1,0,0,1-.14,0A.09.09,0,0,1,652.81,499.37Z"/><path d="M654,500.13a.11.11,0,0,0,0-.08l-.1,0-.12,0-.12,0a.22.22,0,0,1-.09-.07.12.12,0,0,1,0-.1.17.17,0,0,1,0-.1.13.13,0,0,1,.06-.07l.1,0h.11a.48.48,0,0,1,.18,0l.12.05-.05.1-.1-.05a.33.33,0,0,0-.15,0h-.06l-.06,0,0,0a.11.11,0,0,0,0,.06.07.07,0,0,0,0,.06l.09,0,.12,0,.12,0a.15.15,0,0,1,.09.06.14.14,0,0,1,0,.11.23.23,0,0,1-.08.17.37.37,0,0,1-.25.07h-.09l-.09,0-.08,0-.06,0,.06-.09.05,0,.07,0,.07,0h.16l.06,0a.1.1,0,0,0,.05,0A.07.07,0,0,0,654,500.13Z"/><path d="M654.32,500a.37.37,0,0,1,.1-.28.34.34,0,0,1,.27-.11.41.41,0,0,1,.16,0,.31.31,0,0,1,.11.09.35.35,0,0,1,.07.12.77.77,0,0,1,0,.15.88.88,0,0,1,0,.17.35.35,0,0,1-.07.12.36.36,0,0,1-.12.08.37.37,0,0,1-.15,0,.43.43,0,0,1-.17,0,.31.31,0,0,1-.11-.09.35.35,0,0,1-.07-.12A.78.78,0,0,1,654.32,500Zm.13,0a.41.41,0,0,0,0,.11.25.25,0,0,0,0,.09.23.23,0,0,0,.07.07.21.21,0,0,0,.12,0,.22.22,0,0,0,.18-.08.34.34,0,0,0,.06-.22.36.36,0,0,0,0-.1.18.18,0,0,0,0-.1s0-.05-.07-.06a.2.2,0,0,0-.11,0,.22.22,0,0,0-.18.08A.31.31,0,0,0,654.45,500Z"/><path d="M655.28,499.84v0s0,0,0-.05v0s0,0,0,0h-.1v-.1h.2l0,.12h0l0-.05a.1.1,0,0,1,.05,0,.2.2,0,0,1,.08,0h.08l.12,0a.13.13,0,0,1,.09.05.33.33,0,0,1,.06.1.86.86,0,0,1,0,.17v.43h-.11v-.41a.4.4,0,0,0,0-.18.16.16,0,0,0-.15-.07l-.08,0-.06,0-.06.06,0,.07v.47h-.11Z"/><path d="M652,501.87l.15.41h0l.11-.58h.11l-.15.75h-.13l-.14-.41h0l-.15.41h-.13l-.16-.75h.12l.12.59h0l.14-.42Z"/><path d="M653.16,502.36l-.07,0a.2.2,0,0,1-.08,0l-.09,0h-.09a.41.41,0,0,1-.16,0,.25.25,0,0,1-.12-.08.35.35,0,0,1-.07-.12.78.78,0,0,1,0-.16.43.43,0,0,1,0-.17.24.24,0,0,1,.07-.12.25.25,0,0,1,.12-.08.41.41,0,0,1,.16,0l.12,0a.24.24,0,0,1,.11.06.41.41,0,0,1,.08.13.66.66,0,0,1,0,.21h-.58a.26.26,0,0,0,.08.2.29.29,0,0,0,.19.07h.08l.08,0,.06,0,0,0Zm-.32-.58h-.09l-.08,0,0,.06a.17.17,0,0,0,0,.1h.46a.19.19,0,0,0-.06-.15A.2.2,0,0,0,652.84,501.78Z"/><path d="M653.61,501.43a.09.09,0,0,1,0-.06.08.08,0,0,1,.07,0,.11.11,0,0,1,.08,0,.12.12,0,0,1,0,.09.2.2,0,0,1,0,.11.25.25,0,0,1,0,.07.12.12,0,0,1,0,.05l-.05,0,0-.06a.18.18,0,0,0,.07-.05.14.14,0,0,0,0-.09h0a.07.07,0,0,1-.06,0A.09.09,0,0,1,653.61,501.43Z"/><path d="M654.26,502.45v-.1h.21v-.55h-.21v-.1h.28l0,.1h0l.11-.08a.33.33,0,0,1,.15,0,.11.11,0,0,1,.08,0,.12.12,0,0,1,.05.05.29.29,0,0,1,0,.09.53.53,0,0,1,0,.13h-.11a.26.26,0,0,0,0-.14.06.06,0,0,0-.06,0l-.09,0-.06,0a.1.1,0,0,0,0,0l0,0v.44h.29v.1Z"/><path d="M655.86,502.36l-.07,0a.2.2,0,0,1-.08,0l-.09,0h-.09a.41.41,0,0,1-.16,0,.25.25,0,0,1-.12-.08.35.35,0,0,1-.07-.12.78.78,0,0,1,0-.16.43.43,0,0,1,0-.17.24.24,0,0,1,.07-.12.25.25,0,0,1,.12-.08.41.41,0,0,1,.16,0l.12,0a.24.24,0,0,1,.11.06.27.27,0,0,1,.07.13.44.44,0,0,1,0,.21h-.58a.26.26,0,0,0,.08.2.27.27,0,0,0,.19.07h.08l.08,0,.06,0,0,0Zm-.32-.58h-.09l-.08,0,0,.06a.17.17,0,0,0,0,.1h.46a.19.19,0,0,0-.06-.15A.2.2,0,0,0,655.54,501.78Z"/><path d="M650.37,504.08v-.56a.07.07,0,0,0,0,0,.05.05,0,0,0,0,0h0a.1.1,0,0,0-.09,0,.31.31,0,0,0-.05.1v.52H650v-.75h.08l0,.09h0l0,0,0,0,0,0h.11l0,0,0,0s0,0,0,.06a.36.36,0,0,1,.07-.1.21.21,0,0,1,.12,0l.08,0a.08.08,0,0,1,0,.05.14.14,0,0,1,0,.07.28.28,0,0,1,0,.09v.54h-.11v-.51a.13.13,0,0,0,0-.06.09.09,0,0,0,0-.05l0,0h0a.12.12,0,0,0-.09,0,.33.33,0,0,0,0,.12v.5Z"/><path d="M651,503.7a.41.41,0,0,1,.09-.28.34.34,0,0,1,.27-.11.38.38,0,0,1,.16,0,.27.27,0,0,1,.12.09.23.23,0,0,1,.06.12.4.4,0,0,1,0,.15.47.47,0,0,1,0,.17.24.24,0,0,1-.07.12l-.11.08a.44.44,0,0,1-.32,0,.24.24,0,0,1-.11-.09.24.24,0,0,1-.07-.12A.41.41,0,0,1,651,503.7Zm.12,0s0,.07,0,.11a.26.26,0,0,0,0,.09.23.23,0,0,0,.07.07.2.2,0,0,0,.11,0,.22.22,0,0,0,.18-.08.45.45,0,0,0,0-.32.3.3,0,0,0,0-.1.24.24,0,0,0-.08-.06.2.2,0,0,0-.11,0,.22.22,0,0,0-.18.08A.31.31,0,0,0,651.09,503.7Z"/><path d="M652.23,503.93h0l.23-.6h.14l-.32.75h-.13l-.32-.75H652Z"/><path d="M652.84,504.08V504h.26v-.55h-.26v-.1h.38V504h.25v.1Zm.22-1a.14.14,0,0,1,0-.07.11.11,0,0,1,.07,0,.11.11,0,0,1,.08,0,.09.09,0,0,1,0,.07.09.09,0,0,1,0,.06.11.11,0,0,1-.08,0,.11.11,0,0,1-.07,0A.14.14,0,0,1,653.06,503.12Z"/><path d="M653.72,503.59v-.16h-.1v-.1h.2v.12h0l0-.05.06,0,.07,0h.09l.12,0a.2.2,0,0,1,.09.05.31.31,0,0,1,.05.1.79.79,0,0,1,0,.17v.43h-.12v-.41a.3.3,0,0,0,0-.18.16.16,0,0,0-.15-.07l-.07,0-.07,0,0,.06a.09.09,0,0,0,0,.07v.47h-.12Z"/><path d="M655.27,504.12a.24.24,0,0,1,0,.12.22.22,0,0,1-.07.09l-.11.05-.14,0-.16,0-.11-.05.06-.1,0,0,0,0,.06,0H655l.07,0s0,0,0-.06,0-.06,0-.1V504h0a.18.18,0,0,1-.09.08.25.25,0,0,1-.13,0,.28.28,0,0,1-.25-.1.4.4,0,0,1-.09-.29.37.37,0,0,1,.11-.29.39.39,0,0,1,.3-.1h.16l.12,0Zm-.34-.12a.25.25,0,0,0,.15-.05.37.37,0,0,0,.07-.14v-.36a.45.45,0,0,0-.18,0,.24.24,0,0,0-.19.07.28.28,0,0,0-.07.21.41.41,0,0,0,0,.12.19.19,0,0,0,0,.09.23.23,0,0,0,.07.07Z"/><path d="M656.33,503.33h.18v-.15l.11,0v.18H657v.1h-.41v.35a.22.22,0,0,0,.06.17.21.21,0,0,0,.15.05l.12,0,.09-.05,0,.09a.52.52,0,0,1-.13.06l-.15,0-.11,0a.31.31,0,0,1-.1-.05l-.06-.09a.32.32,0,0,1,0-.14v-.37h-.18Z"/><path d="M657.27,503.7a.41.41,0,0,1,.09-.28.34.34,0,0,1,.27-.11.38.38,0,0,1,.16,0,.27.27,0,0,1,.12.09.23.23,0,0,1,.06.12.4.4,0,0,1,0,.15.47.47,0,0,1,0,.17.24.24,0,0,1-.07.12l-.11.08a.44.44,0,0,1-.32,0,.24.24,0,0,1-.11-.09.24.24,0,0,1-.07-.12A.41.41,0,0,1,657.27,503.7Zm.12,0s0,.07,0,.11a.26.26,0,0,0,.05.09.16.16,0,0,0,.07.07.2.2,0,0,0,.11,0,.22.22,0,0,0,.18-.08.45.45,0,0,0,.05-.32.3.3,0,0,0,0-.1.24.24,0,0,0-.08-.06.2.2,0,0,0-.11,0,.22.22,0,0,0-.18.08A.31.31,0,0,0,657.39,503.7Z"/><path d="M651.45,506.68h-.12v-.38h0a.31.31,0,0,1-.09.07.36.36,0,0,1-.39-.07.46.46,0,0,1-.08-.29.37.37,0,0,1,.1-.29.4.4,0,0,1,.3-.1h.17a.23.23,0,0,1,.11,0Zm-.33-.38a.19.19,0,0,0,.21-.19v-.36l-.08,0h-.1a.25.25,0,0,0-.19.07.32.32,0,0,0-.07.22.36.36,0,0,0,0,.11.29.29,0,0,0,0,.1l.07.06Z"/><path d="M652.12,505.63h.22v.51a.61.61,0,0,0,0,.14h.1v.1h-.2v-.13h0a.38.38,0,0,1-.11.11.33.33,0,0,1-.15,0l-.12,0-.08-.05a.28.28,0,0,1,0-.11.71.71,0,0,1,0-.16v-.33h-.1v-.1h.22v.52s0,.06,0,.08l0,0,.09,0a.21.21,0,0,0,.13-.05.38.38,0,0,0,.09-.13v-.39h-.1Z"/><path d="M653.27,506.29l-.06,0-.08,0-.09,0h-.1a.41.41,0,0,1-.16,0,.28.28,0,0,1-.11-.08.24.24,0,0,1-.07-.12.41.41,0,0,1,0-.16.43.43,0,0,1,0-.17.35.35,0,0,1,.08-.13.35.35,0,0,1,.12-.07.37.37,0,0,1,.15,0l.13,0a.24.24,0,0,1,.11.06.32.32,0,0,1,.07.13.59.59,0,0,1,0,.2h-.58a.28.28,0,0,0,.07.21.29.29,0,0,0,.19.06H653l.08,0,.06,0,.05,0Zm-.31-.58h-.1l-.07,0s0,0-.06.06l0,.1h.47a.21.21,0,0,0-.07-.15A.17.17,0,0,0,653,505.71Z"/><path d="M654.17,506.29l-.06,0-.08,0-.09,0h-.1a.41.41,0,0,1-.16,0,.28.28,0,0,1-.11-.08.24.24,0,0,1-.07-.12.41.41,0,0,1,0-.16.43.43,0,0,1,0-.17.35.35,0,0,1,.08-.13.35.35,0,0,1,.12-.07.37.37,0,0,1,.15,0l.13,0a.24.24,0,0,1,.11.06.32.32,0,0,1,.07.13.59.59,0,0,1,0,.2h-.58a.28.28,0,0,0,.07.21.3.3,0,0,0,.2.06H654l.07,0,.06,0,0,0Zm-.31-.58h-.1l-.07,0s0,0-.06.06l0,.1h.47a.21.21,0,0,0-.07-.15A.17.17,0,0,0,653.86,505.71Z"/><path d="M654.42,505.89v-.16h-.1v-.1h.2v.12h0l0-.05.06,0,.07,0h.09l.12,0,.09.05a.31.31,0,0,1,0,.1.79.79,0,0,1,0,.17v.43H655V506a.4.4,0,0,0,0-.18.16.16,0,0,0-.15-.07l-.07,0-.07,0,0,.06a.25.25,0,0,0,0,.07v.47h-.11Z"/><path d="M655.83,506.18a.11.11,0,0,0,0-.08l-.09,0-.13,0-.12,0-.09-.06a.21.21,0,0,1,0-.11.17.17,0,0,1,0-.1s0-.05.06-.07l.1,0h.11a.48.48,0,0,1,.18,0l.12.05,0,.1a.31.31,0,0,0-.1-.05.33.33,0,0,0-.15,0h-.06l-.06,0,0,0a.14.14,0,0,0,0,.06.07.07,0,0,0,0,.06l.09,0,.12,0,.12,0a.21.21,0,0,1,.1.06.18.18,0,0,1,0,.11.19.19,0,0,1-.08.17.33.33,0,0,1-.24.07h-.1l-.09,0-.08,0a.1.1,0,0,1-.05,0l.06-.09,0,0,.07,0,.08,0h.15l.07,0,0,0A.07.07,0,0,0,655.83,506.18Z"/><path d="M656.44,506.31a.11.11,0,0,1,.09-.09.07.07,0,0,1,.06,0,.07.07,0,0,1,0,.12.07.07,0,0,1-.06,0,.11.11,0,0,1-.09-.09Zm0-1h.12v.52l0,.26h-.08l0-.26Z"/></g></svg>