<svg id="_8._8409_commute_1" data-name="8. 8409 commute 1" xmlns="http://www.w3.org/2000/svg" viewBox="0 0 1357.03 1080"><defs><style>.cls-1{fill:gray;}.cls-2{fill:#fccc0a;}.cls-3{font-size:5px;font-family:Montserrat-Regular, Montserrat;}.cls-3,.cls-6{fill:#c1272d;}.cls-4{letter-spacing:-0.01em;}.cls-5{letter-spacing:0em;}.cls-7{fill:#fff;}.cls-8{fill:#fbb03b;}</style></defs><path class="cls-1" d="M844.52,484.35c3.87,0,3.87-6,0-6s-3.86,6,0,6Z"/><path class="cls-1" d="M853.77,475.66c3.86,0,3.86-6,0-6s-3.87,6,0,6Z"/><path class="cls-1" d="M846.79,481.14l.17-.28c.1-.17-.21.21,0-.05l.43-.4c.13-.11-.15.1.07-.05l.28-.19.51-.35a29.85,29.85,0,0,0,2.53-1.95c1.48-1.28,2.85-2.68,4.21-4.09a1.51,1.51,0,0,0,0-2.12,1.53,1.53,0,0,0-2.12,0c-1.4,1.44-2.8,2.88-4.33,4.18l-.53.44-.29.24h0l-.12.09c-.39.3-.8.58-1.21.86a6.44,6.44,0,0,0-2.24,2.16,1.5,1.5,0,0,0,2.59,1.51Z"/><path class="cls-2" d="M613.79,527.77c.85-5.77,4-10.7,7.57-15.16s7.59-8.68,11-13.37a93.05,93.05,0,0,0,15-32.79,103.77,103.77,0,0,0,2.52-18.4c.38-6.82.81-13.54,3.06-20.05,2.11-6.14,5.26-11.91,8.42-17.56a9.27,9.27,0,0,1,2.44-3.17,6.64,6.64,0,0,1,4.46-.84,22.53,22.53,0,0,1,8.37,2.65c5.07,2.63,9.47,6.35,14.39,9.22a129.79,129.79,0,0,0,13.83,6.6c9,3.87,18.82,8,24.28,16.62a9.45,9.45,0,0,0,2.33,3,5.21,5.21,0,0,0,3.7.66,76.63,76.63,0,0,0,9.51-2.43c5.8-1.55,11.8-2.81,17.37-5.07,4.69-1.91,9.09-4.71,11.52-9.29.81-1.53,1.55-2.57,3.4-1.67a38.64,38.64,0,0,1,3.59,2.27c2.27,1.44,4.61,2.79,7,4.07,18.91,10.14,40.87,15.63,57.26,30a62.29,62.29,0,0,1,5.53,5.49c.86,1,2.27-.46,1.41-1.42-14.87-16.69-37.06-23.15-56.61-32.51a127,127,0,0,1-14.51-8c-2-1.31-4.72-3.46-7.09-1.62a8.47,8.47,0,0,0-1.94,2.81,14.4,14.4,0,0,1-2.52,3.24c-3.82,3.72-9.17,5.45-14.19,6.86-3.25.91-6.52,1.75-9.78,2.62l-5.2,1.39a45.53,45.53,0,0,1-4.86,1.24c-2,.3-2.84-.53-3.81-2.12a29.15,29.15,0,0,0-2.1-3,31.94,31.94,0,0,0-5.26-5.2,63.32,63.32,0,0,0-13.09-7.54c-4.78-2.17-9.67-4.1-14.38-6.43-5.08-2.51-9.57-5.82-14.3-8.91-4.54-3-10-6-15.64-5.58a7.65,7.65,0,0,0-6.24,4c-1.68,2.72-3.14,5.63-4.6,8.49-3,5.85-5.56,12-6.62,18.5-1.1,6.74-.93,13.61-1.74,20.38A91.13,91.13,0,0,1,635.33,491a101.92,101.92,0,0,1-10.86,14.86c-3.69,4.27-7.56,8.57-10.11,13.66a25.59,25.59,0,0,0-2.5,7.72c-.19,1.25,1.74,1.8,1.93.53Z"/><path class="cls-1" d="M610.05,532.93c3.86,0,3.87-6,0-6s-3.87,6,0,6Z"/><path class="cls-1" d="M606.43,529.63c.17-.09.19,0,0,0a1.33,1.33,0,0,1,.4,0c-.44,0,.12.09-.09,0l-.17-.1c.2.13-.16-.22,0,0s-.09-.14-.1-.17-.05.26,0-.11c0,.24,0,0,0-.13a3.41,3.41,0,0,1,.4-1.43c.32-.65.7-1.27,1.08-1.88a65.08,65.08,0,0,1,5-7.18,2.07,2.07,0,0,0,0-2.83,2,2,0,0,0-2.83,0c-1.3,1.61-2.55,3.27-3.72,5a40.6,40.6,0,0,0-3.07,5c-.88,1.81-1.37,4-.15,5.83a4.08,4.08,0,0,0,5.32,1.55,2,2,0,1,0-2-3.46Z"/><path class="cls-1" d="M611.44,520.11c3.86,0,3.86-6,0-6s-3.87,6,0,6Z"/><text class="cls-3" transform="translate(596.33 510.99)">s<tspan class="cls-4" x="2.45" y="0">c</tspan><tspan class="cls-5" x="5.22" y="0">h</tspan><tspan x="8.62" y="0">ool</tspan></text><text class="cls-3" transform="translate(840.01 492.99)"><tspan class="cls-5">h</tspan><tspan x="3.39" y="0">o</tspan><tspan class="cls-5" x="6.53" y="0">m</tspan><tspan x="11.84" y="0">e</tspan></text><path class="cls-6" d="M844.75,485.12c3.86,0,3.87-6,0-6s-3.87,6,0,6Z"/><path class="cls-6" d="M612.25,519.67c3.86,0,3.87-6,0-6s-3.86,6,0,6Z"/><path class="cls-6" d="M755.92,400a5.22,5.22,0,0,0-3,5.51c.35,2.08,2.34,4.37,4.63,4.14s3.69-3.4,3.95-5.38c.41-3.15-2.24-3.64-4.71-4.15-1.13-.23-1.62,1.5-.48,1.74,1.4.29,3.73.37,3.38,2.4-.22,1.23-1,3.16-2.3,3.43-1.49.3-2.62-1.43-2.73-2.76a3.44,3.44,0,0,1,2.12-3.37c1-.51.13-2.06-.9-1.56Z"/><path class="cls-6" d="M760.18,403.67c1.75,0-.95,14.89,5.82,9,.88-.76-.4-2-1.27-1.27-1.9,1.63-1.92-1.85-2-3s-.13-2.59-.21-3.88-.68-2.69-2.3-2.65a.9.9,0,0,0,0,1.8Z"/><path class="cls-6" d="M756.42,409.75a64.33,64.33,0,0,0,.69,7.07c.77,4.82,1.64,7.66-1.58,12-2.22,3-2.19,5.21-1.08,8.82.34,1.11,2.08.63,1.74-.48-1.06-3.43.46-6.57,2.37-9.35a8.05,8.05,0,0,0,1.71-3.61c.16-1.48-.47-3-.78-4.45a59.77,59.77,0,0,1-1.27-10c-.06-1.16-1.86-1.16-1.8,0Z"/><path class="cls-6" d="M759,424.91c0,1.67-.63,4.63.58,6a23.39,23.39,0,0,0,2.43,1.87,23.56,23.56,0,0,1,2.66,2.72c.74.89,2-.39,1.27-1.27a23.47,23.47,0,0,0-3.92-3.73,2.26,2.26,0,0,1-1.23-2.31v-3.25a.9.9,0,0,0-1.8,0Z"/><path class="cls-6" d="M757,414.6c-1.25.15-2.49.34-3.73.59a10.88,10.88,0,0,0-3.3.88c-.71.42-.79.93-1,1.71-.3,1.35-.58,2.71-.87,4.06-.24,1.13,1.49,1.61,1.74.48l.55-2.61.25-1.16c.16-.73,0-.75.78-1.1,1.57-.73,3.84-.84,5.54-1.05,1.13-.14,1.15-1.94,0-1.8Z"/><path class="cls-6" d="M756,416.13a39.5,39.5,0,0,1-1.24,4.24,5.81,5.81,0,0,1-1.09,2.11,2.63,2.63,0,0,1-2.4.36c-1.13-.18-1.62,1.55-.47,1.74,1.73.27,3.49.32,4.57-1.3,1.28-1.93,1.8-4.47,2.37-6.67a.9.9,0,0,0-1.74-.48Z"/><path class="cls-7" d="M738.42,424.68a48.45,48.45,0,0,0,9.51-1.28.73.73,0,0,1,.46,0,.79.79,0,0,1,.22.19l1.69,1.9a4.41,4.41,0,0,1,.81,1.16,4,4,0,0,1,.22.91,19.5,19.5,0,0,1,.17,3.74L740,433.61a67.79,67.79,0,0,0-2-8.71"/><path class="cls-7" d="M738.42,425a49.5,49.5,0,0,0,9.08-1.17c.45-.11.71-.15,1.06.17a8.82,8.82,0,0,1,.76.86,10.23,10.23,0,0,1,1.4,1.68,5.92,5.92,0,0,1,.45,2.4,20.83,20.83,0,0,1,0,2.37l.22-.29L740,433.32l.37.21a67.79,67.79,0,0,0-2-8.71.3.3,0,0,0-.58.16,67.79,67.79,0,0,1,2,8.71c0,.17.22.24.37.21l11.46-2.32a.31.31,0,0,0,.22-.29,19.1,19.1,0,0,0,0-2.62,6.93,6.93,0,0,0-.38-2.18,6.27,6.27,0,0,0-1.2-1.6l-.84-.95a3.52,3.52,0,0,0-.73-.76c-.52-.32-1.35.07-1.89.19-.89.19-1.78.35-2.68.49a50.2,50.2,0,0,1-5.61.52c-.38,0-.39.61,0,.6Z"/><path d="M740.65,432.27l10.5-1.66c1.52-.24.88-2.56-.64-2.32L740,430c-1.53.24-.88,2.55.63,2.31Z"/><path class="cls-8" d="M739.86,425.94c0,.08,0,0,0,0a.68.68,0,0,1,.12-.12,1.64,1.64,0,0,1,.25-.21.5.5,0,0,1,.51-.1,1.31,1.31,0,0,1,.62,1c.07.34.08.91-.31,1.07a1.86,1.86,0,0,1-1.35-.08.32.32,0,0,0-.41.11.31.31,0,0,0,.11.41,2.62,2.62,0,0,0,1.61.19,1.21,1.21,0,0,0,.67-.35,1.38,1.38,0,0,0,.29-.72,2.47,2.47,0,0,0-.31-1.53,1.28,1.28,0,0,0-1.19-.72,1.52,1.52,0,0,0-.77.38,1.17,1.17,0,0,0-.49.71.3.3,0,0,0,.3.3.31.31,0,0,0,.3-.3Z"/><path class="cls-8" d="M741.62,427.52a2.26,2.26,0,0,0,.23,1.33.15.15,0,0,0,.2,0,.15.15,0,0,0,.06-.2,2,2,0,0,1-.19-1.18c0-.08-.08-.15-.15-.15a.15.15,0,0,0-.15.15Z"/><path class="cls-8" d="M741.67,427.45l.58.37a.15.15,0,0,0,.23-.13l0-1.17-.28.07.68,1.48c0,.08.14.09.21.06a.17.17,0,0,0,0-.21l-.68-1.48c-.07-.14-.28-.06-.28.08l0,1.17.22-.13-.58-.37c-.17-.11-.32.15-.15.26Z"/><path class="cls-8" d="M742.65,426.4a.63.63,0,0,0,.52-.07.16.16,0,0,0,.07-.09.15.15,0,0,0,0-.11.15.15,0,0,0-.2-.06l-.07,0h0l-.12,0h-.13a.14.14,0,0,0-.18.1.14.14,0,0,0,.1.18Z"/><path class="cls-8" d="M742.55,426.23a1.08,1.08,0,0,0,.27.89.6.6,0,0,0,.46.22.36.36,0,0,0,.35-.36.15.15,0,0,0-.15-.15c-.07,0-.16.07-.15.15h0s0,0,0,0,0,0,0,0h0l0,0s0,0,0,0,0,0,0,0h-.08l0,0,0,0-.12-.12h0v0l0,0-.05-.08,0,0h0v0l0-.08s0-.06,0-.08v-.06a.28.28,0,0,1,0-.09v-.06a.16.16,0,0,0-.11-.19c-.07,0-.17,0-.18.11Z"/><path class="cls-8" d="M743,427l.42-.24a.17.17,0,0,0,.05-.21.15.15,0,0,0-.21-.05l-.41.24a.15.15,0,0,0-.05.21.14.14,0,0,0,.2,0Z"/><path class="cls-8" d="M743.38,426.1a2.62,2.62,0,0,0,1-.38.14.14,0,0,0,0-.2.15.15,0,0,0-.2-.06,2.12,2.12,0,0,1-.9.35.15.15,0,0,0-.11.18.16.16,0,0,0,.19.11Z"/><path class="cls-8" d="M743.69,425.87a2.66,2.66,0,0,0,.15,1,.15.15,0,1,0,.29-.08,3,3,0,0,1-.12-.45,2.06,2.06,0,0,1,0-.44.15.15,0,0,0-.3,0Z"/><path class="cls-8" d="M744.23,426.05v.4a.15.15,0,1,0,.3,0v-.4a.15.15,0,0,0-.15-.15.16.16,0,0,0-.15.15Z"/><path class="cls-8" d="M744.53,426l.09-.05h0s0,0,0,0h0s0,0,0,0h0v0h0s0,0,0,0,0,0,0,0,0,0,0,0v0s0,0,0,0h0s0,0,0,0h0l0,0s0,0,0,0h0l-.1,0a.15.15,0,0,0-.1.12.15.15,0,0,0,.07.15l.19.13.09.06,0,0,0,0h0a.18.18,0,0,0,.11.05.16.16,0,0,0,.11-.05.17.17,0,0,0,0-.21,3.83,3.83,0,0,0-.42-.28l0,.27a.72.72,0,0,0,.28-.13.27.27,0,0,0,.1-.3.29.29,0,0,0-.27-.2.5.5,0,0,0-.28.12.14.14,0,0,0-.07.08.16.16,0,0,0,0,.12.15.15,0,0,0,.2.05Z"/><path class="cls-8" d="M744.89,425.64a.62.62,0,0,0,0,.19.37.37,0,0,0,.09.19.23.23,0,0,0,.15.1.41.41,0,0,0,.22,0,.39.39,0,0,0,.2-.28,1.13,1.13,0,0,0,0-.18.26.26,0,0,0-.08-.2.53.53,0,0,0-.44-.08.15.15,0,0,0-.11.18.17.17,0,0,0,.19.11h.07l.11,0,0,0a.05.05,0,0,0,0,0l0,0,0,0,0,0v0a.37.37,0,0,1,0,.11v0a.74.74,0,0,1,0,.14l0,0a.21.21,0,0,1,0,.06l0,0,0,0,0,0-.05,0h0l0,0,0,0,0,0,0,0,0,0,0,0v0s0,0,0-.06v0a.49.49,0,0,1,0-.17.18.18,0,0,0-.15-.15.22.22,0,0,0-.11.05.13.13,0,0,0,0,.1Z"/><path class="cls-8" d="M745.5,425.12a1,1,0,0,0,.09.58.43.43,0,0,0,.2.22.3.3,0,0,0,.35,0,.15.15,0,1,0-.21-.21h0l0,0h0l0,0s0,0,0,0,0,0,0,0h0a.19.19,0,0,1,0-.1.09.09,0,0,1,0-.05s0,0,0,0v0a.81.81,0,0,1,0-.22.15.15,0,0,0-.15-.15.16.16,0,0,0-.15.15Z"/><path class="cls-8" d="M746.37,425.64c0-.22,0-.44,0-.66l-.23.13,0,0v0s0,0,0,0l.06.05.12.12,0,.06,0,0h0l.09.14a.16.16,0,0,0,.21.06.17.17,0,0,0,.05-.21,1.71,1.71,0,0,0-.52-.55.14.14,0,0,0-.22.13c0,.22,0,.44,0,.66a.15.15,0,0,0,.15.15.15.15,0,0,0,.15-.15Z"/><path class="cls-8" d="M746.39,425.62h.12l.1,0,0,0a.08.08,0,0,0,0,0,.06.06,0,0,0,0-.06.13.13,0,0,0,0-.06.11.11,0,0,0-.09-.06h0l-.08,0h0l-.08,0h-.07l-.05,0s0,0,0,.05a.14.14,0,0,0,0,.06.22.22,0,0,0,0,.11.18.18,0,0,0,.1,0Z"/><path class="cls-8" d="M746.58,424.89a2,2,0,0,0,.16.63.11.11,0,0,0,.09.06.14.14,0,0,0,.11,0,.11.11,0,0,0,.07-.09.17.17,0,0,0,0-.12s0,0,0,0v0a.14.14,0,0,0,0-.07s0-.08,0-.13a.51.51,0,0,1,0-.13v0h0v0a.2.2,0,0,0,0-.07.15.15,0,0,0-.15-.15.17.17,0,0,0-.15.15Z"/><path class="cls-8" d="M746.88,425.06h0l0,0h.15a.1.1,0,0,1,0,0v0h0l0,0h0l0,0,0,0-.09.07a.14.14,0,0,0-.08.13.17.17,0,0,0,.08.13,2.84,2.84,0,0,1,.58.34.16.16,0,0,0,.21-.06.15.15,0,0,0-.06-.2,2.59,2.59,0,0,0-.58-.34v.26l.12-.1.13-.1a.34.34,0,0,0,.08-.17.21.21,0,0,0-.09-.18.42.42,0,0,0-.29-.06.58.58,0,0,0-.3.13.15.15,0,0,0,0,.21.17.17,0,0,0,.22,0Z"/><path class="cls-8" d="M747.55,424.76a4,4,0,0,0,.06.85.15.15,0,0,0,.19.1.14.14,0,0,0,.1-.18s0-.07,0-.1v-.08c0-.06,0-.12,0-.19v-.4a.15.15,0,0,0-.15-.15.17.17,0,0,0-.15.15Z"/><path class="cls-8" d="M747.79,425h.07l0,0s0,0,0,0l0,0s0,0,0,0l0,0s0,0,0,0v0s0,0,0,0v.12s0,0,0,0v0a.25.25,0,0,0,0,.07s0,0,0,0,0,0,0,0,0,0,0,0l-.09.08a.31.31,0,0,0-.07.18.14.14,0,0,0,.15.15.15.15,0,0,0,.15-.15s0,0,0,0v0h0l.06-.05a.43.43,0,0,0,.11-.12.76.76,0,0,0,.08-.39.52.52,0,0,0-.17-.37.41.41,0,0,0-.37-.09.16.16,0,0,0-.11.19.16.16,0,0,0,.19.1Z"/><path class="cls-8" d="M743.84,428.16c.2-.66.92-1,1.49-1.29a10.63,10.63,0,0,1,2.15-.79l-.12-.27a18.32,18.32,0,0,0-2.44,1.65.15.15,0,0,0,.1.26,1.74,1.74,0,0,0,.7-.22,6.63,6.63,0,0,0,.72-.38c.09.18.35,0,.26-.15s-.49-.05-.67,0l-.5.24a1.14,1.14,0,0,1-.51.17l.11.26a19.19,19.19,0,0,1,2.38-1.62.15.15,0,0,0-.11-.27,11.37,11.37,0,0,0-2.34.88,2.66,2.66,0,0,0-1.51,1.41.15.15,0,0,0,.29.08Z"/><path class="cls-8" d="M745.94,427.59a.29.29,0,0,0-.34.25.28.28,0,0,0,0,.25.24.24,0,0,0,.11.06l.06,0,0,0h0l0,0h0l0,0v0l0,0v0l0,0,0,0,0,0-.07,0a.13.13,0,0,0-.07.09.15.15,0,0,0,0,.11.15.15,0,0,0,.2.06.29.29,0,0,0,.19-.26.27.27,0,0,0-.11-.18l-.12,0h0l0,0h0l0,0h0l0,0v0a.13.13,0,0,1,0-.06v0l0,0,0,0,0,0,0,0,0,0,0,0h0a.14.14,0,0,0,.18-.1.16.16,0,0,0-.1-.19Z"/><path class="cls-8" d="M745.9,427.53a.78.78,0,0,0,.13.36,1.63,1.63,0,0,0,.23.29.17.17,0,0,0,.21,0,.16.16,0,0,0,0-.22l-.1-.11,0-.06h0l0,0,0,0a.21.21,0,0,0,0-.06v0h0s0,0,0,0,0,0,0-.08v0h0a.15.15,0,0,0,0-.11.21.21,0,0,0-.11,0c-.07,0-.16.07-.15.15Z"/><path class="cls-8" d="M746.05,428a.92.92,0,0,0,.32-.32.2.2,0,0,0,0-.11.13.13,0,0,0-.07-.09.15.15,0,0,0-.11,0,.13.13,0,0,0-.09.07l-.06.1,0,0a.52.52,0,0,1-.11.1l0,0-.09.06a.13.13,0,0,0-.07.09.15.15,0,0,0,0,.11.13.13,0,0,0,.09.07.14.14,0,0,0,.11,0Z"/><path class="cls-8" d="M746.2,427.54a.36.36,0,0,0,.16.22.31.31,0,0,0,.12.05h.11a.24.24,0,0,0,.11-.09.61.61,0,0,0,0-.12l0-.11a1,1,0,0,0,0-.3s0-.07-.07-.09a.2.2,0,0,0-.11,0,.13.13,0,0,0-.09.07.22.22,0,0,0,0,.11v0a1,1,0,0,1,0,.17v0a.94.94,0,0,1,0,.16v0s0,0,0,.05l0,0h0l0,0h.07l0,0,0,0,0,0,0,0,0-.05,0,0a.08.08,0,0,1,0,0,.15.15,0,0,0-.19-.1.14.14,0,0,0-.1.18Z"/><path class="cls-8" d="M746.8,426.87a.88.88,0,0,0,0,.32l.07-.17h0a.14.14,0,0,0-.11,0,.15.15,0,0,0-.07.09.39.39,0,0,0,0,.26.13.13,0,0,0,.07.09.15.15,0,0,0,.11,0,.16.16,0,0,0,.11-.19s0,0,0-.05v0l0-.05-.19.11h.1a.28.28,0,0,0,.13,0l0,0,0,0a.12.12,0,0,0,0-.1.8.8,0,0,1,0-.15v-.09a.15.15,0,0,0-.15-.15.14.14,0,0,0-.15.15Z"/><path class="cls-8" d="M747.4,427a.44.44,0,0,0,.11-.36.2.2,0,0,0-.17-.17.23.23,0,0,0-.21.13.52.52,0,0,0,.08.62.56.56,0,0,0,.35.15.16.16,0,0,0,.15-.15.15.15,0,0,0-.15-.15h0s0,0,0,0h0s0,0,0,0l0,0s0,0,0,0l0,0,0,0s0,0,0,0l0-.05s0,0,0,0h0a0,0,0,0,0,0,0h0s0,0,0,0v0a0,0,0,0,0,0,0v0s0,0,0,0,0,0,0,0l0,0h0c-.07,0-.12,0-.16,0l0,0h0v0h0s0,0,0,0,0,.05,0,.07l0,.06a.14.14,0,0,0,0,.11.13.13,0,0,0,.07.09.14.14,0,0,0,.11,0,.22.22,0,0,0,.09-.07Z"/><path class="cls-8" d="M747.43,426.67a.4.4,0,0,0,.06.22.16.16,0,0,0,.19.06.14.14,0,0,0,.09-.17l0-.11v0a.28.28,0,0,1,0-.13v0s0,0,0,0v0h0l0,0,0,0h0l.05,0,0,0h0l0,0a.75.75,0,0,1,.07.12.17.17,0,0,0,.21.05.16.16,0,0,0,.05-.21,1.23,1.23,0,0,0-.29-.35.43.43,0,0,0-.24-.08.26.26,0,0,0-.25.19.7.7,0,0,0,0,.32l.27-.11v0h0v0s0-.08,0-.1a.14.14,0,0,0-.21,0,.19.19,0,0,0-.05.1Z"/><path class="cls-8" d="M747.91,426.2a.85.85,0,0,0,0,.22l.06.11.07.1a.16.16,0,0,0,.11.05.12.12,0,0,0,.1-.05.14.14,0,0,0,.05-.1v0a.1.1,0,0,0,0-.07v0l0,0a.75.75,0,0,1-.07-.12l0,0a.88.88,0,0,1,0-.15v0a.22.22,0,0,0-.05-.11.18.18,0,0,0-.1,0,.21.21,0,0,0-.11,0,.12.12,0,0,0,0,.11Z"/><path class="cls-8" d="M747.88,426.5h.44a.15.15,0,1,0,0-.3h-.44a.15.15,0,0,0,0,.3Z"/><path class="cls-8" d="M747.18,427.94l.06,0a.15.15,0,0,0,.2-.21l0-.07,0,0v0s0,0,0,0a1.09,1.09,0,0,1,0-.17v0s0,0,0,0h0s0,0,0,0,0,0,0,0h0s0,0,0,0a.32.32,0,0,1,.14,0h0s0,0-.07-.08v0h0v0s0,0,0,0h0v0l0,0,0,0h0l0,0a.16.16,0,0,0-.06.21.16.16,0,0,0,.21.05.63.63,0,0,0,.23-.2.19.19,0,0,0-.06-.26.27.27,0,0,0-.2,0,.43.43,0,0,0-.27.1.25.25,0,0,0-.08.18.39.39,0,0,0,0,.15,1.35,1.35,0,0,0,.14.3l.2-.21-.06,0a.15.15,0,0,0-.2.06.15.15,0,0,0,0,.2Z"/><path class="cls-8" d="M747.77,427.25a.44.44,0,0,0,.05.37s0,.05.07.06a.17.17,0,0,0,.1,0,.18.18,0,0,0,.15-.1c0-.06.05-.13.08-.19l0,0v0l0,0h0l0,0h0l0,0h-.08a1.4,1.4,0,0,1,.17.09.14.14,0,0,0,.11,0,.13.13,0,0,0,.09-.07.15.15,0,0,0,0-.2l-.11-.06,0,0a.35.35,0,0,0-.14,0,.24.24,0,0,0-.12.07.36.36,0,0,0,0,.09c0,.05,0,.09,0,.13l0,0v0l0,0h0l0,0h0l0,0H748l0,0h0l0,0h0l0,0,0-.06,0,0a.25.25,0,0,1,0-.07v0a.09.09,0,0,1,0-.05.15.15,0,0,0-.11-.18.14.14,0,0,0-.18.1Z"/><path class="cls-8" d="M748.38,427a.48.48,0,0,0,.12.22.27.27,0,0,0,.08.07l.08.05,0,0,0,0,0,0v-.06l0,0h0l0,0h0l0,0h0a.13.13,0,0,0-.1,0,.16.16,0,0,0,0,.11.22.22,0,0,0,0,.11.18.18,0,0,0,.1,0,.17.17,0,0,0,.1,0l.07-.07a.25.25,0,0,0,0-.17.24.24,0,0,0-.12-.14l-.07-.05,0,0-.06-.06,0,0a.56.56,0,0,1-.05-.08l0,0s0,0,0,0a.15.15,0,1,0-.29.07Z"/><path class="cls-8" d="M748.92,426.79a.29.29,0,0,0,.05.13.26.26,0,0,0,.09.09l.12.08,0,0,0,0,0,0v0a0,0,0,0,0,0,0v0s0,0,0,0l0,0,0,0,0,0,0,0a.13.13,0,0,0-.07.09.14.14,0,0,0,0,.11.16.16,0,0,0,.21.06.46.46,0,0,0,.16-.15.25.25,0,0,0,0-.25.34.34,0,0,0-.12-.12.53.53,0,0,1-.1-.06l0,0,0,0,0,0,0,0,0,0v0h0a.13.13,0,0,0,0-.1.14.14,0,0,0-.21,0,.12.12,0,0,0-.05.1Z"/><path class="cls-8" d="M739.43,426.22l.09.08,0,0,0,0,.06.1v0s0,0,0,.06a.16.16,0,0,0,.17.1.15.15,0,0,0,.13-.14s0,0,0,0a.09.09,0,0,0,0-.05v-.06h0l0-.07s0,0,0,0l0,0-.23,0a2.46,2.46,0,0,1,.33.84.15.15,0,0,0,.18.11.16.16,0,0,0,.11-.19,2.67,2.67,0,0,0-.36-.91.15.15,0,0,0-.24,0,.77.77,0,0,0-.2.46l.29,0a.82.82,0,0,0-.3-.47.15.15,0,0,0-.21,0,.15.15,0,0,0,0,.21Z"/><path class="cls-8" d="M740.11,426.27l.71-.12a.14.14,0,0,0,.1-.18.15.15,0,0,0-.18-.11L740,426a.14.14,0,0,0-.1.19.15.15,0,0,0,.18.1Z"/><path class="cls-8" d="M740.77,426.09l.71,1.08a.15.15,0,0,0,.21.05.16.16,0,0,0,0-.2l-.71-1.08a.15.15,0,0,0-.2-.06.16.16,0,0,0-.06.21Z"/><path class="cls-8" d="M739.6,427.55c0-.13,0-.26,0-.38v0l-.13.07h0l0,0,.08.06.14.12a.15.15,0,0,0,.26-.1v0h0v0h0v0s0,0,0,0,0,0,0,0l-.25-.11a1,1,0,0,0,.27.65.15.15,0,0,0,.21-.21l0,0h0s0,0,0-.05l0-.06a.21.21,0,0,1,0-.07v0l0,0s0,0,0-.07,0,0,0-.06v-.05A.16.16,0,0,0,740,427a.15.15,0,0,0-.17,0,.47.47,0,0,0-.12.32l.26-.11-.2-.16a.48.48,0,0,0-.11-.09.2.2,0,0,0-.2,0c-.09.06-.09.17-.1.26l0,.26a.14.14,0,0,0,0,.11.2.2,0,0,0,.09.07.16.16,0,0,0,.19-.1Z"/><path class="cls-8" d="M740.13,426.54a1.13,1.13,0,0,0,.14.6.16.16,0,0,0,.21.06.16.16,0,0,0,0-.21.59.59,0,0,0,0-.08s0,0,0,0l0,0a1.22,1.22,0,0,1,0-.17v0a1.28,1.28,0,0,1,0-.19.14.14,0,0,0-.15-.15.15.15,0,0,0-.15.15Z"/><path class="cls-8" d="M740.62,426.56l.12,1.05a.15.15,0,0,0,.15.15c.07,0,.16-.07.15-.15l-.12-1.05a.15.15,0,0,0-.15-.15c-.07,0-.16.07-.15.15Z"/><path class="cls-8" d="M740.21,427.06c0,.3,0,.6,0,.9a.17.17,0,0,0,.15.15c.08,0,.16-.07.15-.15,0-.3,0-.6,0-.9a.15.15,0,0,0-.3,0Z"/><path class="cls-8" d="M741.05,427.17a.69.69,0,0,0,.1.39.16.16,0,0,0,.09.07.15.15,0,0,0,.11,0,.13.13,0,0,0,.07-.09.14.14,0,0,0,0-.11.21.21,0,0,1,0-.07v0a.75.75,0,0,1,0-.16v-.05a.16.16,0,0,0-.05-.11.12.12,0,0,0-.1,0,.15.15,0,0,0-.15.15Z"/><path class="cls-8" d="M741.09,426.92a.15.15,0,1,0,0-.3.15.15,0,0,0,0,.3Z"/><path class="cls-8" d="M741.72,426.86a.85.85,0,0,0-.16-.72c-.15-.2-.35-.35-.5-.55a.16.16,0,0,0-.21,0,.15.15,0,0,0-.05.2c.14.19.32.34.47.52a.92.92,0,0,1,.15.25.54.54,0,0,1,0,.28c-.06.18.23.26.28.07Z"/><path class="cls-8" d="M739.67,427.63h.05l.09,0h0l.06,0h.06l.05,0,0,0a.17.17,0,0,0,0-.12v0s0,0-.06-.05l-.12,0h-.14l0,0a.12.12,0,0,0-.08.08.08.08,0,0,0,0,.05.22.22,0,0,0,.05.11l0,0a.1.1,0,0,0,.07,0Z"/><path class="cls-8" d="M739.62,427.55a.15.15,0,0,0,0-.3.15.15,0,0,0,0,.3Z"/><path class="cls-8" d="M741.61,426.48c-.14-.21-.28-.4-.43-.59a.73.73,0,0,0-.53-.3,1.26,1.26,0,0,0-.33.05l-.34.06c-.17,0-.37.14-.4.33a.16.16,0,0,0,.09.18.14.14,0,0,0,.18-.06c.17-.4.65-.41,1-.42a.15.15,0,0,0,0-.3c-.47,0-1.06.07-1.28.57l.28.11c0-.1.19-.12.28-.13a1.83,1.83,0,0,1,.52-.09c.15,0,.25.16.34.27s.23.31.34.47.36,0,.26-.15Z"/><path class="cls-8" d="M741,432.5c-.14.22-.28.43-.43.64a.15.15,0,0,0,0,.2,7.79,7.79,0,0,0,.72.34.15.15,0,0,0,.19-.11.15.15,0,0,0-.11-.18c-.21-.09-.43-.19-.65-.31l.06.21c.15-.21.29-.42.42-.64a.15.15,0,0,0,0-.2.15.15,0,0,0-.2.05Z"/><path class="cls-8" d="M742.23,432.21a1,1,0,0,0-.28.26.39.39,0,0,0-.08.41.3.3,0,0,0,.18.13l.19.07.39.15a.15.15,0,0,0,.19-.1.16.16,0,0,0-.11-.19l-.33-.12-.16-.06-.08,0h0s0,0,0,0v0h0s0,0,0,0l.07-.12s0,0,0,0l0,0,0-.05,0,0h0s0,0,0,0l0,0a.15.15,0,0,0,0-.21.16.16,0,0,0-.2-.05Z"/><path class="cls-8" d="M743.38,432l-.25.32-.12.16a.85.85,0,0,0-.14.19.19.19,0,0,0,.1.25l.2.06.4.13a.15.15,0,0,0,.18-.11.14.14,0,0,0-.1-.18l-.3-.1-.15,0-.07,0h0s0,0,0,0l0,.07s0,.06,0,.07h0l0,0,.05-.07.12-.15.24-.31a.15.15,0,0,0-.21-.21Z"/><path class="cls-8" d="M744.1,432.31v.29a.12.12,0,0,0,0,.1.14.14,0,0,0,.1.05.16.16,0,0,0,.11-.05.13.13,0,0,0,0-.1v-.29a.15.15,0,0,0,0-.11.21.21,0,0,0-.11,0,.14.14,0,0,0-.1,0,.16.16,0,0,0,0,.11Z"/><path class="cls-8" d="M744.51,432.25v.21a.24.24,0,0,0,0,.08l.07.06h.12l0,0,0-.05v0a.14.14,0,0,0,0-.09l0-.11v0l0,0h0l0,0h-.05l0,0,0,0,0,0,0,0,0,0s0,0,0,.06v0s0,.05,0,.08a.16.16,0,0,0,.05.11.18.18,0,0,0,.1,0,.21.21,0,0,0,.11,0,.15.15,0,0,0,0-.11.22.22,0,0,0,0-.08.2.2,0,0,0,0-.07.14.14,0,0,0,0-.06.24.24,0,0,0-.08-.09l0,0-.1,0h-.06l-.06,0a.3.3,0,0,0-.08.08.17.17,0,0,0,0,.12.38.38,0,0,1,0,.1l0,0,0,0,0,0h0l.25.11v-.21a.18.18,0,0,0-.15-.15.16.16,0,0,0-.11,0,.15.15,0,0,0,0,.1Z"/><path class="cls-8" d="M745.38,432a.23.23,0,0,0-.23.09.31.31,0,0,0,0,.19,1.09,1.09,0,0,0,0,.17l0,0s0,0,0,0v0s0,0,0,.05v0s0,0,0,0,0,0,0,0v0h0a.15.15,0,0,0-.11,0,.21.21,0,0,0,0,.11c0,.07.07.16.15.15a.28.28,0,0,0,.2-.12.26.26,0,0,0,0-.17.41.41,0,0,0,0-.19v-.05h0s0,0,0,0a.31.31,0,0,1,0-.08v0a.08.08,0,0,1,0,0v0s0,0,0,0h0l0,0h-.08a.15.15,0,0,0,.18-.1.15.15,0,0,0-.1-.19Z"/><path class="cls-8" d="M745.86,432.29a0,0,0,0,1,0,0l0,0,.08-.12a.27.27,0,0,0,0-.2.21.21,0,0,0-.13-.16.24.24,0,0,0-.24.06.47.47,0,0,0,0,.63.29.29,0,0,0,.18.1.28.28,0,0,0,.25-.06.15.15,0,0,0-.21-.21h0l0,0h0l0,0h0l-.05,0,0,0s0,0-.05-.05l0,0,0-.06,0,0a.32.32,0,0,1,0-.09v0a.11.11,0,0,1,0-.08v0s0-.06,0-.08v0l0-.06,0,0,0,0,0,0h0l0,0h-.06l0,0h0l0,0a0,0,0,0,1,0,0v0s0,0,0,0V432c0,.07-.09.12-.1.2a.15.15,0,0,0,.1.19.17.17,0,0,0,.19-.11Z"/><path class="cls-8" d="M746,432a1.3,1.3,0,0,0,0,.34s0,.07.07.09l.09,0a.15.15,0,0,0,.13-.15.22.22,0,0,1,0-.08v0a.38.38,0,0,1,0-.1l0,0,0-.05,0,0,0,0,0,0h0l0,0a.21.21,0,0,0,0-.11.12.12,0,0,0,0-.1.16.16,0,0,0-.11,0h-.06l0,0-.06,0,0,.06a.14.14,0,0,0,0,.06.46.46,0,0,0-.05.23l.3,0a.13.13,0,0,1,0-.06v0a1,1,0,0,1,0-.24.14.14,0,0,0-.15-.15.15.15,0,0,0-.11,0l0,0a.19.19,0,0,0,0,.08Z"/><path class="cls-8" d="M746.53,431.58a1.15,1.15,0,0,0,.09.73.13.13,0,0,0,.09.07.16.16,0,0,0,.17-.22h0v-.05a.14.14,0,0,1,0-.07s0-.05,0-.07v0s0,0,0,0v-.23s0,0,0,0v0a.15.15,0,0,0-.1-.19.17.17,0,0,0-.19.11Z"/><path class="cls-8" d="M746.52,432.08l.46,0a.15.15,0,0,0,.15-.15.17.17,0,0,0-.15-.15l-.46,0a.14.14,0,0,0-.15.15.15.15,0,0,0,.15.15Z"/><path class="cls-8" d="M747.27,431.51a1.46,1.46,0,0,0,.08.69.16.16,0,0,0,.19.11.15.15,0,0,0,.1-.18c0-.06,0-.11,0-.16a.29.29,0,0,0,0-.09v-.05s0,0,0,0a1.22,1.22,0,0,1,0-.33.16.16,0,0,0-.05-.11.18.18,0,0,0-.1,0,.14.14,0,0,0-.15.15Z"/><path class="cls-8" d="M747.24,431.89l.39,0a.16.16,0,0,0,.11-.26.21.21,0,0,0-.11,0l-.39,0a.15.15,0,0,0-.11,0,.21.21,0,0,0,0,.11.12.12,0,0,0,0,.1.16.16,0,0,0,.11.05Z"/><path class="cls-8" d="M747.53,431.38a1.74,1.74,0,0,0,0,.6.16.16,0,0,0,.17.1.14.14,0,0,0,.13-.14v-.07h0v0h0s0,0,0,0v0h0s0,0,0,0h0s0,0,0,0,0,0,0,0v0s0,0,0,0v0s0,.05,0,.07a.15.15,0,0,0,.15.15.14.14,0,0,0,.15-.15.39.39,0,0,0,0-.24.28.28,0,0,0-.23-.15.29.29,0,0,0-.23.14.42.42,0,0,0,0,.25l.29,0,0-.14v0h0v0s0,0,0-.07a2.44,2.44,0,0,1,0-.27s0-.08,0-.11a.21.21,0,0,0-.11,0,.12.12,0,0,0-.1,0,.22.22,0,0,0-.05.11Z"/><path class="cls-8" d="M748.07,431.66v.15a.16.16,0,0,0,0,.11l0,0h.05a.14.14,0,0,0,.15-.15v-.15a.15.15,0,0,0,0-.11l-.05,0h-.06a.15.15,0,0,0-.1,0,.16.16,0,0,0,0,.11Z"/><path class="cls-8" d="M748.61,431.38s0,0-.06,0a.21.21,0,0,0,0,.06.18.18,0,0,0,0,.13.07.07,0,0,0,0,0l0,.05s0,0,0,0l.06,0a.16.16,0,0,0,.1-.05.14.14,0,0,0,0-.1v0s0,0,0,0v0l0,0v0l0,0,0,0,0,0,0-.06v-.05a.14.14,0,0,0,0-.06.16.16,0,0,0-.09-.07h0a.08.08,0,0,0-.07,0Z"/><path class="cls-8" d="M749.07,431.35a.6.6,0,0,0,.19.44.15.15,0,0,0,.23,0l.17-.24-.28-.08a1,1,0,0,0,.08.37.16.16,0,0,0,.11.07.16.16,0,0,0,.12,0,.74.74,0,0,0,.22-.38.16.16,0,0,0-.11-.19.16.16,0,0,0-.18.11s0,.05,0,.08v0s0,0,0,0a.05.05,0,0,1,0,0l0,0h0s0,0,0,0h0l0,0,.24,0h0a0,0,0,0,0,0,0v0s0-.06,0-.09v0a.37.37,0,0,1,0-.11.15.15,0,0,0-.11-.14.15.15,0,0,0-.17.07l-.16.24.23,0s0,0-.05-.05,0,0,0,0v0l0,0v0s0,0,0,0a.64.64,0,0,1,0-.07v0s0,0,0-.07a.15.15,0,0,0-.15-.15.17.17,0,0,0-.15.15Z"/><path class="cls-8" d="M750.05,431.25a.42.42,0,0,0,0,.1.29.29,0,0,0,0,.13.28.28,0,0,0,0,.13.75.75,0,0,0,.07.12.15.15,0,0,0,.24,0,.57.57,0,0,0,.08-.29l-.23.13,0,0,0,0,0,0,0,0s0,0,0,0l0,0h0a.13.13,0,0,0,.07.09.14.14,0,0,0,.11,0,.11.11,0,0,0,.09-.07.14.14,0,0,0,0-.11.35.35,0,0,0-.08-.13l0,0,0,0-.07,0-.08,0a.17.17,0,0,0-.07.13.13.13,0,0,1,0,.06v0l0,.11v0l0,0,.23,0h0l0,0,0,0,0,0,0-.06v0a.08.08,0,0,1,0-.07v0a.14.14,0,0,1,0-.06l0,0,0,0a.17.17,0,0,0,0-.12.2.2,0,0,0-.07-.09.13.13,0,0,0-.12,0,.18.18,0,0,0-.09.07Z"/><path class="cls-8" d="M750.7,431.26l.19-.12-.23-.13a2.17,2.17,0,0,1,0,.36c0,.06,0,.12,0,.18s0,.05,0,0v0s0,.06,0,.1a.15.15,0,0,0,.11.18.15.15,0,0,0,.18-.1,2.56,2.56,0,0,0,0-.78.15.15,0,0,0-.07-.13.16.16,0,0,0-.15,0l-.19.12a.15.15,0,0,0,0,.21.15.15,0,0,0,.2.05Z"/><path class="cls-2" d="M802.54,430.79v5.62a1,1,0,1,0,2,0v-5.62a1,1,0,0,0-1-1,1,1,0,0,0-1,1Z"/><path class="cls-2" d="M804.42,432.08l.56-.14.15,0,.08,0c-.1,0,.15,0,.17,0a3.62,3.62,0,0,1,.57,0c.07,0,.06,0,0,0l.1,0,.29.08c.23.08,0-.05.12.06s.21.12.1.05.06.06.08.08a1,1,0,0,1,.17.18c-.09-.11,0-.06,0,0s.14.26.08.13,0,.07,0,.1,0,.27,0,0a1.2,1.2,0,0,0,0,.19c0,.1.06-.17,0,0s-.09.17,0,.05c0,.06-.17.18,0,.06,0,0-.17.18-.07.08s-.06,0-.09.06-.27.12-.05,0l-.24.08-.41.09c.22-.05,0,0-.08,0l-.21,0c-.4,0-.8,0-1.2.05a1,1,0,0,0-1,.74,1.07,1.07,0,0,0,.46,1.13l3.73,2.8a1,1,0,0,0,1.37-.35,1,1,0,0,0-.36-1.37L805,433.51l-.5,1.86a7.91,7.91,0,0,0,3-.44,2.38,2.38,0,0,0,1.4-2.35,2.93,2.93,0,0,0-1.64-2.34,4.88,4.88,0,0,0-3.39-.09,1,1,0,0,0-.7,1.23,1,1,0,0,0,1.23.7Z"/></svg>