<svg id="_9._THWACK" data-name="9. THWACK" xmlns="http://www.w3.org/2000/svg" viewBox="0 0 1357.03 1080"><defs><style>.cls-1{fill:#fcee21;}.cls-2{fill:#ff0;}.cls-3{fill:blue;}.cls-4{fill:red;}.cls-5{fill:#fff;}</style></defs><path class="cls-1" d="M765.14,412.15c0-.49,0-1,0-1.47a3.31,3.31,0,0,0-.32-1.56.74.74,0,0,0-1-.26.73.73,0,0,0-.26,1l0,.06c0-.06,0-.06,0,0a.24.24,0,0,1,0,.08c0,.06,0,.2,0,0,0,0,0,.09,0,.13,0,.23,0,.46,0,.68,0,.46,0,.91,0,1.37a.73.73,0,0,0,.72.72.74.74,0,0,0,.72-.72Z"/><path class="cls-2" d="M750.41,396.13a9.82,9.82,0,0,0,3.2,2.37c.66.3,1.56.47,2-.1a1.66,1.66,0,0,0,.26-.95l.26-3.4a6.28,6.28,0,0,0,3.09,3.11,2.65,2.65,0,0,0,1.94.24,2.7,2.7,0,0,0,1.12-.83,6.85,6.85,0,0,0,1.41-2.51,9.87,9.87,0,0,0,1.2,3,3.35,3.35,0,0,0,2.68,1.56c1.4,0,2.46-1.21,3.74-1.76a8.54,8.54,0,0,0-2.16,5.72,1.27,1.27,0,0,0,.32,1,1.33,1.33,0,0,0,.69.26c1.09.18,2.19.33,3.3.43-1.38.63-2.9.91-4.23,1.62s-2.52,2.05-2.36,3.55a15.41,15.41,0,0,0-4.93-2.58c-1.19-.37-2.7-.51-3.49.45a7.77,7.77,0,0,0-3.61-1.65,6.06,6.06,0,0,0-3.69-.11,6.19,6.19,0,0,0-2.35,2.06,9.85,9.85,0,0,0-3.68-3,2.26,2.26,0,0,0-1.87-.2c-.33.17-.6.49-1,.54a4.62,4.62,0,0,1,1.44-1,13.49,13.49,0,0,0,6.42-8.28"/><path class="cls-3" d="M750.16,396.39c1.08,1.16,3,3,4.78,2.73a1.37,1.37,0,0,0,1.2-1.08,22.16,22.16,0,0,0,.34-4l-.67.18c.82,1.7,2.52,3.46,4.51,3.62s3.16-2.11,3.71-3.69h-.69c.5,1.78,1.17,3.83,3,4.58s3.46-.8,5.09-1.58l-.43-.57a9,9,0,0,0-2.27,5.78c0,.73.13,1.4.86,1.69a15.25,15.25,0,0,0,3.81.55l-.18-.67c-2.59,1.12-6.91,1.79-6.77,5.48l.54-.31c-2-1.52-6.52-4.42-8.86-2.07h.51a10,10,0,0,0-5.47-2.08c-2.1-.22-3.41.81-4.68,2.37h.5a10.48,10.48,0,0,0-3.39-2.85,4.17,4.17,0,0,0-1.67-.55c-.75,0-1.13.43-1.81.68l.35.6a25.65,25.65,0,0,1,2.92-2,13.8,13.8,0,0,0,2.22-2.1,14,14,0,0,0,2.81-5.38.36.36,0,0,0-.69-.2,13.23,13.23,0,0,1-3.12,5.62,13,13,0,0,1-2.49,2.07A11.29,11.29,0,0,0,742,404.7c-.23.25,0,.74.35.61.66-.25,1.11-.69,1.91-.61a4.61,4.61,0,0,1,1.71.8,10,10,0,0,1,2.56,2.34.35.35,0,0,0,.5,0c1.28-1.57,2.54-2.46,4.67-2.08a9,9,0,0,1,4.47,1.79.38.38,0,0,0,.51,0c1.16-1.16,3-.47,4.32.06a16,16,0,0,1,3.67,2.12.36.36,0,0,0,.54-.31c-.12-3.3,4.11-3.86,6.41-4.86.36-.16.13-.64-.18-.67a11.1,11.1,0,0,1-2.73-.34c-.59-.23-1.11-.33-1.22-1.18a5.19,5.19,0,0,1,.12-1.26,8.41,8.41,0,0,1,1.94-4,.37.37,0,0,0-.44-.57c-1.4.67-2.79,2.16-4.45,1.53s-2.2-2.54-2.64-4.09a.36.36,0,0,0-.69,0c-.6,1.72-1.87,3.79-4,2.86a6,6,0,0,1-2.93-3c-.17-.35-.65-.15-.67.18l-.17,2.18a3.9,3.9,0,0,1-.07,1,1.66,1.66,0,0,1-1.52,1.07c-1.22-.22-2.54-1.54-3.33-2.39-.32-.34-.83.17-.51.51Z"/><path class="cls-4" d="M744.3,400.62a17.1,17.1,0,0,0,4.31-.7.67.67,0,0,0-.36-1.3,16.07,16.07,0,0,1-4,.65c-.87,0-.87,1.39,0,1.35Z"/><path class="cls-4" d="M745.8,400a27.24,27.24,0,0,0,.88,6,.67.67,0,0,0,1.3-.36,25.86,25.86,0,0,1-.83-5.6c0-.86-1.38-.87-1.35,0Z"/><path class="cls-4" d="M748.1,400.92l0,1.94a.68.68,0,0,0,1.35,0l0-1.94a.68.68,0,0,0-1.35,0Z"/><path class="cls-4" d="M749.54,402.4a6.75,6.75,0,0,0,1.19-.11.67.67,0,0,0,.47-.83.68.68,0,0,0-.83-.47,5.13,5.13,0,0,1-.83.06.68.68,0,0,0-.68.68.69.69,0,0,0,.68.67Z"/><path class="cls-4" d="M750.07,400.08a30.61,30.61,0,0,0,.08,3.95c.07.86,1.42.87,1.35,0a30.61,30.61,0,0,1-.08-3.95c0-.87-1.31-.86-1.35,0Z"/><path class="cls-4" d="M751.43,399.09a21.41,21.41,0,0,0,1.41,5.83.68.68,0,0,0,1.3,0,38.28,38.28,0,0,0,1-4h-1.3a11.19,11.19,0,0,0,1,2.42c.36.64,1.17.27,1.25-.34l.65-5c.11-.86-1.24-.85-1.35,0l-.65,5,1.26-.34a10.73,10.73,0,0,1-.88-2.1c-.18-.6-1.17-.68-1.3,0-.27,1.34-.61,2.66-1,4h1.3a20.22,20.22,0,0,1-1.36-5.47c0-.86-1.4-.86-1.35,0Z"/><path class="cls-4" d="M757.39,405.28a18.79,18.79,0,0,1,1.17-4.35h-1.31c.54,1.59.67,3.27,1.24,4.87.29.81,1.6.46,1.3-.36-.57-1.59-.7-3.28-1.23-4.87a.69.69,0,0,0-1.31,0,18.84,18.84,0,0,0-1.16,4.36c-.12.85,1.18,1.21,1.3.35Z"/><path class="cls-4" d="M757.59,405h.71a.68.68,0,0,0,.68-.68.69.69,0,0,0-.68-.67h-.71a.69.69,0,0,0-.68.67.69.69,0,0,0,.68.68Z"/><path class="cls-4" d="M759.8,400.71a4.49,4.49,0,0,0,.07,3.17,1.59,1.59,0,0,0,2.18.81c.78-.38.1-1.54-.68-1.16-.33.16-.44-.84-.45-.95a3.67,3.67,0,0,1,.18-1.51c.26-.84-1-1.19-1.3-.36Z"/><path class="cls-4" d="M761.49,398a27.44,27.44,0,0,0,1.2,8.82.68.68,0,0,0,1.31-.36,26.33,26.33,0,0,1-1.16-8.46.68.68,0,0,0-1.35,0Z"/><path class="cls-4" d="M763.39,399.46l-.61,1.67a1.7,1.7,0,0,0-.2,1.2c.14.37.56.62.87.85.47.35.95.67,1.45,1,.74.46,1.42-.71.68-1.16a7.63,7.63,0,0,1-1.91-1.41l.18.66a13.44,13.44,0,0,1,.84-2.43c.3-.82-1-1.17-1.3-.36Z"/><path class="cls-4" d="M765.72,397a6.61,6.61,0,0,0-.07,1.54c0,.54,0,1.08,0,1.62a15.33,15.33,0,0,0,.58,3.22l1.38-.38,0-.09a.73.73,0,0,0-.88-.5.72.72,0,0,0-.51.88l0,.09a.72.72,0,0,0,.88.5.71.71,0,0,0,.5-.88,13.78,13.78,0,0,1-.52-2.84c0-.5,0-1,0-1.51a6,6,0,0,1,0-1.27.72.72,0,1,0-1.38-.38Z"/><path class="cls-4" d="M767.44,405.63a.72.72,0,0,0,0-1.44.72.72,0,0,0,0,1.44Z"/><path class="cls-1" d="M742.56,394.49a34.49,34.49,0,0,0,3.26,2.39.72.72,0,1,0,.73-1.25c-.53-.34-1.06-.7-1.57-1.07l-.37-.28-.19-.14-.09-.07h0l-.75-.6a.74.74,0,0,0-1,0,.73.73,0,0,0,0,1Z"/><path class="cls-1" d="M751.52,391.25a9.52,9.52,0,0,0,.54,4,.73.73,0,0,0,.89.5.72.72,0,0,0,.5-.88A8.41,8.41,0,0,1,753,393c0,.14,0-.08,0-.09a1.94,1.94,0,0,1,0-.24l0-.46a8,8,0,0,1,0-1,.72.72,0,0,0-.72-.72.74.74,0,0,0-.72.72Z"/><path class="cls-1" d="M760.75,394.69c.06-.15.11-.29.17-.43L761,394s0-.13,0,0,0,0,0-.06c.13-.28.26-.56.41-.84.07-.12.14-.25.22-.37l.12-.19.08-.1s.08-.11,0,0,0,0,0-.05a.46.46,0,0,0,.07-.07l.15-.17a2.82,2.82,0,0,1,.36-.33.73.73,0,0,0,0-1,.74.74,0,0,0-1,0,8.21,8.21,0,0,0-2.12,3.52.72.72,0,0,0,.5.89.75.75,0,0,0,.89-.5Z"/><path class="cls-1" d="M768.2,395.44l.07-.09-.12.15a7.79,7.79,0,0,1,1.31-1.32l-.14.12.45-.33a1.86,1.86,0,0,0,.61-.54.73.73,0,0,0,.07-.56.78.78,0,0,0-.33-.43.75.75,0,0,0-1,.26v0l.11-.15a.68.68,0,0,1-.12.12l.14-.11-.57.4a8.61,8.61,0,0,0-.68.55,8.35,8.35,0,0,0-1,1.17.78.78,0,0,0-.07.56.79.79,0,0,0,.33.43.73.73,0,0,0,.56.07.83.83,0,0,0,.43-.33Z"/><path class="cls-1" d="M771.85,400.72a26.59,26.59,0,0,1,3.94-.85.73.73,0,0,0,.51-.89.75.75,0,0,0-.89-.5,26.59,26.59,0,0,0-3.94.85.72.72,0,0,0,.38,1.39Z"/><path class="cls-1" d="M770.59,407.58a26.63,26.63,0,0,1,2.82,1.43.72.72,0,1,0,.73-1.24,26.63,26.63,0,0,0-2.82-1.43.75.75,0,0,0-.55-.07.68.68,0,0,0-.43.33.72.72,0,0,0,.25,1Z"/><path class="cls-1" d="M754.16,407.26c-.36,1.56-.78,3.11-1.27,4.63a.72.72,0,0,0,1.39.38c.49-1.52.91-3.06,1.27-4.62a.74.74,0,0,0-.51-.89.73.73,0,0,0-.88.5Z"/><path class="cls-1" d="M745.17,407.14l-1.59,1.27a.75.75,0,0,0-.21.51.74.74,0,0,0,.21.51.71.71,0,0,0,.51.21l.19,0a.8.8,0,0,0,.32-.19l1.59-1.27a.72.72,0,0,0,.21-.51.77.77,0,0,0-.21-.51.8.8,0,0,0-.51-.21l-.2,0a.75.75,0,0,0-.31.18Z"/><path class="cls-1" d="M741.45,401a6,6,0,0,1,1.2,0l-.2,0,.4.07a.71.71,0,0,0,.88-.5.69.69,0,0,0-.07-.56.75.75,0,0,0-.43-.33,6.24,6.24,0,0,0-1.78-.12.8.8,0,0,0-.51.21.75.75,0,0,0-.21.51.74.74,0,0,0,.21.51.69.69,0,0,0,.51.21Z"/><path class="cls-5" d="M747.37,391.8a6.35,6.35,0,0,0,.19,1.62.75.75,0,0,0,.33.43.78.78,0,0,0,.56.07.74.74,0,0,0,.5-.89,6.18,6.18,0,0,1-.12-.62l0,.19a4.35,4.35,0,0,1-.05-.8.78.78,0,0,0-.21-.51.72.72,0,0,0-1.23.51Z"/><path class="cls-5" d="M756.4,389.89c0,1,0,1.91,0,2.86a.74.74,0,0,0,.72.72.73.73,0,0,0,.72-.72c-.06-.95-.07-1.9,0-2.86a.73.73,0,0,0-.72-.72.74.74,0,0,0-.72.72Z"/><path class="cls-5" d="M766,394.15a12.27,12.27,0,0,1,2-2l-.14.11.12-.09a.88.88,0,0,0,.33-.43.79.79,0,0,0-.08-.56.69.69,0,0,0-.43-.33.71.71,0,0,0-.55.07,12.85,12.85,0,0,0-2.28,2.2.74.74,0,0,0-.21.51.71.71,0,0,0,1.22.51Z"/><path class="cls-5" d="M773.06,397.61a24.49,24.49,0,0,1,2.37-.66.72.72,0,0,0-.38-1.39,24.68,24.68,0,0,0-2.38.66.72.72,0,1,0,.39,1.39Z"/><path class="cls-5" d="M774,403h3.74a.72.72,0,1,0,0-1.44H774a.72.72,0,0,0-.72.72.74.74,0,0,0,.72.72Z"/><path class="cls-5" d="M769.09,409l1,1.31a.77.77,0,0,0,.43.33.71.71,0,0,0,.55-.07.76.76,0,0,0,.34-.43.66.66,0,0,0-.08-.55l-1-1.31a.55.55,0,0,0-.19-.21.7.7,0,0,0-.24-.13.77.77,0,0,0-.56.08.72.72,0,0,0-.33.43.71.71,0,0,0,.07.55Z"/><path class="cls-5" d="M759.92,408.66a2.71,2.71,0,0,0,.25,1.85l.61,1.68a.72.72,0,1,0,1.38-.39l-.56-1.55c-.09-.25-.18-.49-.26-.74a1.46,1.46,0,0,1-.05-.2l0-.05c0-.08,0-.08,0,0a.29.29,0,0,1,0-.16q0,.15,0,0l0-.11a.72.72,0,0,0-.5-.88.74.74,0,0,0-.89.5Z"/><path class="cls-5" d="M750.27,407.6c-.11.17-.22.34-.34.5L750,408a4.77,4.77,0,0,1-.84.84l.15-.12-.52.38a3,3,0,0,0-.66.67.72.72,0,0,0,.26,1,.74.74,0,0,0,1-.25.41.41,0,0,1,.05-.09l-.11.15a1.72,1.72,0,0,1,.34-.32l-.15.11a10,10,0,0,0,1.09-.86,5.52,5.52,0,0,0,.87-1.12.72.72,0,1,0-1.24-.73Z"/><path class="cls-5" d="M737.94,406.92l.72-.38.35-.16.15-.07.1,0c-.09,0-.09,0,0,0a15.69,15.69,0,0,1,1.5-.53.72.72,0,0,0,.5-.88.74.74,0,0,0-.89-.51,15.43,15.43,0,0,0-3.14,1.31.73.73,0,0,0-.26,1,.75.75,0,0,0,1,.26Z"/><path class="cls-5" d="M740,396.47a16.73,16.73,0,0,0,3.2,1.36.73.73,0,0,0,.89-.5.74.74,0,0,0-.5-.89l-.8-.26-.37-.14-.15-.06-.09,0a11.63,11.63,0,0,1-1.46-.72.72.72,0,0,0-.72,1.25Z"/></svg>