<svg id="boroughs" xmlns="http://www.w3.org/2000/svg" viewBox="0 0 1357.03 1080"><path d="M816.65,184.36l2.72-5.73L818,178l.59-1.25,1.33.63,1-2.12,1.48.7-1,2.12,2.17,1-.59,1.25-2.17-1-2.65,5.59c-.43.91-.23,1.55.51,1.9a3.5,3.5,0,0,0,1.24.35l-.6,1.24A3.64,3.64,0,0,1,818,188,2.51,2.51,0,0,1,816.65,184.36Z"/><path d="M828.07,175.78l1.48.7-2.81,5.93a3.53,3.53,0,0,1,3.77-.22c1.92.91,2.77,2.6,1.49,5.31l-2.71,5.71-1.48-.7,2.76-5.82c.78-1.64.43-2.7-1.06-3.41a2.71,2.71,0,0,0-3.81,1.32L823,190.24l-1.48-.7Z"/><path d="M833.65,189.7l.07-.14c1.33-2.82,4.06-3.92,6.63-2.7,2.15,1,3.56,3.28,2,6.61l-.23.48-7-3.33c-.93,2.15-.48,3.81,1.43,4.72,1.44.68,2.53.54,3.24-.45l1.48.7c-1.21,1.72-3.22,2-5.32,1C833.28,195.31,832.29,192.57,833.65,189.7Zm7.51,2.34c.77-2,.13-3.23-1.4-4a3.1,3.1,0,0,0-4,1.37Z"/><path d="M849.21,200.79l-.72,1.53-1.48-.7,6.53-13.76,1.47.7-2.85,6a4.23,4.23,0,0,1,4-.24c2.44,1.16,3.39,3.79,2,6.7l-.07.14c-1.35,2.85-4,4-6.52,2.8A4,4,0,0,1,849.21,200.79Zm7.3-.27.07-.14c1.12-2.35.37-4.14-1.19-4.88-1.73-.82-3.59-.31-4.72,2.08l-.07.14c-1.13,2.38-.42,4.1,1.4,5S855.44,202.78,856.51,200.52Z"/><path d="M862.58,197.6l1.48.7-.79,1.68a3.58,3.58,0,0,1,3.93-.39l-.66,1.39c-1.91-.79-3.38-.77-4.47,1.52l-2.43,5.11-1.47-.7Z"/><path d="M866.07,205.05l.06-.14a5.07,5.07,0,1,1,9.16,4.33l-.06.14a5.07,5.07,0,1,1-9.16-4.33Zm7.62,3.62.06-.12c1-2.16.48-4.11-1.37-5s-3.7-.06-4.71,2.08l-.07.14c-1,2.12-.51,4.06,1.38,4.95S872.69,210.77,873.69,208.67Z"/><path d="M879.76,205.75l1.47.7-.7,1.48a3.54,3.54,0,0,1,3.77-.22c1.92.91,2.78,2.6,1.49,5.31l-2.71,5.71-1.47-.7,2.76-5.82c.78-1.64.43-2.7-1.07-3.41a2.71,2.71,0,0,0-3.81,1.32l-2.67,5.64-1.48-.7Z"/><path d="M890.58,216.42l-1-6,1.73.82.68,4.47,3.86-2.31,1.6.76-5.17,3,1.08,6.51-1.75-.83-.73-4.94-4.34,2.54-1.59-.75Z"/><path d="M927.05,488a4.34,4.34,0,0,1-2.68,3c-2.55.9-5-.26-6.09-3.29l0-.15c-1.05-3,.08-5.73,2.75-6.67a3.7,3.7,0,0,1,3.79.62l-.55-1.57,1.54-.54,4.61,13.11-1.54.54Zm-1-3.15-.06-.15c-.87-2.49-2.47-3.24-4.37-2.58s-2.61,2.45-1.78,4.81l.05.15c.87,2.45,2.6,3.16,4.23,2.58C925.89,489,926.88,487.35,926,484.86Z"/><path d="M931,484.5l-2.16-6.15,1.54-.54,2.14,6.08c.6,1.71,1.59,2.22,3.12,1.68a2.72,2.72,0,0,0,1.74-3.6l-2.07-5.89,1.54-.55,3.42,9.73-1.54.54-.55-1.54a3.5,3.5,0,0,1-2.48,2.79C933.71,487.73,931.89,487.18,931,484.5Z"/><path d="M940.94,479.66l-.05-.15c-1-2.94.12-5.64,2.8-6.58,2.25-.79,4.85-.18,6.07,3.3l.17.5-7.32,2.57c.85,2.19,2.34,3,4.33,2.34,1.51-.52,2.19-1.39,2-2.6l1.54-.54c.36,2.07-.9,3.66-3.1,4.43C944.62,483.9,942,482.65,940.94,479.66Zm7-3.62c-.86-2-2.18-2.39-3.78-1.83a3.09,3.09,0,0,0-1.91,3.83Z"/><path d="M951.49,476l0-.15c-1-2.93.13-5.64,2.81-6.58,2.25-.79,4.84-.18,6.06,3.3l.18.5-7.33,2.57c.86,2.19,2.35,3.05,4.34,2.35,1.5-.53,2.18-1.4,2-2.6l1.54-.55c.35,2.07-.91,3.67-3.1,4.44A4.85,4.85,0,0,1,951.49,476Zm7-3.62c-.85-2-2.17-2.39-3.77-1.83a3.11,3.11,0,0,0-1.92,3.83Z"/><path d="M961,467l1.54-.54.55,1.55a3.52,3.52,0,0,1,2.52-2.81c2-.71,3.8-.11,4.8,2.72l2.09,6-1.54.54-2.13-6.08c-.61-1.71-1.6-2.22-3.16-1.67a2.7,2.7,0,0,0-1.78,3.61l2.07,5.9-1.54.54Z"/><path d="M973.71,470.13l1.5-.53c.52,1.12,1.39,1.63,2.95,1.08s1.94-1.25,1.58-2.29-1.24-1.09-2.85-.84c-2.69.42-3.79,0-4.38-1.67s.8-3.36,2.33-3.89c1.74-.62,3.5-.44,4.5,1.57l-1.49.52a1.87,1.87,0,0,0-2.58-.8c-1.12.39-1.65,1.2-1.35,2s.91,1.06,2.81.74c2.14-.33,3.71-.38,4.43,1.68.62,1.77-.17,3.39-2.53,4.21S974.5,472.09,973.71,470.13Z"/><path d="M684.15,659.85l-1,1.4-1.35-.93,8.6-12.57,1.35.92-3.76,5.5a4.22,4.22,0,0,1,4,.39c2.23,1.52,2.76,4.27,1,6.93l-.09.13c-1.78,2.6-4.53,3.34-6.88,1.74A3.92,3.92,0,0,1,684.15,659.85Zm7.25.87.09-.13c1.47-2.14,1-4-.41-5-1.58-1.08-3.5-.86-5,1.32L686,657c-1.49,2.18-1,4,.61,5.12S690,662.79,691.4,660.72Z"/><path d="M697.86,658.78l1.35.93-1.05,1.53a3.6,3.6,0,0,1,4,.23l-.87,1.27c-1.77-1.08-3.22-1.29-4.66.81l-3.19,4.67-1.35-.93Z"/><path d="M700.13,666.69l.09-.13a5.07,5.07,0,1,1,8.38,5.7l-.09.13a5.07,5.07,0,1,1-8.38-5.7Zm7,4.76.08-.11c1.34-2,1.12-4-.57-5.14s-3.65-.64-5,1.32l-.09.13c-1.32,1.93-1.13,3.92.59,5.1S705.78,673.37,707.1,671.45Z"/><path d="M710,673.4l.09-.13a5.07,5.07,0,1,1,8.38,5.7l-.09.13a5.07,5.07,0,1,1-8.38-5.7Zm7,4.76.08-.11c1.34-2,1.12-4-.57-5.14s-3.65-.63-5,1.32l-.09.13c-1.32,1.94-1.13,3.93.6,5.11S715.61,680.08,716.92,678.16Z"/><path d="M726.15,672.16l1.35.92-5.46,8,6.21-1.51,1.58,1.08-6.35,1.46.84,7.26-1.64-1.12-.76-7-3,4.41-1.35-.93Z"/><path d="M734.57,677.91l1.37.94-8.6,12.57-1.36-.93Z"/><path d="M733.08,694.06l1.88-9.91,1.45,1L734.84,693l6.53-4.49,1.38,1-12.54,8.25-1.37-.93Z"/><path d="M744.52,690.69l1.35.92L745,693a3.54,3.54,0,0,1,3.76.37c1.75,1.2,2.33,3,.64,5.48L745.78,704l-1.35-.92,3.64-5.32c1-1.5.84-2.6-.52-3.53a2.71,2.71,0,0,0-4,.7l-3.52,5.16-1.35-.93Z"/><path d="M649.35,425.7l.86-1.39,1.34.83a3.34,3.34,0,0,1,.13-3.53,3,3,0,0,1,3.24-1.55,4,4,0,0,1,.21-4c1-1.58,2.77-2.37,5.32-.79l5.42,3.37L665,420l-5.53-3.43c-1.54-1-2.58-.7-3.33.51a2.64,2.64,0,0,0,.91,3.76l5.36,3.33-.86,1.39L656,422.15c-1.54-1-2.58-.7-3.33.51a2.63,2.63,0,0,0,.91,3.76l5.36,3.33-.86,1.39Z"/><path d="M664.68,415.12c-2-1.26-1.38-3.83,0-6.07l.78-1.26-.63-.39c-1.39-.86-2.31-.69-3.14.65s-.66,2.18.32,3l-.86,1.39c-1.88-1.42-1.63-3.47-.58-5.16s2.67-2.77,5.12-1.25l5.78,3.58-.87,1.39-1.1-.68a3.71,3.71,0,0,1-.44,3.5C668.06,415.43,666.48,416.23,664.68,415.12Zm2.87-6-1.09-.67-.75,1.2c-1.09,1.76-1.45,3.32-.16,4.12.9.56,1.74.48,2.5-.75C669,411.51,668.91,409.92,667.55,409.08Z"/><path d="M664.41,401.43l.86-1.39,1.39.87a3.55,3.55,0,0,1,.2-3.77c1.13-1.81,2.9-2.47,5.45-.89l5.37,3.33-.86,1.39-5.47-3.39c-1.54-1-2.64-.73-3.51.67a2.71,2.71,0,0,0,.88,3.93l5.31,3.3-.86,1.39Z"/><path d="M666.43,388.83l.86-1.39,5.58,3.46a3.55,3.55,0,0,1,.2-3.77c1.13-1.81,2.9-2.47,5.45-.89l5.37,3.33L683,391l-5.47-3.39c-1.54-1-2.64-.73-3.51.67a2.72,2.72,0,0,0,.88,3.94l5.31,3.29-.86,1.39Z"/><path d="M682.71,386.06c-2-1.25-1.38-3.82,0-6.07l.78-1.25-.64-.4c-1.39-.86-2.31-.69-3.14.65s-.66,2.19.33,3l-.86,1.39c-1.88-1.42-1.63-3.47-.58-5.16s2.67-2.77,5.11-1.26l5.78,3.59-.86,1.39-1.11-.69a3.7,3.7,0,0,1-.43,3.51C686.09,386.37,684.5,387.18,682.71,386.06Zm2.86-6-1.08-.68-.75,1.21c-1.09,1.75-1.46,3.31-.17,4.11.91.56,1.75.48,2.5-.74C687,382.46,686.93,380.87,685.57,380Z"/><path d="M689.18,376.15l-5.39-3.35-.78,1.26-1.17-.73.78-1.25-2-1.24.86-1.39,2,1.24,1.27-2.05,1.17.73-1.26,2,5.25,3.27c.86.53,1.52.4,2-.3a3.38,3.38,0,0,0,.48-1.19l1.17.73a3.79,3.79,0,0,1-.55,1.3A2.51,2.51,0,0,1,689.18,376.15Z"/><path d="M692.87,370.21l-5.39-3.35-.78,1.26-1.17-.73.78-1.25-2-1.24.87-1.39,2,1.24,1.27-2.05,1.17.73-1.27,2,5.26,3.27c.85.53,1.51.4,1.95-.3a3.45,3.45,0,0,0,.48-1.19l1.17.73a4.09,4.09,0,0,1-.55,1.3A2.51,2.51,0,0,1,692.87,370.21Z"/><path d="M695.74,365.06c-2-1.26-1.38-3.83,0-6.07l.78-1.26-.64-.39c-1.39-.86-2.31-.69-3.14.65s-.66,2.18.33,3l-.86,1.39c-1.88-1.42-1.63-3.46-.58-5.16s2.67-2.77,5.11-1.25l5.78,3.58-.86,1.39-1.1-.68a3.73,3.73,0,0,1-.44,3.51C699.12,365.37,697.53,366.17,695.74,365.06Zm2.87-6-1.09-.67-.75,1.2c-1.09,1.76-1.46,3.32-.17,4.12.91.56,1.75.48,2.51-.74C700,361.45,700,359.86,698.61,359Z"/><path d="M695.46,351.37l.87-1.38,1.39.86a3.55,3.55,0,0,1,.2-3.77c1.12-1.81,2.9-2.47,5.45-.89l5.37,3.33-.86,1.39-5.48-3.39c-1.54-1-2.63-.73-3.5.67a2.72,2.72,0,0,0,.88,3.94l5.3,3.29-.86,1.39Z"/><path d="M358.31,795.12l1.53-.45c.46,1.14,1.3,1.7,2.89,1.24s2-1.14,1.7-2.2-1.18-1.16-2.8-1c-2.71.28-3.79-.19-4.29-1.91s1-3.3,2.54-3.75c1.78-.52,3.52-.25,4.41,1.81l-1.51.44a1.88,1.88,0,0,0-2.54-.94c-1.13.33-1.71,1.11-1.46,2s.86,1.11,2.77.9c2.15-.22,3.72-.18,4.33,1.92.53,1.8-.35,3.37-2.75,4.07S359,797.11,358.31,795.12Z"/><path d="M368.71,792.71l-1.78-6.09-1.41.41-.39-1.33,1.42-.41-.66-2.25,1.57-.46.66,2.25,2.31-.67.38,1.33-2.31.67,1.73,5.94c.28,1,.86,1.31,1.65,1.08a3.33,3.33,0,0,0,1.15-.56l.39,1.32a3.7,3.7,0,0,1-1.29.6A2.49,2.49,0,0,1,368.71,792.71Z"/><path d="M374.28,790.8c-.66-2.29,1.53-3.77,4.07-4.51l1.42-.41-.21-.72c-.46-1.57-1.26-2.06-2.77-1.62s-2,1.19-1.75,2.44l-1.57.46c-.45-2.31,1.1-3.67,3-4.23s3.84-.27,4.64,2.49l1.9,6.53-1.57.46-.36-1.25a3.71,3.71,0,0,1-2.68,2.31C376.59,793.29,374.87,792.82,374.28,790.8Zm6.17-2.58-.36-1.23-1.36.4c-2,.58-3.3,1.5-2.88,3,.3,1,1,1.52,2.36,1.12C379.88,791,380.9,789.76,380.45,788.22Z"/><path d="M385.73,787.76l-1.78-6.1-1.41.42-.39-1.33,1.42-.41-.66-2.25,1.57-.46.66,2.25,2.31-.67.38,1.32-2.3.68,1.72,5.94c.28,1,.86,1.31,1.65,1.08a3.52,3.52,0,0,0,1.15-.56l.39,1.32a3.92,3.92,0,0,1-1.28.6A2.51,2.51,0,0,1,385.73,787.76Z"/><path d="M390.67,783.75l0-.15c-.87-3,.44-5.63,3.16-6.42,2.29-.67,4.85.09,5.88,3.63l.15.51-7.46,2.17c.73,2.23,2.17,3.16,4.2,2.57,1.53-.44,2.26-1.27,2.13-2.49l1.57-.45c.24,2.08-1.11,3.6-3.34,4.25C394.12,788.19,391.56,786.8,390.67,783.75Zm7.17-3.23c-.75-2-2-2.51-3.67-2s-2.37,1.88-2.12,3.71Z"/><path d="M400.68,775.36l1.57-.46.46,1.57a3.55,3.55,0,0,1,2.67-2.66c2.05-.6,3.81.1,4.65,3l1.76,6.07-1.57.46-1.8-6.19c-.5-1.74-1.47-2.3-3.06-1.84a2.71,2.71,0,0,0-2,3.51l1.74,6-1.57.46Z"/><path d="M362.59,807.69a1.09,1.09,0,0,1,.73-1.34,1.11,1.11,0,0,1,1.35.74,1.08,1.08,0,1,1-2.08.6Zm1.18,3,1.57-.45,2.88,9.89-1.57.46Z"/><path d="M369.74,816.41l1.53-.45c.45,1.14,1.29,1.7,2.88,1.24s2-1.14,1.7-2.2-1.18-1.16-2.79-1c-2.71.27-3.79-.19-4.29-1.92s1-3.3,2.54-3.75c1.78-.52,3.52-.25,4.4,1.81l-1.51.44a1.87,1.87,0,0,0-2.53-.94c-1.14.33-1.71,1.11-1.46,2s.85,1.11,2.76.9c2.16-.21,3.73-.18,4.34,1.92.52,1.8-.36,3.37-2.76,4.07S370.42,818.41,369.74,816.41Z"/><path d="M376.3,801.94l1.58-.46,4.26,14.62-1.59.47Z"/><path d="M383.74,812.66c-.66-2.29,1.53-3.77,4.07-4.51l1.42-.41L389,807c-.46-1.57-1.26-2-2.77-1.61s-1.95,1.18-1.75,2.44l-1.57.45c-.45-2.31,1.1-3.67,3-4.22s3.84-.28,4.64,2.48l1.9,6.53-1.57.46-.37-1.25a3.71,3.71,0,0,1-2.67,2.32C386.05,815.15,384.33,814.69,383.74,812.66Zm6.17-2.57-.36-1.23-1.36.39c-2,.58-3.3,1.5-2.88,3,.3,1,1,1.53,2.36,1.12C389.34,812.84,390.36,811.62,389.91,810.09Z"/><path d="M392.69,802.3l1.57-.46.46,1.58a3.52,3.52,0,0,1,2.67-2.67c2-.6,3.8.1,4.64,3l1.77,6.07-1.57.46-1.8-6.19c-.51-1.74-1.47-2.3-3.06-1.84a2.72,2.72,0,0,0-2,3.51l1.75,6-1.57.46Z"/><path d="M404.76,804.37l-.05-.15c-.88-3,.39-5.72,3.12-6.51a3.67,3.67,0,0,1,3.74.82l-1.83-6.32,1.57-.46,4.25,14.63-1.57.46-.49-1.71a4.36,4.36,0,0,1-2.85,2.86C408.06,808.75,405.65,807.46,404.76,804.37Zm7.87-2.43-.05-.15c-.73-2.54-2.29-3.38-4.22-2.82s-2.74,2.3-2,4.7l0,.15c.73,2.5,2.42,3.3,4.08,2.82C412.28,806.1,413.37,804.47,412.63,801.94Z"/></svg>